<?xml version="1.0" encoding="UTF-8"?>
<!-- Generator: CustomSymbols v2.7.2.48 by @serious_bret https://bretlester.com/app_content/CustomSymbols/ -->
<!-- Guides: Left/Right 0.11/0.11 Cap/Base 0.222/0.222 -->
<!-- Settings: RefScale 1.0 Min/Max Stroke Scales 0.5/2.21 -->
<!DOCTYPE svg
PUBLIC "-//W3C//DTD SVG 1.1//EN"
       "http://www.w3.org/Graphics/SVG/1.1/DTD/svg11.dtd">
<svg version="1.1" xmlns="http://www.w3.org/2000/svg" xmlns:xlink="http://www.w3.org/1999/xlink" width="3300" height="2200">
<![CDATA[<?xml version="1.0" encoding="UTF-8"?>
<svg width="96px" height="96px" viewBox="0 0 96 96" version="1.1" xmlns="http://www.w3.org/2000/svg" xmlns:xlink="http://www.w3.org/1999/xlink">
    <title>icon/medical/dom-mortar-and-pestile</title>
    <g id="icon/medical/dom-mortar-and-pestile" stroke="none" stroke-width="1" fill="none" fill-rule="evenodd">
        <path d="M27.8215655,75.7436869 C22.3258808,72.7542685 17.7413575,68.9452858 14.0253197,64.1272539 C8.90923316,57.4944425 5.92409478,50.0139795 5.22170188,41.6523276 C5.1410032,40.6998724 4.91320236,40.1691468 3.83590646,40.3397671 C3.33758689,40.4156449 2.81076078,40.3682737 2.29822986,40.3305444 C0.959889458,40.2215486 0.0344328378,39.2456174 0.00118917498,37.9330568 C-0.0367496836,36.6301383 0.836472884,35.5594645 2.13687442,35.3653682 C2.56396955,35.2991323 3.00535987,35.3276389 3.43723404,35.3276389 C19.1888612,35.3276389 34.9452674,35.317997 50.6968107,35.3465036 C51.6509416,35.3465036 52.2868891,35.0576648 52.9513431,34.3894369 C61.6978221,25.6012343 70.4635849,16.8367174 79.2436009,8.08641179 C83.320037,4.02158251 89.3378526,3.97421128 93.2059393,7.93008672 C96.9218514,11.7295952 96.9503579,17.6136895 93.1774328,21.4700853 C88.9534334,25.7860241 84.6443337,30.0212221 80.3729632,34.2946944 C80.1025702,34.5646686 79.8510419,34.848896 79.3999677,35.3276389 C79.998186,35.3276389 80.3729632,35.3276389 80.7477404,35.3276389 C84.9335913,35.3276389 89.1194422,35.317997 93.3057122,35.3368616 C94.6392317,35.3418922 95.5409608,36.0335961 95.8826201,37.1939817 C96.186131,38.2269262 95.7685939,39.4112071 94.800629,39.9561859 C94.37345,40.1930421 93.8418868,40.2923959 93.3434415,40.3397671 C92.5984984,40.4156449 91.8485247,40.3921689 91.098551,40.4110336 C91.0654331,40.4110336 91.0323152,40.4487629 90.8663065,40.5435054 C90.3489965,47.8537673 88.1703419,54.7326576 84.1504997,60.9860799 C80.1260462,67.2445327 74.8011912,72.1195778 68.3184673,75.653975 C70.610729,77.2931036 72.8648421,78.875219 75.0812261,80.5051249 C75.8073045,81.0404618 76.4860119,81.6608992 77.1219594,82.3052318 C78.5552517,83.759906 78.9493128,85.5080304 78.299112,87.4313864 C77.6489112,89.3404891 76.3103612,90.5201586 74.2792699,90.8236699 C73.7762132,90.8991285 73.2589032,90.9326656 72.7462046,90.9326656 C56.2400762,90.937277 39.7385592,90.9561416 23.232347,90.8945171 C21.9936957,90.8945171 20.5746566,90.5868137 19.5495529,89.9328391 C16.7589716,88.1658501 16.5169175,84.2763783 19.0892141,82.1065242 C21.5238407,80.0548885 24.1910473,78.2832882 26.7633019,76.3930501 C27.0433368,76.1893119 27.3612686,76.0329449 27.8312074,75.7533288 L27.8215655,75.7436869 Z M10.1906443,40.4961341 C10.2286251,41.1119602 10.2286251,41.5856725 10.2950705,42.0501622 C10.4564259,43.1824605 10.598791,44.3193701 10.8455822,45.4328037 C13.3514333,56.8362758 19.7346358,65.3777707 29.8954167,71.0962753 C31.7655299,72.1480844 32.9661586,73.5834747 32.9565166,75.7818354 C32.9472939,77.9797769 31.6846217,79.3397086 29.8673294,80.4669764 C27.5939324,81.8742793 25.4629423,83.5087966 23.279844,85.057794 C23.0520431,85.2187724 22.8906458,85.4749124 22.6343803,85.7637512 L73.1545189,85.7637512 C73.211532,85.6786507 73.2685451,85.5981615 73.3301696,85.5126417 C73.0262395,85.2854275 72.72734,85.0531827 72.4187985,84.8351911 C70.2879342,83.3478182 68.2140831,81.7652836 66.0069218,80.405771 C64.184599,79.2826955 62.9885817,77.9043183 63.0170883,75.6820624 C63.0409834,73.5075969 64.2177169,72.1149664 66.0496817,71.1105286 C73.41527,67.0739124 78.8780464,61.232578 82.4279498,53.6288659 C84.3642988,49.483254 85.4651545,45.1154584 85.7879492,40.4961341 L10.1906443,40.4961341 Z M59.2014033,35.3226083 L60.5588179,35.3226083 C64.0328435,35.3226083 67.5022578,35.2991323 70.9762835,35.3418922 C71.8256109,35.3511149 72.4330518,35.128512 73.0451041,34.5080746 C76.8088066,30.6848386 80.6198802,26.9089739 84.41167,23.1140349 C86.1392505,21.3848171 87.890307,19.6745478 89.5893809,17.9169073 C90.9086471,16.55249 91.3027082,14.9085404 90.6382541,13.1130029 C89.9788307,11.3268977 88.621416,10.3130695 86.7466914,10.0856875 C85.0903773,9.88668642 83.7996177,10.6399729 82.6509716,11.7912197 C75.1285972,19.333433 67.5923888,26.8616027 60.0603726,34.3940483 C59.8230975,34.6309045 59.6051063,34.8916559 59.2064338,35.3226083 L59.2014033,35.3226083 Z" id="Shape" fill="#FB4C6C" fill-rule="nonzero"></path>
    </g>
</svg>]]>
 <g id="Notes">
  <rect height="2200" id="artboard" style="fill:white;opacity:1" width="3300" x="0" y="0"/>
  <line id="" style="fill:none;stroke:black;opacity:1;stroke-width:0.5;" x1="263" x2="3036" y1="292" y2="292"/>
  <text id="reftext1" style="stroke:none;fill:black;font-family:-apple-system,&quot;SF Pro Display&quot;,&quot;SF Pro Text&quot;,Helvetica,sans-serif;font-weight:bold;" transform="matrix(1 0 0 1 263 322)">Weight/Scale Variations</text>
  <text id="reftext2" style="stroke:none;fill:black;font-family:-apple-system,&quot;SF Pro Display&quot;,&quot;SF Pro Text&quot;,Helvetica,sans-serif;text-anchor:middle;" transform="matrix(1 0 0 1 559.711 322)">Ultralight</text>
  <text style="stroke:none;fill:black;font-family:-apple-system,&quot;SF Pro Display&quot;,&quot;SF Pro Text&quot;,Helvetica,sans-serif;text-anchor:middle;" transform="matrix(1 0 0 1 856.422 322)">Thin</text>
  <text style="stroke:none;fill:black;font-family:-apple-system,&quot;SF Pro Display&quot;,&quot;SF Pro Text&quot;,Helvetica,sans-serif;text-anchor:middle;" transform="matrix(1 0 0 1 1153.13 322)">Light</text>
  <text style="stroke:none;fill:black;font-family:-apple-system,&quot;SF Pro Display&quot;,&quot;SF Pro Text&quot;,Helvetica,sans-serif;text-anchor:middle;" transform="matrix(1 0 0 1 1449.84 322)">Regular</text>
  <text style="stroke:none;fill:black;font-family:-apple-system,&quot;SF Pro Display&quot;,&quot;SF Pro Text&quot;,Helvetica,sans-serif;text-anchor:middle;" transform="matrix(1 0 0 1 1746.56 322)">Medium</text>
  <text style="stroke:none;fill:black;font-family:-apple-system,&quot;SF Pro Display&quot;,&quot;SF Pro Text&quot;,Helvetica,sans-serif;text-anchor:middle;" transform="matrix(1 0 0 1 2043.27 322)">Semibold</text>
  <text style="stroke:none;fill:black;font-family:-apple-system,&quot;SF Pro Display&quot;,&quot;SF Pro Text&quot;,Helvetica,sans-serif;text-anchor:middle;" transform="matrix(1 0 0 1 2339.98 322)">Bold</text>
  <text style="stroke:none;fill:black;font-family:-apple-system,&quot;SF Pro Display&quot;,&quot;SF Pro Text&quot;,Helvetica,sans-serif;text-anchor:middle;" transform="matrix(1 0 0 1 2636.69 322)">Heavy</text>
  <text style="stroke:none;fill:black;font-family:-apple-system,&quot;SF Pro Display&quot;,&quot;SF Pro Text&quot;,Helvetica,sans-serif;text-anchor:middle;" transform="matrix(1 0 0 1 2933.4 322)">Black</text>
  <line id="" style="fill:none;stroke:black;opacity:1;stroke-width:0.5;" x1="263" x2="3036" y1="1903" y2="1903"/>
  <g id="" transform="matrix(1 0 0 1 263 1933)">
   <path d="M9.24805 0.830078C13.5547 0.830078 17.1387-2.74414 17.1387-7.05078C17.1387-11.3574 13.5449-14.9316 9.23828-14.9316C4.94141-14.9316 1.36719-11.3574 1.36719-7.05078C1.36719-2.74414 4.95117 0.830078 9.24805 0.830078ZM9.24805-0.654297C5.70312-0.654297 2.87109-3.49609 2.87109-7.05078C2.87109-10.6055 5.69336-13.4473 9.23828-13.4473C12.793-13.4473 15.6348-10.6055 15.6445-7.05078C15.6543-3.49609 12.8027-0.654297 9.24805-0.654297ZM6.39648-6.31836L8.50586-6.31836L8.50586-4.19922C8.50586-3.75977 8.79883-3.45703 9.22852-3.45703C9.67773-3.45703 9.9707-3.75977 9.9707-4.19922L9.9707-6.31836L12.0996-6.31836C12.5391-6.31836 12.8418-6.61133 12.8418-7.04102C12.8418-7.48047 12.5391-7.7832 12.0996-7.7832L9.9707-7.7832L9.9707-9.89258C9.9707-10.3418 9.67773-10.6445 9.22852-10.6445C8.79883-10.6445 8.50586-10.3418 8.50586-9.89258L8.50586-7.7832L6.39648-7.7832C5.94727-7.7832 5.64453-7.48047 5.64453-7.04102C5.64453-6.61133 5.94727-6.31836 6.39648-6.31836Z"/>
  </g>
  <g id="" transform="matrix(1 0 0 1 281.506 1933)">
   <path d="M11.709 2.91016C17.1582 2.91016 21.6699-1.61133 21.6699-7.05078C21.6699-12.5 17.1484-17.0117 11.6992-17.0117C6.25977-17.0117 1.74805-12.5 1.74805-7.05078C1.74805-1.61133 6.26953 2.91016 11.709 2.91016ZM11.709 1.25C7.09961 1.25 3.41797-2.44141 3.41797-7.05078C3.41797-11.6602 7.08984-15.3516 11.6992-15.3516C16.3086-15.3516 20-11.6602 20.0098-7.05078C20.0195-2.44141 16.3184 1.25 11.709 1.25ZM7.98828-6.23047L10.8789-6.23047L10.8789-3.32031C10.8789-2.83203 11.2109-2.5 11.6895-2.5C12.1777-2.5 12.5195-2.83203 12.5195-3.32031L12.5195-6.23047L15.4297-6.23047C15.918-6.23047 16.25-6.5625 16.25-7.04102C16.25-7.5293 15.918-7.87109 15.4297-7.87109L12.5195-7.87109L12.5195-10.7617C12.5195-11.2695 12.1777-11.6016 11.6895-11.6016C11.2109-11.6016 10.8789-11.2598 10.8789-10.7617L10.8789-7.87109L7.98828-7.87109C7.48047-7.87109 7.14844-7.5293 7.14844-7.04102C7.14844-6.5625 7.49023-6.23047 7.98828-6.23047Z"/>
  </g>
  <g id="" transform="matrix(1 0 0 1 304.924 1933)">
   <path d="M14.9707 5.66406C21.9336 5.66406 27.6953-0.0976562 27.6953-7.05078C27.6953-14.0137 21.9238-19.7754 14.9609-19.7754C8.00781-19.7754 2.25586-14.0137 2.25586-7.05078C2.25586-0.0976562 8.01758 5.66406 14.9707 5.66406ZM14.9707 3.84766C8.93555 3.84766 4.08203-1.01562 4.08203-7.05078C4.08203-13.0957 8.92578-17.9492 14.9609-17.9492C21.0059-17.9492 25.8594-13.0957 25.8691-7.05078C25.8789-1.01562 21.0156 3.84766 14.9707 3.84766ZM10.0586-6.14258L14.0625-6.14258L14.0625-2.12891C14.0625-1.5918 14.4336-1.2207 14.9512-1.2207C15.4883-1.2207 15.8594-1.5918 15.8594-2.12891L15.8594-6.14258L19.8828-6.14258C20.4102-6.14258 20.791-6.51367 20.791-7.03125C20.791-7.56836 20.4199-7.94922 19.8828-7.94922L15.8594-7.94922L15.8594-11.9531C15.8594-12.5098 15.4883-12.8809 14.9512-12.8809C14.4336-12.8809 14.0625-12.5 14.0625-11.9531L14.0625-7.94922L10.0586-7.94922C9.50195-7.94922 9.13086-7.56836 9.13086-7.03125C9.13086-6.51367 9.51172-6.14258 10.0586-6.14258Z"/>
  </g>
  <text style="stroke:none;fill:black;font-family:-apple-system,&quot;SF Pro Display&quot;,&quot;SF Pro Text&quot;,Helvetica,sans-serif;font-weight:bold;" transform="matrix(1 0 0 1 263 1953)">Design Variations</text>
  <text style="stroke:none;fill:black;font-family:-apple-system,&quot;SF Pro Display&quot;,&quot;SF Pro Text&quot;,Helvetica,sans-serif;" transform="matrix(1 0 0 1 263 1971)">Symbols are supported in up to nine weights and three scales.</text>
  <text style="stroke:none;fill:black;font-family:-apple-system,&quot;SF Pro Display&quot;,&quot;SF Pro Text&quot;,Helvetica,sans-serif;" transform="matrix(1 0 0 1 263 1989)">For optimal layout with text and other symbols, vertically align</text>
  <text style="stroke:none;fill:black;font-family:-apple-system,&quot;SF Pro Display&quot;,&quot;SF Pro Text&quot;,Helvetica,sans-serif;" transform="matrix(1 0 0 1 263 2007)">symbols with the adjacent text.</text>
  <line id="" style="fill:none;stroke:#00AEEF;stroke-width:0.5;opacity:1.0;" x1="776" x2="776" y1="1919" y2="1933"/>
  <g id="" transform="matrix(1 0 0 1 776 1933)">
   <path d="M3.31055 0.126953C3.82812 0.126953 4.08203-0.0683594 4.26758-0.605469L5.52734-4.0625L11.2891-4.0625L12.5488-0.605469C12.7344-0.0683594 12.9883 0.126953 13.4961 0.126953C14.0137 0.126953 14.3457-0.185547 14.3457-0.673828C14.3457-0.839844 14.3164-0.986328 14.2383-1.20117L9.6582-13.3887C9.43359-13.9941 9.0332-14.2871 8.4082-14.2871C7.80273-14.2871 7.39258-13.9941 7.17773-13.3984L2.59766-1.19141C2.51953-0.976562 2.49023-0.830078 2.49023-0.664062C2.49023-0.175781 2.80273 0.126953 3.31055 0.126953ZM6.00586-5.53711L8.37891-12.1094L8.42773-12.1094L10.8008-5.53711Z"/>
  </g>
  <line id="" style="fill:none;stroke:#00AEEF;stroke-width:0.5;opacity:1.0;" x1="792.836" x2="792.836" y1="1919" y2="1933"/>
  <text style="stroke:none;fill:black;font-family:-apple-system,&quot;SF Pro Display&quot;,&quot;SF Pro Text&quot;,Helvetica,sans-serif;font-weight:bold;" transform="matrix(1 0 0 1 776 1953)">Margins</text>
  <text style="stroke:none;fill:black;font-family:-apple-system,&quot;SF Pro Display&quot;,&quot;SF Pro Text&quot;,Helvetica,sans-serif;" transform="matrix(1 0 0 1 776 1971)">Leading and trailing margins on the left and right side of each symbol</text>
  <text style="stroke:none;fill:black;font-family:-apple-system,&quot;SF Pro Display&quot;,&quot;SF Pro Text&quot;,Helvetica,sans-serif;" transform="matrix(1 0 0 1 776 1989)">can be adjusted by modifying the x-location of the margin guidelines.</text>
  <text style="stroke:none;fill:black;font-family:-apple-system,&quot;SF Pro Display&quot;,&quot;SF Pro Text&quot;,Helvetica,sans-serif;" transform="matrix(1 0 0 1 776 2007)">Modifications are automatically applied proportionally to all</text>
  <text style="stroke:none;fill:black;font-family:-apple-system,&quot;SF Pro Display&quot;,&quot;SF Pro Text&quot;,Helvetica,sans-serif;" transform="matrix(1 0 0 1 776 2025)">scales and weights.</text>
  <g id="" transform="matrix(1 0 0 1 1289 1933)">
   <path d="M2.8418 1.86523L4.54102 3.57422C5.40039 4.44336 6.38672 4.38477 7.31445 3.35938L17.4902-7.85156C17.7539-7.76367 18.0273-7.7832 18.3398-7.8418L19.4043-8.03711L20.0684-7.36328L20.0293-6.80664C19.9902-6.30859 20.1172-5.92773 20.6055-5.44922L21.3672-4.70703C21.8457-4.22852 22.4609-4.19922 22.9297-4.66797L25.8398-7.58789C26.3086-8.05664 26.2891-8.65234 25.8105-9.13086L25.0391-9.89258C24.5605-10.3711 24.1895-10.5273 23.7109-10.4883L23.1348-10.4395L22.4902-11.0742L22.7344-12.1973C22.8613-12.7637 22.7051-13.2031 22.1191-13.7891L19.9219-15.9766C16.582-19.2969 12.1484-19.2188 9.25781-16.3281C8.83789-15.918 8.80859-15.3418 9.04297-14.9512C9.27734-14.5898 9.73633-14.3555 10.3809-14.5215C11.8457-14.8633 13.3691-14.9219 14.7949-13.9844L14.209-12.5293C14.0137-12.0508 13.9844-11.6504 14.1113-11.2891L3.04688-0.898438C2.06055 0.0195312 1.98242 0.996094 2.8418 1.86523ZM10.752-15.957C13.1836-17.7344 16.4746-17.4316 18.7012-15.2051L21.1328-12.793C21.3672-12.5586 21.4062-12.373 21.3379-12.0312L21.0156-10.5469L22.5195-9.0625L23.5059-9.12109C23.7598-9.13086 23.8379-9.11133 24.0332-8.91602L24.6094-8.33984L22.168-5.89844L21.5918-6.47461C21.3965-6.66992 21.3672-6.74805 21.377-7.01172L21.4453-7.98828L19.9512-9.47266L18.4277-9.21875C18.1055-9.15039 17.959-9.17969 17.7148-9.41406L15.7129-11.416C15.459-11.6504 15.4297-11.8164 15.5859-12.1875L16.4648-14.2773C14.9023-15.7324 12.8711-16.3574 10.8398-15.7617C10.6836-15.7227 10.625-15.8496 10.752-15.957ZM5.27344 2.30469L4.10156 1.14258C3.63281 0.683594 3.74023 0.341797 4.14062-0.0195312L14.9512-10.1953L16.416-8.71094L6.42578 2.27539C6.07422 2.67578 5.74219 2.77344 5.27344 2.30469Z"/>
  </g>
  <text style="stroke:none;fill:black;font-family:-apple-system,&quot;SF Pro Display&quot;,&quot;SF Pro Text&quot;,Helvetica,sans-serif;font-weight:bold;" transform="matrix(1 0 0 1 1289 1953)">Exporting</text>
  <text style="stroke:none;fill:black;font-family:-apple-system,&quot;SF Pro Display&quot;,&quot;SF Pro Text&quot;,Helvetica,sans-serif;" transform="matrix(1 0 0 1 1289 1971)">Symbols should be outlined when exporting to ensure the</text>
  <text style="stroke:none;fill:black;font-family:-apple-system,&quot;SF Pro Display&quot;,&quot;SF Pro Text&quot;,Helvetica,sans-serif;" transform="matrix(1 0 0 1 1289 1989)">design is preserved when submitting to Xcode.</text>
  <text id="template-version" style="stroke:none;fill:black;font-family:-apple-system,&quot;SF Pro Display&quot;,&quot;SF Pro Text&quot;,Helvetica,sans-serif;text-anchor:end;" transform="matrix(1 0 0 1 3036 1933)">Template v.2.0</text>
  <text style="stroke:none;fill:black;font-family:-apple-system,&quot;SF Pro Display&quot;,&quot;SF Pro Text&quot;,Helvetica,sans-serif;text-anchor:end;" transform="matrix(1 0 0 1 3036 1951)">Requires Xcode 12 or greater</text>
  <text style="stroke:none;fill:black;font-family:-apple-system,&quot;SF Pro Display&quot;,&quot;SF Pro Text&quot;,Helvetica,sans-serif;" transform="matrix(1 0 0 1 263 726)">Small</text>
  <text style="stroke:none;fill:black;font-family:-apple-system,&quot;SF Pro Display&quot;,&quot;SF Pro Text&quot;,Helvetica,sans-serif;" transform="matrix(1 0 0 1 263 1156)">Medium</text>
  <text style="stroke:none;fill:black;font-family:-apple-system,&quot;SF Pro Display&quot;,&quot;SF Pro Text&quot;,Helvetica,sans-serif;" transform="matrix(1 0 0 1 263 1586)">Large</text>
 </g>
 <g id="Guides">
  <g id="H-reference" style="fill:#27AAE1;stroke:none;" transform="matrix(1 0 0 1 339 696)">
   <path d="M0.976562 0L3.66211 0L12.9883-24.4629L45.752-24.4629L55.127 0L57.7637 0L30.6152-70.459L28.125-70.459ZM29.3457-67.1387L29.4434-67.1387L44.873-26.709L13.8672-26.709Z"/>
  </g>
  <line id="Baseline-S" style="fill:none;stroke:#27AAE1;opacity:1;stroke-width:0.5;" x1="263" x2="3036" y1="696" y2="696"/>
  <line id="Capline-S" style="fill:none;stroke:#27AAE1;opacity:1;stroke-width:0.5;" x1="263" x2="3036" y1="625.541" y2="625.541"/>
  <g id="H-reference" style="fill:#27AAE1;stroke:none;" transform="matrix(1 0 0 1 339 1126)">
   <path d="M0.976562 0L3.66211 0L12.9883-24.4629L45.752-24.4629L55.127 0L57.7637 0L30.6152-70.459L28.125-70.459ZM29.3457-67.1387L29.4434-67.1387L44.873-26.709L13.8672-26.709Z"/>
  </g>
  <line id="Baseline-M" style="fill:none;stroke:#27AAE1;opacity:1;stroke-width:0.5;" x1="263" x2="3036" y1="1126" y2="1126"/>
  <line id="Capline-M" style="fill:none;stroke:#27AAE1;opacity:1;stroke-width:0.5;" x1="263" x2="3036" y1="1055.54" y2="1055.54"/>
  <g id="H-reference" style="fill:#27AAE1;stroke:none;" transform="matrix(1 0 0 1 339 1556)">
   <path d="M0.976562 0L3.66211 0L12.9883-24.4629L45.752-24.4629L55.127 0L57.7637 0L30.6152-70.459L28.125-70.459ZM29.3457-67.1387L29.4434-67.1387L44.873-26.709L13.8672-26.709Z"/>
  </g>
  <line id="Baseline-L" style="fill:none;stroke:#27AAE1;opacity:1;stroke-width:0.5;" x1="263" x2="3036" y1="1556" y2="1556"/>
  <line id="Capline-L" style="fill:none;stroke:#27AAE1;opacity:1;stroke-width:0.5;" x1="263" x2="3036" y1="1485.54" y2="1485.54"/>
  <line id="left-margin" x1="1401.7066461049908" x2="1401.7066461049908" y1="1030.79" y2="1150.12" style="fill:none;stroke:#00AEEF;stroke-width:0.5;opacity:1.0;"/>
  <line id="right-margin" x1="1500.553353895009" x2="1500.553353895009" y1="1030.79" y2="1150.12" style="fill:none;stroke:#00AEEF;stroke-width:0.5;opacity:1.0;"/>
 </g>
 <g id="Symbols">
  <g id="Black-L" transform="matrix(1.0,0.0,0.0,1.0,2852.941376250562,1439.031395781812)">  <path stroke-linejoin="miter" stroke-opacity="1" stroke-linecap="butt" fill-opacity="1" fill="#000000" version="1.1" stroke-miterlimit="4" fill-rule="nonzero" stroke-width="1px" stroke-dasharray="none" xmlns:xlink="http://www.w3.org/1999/xlink" stroke="none" d="M47.377,128.983C38.018,123.892,30.212,117.406,23.884,109.202C15.171,97.907,10.088,85.168,8.892,70.929C8.755,69.307,8.367,68.404,6.532,68.694C5.684,68.823,4.786,68.743,3.914,68.678C1.635,68.493,0.059,66.831,0.002,64.596C-0.063,62.377,1.424,60.554,3.639,60.223C4.366,60.11,5.118,60.159,5.853,60.159C32.676,60.159,59.508,60.143,86.331,60.191C87.956,60.191,89.039,59.699,90.17,58.561C105.064,43.596,119.992,28.671,134.943,13.77C141.885,6.848,152.132,6.768,158.719,13.504C165.047,19.974,165.096,29.994,158.671,36.561C151.478,43.911,144.14,51.123,136.866,58.4C136.406,58.86,135.977,59.344,135.209,60.159C136.228,60.159,136.866,60.159,137.504,60.159C144.632,60.159,151.76,60.143,158.889,60.175C161.16,60.183,162.696,61.361,163.277,63.337C163.794,65.096,163.083,67.113,161.435,68.041C160.707,68.444,159.802,68.613,158.953,68.694C157.685,68.823,156.408,68.783,155.131,68.815C155.074,68.815,155.018,68.88,154.735,69.041C153.854,81.49,150.144,93.204,143.299,103.852C136.446,114.51,127.378,122.812,116.339,128.83C120.242,131.622,124.081,134.316,127.855,137.091C129.091,138.003,130.247,139.059,131.33,140.157C133.771,142.634,134.442,145.611,133.335,148.886C132.227,152.137,129.948,154.146,126.489,154.663C125.633,154.791,124.752,154.848,123.879,154.848C95.771,154.856,67.67,154.888,39.562,154.783C37.453,154.783,35.036,154.259,33.291,153.146C28.539,150.137,28.126,143.513,32.507,139.818C36.653,136.325,41.195,133.308,45.575,130.089C46.052,129.742,46.593,129.476,47.393,128.999L47.377,128.983ZM17.354,68.96C17.418,70.009,17.418,70.816,17.531,71.607C17.806,73.535,18.049,75.471,18.469,77.367C22.736,96.786,33.606,111.331,50.909,121.069C54.093,122.86,56.138,125.304,56.121,129.048C56.106,132.791,53.955,135.107,50.861,137.026C46.989,139.423,43.361,142.206,39.643,144.844C39.255,145.118,38.98,145.554,38.544,146.046L124.574,146.046C124.671,145.901,124.768,145.764,124.873,145.618C124.356,145.232,123.847,144.836,123.321,144.465C119.692,141.932,116.161,139.237,112.402,136.922C109.299,135.01,107.263,132.662,107.311,128.878C107.352,125.175,109.356,122.804,112.475,121.093C125.018,114.219,134.32,104.272,140.366,91.324C143.663,84.264,145.538,76.827,146.087,68.96L17.354,68.96ZM100.813,60.15L103.125,60.15C109.041,60.15,114.949,60.11,120.865,60.183C122.311,60.199,123.345,59.82,124.388,58.763C130.797,52.253,137.287,45.823,143.744,39.361C146.685,36.416,149.667,33.504,152.561,30.51C154.807,28.187,155.478,25.388,154.347,22.33C153.224,19.288,150.912,17.562,147.72,17.175C144.899,16.836,142.701,18.119,140.745,20.079C127.936,32.923,115.102,45.742,102.276,58.569C101.872,58.973,101.501,59.417,100.822,60.15L100.813,60.15ZM100.813,60.15"/>
</g>
  <g id="Heavy-L" transform="matrix(1.0,0.0,0.0,1.0,2556.231376250562,1439.031395781812)">  <path version="1.1" fill-rule="nonzero" fill="#000000" xmlns:xlink="http://www.w3.org/1999/xlink" stroke-width="1px" stroke-linejoin="miter" fill-opacity="1" stroke-miterlimit="4" stroke-opacity="1" stroke-dasharray="none" stroke-linecap="butt" stroke="none" d="M47.377,128.983C38.018,123.892,30.212,117.406,23.884,109.202C15.171,97.907,10.088,85.168,8.892,70.929C8.755,69.307,8.367,68.404,6.532,68.694C5.684,68.823,4.786,68.743,3.914,68.678C1.635,68.493,0.059,66.831,0.002,64.596C-0.063,62.377,1.424,60.554,3.639,60.223C4.366,60.11,5.118,60.159,5.853,60.159C32.676,60.159,59.508,60.143,86.331,60.191C87.956,60.191,89.039,59.699,90.17,58.561C105.064,43.596,119.992,28.671,134.943,13.77C141.885,6.848,152.132,6.768,158.719,13.504C165.047,19.974,165.096,29.994,158.671,36.561C151.478,43.911,144.14,51.123,136.866,58.4C136.406,58.86,135.977,59.344,135.209,60.159C136.228,60.159,136.866,60.159,137.504,60.159C144.632,60.159,151.76,60.143,158.889,60.175C161.16,60.183,162.696,61.361,163.277,63.337C163.794,65.096,163.083,67.113,161.435,68.041C160.707,68.444,159.802,68.613,158.953,68.694C157.685,68.823,156.408,68.783,155.131,68.815C155.074,68.815,155.018,68.88,154.735,69.041C153.854,81.49,150.144,93.204,143.299,103.852C136.446,114.51,127.378,122.812,116.339,128.83C120.242,131.622,124.081,134.316,127.855,137.091C129.091,138.003,130.247,139.059,131.33,140.157C133.771,142.634,134.442,145.611,133.335,148.886C132.227,152.137,129.948,154.146,126.489,154.663C125.633,154.791,124.752,154.848,123.879,154.848C95.771,154.856,67.67,154.888,39.562,154.783C37.453,154.783,35.036,154.259,33.291,153.146C28.539,150.137,28.126,143.513,32.507,139.818C36.653,136.325,41.195,133.308,45.575,130.089C46.052,129.742,46.593,129.476,47.393,128.999L47.377,128.983ZM17.354,68.96C17.418,70.009,17.418,70.816,17.531,71.607C17.806,73.535,18.049,75.471,18.469,77.367C22.736,96.786,33.606,111.331,50.909,121.069C54.093,122.86,56.138,125.304,56.121,129.048C56.106,132.791,53.955,135.107,50.861,137.026C46.989,139.423,43.361,142.206,39.643,144.844C39.255,145.118,38.98,145.554,38.544,146.046L124.574,146.046C124.671,145.901,124.768,145.764,124.873,145.618C124.356,145.232,123.847,144.836,123.321,144.465C119.692,141.932,116.161,139.237,112.402,136.922C109.299,135.01,107.263,132.662,107.311,128.878C107.352,125.175,109.356,122.804,112.475,121.093C125.018,114.219,134.32,104.272,140.366,91.324C143.663,84.264,145.538,76.827,146.087,68.96L17.354,68.96ZM100.813,60.15L103.125,60.15C109.041,60.15,114.949,60.11,120.865,60.183C122.311,60.199,123.345,59.82,124.388,58.763C130.797,52.253,137.287,45.823,143.744,39.361C146.685,36.416,149.667,33.504,152.561,30.51C154.807,28.187,155.478,25.388,154.347,22.33C153.224,19.288,150.912,17.562,147.72,17.175C144.899,16.836,142.701,18.119,140.745,20.079C127.936,32.923,115.102,45.742,102.276,58.569C101.872,58.973,101.501,59.417,100.822,60.15L100.813,60.15ZM100.813,60.15"/>
</g>
  <g id="Bold-L" transform="matrix(1.0,0.0,0.0,1.0,2259.521376250562,1439.031395781812)">  <path stroke-opacity="1" fill-rule="nonzero" stroke-linejoin="miter" stroke-dasharray="none" stroke-linecap="butt" stroke-width="1px" stroke="none" fill-opacity="1" version="1.1" stroke-miterlimit="4" fill="#000000" xmlns:xlink="http://www.w3.org/1999/xlink" d="M47.377,128.983C38.018,123.892,30.212,117.406,23.884,109.202C15.171,97.907,10.088,85.168,8.892,70.929C8.755,69.307,8.367,68.404,6.532,68.694C5.684,68.823,4.786,68.743,3.914,68.678C1.635,68.493,0.059,66.831,0.002,64.596C-0.063,62.377,1.424,60.554,3.639,60.223C4.366,60.11,5.118,60.159,5.853,60.159C32.676,60.159,59.508,60.143,86.331,60.191C87.956,60.191,89.039,59.699,90.17,58.561C105.064,43.596,119.992,28.671,134.943,13.77C141.885,6.848,152.132,6.768,158.719,13.504C165.047,19.974,165.096,29.994,158.671,36.561C151.478,43.911,144.14,51.123,136.866,58.4C136.406,58.86,135.977,59.344,135.209,60.159C136.228,60.159,136.866,60.159,137.504,60.159C144.632,60.159,151.76,60.143,158.889,60.175C161.16,60.183,162.696,61.361,163.277,63.337C163.794,65.096,163.083,67.113,161.435,68.041C160.707,68.444,159.802,68.613,158.953,68.694C157.685,68.823,156.408,68.783,155.131,68.815C155.074,68.815,155.018,68.88,154.735,69.041C153.854,81.49,150.144,93.204,143.299,103.852C136.446,114.51,127.378,122.812,116.339,128.83C120.242,131.622,124.081,134.316,127.855,137.091C129.091,138.003,130.247,139.059,131.33,140.157C133.771,142.634,134.442,145.611,133.335,148.886C132.227,152.137,129.948,154.146,126.489,154.663C125.633,154.791,124.752,154.848,123.879,154.848C95.771,154.856,67.67,154.888,39.562,154.783C37.453,154.783,35.036,154.259,33.291,153.146C28.539,150.137,28.126,143.513,32.507,139.818C36.653,136.325,41.195,133.308,45.575,130.089C46.052,129.742,46.593,129.476,47.393,128.999L47.377,128.983ZM17.354,68.96C17.418,70.009,17.418,70.816,17.531,71.607C17.806,73.535,18.049,75.471,18.469,77.367C22.736,96.786,33.606,111.331,50.909,121.069C54.093,122.86,56.138,125.304,56.121,129.048C56.106,132.791,53.955,135.107,50.861,137.026C46.989,139.423,43.361,142.206,39.643,144.844C39.255,145.118,38.98,145.554,38.544,146.046L124.574,146.046C124.671,145.901,124.768,145.764,124.873,145.618C124.356,145.232,123.847,144.836,123.321,144.465C119.692,141.932,116.161,139.237,112.402,136.922C109.299,135.01,107.263,132.662,107.311,128.878C107.352,125.175,109.356,122.804,112.475,121.093C125.018,114.219,134.32,104.272,140.366,91.324C143.663,84.264,145.538,76.827,146.087,68.96L17.354,68.96ZM100.813,60.15L103.125,60.15C109.041,60.15,114.949,60.11,120.865,60.183C122.311,60.199,123.345,59.82,124.388,58.763C130.797,52.253,137.287,45.823,143.744,39.361C146.685,36.416,149.667,33.504,152.561,30.51C154.807,28.187,155.478,25.388,154.347,22.33C153.224,19.288,150.912,17.562,147.72,17.175C144.899,16.836,142.701,18.119,140.745,20.079C127.936,32.923,115.102,45.742,102.276,58.569C101.872,58.973,101.501,59.417,100.822,60.15L100.813,60.15ZM100.813,60.15"/>
</g>
  <g id="Semibold-L" transform="matrix(1.0,0.0,0.0,1.0,1962.811376250562,1439.031395781812)">  <path stroke-width="1px" stroke-linejoin="miter" stroke-miterlimit="4" version="1.1" stroke="none" fill="#000000" fill-rule="nonzero" stroke-linecap="butt" stroke-dasharray="none" stroke-opacity="1" xmlns:xlink="http://www.w3.org/1999/xlink" fill-opacity="1" d="M47.377,128.983C38.018,123.892,30.212,117.406,23.884,109.202C15.171,97.907,10.088,85.168,8.892,70.929C8.755,69.307,8.367,68.404,6.532,68.694C5.684,68.823,4.786,68.743,3.914,68.678C1.635,68.493,0.059,66.831,0.002,64.596C-0.063,62.377,1.424,60.554,3.639,60.223C4.366,60.11,5.118,60.159,5.853,60.159C32.676,60.159,59.508,60.143,86.331,60.191C87.956,60.191,89.039,59.699,90.17,58.561C105.064,43.596,119.992,28.671,134.943,13.77C141.885,6.848,152.132,6.768,158.719,13.504C165.047,19.974,165.096,29.994,158.671,36.561C151.478,43.911,144.14,51.123,136.866,58.4C136.406,58.86,135.977,59.344,135.209,60.159C136.228,60.159,136.866,60.159,137.504,60.159C144.632,60.159,151.76,60.143,158.889,60.175C161.16,60.183,162.696,61.361,163.277,63.337C163.794,65.096,163.083,67.113,161.435,68.041C160.707,68.444,159.802,68.613,158.953,68.694C157.685,68.823,156.408,68.783,155.131,68.815C155.074,68.815,155.018,68.88,154.735,69.041C153.854,81.49,150.144,93.204,143.299,103.852C136.446,114.51,127.378,122.812,116.339,128.83C120.242,131.622,124.081,134.316,127.855,137.091C129.091,138.003,130.247,139.059,131.33,140.157C133.771,142.634,134.442,145.611,133.335,148.886C132.227,152.137,129.948,154.146,126.489,154.663C125.633,154.791,124.752,154.848,123.879,154.848C95.771,154.856,67.67,154.888,39.562,154.783C37.453,154.783,35.036,154.259,33.291,153.146C28.539,150.137,28.126,143.513,32.507,139.818C36.653,136.325,41.195,133.308,45.575,130.089C46.052,129.742,46.593,129.476,47.393,128.999L47.377,128.983ZM17.354,68.96C17.418,70.009,17.418,70.816,17.531,71.607C17.806,73.535,18.049,75.471,18.469,77.367C22.736,96.786,33.606,111.331,50.909,121.069C54.093,122.86,56.138,125.304,56.121,129.048C56.106,132.791,53.955,135.107,50.861,137.026C46.989,139.423,43.361,142.206,39.643,144.844C39.255,145.118,38.98,145.554,38.544,146.046L124.574,146.046C124.671,145.901,124.768,145.764,124.873,145.618C124.356,145.232,123.847,144.836,123.321,144.465C119.692,141.932,116.161,139.237,112.402,136.922C109.299,135.01,107.263,132.662,107.311,128.878C107.352,125.175,109.356,122.804,112.475,121.093C125.018,114.219,134.32,104.272,140.366,91.324C143.663,84.264,145.538,76.827,146.087,68.96L17.354,68.96ZM100.813,60.15L103.125,60.15C109.041,60.15,114.949,60.11,120.865,60.183C122.311,60.199,123.345,59.82,124.388,58.763C130.797,52.253,137.287,45.823,143.744,39.361C146.685,36.416,149.667,33.504,152.561,30.51C154.807,28.187,155.478,25.388,154.347,22.33C153.224,19.288,150.912,17.562,147.72,17.175C144.899,16.836,142.701,18.119,140.745,20.079C127.936,32.923,115.102,45.742,102.276,58.569C101.872,58.973,101.501,59.417,100.822,60.15L100.813,60.15ZM100.813,60.15"/>
</g>
  <g id="Medium-L" transform="matrix(1.0,0.0,0.0,1.0,1666.101376250562,1439.031395781812)">  <path fill="#000000" fill-rule="nonzero" stroke-linejoin="miter" fill-opacity="1" version="1.1" stroke-opacity="1" stroke-dasharray="none" xmlns:xlink="http://www.w3.org/1999/xlink" stroke-linecap="butt" stroke-width="1px" stroke="none" stroke-miterlimit="4" d="M47.377,128.983C38.018,123.892,30.212,117.406,23.884,109.202C15.171,97.907,10.088,85.168,8.892,70.929C8.755,69.307,8.367,68.404,6.532,68.694C5.684,68.823,4.786,68.743,3.914,68.678C1.635,68.493,0.059,66.831,0.002,64.596C-0.063,62.377,1.424,60.554,3.639,60.223C4.366,60.11,5.118,60.159,5.853,60.159C32.676,60.159,59.508,60.143,86.331,60.191C87.956,60.191,89.039,59.699,90.17,58.561C105.064,43.596,119.992,28.671,134.943,13.77C141.885,6.848,152.132,6.768,158.719,13.504C165.047,19.974,165.096,29.994,158.671,36.561C151.478,43.911,144.14,51.123,136.866,58.4C136.406,58.86,135.977,59.344,135.209,60.159C136.228,60.159,136.866,60.159,137.504,60.159C144.632,60.159,151.76,60.143,158.889,60.175C161.16,60.183,162.696,61.361,163.277,63.337C163.794,65.096,163.083,67.113,161.435,68.041C160.707,68.444,159.802,68.613,158.953,68.694C157.685,68.823,156.408,68.783,155.131,68.815C155.074,68.815,155.018,68.88,154.735,69.041C153.854,81.49,150.144,93.204,143.299,103.852C136.446,114.51,127.378,122.812,116.339,128.83C120.242,131.622,124.081,134.316,127.855,137.091C129.091,138.003,130.247,139.059,131.33,140.157C133.771,142.634,134.442,145.611,133.335,148.886C132.227,152.137,129.948,154.146,126.489,154.663C125.633,154.791,124.752,154.848,123.879,154.848C95.771,154.856,67.67,154.888,39.562,154.783C37.453,154.783,35.036,154.259,33.291,153.146C28.539,150.137,28.126,143.513,32.507,139.818C36.653,136.325,41.195,133.308,45.575,130.089C46.052,129.742,46.593,129.476,47.393,128.999L47.377,128.983ZM17.354,68.96C17.418,70.009,17.418,70.816,17.531,71.607C17.806,73.535,18.049,75.471,18.469,77.367C22.736,96.786,33.606,111.331,50.909,121.069C54.093,122.86,56.138,125.304,56.121,129.048C56.106,132.791,53.955,135.107,50.861,137.026C46.989,139.423,43.361,142.206,39.643,144.844C39.255,145.118,38.98,145.554,38.544,146.046L124.574,146.046C124.671,145.901,124.768,145.764,124.873,145.618C124.356,145.232,123.847,144.836,123.321,144.465C119.692,141.932,116.161,139.237,112.402,136.922C109.299,135.01,107.263,132.662,107.311,128.878C107.352,125.175,109.356,122.804,112.475,121.093C125.018,114.219,134.32,104.272,140.366,91.324C143.663,84.264,145.538,76.827,146.087,68.96L17.354,68.96ZM100.813,60.15L103.125,60.15C109.041,60.15,114.949,60.11,120.865,60.183C122.311,60.199,123.345,59.82,124.388,58.763C130.797,52.253,137.287,45.823,143.744,39.361C146.685,36.416,149.667,33.504,152.561,30.51C154.807,28.187,155.478,25.388,154.347,22.33C153.224,19.288,150.912,17.562,147.72,17.175C144.899,16.836,142.701,18.119,140.745,20.079C127.936,32.923,115.102,45.742,102.276,58.569C101.872,58.973,101.501,59.417,100.822,60.15L100.813,60.15ZM100.813,60.15"/>
</g>
  <g id="Regular-L" transform="matrix(1.0,0.0,0.0,1.0,1369.391376250562,1439.031395781812)">  <path stroke-width="1px" stroke-dasharray="none" stroke-miterlimit="4" stroke="none" stroke-linecap="butt" fill="#000000" xmlns:xlink="http://www.w3.org/1999/xlink" fill-rule="nonzero" stroke-linejoin="miter" stroke-opacity="1" fill-opacity="1" version="1.1" d="M47.377,128.983C38.018,123.892,30.212,117.406,23.884,109.202C15.171,97.907,10.088,85.168,8.892,70.929C8.755,69.307,8.367,68.404,6.532,68.694C5.684,68.823,4.786,68.743,3.914,68.678C1.635,68.493,0.059,66.831,0.002,64.596C-0.063,62.377,1.424,60.554,3.639,60.223C4.366,60.11,5.118,60.159,5.853,60.159C32.676,60.159,59.508,60.143,86.331,60.191C87.956,60.191,89.039,59.699,90.17,58.561C105.064,43.596,119.992,28.671,134.943,13.77C141.885,6.848,152.132,6.768,158.719,13.504C165.047,19.974,165.096,29.994,158.671,36.561C151.478,43.911,144.14,51.123,136.866,58.4C136.406,58.86,135.977,59.344,135.209,60.159C136.228,60.159,136.866,60.159,137.504,60.159C144.632,60.159,151.76,60.143,158.889,60.175C161.16,60.183,162.696,61.361,163.277,63.337C163.794,65.096,163.083,67.113,161.435,68.041C160.707,68.444,159.802,68.613,158.953,68.694C157.685,68.823,156.408,68.783,155.131,68.815C155.074,68.815,155.018,68.88,154.735,69.041C153.854,81.49,150.144,93.204,143.299,103.852C136.446,114.51,127.378,122.812,116.339,128.83C120.242,131.622,124.081,134.316,127.855,137.091C129.091,138.003,130.247,139.059,131.33,140.157C133.771,142.634,134.442,145.611,133.335,148.886C132.227,152.137,129.948,154.146,126.489,154.663C125.633,154.791,124.752,154.848,123.879,154.848C95.771,154.856,67.67,154.888,39.562,154.783C37.453,154.783,35.036,154.259,33.291,153.146C28.539,150.137,28.126,143.513,32.507,139.818C36.653,136.325,41.195,133.308,45.575,130.089C46.052,129.742,46.593,129.476,47.393,128.999L47.377,128.983ZM17.354,68.96C17.418,70.009,17.418,70.816,17.531,71.607C17.806,73.535,18.049,75.471,18.469,77.367C22.736,96.786,33.606,111.331,50.909,121.069C54.093,122.86,56.138,125.304,56.121,129.048C56.106,132.791,53.955,135.107,50.861,137.026C46.989,139.423,43.361,142.206,39.643,144.844C39.255,145.118,38.98,145.554,38.544,146.046L124.574,146.046C124.671,145.901,124.768,145.764,124.873,145.618C124.356,145.232,123.847,144.836,123.321,144.465C119.692,141.932,116.161,139.237,112.402,136.922C109.299,135.01,107.263,132.662,107.311,128.878C107.352,125.175,109.356,122.804,112.475,121.093C125.018,114.219,134.32,104.272,140.366,91.324C143.663,84.264,145.538,76.827,146.087,68.96L17.354,68.96ZM100.813,60.15L103.125,60.15C109.041,60.15,114.949,60.11,120.865,60.183C122.311,60.199,123.345,59.82,124.388,58.763C130.797,52.253,137.287,45.823,143.744,39.361C146.685,36.416,149.667,33.504,152.561,30.51C154.807,28.187,155.478,25.388,154.347,22.33C153.224,19.288,150.912,17.562,147.72,17.175C144.899,16.836,142.701,18.119,140.745,20.079C127.936,32.923,115.102,45.742,102.276,58.569C101.872,58.973,101.501,59.417,100.822,60.15L100.813,60.15ZM100.813,60.15"/>
</g>
  <g id="Light-L" transform="matrix(1.0,0.0,0.0,1.0,1072.6813762505622,1439.031395781812)">  <path stroke-linecap="butt" stroke-linejoin="miter" fill-opacity="1" xmlns:xlink="http://www.w3.org/1999/xlink" stroke-miterlimit="4" stroke="none" stroke-width="1px" stroke-dasharray="none" fill="#000000" version="1.1" fill-rule="nonzero" stroke-opacity="1" d="M47.377,128.983C38.018,123.892,30.212,117.406,23.884,109.202C15.171,97.907,10.088,85.168,8.892,70.929C8.755,69.307,8.367,68.404,6.532,68.694C5.684,68.823,4.786,68.743,3.914,68.678C1.635,68.493,0.059,66.831,0.002,64.596C-0.063,62.377,1.424,60.554,3.639,60.223C4.366,60.11,5.118,60.159,5.853,60.159C32.676,60.159,59.508,60.143,86.331,60.191C87.956,60.191,89.039,59.699,90.17,58.561C105.064,43.596,119.992,28.671,134.943,13.77C141.885,6.848,152.132,6.768,158.719,13.504C165.047,19.974,165.096,29.994,158.671,36.561C151.478,43.911,144.14,51.123,136.866,58.4C136.406,58.86,135.977,59.344,135.209,60.159C136.228,60.159,136.866,60.159,137.504,60.159C144.632,60.159,151.76,60.143,158.889,60.175C161.16,60.183,162.696,61.361,163.277,63.337C163.794,65.096,163.083,67.113,161.435,68.041C160.707,68.444,159.802,68.613,158.953,68.694C157.685,68.823,156.408,68.783,155.131,68.815C155.074,68.815,155.018,68.88,154.735,69.041C153.854,81.49,150.144,93.204,143.299,103.852C136.446,114.51,127.378,122.812,116.339,128.83C120.242,131.622,124.081,134.316,127.855,137.091C129.091,138.003,130.247,139.059,131.33,140.157C133.771,142.634,134.442,145.611,133.335,148.886C132.227,152.137,129.948,154.146,126.489,154.663C125.633,154.791,124.752,154.848,123.879,154.848C95.771,154.856,67.67,154.888,39.562,154.783C37.453,154.783,35.036,154.259,33.291,153.146C28.539,150.137,28.126,143.513,32.507,139.818C36.653,136.325,41.195,133.308,45.575,130.089C46.052,129.742,46.593,129.476,47.393,128.999L47.377,128.983ZM17.354,68.96C17.418,70.009,17.418,70.816,17.531,71.607C17.806,73.535,18.049,75.471,18.469,77.367C22.736,96.786,33.606,111.331,50.909,121.069C54.093,122.86,56.138,125.304,56.121,129.048C56.106,132.791,53.955,135.107,50.861,137.026C46.989,139.423,43.361,142.206,39.643,144.844C39.255,145.118,38.98,145.554,38.544,146.046L124.574,146.046C124.671,145.901,124.768,145.764,124.873,145.618C124.356,145.232,123.847,144.836,123.321,144.465C119.692,141.932,116.161,139.237,112.402,136.922C109.299,135.01,107.263,132.662,107.311,128.878C107.352,125.175,109.356,122.804,112.475,121.093C125.018,114.219,134.32,104.272,140.366,91.324C143.663,84.264,145.538,76.827,146.087,68.96L17.354,68.96ZM100.813,60.15L103.125,60.15C109.041,60.15,114.949,60.11,120.865,60.183C122.311,60.199,123.345,59.82,124.388,58.763C130.797,52.253,137.287,45.823,143.744,39.361C146.685,36.416,149.667,33.504,152.561,30.51C154.807,28.187,155.478,25.388,154.347,22.33C153.224,19.288,150.912,17.562,147.72,17.175C144.899,16.836,142.701,18.119,140.745,20.079C127.936,32.923,115.102,45.742,102.276,58.569C101.872,58.973,101.501,59.417,100.822,60.15L100.813,60.15ZM100.813,60.15"/>
</g>
  <g id="Thin-L" transform="matrix(1.0,0.0,0.0,1.0,775.9713762505621,1439.031395781812)">  <path stroke-width="1px" stroke-opacity="1" fill-opacity="1" fill="#000000" stroke-miterlimit="4" xmlns:xlink="http://www.w3.org/1999/xlink" fill-rule="nonzero" stroke="none" stroke-linejoin="miter" stroke-dasharray="none" version="1.1" stroke-linecap="butt" d="M47.377,128.983C38.018,123.892,30.212,117.406,23.884,109.202C15.171,97.907,10.088,85.168,8.892,70.929C8.755,69.307,8.367,68.404,6.532,68.694C5.684,68.823,4.786,68.743,3.914,68.678C1.635,68.493,0.059,66.831,0.002,64.596C-0.063,62.377,1.424,60.554,3.639,60.223C4.366,60.11,5.118,60.159,5.853,60.159C32.676,60.159,59.508,60.143,86.331,60.191C87.956,60.191,89.039,59.699,90.17,58.561C105.064,43.596,119.992,28.671,134.943,13.77C141.885,6.848,152.132,6.768,158.719,13.504C165.047,19.974,165.096,29.994,158.671,36.561C151.478,43.911,144.14,51.123,136.866,58.4C136.406,58.86,135.977,59.344,135.209,60.159C136.228,60.159,136.866,60.159,137.504,60.159C144.632,60.159,151.76,60.143,158.889,60.175C161.16,60.183,162.696,61.361,163.277,63.337C163.794,65.096,163.083,67.113,161.435,68.041C160.707,68.444,159.802,68.613,158.953,68.694C157.685,68.823,156.408,68.783,155.131,68.815C155.074,68.815,155.018,68.88,154.735,69.041C153.854,81.49,150.144,93.204,143.299,103.852C136.446,114.51,127.378,122.812,116.339,128.83C120.242,131.622,124.081,134.316,127.855,137.091C129.091,138.003,130.247,139.059,131.33,140.157C133.771,142.634,134.442,145.611,133.335,148.886C132.227,152.137,129.948,154.146,126.489,154.663C125.633,154.791,124.752,154.848,123.879,154.848C95.771,154.856,67.67,154.888,39.562,154.783C37.453,154.783,35.036,154.259,33.291,153.146C28.539,150.137,28.126,143.513,32.507,139.818C36.653,136.325,41.195,133.308,45.575,130.089C46.052,129.742,46.593,129.476,47.393,128.999L47.377,128.983ZM17.354,68.96C17.418,70.009,17.418,70.816,17.531,71.607C17.806,73.535,18.049,75.471,18.469,77.367C22.736,96.786,33.606,111.331,50.909,121.069C54.093,122.86,56.138,125.304,56.121,129.048C56.106,132.791,53.955,135.107,50.861,137.026C46.989,139.423,43.361,142.206,39.643,144.844C39.255,145.118,38.98,145.554,38.544,146.046L124.574,146.046C124.671,145.901,124.768,145.764,124.873,145.618C124.356,145.232,123.847,144.836,123.321,144.465C119.692,141.932,116.161,139.237,112.402,136.922C109.299,135.01,107.263,132.662,107.311,128.878C107.352,125.175,109.356,122.804,112.475,121.093C125.018,114.219,134.32,104.272,140.366,91.324C143.663,84.264,145.538,76.827,146.087,68.96L17.354,68.96ZM100.813,60.15L103.125,60.15C109.041,60.15,114.949,60.11,120.865,60.183C122.311,60.199,123.345,59.82,124.388,58.763C130.797,52.253,137.287,45.823,143.744,39.361C146.685,36.416,149.667,33.504,152.561,30.51C154.807,28.187,155.478,25.388,154.347,22.33C153.224,19.288,150.912,17.562,147.72,17.175C144.899,16.836,142.701,18.119,140.745,20.079C127.936,32.923,115.102,45.742,102.276,58.569C101.872,58.973,101.501,59.417,100.822,60.15L100.813,60.15ZM100.813,60.15"/>
</g>
  <g id="Ultralight-L" transform="matrix(1.0,0.0,0.0,1.0,479.2613762505621,1439.031395781812)">  <path stroke-width="1px" stroke-opacity="1" stroke="none" fill-rule="nonzero" stroke-dasharray="none" stroke-miterlimit="4" xmlns:xlink="http://www.w3.org/1999/xlink" stroke-linecap="butt" fill-opacity="1" version="1.1" stroke-linejoin="miter" fill="#000000" d="M47.377,128.983C38.018,123.892,30.212,117.406,23.884,109.202C15.171,97.907,10.088,85.168,8.892,70.929C8.755,69.307,8.367,68.404,6.532,68.694C5.684,68.823,4.786,68.743,3.914,68.678C1.635,68.493,0.059,66.831,0.002,64.596C-0.063,62.377,1.424,60.554,3.639,60.223C4.366,60.11,5.118,60.159,5.853,60.159C32.676,60.159,59.508,60.143,86.331,60.191C87.956,60.191,89.039,59.699,90.17,58.561C105.064,43.596,119.992,28.671,134.943,13.77C141.885,6.848,152.132,6.768,158.719,13.504C165.047,19.974,165.096,29.994,158.671,36.561C151.478,43.911,144.14,51.123,136.866,58.4C136.406,58.86,135.977,59.344,135.209,60.159C136.228,60.159,136.866,60.159,137.504,60.159C144.632,60.159,151.76,60.143,158.889,60.175C161.16,60.183,162.696,61.361,163.277,63.337C163.794,65.096,163.083,67.113,161.435,68.041C160.707,68.444,159.802,68.613,158.953,68.694C157.685,68.823,156.408,68.783,155.131,68.815C155.074,68.815,155.018,68.88,154.735,69.041C153.854,81.49,150.144,93.204,143.299,103.852C136.446,114.51,127.378,122.812,116.339,128.83C120.242,131.622,124.081,134.316,127.855,137.091C129.091,138.003,130.247,139.059,131.33,140.157C133.771,142.634,134.442,145.611,133.335,148.886C132.227,152.137,129.948,154.146,126.489,154.663C125.633,154.791,124.752,154.848,123.879,154.848C95.771,154.856,67.67,154.888,39.562,154.783C37.453,154.783,35.036,154.259,33.291,153.146C28.539,150.137,28.126,143.513,32.507,139.818C36.653,136.325,41.195,133.308,45.575,130.089C46.052,129.742,46.593,129.476,47.393,128.999L47.377,128.983ZM17.354,68.96C17.418,70.009,17.418,70.816,17.531,71.607C17.806,73.535,18.049,75.471,18.469,77.367C22.736,96.786,33.606,111.331,50.909,121.069C54.093,122.86,56.138,125.304,56.121,129.048C56.106,132.791,53.955,135.107,50.861,137.026C46.989,139.423,43.361,142.206,39.643,144.844C39.255,145.118,38.98,145.554,38.544,146.046L124.574,146.046C124.671,145.901,124.768,145.764,124.873,145.618C124.356,145.232,123.847,144.836,123.321,144.465C119.692,141.932,116.161,139.237,112.402,136.922C109.299,135.01,107.263,132.662,107.311,128.878C107.352,125.175,109.356,122.804,112.475,121.093C125.018,114.219,134.32,104.272,140.366,91.324C143.663,84.264,145.538,76.827,146.087,68.96L17.354,68.96ZM100.813,60.15L103.125,60.15C109.041,60.15,114.949,60.11,120.865,60.183C122.311,60.199,123.345,59.82,124.388,58.763C130.797,52.253,137.287,45.823,143.744,39.361C146.685,36.416,149.667,33.504,152.561,30.51C154.807,28.187,155.478,25.388,154.347,22.33C153.224,19.288,150.912,17.562,147.72,17.175C144.899,16.836,142.701,18.119,140.745,20.079C127.936,32.923,115.102,45.742,102.276,58.569C101.872,58.973,101.501,59.417,100.822,60.15L100.813,60.15ZM100.813,60.15"/>
</g>
  <g id="Black-M" transform="matrix(1.0,0.0,0.0,1.0,2871.3167257756295,1027.4067453068794)">  <path stroke-linejoin="miter" stroke-opacity="1" stroke-linecap="butt" fill-opacity="1" fill="#000000" version="1.1" stroke-miterlimit="4" fill-rule="nonzero" stroke-width="1px" stroke-dasharray="none" xmlns:xlink="http://www.w3.org/1999/xlink" stroke="none" d="M36.726,99.987C29.472,96.041,23.42,91.012,18.514,84.652C11.761,75.897,7.82,66.022,6.893,54.984C6.786,53.727,6.486,53.026,5.064,53.251C4.406,53.351,3.71,53.289,3.034,53.239C1.267,53.095,0.045,51.807,0.002,50.074C-0.049,48.354,1.104,46.941,2.821,46.685C3.385,46.597,3.967,46.635,4.537,46.635C25.331,46.635,46.13,46.622,66.923,46.66C68.183,46.66,69.022,46.279,69.899,45.396C81.445,33.795,93.017,22.226,104.607,10.675C109.988,5.309,117.932,5.246,123.038,10.468C127.943,15.484,127.981,23.251,123.001,28.342C117.425,34.039,111.736,39.63,106.098,45.271C105.741,45.628,105.409,46.003,104.813,46.635C105.603,46.635,106.098,46.635,106.593,46.635C112.118,46.635,117.644,46.622,123.17,46.647C124.93,46.654,126.121,47.567,126.572,49.099C126.972,50.462,126.421,52.025,125.143,52.745C124.579,53.058,123.878,53.189,123.22,53.251C122.236,53.351,121.246,53.32,120.256,53.345C120.213,53.345,120.169,53.395,119.95,53.52C119.267,63.17,116.391,72.251,111.084,80.506C105.772,88.767,98.743,95.203,90.185,99.868C93.211,102.032,96.187,104.121,99.112,106.272C100.071,106.979,100.967,107.798,101.806,108.649C103.698,110.569,104.218,112.876,103.36,115.415C102.502,117.936,100.735,119.493,98.054,119.893C97.39,119.993,96.707,120.037,96.03,120.037C74.241,120.043,52.458,120.068,30.668,119.987C29.033,119.987,27.16,119.581,25.807,118.717C22.123,116.385,21.803,111.251,25.199,108.386C28.413,105.678,31.934,103.339,35.329,100.844C35.699,100.575,36.119,100.369,36.739,100L36.726,99.987ZM13.452,53.458C13.502,54.271,13.502,54.896,13.59,55.509C13.803,57.004,13.991,58.505,14.317,59.974C17.625,75.028,26.051,86.303,39.464,93.852C41.933,95.24,43.518,97.135,43.505,100.037C43.493,102.939,41.826,104.734,39.427,106.222C36.426,108.08,33.613,110.237,30.731,112.282C30.43,112.495,30.217,112.833,29.879,113.214L96.569,113.214C96.644,113.102,96.719,112.995,96.801,112.883C96.4,112.583,96.005,112.276,95.598,111.988C92.785,110.025,90.047,107.936,87.134,106.141C84.728,104.659,83.149,102.839,83.187,99.905C83.218,97.035,84.772,95.197,87.19,93.871C96.913,88.542,104.124,80.831,108.811,70.794C111.367,65.321,112.82,59.555,113.246,53.458L13.452,53.458ZM78.15,46.628L79.942,46.628C84.528,46.628,89.108,46.597,93.694,46.654C94.815,46.666,95.617,46.372,96.425,45.553C101.393,40.506,106.424,35.522,111.429,30.512C113.71,28.229,116.021,25.972,118.264,23.652C120.006,21.85,120.526,19.68,119.649,17.31C118.778,14.952,116.986,13.614,114.512,13.314C112.325,13.051,110.621,14.045,109.105,15.565C99.175,25.521,89.227,35.459,79.284,45.402C78.971,45.715,78.683,46.059,78.157,46.628L78.15,46.628ZM78.15,46.628"/>
</g>
  <g id="Heavy-M" transform="matrix(1.0,0.0,0.0,1.0,2574.6067257756295,1027.4067453068794)">  <path version="1.1" fill-rule="nonzero" fill="#000000" xmlns:xlink="http://www.w3.org/1999/xlink" stroke-width="1px" stroke-linejoin="miter" fill-opacity="1" stroke-miterlimit="4" stroke-opacity="1" stroke-dasharray="none" stroke-linecap="butt" stroke="none" d="M36.726,99.987C29.472,96.041,23.42,91.012,18.514,84.652C11.761,75.897,7.82,66.022,6.893,54.984C6.786,53.727,6.486,53.026,5.064,53.251C4.406,53.351,3.71,53.289,3.034,53.239C1.267,53.095,0.045,51.807,0.002,50.074C-0.049,48.354,1.104,46.941,2.821,46.685C3.385,46.597,3.967,46.635,4.537,46.635C25.331,46.635,46.13,46.622,66.923,46.66C68.183,46.66,69.022,46.279,69.899,45.396C81.445,33.795,93.017,22.226,104.607,10.675C109.988,5.309,117.932,5.246,123.038,10.468C127.943,15.484,127.981,23.251,123.001,28.342C117.425,34.039,111.736,39.63,106.098,45.271C105.741,45.628,105.409,46.003,104.813,46.635C105.603,46.635,106.098,46.635,106.593,46.635C112.118,46.635,117.644,46.622,123.17,46.647C124.93,46.654,126.121,47.567,126.572,49.099C126.972,50.462,126.421,52.025,125.143,52.745C124.579,53.058,123.878,53.189,123.22,53.251C122.236,53.351,121.246,53.32,120.256,53.345C120.213,53.345,120.169,53.395,119.95,53.52C119.267,63.17,116.391,72.251,111.084,80.506C105.772,88.767,98.743,95.203,90.185,99.868C93.211,102.032,96.187,104.121,99.112,106.272C100.071,106.979,100.967,107.798,101.806,108.649C103.698,110.569,104.218,112.876,103.36,115.415C102.502,117.936,100.735,119.493,98.054,119.893C97.39,119.993,96.707,120.037,96.03,120.037C74.241,120.043,52.458,120.068,30.668,119.987C29.033,119.987,27.16,119.581,25.807,118.717C22.123,116.385,21.803,111.251,25.199,108.386C28.413,105.678,31.934,103.339,35.329,100.844C35.699,100.575,36.119,100.369,36.739,100L36.726,99.987ZM13.452,53.458C13.502,54.271,13.502,54.896,13.59,55.509C13.803,57.004,13.991,58.505,14.317,59.974C17.625,75.028,26.051,86.303,39.464,93.852C41.933,95.24,43.518,97.135,43.505,100.037C43.493,102.939,41.826,104.734,39.427,106.222C36.426,108.08,33.613,110.237,30.731,112.282C30.43,112.495,30.217,112.833,29.879,113.214L96.569,113.214C96.644,113.102,96.719,112.995,96.801,112.883C96.4,112.583,96.005,112.276,95.598,111.988C92.785,110.025,90.047,107.936,87.134,106.141C84.728,104.659,83.149,102.839,83.187,99.905C83.218,97.035,84.772,95.197,87.19,93.871C96.913,88.542,104.124,80.831,108.811,70.794C111.367,65.321,112.82,59.555,113.246,53.458L13.452,53.458ZM78.15,46.628L79.942,46.628C84.528,46.628,89.108,46.597,93.694,46.654C94.815,46.666,95.617,46.372,96.425,45.553C101.393,40.506,106.424,35.522,111.429,30.512C113.71,28.229,116.021,25.972,118.264,23.652C120.006,21.85,120.526,19.68,119.649,17.31C118.778,14.952,116.986,13.614,114.512,13.314C112.325,13.051,110.621,14.045,109.105,15.565C99.175,25.521,89.227,35.459,79.284,45.402C78.971,45.715,78.683,46.059,78.157,46.628L78.15,46.628ZM78.15,46.628"/>
</g>
  <g id="Bold-M" transform="matrix(1.0,0.0,0.0,1.0,2277.8967257756294,1027.4067453068794)">  <path stroke-opacity="1" fill-rule="nonzero" stroke-linejoin="miter" stroke-dasharray="none" stroke-linecap="butt" stroke-width="1px" stroke="none" fill-opacity="1" version="1.1" stroke-miterlimit="4" fill="#000000" xmlns:xlink="http://www.w3.org/1999/xlink" d="M36.726,99.987C29.472,96.041,23.42,91.012,18.514,84.652C11.761,75.897,7.82,66.022,6.893,54.984C6.786,53.727,6.486,53.026,5.064,53.251C4.406,53.351,3.71,53.289,3.034,53.239C1.267,53.095,0.045,51.807,0.002,50.074C-0.049,48.354,1.104,46.941,2.821,46.685C3.385,46.597,3.967,46.635,4.537,46.635C25.331,46.635,46.13,46.622,66.923,46.66C68.183,46.66,69.022,46.279,69.899,45.396C81.445,33.795,93.017,22.226,104.607,10.675C109.988,5.309,117.932,5.246,123.038,10.468C127.943,15.484,127.981,23.251,123.001,28.342C117.425,34.039,111.736,39.63,106.098,45.271C105.741,45.628,105.409,46.003,104.813,46.635C105.603,46.635,106.098,46.635,106.593,46.635C112.118,46.635,117.644,46.622,123.17,46.647C124.93,46.654,126.121,47.567,126.572,49.099C126.972,50.462,126.421,52.025,125.143,52.745C124.579,53.058,123.878,53.189,123.22,53.251C122.236,53.351,121.246,53.32,120.256,53.345C120.213,53.345,120.169,53.395,119.95,53.52C119.267,63.17,116.391,72.251,111.084,80.506C105.772,88.767,98.743,95.203,90.185,99.868C93.211,102.032,96.187,104.121,99.112,106.272C100.071,106.979,100.967,107.798,101.806,108.649C103.698,110.569,104.218,112.876,103.36,115.415C102.502,117.936,100.735,119.493,98.054,119.893C97.39,119.993,96.707,120.037,96.03,120.037C74.241,120.043,52.458,120.068,30.668,119.987C29.033,119.987,27.16,119.581,25.807,118.717C22.123,116.385,21.803,111.251,25.199,108.386C28.413,105.678,31.934,103.339,35.329,100.844C35.699,100.575,36.119,100.369,36.739,100L36.726,99.987ZM13.452,53.458C13.502,54.271,13.502,54.896,13.59,55.509C13.803,57.004,13.991,58.505,14.317,59.974C17.625,75.028,26.051,86.303,39.464,93.852C41.933,95.24,43.518,97.135,43.505,100.037C43.493,102.939,41.826,104.734,39.427,106.222C36.426,108.08,33.613,110.237,30.731,112.282C30.43,112.495,30.217,112.833,29.879,113.214L96.569,113.214C96.644,113.102,96.719,112.995,96.801,112.883C96.4,112.583,96.005,112.276,95.598,111.988C92.785,110.025,90.047,107.936,87.134,106.141C84.728,104.659,83.149,102.839,83.187,99.905C83.218,97.035,84.772,95.197,87.19,93.871C96.913,88.542,104.124,80.831,108.811,70.794C111.367,65.321,112.82,59.555,113.246,53.458L13.452,53.458ZM78.15,46.628L79.942,46.628C84.528,46.628,89.108,46.597,93.694,46.654C94.815,46.666,95.617,46.372,96.425,45.553C101.393,40.506,106.424,35.522,111.429,30.512C113.71,28.229,116.021,25.972,118.264,23.652C120.006,21.85,120.526,19.68,119.649,17.31C118.778,14.952,116.986,13.614,114.512,13.314C112.325,13.051,110.621,14.045,109.105,15.565C99.175,25.521,89.227,35.459,79.284,45.402C78.971,45.715,78.683,46.059,78.157,46.628L78.15,46.628ZM78.15,46.628"/>
</g>
  <g id="Semibold-M" transform="matrix(1.0,0.0,0.0,1.0,1981.1867257756294,1027.4067453068794)">  <path stroke-width="1px" stroke-linejoin="miter" stroke-miterlimit="4" version="1.1" stroke="none" fill="#000000" fill-rule="nonzero" stroke-linecap="butt" stroke-dasharray="none" stroke-opacity="1" xmlns:xlink="http://www.w3.org/1999/xlink" fill-opacity="1" d="M36.726,99.987C29.472,96.041,23.42,91.012,18.514,84.652C11.761,75.897,7.82,66.022,6.893,54.984C6.786,53.727,6.486,53.026,5.064,53.251C4.406,53.351,3.71,53.289,3.034,53.239C1.267,53.095,0.045,51.807,0.002,50.074C-0.049,48.354,1.104,46.941,2.821,46.685C3.385,46.597,3.967,46.635,4.537,46.635C25.331,46.635,46.13,46.622,66.923,46.66C68.183,46.66,69.022,46.279,69.899,45.396C81.445,33.795,93.017,22.226,104.607,10.675C109.988,5.309,117.932,5.246,123.038,10.468C127.943,15.484,127.981,23.251,123.001,28.342C117.425,34.039,111.736,39.63,106.098,45.271C105.741,45.628,105.409,46.003,104.813,46.635C105.603,46.635,106.098,46.635,106.593,46.635C112.118,46.635,117.644,46.622,123.17,46.647C124.93,46.654,126.121,47.567,126.572,49.099C126.972,50.462,126.421,52.025,125.143,52.745C124.579,53.058,123.878,53.189,123.22,53.251C122.236,53.351,121.246,53.32,120.256,53.345C120.213,53.345,120.169,53.395,119.95,53.52C119.267,63.17,116.391,72.251,111.084,80.506C105.772,88.767,98.743,95.203,90.185,99.868C93.211,102.032,96.187,104.121,99.112,106.272C100.071,106.979,100.967,107.798,101.806,108.649C103.698,110.569,104.218,112.876,103.36,115.415C102.502,117.936,100.735,119.493,98.054,119.893C97.39,119.993,96.707,120.037,96.03,120.037C74.241,120.043,52.458,120.068,30.668,119.987C29.033,119.987,27.16,119.581,25.807,118.717C22.123,116.385,21.803,111.251,25.199,108.386C28.413,105.678,31.934,103.339,35.329,100.844C35.699,100.575,36.119,100.369,36.739,100L36.726,99.987ZM13.452,53.458C13.502,54.271,13.502,54.896,13.59,55.509C13.803,57.004,13.991,58.505,14.317,59.974C17.625,75.028,26.051,86.303,39.464,93.852C41.933,95.24,43.518,97.135,43.505,100.037C43.493,102.939,41.826,104.734,39.427,106.222C36.426,108.08,33.613,110.237,30.731,112.282C30.43,112.495,30.217,112.833,29.879,113.214L96.569,113.214C96.644,113.102,96.719,112.995,96.801,112.883C96.4,112.583,96.005,112.276,95.598,111.988C92.785,110.025,90.047,107.936,87.134,106.141C84.728,104.659,83.149,102.839,83.187,99.905C83.218,97.035,84.772,95.197,87.19,93.871C96.913,88.542,104.124,80.831,108.811,70.794C111.367,65.321,112.82,59.555,113.246,53.458L13.452,53.458ZM78.15,46.628L79.942,46.628C84.528,46.628,89.108,46.597,93.694,46.654C94.815,46.666,95.617,46.372,96.425,45.553C101.393,40.506,106.424,35.522,111.429,30.512C113.71,28.229,116.021,25.972,118.264,23.652C120.006,21.85,120.526,19.68,119.649,17.31C118.778,14.952,116.986,13.614,114.512,13.314C112.325,13.051,110.621,14.045,109.105,15.565C99.175,25.521,89.227,35.459,79.284,45.402C78.971,45.715,78.683,46.059,78.157,46.628L78.15,46.628ZM78.15,46.628"/>
</g>
  <g id="Medium-M" transform="matrix(1.0,0.0,0.0,1.0,1684.4767257756293,1027.4067453068794)">  <path fill="#000000" fill-rule="nonzero" stroke-linejoin="miter" fill-opacity="1" version="1.1" stroke-opacity="1" stroke-dasharray="none" xmlns:xlink="http://www.w3.org/1999/xlink" stroke-linecap="butt" stroke-width="1px" stroke="none" stroke-miterlimit="4" d="M36.726,99.987C29.472,96.041,23.42,91.012,18.514,84.652C11.761,75.897,7.82,66.022,6.893,54.984C6.786,53.727,6.486,53.026,5.064,53.251C4.406,53.351,3.71,53.289,3.034,53.239C1.267,53.095,0.045,51.807,0.002,50.074C-0.049,48.354,1.104,46.941,2.821,46.685C3.385,46.597,3.967,46.635,4.537,46.635C25.331,46.635,46.13,46.622,66.923,46.66C68.183,46.66,69.022,46.279,69.899,45.396C81.445,33.795,93.017,22.226,104.607,10.675C109.988,5.309,117.932,5.246,123.038,10.468C127.943,15.484,127.981,23.251,123.001,28.342C117.425,34.039,111.736,39.63,106.098,45.271C105.741,45.628,105.409,46.003,104.813,46.635C105.603,46.635,106.098,46.635,106.593,46.635C112.118,46.635,117.644,46.622,123.17,46.647C124.93,46.654,126.121,47.567,126.572,49.099C126.972,50.462,126.421,52.025,125.143,52.745C124.579,53.058,123.878,53.189,123.22,53.251C122.236,53.351,121.246,53.32,120.256,53.345C120.213,53.345,120.169,53.395,119.95,53.52C119.267,63.17,116.391,72.251,111.084,80.506C105.772,88.767,98.743,95.203,90.185,99.868C93.211,102.032,96.187,104.121,99.112,106.272C100.071,106.979,100.967,107.798,101.806,108.649C103.698,110.569,104.218,112.876,103.36,115.415C102.502,117.936,100.735,119.493,98.054,119.893C97.39,119.993,96.707,120.037,96.03,120.037C74.241,120.043,52.458,120.068,30.668,119.987C29.033,119.987,27.16,119.581,25.807,118.717C22.123,116.385,21.803,111.251,25.199,108.386C28.413,105.678,31.934,103.339,35.329,100.844C35.699,100.575,36.119,100.369,36.739,100L36.726,99.987ZM13.452,53.458C13.502,54.271,13.502,54.896,13.59,55.509C13.803,57.004,13.991,58.505,14.317,59.974C17.625,75.028,26.051,86.303,39.464,93.852C41.933,95.24,43.518,97.135,43.505,100.037C43.493,102.939,41.826,104.734,39.427,106.222C36.426,108.08,33.613,110.237,30.731,112.282C30.43,112.495,30.217,112.833,29.879,113.214L96.569,113.214C96.644,113.102,96.719,112.995,96.801,112.883C96.4,112.583,96.005,112.276,95.598,111.988C92.785,110.025,90.047,107.936,87.134,106.141C84.728,104.659,83.149,102.839,83.187,99.905C83.218,97.035,84.772,95.197,87.19,93.871C96.913,88.542,104.124,80.831,108.811,70.794C111.367,65.321,112.82,59.555,113.246,53.458L13.452,53.458ZM78.15,46.628L79.942,46.628C84.528,46.628,89.108,46.597,93.694,46.654C94.815,46.666,95.617,46.372,96.425,45.553C101.393,40.506,106.424,35.522,111.429,30.512C113.71,28.229,116.021,25.972,118.264,23.652C120.006,21.85,120.526,19.68,119.649,17.31C118.778,14.952,116.986,13.614,114.512,13.314C112.325,13.051,110.621,14.045,109.105,15.565C99.175,25.521,89.227,35.459,79.284,45.402C78.971,45.715,78.683,46.059,78.157,46.628L78.15,46.628ZM78.15,46.628"/>
</g>
  <g id="Regular-M" transform="matrix(1.0,0.0,0.0,1.0,1387.7667257756293,1027.4067453068794)">  <path stroke-width="1px" stroke-dasharray="none" stroke-miterlimit="4" stroke="none" stroke-linecap="butt" fill="#000000" xmlns:xlink="http://www.w3.org/1999/xlink" fill-rule="nonzero" stroke-linejoin="miter" stroke-opacity="1" fill-opacity="1" version="1.1" d="M36.726,99.987C29.472,96.041,23.42,91.012,18.514,84.652C11.761,75.897,7.82,66.022,6.893,54.984C6.786,53.727,6.486,53.026,5.064,53.251C4.406,53.351,3.71,53.289,3.034,53.239C1.267,53.095,0.045,51.807,0.002,50.074C-0.049,48.354,1.104,46.941,2.821,46.685C3.385,46.597,3.967,46.635,4.537,46.635C25.331,46.635,46.13,46.622,66.923,46.66C68.183,46.66,69.022,46.279,69.899,45.396C81.445,33.795,93.017,22.226,104.607,10.675C109.988,5.309,117.932,5.246,123.038,10.468C127.943,15.484,127.981,23.251,123.001,28.342C117.425,34.039,111.736,39.63,106.098,45.271C105.741,45.628,105.409,46.003,104.813,46.635C105.603,46.635,106.098,46.635,106.593,46.635C112.118,46.635,117.644,46.622,123.17,46.647C124.93,46.654,126.121,47.567,126.572,49.099C126.972,50.462,126.421,52.025,125.143,52.745C124.579,53.058,123.878,53.189,123.22,53.251C122.236,53.351,121.246,53.32,120.256,53.345C120.213,53.345,120.169,53.395,119.95,53.52C119.267,63.17,116.391,72.251,111.084,80.506C105.772,88.767,98.743,95.203,90.185,99.868C93.211,102.032,96.187,104.121,99.112,106.272C100.071,106.979,100.967,107.798,101.806,108.649C103.698,110.569,104.218,112.876,103.36,115.415C102.502,117.936,100.735,119.493,98.054,119.893C97.39,119.993,96.707,120.037,96.03,120.037C74.241,120.043,52.458,120.068,30.668,119.987C29.033,119.987,27.16,119.581,25.807,118.717C22.123,116.385,21.803,111.251,25.199,108.386C28.413,105.678,31.934,103.339,35.329,100.844C35.699,100.575,36.119,100.369,36.739,100L36.726,99.987ZM13.452,53.458C13.502,54.271,13.502,54.896,13.59,55.509C13.803,57.004,13.991,58.505,14.317,59.974C17.625,75.028,26.051,86.303,39.464,93.852C41.933,95.24,43.518,97.135,43.505,100.037C43.493,102.939,41.826,104.734,39.427,106.222C36.426,108.08,33.613,110.237,30.731,112.282C30.43,112.495,30.217,112.833,29.879,113.214L96.569,113.214C96.644,113.102,96.719,112.995,96.801,112.883C96.4,112.583,96.005,112.276,95.598,111.988C92.785,110.025,90.047,107.936,87.134,106.141C84.728,104.659,83.149,102.839,83.187,99.905C83.218,97.035,84.772,95.197,87.19,93.871C96.913,88.542,104.124,80.831,108.811,70.794C111.367,65.321,112.82,59.555,113.246,53.458L13.452,53.458ZM78.15,46.628L79.942,46.628C84.528,46.628,89.108,46.597,93.694,46.654C94.815,46.666,95.617,46.372,96.425,45.553C101.393,40.506,106.424,35.522,111.429,30.512C113.71,28.229,116.021,25.972,118.264,23.652C120.006,21.85,120.526,19.68,119.649,17.31C118.778,14.952,116.986,13.614,114.512,13.314C112.325,13.051,110.621,14.045,109.105,15.565C99.175,25.521,89.227,35.459,79.284,45.402C78.971,45.715,78.683,46.059,78.157,46.628L78.15,46.628ZM78.15,46.628"/>
</g>
  <g id="Light-M" transform="matrix(1.0,0.0,0.0,1.0,1091.0567257756295,1027.4067453068794)">  <path stroke-linecap="butt" stroke-linejoin="miter" fill-opacity="1" xmlns:xlink="http://www.w3.org/1999/xlink" stroke-miterlimit="4" stroke="none" stroke-width="1px" stroke-dasharray="none" fill="#000000" version="1.1" fill-rule="nonzero" stroke-opacity="1" d="M36.726,99.987C29.472,96.041,23.42,91.012,18.514,84.652C11.761,75.897,7.82,66.022,6.893,54.984C6.786,53.727,6.486,53.026,5.064,53.251C4.406,53.351,3.71,53.289,3.034,53.239C1.267,53.095,0.045,51.807,0.002,50.074C-0.049,48.354,1.104,46.941,2.821,46.685C3.385,46.597,3.967,46.635,4.537,46.635C25.331,46.635,46.13,46.622,66.923,46.66C68.183,46.66,69.022,46.279,69.899,45.396C81.445,33.795,93.017,22.226,104.607,10.675C109.988,5.309,117.932,5.246,123.038,10.468C127.943,15.484,127.981,23.251,123.001,28.342C117.425,34.039,111.736,39.63,106.098,45.271C105.741,45.628,105.409,46.003,104.813,46.635C105.603,46.635,106.098,46.635,106.593,46.635C112.118,46.635,117.644,46.622,123.17,46.647C124.93,46.654,126.121,47.567,126.572,49.099C126.972,50.462,126.421,52.025,125.143,52.745C124.579,53.058,123.878,53.189,123.22,53.251C122.236,53.351,121.246,53.32,120.256,53.345C120.213,53.345,120.169,53.395,119.95,53.52C119.267,63.17,116.391,72.251,111.084,80.506C105.772,88.767,98.743,95.203,90.185,99.868C93.211,102.032,96.187,104.121,99.112,106.272C100.071,106.979,100.967,107.798,101.806,108.649C103.698,110.569,104.218,112.876,103.36,115.415C102.502,117.936,100.735,119.493,98.054,119.893C97.39,119.993,96.707,120.037,96.03,120.037C74.241,120.043,52.458,120.068,30.668,119.987C29.033,119.987,27.16,119.581,25.807,118.717C22.123,116.385,21.803,111.251,25.199,108.386C28.413,105.678,31.934,103.339,35.329,100.844C35.699,100.575,36.119,100.369,36.739,100L36.726,99.987ZM13.452,53.458C13.502,54.271,13.502,54.896,13.59,55.509C13.803,57.004,13.991,58.505,14.317,59.974C17.625,75.028,26.051,86.303,39.464,93.852C41.933,95.24,43.518,97.135,43.505,100.037C43.493,102.939,41.826,104.734,39.427,106.222C36.426,108.08,33.613,110.237,30.731,112.282C30.43,112.495,30.217,112.833,29.879,113.214L96.569,113.214C96.644,113.102,96.719,112.995,96.801,112.883C96.4,112.583,96.005,112.276,95.598,111.988C92.785,110.025,90.047,107.936,87.134,106.141C84.728,104.659,83.149,102.839,83.187,99.905C83.218,97.035,84.772,95.197,87.19,93.871C96.913,88.542,104.124,80.831,108.811,70.794C111.367,65.321,112.82,59.555,113.246,53.458L13.452,53.458ZM78.15,46.628L79.942,46.628C84.528,46.628,89.108,46.597,93.694,46.654C94.815,46.666,95.617,46.372,96.425,45.553C101.393,40.506,106.424,35.522,111.429,30.512C113.71,28.229,116.021,25.972,118.264,23.652C120.006,21.85,120.526,19.68,119.649,17.31C118.778,14.952,116.986,13.614,114.512,13.314C112.325,13.051,110.621,14.045,109.105,15.565C99.175,25.521,89.227,35.459,79.284,45.402C78.971,45.715,78.683,46.059,78.157,46.628L78.15,46.628ZM78.15,46.628"/>
</g>
  <g id="Thin-M" transform="matrix(1.0,0.0,0.0,1.0,794.3467257756296,1027.4067453068794)">  <path stroke-width="1px" stroke-opacity="1" fill-opacity="1" fill="#000000" stroke-miterlimit="4" xmlns:xlink="http://www.w3.org/1999/xlink" fill-rule="nonzero" stroke="none" stroke-linejoin="miter" stroke-dasharray="none" version="1.1" stroke-linecap="butt" d="M36.726,99.987C29.472,96.041,23.42,91.012,18.514,84.652C11.761,75.897,7.82,66.022,6.893,54.984C6.786,53.727,6.486,53.026,5.064,53.251C4.406,53.351,3.71,53.289,3.034,53.239C1.267,53.095,0.045,51.807,0.002,50.074C-0.049,48.354,1.104,46.941,2.821,46.685C3.385,46.597,3.967,46.635,4.537,46.635C25.331,46.635,46.13,46.622,66.923,46.66C68.183,46.66,69.022,46.279,69.899,45.396C81.445,33.795,93.017,22.226,104.607,10.675C109.988,5.309,117.932,5.246,123.038,10.468C127.943,15.484,127.981,23.251,123.001,28.342C117.425,34.039,111.736,39.63,106.098,45.271C105.741,45.628,105.409,46.003,104.813,46.635C105.603,46.635,106.098,46.635,106.593,46.635C112.118,46.635,117.644,46.622,123.17,46.647C124.93,46.654,126.121,47.567,126.572,49.099C126.972,50.462,126.421,52.025,125.143,52.745C124.579,53.058,123.878,53.189,123.22,53.251C122.236,53.351,121.246,53.32,120.256,53.345C120.213,53.345,120.169,53.395,119.95,53.52C119.267,63.17,116.391,72.251,111.084,80.506C105.772,88.767,98.743,95.203,90.185,99.868C93.211,102.032,96.187,104.121,99.112,106.272C100.071,106.979,100.967,107.798,101.806,108.649C103.698,110.569,104.218,112.876,103.36,115.415C102.502,117.936,100.735,119.493,98.054,119.893C97.39,119.993,96.707,120.037,96.03,120.037C74.241,120.043,52.458,120.068,30.668,119.987C29.033,119.987,27.16,119.581,25.807,118.717C22.123,116.385,21.803,111.251,25.199,108.386C28.413,105.678,31.934,103.339,35.329,100.844C35.699,100.575,36.119,100.369,36.739,100L36.726,99.987ZM13.452,53.458C13.502,54.271,13.502,54.896,13.59,55.509C13.803,57.004,13.991,58.505,14.317,59.974C17.625,75.028,26.051,86.303,39.464,93.852C41.933,95.24,43.518,97.135,43.505,100.037C43.493,102.939,41.826,104.734,39.427,106.222C36.426,108.08,33.613,110.237,30.731,112.282C30.43,112.495,30.217,112.833,29.879,113.214L96.569,113.214C96.644,113.102,96.719,112.995,96.801,112.883C96.4,112.583,96.005,112.276,95.598,111.988C92.785,110.025,90.047,107.936,87.134,106.141C84.728,104.659,83.149,102.839,83.187,99.905C83.218,97.035,84.772,95.197,87.19,93.871C96.913,88.542,104.124,80.831,108.811,70.794C111.367,65.321,112.82,59.555,113.246,53.458L13.452,53.458ZM78.15,46.628L79.942,46.628C84.528,46.628,89.108,46.597,93.694,46.654C94.815,46.666,95.617,46.372,96.425,45.553C101.393,40.506,106.424,35.522,111.429,30.512C113.71,28.229,116.021,25.972,118.264,23.652C120.006,21.85,120.526,19.68,119.649,17.31C118.778,14.952,116.986,13.614,114.512,13.314C112.325,13.051,110.621,14.045,109.105,15.565C99.175,25.521,89.227,35.459,79.284,45.402C78.971,45.715,78.683,46.059,78.157,46.628L78.15,46.628ZM78.15,46.628"/>
</g>
  <g id="Ultralight-M" transform="matrix(1.0,0.0,0.0,1.0,497.6367257756295,1027.4067453068794)">  <path stroke-width="1px" stroke-opacity="1" stroke="none" fill-rule="nonzero" stroke-dasharray="none" stroke-miterlimit="4" xmlns:xlink="http://www.w3.org/1999/xlink" stroke-linecap="butt" fill-opacity="1" version="1.1" stroke-linejoin="miter" fill="#000000" d="M36.726,99.987C29.472,96.041,23.42,91.012,18.514,84.652C11.761,75.897,7.82,66.022,6.893,54.984C6.786,53.727,6.486,53.026,5.064,53.251C4.406,53.351,3.71,53.289,3.034,53.239C1.267,53.095,0.045,51.807,0.002,50.074C-0.049,48.354,1.104,46.941,2.821,46.685C3.385,46.597,3.967,46.635,4.537,46.635C25.331,46.635,46.13,46.622,66.923,46.66C68.183,46.66,69.022,46.279,69.899,45.396C81.445,33.795,93.017,22.226,104.607,10.675C109.988,5.309,117.932,5.246,123.038,10.468C127.943,15.484,127.981,23.251,123.001,28.342C117.425,34.039,111.736,39.63,106.098,45.271C105.741,45.628,105.409,46.003,104.813,46.635C105.603,46.635,106.098,46.635,106.593,46.635C112.118,46.635,117.644,46.622,123.17,46.647C124.93,46.654,126.121,47.567,126.572,49.099C126.972,50.462,126.421,52.025,125.143,52.745C124.579,53.058,123.878,53.189,123.22,53.251C122.236,53.351,121.246,53.32,120.256,53.345C120.213,53.345,120.169,53.395,119.95,53.52C119.267,63.17,116.391,72.251,111.084,80.506C105.772,88.767,98.743,95.203,90.185,99.868C93.211,102.032,96.187,104.121,99.112,106.272C100.071,106.979,100.967,107.798,101.806,108.649C103.698,110.569,104.218,112.876,103.36,115.415C102.502,117.936,100.735,119.493,98.054,119.893C97.39,119.993,96.707,120.037,96.03,120.037C74.241,120.043,52.458,120.068,30.668,119.987C29.033,119.987,27.16,119.581,25.807,118.717C22.123,116.385,21.803,111.251,25.199,108.386C28.413,105.678,31.934,103.339,35.329,100.844C35.699,100.575,36.119,100.369,36.739,100L36.726,99.987ZM13.452,53.458C13.502,54.271,13.502,54.896,13.59,55.509C13.803,57.004,13.991,58.505,14.317,59.974C17.625,75.028,26.051,86.303,39.464,93.852C41.933,95.24,43.518,97.135,43.505,100.037C43.493,102.939,41.826,104.734,39.427,106.222C36.426,108.08,33.613,110.237,30.731,112.282C30.43,112.495,30.217,112.833,29.879,113.214L96.569,113.214C96.644,113.102,96.719,112.995,96.801,112.883C96.4,112.583,96.005,112.276,95.598,111.988C92.785,110.025,90.047,107.936,87.134,106.141C84.728,104.659,83.149,102.839,83.187,99.905C83.218,97.035,84.772,95.197,87.19,93.871C96.913,88.542,104.124,80.831,108.811,70.794C111.367,65.321,112.82,59.555,113.246,53.458L13.452,53.458ZM78.15,46.628L79.942,46.628C84.528,46.628,89.108,46.597,93.694,46.654C94.815,46.666,95.617,46.372,96.425,45.553C101.393,40.506,106.424,35.522,111.429,30.512C113.71,28.229,116.021,25.972,118.264,23.652C120.006,21.85,120.526,19.68,119.649,17.31C118.778,14.952,116.986,13.614,114.512,13.314C112.325,13.051,110.621,14.045,109.105,15.565C99.175,25.521,89.227,35.459,79.284,45.402C78.971,45.715,78.683,46.059,78.157,46.628L78.15,46.628ZM78.15,46.628"/>
</g>
  <g id="Black-S" transform="matrix(1.0,0.0,0.0,1.0,2885.066556282318,611.1565758135679)">  <path stroke-linejoin="miter" stroke-opacity="1" stroke-linecap="butt" fill-opacity="1" fill="#000000" version="1.1" stroke-miterlimit="4" fill-rule="nonzero" stroke-width="1px" stroke-dasharray="none" xmlns:xlink="http://www.w3.org/1999/xlink" stroke="none" d="M28.757,78.29C23.076,75.2,18.338,71.263,14.497,66.283C9.209,59.427,6.123,51.695,5.397,43.052C5.314,42.068,5.078,41.519,3.965,41.696C3.45,41.774,2.905,41.725,2.375,41.686C0.992,41.574,0.036,40.565,0.001,39.208C-0.038,37.861,0.865,36.755,2.209,36.554C2.65,36.486,3.106,36.515,3.553,36.515C19.834,36.515,36.12,36.505,52.401,36.535C53.387,36.535,54.044,36.236,54.731,35.545C63.772,26.462,72.832,17.403,81.907,8.358C86.121,4.157,92.341,4.108,96.339,8.197C100.18,12.124,100.209,18.206,96.309,22.192C91.943,26.653,87.49,31.03,83.075,35.447C82.795,35.727,82.535,36.02,82.069,36.515C82.687,36.515,83.075,36.515,83.462,36.515C87.789,36.515,92.115,36.505,96.442,36.525C97.82,36.53,98.752,37.245,99.106,38.444C99.419,39.512,98.988,40.736,97.987,41.299C97.546,41.544,96.996,41.647,96.481,41.696C95.711,41.774,94.936,41.75,94.161,41.769C94.126,41.769,94.092,41.808,93.921,41.906C93.386,49.462,91.134,56.572,86.979,63.036C82.819,69.505,77.316,74.544,70.615,78.197C72.984,79.891,75.314,81.526,77.605,83.211C78.355,83.765,79.057,84.406,79.714,85.072C81.196,86.575,81.603,88.382,80.931,90.37C80.259,92.344,78.875,93.563,76.776,93.877C76.256,93.955,75.721,93.989,75.191,93.989C58.13,93.994,41.074,94.013,24.013,93.95C22.733,93.95,21.266,93.632,20.207,92.956C17.322,91.129,17.072,87.109,19.731,84.866C22.247,82.746,25.004,80.915,27.663,78.961C27.952,78.75,28.281,78.589,28.767,78.3L28.757,78.29ZM10.533,41.857C10.572,42.494,10.572,42.984,10.641,43.464C10.808,44.634,10.955,45.809,11.21,46.96C13.8,58.747,20.398,67.575,30.9,73.486C32.833,74.573,34.074,76.057,34.064,78.329C34.055,80.601,32.75,82.007,30.871,83.172C28.521,84.626,26.319,86.316,24.062,87.917C23.827,88.083,23.66,88.348,23.395,88.647L75.613,88.647C75.672,88.559,75.731,88.475,75.795,88.387C75.481,88.152,75.172,87.912,74.853,87.687C72.651,86.149,70.507,84.514,68.226,83.108C66.342,81.948,65.106,80.523,65.135,78.226C65.16,75.978,66.376,74.539,68.27,73.501C75.883,69.328,81.529,63.291,85.199,55.432C87.2,51.147,88.338,46.632,88.672,41.857L10.533,41.857ZM61.191,36.51L62.594,36.51C66.185,36.51,69.771,36.486,73.362,36.53C74.24,36.539,74.868,36.309,75.5,35.668C79.391,31.716,83.33,27.813,87.249,23.891C89.035,22.104,90.845,20.336,92.601,18.519C93.964,17.109,94.372,15.41,93.685,13.554C93.003,11.708,91.6,10.66,89.663,10.425C87.951,10.219,86.616,10.998,85.429,12.188C77.654,19.983,69.864,27.765,62.079,35.55C61.834,35.795,61.609,36.064,61.197,36.51L61.191,36.51ZM61.191,36.51"/>
</g>
  <g id="Heavy-S" transform="matrix(1.0,0.0,0.0,1.0,2588.356556282318,611.1565758135679)">  <path version="1.1" fill-rule="nonzero" fill="#000000" xmlns:xlink="http://www.w3.org/1999/xlink" stroke-width="1px" stroke-linejoin="miter" fill-opacity="1" stroke-miterlimit="4" stroke-opacity="1" stroke-dasharray="none" stroke-linecap="butt" stroke="none" d="M28.757,78.29C23.076,75.2,18.338,71.263,14.497,66.283C9.209,59.427,6.123,51.695,5.397,43.052C5.314,42.068,5.078,41.519,3.965,41.696C3.45,41.774,2.905,41.725,2.375,41.686C0.992,41.574,0.036,40.565,0.001,39.208C-0.038,37.861,0.865,36.755,2.209,36.554C2.65,36.486,3.106,36.515,3.553,36.515C19.834,36.515,36.12,36.505,52.401,36.535C53.387,36.535,54.044,36.236,54.731,35.545C63.772,26.462,72.832,17.403,81.907,8.358C86.121,4.157,92.341,4.108,96.339,8.197C100.18,12.124,100.209,18.206,96.309,22.192C91.943,26.653,87.49,31.03,83.075,35.447C82.795,35.727,82.535,36.02,82.069,36.515C82.687,36.515,83.075,36.515,83.462,36.515C87.789,36.515,92.115,36.505,96.442,36.525C97.82,36.53,98.752,37.245,99.106,38.444C99.419,39.512,98.988,40.736,97.987,41.299C97.546,41.544,96.996,41.647,96.481,41.696C95.711,41.774,94.936,41.75,94.161,41.769C94.126,41.769,94.092,41.808,93.921,41.906C93.386,49.462,91.134,56.572,86.979,63.036C82.819,69.505,77.316,74.544,70.615,78.197C72.984,79.891,75.314,81.526,77.605,83.211C78.355,83.765,79.057,84.406,79.714,85.072C81.196,86.575,81.603,88.382,80.931,90.37C80.259,92.344,78.875,93.563,76.776,93.877C76.256,93.955,75.721,93.989,75.191,93.989C58.13,93.994,41.074,94.013,24.013,93.95C22.733,93.95,21.266,93.632,20.207,92.956C17.322,91.129,17.072,87.109,19.731,84.866C22.247,82.746,25.004,80.915,27.663,78.961C27.952,78.75,28.281,78.589,28.767,78.3L28.757,78.29ZM10.533,41.857C10.572,42.494,10.572,42.984,10.641,43.464C10.808,44.634,10.955,45.809,11.21,46.96C13.8,58.747,20.398,67.575,30.9,73.486C32.833,74.573,34.074,76.057,34.064,78.329C34.055,80.601,32.75,82.007,30.871,83.172C28.521,84.626,26.319,86.316,24.062,87.917C23.827,88.083,23.66,88.348,23.395,88.647L75.613,88.647C75.672,88.559,75.731,88.475,75.795,88.387C75.481,88.152,75.172,87.912,74.853,87.687C72.651,86.149,70.507,84.514,68.226,83.108C66.342,81.948,65.106,80.523,65.135,78.226C65.16,75.978,66.376,74.539,68.27,73.501C75.883,69.328,81.529,63.291,85.199,55.432C87.2,51.147,88.338,46.632,88.672,41.857L10.533,41.857ZM61.191,36.51L62.594,36.51C66.185,36.51,69.771,36.486,73.362,36.53C74.24,36.539,74.868,36.309,75.5,35.668C79.391,31.716,83.33,27.813,87.249,23.891C89.035,22.104,90.845,20.336,92.601,18.519C93.964,17.109,94.372,15.41,93.685,13.554C93.003,11.708,91.6,10.66,89.663,10.425C87.951,10.219,86.616,10.998,85.429,12.188C77.654,19.983,69.864,27.765,62.079,35.55C61.834,35.795,61.609,36.064,61.197,36.51L61.191,36.51ZM61.191,36.51"/>
</g>
  <g id="Bold-S" transform="matrix(1.0,0.0,0.0,1.0,2291.6465562823178,611.1565758135679)">  <path stroke-opacity="1" fill-rule="nonzero" stroke-linejoin="miter" stroke-dasharray="none" stroke-linecap="butt" stroke-width="1px" stroke="none" fill-opacity="1" version="1.1" stroke-miterlimit="4" fill="#000000" xmlns:xlink="http://www.w3.org/1999/xlink" d="M28.757,78.29C23.076,75.2,18.338,71.263,14.497,66.283C9.209,59.427,6.123,51.695,5.397,43.052C5.314,42.068,5.078,41.519,3.965,41.696C3.45,41.774,2.905,41.725,2.375,41.686C0.992,41.574,0.036,40.565,0.001,39.208C-0.038,37.861,0.865,36.755,2.209,36.554C2.65,36.486,3.106,36.515,3.553,36.515C19.834,36.515,36.12,36.505,52.401,36.535C53.387,36.535,54.044,36.236,54.731,35.545C63.772,26.462,72.832,17.403,81.907,8.358C86.121,4.157,92.341,4.108,96.339,8.197C100.18,12.124,100.209,18.206,96.309,22.192C91.943,26.653,87.49,31.03,83.075,35.447C82.795,35.727,82.535,36.02,82.069,36.515C82.687,36.515,83.075,36.515,83.462,36.515C87.789,36.515,92.115,36.505,96.442,36.525C97.82,36.53,98.752,37.245,99.106,38.444C99.419,39.512,98.988,40.736,97.987,41.299C97.546,41.544,96.996,41.647,96.481,41.696C95.711,41.774,94.936,41.75,94.161,41.769C94.126,41.769,94.092,41.808,93.921,41.906C93.386,49.462,91.134,56.572,86.979,63.036C82.819,69.505,77.316,74.544,70.615,78.197C72.984,79.891,75.314,81.526,77.605,83.211C78.355,83.765,79.057,84.406,79.714,85.072C81.196,86.575,81.603,88.382,80.931,90.37C80.259,92.344,78.875,93.563,76.776,93.877C76.256,93.955,75.721,93.989,75.191,93.989C58.13,93.994,41.074,94.013,24.013,93.95C22.733,93.95,21.266,93.632,20.207,92.956C17.322,91.129,17.072,87.109,19.731,84.866C22.247,82.746,25.004,80.915,27.663,78.961C27.952,78.75,28.281,78.589,28.767,78.3L28.757,78.29ZM10.533,41.857C10.572,42.494,10.572,42.984,10.641,43.464C10.808,44.634,10.955,45.809,11.21,46.96C13.8,58.747,20.398,67.575,30.9,73.486C32.833,74.573,34.074,76.057,34.064,78.329C34.055,80.601,32.75,82.007,30.871,83.172C28.521,84.626,26.319,86.316,24.062,87.917C23.827,88.083,23.66,88.348,23.395,88.647L75.613,88.647C75.672,88.559,75.731,88.475,75.795,88.387C75.481,88.152,75.172,87.912,74.853,87.687C72.651,86.149,70.507,84.514,68.226,83.108C66.342,81.948,65.106,80.523,65.135,78.226C65.16,75.978,66.376,74.539,68.27,73.501C75.883,69.328,81.529,63.291,85.199,55.432C87.2,51.147,88.338,46.632,88.672,41.857L10.533,41.857ZM61.191,36.51L62.594,36.51C66.185,36.51,69.771,36.486,73.362,36.53C74.24,36.539,74.868,36.309,75.5,35.668C79.391,31.716,83.33,27.813,87.249,23.891C89.035,22.104,90.845,20.336,92.601,18.519C93.964,17.109,94.372,15.41,93.685,13.554C93.003,11.708,91.6,10.66,89.663,10.425C87.951,10.219,86.616,10.998,85.429,12.188C77.654,19.983,69.864,27.765,62.079,35.55C61.834,35.795,61.609,36.064,61.197,36.51L61.191,36.51ZM61.191,36.51"/>
</g>
  <g id="Semibold-S" transform="matrix(1.0,0.0,0.0,1.0,1994.936556282318,611.1565758135679)">  <path stroke-width="1px" stroke-linejoin="miter" stroke-miterlimit="4" version="1.1" stroke="none" fill="#000000" fill-rule="nonzero" stroke-linecap="butt" stroke-dasharray="none" stroke-opacity="1" xmlns:xlink="http://www.w3.org/1999/xlink" fill-opacity="1" d="M28.757,78.29C23.076,75.2,18.338,71.263,14.497,66.283C9.209,59.427,6.123,51.695,5.397,43.052C5.314,42.068,5.078,41.519,3.965,41.696C3.45,41.774,2.905,41.725,2.375,41.686C0.992,41.574,0.036,40.565,0.001,39.208C-0.038,37.861,0.865,36.755,2.209,36.554C2.65,36.486,3.106,36.515,3.553,36.515C19.834,36.515,36.12,36.505,52.401,36.535C53.387,36.535,54.044,36.236,54.731,35.545C63.772,26.462,72.832,17.403,81.907,8.358C86.121,4.157,92.341,4.108,96.339,8.197C100.18,12.124,100.209,18.206,96.309,22.192C91.943,26.653,87.49,31.03,83.075,35.447C82.795,35.727,82.535,36.02,82.069,36.515C82.687,36.515,83.075,36.515,83.462,36.515C87.789,36.515,92.115,36.505,96.442,36.525C97.82,36.53,98.752,37.245,99.106,38.444C99.419,39.512,98.988,40.736,97.987,41.299C97.546,41.544,96.996,41.647,96.481,41.696C95.711,41.774,94.936,41.75,94.161,41.769C94.126,41.769,94.092,41.808,93.921,41.906C93.386,49.462,91.134,56.572,86.979,63.036C82.819,69.505,77.316,74.544,70.615,78.197C72.984,79.891,75.314,81.526,77.605,83.211C78.355,83.765,79.057,84.406,79.714,85.072C81.196,86.575,81.603,88.382,80.931,90.37C80.259,92.344,78.875,93.563,76.776,93.877C76.256,93.955,75.721,93.989,75.191,93.989C58.13,93.994,41.074,94.013,24.013,93.95C22.733,93.95,21.266,93.632,20.207,92.956C17.322,91.129,17.072,87.109,19.731,84.866C22.247,82.746,25.004,80.915,27.663,78.961C27.952,78.75,28.281,78.589,28.767,78.3L28.757,78.29ZM10.533,41.857C10.572,42.494,10.572,42.984,10.641,43.464C10.808,44.634,10.955,45.809,11.21,46.96C13.8,58.747,20.398,67.575,30.9,73.486C32.833,74.573,34.074,76.057,34.064,78.329C34.055,80.601,32.75,82.007,30.871,83.172C28.521,84.626,26.319,86.316,24.062,87.917C23.827,88.083,23.66,88.348,23.395,88.647L75.613,88.647C75.672,88.559,75.731,88.475,75.795,88.387C75.481,88.152,75.172,87.912,74.853,87.687C72.651,86.149,70.507,84.514,68.226,83.108C66.342,81.948,65.106,80.523,65.135,78.226C65.16,75.978,66.376,74.539,68.27,73.501C75.883,69.328,81.529,63.291,85.199,55.432C87.2,51.147,88.338,46.632,88.672,41.857L10.533,41.857ZM61.191,36.51L62.594,36.51C66.185,36.51,69.771,36.486,73.362,36.53C74.24,36.539,74.868,36.309,75.5,35.668C79.391,31.716,83.33,27.813,87.249,23.891C89.035,22.104,90.845,20.336,92.601,18.519C93.964,17.109,94.372,15.41,93.685,13.554C93.003,11.708,91.6,10.66,89.663,10.425C87.951,10.219,86.616,10.998,85.429,12.188C77.654,19.983,69.864,27.765,62.079,35.55C61.834,35.795,61.609,36.064,61.197,36.51L61.191,36.51ZM61.191,36.51"/>
</g>
  <g id="Medium-S" transform="matrix(1.0,0.0,0.0,1.0,1698.226556282318,611.1565758135679)">  <path fill="#000000" fill-rule="nonzero" stroke-linejoin="miter" fill-opacity="1" version="1.1" stroke-opacity="1" stroke-dasharray="none" xmlns:xlink="http://www.w3.org/1999/xlink" stroke-linecap="butt" stroke-width="1px" stroke="none" stroke-miterlimit="4" d="M28.757,78.29C23.076,75.2,18.338,71.263,14.497,66.283C9.209,59.427,6.123,51.695,5.397,43.052C5.314,42.068,5.078,41.519,3.965,41.696C3.45,41.774,2.905,41.725,2.375,41.686C0.992,41.574,0.036,40.565,0.001,39.208C-0.038,37.861,0.865,36.755,2.209,36.554C2.65,36.486,3.106,36.515,3.553,36.515C19.834,36.515,36.12,36.505,52.401,36.535C53.387,36.535,54.044,36.236,54.731,35.545C63.772,26.462,72.832,17.403,81.907,8.358C86.121,4.157,92.341,4.108,96.339,8.197C100.18,12.124,100.209,18.206,96.309,22.192C91.943,26.653,87.49,31.03,83.075,35.447C82.795,35.727,82.535,36.02,82.069,36.515C82.687,36.515,83.075,36.515,83.462,36.515C87.789,36.515,92.115,36.505,96.442,36.525C97.82,36.53,98.752,37.245,99.106,38.444C99.419,39.512,98.988,40.736,97.987,41.299C97.546,41.544,96.996,41.647,96.481,41.696C95.711,41.774,94.936,41.75,94.161,41.769C94.126,41.769,94.092,41.808,93.921,41.906C93.386,49.462,91.134,56.572,86.979,63.036C82.819,69.505,77.316,74.544,70.615,78.197C72.984,79.891,75.314,81.526,77.605,83.211C78.355,83.765,79.057,84.406,79.714,85.072C81.196,86.575,81.603,88.382,80.931,90.37C80.259,92.344,78.875,93.563,76.776,93.877C76.256,93.955,75.721,93.989,75.191,93.989C58.13,93.994,41.074,94.013,24.013,93.95C22.733,93.95,21.266,93.632,20.207,92.956C17.322,91.129,17.072,87.109,19.731,84.866C22.247,82.746,25.004,80.915,27.663,78.961C27.952,78.75,28.281,78.589,28.767,78.3L28.757,78.29ZM10.533,41.857C10.572,42.494,10.572,42.984,10.641,43.464C10.808,44.634,10.955,45.809,11.21,46.96C13.8,58.747,20.398,67.575,30.9,73.486C32.833,74.573,34.074,76.057,34.064,78.329C34.055,80.601,32.75,82.007,30.871,83.172C28.521,84.626,26.319,86.316,24.062,87.917C23.827,88.083,23.66,88.348,23.395,88.647L75.613,88.647C75.672,88.559,75.731,88.475,75.795,88.387C75.481,88.152,75.172,87.912,74.853,87.687C72.651,86.149,70.507,84.514,68.226,83.108C66.342,81.948,65.106,80.523,65.135,78.226C65.16,75.978,66.376,74.539,68.27,73.501C75.883,69.328,81.529,63.291,85.199,55.432C87.2,51.147,88.338,46.632,88.672,41.857L10.533,41.857ZM61.191,36.51L62.594,36.51C66.185,36.51,69.771,36.486,73.362,36.53C74.24,36.539,74.868,36.309,75.5,35.668C79.391,31.716,83.33,27.813,87.249,23.891C89.035,22.104,90.845,20.336,92.601,18.519C93.964,17.109,94.372,15.41,93.685,13.554C93.003,11.708,91.6,10.66,89.663,10.425C87.951,10.219,86.616,10.998,85.429,12.188C77.654,19.983,69.864,27.765,62.079,35.55C61.834,35.795,61.609,36.064,61.197,36.51L61.191,36.51ZM61.191,36.51"/>
</g>
  <g id="Regular-S" transform="matrix(1.0,0.0,0.0,1.0,1401.5165562823179,611.1565758135679)">  <path stroke-width="1px" stroke-dasharray="none" stroke-miterlimit="4" stroke="none" stroke-linecap="butt" fill="#000000" xmlns:xlink="http://www.w3.org/1999/xlink" fill-rule="nonzero" stroke-linejoin="miter" stroke-opacity="1" fill-opacity="1" version="1.1" d="M28.757,78.29C23.076,75.2,18.338,71.263,14.497,66.283C9.209,59.427,6.123,51.695,5.397,43.052C5.314,42.068,5.078,41.519,3.965,41.696C3.45,41.774,2.905,41.725,2.375,41.686C0.992,41.574,0.036,40.565,0.001,39.208C-0.038,37.861,0.865,36.755,2.209,36.554C2.65,36.486,3.106,36.515,3.553,36.515C19.834,36.515,36.12,36.505,52.401,36.535C53.387,36.535,54.044,36.236,54.731,35.545C63.772,26.462,72.832,17.403,81.907,8.358C86.121,4.157,92.341,4.108,96.339,8.197C100.18,12.124,100.209,18.206,96.309,22.192C91.943,26.653,87.49,31.03,83.075,35.447C82.795,35.727,82.535,36.02,82.069,36.515C82.687,36.515,83.075,36.515,83.462,36.515C87.789,36.515,92.115,36.505,96.442,36.525C97.82,36.53,98.752,37.245,99.106,38.444C99.419,39.512,98.988,40.736,97.987,41.299C97.546,41.544,96.996,41.647,96.481,41.696C95.711,41.774,94.936,41.75,94.161,41.769C94.126,41.769,94.092,41.808,93.921,41.906C93.386,49.462,91.134,56.572,86.979,63.036C82.819,69.505,77.316,74.544,70.615,78.197C72.984,79.891,75.314,81.526,77.605,83.211C78.355,83.765,79.057,84.406,79.714,85.072C81.196,86.575,81.603,88.382,80.931,90.37C80.259,92.344,78.875,93.563,76.776,93.877C76.256,93.955,75.721,93.989,75.191,93.989C58.13,93.994,41.074,94.013,24.013,93.95C22.733,93.95,21.266,93.632,20.207,92.956C17.322,91.129,17.072,87.109,19.731,84.866C22.247,82.746,25.004,80.915,27.663,78.961C27.952,78.75,28.281,78.589,28.767,78.3L28.757,78.29ZM10.533,41.857C10.572,42.494,10.572,42.984,10.641,43.464C10.808,44.634,10.955,45.809,11.21,46.96C13.8,58.747,20.398,67.575,30.9,73.486C32.833,74.573,34.074,76.057,34.064,78.329C34.055,80.601,32.75,82.007,30.871,83.172C28.521,84.626,26.319,86.316,24.062,87.917C23.827,88.083,23.66,88.348,23.395,88.647L75.613,88.647C75.672,88.559,75.731,88.475,75.795,88.387C75.481,88.152,75.172,87.912,74.853,87.687C72.651,86.149,70.507,84.514,68.226,83.108C66.342,81.948,65.106,80.523,65.135,78.226C65.16,75.978,66.376,74.539,68.27,73.501C75.883,69.328,81.529,63.291,85.199,55.432C87.2,51.147,88.338,46.632,88.672,41.857L10.533,41.857ZM61.191,36.51L62.594,36.51C66.185,36.51,69.771,36.486,73.362,36.53C74.24,36.539,74.868,36.309,75.5,35.668C79.391,31.716,83.33,27.813,87.249,23.891C89.035,22.104,90.845,20.336,92.601,18.519C93.964,17.109,94.372,15.41,93.685,13.554C93.003,11.708,91.6,10.66,89.663,10.425C87.951,10.219,86.616,10.998,85.429,12.188C77.654,19.983,69.864,27.765,62.079,35.55C61.834,35.795,61.609,36.064,61.197,36.51L61.191,36.51ZM61.191,36.51"/>
</g>
  <g id="Light-S" transform="matrix(1.0,0.0,0.0,1.0,1104.806556282318,611.1565758135679)">  <path stroke-linecap="butt" stroke-linejoin="miter" fill-opacity="1" xmlns:xlink="http://www.w3.org/1999/xlink" stroke-miterlimit="4" stroke="none" stroke-width="1px" stroke-dasharray="none" fill="#000000" version="1.1" fill-rule="nonzero" stroke-opacity="1" d="M28.757,78.29C23.076,75.2,18.338,71.263,14.497,66.283C9.209,59.427,6.123,51.695,5.397,43.052C5.314,42.068,5.078,41.519,3.965,41.696C3.45,41.774,2.905,41.725,2.375,41.686C0.992,41.574,0.036,40.565,0.001,39.208C-0.038,37.861,0.865,36.755,2.209,36.554C2.65,36.486,3.106,36.515,3.553,36.515C19.834,36.515,36.12,36.505,52.401,36.535C53.387,36.535,54.044,36.236,54.731,35.545C63.772,26.462,72.832,17.403,81.907,8.358C86.121,4.157,92.341,4.108,96.339,8.197C100.18,12.124,100.209,18.206,96.309,22.192C91.943,26.653,87.49,31.03,83.075,35.447C82.795,35.727,82.535,36.02,82.069,36.515C82.687,36.515,83.075,36.515,83.462,36.515C87.789,36.515,92.115,36.505,96.442,36.525C97.82,36.53,98.752,37.245,99.106,38.444C99.419,39.512,98.988,40.736,97.987,41.299C97.546,41.544,96.996,41.647,96.481,41.696C95.711,41.774,94.936,41.75,94.161,41.769C94.126,41.769,94.092,41.808,93.921,41.906C93.386,49.462,91.134,56.572,86.979,63.036C82.819,69.505,77.316,74.544,70.615,78.197C72.984,79.891,75.314,81.526,77.605,83.211C78.355,83.765,79.057,84.406,79.714,85.072C81.196,86.575,81.603,88.382,80.931,90.37C80.259,92.344,78.875,93.563,76.776,93.877C76.256,93.955,75.721,93.989,75.191,93.989C58.13,93.994,41.074,94.013,24.013,93.95C22.733,93.95,21.266,93.632,20.207,92.956C17.322,91.129,17.072,87.109,19.731,84.866C22.247,82.746,25.004,80.915,27.663,78.961C27.952,78.75,28.281,78.589,28.767,78.3L28.757,78.29ZM10.533,41.857C10.572,42.494,10.572,42.984,10.641,43.464C10.808,44.634,10.955,45.809,11.21,46.96C13.8,58.747,20.398,67.575,30.9,73.486C32.833,74.573,34.074,76.057,34.064,78.329C34.055,80.601,32.75,82.007,30.871,83.172C28.521,84.626,26.319,86.316,24.062,87.917C23.827,88.083,23.66,88.348,23.395,88.647L75.613,88.647C75.672,88.559,75.731,88.475,75.795,88.387C75.481,88.152,75.172,87.912,74.853,87.687C72.651,86.149,70.507,84.514,68.226,83.108C66.342,81.948,65.106,80.523,65.135,78.226C65.16,75.978,66.376,74.539,68.27,73.501C75.883,69.328,81.529,63.291,85.199,55.432C87.2,51.147,88.338,46.632,88.672,41.857L10.533,41.857ZM61.191,36.51L62.594,36.51C66.185,36.51,69.771,36.486,73.362,36.53C74.24,36.539,74.868,36.309,75.5,35.668C79.391,31.716,83.33,27.813,87.249,23.891C89.035,22.104,90.845,20.336,92.601,18.519C93.964,17.109,94.372,15.41,93.685,13.554C93.003,11.708,91.6,10.66,89.663,10.425C87.951,10.219,86.616,10.998,85.429,12.188C77.654,19.983,69.864,27.765,62.079,35.55C61.834,35.795,61.609,36.064,61.197,36.51L61.191,36.51ZM61.191,36.51"/>
</g>
  <g id="Thin-S" transform="matrix(1.0,0.0,0.0,1.0,808.0965562823179,611.1565758135679)">  <path stroke-width="1px" stroke-opacity="1" fill-opacity="1" fill="#000000" stroke-miterlimit="4" xmlns:xlink="http://www.w3.org/1999/xlink" fill-rule="nonzero" stroke="none" stroke-linejoin="miter" stroke-dasharray="none" version="1.1" stroke-linecap="butt" d="M28.757,78.29C23.076,75.2,18.338,71.263,14.497,66.283C9.209,59.427,6.123,51.695,5.397,43.052C5.314,42.068,5.078,41.519,3.965,41.696C3.45,41.774,2.905,41.725,2.375,41.686C0.992,41.574,0.036,40.565,0.001,39.208C-0.038,37.861,0.865,36.755,2.209,36.554C2.65,36.486,3.106,36.515,3.553,36.515C19.834,36.515,36.12,36.505,52.401,36.535C53.387,36.535,54.044,36.236,54.731,35.545C63.772,26.462,72.832,17.403,81.907,8.358C86.121,4.157,92.341,4.108,96.339,8.197C100.18,12.124,100.209,18.206,96.309,22.192C91.943,26.653,87.49,31.03,83.075,35.447C82.795,35.727,82.535,36.02,82.069,36.515C82.687,36.515,83.075,36.515,83.462,36.515C87.789,36.515,92.115,36.505,96.442,36.525C97.82,36.53,98.752,37.245,99.106,38.444C99.419,39.512,98.988,40.736,97.987,41.299C97.546,41.544,96.996,41.647,96.481,41.696C95.711,41.774,94.936,41.75,94.161,41.769C94.126,41.769,94.092,41.808,93.921,41.906C93.386,49.462,91.134,56.572,86.979,63.036C82.819,69.505,77.316,74.544,70.615,78.197C72.984,79.891,75.314,81.526,77.605,83.211C78.355,83.765,79.057,84.406,79.714,85.072C81.196,86.575,81.603,88.382,80.931,90.37C80.259,92.344,78.875,93.563,76.776,93.877C76.256,93.955,75.721,93.989,75.191,93.989C58.13,93.994,41.074,94.013,24.013,93.95C22.733,93.95,21.266,93.632,20.207,92.956C17.322,91.129,17.072,87.109,19.731,84.866C22.247,82.746,25.004,80.915,27.663,78.961C27.952,78.75,28.281,78.589,28.767,78.3L28.757,78.29ZM10.533,41.857C10.572,42.494,10.572,42.984,10.641,43.464C10.808,44.634,10.955,45.809,11.21,46.96C13.8,58.747,20.398,67.575,30.9,73.486C32.833,74.573,34.074,76.057,34.064,78.329C34.055,80.601,32.75,82.007,30.871,83.172C28.521,84.626,26.319,86.316,24.062,87.917C23.827,88.083,23.66,88.348,23.395,88.647L75.613,88.647C75.672,88.559,75.731,88.475,75.795,88.387C75.481,88.152,75.172,87.912,74.853,87.687C72.651,86.149,70.507,84.514,68.226,83.108C66.342,81.948,65.106,80.523,65.135,78.226C65.16,75.978,66.376,74.539,68.27,73.501C75.883,69.328,81.529,63.291,85.199,55.432C87.2,51.147,88.338,46.632,88.672,41.857L10.533,41.857ZM61.191,36.51L62.594,36.51C66.185,36.51,69.771,36.486,73.362,36.53C74.24,36.539,74.868,36.309,75.5,35.668C79.391,31.716,83.33,27.813,87.249,23.891C89.035,22.104,90.845,20.336,92.601,18.519C93.964,17.109,94.372,15.41,93.685,13.554C93.003,11.708,91.6,10.66,89.663,10.425C87.951,10.219,86.616,10.998,85.429,12.188C77.654,19.983,69.864,27.765,62.079,35.55C61.834,35.795,61.609,36.064,61.197,36.51L61.191,36.51ZM61.191,36.51"/>
</g>
  <g id="Ultralight-S" transform="matrix(1.0,0.0,0.0,1.0,511.3865562823179,611.1565758135679)">  <path stroke-width="1px" stroke-opacity="1" stroke="none" fill-rule="nonzero" stroke-dasharray="none" stroke-miterlimit="4" xmlns:xlink="http://www.w3.org/1999/xlink" stroke-linecap="butt" fill-opacity="1" version="1.1" stroke-linejoin="miter" fill="#000000" d="M28.757,78.29C23.076,75.2,18.338,71.263,14.497,66.283C9.209,59.427,6.123,51.695,5.397,43.052C5.314,42.068,5.078,41.519,3.965,41.696C3.45,41.774,2.905,41.725,2.375,41.686C0.992,41.574,0.036,40.565,0.001,39.208C-0.038,37.861,0.865,36.755,2.209,36.554C2.65,36.486,3.106,36.515,3.553,36.515C19.834,36.515,36.12,36.505,52.401,36.535C53.387,36.535,54.044,36.236,54.731,35.545C63.772,26.462,72.832,17.403,81.907,8.358C86.121,4.157,92.341,4.108,96.339,8.197C100.18,12.124,100.209,18.206,96.309,22.192C91.943,26.653,87.49,31.03,83.075,35.447C82.795,35.727,82.535,36.02,82.069,36.515C82.687,36.515,83.075,36.515,83.462,36.515C87.789,36.515,92.115,36.505,96.442,36.525C97.82,36.53,98.752,37.245,99.106,38.444C99.419,39.512,98.988,40.736,97.987,41.299C97.546,41.544,96.996,41.647,96.481,41.696C95.711,41.774,94.936,41.75,94.161,41.769C94.126,41.769,94.092,41.808,93.921,41.906C93.386,49.462,91.134,56.572,86.979,63.036C82.819,69.505,77.316,74.544,70.615,78.197C72.984,79.891,75.314,81.526,77.605,83.211C78.355,83.765,79.057,84.406,79.714,85.072C81.196,86.575,81.603,88.382,80.931,90.37C80.259,92.344,78.875,93.563,76.776,93.877C76.256,93.955,75.721,93.989,75.191,93.989C58.13,93.994,41.074,94.013,24.013,93.95C22.733,93.95,21.266,93.632,20.207,92.956C17.322,91.129,17.072,87.109,19.731,84.866C22.247,82.746,25.004,80.915,27.663,78.961C27.952,78.75,28.281,78.589,28.767,78.3L28.757,78.29ZM10.533,41.857C10.572,42.494,10.572,42.984,10.641,43.464C10.808,44.634,10.955,45.809,11.21,46.96C13.8,58.747,20.398,67.575,30.9,73.486C32.833,74.573,34.074,76.057,34.064,78.329C34.055,80.601,32.75,82.007,30.871,83.172C28.521,84.626,26.319,86.316,24.062,87.917C23.827,88.083,23.66,88.348,23.395,88.647L75.613,88.647C75.672,88.559,75.731,88.475,75.795,88.387C75.481,88.152,75.172,87.912,74.853,87.687C72.651,86.149,70.507,84.514,68.226,83.108C66.342,81.948,65.106,80.523,65.135,78.226C65.16,75.978,66.376,74.539,68.27,73.501C75.883,69.328,81.529,63.291,85.199,55.432C87.2,51.147,88.338,46.632,88.672,41.857L10.533,41.857ZM61.191,36.51L62.594,36.51C66.185,36.51,69.771,36.486,73.362,36.53C74.24,36.539,74.868,36.309,75.5,35.668C79.391,31.716,83.33,27.813,87.249,23.891C89.035,22.104,90.845,20.336,92.601,18.519C93.964,17.109,94.372,15.41,93.685,13.554C93.003,11.708,91.6,10.66,89.663,10.425C87.951,10.219,86.616,10.998,85.429,12.188C77.654,19.983,69.864,27.765,62.079,35.55C61.834,35.795,61.609,36.064,61.197,36.51L61.191,36.51ZM61.191,36.51"/>
</g>
 </g>
</svg>
