<?xml version="1.0" encoding="UTF-8"?>
<!-- Generator: CustomSymbols v2.7.2.48 by @serious_bret https://bretlester.com/app_content/CustomSymbols/ -->
<!-- Guides: Left/Right 0.11/0.11 Cap/Base 0.222/0.222 -->
<!-- Settings: RefScale 1.0 Min/Max Stroke Scales 0.5/2.21 -->
<!DOCTYPE svg
PUBLIC "-//W3C//DTD SVG 1.1//EN"
       "http://www.w3.org/Graphics/SVG/1.1/DTD/svg11.dtd">
<svg version="1.1" xmlns="http://www.w3.org/2000/svg" xmlns:xlink="http://www.w3.org/1999/xlink" width="3300" height="2200">
<![CDATA[<?xml version="1.0" encoding="UTF-8"?>
<svg width="96px" height="96px" viewBox="0 0 96 96" version="1.1" xmlns="http://www.w3.org/2000/svg" xmlns:xlink="http://www.w3.org/1999/xlink">
    <title>icon/medical/ribbon</title>
    <g id="icon/medical/ribbon" stroke="none" stroke-width="1" fill="none" fill-rule="evenodd">
        <path d="M47.9791107,17.9989639 C55.3849119,17.9989639 60.5033517,20.2863322 63.3344301,22.0299819 L52.0288653,34.4980142 L66.8967142,50.8845709 L73.7025517,43.3850026 C76.4586346,40.3476774 77.9772926,36.3916552 77.9772926,32.3043904 L77.9772926,27.2421818 C77.9772926,24.3173502 77.2085892,21.4675142 75.727429,18.9364099 L69.2965687,7.87454671 C67.1779471,4.25600501 63.5406676,1.27492661 58.8722005,0.656212226 C56.191113,0.299982732 52.5538335,0 47.9791107,0 C43.404388,0 39.7671084,0.299982732 37.1047698,0.656212226 C32.4175539,1.27492661 28.7990232,4.25600501 26.6804016,7.87454671 L20.2307925,18.9364099 C18.7683811,21.4487653 17.9809288,24.3173502 17.9809288,27.2421818 L17.9809288,32.3043904 C17.9809288,36.4104041 19.4995868,40.3476774 22.2556697,43.3850026 L33.1112618,55.346814 L47.9791107,71.7333708 L68.6403585,94.5133094 C69.8402858,95.8257339 71.6964233,96.3319548 73.4025699,95.7507382 L86.9017517,91.2509972 C88.3454142,90.7635253 89.4515972,89.6010922 89.8265744,88.1199275 C90.2015517,86.6387627 89.8265744,85.0826023 88.8141358,83.9576671 L62.8469596,55.346814 L47.9791107,38.9602573 L32.6237914,22.0299819 C35.4736186,20.2863322 40.5733096,17.9989639 47.9791107,17.9989639 Z M43.9293562,76.2143628 L29.0802561,59.8090572 L7.16283449,83.976416 C6.15039585,85.1013512 5.75666971,86.6762606 6.15039585,88.1386764 C6.54412199,89.6010922 7.63155608,90.7822742 9.07521858,91.2697462 L22.5744004,95.7694871 C24.2617982,96.3319548 26.1366845,95.8444828 27.3366118,94.5320584 L43.948105,76.2143628 L43.9293562,76.2143628 Z" id="Shape" fill="#FB4C6C" fill-rule="nonzero"></path>
    </g>
</svg>]]>
 <g id="Notes">
  <rect height="2200" id="artboard" style="fill:white;opacity:1" width="3300" x="0" y="0"/>
  <line id="" style="fill:none;stroke:black;opacity:1;stroke-width:0.5;" x1="263" x2="3036" y1="292" y2="292"/>
  <text id="reftext1" style="stroke:none;fill:black;font-family:-apple-system,&quot;SF Pro Display&quot;,&quot;SF Pro Text&quot;,Helvetica,sans-serif;font-weight:bold;" transform="matrix(1 0 0 1 263 322)">Weight/Scale Variations</text>
  <text id="reftext2" style="stroke:none;fill:black;font-family:-apple-system,&quot;SF Pro Display&quot;,&quot;SF Pro Text&quot;,Helvetica,sans-serif;text-anchor:middle;" transform="matrix(1 0 0 1 559.711 322)">Ultralight</text>
  <text style="stroke:none;fill:black;font-family:-apple-system,&quot;SF Pro Display&quot;,&quot;SF Pro Text&quot;,Helvetica,sans-serif;text-anchor:middle;" transform="matrix(1 0 0 1 856.422 322)">Thin</text>
  <text style="stroke:none;fill:black;font-family:-apple-system,&quot;SF Pro Display&quot;,&quot;SF Pro Text&quot;,Helvetica,sans-serif;text-anchor:middle;" transform="matrix(1 0 0 1 1153.13 322)">Light</text>
  <text style="stroke:none;fill:black;font-family:-apple-system,&quot;SF Pro Display&quot;,&quot;SF Pro Text&quot;,Helvetica,sans-serif;text-anchor:middle;" transform="matrix(1 0 0 1 1449.84 322)">Regular</text>
  <text style="stroke:none;fill:black;font-family:-apple-system,&quot;SF Pro Display&quot;,&quot;SF Pro Text&quot;,Helvetica,sans-serif;text-anchor:middle;" transform="matrix(1 0 0 1 1746.56 322)">Medium</text>
  <text style="stroke:none;fill:black;font-family:-apple-system,&quot;SF Pro Display&quot;,&quot;SF Pro Text&quot;,Helvetica,sans-serif;text-anchor:middle;" transform="matrix(1 0 0 1 2043.27 322)">Semibold</text>
  <text style="stroke:none;fill:black;font-family:-apple-system,&quot;SF Pro Display&quot;,&quot;SF Pro Text&quot;,Helvetica,sans-serif;text-anchor:middle;" transform="matrix(1 0 0 1 2339.98 322)">Bold</text>
  <text style="stroke:none;fill:black;font-family:-apple-system,&quot;SF Pro Display&quot;,&quot;SF Pro Text&quot;,Helvetica,sans-serif;text-anchor:middle;" transform="matrix(1 0 0 1 2636.69 322)">Heavy</text>
  <text style="stroke:none;fill:black;font-family:-apple-system,&quot;SF Pro Display&quot;,&quot;SF Pro Text&quot;,Helvetica,sans-serif;text-anchor:middle;" transform="matrix(1 0 0 1 2933.4 322)">Black</text>
  <line id="" style="fill:none;stroke:black;opacity:1;stroke-width:0.5;" x1="263" x2="3036" y1="1903" y2="1903"/>
  <g id="" transform="matrix(1 0 0 1 263 1933)">
   <path d="M9.24805 0.830078C13.5547 0.830078 17.1387-2.74414 17.1387-7.05078C17.1387-11.3574 13.5449-14.9316 9.23828-14.9316C4.94141-14.9316 1.36719-11.3574 1.36719-7.05078C1.36719-2.74414 4.95117 0.830078 9.24805 0.830078ZM9.24805-0.654297C5.70312-0.654297 2.87109-3.49609 2.87109-7.05078C2.87109-10.6055 5.69336-13.4473 9.23828-13.4473C12.793-13.4473 15.6348-10.6055 15.6445-7.05078C15.6543-3.49609 12.8027-0.654297 9.24805-0.654297ZM6.39648-6.31836L8.50586-6.31836L8.50586-4.19922C8.50586-3.75977 8.79883-3.45703 9.22852-3.45703C9.67773-3.45703 9.9707-3.75977 9.9707-4.19922L9.9707-6.31836L12.0996-6.31836C12.5391-6.31836 12.8418-6.61133 12.8418-7.04102C12.8418-7.48047 12.5391-7.7832 12.0996-7.7832L9.9707-7.7832L9.9707-9.89258C9.9707-10.3418 9.67773-10.6445 9.22852-10.6445C8.79883-10.6445 8.50586-10.3418 8.50586-9.89258L8.50586-7.7832L6.39648-7.7832C5.94727-7.7832 5.64453-7.48047 5.64453-7.04102C5.64453-6.61133 5.94727-6.31836 6.39648-6.31836Z"/>
  </g>
  <g id="" transform="matrix(1 0 0 1 281.506 1933)">
   <path d="M11.709 2.91016C17.1582 2.91016 21.6699-1.61133 21.6699-7.05078C21.6699-12.5 17.1484-17.0117 11.6992-17.0117C6.25977-17.0117 1.74805-12.5 1.74805-7.05078C1.74805-1.61133 6.26953 2.91016 11.709 2.91016ZM11.709 1.25C7.09961 1.25 3.41797-2.44141 3.41797-7.05078C3.41797-11.6602 7.08984-15.3516 11.6992-15.3516C16.3086-15.3516 20-11.6602 20.0098-7.05078C20.0195-2.44141 16.3184 1.25 11.709 1.25ZM7.98828-6.23047L10.8789-6.23047L10.8789-3.32031C10.8789-2.83203 11.2109-2.5 11.6895-2.5C12.1777-2.5 12.5195-2.83203 12.5195-3.32031L12.5195-6.23047L15.4297-6.23047C15.918-6.23047 16.25-6.5625 16.25-7.04102C16.25-7.5293 15.918-7.87109 15.4297-7.87109L12.5195-7.87109L12.5195-10.7617C12.5195-11.2695 12.1777-11.6016 11.6895-11.6016C11.2109-11.6016 10.8789-11.2598 10.8789-10.7617L10.8789-7.87109L7.98828-7.87109C7.48047-7.87109 7.14844-7.5293 7.14844-7.04102C7.14844-6.5625 7.49023-6.23047 7.98828-6.23047Z"/>
  </g>
  <g id="" transform="matrix(1 0 0 1 304.924 1933)">
   <path d="M14.9707 5.66406C21.9336 5.66406 27.6953-0.0976562 27.6953-7.05078C27.6953-14.0137 21.9238-19.7754 14.9609-19.7754C8.00781-19.7754 2.25586-14.0137 2.25586-7.05078C2.25586-0.0976562 8.01758 5.66406 14.9707 5.66406ZM14.9707 3.84766C8.93555 3.84766 4.08203-1.01562 4.08203-7.05078C4.08203-13.0957 8.92578-17.9492 14.9609-17.9492C21.0059-17.9492 25.8594-13.0957 25.8691-7.05078C25.8789-1.01562 21.0156 3.84766 14.9707 3.84766ZM10.0586-6.14258L14.0625-6.14258L14.0625-2.12891C14.0625-1.5918 14.4336-1.2207 14.9512-1.2207C15.4883-1.2207 15.8594-1.5918 15.8594-2.12891L15.8594-6.14258L19.8828-6.14258C20.4102-6.14258 20.791-6.51367 20.791-7.03125C20.791-7.56836 20.4199-7.94922 19.8828-7.94922L15.8594-7.94922L15.8594-11.9531C15.8594-12.5098 15.4883-12.8809 14.9512-12.8809C14.4336-12.8809 14.0625-12.5 14.0625-11.9531L14.0625-7.94922L10.0586-7.94922C9.50195-7.94922 9.13086-7.56836 9.13086-7.03125C9.13086-6.51367 9.51172-6.14258 10.0586-6.14258Z"/>
  </g>
  <text style="stroke:none;fill:black;font-family:-apple-system,&quot;SF Pro Display&quot;,&quot;SF Pro Text&quot;,Helvetica,sans-serif;font-weight:bold;" transform="matrix(1 0 0 1 263 1953)">Design Variations</text>
  <text style="stroke:none;fill:black;font-family:-apple-system,&quot;SF Pro Display&quot;,&quot;SF Pro Text&quot;,Helvetica,sans-serif;" transform="matrix(1 0 0 1 263 1971)">Symbols are supported in up to nine weights and three scales.</text>
  <text style="stroke:none;fill:black;font-family:-apple-system,&quot;SF Pro Display&quot;,&quot;SF Pro Text&quot;,Helvetica,sans-serif;" transform="matrix(1 0 0 1 263 1989)">For optimal layout with text and other symbols, vertically align</text>
  <text style="stroke:none;fill:black;font-family:-apple-system,&quot;SF Pro Display&quot;,&quot;SF Pro Text&quot;,Helvetica,sans-serif;" transform="matrix(1 0 0 1 263 2007)">symbols with the adjacent text.</text>
  <line id="" style="fill:none;stroke:#00AEEF;stroke-width:0.5;opacity:1.0;" x1="776" x2="776" y1="1919" y2="1933"/>
  <g id="" transform="matrix(1 0 0 1 776 1933)">
   <path d="M3.31055 0.126953C3.82812 0.126953 4.08203-0.0683594 4.26758-0.605469L5.52734-4.0625L11.2891-4.0625L12.5488-0.605469C12.7344-0.0683594 12.9883 0.126953 13.4961 0.126953C14.0137 0.126953 14.3457-0.185547 14.3457-0.673828C14.3457-0.839844 14.3164-0.986328 14.2383-1.20117L9.6582-13.3887C9.43359-13.9941 9.0332-14.2871 8.4082-14.2871C7.80273-14.2871 7.39258-13.9941 7.17773-13.3984L2.59766-1.19141C2.51953-0.976562 2.49023-0.830078 2.49023-0.664062C2.49023-0.175781 2.80273 0.126953 3.31055 0.126953ZM6.00586-5.53711L8.37891-12.1094L8.42773-12.1094L10.8008-5.53711Z"/>
  </g>
  <line id="" style="fill:none;stroke:#00AEEF;stroke-width:0.5;opacity:1.0;" x1="792.836" x2="792.836" y1="1919" y2="1933"/>
  <text style="stroke:none;fill:black;font-family:-apple-system,&quot;SF Pro Display&quot;,&quot;SF Pro Text&quot;,Helvetica,sans-serif;font-weight:bold;" transform="matrix(1 0 0 1 776 1953)">Margins</text>
  <text style="stroke:none;fill:black;font-family:-apple-system,&quot;SF Pro Display&quot;,&quot;SF Pro Text&quot;,Helvetica,sans-serif;" transform="matrix(1 0 0 1 776 1971)">Leading and trailing margins on the left and right side of each symbol</text>
  <text style="stroke:none;fill:black;font-family:-apple-system,&quot;SF Pro Display&quot;,&quot;SF Pro Text&quot;,Helvetica,sans-serif;" transform="matrix(1 0 0 1 776 1989)">can be adjusted by modifying the x-location of the margin guidelines.</text>
  <text style="stroke:none;fill:black;font-family:-apple-system,&quot;SF Pro Display&quot;,&quot;SF Pro Text&quot;,Helvetica,sans-serif;" transform="matrix(1 0 0 1 776 2007)">Modifications are automatically applied proportionally to all</text>
  <text style="stroke:none;fill:black;font-family:-apple-system,&quot;SF Pro Display&quot;,&quot;SF Pro Text&quot;,Helvetica,sans-serif;" transform="matrix(1 0 0 1 776 2025)">scales and weights.</text>
  <g id="" transform="matrix(1 0 0 1 1289 1933)">
   <path d="M2.8418 1.86523L4.54102 3.57422C5.40039 4.44336 6.38672 4.38477 7.31445 3.35938L17.4902-7.85156C17.7539-7.76367 18.0273-7.7832 18.3398-7.8418L19.4043-8.03711L20.0684-7.36328L20.0293-6.80664C19.9902-6.30859 20.1172-5.92773 20.6055-5.44922L21.3672-4.70703C21.8457-4.22852 22.4609-4.19922 22.9297-4.66797L25.8398-7.58789C26.3086-8.05664 26.2891-8.65234 25.8105-9.13086L25.0391-9.89258C24.5605-10.3711 24.1895-10.5273 23.7109-10.4883L23.1348-10.4395L22.4902-11.0742L22.7344-12.1973C22.8613-12.7637 22.7051-13.2031 22.1191-13.7891L19.9219-15.9766C16.582-19.2969 12.1484-19.2188 9.25781-16.3281C8.83789-15.918 8.80859-15.3418 9.04297-14.9512C9.27734-14.5898 9.73633-14.3555 10.3809-14.5215C11.8457-14.8633 13.3691-14.9219 14.7949-13.9844L14.209-12.5293C14.0137-12.0508 13.9844-11.6504 14.1113-11.2891L3.04688-0.898438C2.06055 0.0195312 1.98242 0.996094 2.8418 1.86523ZM10.752-15.957C13.1836-17.7344 16.4746-17.4316 18.7012-15.2051L21.1328-12.793C21.3672-12.5586 21.4062-12.373 21.3379-12.0312L21.0156-10.5469L22.5195-9.0625L23.5059-9.12109C23.7598-9.13086 23.8379-9.11133 24.0332-8.91602L24.6094-8.33984L22.168-5.89844L21.5918-6.47461C21.3965-6.66992 21.3672-6.74805 21.377-7.01172L21.4453-7.98828L19.9512-9.47266L18.4277-9.21875C18.1055-9.15039 17.959-9.17969 17.7148-9.41406L15.7129-11.416C15.459-11.6504 15.4297-11.8164 15.5859-12.1875L16.4648-14.2773C14.9023-15.7324 12.8711-16.3574 10.8398-15.7617C10.6836-15.7227 10.625-15.8496 10.752-15.957ZM5.27344 2.30469L4.10156 1.14258C3.63281 0.683594 3.74023 0.341797 4.14062-0.0195312L14.9512-10.1953L16.416-8.71094L6.42578 2.27539C6.07422 2.67578 5.74219 2.77344 5.27344 2.30469Z"/>
  </g>
  <text style="stroke:none;fill:black;font-family:-apple-system,&quot;SF Pro Display&quot;,&quot;SF Pro Text&quot;,Helvetica,sans-serif;font-weight:bold;" transform="matrix(1 0 0 1 1289 1953)">Exporting</text>
  <text style="stroke:none;fill:black;font-family:-apple-system,&quot;SF Pro Display&quot;,&quot;SF Pro Text&quot;,Helvetica,sans-serif;" transform="matrix(1 0 0 1 1289 1971)">Symbols should be outlined when exporting to ensure the</text>
  <text style="stroke:none;fill:black;font-family:-apple-system,&quot;SF Pro Display&quot;,&quot;SF Pro Text&quot;,Helvetica,sans-serif;" transform="matrix(1 0 0 1 1289 1989)">design is preserved when submitting to Xcode.</text>
  <text id="template-version" style="stroke:none;fill:black;font-family:-apple-system,&quot;SF Pro Display&quot;,&quot;SF Pro Text&quot;,Helvetica,sans-serif;text-anchor:end;" transform="matrix(1 0 0 1 3036 1933)">Template v.2.0</text>
  <text style="stroke:none;fill:black;font-family:-apple-system,&quot;SF Pro Display&quot;,&quot;SF Pro Text&quot;,Helvetica,sans-serif;text-anchor:end;" transform="matrix(1 0 0 1 3036 1951)">Requires Xcode 12 or greater</text>
  <text style="stroke:none;fill:black;font-family:-apple-system,&quot;SF Pro Display&quot;,&quot;SF Pro Text&quot;,Helvetica,sans-serif;" transform="matrix(1 0 0 1 263 726)">Small</text>
  <text style="stroke:none;fill:black;font-family:-apple-system,&quot;SF Pro Display&quot;,&quot;SF Pro Text&quot;,Helvetica,sans-serif;" transform="matrix(1 0 0 1 263 1156)">Medium</text>
  <text style="stroke:none;fill:black;font-family:-apple-system,&quot;SF Pro Display&quot;,&quot;SF Pro Text&quot;,Helvetica,sans-serif;" transform="matrix(1 0 0 1 263 1586)">Large</text>
 </g>
 <g id="Guides">
  <g id="H-reference" style="fill:#27AAE1;stroke:none;" transform="matrix(1 0 0 1 339 696)">
   <path d="M0.976562 0L3.66211 0L12.9883-24.4629L45.752-24.4629L55.127 0L57.7637 0L30.6152-70.459L28.125-70.459ZM29.3457-67.1387L29.4434-67.1387L44.873-26.709L13.8672-26.709Z"/>
  </g>
  <line id="Baseline-S" style="fill:none;stroke:#27AAE1;opacity:1;stroke-width:0.5;" x1="263" x2="3036" y1="696" y2="696"/>
  <line id="Capline-S" style="fill:none;stroke:#27AAE1;opacity:1;stroke-width:0.5;" x1="263" x2="3036" y1="625.541" y2="625.541"/>
  <g id="H-reference" style="fill:#27AAE1;stroke:none;" transform="matrix(1 0 0 1 339 1126)">
   <path d="M0.976562 0L3.66211 0L12.9883-24.4629L45.752-24.4629L55.127 0L57.7637 0L30.6152-70.459L28.125-70.459ZM29.3457-67.1387L29.4434-67.1387L44.873-26.709L13.8672-26.709Z"/>
  </g>
  <line id="Baseline-M" style="fill:none;stroke:#27AAE1;opacity:1;stroke-width:0.5;" x1="263" x2="3036" y1="1126" y2="1126"/>
  <line id="Capline-M" style="fill:none;stroke:#27AAE1;opacity:1;stroke-width:0.5;" x1="263" x2="3036" y1="1055.54" y2="1055.54"/>
  <g id="H-reference" style="fill:#27AAE1;stroke:none;" transform="matrix(1 0 0 1 339 1556)">
   <path d="M0.976562 0L3.66211 0L12.9883-24.4629L45.752-24.4629L55.127 0L57.7637 0L30.6152-70.459L28.125-70.459ZM29.3457-67.1387L29.4434-67.1387L44.873-26.709L13.8672-26.709Z"/>
  </g>
  <line id="Baseline-L" style="fill:none;stroke:#27AAE1;opacity:1;stroke-width:0.5;" x1="263" x2="3036" y1="1556" y2="1556"/>
  <line id="Capline-L" style="fill:none;stroke:#27AAE1;opacity:1;stroke-width:0.5;" x1="263" x2="3036" y1="1485.54" y2="1485.54"/>
  <line id="left-margin" x1="1401.7066461049908" x2="1401.7066461049908" y1="1030.79" y2="1150.12" style="fill:none;stroke:#00AEEF;stroke-width:0.5;opacity:1.0;"/>
  <line id="right-margin" x1="1500.553353895009" x2="1500.553353895009" y1="1030.79" y2="1150.12" style="fill:none;stroke:#00AEEF;stroke-width:0.5;opacity:1.0;"/>
 </g>
 <g id="Symbols">
  <g id="Black-L" transform="matrix(1.0,0.0,0.0,1.0,2852.941376250562,1439.031395781812)">  <path stroke-linecap="butt" stroke-width="1px" fill="#000000" stroke-linejoin="miter" stroke-dasharray="none" version="1.1" stroke-opacity="1" fill-opacity="1" xmlns:xlink="http://www.w3.org/1999/xlink" fill-rule="nonzero" stroke="none" stroke-miterlimit="4" d="M81.703,30.65C94.314,30.65,103.03,34.545,107.851,37.515L88.599,58.746L113.918,86.651L125.507,73.88C130.2,68.708,132.787,61.971,132.787,55.011L132.787,46.39C132.787,41.41,131.478,36.557,128.955,32.247L118.004,13.409C114.397,7.247,108.203,2.171,100.253,1.117C95.687,0.511,89.493,0,81.703,0C73.913,0,67.719,0.511,63.185,1.117C55.203,2.171,49.042,7.247,45.434,13.409L34.451,32.247C31.96,36.525,30.62,41.41,30.62,46.39L30.62,55.011C30.62,62.003,33.206,68.708,37.899,73.88L56.385,94.249L81.703,122.154L116.887,160.946C118.93,163.18,122.091,164.043,124.996,163.053L147.984,155.39C150.442,154.56,152.326,152.581,152.965,150.058C153.603,147.536,152.965,144.886,151.241,142.97L107.021,94.249L81.703,66.345L55.555,37.515C60.408,34.545,69.092,30.65,81.703,30.65ZM74.807,129.785L49.52,101.848L12.198,143.002C10.473,144.918,9.803,147.6,10.473,150.09C11.144,152.581,12.996,154.592,15.454,155.422L38.442,163.085C41.315,164.043,44.508,163.212,46.551,160.978L74.839,129.785L74.807,129.785ZM74.807,129.785"/>
</g>
  <g id="Heavy-L" transform="matrix(1.0,0.0,0.0,1.0,2556.231376250562,1439.031395781812)">  <path stroke="none" fill-opacity="1" xmlns:xlink="http://www.w3.org/1999/xlink" version="1.1" stroke-dasharray="none" stroke-linecap="butt" fill-rule="nonzero" stroke-opacity="1" stroke-miterlimit="4" stroke-linejoin="miter" stroke-width="1px" fill="#000000" d="M81.703,30.65C94.314,30.65,103.03,34.545,107.851,37.515L88.599,58.746L113.918,86.651L125.507,73.88C130.2,68.708,132.787,61.971,132.787,55.011L132.787,46.39C132.787,41.41,131.478,36.557,128.955,32.247L118.004,13.409C114.397,7.247,108.203,2.171,100.253,1.117C95.687,0.511,89.493,0,81.703,0C73.913,0,67.719,0.511,63.185,1.117C55.203,2.171,49.042,7.247,45.434,13.409L34.451,32.247C31.96,36.525,30.62,41.41,30.62,46.39L30.62,55.011C30.62,62.003,33.206,68.708,37.899,73.88L56.385,94.249L81.703,122.154L116.887,160.946C118.93,163.18,122.091,164.043,124.996,163.053L147.984,155.39C150.442,154.56,152.326,152.581,152.965,150.058C153.603,147.536,152.965,144.886,151.241,142.97L107.021,94.249L81.703,66.345L55.555,37.515C60.408,34.545,69.092,30.65,81.703,30.65ZM74.807,129.785L49.52,101.848L12.198,143.002C10.473,144.918,9.803,147.6,10.473,150.09C11.144,152.581,12.996,154.592,15.454,155.422L38.442,163.085C41.315,164.043,44.508,163.212,46.551,160.978L74.839,129.785L74.807,129.785ZM74.807,129.785"/>
</g>
  <g id="Bold-L" transform="matrix(1.0,0.0,0.0,1.0,2259.521376250562,1439.031395781812)">  <path stroke-width="1px" fill-rule="nonzero" stroke-dasharray="none" fill="#000000" fill-opacity="1" stroke-linejoin="miter" stroke-linecap="butt" stroke-opacity="1" xmlns:xlink="http://www.w3.org/1999/xlink" stroke="none" version="1.1" stroke-miterlimit="4" d="M81.703,30.65C94.314,30.65,103.03,34.545,107.851,37.515L88.599,58.746L113.918,86.651L125.507,73.88C130.2,68.708,132.787,61.971,132.787,55.011L132.787,46.39C132.787,41.41,131.478,36.557,128.955,32.247L118.004,13.409C114.397,7.247,108.203,2.171,100.253,1.117C95.687,0.511,89.493,0,81.703,0C73.913,0,67.719,0.511,63.185,1.117C55.203,2.171,49.042,7.247,45.434,13.409L34.451,32.247C31.96,36.525,30.62,41.41,30.62,46.39L30.62,55.011C30.62,62.003,33.206,68.708,37.899,73.88L56.385,94.249L81.703,122.154L116.887,160.946C118.93,163.18,122.091,164.043,124.996,163.053L147.984,155.39C150.442,154.56,152.326,152.581,152.965,150.058C153.603,147.536,152.965,144.886,151.241,142.97L107.021,94.249L81.703,66.345L55.555,37.515C60.408,34.545,69.092,30.65,81.703,30.65ZM74.807,129.785L49.52,101.848L12.198,143.002C10.473,144.918,9.803,147.6,10.473,150.09C11.144,152.581,12.996,154.592,15.454,155.422L38.442,163.085C41.315,164.043,44.508,163.212,46.551,160.978L74.839,129.785L74.807,129.785ZM74.807,129.785"/>
</g>
  <g id="Semibold-L" transform="matrix(1.0,0.0,0.0,1.0,1962.811376250562,1439.031395781812)">  <path xmlns:xlink="http://www.w3.org/1999/xlink" stroke-width="1px" stroke-linecap="butt" stroke="none" fill-opacity="1" version="1.1" stroke-opacity="1" stroke-dasharray="none" stroke-linejoin="miter" fill="#000000" fill-rule="nonzero" stroke-miterlimit="4" d="M81.703,30.65C94.314,30.65,103.03,34.545,107.851,37.515L88.599,58.746L113.918,86.651L125.507,73.88C130.2,68.708,132.787,61.971,132.787,55.011L132.787,46.39C132.787,41.41,131.478,36.557,128.955,32.247L118.004,13.409C114.397,7.247,108.203,2.171,100.253,1.117C95.687,0.511,89.493,0,81.703,0C73.913,0,67.719,0.511,63.185,1.117C55.203,2.171,49.042,7.247,45.434,13.409L34.451,32.247C31.96,36.525,30.62,41.41,30.62,46.39L30.62,55.011C30.62,62.003,33.206,68.708,37.899,73.88L56.385,94.249L81.703,122.154L116.887,160.946C118.93,163.18,122.091,164.043,124.996,163.053L147.984,155.39C150.442,154.56,152.326,152.581,152.965,150.058C153.603,147.536,152.965,144.886,151.241,142.97L107.021,94.249L81.703,66.345L55.555,37.515C60.408,34.545,69.092,30.65,81.703,30.65ZM74.807,129.785L49.52,101.848L12.198,143.002C10.473,144.918,9.803,147.6,10.473,150.09C11.144,152.581,12.996,154.592,15.454,155.422L38.442,163.085C41.315,164.043,44.508,163.212,46.551,160.978L74.839,129.785L74.807,129.785ZM74.807,129.785"/>
</g>
  <g id="Medium-L" transform="matrix(1.0,0.0,0.0,1.0,1666.101376250562,1439.031395781812)">  <path stroke-opacity="1" stroke-width="1px" fill-opacity="1" fill="#000000" version="1.1" fill-rule="nonzero" xmlns:xlink="http://www.w3.org/1999/xlink" stroke-dasharray="none" stroke-miterlimit="4" stroke="none" stroke-linejoin="miter" stroke-linecap="butt" d="M81.703,30.65C94.314,30.65,103.03,34.545,107.851,37.515L88.599,58.746L113.918,86.651L125.507,73.88C130.2,68.708,132.787,61.971,132.787,55.011L132.787,46.39C132.787,41.41,131.478,36.557,128.955,32.247L118.004,13.409C114.397,7.247,108.203,2.171,100.253,1.117C95.687,0.511,89.493,0,81.703,0C73.913,0,67.719,0.511,63.185,1.117C55.203,2.171,49.042,7.247,45.434,13.409L34.451,32.247C31.96,36.525,30.62,41.41,30.62,46.39L30.62,55.011C30.62,62.003,33.206,68.708,37.899,73.88L56.385,94.249L81.703,122.154L116.887,160.946C118.93,163.18,122.091,164.043,124.996,163.053L147.984,155.39C150.442,154.56,152.326,152.581,152.965,150.058C153.603,147.536,152.965,144.886,151.241,142.97L107.021,94.249L81.703,66.345L55.555,37.515C60.408,34.545,69.092,30.65,81.703,30.65ZM74.807,129.785L49.52,101.848L12.198,143.002C10.473,144.918,9.803,147.6,10.473,150.09C11.144,152.581,12.996,154.592,15.454,155.422L38.442,163.085C41.315,164.043,44.508,163.212,46.551,160.978L74.839,129.785L74.807,129.785ZM74.807,129.785"/>
</g>
  <g id="Regular-L" transform="matrix(1.0,0.0,0.0,1.0,1369.391376250562,1439.031395781812)">  <path xmlns:xlink="http://www.w3.org/1999/xlink" stroke-linecap="butt" stroke-width="1px" stroke-opacity="1" stroke="none" fill-opacity="1" stroke-linejoin="miter" stroke-dasharray="none" fill="#000000" stroke-miterlimit="4" version="1.1" fill-rule="nonzero" d="M81.703,30.65C94.314,30.65,103.03,34.545,107.851,37.515L88.599,58.746L113.918,86.651L125.507,73.88C130.2,68.708,132.787,61.971,132.787,55.011L132.787,46.39C132.787,41.41,131.478,36.557,128.955,32.247L118.004,13.409C114.397,7.247,108.203,2.171,100.253,1.117C95.687,0.511,89.493,0,81.703,0C73.913,0,67.719,0.511,63.185,1.117C55.203,2.171,49.042,7.247,45.434,13.409L34.451,32.247C31.96,36.525,30.62,41.41,30.62,46.39L30.62,55.011C30.62,62.003,33.206,68.708,37.899,73.88L56.385,94.249L81.703,122.154L116.887,160.946C118.93,163.18,122.091,164.043,124.996,163.053L147.984,155.39C150.442,154.56,152.326,152.581,152.965,150.058C153.603,147.536,152.965,144.886,151.241,142.97L107.021,94.249L81.703,66.345L55.555,37.515C60.408,34.545,69.092,30.65,81.703,30.65ZM74.807,129.785L49.52,101.848L12.198,143.002C10.473,144.918,9.803,147.6,10.473,150.09C11.144,152.581,12.996,154.592,15.454,155.422L38.442,163.085C41.315,164.043,44.508,163.212,46.551,160.978L74.839,129.785L74.807,129.785ZM74.807,129.785"/>
</g>
  <g id="Light-L" transform="matrix(1.0,0.0,0.0,1.0,1072.6813762505622,1439.031395781812)">  <path fill-opacity="1" stroke-linejoin="miter" stroke="none" stroke-opacity="1" stroke-linecap="butt" fill="#000000" fill-rule="nonzero" xmlns:xlink="http://www.w3.org/1999/xlink" stroke-miterlimit="4" version="1.1" stroke-width="1px" stroke-dasharray="none" d="M81.703,30.65C94.314,30.65,103.03,34.545,107.851,37.515L88.599,58.746L113.918,86.651L125.507,73.88C130.2,68.708,132.787,61.971,132.787,55.011L132.787,46.39C132.787,41.41,131.478,36.557,128.955,32.247L118.004,13.409C114.397,7.247,108.203,2.171,100.253,1.117C95.687,0.511,89.493,0,81.703,0C73.913,0,67.719,0.511,63.185,1.117C55.203,2.171,49.042,7.247,45.434,13.409L34.451,32.247C31.96,36.525,30.62,41.41,30.62,46.39L30.62,55.011C30.62,62.003,33.206,68.708,37.899,73.88L56.385,94.249L81.703,122.154L116.887,160.946C118.93,163.18,122.091,164.043,124.996,163.053L147.984,155.39C150.442,154.56,152.326,152.581,152.965,150.058C153.603,147.536,152.965,144.886,151.241,142.97L107.021,94.249L81.703,66.345L55.555,37.515C60.408,34.545,69.092,30.65,81.703,30.65ZM74.807,129.785L49.52,101.848L12.198,143.002C10.473,144.918,9.803,147.6,10.473,150.09C11.144,152.581,12.996,154.592,15.454,155.422L38.442,163.085C41.315,164.043,44.508,163.212,46.551,160.978L74.839,129.785L74.807,129.785ZM74.807,129.785"/>
</g>
  <g id="Thin-L" transform="matrix(1.0,0.0,0.0,1.0,775.9713762505621,1439.031395781812)">  <path fill="#000000" stroke-linecap="butt" stroke-linejoin="miter" fill-opacity="1" fill-rule="nonzero" stroke-dasharray="none" stroke-opacity="1" stroke-width="1px" stroke="none" xmlns:xlink="http://www.w3.org/1999/xlink" version="1.1" stroke-miterlimit="4" d="M81.703,30.65C94.314,30.65,103.03,34.545,107.851,37.515L88.599,58.746L113.918,86.651L125.507,73.88C130.2,68.708,132.787,61.971,132.787,55.011L132.787,46.39C132.787,41.41,131.478,36.557,128.955,32.247L118.004,13.409C114.397,7.247,108.203,2.171,100.253,1.117C95.687,0.511,89.493,0,81.703,0C73.913,0,67.719,0.511,63.185,1.117C55.203,2.171,49.042,7.247,45.434,13.409L34.451,32.247C31.96,36.525,30.62,41.41,30.62,46.39L30.62,55.011C30.62,62.003,33.206,68.708,37.899,73.88L56.385,94.249L81.703,122.154L116.887,160.946C118.93,163.18,122.091,164.043,124.996,163.053L147.984,155.39C150.442,154.56,152.326,152.581,152.965,150.058C153.603,147.536,152.965,144.886,151.241,142.97L107.021,94.249L81.703,66.345L55.555,37.515C60.408,34.545,69.092,30.65,81.703,30.65ZM74.807,129.785L49.52,101.848L12.198,143.002C10.473,144.918,9.803,147.6,10.473,150.09C11.144,152.581,12.996,154.592,15.454,155.422L38.442,163.085C41.315,164.043,44.508,163.212,46.551,160.978L74.839,129.785L74.807,129.785ZM74.807,129.785"/>
</g>
  <g id="Ultralight-L" transform="matrix(1.0,0.0,0.0,1.0,479.2613762505621,1439.031395781812)">  <path stroke-width="1px" stroke-linejoin="miter" stroke-miterlimit="4" version="1.1" stroke="none" fill="#000000" fill-rule="nonzero" stroke-linecap="butt" stroke-dasharray="none" stroke-opacity="1" xmlns:xlink="http://www.w3.org/1999/xlink" fill-opacity="1" d="M81.703,30.65C94.314,30.65,103.03,34.545,107.851,37.515L88.599,58.746L113.918,86.651L125.507,73.88C130.2,68.708,132.787,61.971,132.787,55.011L132.787,46.39C132.787,41.41,131.478,36.557,128.955,32.247L118.004,13.409C114.397,7.247,108.203,2.171,100.253,1.117C95.687,0.511,89.493,0,81.703,0C73.913,0,67.719,0.511,63.185,1.117C55.203,2.171,49.042,7.247,45.434,13.409L34.451,32.247C31.96,36.525,30.62,41.41,30.62,46.39L30.62,55.011C30.62,62.003,33.206,68.708,37.899,73.88L56.385,94.249L81.703,122.154L116.887,160.946C118.93,163.18,122.091,164.043,124.996,163.053L147.984,155.39C150.442,154.56,152.326,152.581,152.965,150.058C153.603,147.536,152.965,144.886,151.241,142.97L107.021,94.249L81.703,66.345L55.555,37.515C60.408,34.545,69.092,30.65,81.703,30.65ZM74.807,129.785L49.52,101.848L12.198,143.002C10.473,144.918,9.803,147.6,10.473,150.09C11.144,152.581,12.996,154.592,15.454,155.422L38.442,163.085C41.315,164.043,44.508,163.212,46.551,160.978L74.839,129.785L74.807,129.785ZM74.807,129.785"/>
</g>
  <g id="Black-M" transform="matrix(1.0,0.0,0.0,1.0,2871.3167257756295,1027.4067453068794)">  <path stroke-linecap="butt" stroke-width="1px" fill="#000000" stroke-linejoin="miter" stroke-dasharray="none" version="1.1" stroke-opacity="1" fill-opacity="1" xmlns:xlink="http://www.w3.org/1999/xlink" fill-rule="nonzero" stroke="none" stroke-miterlimit="4" d="M63.336,23.76C73.112,23.76,79.869,26.779,83.606,29.081L68.682,45.54L88.308,67.171L97.292,57.271C100.931,53.262,102.935,48.039,102.935,42.644L102.935,35.962C102.935,32.101,101.921,28.339,99.965,24.997L91.476,10.395C88.679,5.618,83.878,1.683,77.715,0.866C74.176,0.396,69.375,0,63.336,0C57.297,0,52.495,0.396,48.981,0.866C42.793,1.683,38.017,5.618,35.22,10.395L26.706,24.997C24.776,28.314,23.736,32.101,23.736,35.962L23.736,42.644C23.736,48.064,25.741,53.262,29.379,57.271L43.709,73.062L63.336,94.693L90.61,124.764C92.194,126.497,94.644,127.165,96.896,126.398L114.716,120.458C116.622,119.814,118.082,118.28,118.577,116.324C119.072,114.369,118.577,112.315,117.241,110.83L82.962,73.062L63.336,51.43L43.066,29.081C46.828,26.779,53.56,23.76,63.336,23.76ZM57.99,100.608L38.388,78.952L9.455,110.855C8.119,112.34,7.599,114.419,8.119,116.349C8.639,118.28,10.074,119.839,11.98,120.482L29.8,126.422C32.027,127.165,34.502,126.521,36.086,124.789L58.014,100.608L57.99,100.608ZM57.99,100.608"/>
</g>
  <g id="Heavy-M" transform="matrix(1.0,0.0,0.0,1.0,2574.6067257756295,1027.4067453068794)">  <path stroke="none" fill-opacity="1" xmlns:xlink="http://www.w3.org/1999/xlink" version="1.1" stroke-dasharray="none" stroke-linecap="butt" fill-rule="nonzero" stroke-opacity="1" stroke-miterlimit="4" stroke-linejoin="miter" stroke-width="1px" fill="#000000" d="M63.336,23.76C73.112,23.76,79.869,26.779,83.606,29.081L68.682,45.54L88.308,67.171L97.292,57.271C100.931,53.262,102.935,48.039,102.935,42.644L102.935,35.962C102.935,32.101,101.921,28.339,99.965,24.997L91.476,10.395C88.679,5.618,83.878,1.683,77.715,0.866C74.176,0.396,69.375,0,63.336,0C57.297,0,52.495,0.396,48.981,0.866C42.793,1.683,38.017,5.618,35.22,10.395L26.706,24.997C24.776,28.314,23.736,32.101,23.736,35.962L23.736,42.644C23.736,48.064,25.741,53.262,29.379,57.271L43.709,73.062L63.336,94.693L90.61,124.764C92.194,126.497,94.644,127.165,96.896,126.398L114.716,120.458C116.622,119.814,118.082,118.28,118.577,116.324C119.072,114.369,118.577,112.315,117.241,110.83L82.962,73.062L63.336,51.43L43.066,29.081C46.828,26.779,53.56,23.76,63.336,23.76ZM57.99,100.608L38.388,78.952L9.455,110.855C8.119,112.34,7.599,114.419,8.119,116.349C8.639,118.28,10.074,119.839,11.98,120.482L29.8,126.422C32.027,127.165,34.502,126.521,36.086,124.789L58.014,100.608L57.99,100.608ZM57.99,100.608"/>
</g>
  <g id="Bold-M" transform="matrix(1.0,0.0,0.0,1.0,2277.8967257756294,1027.4067453068794)">  <path stroke-width="1px" fill-rule="nonzero" stroke-dasharray="none" fill="#000000" fill-opacity="1" stroke-linejoin="miter" stroke-linecap="butt" stroke-opacity="1" xmlns:xlink="http://www.w3.org/1999/xlink" stroke="none" version="1.1" stroke-miterlimit="4" d="M63.336,23.76C73.112,23.76,79.869,26.779,83.606,29.081L68.682,45.54L88.308,67.171L97.292,57.271C100.931,53.262,102.935,48.039,102.935,42.644L102.935,35.962C102.935,32.101,101.921,28.339,99.965,24.997L91.476,10.395C88.679,5.618,83.878,1.683,77.715,0.866C74.176,0.396,69.375,0,63.336,0C57.297,0,52.495,0.396,48.981,0.866C42.793,1.683,38.017,5.618,35.22,10.395L26.706,24.997C24.776,28.314,23.736,32.101,23.736,35.962L23.736,42.644C23.736,48.064,25.741,53.262,29.379,57.271L43.709,73.062L63.336,94.693L90.61,124.764C92.194,126.497,94.644,127.165,96.896,126.398L114.716,120.458C116.622,119.814,118.082,118.28,118.577,116.324C119.072,114.369,118.577,112.315,117.241,110.83L82.962,73.062L63.336,51.43L43.066,29.081C46.828,26.779,53.56,23.76,63.336,23.76ZM57.99,100.608L38.388,78.952L9.455,110.855C8.119,112.34,7.599,114.419,8.119,116.349C8.639,118.28,10.074,119.839,11.98,120.482L29.8,126.422C32.027,127.165,34.502,126.521,36.086,124.789L58.014,100.608L57.99,100.608ZM57.99,100.608"/>
</g>
  <g id="Semibold-M" transform="matrix(1.0,0.0,0.0,1.0,1981.1867257756294,1027.4067453068794)">  <path xmlns:xlink="http://www.w3.org/1999/xlink" stroke-width="1px" stroke-linecap="butt" stroke="none" fill-opacity="1" version="1.1" stroke-opacity="1" stroke-dasharray="none" stroke-linejoin="miter" fill="#000000" fill-rule="nonzero" stroke-miterlimit="4" d="M63.336,23.76C73.112,23.76,79.869,26.779,83.606,29.081L68.682,45.54L88.308,67.171L97.292,57.271C100.931,53.262,102.935,48.039,102.935,42.644L102.935,35.962C102.935,32.101,101.921,28.339,99.965,24.997L91.476,10.395C88.679,5.618,83.878,1.683,77.715,0.866C74.176,0.396,69.375,0,63.336,0C57.297,0,52.495,0.396,48.981,0.866C42.793,1.683,38.017,5.618,35.22,10.395L26.706,24.997C24.776,28.314,23.736,32.101,23.736,35.962L23.736,42.644C23.736,48.064,25.741,53.262,29.379,57.271L43.709,73.062L63.336,94.693L90.61,124.764C92.194,126.497,94.644,127.165,96.896,126.398L114.716,120.458C116.622,119.814,118.082,118.28,118.577,116.324C119.072,114.369,118.577,112.315,117.241,110.83L82.962,73.062L63.336,51.43L43.066,29.081C46.828,26.779,53.56,23.76,63.336,23.76ZM57.99,100.608L38.388,78.952L9.455,110.855C8.119,112.34,7.599,114.419,8.119,116.349C8.639,118.28,10.074,119.839,11.98,120.482L29.8,126.422C32.027,127.165,34.502,126.521,36.086,124.789L58.014,100.608L57.99,100.608ZM57.99,100.608"/>
</g>
  <g id="Medium-M" transform="matrix(1.0,0.0,0.0,1.0,1684.4767257756293,1027.4067453068794)">  <path stroke-opacity="1" stroke-width="1px" fill-opacity="1" fill="#000000" version="1.1" fill-rule="nonzero" xmlns:xlink="http://www.w3.org/1999/xlink" stroke-dasharray="none" stroke-miterlimit="4" stroke="none" stroke-linejoin="miter" stroke-linecap="butt" d="M63.336,23.76C73.112,23.76,79.869,26.779,83.606,29.081L68.682,45.54L88.308,67.171L97.292,57.271C100.931,53.262,102.935,48.039,102.935,42.644L102.935,35.962C102.935,32.101,101.921,28.339,99.965,24.997L91.476,10.395C88.679,5.618,83.878,1.683,77.715,0.866C74.176,0.396,69.375,0,63.336,0C57.297,0,52.495,0.396,48.981,0.866C42.793,1.683,38.017,5.618,35.22,10.395L26.706,24.997C24.776,28.314,23.736,32.101,23.736,35.962L23.736,42.644C23.736,48.064,25.741,53.262,29.379,57.271L43.709,73.062L63.336,94.693L90.61,124.764C92.194,126.497,94.644,127.165,96.896,126.398L114.716,120.458C116.622,119.814,118.082,118.28,118.577,116.324C119.072,114.369,118.577,112.315,117.241,110.83L82.962,73.062L63.336,51.43L43.066,29.081C46.828,26.779,53.56,23.76,63.336,23.76ZM57.99,100.608L38.388,78.952L9.455,110.855C8.119,112.34,7.599,114.419,8.119,116.349C8.639,118.28,10.074,119.839,11.98,120.482L29.8,126.422C32.027,127.165,34.502,126.521,36.086,124.789L58.014,100.608L57.99,100.608ZM57.99,100.608"/>
</g>
  <g id="Regular-M" transform="matrix(1.0,0.0,0.0,1.0,1387.7667257756293,1027.4067453068794)">  <path xmlns:xlink="http://www.w3.org/1999/xlink" stroke-linecap="butt" stroke-width="1px" stroke-opacity="1" stroke="none" fill-opacity="1" stroke-linejoin="miter" stroke-dasharray="none" fill="#000000" stroke-miterlimit="4" version="1.1" fill-rule="nonzero" d="M63.336,23.76C73.112,23.76,79.869,26.779,83.606,29.081L68.682,45.54L88.308,67.171L97.292,57.271C100.931,53.262,102.935,48.039,102.935,42.644L102.935,35.962C102.935,32.101,101.921,28.339,99.965,24.997L91.476,10.395C88.679,5.618,83.878,1.683,77.715,0.866C74.176,0.396,69.375,0,63.336,0C57.297,0,52.495,0.396,48.981,0.866C42.793,1.683,38.017,5.618,35.22,10.395L26.706,24.997C24.776,28.314,23.736,32.101,23.736,35.962L23.736,42.644C23.736,48.064,25.741,53.262,29.379,57.271L43.709,73.062L63.336,94.693L90.61,124.764C92.194,126.497,94.644,127.165,96.896,126.398L114.716,120.458C116.622,119.814,118.082,118.28,118.577,116.324C119.072,114.369,118.577,112.315,117.241,110.83L82.962,73.062L63.336,51.43L43.066,29.081C46.828,26.779,53.56,23.76,63.336,23.76ZM57.99,100.608L38.388,78.952L9.455,110.855C8.119,112.34,7.599,114.419,8.119,116.349C8.639,118.28,10.074,119.839,11.98,120.482L29.8,126.422C32.027,127.165,34.502,126.521,36.086,124.789L58.014,100.608L57.99,100.608ZM57.99,100.608"/>
</g>
  <g id="Light-M" transform="matrix(1.0,0.0,0.0,1.0,1091.0567257756295,1027.4067453068794)">  <path fill-opacity="1" stroke-linejoin="miter" stroke="none" stroke-opacity="1" stroke-linecap="butt" fill="#000000" fill-rule="nonzero" xmlns:xlink="http://www.w3.org/1999/xlink" stroke-miterlimit="4" version="1.1" stroke-width="1px" stroke-dasharray="none" d="M63.336,23.76C73.112,23.76,79.869,26.779,83.606,29.081L68.682,45.54L88.308,67.171L97.292,57.271C100.931,53.262,102.935,48.039,102.935,42.644L102.935,35.962C102.935,32.101,101.921,28.339,99.965,24.997L91.476,10.395C88.679,5.618,83.878,1.683,77.715,0.866C74.176,0.396,69.375,0,63.336,0C57.297,0,52.495,0.396,48.981,0.866C42.793,1.683,38.017,5.618,35.22,10.395L26.706,24.997C24.776,28.314,23.736,32.101,23.736,35.962L23.736,42.644C23.736,48.064,25.741,53.262,29.379,57.271L43.709,73.062L63.336,94.693L90.61,124.764C92.194,126.497,94.644,127.165,96.896,126.398L114.716,120.458C116.622,119.814,118.082,118.28,118.577,116.324C119.072,114.369,118.577,112.315,117.241,110.83L82.962,73.062L63.336,51.43L43.066,29.081C46.828,26.779,53.56,23.76,63.336,23.76ZM57.99,100.608L38.388,78.952L9.455,110.855C8.119,112.34,7.599,114.419,8.119,116.349C8.639,118.28,10.074,119.839,11.98,120.482L29.8,126.422C32.027,127.165,34.502,126.521,36.086,124.789L58.014,100.608L57.99,100.608ZM57.99,100.608"/>
</g>
  <g id="Thin-M" transform="matrix(1.0,0.0,0.0,1.0,794.3467257756296,1027.4067453068794)">  <path fill="#000000" stroke-linecap="butt" stroke-linejoin="miter" fill-opacity="1" fill-rule="nonzero" stroke-dasharray="none" stroke-opacity="1" stroke-width="1px" stroke="none" xmlns:xlink="http://www.w3.org/1999/xlink" version="1.1" stroke-miterlimit="4" d="M63.336,23.76C73.112,23.76,79.869,26.779,83.606,29.081L68.682,45.54L88.308,67.171L97.292,57.271C100.931,53.262,102.935,48.039,102.935,42.644L102.935,35.962C102.935,32.101,101.921,28.339,99.965,24.997L91.476,10.395C88.679,5.618,83.878,1.683,77.715,0.866C74.176,0.396,69.375,0,63.336,0C57.297,0,52.495,0.396,48.981,0.866C42.793,1.683,38.017,5.618,35.22,10.395L26.706,24.997C24.776,28.314,23.736,32.101,23.736,35.962L23.736,42.644C23.736,48.064,25.741,53.262,29.379,57.271L43.709,73.062L63.336,94.693L90.61,124.764C92.194,126.497,94.644,127.165,96.896,126.398L114.716,120.458C116.622,119.814,118.082,118.28,118.577,116.324C119.072,114.369,118.577,112.315,117.241,110.83L82.962,73.062L63.336,51.43L43.066,29.081C46.828,26.779,53.56,23.76,63.336,23.76ZM57.99,100.608L38.388,78.952L9.455,110.855C8.119,112.34,7.599,114.419,8.119,116.349C8.639,118.28,10.074,119.839,11.98,120.482L29.8,126.422C32.027,127.165,34.502,126.521,36.086,124.789L58.014,100.608L57.99,100.608ZM57.99,100.608"/>
</g>
  <g id="Ultralight-M" transform="matrix(1.0,0.0,0.0,1.0,497.6367257756295,1027.4067453068794)">  <path stroke-width="1px" stroke-linejoin="miter" stroke-miterlimit="4" version="1.1" stroke="none" fill="#000000" fill-rule="nonzero" stroke-linecap="butt" stroke-dasharray="none" stroke-opacity="1" xmlns:xlink="http://www.w3.org/1999/xlink" fill-opacity="1" d="M63.336,23.76C73.112,23.76,79.869,26.779,83.606,29.081L68.682,45.54L88.308,67.171L97.292,57.271C100.931,53.262,102.935,48.039,102.935,42.644L102.935,35.962C102.935,32.101,101.921,28.339,99.965,24.997L91.476,10.395C88.679,5.618,83.878,1.683,77.715,0.866C74.176,0.396,69.375,0,63.336,0C57.297,0,52.495,0.396,48.981,0.866C42.793,1.683,38.017,5.618,35.22,10.395L26.706,24.997C24.776,28.314,23.736,32.101,23.736,35.962L23.736,42.644C23.736,48.064,25.741,53.262,29.379,57.271L43.709,73.062L63.336,94.693L90.61,124.764C92.194,126.497,94.644,127.165,96.896,126.398L114.716,120.458C116.622,119.814,118.082,118.28,118.577,116.324C119.072,114.369,118.577,112.315,117.241,110.83L82.962,73.062L63.336,51.43L43.066,29.081C46.828,26.779,53.56,23.76,63.336,23.76ZM57.99,100.608L38.388,78.952L9.455,110.855C8.119,112.34,7.599,114.419,8.119,116.349C8.639,118.28,10.074,119.839,11.98,120.482L29.8,126.422C32.027,127.165,34.502,126.521,36.086,124.789L58.014,100.608L57.99,100.608ZM57.99,100.608"/>
</g>
  <g id="Black-S" transform="matrix(1.0,0.0,0.0,1.0,2885.066556282318,611.1565758135679)">  <path stroke-linecap="butt" stroke-width="1px" fill="#000000" stroke-linejoin="miter" stroke-dasharray="none" version="1.1" stroke-opacity="1" fill-opacity="1" xmlns:xlink="http://www.w3.org/1999/xlink" fill-rule="nonzero" stroke="none" stroke-miterlimit="4" d="M49.592,18.604C57.247,18.604,62.537,20.968,65.463,22.77L53.778,35.658L69.145,52.595L76.18,44.843C79.029,41.704,80.598,37.615,80.598,33.39L80.598,28.158C80.598,25.135,79.804,22.189,78.273,19.573L71.626,8.139C69.436,4.399,65.676,1.318,60.851,0.678C58.08,0.31,54.32,0,49.592,0C44.863,0,41.104,0.31,38.352,0.678C33.507,1.318,29.767,4.399,27.577,8.139L20.911,19.573C19.399,22.17,18.585,25.135,18.585,28.158L18.585,33.39C18.585,37.634,20.155,41.704,23.004,44.843L34.224,57.207L49.592,74.145L70.948,97.69C72.188,99.047,74.106,99.57,75.87,98.969L89.823,94.318C91.315,93.814,92.458,92.613,92.846,91.082C93.234,89.551,92.846,87.943,91.799,86.78L64.959,57.207L49.592,40.27L33.72,22.77C36.666,20.968,41.937,18.604,49.592,18.604ZM45.406,78.776L30.058,61.819L7.404,86.799C6.357,87.962,5.95,89.59,6.357,91.101C6.764,92.613,7.888,93.834,9.38,94.338L23.333,98.989C25.077,99.57,27.015,99.066,28.255,97.71L45.425,78.776L45.406,78.776ZM45.406,78.776"/>
</g>
  <g id="Heavy-S" transform="matrix(1.0,0.0,0.0,1.0,2588.356556282318,611.1565758135679)">  <path stroke="none" fill-opacity="1" xmlns:xlink="http://www.w3.org/1999/xlink" version="1.1" stroke-dasharray="none" stroke-linecap="butt" fill-rule="nonzero" stroke-opacity="1" stroke-miterlimit="4" stroke-linejoin="miter" stroke-width="1px" fill="#000000" d="M49.592,18.604C57.247,18.604,62.537,20.968,65.463,22.77L53.778,35.658L69.145,52.595L76.18,44.843C79.029,41.704,80.598,37.615,80.598,33.39L80.598,28.158C80.598,25.135,79.804,22.189,78.273,19.573L71.626,8.139C69.436,4.399,65.676,1.318,60.851,0.678C58.08,0.31,54.32,0,49.592,0C44.863,0,41.104,0.31,38.352,0.678C33.507,1.318,29.767,4.399,27.577,8.139L20.911,19.573C19.399,22.17,18.585,25.135,18.585,28.158L18.585,33.39C18.585,37.634,20.155,41.704,23.004,44.843L34.224,57.207L49.592,74.145L70.948,97.69C72.188,99.047,74.106,99.57,75.87,98.969L89.823,94.318C91.315,93.814,92.458,92.613,92.846,91.082C93.234,89.551,92.846,87.943,91.799,86.78L64.959,57.207L49.592,40.27L33.72,22.77C36.666,20.968,41.937,18.604,49.592,18.604ZM45.406,78.776L30.058,61.819L7.404,86.799C6.357,87.962,5.95,89.59,6.357,91.101C6.764,92.613,7.888,93.834,9.38,94.338L23.333,98.989C25.077,99.57,27.015,99.066,28.255,97.71L45.425,78.776L45.406,78.776ZM45.406,78.776"/>
</g>
  <g id="Bold-S" transform="matrix(1.0,0.0,0.0,1.0,2291.6465562823178,611.1565758135679)">  <path stroke-width="1px" fill-rule="nonzero" stroke-dasharray="none" fill="#000000" fill-opacity="1" stroke-linejoin="miter" stroke-linecap="butt" stroke-opacity="1" xmlns:xlink="http://www.w3.org/1999/xlink" stroke="none" version="1.1" stroke-miterlimit="4" d="M49.592,18.604C57.247,18.604,62.537,20.968,65.463,22.77L53.778,35.658L69.145,52.595L76.18,44.843C79.029,41.704,80.598,37.615,80.598,33.39L80.598,28.158C80.598,25.135,79.804,22.189,78.273,19.573L71.626,8.139C69.436,4.399,65.676,1.318,60.851,0.678C58.08,0.31,54.32,0,49.592,0C44.863,0,41.104,0.31,38.352,0.678C33.507,1.318,29.767,4.399,27.577,8.139L20.911,19.573C19.399,22.17,18.585,25.135,18.585,28.158L18.585,33.39C18.585,37.634,20.155,41.704,23.004,44.843L34.224,57.207L49.592,74.145L70.948,97.69C72.188,99.047,74.106,99.57,75.87,98.969L89.823,94.318C91.315,93.814,92.458,92.613,92.846,91.082C93.234,89.551,92.846,87.943,91.799,86.78L64.959,57.207L49.592,40.27L33.72,22.77C36.666,20.968,41.937,18.604,49.592,18.604ZM45.406,78.776L30.058,61.819L7.404,86.799C6.357,87.962,5.95,89.59,6.357,91.101C6.764,92.613,7.888,93.834,9.38,94.338L23.333,98.989C25.077,99.57,27.015,99.066,28.255,97.71L45.425,78.776L45.406,78.776ZM45.406,78.776"/>
</g>
  <g id="Semibold-S" transform="matrix(1.0,0.0,0.0,1.0,1994.936556282318,611.1565758135679)">  <path xmlns:xlink="http://www.w3.org/1999/xlink" stroke-width="1px" stroke-linecap="butt" stroke="none" fill-opacity="1" version="1.1" stroke-opacity="1" stroke-dasharray="none" stroke-linejoin="miter" fill="#000000" fill-rule="nonzero" stroke-miterlimit="4" d="M49.592,18.604C57.247,18.604,62.537,20.968,65.463,22.77L53.778,35.658L69.145,52.595L76.18,44.843C79.029,41.704,80.598,37.615,80.598,33.39L80.598,28.158C80.598,25.135,79.804,22.189,78.273,19.573L71.626,8.139C69.436,4.399,65.676,1.318,60.851,0.678C58.08,0.31,54.32,0,49.592,0C44.863,0,41.104,0.31,38.352,0.678C33.507,1.318,29.767,4.399,27.577,8.139L20.911,19.573C19.399,22.17,18.585,25.135,18.585,28.158L18.585,33.39C18.585,37.634,20.155,41.704,23.004,44.843L34.224,57.207L49.592,74.145L70.948,97.69C72.188,99.047,74.106,99.57,75.87,98.969L89.823,94.318C91.315,93.814,92.458,92.613,92.846,91.082C93.234,89.551,92.846,87.943,91.799,86.78L64.959,57.207L49.592,40.27L33.72,22.77C36.666,20.968,41.937,18.604,49.592,18.604ZM45.406,78.776L30.058,61.819L7.404,86.799C6.357,87.962,5.95,89.59,6.357,91.101C6.764,92.613,7.888,93.834,9.38,94.338L23.333,98.989C25.077,99.57,27.015,99.066,28.255,97.71L45.425,78.776L45.406,78.776ZM45.406,78.776"/>
</g>
  <g id="Medium-S" transform="matrix(1.0,0.0,0.0,1.0,1698.226556282318,611.1565758135679)">  <path stroke-opacity="1" stroke-width="1px" fill-opacity="1" fill="#000000" version="1.1" fill-rule="nonzero" xmlns:xlink="http://www.w3.org/1999/xlink" stroke-dasharray="none" stroke-miterlimit="4" stroke="none" stroke-linejoin="miter" stroke-linecap="butt" d="M49.592,18.604C57.247,18.604,62.537,20.968,65.463,22.77L53.778,35.658L69.145,52.595L76.18,44.843C79.029,41.704,80.598,37.615,80.598,33.39L80.598,28.158C80.598,25.135,79.804,22.189,78.273,19.573L71.626,8.139C69.436,4.399,65.676,1.318,60.851,0.678C58.08,0.31,54.32,0,49.592,0C44.863,0,41.104,0.31,38.352,0.678C33.507,1.318,29.767,4.399,27.577,8.139L20.911,19.573C19.399,22.17,18.585,25.135,18.585,28.158L18.585,33.39C18.585,37.634,20.155,41.704,23.004,44.843L34.224,57.207L49.592,74.145L70.948,97.69C72.188,99.047,74.106,99.57,75.87,98.969L89.823,94.318C91.315,93.814,92.458,92.613,92.846,91.082C93.234,89.551,92.846,87.943,91.799,86.78L64.959,57.207L49.592,40.27L33.72,22.77C36.666,20.968,41.937,18.604,49.592,18.604ZM45.406,78.776L30.058,61.819L7.404,86.799C6.357,87.962,5.95,89.59,6.357,91.101C6.764,92.613,7.888,93.834,9.38,94.338L23.333,98.989C25.077,99.57,27.015,99.066,28.255,97.71L45.425,78.776L45.406,78.776ZM45.406,78.776"/>
</g>
  <g id="Regular-S" transform="matrix(1.0,0.0,0.0,1.0,1401.5165562823179,611.1565758135679)">  <path xmlns:xlink="http://www.w3.org/1999/xlink" stroke-linecap="butt" stroke-width="1px" stroke-opacity="1" stroke="none" fill-opacity="1" stroke-linejoin="miter" stroke-dasharray="none" fill="#000000" stroke-miterlimit="4" version="1.1" fill-rule="nonzero" d="M49.592,18.604C57.247,18.604,62.537,20.968,65.463,22.77L53.778,35.658L69.145,52.595L76.18,44.843C79.029,41.704,80.598,37.615,80.598,33.39L80.598,28.158C80.598,25.135,79.804,22.189,78.273,19.573L71.626,8.139C69.436,4.399,65.676,1.318,60.851,0.678C58.08,0.31,54.32,0,49.592,0C44.863,0,41.104,0.31,38.352,0.678C33.507,1.318,29.767,4.399,27.577,8.139L20.911,19.573C19.399,22.17,18.585,25.135,18.585,28.158L18.585,33.39C18.585,37.634,20.155,41.704,23.004,44.843L34.224,57.207L49.592,74.145L70.948,97.69C72.188,99.047,74.106,99.57,75.87,98.969L89.823,94.318C91.315,93.814,92.458,92.613,92.846,91.082C93.234,89.551,92.846,87.943,91.799,86.78L64.959,57.207L49.592,40.27L33.72,22.77C36.666,20.968,41.937,18.604,49.592,18.604ZM45.406,78.776L30.058,61.819L7.404,86.799C6.357,87.962,5.95,89.59,6.357,91.101C6.764,92.613,7.888,93.834,9.38,94.338L23.333,98.989C25.077,99.57,27.015,99.066,28.255,97.71L45.425,78.776L45.406,78.776ZM45.406,78.776"/>
</g>
  <g id="Light-S" transform="matrix(1.0,0.0,0.0,1.0,1104.806556282318,611.1565758135679)">  <path fill-opacity="1" stroke-linejoin="miter" stroke="none" stroke-opacity="1" stroke-linecap="butt" fill="#000000" fill-rule="nonzero" xmlns:xlink="http://www.w3.org/1999/xlink" stroke-miterlimit="4" version="1.1" stroke-width="1px" stroke-dasharray="none" d="M49.592,18.604C57.247,18.604,62.537,20.968,65.463,22.77L53.778,35.658L69.145,52.595L76.18,44.843C79.029,41.704,80.598,37.615,80.598,33.39L80.598,28.158C80.598,25.135,79.804,22.189,78.273,19.573L71.626,8.139C69.436,4.399,65.676,1.318,60.851,0.678C58.08,0.31,54.32,0,49.592,0C44.863,0,41.104,0.31,38.352,0.678C33.507,1.318,29.767,4.399,27.577,8.139L20.911,19.573C19.399,22.17,18.585,25.135,18.585,28.158L18.585,33.39C18.585,37.634,20.155,41.704,23.004,44.843L34.224,57.207L49.592,74.145L70.948,97.69C72.188,99.047,74.106,99.57,75.87,98.969L89.823,94.318C91.315,93.814,92.458,92.613,92.846,91.082C93.234,89.551,92.846,87.943,91.799,86.78L64.959,57.207L49.592,40.27L33.72,22.77C36.666,20.968,41.937,18.604,49.592,18.604ZM45.406,78.776L30.058,61.819L7.404,86.799C6.357,87.962,5.95,89.59,6.357,91.101C6.764,92.613,7.888,93.834,9.38,94.338L23.333,98.989C25.077,99.57,27.015,99.066,28.255,97.71L45.425,78.776L45.406,78.776ZM45.406,78.776"/>
</g>
  <g id="Thin-S" transform="matrix(1.0,0.0,0.0,1.0,808.0965562823179,611.1565758135679)">  <path fill="#000000" stroke-linecap="butt" stroke-linejoin="miter" fill-opacity="1" fill-rule="nonzero" stroke-dasharray="none" stroke-opacity="1" stroke-width="1px" stroke="none" xmlns:xlink="http://www.w3.org/1999/xlink" version="1.1" stroke-miterlimit="4" d="M49.592,18.604C57.247,18.604,62.537,20.968,65.463,22.77L53.778,35.658L69.145,52.595L76.18,44.843C79.029,41.704,80.598,37.615,80.598,33.39L80.598,28.158C80.598,25.135,79.804,22.189,78.273,19.573L71.626,8.139C69.436,4.399,65.676,1.318,60.851,0.678C58.08,0.31,54.32,0,49.592,0C44.863,0,41.104,0.31,38.352,0.678C33.507,1.318,29.767,4.399,27.577,8.139L20.911,19.573C19.399,22.17,18.585,25.135,18.585,28.158L18.585,33.39C18.585,37.634,20.155,41.704,23.004,44.843L34.224,57.207L49.592,74.145L70.948,97.69C72.188,99.047,74.106,99.57,75.87,98.969L89.823,94.318C91.315,93.814,92.458,92.613,92.846,91.082C93.234,89.551,92.846,87.943,91.799,86.78L64.959,57.207L49.592,40.27L33.72,22.77C36.666,20.968,41.937,18.604,49.592,18.604ZM45.406,78.776L30.058,61.819L7.404,86.799C6.357,87.962,5.95,89.59,6.357,91.101C6.764,92.613,7.888,93.834,9.38,94.338L23.333,98.989C25.077,99.57,27.015,99.066,28.255,97.71L45.425,78.776L45.406,78.776ZM45.406,78.776"/>
</g>
  <g id="Ultralight-S" transform="matrix(1.0,0.0,0.0,1.0,511.3865562823179,611.1565758135679)">  <path stroke-width="1px" stroke-linejoin="miter" stroke-miterlimit="4" version="1.1" stroke="none" fill="#000000" fill-rule="nonzero" stroke-linecap="butt" stroke-dasharray="none" stroke-opacity="1" xmlns:xlink="http://www.w3.org/1999/xlink" fill-opacity="1" d="M49.592,18.604C57.247,18.604,62.537,20.968,65.463,22.77L53.778,35.658L69.145,52.595L76.18,44.843C79.029,41.704,80.598,37.615,80.598,33.39L80.598,28.158C80.598,25.135,79.804,22.189,78.273,19.573L71.626,8.139C69.436,4.399,65.676,1.318,60.851,0.678C58.08,0.31,54.32,0,49.592,0C44.863,0,41.104,0.31,38.352,0.678C33.507,1.318,29.767,4.399,27.577,8.139L20.911,19.573C19.399,22.17,18.585,25.135,18.585,28.158L18.585,33.39C18.585,37.634,20.155,41.704,23.004,44.843L34.224,57.207L49.592,74.145L70.948,97.69C72.188,99.047,74.106,99.57,75.87,98.969L89.823,94.318C91.315,93.814,92.458,92.613,92.846,91.082C93.234,89.551,92.846,87.943,91.799,86.78L64.959,57.207L49.592,40.27L33.72,22.77C36.666,20.968,41.937,18.604,49.592,18.604ZM45.406,78.776L30.058,61.819L7.404,86.799C6.357,87.962,5.95,89.59,6.357,91.101C6.764,92.613,7.888,93.834,9.38,94.338L23.333,98.989C25.077,99.57,27.015,99.066,28.255,97.71L45.425,78.776L45.406,78.776ZM45.406,78.776"/>
</g>
 </g>
</svg>
