<?xml version="1.0" encoding="UTF-8"?>
<!-- Generator: CustomSymbols v2.7.2.48 by @serious_bret https://bretlester.com/app_content/CustomSymbols/ -->
<!-- Guides: Left/Right 0.11/0.11 Cap/Base 0.222/0.222 -->
<!-- Settings: RefScale 1.0 Min/Max Stroke Scales 0.5/2.21 -->
<!DOCTYPE svg
PUBLIC "-//W3C//DTD SVG 1.1//EN"
       "http://www.w3.org/Graphics/SVG/1.1/DTD/svg11.dtd">
<svg version="1.1" xmlns="http://www.w3.org/2000/svg" xmlns:xlink="http://www.w3.org/1999/xlink" width="3300" height="2200">
<![CDATA[<?xml version="1.0" encoding="UTF-8"?>
<svg width="96px" height="96px" viewBox="0 0 96 96" version="1.1" xmlns="http://www.w3.org/2000/svg" xmlns:xlink="http://www.w3.org/1999/xlink">
    <title>icon/medical/tablets-solid</title>
    <g id="icon/medical/tablets-solid" stroke="none" stroke-width="1" fill="none" fill-rule="evenodd">
        <path d="M92.125781,46.2347676 C94.5829705,42.4660664 96,37.9586998 96,33.1196875 C96,19.7935602 85.2064561,9 71.8803489,9 C67.0413439,9 62.5490589,10.4170316 58.7652886,12.8742248 C57.5743809,13.6581146 57.4839322,15.3163432 58.4939426,16.3263551 L88.673656,46.5061141 C89.6836664,47.516126 91.3569672,47.440752 92.125781,46.2347676 Z M84.9954092,53.3651502 C86.186317,52.5812604 86.2767657,50.9230318 85.2667553,49.9130199 L55.0870418,19.7332609 C54.0770315,18.723249 52.4037307,18.798623 51.6349168,20.0046074 C49.1777273,23.7733086 47.7606978,28.2806752 47.7606978,33.1196875 C47.7606978,46.4458148 58.5542417,57.239375 71.8803489,57.239375 C76.7193539,57.239375 81.2116389,55.8223434 84.9954092,53.3651502 Z M44.9718632,64.4752813 L2.31023031,64.4752813 C0.878126029,64.4752813 -0.237407834,65.7114152 0.0490130227,67.1133721 C2.37052944,78.0124559 12.0485394,86.183 23.6410467,86.183 C35.233554,86.183 44.911564,78.0124559 47.2330805,67.1133721 C47.5345761,65.7114152 46.4039675,64.4752813 44.9718632,64.4752813 Z M44.9718632,59.6513438 C46.4039675,59.6513438 47.5195013,58.4152098 47.2330805,57.0132529 C44.911564,46.1141691 35.233554,37.943625 23.6410467,37.943625 C12.0485394,37.943625 2.37052944,46.1141691 0.0490130227,57.0132529 C-0.252482616,58.4152098 0.878126029,59.6513438 2.31023031,59.6513438 L44.9718632,59.6513438 Z" id="Shape" fill="#FB4C6C" fill-rule="nonzero"></path>
    </g>
</svg>]]>
 <g id="Notes">
  <rect height="2200" id="artboard" style="fill:white;opacity:1" width="3300" x="0" y="0"/>
  <line id="" style="fill:none;stroke:black;opacity:1;stroke-width:0.5;" x1="263" x2="3036" y1="292" y2="292"/>
  <text id="reftext1" style="stroke:none;fill:black;font-family:-apple-system,&quot;SF Pro Display&quot;,&quot;SF Pro Text&quot;,Helvetica,sans-serif;font-weight:bold;" transform="matrix(1 0 0 1 263 322)">Weight/Scale Variations</text>
  <text id="reftext2" style="stroke:none;fill:black;font-family:-apple-system,&quot;SF Pro Display&quot;,&quot;SF Pro Text&quot;,Helvetica,sans-serif;text-anchor:middle;" transform="matrix(1 0 0 1 559.711 322)">Ultralight</text>
  <text style="stroke:none;fill:black;font-family:-apple-system,&quot;SF Pro Display&quot;,&quot;SF Pro Text&quot;,Helvetica,sans-serif;text-anchor:middle;" transform="matrix(1 0 0 1 856.422 322)">Thin</text>
  <text style="stroke:none;fill:black;font-family:-apple-system,&quot;SF Pro Display&quot;,&quot;SF Pro Text&quot;,Helvetica,sans-serif;text-anchor:middle;" transform="matrix(1 0 0 1 1153.13 322)">Light</text>
  <text style="stroke:none;fill:black;font-family:-apple-system,&quot;SF Pro Display&quot;,&quot;SF Pro Text&quot;,Helvetica,sans-serif;text-anchor:middle;" transform="matrix(1 0 0 1 1449.84 322)">Regular</text>
  <text style="stroke:none;fill:black;font-family:-apple-system,&quot;SF Pro Display&quot;,&quot;SF Pro Text&quot;,Helvetica,sans-serif;text-anchor:middle;" transform="matrix(1 0 0 1 1746.56 322)">Medium</text>
  <text style="stroke:none;fill:black;font-family:-apple-system,&quot;SF Pro Display&quot;,&quot;SF Pro Text&quot;,Helvetica,sans-serif;text-anchor:middle;" transform="matrix(1 0 0 1 2043.27 322)">Semibold</text>
  <text style="stroke:none;fill:black;font-family:-apple-system,&quot;SF Pro Display&quot;,&quot;SF Pro Text&quot;,Helvetica,sans-serif;text-anchor:middle;" transform="matrix(1 0 0 1 2339.98 322)">Bold</text>
  <text style="stroke:none;fill:black;font-family:-apple-system,&quot;SF Pro Display&quot;,&quot;SF Pro Text&quot;,Helvetica,sans-serif;text-anchor:middle;" transform="matrix(1 0 0 1 2636.69 322)">Heavy</text>
  <text style="stroke:none;fill:black;font-family:-apple-system,&quot;SF Pro Display&quot;,&quot;SF Pro Text&quot;,Helvetica,sans-serif;text-anchor:middle;" transform="matrix(1 0 0 1 2933.4 322)">Black</text>
  <line id="" style="fill:none;stroke:black;opacity:1;stroke-width:0.5;" x1="263" x2="3036" y1="1903" y2="1903"/>
  <g id="" transform="matrix(1 0 0 1 263 1933)">
   <path d="M9.24805 0.830078C13.5547 0.830078 17.1387-2.74414 17.1387-7.05078C17.1387-11.3574 13.5449-14.9316 9.23828-14.9316C4.94141-14.9316 1.36719-11.3574 1.36719-7.05078C1.36719-2.74414 4.95117 0.830078 9.24805 0.830078ZM9.24805-0.654297C5.70312-0.654297 2.87109-3.49609 2.87109-7.05078C2.87109-10.6055 5.69336-13.4473 9.23828-13.4473C12.793-13.4473 15.6348-10.6055 15.6445-7.05078C15.6543-3.49609 12.8027-0.654297 9.24805-0.654297ZM6.39648-6.31836L8.50586-6.31836L8.50586-4.19922C8.50586-3.75977 8.79883-3.45703 9.22852-3.45703C9.67773-3.45703 9.9707-3.75977 9.9707-4.19922L9.9707-6.31836L12.0996-6.31836C12.5391-6.31836 12.8418-6.61133 12.8418-7.04102C12.8418-7.48047 12.5391-7.7832 12.0996-7.7832L9.9707-7.7832L9.9707-9.89258C9.9707-10.3418 9.67773-10.6445 9.22852-10.6445C8.79883-10.6445 8.50586-10.3418 8.50586-9.89258L8.50586-7.7832L6.39648-7.7832C5.94727-7.7832 5.64453-7.48047 5.64453-7.04102C5.64453-6.61133 5.94727-6.31836 6.39648-6.31836Z"/>
  </g>
  <g id="" transform="matrix(1 0 0 1 281.506 1933)">
   <path d="M11.709 2.91016C17.1582 2.91016 21.6699-1.61133 21.6699-7.05078C21.6699-12.5 17.1484-17.0117 11.6992-17.0117C6.25977-17.0117 1.74805-12.5 1.74805-7.05078C1.74805-1.61133 6.26953 2.91016 11.709 2.91016ZM11.709 1.25C7.09961 1.25 3.41797-2.44141 3.41797-7.05078C3.41797-11.6602 7.08984-15.3516 11.6992-15.3516C16.3086-15.3516 20-11.6602 20.0098-7.05078C20.0195-2.44141 16.3184 1.25 11.709 1.25ZM7.98828-6.23047L10.8789-6.23047L10.8789-3.32031C10.8789-2.83203 11.2109-2.5 11.6895-2.5C12.1777-2.5 12.5195-2.83203 12.5195-3.32031L12.5195-6.23047L15.4297-6.23047C15.918-6.23047 16.25-6.5625 16.25-7.04102C16.25-7.5293 15.918-7.87109 15.4297-7.87109L12.5195-7.87109L12.5195-10.7617C12.5195-11.2695 12.1777-11.6016 11.6895-11.6016C11.2109-11.6016 10.8789-11.2598 10.8789-10.7617L10.8789-7.87109L7.98828-7.87109C7.48047-7.87109 7.14844-7.5293 7.14844-7.04102C7.14844-6.5625 7.49023-6.23047 7.98828-6.23047Z"/>
  </g>
  <g id="" transform="matrix(1 0 0 1 304.924 1933)">
   <path d="M14.9707 5.66406C21.9336 5.66406 27.6953-0.0976562 27.6953-7.05078C27.6953-14.0137 21.9238-19.7754 14.9609-19.7754C8.00781-19.7754 2.25586-14.0137 2.25586-7.05078C2.25586-0.0976562 8.01758 5.66406 14.9707 5.66406ZM14.9707 3.84766C8.93555 3.84766 4.08203-1.01562 4.08203-7.05078C4.08203-13.0957 8.92578-17.9492 14.9609-17.9492C21.0059-17.9492 25.8594-13.0957 25.8691-7.05078C25.8789-1.01562 21.0156 3.84766 14.9707 3.84766ZM10.0586-6.14258L14.0625-6.14258L14.0625-2.12891C14.0625-1.5918 14.4336-1.2207 14.9512-1.2207C15.4883-1.2207 15.8594-1.5918 15.8594-2.12891L15.8594-6.14258L19.8828-6.14258C20.4102-6.14258 20.791-6.51367 20.791-7.03125C20.791-7.56836 20.4199-7.94922 19.8828-7.94922L15.8594-7.94922L15.8594-11.9531C15.8594-12.5098 15.4883-12.8809 14.9512-12.8809C14.4336-12.8809 14.0625-12.5 14.0625-11.9531L14.0625-7.94922L10.0586-7.94922C9.50195-7.94922 9.13086-7.56836 9.13086-7.03125C9.13086-6.51367 9.51172-6.14258 10.0586-6.14258Z"/>
  </g>
  <text style="stroke:none;fill:black;font-family:-apple-system,&quot;SF Pro Display&quot;,&quot;SF Pro Text&quot;,Helvetica,sans-serif;font-weight:bold;" transform="matrix(1 0 0 1 263 1953)">Design Variations</text>
  <text style="stroke:none;fill:black;font-family:-apple-system,&quot;SF Pro Display&quot;,&quot;SF Pro Text&quot;,Helvetica,sans-serif;" transform="matrix(1 0 0 1 263 1971)">Symbols are supported in up to nine weights and three scales.</text>
  <text style="stroke:none;fill:black;font-family:-apple-system,&quot;SF Pro Display&quot;,&quot;SF Pro Text&quot;,Helvetica,sans-serif;" transform="matrix(1 0 0 1 263 1989)">For optimal layout with text and other symbols, vertically align</text>
  <text style="stroke:none;fill:black;font-family:-apple-system,&quot;SF Pro Display&quot;,&quot;SF Pro Text&quot;,Helvetica,sans-serif;" transform="matrix(1 0 0 1 263 2007)">symbols with the adjacent text.</text>
  <line id="" style="fill:none;stroke:#00AEEF;stroke-width:0.5;opacity:1.0;" x1="776" x2="776" y1="1919" y2="1933"/>
  <g id="" transform="matrix(1 0 0 1 776 1933)">
   <path d="M3.31055 0.126953C3.82812 0.126953 4.08203-0.0683594 4.26758-0.605469L5.52734-4.0625L11.2891-4.0625L12.5488-0.605469C12.7344-0.0683594 12.9883 0.126953 13.4961 0.126953C14.0137 0.126953 14.3457-0.185547 14.3457-0.673828C14.3457-0.839844 14.3164-0.986328 14.2383-1.20117L9.6582-13.3887C9.43359-13.9941 9.0332-14.2871 8.4082-14.2871C7.80273-14.2871 7.39258-13.9941 7.17773-13.3984L2.59766-1.19141C2.51953-0.976562 2.49023-0.830078 2.49023-0.664062C2.49023-0.175781 2.80273 0.126953 3.31055 0.126953ZM6.00586-5.53711L8.37891-12.1094L8.42773-12.1094L10.8008-5.53711Z"/>
  </g>
  <line id="" style="fill:none;stroke:#00AEEF;stroke-width:0.5;opacity:1.0;" x1="792.836" x2="792.836" y1="1919" y2="1933"/>
  <text style="stroke:none;fill:black;font-family:-apple-system,&quot;SF Pro Display&quot;,&quot;SF Pro Text&quot;,Helvetica,sans-serif;font-weight:bold;" transform="matrix(1 0 0 1 776 1953)">Margins</text>
  <text style="stroke:none;fill:black;font-family:-apple-system,&quot;SF Pro Display&quot;,&quot;SF Pro Text&quot;,Helvetica,sans-serif;" transform="matrix(1 0 0 1 776 1971)">Leading and trailing margins on the left and right side of each symbol</text>
  <text style="stroke:none;fill:black;font-family:-apple-system,&quot;SF Pro Display&quot;,&quot;SF Pro Text&quot;,Helvetica,sans-serif;" transform="matrix(1 0 0 1 776 1989)">can be adjusted by modifying the x-location of the margin guidelines.</text>
  <text style="stroke:none;fill:black;font-family:-apple-system,&quot;SF Pro Display&quot;,&quot;SF Pro Text&quot;,Helvetica,sans-serif;" transform="matrix(1 0 0 1 776 2007)">Modifications are automatically applied proportionally to all</text>
  <text style="stroke:none;fill:black;font-family:-apple-system,&quot;SF Pro Display&quot;,&quot;SF Pro Text&quot;,Helvetica,sans-serif;" transform="matrix(1 0 0 1 776 2025)">scales and weights.</text>
  <g id="" transform="matrix(1 0 0 1 1289 1933)">
   <path d="M2.8418 1.86523L4.54102 3.57422C5.40039 4.44336 6.38672 4.38477 7.31445 3.35938L17.4902-7.85156C17.7539-7.76367 18.0273-7.7832 18.3398-7.8418L19.4043-8.03711L20.0684-7.36328L20.0293-6.80664C19.9902-6.30859 20.1172-5.92773 20.6055-5.44922L21.3672-4.70703C21.8457-4.22852 22.4609-4.19922 22.9297-4.66797L25.8398-7.58789C26.3086-8.05664 26.2891-8.65234 25.8105-9.13086L25.0391-9.89258C24.5605-10.3711 24.1895-10.5273 23.7109-10.4883L23.1348-10.4395L22.4902-11.0742L22.7344-12.1973C22.8613-12.7637 22.7051-13.2031 22.1191-13.7891L19.9219-15.9766C16.582-19.2969 12.1484-19.2188 9.25781-16.3281C8.83789-15.918 8.80859-15.3418 9.04297-14.9512C9.27734-14.5898 9.73633-14.3555 10.3809-14.5215C11.8457-14.8633 13.3691-14.9219 14.7949-13.9844L14.209-12.5293C14.0137-12.0508 13.9844-11.6504 14.1113-11.2891L3.04688-0.898438C2.06055 0.0195312 1.98242 0.996094 2.8418 1.86523ZM10.752-15.957C13.1836-17.7344 16.4746-17.4316 18.7012-15.2051L21.1328-12.793C21.3672-12.5586 21.4062-12.373 21.3379-12.0312L21.0156-10.5469L22.5195-9.0625L23.5059-9.12109C23.7598-9.13086 23.8379-9.11133 24.0332-8.91602L24.6094-8.33984L22.168-5.89844L21.5918-6.47461C21.3965-6.66992 21.3672-6.74805 21.377-7.01172L21.4453-7.98828L19.9512-9.47266L18.4277-9.21875C18.1055-9.15039 17.959-9.17969 17.7148-9.41406L15.7129-11.416C15.459-11.6504 15.4297-11.8164 15.5859-12.1875L16.4648-14.2773C14.9023-15.7324 12.8711-16.3574 10.8398-15.7617C10.6836-15.7227 10.625-15.8496 10.752-15.957ZM5.27344 2.30469L4.10156 1.14258C3.63281 0.683594 3.74023 0.341797 4.14062-0.0195312L14.9512-10.1953L16.416-8.71094L6.42578 2.27539C6.07422 2.67578 5.74219 2.77344 5.27344 2.30469Z"/>
  </g>
  <text style="stroke:none;fill:black;font-family:-apple-system,&quot;SF Pro Display&quot;,&quot;SF Pro Text&quot;,Helvetica,sans-serif;font-weight:bold;" transform="matrix(1 0 0 1 1289 1953)">Exporting</text>
  <text style="stroke:none;fill:black;font-family:-apple-system,&quot;SF Pro Display&quot;,&quot;SF Pro Text&quot;,Helvetica,sans-serif;" transform="matrix(1 0 0 1 1289 1971)">Symbols should be outlined when exporting to ensure the</text>
  <text style="stroke:none;fill:black;font-family:-apple-system,&quot;SF Pro Display&quot;,&quot;SF Pro Text&quot;,Helvetica,sans-serif;" transform="matrix(1 0 0 1 1289 1989)">design is preserved when submitting to Xcode.</text>
  <text id="template-version" style="stroke:none;fill:black;font-family:-apple-system,&quot;SF Pro Display&quot;,&quot;SF Pro Text&quot;,Helvetica,sans-serif;text-anchor:end;" transform="matrix(1 0 0 1 3036 1933)">Template v.2.0</text>
  <text style="stroke:none;fill:black;font-family:-apple-system,&quot;SF Pro Display&quot;,&quot;SF Pro Text&quot;,Helvetica,sans-serif;text-anchor:end;" transform="matrix(1 0 0 1 3036 1951)">Requires Xcode 12 or greater</text>
  <text style="stroke:none;fill:black;font-family:-apple-system,&quot;SF Pro Display&quot;,&quot;SF Pro Text&quot;,Helvetica,sans-serif;" transform="matrix(1 0 0 1 263 726)">Small</text>
  <text style="stroke:none;fill:black;font-family:-apple-system,&quot;SF Pro Display&quot;,&quot;SF Pro Text&quot;,Helvetica,sans-serif;" transform="matrix(1 0 0 1 263 1156)">Medium</text>
  <text style="stroke:none;fill:black;font-family:-apple-system,&quot;SF Pro Display&quot;,&quot;SF Pro Text&quot;,Helvetica,sans-serif;" transform="matrix(1 0 0 1 263 1586)">Large</text>
 </g>
 <g id="Guides">
  <g id="H-reference" style="fill:#27AAE1;stroke:none;" transform="matrix(1 0 0 1 339 696)">
   <path d="M0.976562 0L3.66211 0L12.9883-24.4629L45.752-24.4629L55.127 0L57.7637 0L30.6152-70.459L28.125-70.459ZM29.3457-67.1387L29.4434-67.1387L44.873-26.709L13.8672-26.709Z"/>
  </g>
  <line id="Baseline-S" style="fill:none;stroke:#27AAE1;opacity:1;stroke-width:0.5;" x1="263" x2="3036" y1="696" y2="696"/>
  <line id="Capline-S" style="fill:none;stroke:#27AAE1;opacity:1;stroke-width:0.5;" x1="263" x2="3036" y1="625.541" y2="625.541"/>
  <g id="H-reference" style="fill:#27AAE1;stroke:none;" transform="matrix(1 0 0 1 339 1126)">
   <path d="M0.976562 0L3.66211 0L12.9883-24.4629L45.752-24.4629L55.127 0L57.7637 0L30.6152-70.459L28.125-70.459ZM29.3457-67.1387L29.4434-67.1387L44.873-26.709L13.8672-26.709Z"/>
  </g>
  <line id="Baseline-M" style="fill:none;stroke:#27AAE1;opacity:1;stroke-width:0.5;" x1="263" x2="3036" y1="1126" y2="1126"/>
  <line id="Capline-M" style="fill:none;stroke:#27AAE1;opacity:1;stroke-width:0.5;" x1="263" x2="3036" y1="1055.54" y2="1055.54"/>
  <g id="H-reference" style="fill:#27AAE1;stroke:none;" transform="matrix(1 0 0 1 339 1556)">
   <path d="M0.976562 0L3.66211 0L12.9883-24.4629L45.752-24.4629L55.127 0L57.7637 0L30.6152-70.459L28.125-70.459ZM29.3457-67.1387L29.4434-67.1387L44.873-26.709L13.8672-26.709Z"/>
  </g>
  <line id="Baseline-L" style="fill:none;stroke:#27AAE1;opacity:1;stroke-width:0.5;" x1="263" x2="3036" y1="1556" y2="1556"/>
  <line id="Capline-L" style="fill:none;stroke:#27AAE1;opacity:1;stroke-width:0.5;" x1="263" x2="3036" y1="1485.54" y2="1485.54"/>
  <line id="left-margin" x1="1401.7066461049908" x2="1401.7066461049908" y1="1030.79" y2="1150.12" style="fill:none;stroke:#00AEEF;stroke-width:0.5;opacity:1.0;"/>
  <line id="right-margin" x1="1500.553353895009" x2="1500.553353895009" y1="1030.79" y2="1150.12" style="fill:none;stroke:#00AEEF;stroke-width:0.5;opacity:1.0;"/>
 </g>
 <g id="Symbols">
  <g id="Black-L" transform="matrix(1.0,0.0,0.0,1.0,2852.941376250562,1439.031395781812)">  <path stroke-linejoin="miter" xmlns:xlink="http://www.w3.org/1999/xlink" stroke-linecap="butt" fill-opacity="1" version="1.1" stroke-width="1px" fill="#000000" stroke-dasharray="none" fill-rule="nonzero" stroke="none" stroke-miterlimit="4" stroke-opacity="1" d="M156.88,78.733C161.064,72.315,163.477,64.639,163.477,56.399C163.477,33.706,145.097,15.326,122.404,15.326C114.164,15.326,106.514,17.739,100.071,21.923C98.043,23.258,97.889,26.082,99.609,27.802L151.001,79.195C152.721,80.915,155.571,80.786,156.88,78.733ZM144.738,90.875C146.766,89.54,146.92,86.716,145.2,84.996L93.807,33.604C92.087,31.884,89.238,32.012,87.928,34.066C83.744,40.483,81.331,48.159,81.331,56.399C81.331,79.092,99.711,97.472,122.404,97.472C130.644,97.472,138.294,95.059,144.738,90.875ZM76.582,109.794L3.934,109.794C1.495,109.794,-0.404,111.899,0.083,114.287C4.037,132.846,20.517,146.76,40.258,146.76C59.999,146.76,76.479,132.846,80.433,114.287C80.946,111.899,79.021,109.794,76.582,109.794ZM76.582,101.58C79.021,101.58,80.92,99.475,80.433,97.087C76.479,78.527,59.999,64.614,40.258,64.614C20.517,64.614,4.037,78.527,0.083,97.087C-0.43,99.475,1.495,101.58,3.934,101.58L76.582,101.58ZM76.582,101.58"/>
</g>
  <g id="Heavy-L" transform="matrix(1.0,0.0,0.0,1.0,2556.231376250562,1439.031395781812)">  <path version="1.1" fill-rule="nonzero" xmlns:xlink="http://www.w3.org/1999/xlink" stroke-linejoin="miter" fill="#000000" fill-opacity="1" stroke-miterlimit="4" stroke-opacity="1" stroke-linecap="butt" stroke-width="1px" stroke="none" stroke-dasharray="none" d="M156.88,78.733C161.064,72.315,163.477,64.639,163.477,56.399C163.477,33.706,145.097,15.326,122.404,15.326C114.164,15.326,106.514,17.739,100.071,21.923C98.043,23.258,97.889,26.082,99.609,27.802L151.001,79.195C152.721,80.915,155.571,80.786,156.88,78.733ZM144.738,90.875C146.766,89.54,146.92,86.716,145.2,84.996L93.807,33.604C92.087,31.884,89.238,32.012,87.928,34.066C83.744,40.483,81.331,48.159,81.331,56.399C81.331,79.092,99.711,97.472,122.404,97.472C130.644,97.472,138.294,95.059,144.738,90.875ZM76.582,109.794L3.934,109.794C1.495,109.794,-0.404,111.899,0.083,114.287C4.037,132.846,20.517,146.76,40.258,146.76C59.999,146.76,76.479,132.846,80.433,114.287C80.946,111.899,79.021,109.794,76.582,109.794ZM76.582,101.58C79.021,101.58,80.92,99.475,80.433,97.087C76.479,78.527,59.999,64.614,40.258,64.614C20.517,64.614,4.037,78.527,0.083,97.087C-0.43,99.475,1.495,101.58,3.934,101.58L76.582,101.58ZM76.582,101.58"/>
</g>
  <g id="Bold-L" transform="matrix(1.0,0.0,0.0,1.0,2259.521376250562,1439.031395781812)">  <path xmlns:xlink="http://www.w3.org/1999/xlink" stroke-linecap="butt" stroke-opacity="1" stroke="none" stroke-dasharray="none" stroke-linejoin="miter" fill-opacity="1" stroke-miterlimit="4" fill="#000000" stroke-width="1px" fill-rule="nonzero" version="1.1" d="M156.88,78.733C161.064,72.315,163.477,64.639,163.477,56.399C163.477,33.706,145.097,15.326,122.404,15.326C114.164,15.326,106.514,17.739,100.071,21.923C98.043,23.258,97.889,26.082,99.609,27.802L151.001,79.195C152.721,80.915,155.571,80.786,156.88,78.733ZM144.738,90.875C146.766,89.54,146.92,86.716,145.2,84.996L93.807,33.604C92.087,31.884,89.238,32.012,87.928,34.066C83.744,40.483,81.331,48.159,81.331,56.399C81.331,79.092,99.711,97.472,122.404,97.472C130.644,97.472,138.294,95.059,144.738,90.875ZM76.582,109.794L3.934,109.794C1.495,109.794,-0.404,111.899,0.083,114.287C4.037,132.846,20.517,146.76,40.258,146.76C59.999,146.76,76.479,132.846,80.433,114.287C80.946,111.899,79.021,109.794,76.582,109.794ZM76.582,101.58C79.021,101.58,80.92,99.475,80.433,97.087C76.479,78.527,59.999,64.614,40.258,64.614C20.517,64.614,4.037,78.527,0.083,97.087C-0.43,99.475,1.495,101.58,3.934,101.58L76.582,101.58ZM76.582,101.58"/>
</g>
  <g id="Semibold-L" transform="matrix(1.0,0.0,0.0,1.0,1962.811376250562,1439.031395781812)">  <path fill-rule="nonzero" version="1.1" stroke-linejoin="miter" fill="#000000" stroke-width="1px" stroke="none" stroke-opacity="1" stroke-dasharray="none" stroke-miterlimit="4" fill-opacity="1" xmlns:xlink="http://www.w3.org/1999/xlink" stroke-linecap="butt" d="M156.88,78.733C161.064,72.315,163.477,64.639,163.477,56.399C163.477,33.706,145.097,15.326,122.404,15.326C114.164,15.326,106.514,17.739,100.071,21.923C98.043,23.258,97.889,26.082,99.609,27.802L151.001,79.195C152.721,80.915,155.571,80.786,156.88,78.733ZM144.738,90.875C146.766,89.54,146.92,86.716,145.2,84.996L93.807,33.604C92.087,31.884,89.238,32.012,87.928,34.066C83.744,40.483,81.331,48.159,81.331,56.399C81.331,79.092,99.711,97.472,122.404,97.472C130.644,97.472,138.294,95.059,144.738,90.875ZM76.582,109.794L3.934,109.794C1.495,109.794,-0.404,111.899,0.083,114.287C4.037,132.846,20.517,146.76,40.258,146.76C59.999,146.76,76.479,132.846,80.433,114.287C80.946,111.899,79.021,109.794,76.582,109.794ZM76.582,101.58C79.021,101.58,80.92,99.475,80.433,97.087C76.479,78.527,59.999,64.614,40.258,64.614C20.517,64.614,4.037,78.527,0.083,97.087C-0.43,99.475,1.495,101.58,3.934,101.58L76.582,101.58ZM76.582,101.58"/>
</g>
  <g id="Medium-L" transform="matrix(1.0,0.0,0.0,1.0,1666.101376250562,1439.031395781812)">  <path stroke-linejoin="miter" stroke-dasharray="none" stroke-miterlimit="4" stroke-opacity="1" stroke-width="1px" xmlns:xlink="http://www.w3.org/1999/xlink" stroke="none" fill-rule="nonzero" fill-opacity="1" stroke-linecap="butt" fill="#000000" version="1.1" d="M156.88,78.733C161.064,72.315,163.477,64.639,163.477,56.399C163.477,33.706,145.097,15.326,122.404,15.326C114.164,15.326,106.514,17.739,100.071,21.923C98.043,23.258,97.889,26.082,99.609,27.802L151.001,79.195C152.721,80.915,155.571,80.786,156.88,78.733ZM144.738,90.875C146.766,89.54,146.92,86.716,145.2,84.996L93.807,33.604C92.087,31.884,89.238,32.012,87.928,34.066C83.744,40.483,81.331,48.159,81.331,56.399C81.331,79.092,99.711,97.472,122.404,97.472C130.644,97.472,138.294,95.059,144.738,90.875ZM76.582,109.794L3.934,109.794C1.495,109.794,-0.404,111.899,0.083,114.287C4.037,132.846,20.517,146.76,40.258,146.76C59.999,146.76,76.479,132.846,80.433,114.287C80.946,111.899,79.021,109.794,76.582,109.794ZM76.582,101.58C79.021,101.58,80.92,99.475,80.433,97.087C76.479,78.527,59.999,64.614,40.258,64.614C20.517,64.614,4.037,78.527,0.083,97.087C-0.43,99.475,1.495,101.58,3.934,101.58L76.582,101.58ZM76.582,101.58"/>
</g>
  <g id="Regular-L" transform="matrix(1.0,0.0,0.0,1.0,1369.391376250562,1439.031395781812)">  <path stroke-dasharray="none" stroke-width="1px" stroke-miterlimit="4" stroke-linejoin="miter" stroke-opacity="1" fill="#000000" stroke-linecap="butt" xmlns:xlink="http://www.w3.org/1999/xlink" fill-rule="nonzero" fill-opacity="1" version="1.1" stroke="none" d="M156.88,78.733C161.064,72.315,163.477,64.639,163.477,56.399C163.477,33.706,145.097,15.326,122.404,15.326C114.164,15.326,106.514,17.739,100.071,21.923C98.043,23.258,97.889,26.082,99.609,27.802L151.001,79.195C152.721,80.915,155.571,80.786,156.88,78.733ZM144.738,90.875C146.766,89.54,146.92,86.716,145.2,84.996L93.807,33.604C92.087,31.884,89.238,32.012,87.928,34.066C83.744,40.483,81.331,48.159,81.331,56.399C81.331,79.092,99.711,97.472,122.404,97.472C130.644,97.472,138.294,95.059,144.738,90.875ZM76.582,109.794L3.934,109.794C1.495,109.794,-0.404,111.899,0.083,114.287C4.037,132.846,20.517,146.76,40.258,146.76C59.999,146.76,76.479,132.846,80.433,114.287C80.946,111.899,79.021,109.794,76.582,109.794ZM76.582,101.58C79.021,101.58,80.92,99.475,80.433,97.087C76.479,78.527,59.999,64.614,40.258,64.614C20.517,64.614,4.037,78.527,0.083,97.087C-0.43,99.475,1.495,101.58,3.934,101.58L76.582,101.58ZM76.582,101.58"/>
</g>
  <g id="Light-L" transform="matrix(1.0,0.0,0.0,1.0,1072.6813762505622,1439.031395781812)">  <path fill="#000000" fill-opacity="1" stroke-miterlimit="4" fill-rule="nonzero" version="1.1" stroke-linejoin="miter" stroke-linecap="butt" stroke-width="1px" stroke-opacity="1" stroke-dasharray="none" stroke="none" xmlns:xlink="http://www.w3.org/1999/xlink" d="M156.88,78.733C161.064,72.315,163.477,64.639,163.477,56.399C163.477,33.706,145.097,15.326,122.404,15.326C114.164,15.326,106.514,17.739,100.071,21.923C98.043,23.258,97.889,26.082,99.609,27.802L151.001,79.195C152.721,80.915,155.571,80.786,156.88,78.733ZM144.738,90.875C146.766,89.54,146.92,86.716,145.2,84.996L93.807,33.604C92.087,31.884,89.238,32.012,87.928,34.066C83.744,40.483,81.331,48.159,81.331,56.399C81.331,79.092,99.711,97.472,122.404,97.472C130.644,97.472,138.294,95.059,144.738,90.875ZM76.582,109.794L3.934,109.794C1.495,109.794,-0.404,111.899,0.083,114.287C4.037,132.846,20.517,146.76,40.258,146.76C59.999,146.76,76.479,132.846,80.433,114.287C80.946,111.899,79.021,109.794,76.582,109.794ZM76.582,101.58C79.021,101.58,80.92,99.475,80.433,97.087C76.479,78.527,59.999,64.614,40.258,64.614C20.517,64.614,4.037,78.527,0.083,97.087C-0.43,99.475,1.495,101.58,3.934,101.58L76.582,101.58ZM76.582,101.58"/>
</g>
  <g id="Thin-L" transform="matrix(1.0,0.0,0.0,1.0,775.9713762505621,1439.031395781812)">  <path stroke="none" xmlns:xlink="http://www.w3.org/1999/xlink" stroke-linecap="butt" fill="#000000" stroke-opacity="1" version="1.1" fill-opacity="1" stroke-width="1px" stroke-dasharray="none" stroke-miterlimit="4" stroke-linejoin="miter" fill-rule="nonzero" d="M156.88,78.733C161.064,72.315,163.477,64.639,163.477,56.399C163.477,33.706,145.097,15.326,122.404,15.326C114.164,15.326,106.514,17.739,100.071,21.923C98.043,23.258,97.889,26.082,99.609,27.802L151.001,79.195C152.721,80.915,155.571,80.786,156.88,78.733ZM144.738,90.875C146.766,89.54,146.92,86.716,145.2,84.996L93.807,33.604C92.087,31.884,89.238,32.012,87.928,34.066C83.744,40.483,81.331,48.159,81.331,56.399C81.331,79.092,99.711,97.472,122.404,97.472C130.644,97.472,138.294,95.059,144.738,90.875ZM76.582,109.794L3.934,109.794C1.495,109.794,-0.404,111.899,0.083,114.287C4.037,132.846,20.517,146.76,40.258,146.76C59.999,146.76,76.479,132.846,80.433,114.287C80.946,111.899,79.021,109.794,76.582,109.794ZM76.582,101.58C79.021,101.58,80.92,99.475,80.433,97.087C76.479,78.527,59.999,64.614,40.258,64.614C20.517,64.614,4.037,78.527,0.083,97.087C-0.43,99.475,1.495,101.58,3.934,101.58L76.582,101.58ZM76.582,101.58"/>
</g>
  <g id="Ultralight-L" transform="matrix(1.0,0.0,0.0,1.0,479.2613762505621,1439.031395781812)">  <path stroke-linejoin="miter" version="1.1" fill-rule="nonzero" stroke-opacity="1" stroke-miterlimit="4" stroke-dasharray="none" stroke-width="1px" stroke="none" fill-opacity="1" xmlns:xlink="http://www.w3.org/1999/xlink" fill="#000000" stroke-linecap="butt" d="M156.88,78.733C161.064,72.315,163.477,64.639,163.477,56.399C163.477,33.706,145.097,15.326,122.404,15.326C114.164,15.326,106.514,17.739,100.071,21.923C98.043,23.258,97.889,26.082,99.609,27.802L151.001,79.195C152.721,80.915,155.571,80.786,156.88,78.733ZM144.738,90.875C146.766,89.54,146.92,86.716,145.2,84.996L93.807,33.604C92.087,31.884,89.238,32.012,87.928,34.066C83.744,40.483,81.331,48.159,81.331,56.399C81.331,79.092,99.711,97.472,122.404,97.472C130.644,97.472,138.294,95.059,144.738,90.875ZM76.582,109.794L3.934,109.794C1.495,109.794,-0.404,111.899,0.083,114.287C4.037,132.846,20.517,146.76,40.258,146.76C59.999,146.76,76.479,132.846,80.433,114.287C80.946,111.899,79.021,109.794,76.582,109.794ZM76.582,101.58C79.021,101.58,80.92,99.475,80.433,97.087C76.479,78.527,59.999,64.614,40.258,64.614C20.517,64.614,4.037,78.527,0.083,97.087C-0.43,99.475,1.495,101.58,3.934,101.58L76.582,101.58ZM76.582,101.58"/>
</g>
  <g id="Black-M" transform="matrix(1.0,0.0,0.0,1.0,2871.3167257756295,1027.4067453068794)">  <path stroke-linejoin="miter" xmlns:xlink="http://www.w3.org/1999/xlink" stroke-linecap="butt" fill-opacity="1" version="1.1" stroke-width="1px" fill="#000000" stroke-dasharray="none" fill-rule="nonzero" stroke="none" stroke-miterlimit="4" stroke-opacity="1" d="M121.612,61.033C124.856,56.058,126.727,50.108,126.727,43.72C126.727,26.129,112.478,11.881,94.887,11.881C88.499,11.881,82.569,13.751,77.574,16.995C76.002,18.03,75.883,20.219,77.216,21.552L117.055,61.391C118.389,62.725,120.597,62.625,121.612,61.033ZM112.2,70.446C113.772,69.411,113.891,67.222,112.558,65.889L72.719,26.049C71.385,24.716,69.177,24.815,68.162,26.407C64.918,31.382,63.047,37.332,63.047,43.72C63.047,61.312,77.296,75.56,94.887,75.56C101.275,75.56,107.205,73.689,112.2,70.446ZM59.366,85.112L3.05,85.112C1.159,85.112,-0.313,86.744,0.065,88.594C3.129,102.982,15.905,113.767,31.208,113.767C46.511,113.767,59.286,102.982,62.351,88.594C62.749,86.744,61.256,85.112,59.366,85.112ZM59.366,78.744C61.256,78.744,62.729,77.112,62.351,75.261C59.286,60.874,46.511,50.088,31.208,50.088C15.905,50.088,3.129,60.874,0.065,75.261C-0.333,77.112,1.159,78.744,3.05,78.744L59.366,78.744ZM59.366,78.744"/>
</g>
  <g id="Heavy-M" transform="matrix(1.0,0.0,0.0,1.0,2574.6067257756295,1027.4067453068794)">  <path version="1.1" fill-rule="nonzero" xmlns:xlink="http://www.w3.org/1999/xlink" stroke-linejoin="miter" fill="#000000" fill-opacity="1" stroke-miterlimit="4" stroke-opacity="1" stroke-linecap="butt" stroke-width="1px" stroke="none" stroke-dasharray="none" d="M121.612,61.033C124.856,56.058,126.727,50.108,126.727,43.72C126.727,26.129,112.478,11.881,94.887,11.881C88.499,11.881,82.569,13.751,77.574,16.995C76.002,18.03,75.883,20.219,77.216,21.552L117.055,61.391C118.389,62.725,120.597,62.625,121.612,61.033ZM112.2,70.446C113.772,69.411,113.891,67.222,112.558,65.889L72.719,26.049C71.385,24.716,69.177,24.815,68.162,26.407C64.918,31.382,63.047,37.332,63.047,43.72C63.047,61.312,77.296,75.56,94.887,75.56C101.275,75.56,107.205,73.689,112.2,70.446ZM59.366,85.112L3.05,85.112C1.159,85.112,-0.313,86.744,0.065,88.594C3.129,102.982,15.905,113.767,31.208,113.767C46.511,113.767,59.286,102.982,62.351,88.594C62.749,86.744,61.256,85.112,59.366,85.112ZM59.366,78.744C61.256,78.744,62.729,77.112,62.351,75.261C59.286,60.874,46.511,50.088,31.208,50.088C15.905,50.088,3.129,60.874,0.065,75.261C-0.333,77.112,1.159,78.744,3.05,78.744L59.366,78.744ZM59.366,78.744"/>
</g>
  <g id="Bold-M" transform="matrix(1.0,0.0,0.0,1.0,2277.8967257756294,1027.4067453068794)">  <path xmlns:xlink="http://www.w3.org/1999/xlink" stroke-linecap="butt" stroke-opacity="1" stroke="none" stroke-dasharray="none" stroke-linejoin="miter" fill-opacity="1" stroke-miterlimit="4" fill="#000000" stroke-width="1px" fill-rule="nonzero" version="1.1" d="M121.612,61.033C124.856,56.058,126.727,50.108,126.727,43.72C126.727,26.129,112.478,11.881,94.887,11.881C88.499,11.881,82.569,13.751,77.574,16.995C76.002,18.03,75.883,20.219,77.216,21.552L117.055,61.391C118.389,62.725,120.597,62.625,121.612,61.033ZM112.2,70.446C113.772,69.411,113.891,67.222,112.558,65.889L72.719,26.049C71.385,24.716,69.177,24.815,68.162,26.407C64.918,31.382,63.047,37.332,63.047,43.72C63.047,61.312,77.296,75.56,94.887,75.56C101.275,75.56,107.205,73.689,112.2,70.446ZM59.366,85.112L3.05,85.112C1.159,85.112,-0.313,86.744,0.065,88.594C3.129,102.982,15.905,113.767,31.208,113.767C46.511,113.767,59.286,102.982,62.351,88.594C62.749,86.744,61.256,85.112,59.366,85.112ZM59.366,78.744C61.256,78.744,62.729,77.112,62.351,75.261C59.286,60.874,46.511,50.088,31.208,50.088C15.905,50.088,3.129,60.874,0.065,75.261C-0.333,77.112,1.159,78.744,3.05,78.744L59.366,78.744ZM59.366,78.744"/>
</g>
  <g id="Semibold-M" transform="matrix(1.0,0.0,0.0,1.0,1981.1867257756294,1027.4067453068794)">  <path fill-rule="nonzero" version="1.1" stroke-linejoin="miter" fill="#000000" stroke-width="1px" stroke="none" stroke-opacity="1" stroke-dasharray="none" stroke-miterlimit="4" fill-opacity="1" xmlns:xlink="http://www.w3.org/1999/xlink" stroke-linecap="butt" d="M121.612,61.033C124.856,56.058,126.727,50.108,126.727,43.72C126.727,26.129,112.478,11.881,94.887,11.881C88.499,11.881,82.569,13.751,77.574,16.995C76.002,18.03,75.883,20.219,77.216,21.552L117.055,61.391C118.389,62.725,120.597,62.625,121.612,61.033ZM112.2,70.446C113.772,69.411,113.891,67.222,112.558,65.889L72.719,26.049C71.385,24.716,69.177,24.815,68.162,26.407C64.918,31.382,63.047,37.332,63.047,43.72C63.047,61.312,77.296,75.56,94.887,75.56C101.275,75.56,107.205,73.689,112.2,70.446ZM59.366,85.112L3.05,85.112C1.159,85.112,-0.313,86.744,0.065,88.594C3.129,102.982,15.905,113.767,31.208,113.767C46.511,113.767,59.286,102.982,62.351,88.594C62.749,86.744,61.256,85.112,59.366,85.112ZM59.366,78.744C61.256,78.744,62.729,77.112,62.351,75.261C59.286,60.874,46.511,50.088,31.208,50.088C15.905,50.088,3.129,60.874,0.065,75.261C-0.333,77.112,1.159,78.744,3.05,78.744L59.366,78.744ZM59.366,78.744"/>
</g>
  <g id="Medium-M" transform="matrix(1.0,0.0,0.0,1.0,1684.4767257756293,1027.4067453068794)">  <path stroke-linejoin="miter" stroke-dasharray="none" stroke-miterlimit="4" stroke-opacity="1" stroke-width="1px" xmlns:xlink="http://www.w3.org/1999/xlink" stroke="none" fill-rule="nonzero" fill-opacity="1" stroke-linecap="butt" fill="#000000" version="1.1" d="M121.612,61.033C124.856,56.058,126.727,50.108,126.727,43.72C126.727,26.129,112.478,11.881,94.887,11.881C88.499,11.881,82.569,13.751,77.574,16.995C76.002,18.03,75.883,20.219,77.216,21.552L117.055,61.391C118.389,62.725,120.597,62.625,121.612,61.033ZM112.2,70.446C113.772,69.411,113.891,67.222,112.558,65.889L72.719,26.049C71.385,24.716,69.177,24.815,68.162,26.407C64.918,31.382,63.047,37.332,63.047,43.72C63.047,61.312,77.296,75.56,94.887,75.56C101.275,75.56,107.205,73.689,112.2,70.446ZM59.366,85.112L3.05,85.112C1.159,85.112,-0.313,86.744,0.065,88.594C3.129,102.982,15.905,113.767,31.208,113.767C46.511,113.767,59.286,102.982,62.351,88.594C62.749,86.744,61.256,85.112,59.366,85.112ZM59.366,78.744C61.256,78.744,62.729,77.112,62.351,75.261C59.286,60.874,46.511,50.088,31.208,50.088C15.905,50.088,3.129,60.874,0.065,75.261C-0.333,77.112,1.159,78.744,3.05,78.744L59.366,78.744ZM59.366,78.744"/>
</g>
  <g id="Regular-M" transform="matrix(1.0,0.0,0.0,1.0,1387.7667257756293,1027.4067453068794)">  <path stroke-dasharray="none" stroke-width="1px" stroke-miterlimit="4" stroke-linejoin="miter" stroke-opacity="1" fill="#000000" stroke-linecap="butt" xmlns:xlink="http://www.w3.org/1999/xlink" fill-rule="nonzero" fill-opacity="1" version="1.1" stroke="none" d="M121.612,61.033C124.856,56.058,126.727,50.108,126.727,43.72C126.727,26.129,112.478,11.881,94.887,11.881C88.499,11.881,82.569,13.751,77.574,16.995C76.002,18.03,75.883,20.219,77.216,21.552L117.055,61.391C118.389,62.725,120.597,62.625,121.612,61.033ZM112.2,70.446C113.772,69.411,113.891,67.222,112.558,65.889L72.719,26.049C71.385,24.716,69.177,24.815,68.162,26.407C64.918,31.382,63.047,37.332,63.047,43.72C63.047,61.312,77.296,75.56,94.887,75.56C101.275,75.56,107.205,73.689,112.2,70.446ZM59.366,85.112L3.05,85.112C1.159,85.112,-0.313,86.744,0.065,88.594C3.129,102.982,15.905,113.767,31.208,113.767C46.511,113.767,59.286,102.982,62.351,88.594C62.749,86.744,61.256,85.112,59.366,85.112ZM59.366,78.744C61.256,78.744,62.729,77.112,62.351,75.261C59.286,60.874,46.511,50.088,31.208,50.088C15.905,50.088,3.129,60.874,0.065,75.261C-0.333,77.112,1.159,78.744,3.05,78.744L59.366,78.744ZM59.366,78.744"/>
</g>
  <g id="Light-M" transform="matrix(1.0,0.0,0.0,1.0,1091.0567257756295,1027.4067453068794)">  <path fill="#000000" fill-opacity="1" stroke-miterlimit="4" fill-rule="nonzero" version="1.1" stroke-linejoin="miter" stroke-linecap="butt" stroke-width="1px" stroke-opacity="1" stroke-dasharray="none" stroke="none" xmlns:xlink="http://www.w3.org/1999/xlink" d="M121.612,61.033C124.856,56.058,126.727,50.108,126.727,43.72C126.727,26.129,112.478,11.881,94.887,11.881C88.499,11.881,82.569,13.751,77.574,16.995C76.002,18.03,75.883,20.219,77.216,21.552L117.055,61.391C118.389,62.725,120.597,62.625,121.612,61.033ZM112.2,70.446C113.772,69.411,113.891,67.222,112.558,65.889L72.719,26.049C71.385,24.716,69.177,24.815,68.162,26.407C64.918,31.382,63.047,37.332,63.047,43.72C63.047,61.312,77.296,75.56,94.887,75.56C101.275,75.56,107.205,73.689,112.2,70.446ZM59.366,85.112L3.05,85.112C1.159,85.112,-0.313,86.744,0.065,88.594C3.129,102.982,15.905,113.767,31.208,113.767C46.511,113.767,59.286,102.982,62.351,88.594C62.749,86.744,61.256,85.112,59.366,85.112ZM59.366,78.744C61.256,78.744,62.729,77.112,62.351,75.261C59.286,60.874,46.511,50.088,31.208,50.088C15.905,50.088,3.129,60.874,0.065,75.261C-0.333,77.112,1.159,78.744,3.05,78.744L59.366,78.744ZM59.366,78.744"/>
</g>
  <g id="Thin-M" transform="matrix(1.0,0.0,0.0,1.0,794.3467257756296,1027.4067453068794)">  <path stroke="none" xmlns:xlink="http://www.w3.org/1999/xlink" stroke-linecap="butt" fill="#000000" stroke-opacity="1" version="1.1" fill-opacity="1" stroke-width="1px" stroke-dasharray="none" stroke-miterlimit="4" stroke-linejoin="miter" fill-rule="nonzero" d="M121.612,61.033C124.856,56.058,126.727,50.108,126.727,43.72C126.727,26.129,112.478,11.881,94.887,11.881C88.499,11.881,82.569,13.751,77.574,16.995C76.002,18.03,75.883,20.219,77.216,21.552L117.055,61.391C118.389,62.725,120.597,62.625,121.612,61.033ZM112.2,70.446C113.772,69.411,113.891,67.222,112.558,65.889L72.719,26.049C71.385,24.716,69.177,24.815,68.162,26.407C64.918,31.382,63.047,37.332,63.047,43.72C63.047,61.312,77.296,75.56,94.887,75.56C101.275,75.56,107.205,73.689,112.2,70.446ZM59.366,85.112L3.05,85.112C1.159,85.112,-0.313,86.744,0.065,88.594C3.129,102.982,15.905,113.767,31.208,113.767C46.511,113.767,59.286,102.982,62.351,88.594C62.749,86.744,61.256,85.112,59.366,85.112ZM59.366,78.744C61.256,78.744,62.729,77.112,62.351,75.261C59.286,60.874,46.511,50.088,31.208,50.088C15.905,50.088,3.129,60.874,0.065,75.261C-0.333,77.112,1.159,78.744,3.05,78.744L59.366,78.744ZM59.366,78.744"/>
</g>
  <g id="Ultralight-M" transform="matrix(1.0,0.0,0.0,1.0,497.6367257756295,1027.4067453068794)">  <path stroke-linejoin="miter" version="1.1" fill-rule="nonzero" stroke-opacity="1" stroke-miterlimit="4" stroke-dasharray="none" stroke-width="1px" stroke="none" fill-opacity="1" xmlns:xlink="http://www.w3.org/1999/xlink" fill="#000000" stroke-linecap="butt" d="M121.612,61.033C124.856,56.058,126.727,50.108,126.727,43.72C126.727,26.129,112.478,11.881,94.887,11.881C88.499,11.881,82.569,13.751,77.574,16.995C76.002,18.03,75.883,20.219,77.216,21.552L117.055,61.391C118.389,62.725,120.597,62.625,121.612,61.033ZM112.2,70.446C113.772,69.411,113.891,67.222,112.558,65.889L72.719,26.049C71.385,24.716,69.177,24.815,68.162,26.407C64.918,31.382,63.047,37.332,63.047,43.72C63.047,61.312,77.296,75.56,94.887,75.56C101.275,75.56,107.205,73.689,112.2,70.446ZM59.366,85.112L3.05,85.112C1.159,85.112,-0.313,86.744,0.065,88.594C3.129,102.982,15.905,113.767,31.208,113.767C46.511,113.767,59.286,102.982,62.351,88.594C62.749,86.744,61.256,85.112,59.366,85.112ZM59.366,78.744C61.256,78.744,62.729,77.112,62.351,75.261C59.286,60.874,46.511,50.088,31.208,50.088C15.905,50.088,3.129,60.874,0.065,75.261C-0.333,77.112,1.159,78.744,3.05,78.744L59.366,78.744ZM59.366,78.744"/>
</g>
  <g id="Black-S" transform="matrix(1.0,0.0,0.0,1.0,2885.066556282318,611.1565758135679)">  <path stroke-linejoin="miter" xmlns:xlink="http://www.w3.org/1999/xlink" stroke-linecap="butt" fill-opacity="1" version="1.1" stroke-width="1px" fill="#000000" stroke-dasharray="none" fill-rule="nonzero" stroke="none" stroke-miterlimit="4" stroke-opacity="1" d="M95.222,47.789C97.762,43.893,99.227,39.235,99.227,34.233C99.227,20.459,88.071,9.303,74.296,9.303C69.295,9.303,64.652,10.767,60.741,13.307C59.51,14.117,59.416,15.831,60.46,16.875L91.654,48.069C92.698,49.113,94.428,49.035,95.222,47.789ZM87.852,55.159C89.083,54.349,89.177,52.635,88.133,51.591L56.939,20.397C55.895,19.353,54.165,19.431,53.371,20.677C50.831,24.572,49.366,29.231,49.366,34.233C49.366,48.007,60.522,59.163,74.296,59.163C79.298,59.163,83.941,57.699,87.852,55.159ZM46.484,66.643L2.388,66.643C0.908,66.643,-0.245,67.92,0.051,69.369C2.45,80.635,12.454,89.08,24.436,89.08C36.418,89.08,46.421,80.635,48.821,69.369C49.132,67.92,47.964,66.643,46.484,66.643ZM46.484,61.656C47.964,61.656,49.117,60.379,48.821,58.93C46.421,47.664,36.418,39.219,24.436,39.219C12.454,39.219,2.45,47.664,0.051,58.93C-0.261,60.379,0.908,61.656,2.388,61.656L46.484,61.656ZM46.484,61.656"/>
</g>
  <g id="Heavy-S" transform="matrix(1.0,0.0,0.0,1.0,2588.356556282318,611.1565758135679)">  <path version="1.1" fill-rule="nonzero" xmlns:xlink="http://www.w3.org/1999/xlink" stroke-linejoin="miter" fill="#000000" fill-opacity="1" stroke-miterlimit="4" stroke-opacity="1" stroke-linecap="butt" stroke-width="1px" stroke="none" stroke-dasharray="none" d="M95.222,47.789C97.762,43.893,99.227,39.235,99.227,34.233C99.227,20.459,88.071,9.303,74.296,9.303C69.295,9.303,64.652,10.767,60.741,13.307C59.51,14.117,59.416,15.831,60.46,16.875L91.654,48.069C92.698,49.113,94.428,49.035,95.222,47.789ZM87.852,55.159C89.083,54.349,89.177,52.635,88.133,51.591L56.939,20.397C55.895,19.353,54.165,19.431,53.371,20.677C50.831,24.572,49.366,29.231,49.366,34.233C49.366,48.007,60.522,59.163,74.296,59.163C79.298,59.163,83.941,57.699,87.852,55.159ZM46.484,66.643L2.388,66.643C0.908,66.643,-0.245,67.92,0.051,69.369C2.45,80.635,12.454,89.08,24.436,89.08C36.418,89.08,46.421,80.635,48.821,69.369C49.132,67.92,47.964,66.643,46.484,66.643ZM46.484,61.656C47.964,61.656,49.117,60.379,48.821,58.93C46.421,47.664,36.418,39.219,24.436,39.219C12.454,39.219,2.45,47.664,0.051,58.93C-0.261,60.379,0.908,61.656,2.388,61.656L46.484,61.656ZM46.484,61.656"/>
</g>
  <g id="Bold-S" transform="matrix(1.0,0.0,0.0,1.0,2291.6465562823178,611.1565758135679)">  <path xmlns:xlink="http://www.w3.org/1999/xlink" stroke-linecap="butt" stroke-opacity="1" stroke="none" stroke-dasharray="none" stroke-linejoin="miter" fill-opacity="1" stroke-miterlimit="4" fill="#000000" stroke-width="1px" fill-rule="nonzero" version="1.1" d="M95.222,47.789C97.762,43.893,99.227,39.235,99.227,34.233C99.227,20.459,88.071,9.303,74.296,9.303C69.295,9.303,64.652,10.767,60.741,13.307C59.51,14.117,59.416,15.831,60.46,16.875L91.654,48.069C92.698,49.113,94.428,49.035,95.222,47.789ZM87.852,55.159C89.083,54.349,89.177,52.635,88.133,51.591L56.939,20.397C55.895,19.353,54.165,19.431,53.371,20.677C50.831,24.572,49.366,29.231,49.366,34.233C49.366,48.007,60.522,59.163,74.296,59.163C79.298,59.163,83.941,57.699,87.852,55.159ZM46.484,66.643L2.388,66.643C0.908,66.643,-0.245,67.92,0.051,69.369C2.45,80.635,12.454,89.08,24.436,89.08C36.418,89.08,46.421,80.635,48.821,69.369C49.132,67.92,47.964,66.643,46.484,66.643ZM46.484,61.656C47.964,61.656,49.117,60.379,48.821,58.93C46.421,47.664,36.418,39.219,24.436,39.219C12.454,39.219,2.45,47.664,0.051,58.93C-0.261,60.379,0.908,61.656,2.388,61.656L46.484,61.656ZM46.484,61.656"/>
</g>
  <g id="Semibold-S" transform="matrix(1.0,0.0,0.0,1.0,1994.936556282318,611.1565758135679)">  <path fill-rule="nonzero" version="1.1" stroke-linejoin="miter" fill="#000000" stroke-width="1px" stroke="none" stroke-opacity="1" stroke-dasharray="none" stroke-miterlimit="4" fill-opacity="1" xmlns:xlink="http://www.w3.org/1999/xlink" stroke-linecap="butt" d="M95.222,47.789C97.762,43.893,99.227,39.235,99.227,34.233C99.227,20.459,88.071,9.303,74.296,9.303C69.295,9.303,64.652,10.767,60.741,13.307C59.51,14.117,59.416,15.831,60.46,16.875L91.654,48.069C92.698,49.113,94.428,49.035,95.222,47.789ZM87.852,55.159C89.083,54.349,89.177,52.635,88.133,51.591L56.939,20.397C55.895,19.353,54.165,19.431,53.371,20.677C50.831,24.572,49.366,29.231,49.366,34.233C49.366,48.007,60.522,59.163,74.296,59.163C79.298,59.163,83.941,57.699,87.852,55.159ZM46.484,66.643L2.388,66.643C0.908,66.643,-0.245,67.92,0.051,69.369C2.45,80.635,12.454,89.08,24.436,89.08C36.418,89.08,46.421,80.635,48.821,69.369C49.132,67.92,47.964,66.643,46.484,66.643ZM46.484,61.656C47.964,61.656,49.117,60.379,48.821,58.93C46.421,47.664,36.418,39.219,24.436,39.219C12.454,39.219,2.45,47.664,0.051,58.93C-0.261,60.379,0.908,61.656,2.388,61.656L46.484,61.656ZM46.484,61.656"/>
</g>
  <g id="Medium-S" transform="matrix(1.0,0.0,0.0,1.0,1698.226556282318,611.1565758135679)">  <path stroke-linejoin="miter" stroke-dasharray="none" stroke-miterlimit="4" stroke-opacity="1" stroke-width="1px" xmlns:xlink="http://www.w3.org/1999/xlink" stroke="none" fill-rule="nonzero" fill-opacity="1" stroke-linecap="butt" fill="#000000" version="1.1" d="M95.222,47.789C97.762,43.893,99.227,39.235,99.227,34.233C99.227,20.459,88.071,9.303,74.296,9.303C69.295,9.303,64.652,10.767,60.741,13.307C59.51,14.117,59.416,15.831,60.46,16.875L91.654,48.069C92.698,49.113,94.428,49.035,95.222,47.789ZM87.852,55.159C89.083,54.349,89.177,52.635,88.133,51.591L56.939,20.397C55.895,19.353,54.165,19.431,53.371,20.677C50.831,24.572,49.366,29.231,49.366,34.233C49.366,48.007,60.522,59.163,74.296,59.163C79.298,59.163,83.941,57.699,87.852,55.159ZM46.484,66.643L2.388,66.643C0.908,66.643,-0.245,67.92,0.051,69.369C2.45,80.635,12.454,89.08,24.436,89.08C36.418,89.08,46.421,80.635,48.821,69.369C49.132,67.92,47.964,66.643,46.484,66.643ZM46.484,61.656C47.964,61.656,49.117,60.379,48.821,58.93C46.421,47.664,36.418,39.219,24.436,39.219C12.454,39.219,2.45,47.664,0.051,58.93C-0.261,60.379,0.908,61.656,2.388,61.656L46.484,61.656ZM46.484,61.656"/>
</g>
  <g id="Regular-S" transform="matrix(1.0,0.0,0.0,1.0,1401.5165562823179,611.1565758135679)">  <path stroke-dasharray="none" stroke-width="1px" stroke-miterlimit="4" stroke-linejoin="miter" stroke-opacity="1" fill="#000000" stroke-linecap="butt" xmlns:xlink="http://www.w3.org/1999/xlink" fill-rule="nonzero" fill-opacity="1" version="1.1" stroke="none" d="M95.222,47.789C97.762,43.893,99.227,39.235,99.227,34.233C99.227,20.459,88.071,9.303,74.296,9.303C69.295,9.303,64.652,10.767,60.741,13.307C59.51,14.117,59.416,15.831,60.46,16.875L91.654,48.069C92.698,49.113,94.428,49.035,95.222,47.789ZM87.852,55.159C89.083,54.349,89.177,52.635,88.133,51.591L56.939,20.397C55.895,19.353,54.165,19.431,53.371,20.677C50.831,24.572,49.366,29.231,49.366,34.233C49.366,48.007,60.522,59.163,74.296,59.163C79.298,59.163,83.941,57.699,87.852,55.159ZM46.484,66.643L2.388,66.643C0.908,66.643,-0.245,67.92,0.051,69.369C2.45,80.635,12.454,89.08,24.436,89.08C36.418,89.08,46.421,80.635,48.821,69.369C49.132,67.92,47.964,66.643,46.484,66.643ZM46.484,61.656C47.964,61.656,49.117,60.379,48.821,58.93C46.421,47.664,36.418,39.219,24.436,39.219C12.454,39.219,2.45,47.664,0.051,58.93C-0.261,60.379,0.908,61.656,2.388,61.656L46.484,61.656ZM46.484,61.656"/>
</g>
  <g id="Light-S" transform="matrix(1.0,0.0,0.0,1.0,1104.806556282318,611.1565758135679)">  <path fill="#000000" fill-opacity="1" stroke-miterlimit="4" fill-rule="nonzero" version="1.1" stroke-linejoin="miter" stroke-linecap="butt" stroke-width="1px" stroke-opacity="1" stroke-dasharray="none" stroke="none" xmlns:xlink="http://www.w3.org/1999/xlink" d="M95.222,47.789C97.762,43.893,99.227,39.235,99.227,34.233C99.227,20.459,88.071,9.303,74.296,9.303C69.295,9.303,64.652,10.767,60.741,13.307C59.51,14.117,59.416,15.831,60.46,16.875L91.654,48.069C92.698,49.113,94.428,49.035,95.222,47.789ZM87.852,55.159C89.083,54.349,89.177,52.635,88.133,51.591L56.939,20.397C55.895,19.353,54.165,19.431,53.371,20.677C50.831,24.572,49.366,29.231,49.366,34.233C49.366,48.007,60.522,59.163,74.296,59.163C79.298,59.163,83.941,57.699,87.852,55.159ZM46.484,66.643L2.388,66.643C0.908,66.643,-0.245,67.92,0.051,69.369C2.45,80.635,12.454,89.08,24.436,89.08C36.418,89.08,46.421,80.635,48.821,69.369C49.132,67.92,47.964,66.643,46.484,66.643ZM46.484,61.656C47.964,61.656,49.117,60.379,48.821,58.93C46.421,47.664,36.418,39.219,24.436,39.219C12.454,39.219,2.45,47.664,0.051,58.93C-0.261,60.379,0.908,61.656,2.388,61.656L46.484,61.656ZM46.484,61.656"/>
</g>
  <g id="Thin-S" transform="matrix(1.0,0.0,0.0,1.0,808.0965562823179,611.1565758135679)">  <path stroke="none" xmlns:xlink="http://www.w3.org/1999/xlink" stroke-linecap="butt" fill="#000000" stroke-opacity="1" version="1.1" fill-opacity="1" stroke-width="1px" stroke-dasharray="none" stroke-miterlimit="4" stroke-linejoin="miter" fill-rule="nonzero" d="M95.222,47.789C97.762,43.893,99.227,39.235,99.227,34.233C99.227,20.459,88.071,9.303,74.296,9.303C69.295,9.303,64.652,10.767,60.741,13.307C59.51,14.117,59.416,15.831,60.46,16.875L91.654,48.069C92.698,49.113,94.428,49.035,95.222,47.789ZM87.852,55.159C89.083,54.349,89.177,52.635,88.133,51.591L56.939,20.397C55.895,19.353,54.165,19.431,53.371,20.677C50.831,24.572,49.366,29.231,49.366,34.233C49.366,48.007,60.522,59.163,74.296,59.163C79.298,59.163,83.941,57.699,87.852,55.159ZM46.484,66.643L2.388,66.643C0.908,66.643,-0.245,67.92,0.051,69.369C2.45,80.635,12.454,89.08,24.436,89.08C36.418,89.08,46.421,80.635,48.821,69.369C49.132,67.92,47.964,66.643,46.484,66.643ZM46.484,61.656C47.964,61.656,49.117,60.379,48.821,58.93C46.421,47.664,36.418,39.219,24.436,39.219C12.454,39.219,2.45,47.664,0.051,58.93C-0.261,60.379,0.908,61.656,2.388,61.656L46.484,61.656ZM46.484,61.656"/>
</g>
  <g id="Ultralight-S" transform="matrix(1.0,0.0,0.0,1.0,511.3865562823179,611.1565758135679)">  <path stroke-linejoin="miter" version="1.1" fill-rule="nonzero" stroke-opacity="1" stroke-miterlimit="4" stroke-dasharray="none" stroke-width="1px" stroke="none" fill-opacity="1" xmlns:xlink="http://www.w3.org/1999/xlink" fill="#000000" stroke-linecap="butt" d="M95.222,47.789C97.762,43.893,99.227,39.235,99.227,34.233C99.227,20.459,88.071,9.303,74.296,9.303C69.295,9.303,64.652,10.767,60.741,13.307C59.51,14.117,59.416,15.831,60.46,16.875L91.654,48.069C92.698,49.113,94.428,49.035,95.222,47.789ZM87.852,55.159C89.083,54.349,89.177,52.635,88.133,51.591L56.939,20.397C55.895,19.353,54.165,19.431,53.371,20.677C50.831,24.572,49.366,29.231,49.366,34.233C49.366,48.007,60.522,59.163,74.296,59.163C79.298,59.163,83.941,57.699,87.852,55.159ZM46.484,66.643L2.388,66.643C0.908,66.643,-0.245,67.92,0.051,69.369C2.45,80.635,12.454,89.08,24.436,89.08C36.418,89.08,46.421,80.635,48.821,69.369C49.132,67.92,47.964,66.643,46.484,66.643ZM46.484,61.656C47.964,61.656,49.117,60.379,48.821,58.93C46.421,47.664,36.418,39.219,24.436,39.219C12.454,39.219,2.45,47.664,0.051,58.93C-0.261,60.379,0.908,61.656,2.388,61.656L46.484,61.656ZM46.484,61.656"/>
</g>
 </g>
</svg>
