<?xml version="1.0" encoding="UTF-8"?>
<!-- Generator: CustomSymbols v2.7.2.48 by @serious_bret https://bretlester.com/app_content/CustomSymbols/ -->
<!-- Guides: Left/Right 0.11/0.11 Cap/Base 0.222/0.222 -->
<!-- Settings: RefScale 1.0 Min/Max Stroke Scales 0.5/2.21 -->
<!DOCTYPE svg
PUBLIC "-//W3C//DTD SVG 1.1//EN"
       "http://www.w3.org/Graphics/SVG/1.1/DTD/svg11.dtd">
<svg version="1.1" xmlns="http://www.w3.org/2000/svg" xmlns:xlink="http://www.w3.org/1999/xlink" width="3300" height="2200">
<![CDATA[<?xml version="1.0" encoding="UTF-8"?>
<svg width="96px" height="96px" viewBox="0 0 96 96" version="1.1" xmlns="http://www.w3.org/2000/svg" xmlns:xlink="http://www.w3.org/1999/xlink">
    <title>icon/medical/heart-pulse</title>
    <g id="icon/medical/heart-pulse" stroke="none" stroke-width="1" fill="none" fill-rule="evenodd">
        <path d="M42.80625,87.0532427 L8.925,55.4218799 C8.1375,54.6906273 7.3875,53.9031245 6.69375,53.0968716 L23.00625,53.0968716 C27.24375,53.0968716 31.06875,50.5468625 32.7,46.6280985 L34.66875,41.9030816 L43.9125,62.4344049 C44.625,64.0281606 46.18125,65.0594142 47.925,65.0781643 C49.66875,65.0969144 51.2625,64.140661 52.05,62.5844054 L60,46.6655986 L60.31875,47.3031009 C62.1,50.8656136 65.7375,53.1156216 69.7125,53.1156216 L89.30625,53.1156216 C88.6125,53.9218745 87.8625,54.7093773 87.075,55.4406299 L53.19375,87.0532427 C51.7875,88.3657474 49.93125,89.097 48,89.097 C46.06875,89.097 44.2125,88.3657474 42.80625,87.0532427 Z M94.44375,44.0968395 L69.69375,44.0968395 C69.13125,44.0968395 68.60625,43.7780883 68.34375,43.2718365 L63.99375,34.5905556 C63.225,33.0718001 61.66875,32.0967967 59.9625,32.0967967 C58.25625,32.0967967 56.7,33.0530501 55.93125,34.5905556 L48.16875,50.1156109 L38.60625,28.7592848 C37.875,27.1280289 36.225,26.0780252 34.44375,26.1155253 C32.6625,26.1530255 31.05,27.2217793 30.35625,28.8905352 L24.39375,43.1968363 C24.16875,43.7593383 23.60625,44.1155895 23.00625,44.1155895 L3,44.1155895 C2.5125,44.1155895 2.0625,44.1905898 1.63125,44.3218403 C0.5625,41.3218296 0,38.1343182 0,34.8905566 L0,33.8030527 C0,20.696756 9.46875,9.52171613 22.3875,7.36545843 C30.9375,5.94045335 39.6375,8.73421332 45.75,14.8467351 L48,17.0967431 L50.25,14.8467351 C56.3625,8.73421332 65.0625,5.94045335 73.6125,7.36545843 C86.53125,9.52171613 96,20.696756 96,33.8030527 L96,34.8905566 C96,38.0593179 95.475,41.171829 94.44375,44.0968395 Z" id="Shape" fill="#FB4C6C" fill-rule="nonzero"></path>
    </g>
</svg>]]>
 <g id="Notes">
  <rect height="2200" id="artboard" style="fill:white;opacity:1" width="3300" x="0" y="0"/>
  <line id="" style="fill:none;stroke:black;opacity:1;stroke-width:0.5;" x1="263" x2="3036" y1="292" y2="292"/>
  <text id="reftext1" style="stroke:none;fill:black;font-family:-apple-system,&quot;SF Pro Display&quot;,&quot;SF Pro Text&quot;,Helvetica,sans-serif;font-weight:bold;" transform="matrix(1 0 0 1 263 322)">Weight/Scale Variations</text>
  <text id="reftext2" style="stroke:none;fill:black;font-family:-apple-system,&quot;SF Pro Display&quot;,&quot;SF Pro Text&quot;,Helvetica,sans-serif;text-anchor:middle;" transform="matrix(1 0 0 1 559.711 322)">Ultralight</text>
  <text style="stroke:none;fill:black;font-family:-apple-system,&quot;SF Pro Display&quot;,&quot;SF Pro Text&quot;,Helvetica,sans-serif;text-anchor:middle;" transform="matrix(1 0 0 1 856.422 322)">Thin</text>
  <text style="stroke:none;fill:black;font-family:-apple-system,&quot;SF Pro Display&quot;,&quot;SF Pro Text&quot;,Helvetica,sans-serif;text-anchor:middle;" transform="matrix(1 0 0 1 1153.13 322)">Light</text>
  <text style="stroke:none;fill:black;font-family:-apple-system,&quot;SF Pro Display&quot;,&quot;SF Pro Text&quot;,Helvetica,sans-serif;text-anchor:middle;" transform="matrix(1 0 0 1 1449.84 322)">Regular</text>
  <text style="stroke:none;fill:black;font-family:-apple-system,&quot;SF Pro Display&quot;,&quot;SF Pro Text&quot;,Helvetica,sans-serif;text-anchor:middle;" transform="matrix(1 0 0 1 1746.56 322)">Medium</text>
  <text style="stroke:none;fill:black;font-family:-apple-system,&quot;SF Pro Display&quot;,&quot;SF Pro Text&quot;,Helvetica,sans-serif;text-anchor:middle;" transform="matrix(1 0 0 1 2043.27 322)">Semibold</text>
  <text style="stroke:none;fill:black;font-family:-apple-system,&quot;SF Pro Display&quot;,&quot;SF Pro Text&quot;,Helvetica,sans-serif;text-anchor:middle;" transform="matrix(1 0 0 1 2339.98 322)">Bold</text>
  <text style="stroke:none;fill:black;font-family:-apple-system,&quot;SF Pro Display&quot;,&quot;SF Pro Text&quot;,Helvetica,sans-serif;text-anchor:middle;" transform="matrix(1 0 0 1 2636.69 322)">Heavy</text>
  <text style="stroke:none;fill:black;font-family:-apple-system,&quot;SF Pro Display&quot;,&quot;SF Pro Text&quot;,Helvetica,sans-serif;text-anchor:middle;" transform="matrix(1 0 0 1 2933.4 322)">Black</text>
  <line id="" style="fill:none;stroke:black;opacity:1;stroke-width:0.5;" x1="263" x2="3036" y1="1903" y2="1903"/>
  <g id="" transform="matrix(1 0 0 1 263 1933)">
   <path d="M9.24805 0.830078C13.5547 0.830078 17.1387-2.74414 17.1387-7.05078C17.1387-11.3574 13.5449-14.9316 9.23828-14.9316C4.94141-14.9316 1.36719-11.3574 1.36719-7.05078C1.36719-2.74414 4.95117 0.830078 9.24805 0.830078ZM9.24805-0.654297C5.70312-0.654297 2.87109-3.49609 2.87109-7.05078C2.87109-10.6055 5.69336-13.4473 9.23828-13.4473C12.793-13.4473 15.6348-10.6055 15.6445-7.05078C15.6543-3.49609 12.8027-0.654297 9.24805-0.654297ZM6.39648-6.31836L8.50586-6.31836L8.50586-4.19922C8.50586-3.75977 8.79883-3.45703 9.22852-3.45703C9.67773-3.45703 9.9707-3.75977 9.9707-4.19922L9.9707-6.31836L12.0996-6.31836C12.5391-6.31836 12.8418-6.61133 12.8418-7.04102C12.8418-7.48047 12.5391-7.7832 12.0996-7.7832L9.9707-7.7832L9.9707-9.89258C9.9707-10.3418 9.67773-10.6445 9.22852-10.6445C8.79883-10.6445 8.50586-10.3418 8.50586-9.89258L8.50586-7.7832L6.39648-7.7832C5.94727-7.7832 5.64453-7.48047 5.64453-7.04102C5.64453-6.61133 5.94727-6.31836 6.39648-6.31836Z"/>
  </g>
  <g id="" transform="matrix(1 0 0 1 281.506 1933)">
   <path d="M11.709 2.91016C17.1582 2.91016 21.6699-1.61133 21.6699-7.05078C21.6699-12.5 17.1484-17.0117 11.6992-17.0117C6.25977-17.0117 1.74805-12.5 1.74805-7.05078C1.74805-1.61133 6.26953 2.91016 11.709 2.91016ZM11.709 1.25C7.09961 1.25 3.41797-2.44141 3.41797-7.05078C3.41797-11.6602 7.08984-15.3516 11.6992-15.3516C16.3086-15.3516 20-11.6602 20.0098-7.05078C20.0195-2.44141 16.3184 1.25 11.709 1.25ZM7.98828-6.23047L10.8789-6.23047L10.8789-3.32031C10.8789-2.83203 11.2109-2.5 11.6895-2.5C12.1777-2.5 12.5195-2.83203 12.5195-3.32031L12.5195-6.23047L15.4297-6.23047C15.918-6.23047 16.25-6.5625 16.25-7.04102C16.25-7.5293 15.918-7.87109 15.4297-7.87109L12.5195-7.87109L12.5195-10.7617C12.5195-11.2695 12.1777-11.6016 11.6895-11.6016C11.2109-11.6016 10.8789-11.2598 10.8789-10.7617L10.8789-7.87109L7.98828-7.87109C7.48047-7.87109 7.14844-7.5293 7.14844-7.04102C7.14844-6.5625 7.49023-6.23047 7.98828-6.23047Z"/>
  </g>
  <g id="" transform="matrix(1 0 0 1 304.924 1933)">
   <path d="M14.9707 5.66406C21.9336 5.66406 27.6953-0.0976562 27.6953-7.05078C27.6953-14.0137 21.9238-19.7754 14.9609-19.7754C8.00781-19.7754 2.25586-14.0137 2.25586-7.05078C2.25586-0.0976562 8.01758 5.66406 14.9707 5.66406ZM14.9707 3.84766C8.93555 3.84766 4.08203-1.01562 4.08203-7.05078C4.08203-13.0957 8.92578-17.9492 14.9609-17.9492C21.0059-17.9492 25.8594-13.0957 25.8691-7.05078C25.8789-1.01562 21.0156 3.84766 14.9707 3.84766ZM10.0586-6.14258L14.0625-6.14258L14.0625-2.12891C14.0625-1.5918 14.4336-1.2207 14.9512-1.2207C15.4883-1.2207 15.8594-1.5918 15.8594-2.12891L15.8594-6.14258L19.8828-6.14258C20.4102-6.14258 20.791-6.51367 20.791-7.03125C20.791-7.56836 20.4199-7.94922 19.8828-7.94922L15.8594-7.94922L15.8594-11.9531C15.8594-12.5098 15.4883-12.8809 14.9512-12.8809C14.4336-12.8809 14.0625-12.5 14.0625-11.9531L14.0625-7.94922L10.0586-7.94922C9.50195-7.94922 9.13086-7.56836 9.13086-7.03125C9.13086-6.51367 9.51172-6.14258 10.0586-6.14258Z"/>
  </g>
  <text style="stroke:none;fill:black;font-family:-apple-system,&quot;SF Pro Display&quot;,&quot;SF Pro Text&quot;,Helvetica,sans-serif;font-weight:bold;" transform="matrix(1 0 0 1 263 1953)">Design Variations</text>
  <text style="stroke:none;fill:black;font-family:-apple-system,&quot;SF Pro Display&quot;,&quot;SF Pro Text&quot;,Helvetica,sans-serif;" transform="matrix(1 0 0 1 263 1971)">Symbols are supported in up to nine weights and three scales.</text>
  <text style="stroke:none;fill:black;font-family:-apple-system,&quot;SF Pro Display&quot;,&quot;SF Pro Text&quot;,Helvetica,sans-serif;" transform="matrix(1 0 0 1 263 1989)">For optimal layout with text and other symbols, vertically align</text>
  <text style="stroke:none;fill:black;font-family:-apple-system,&quot;SF Pro Display&quot;,&quot;SF Pro Text&quot;,Helvetica,sans-serif;" transform="matrix(1 0 0 1 263 2007)">symbols with the adjacent text.</text>
  <line id="" style="fill:none;stroke:#00AEEF;stroke-width:0.5;opacity:1.0;" x1="776" x2="776" y1="1919" y2="1933"/>
  <g id="" transform="matrix(1 0 0 1 776 1933)">
   <path d="M3.31055 0.126953C3.82812 0.126953 4.08203-0.0683594 4.26758-0.605469L5.52734-4.0625L11.2891-4.0625L12.5488-0.605469C12.7344-0.0683594 12.9883 0.126953 13.4961 0.126953C14.0137 0.126953 14.3457-0.185547 14.3457-0.673828C14.3457-0.839844 14.3164-0.986328 14.2383-1.20117L9.6582-13.3887C9.43359-13.9941 9.0332-14.2871 8.4082-14.2871C7.80273-14.2871 7.39258-13.9941 7.17773-13.3984L2.59766-1.19141C2.51953-0.976562 2.49023-0.830078 2.49023-0.664062C2.49023-0.175781 2.80273 0.126953 3.31055 0.126953ZM6.00586-5.53711L8.37891-12.1094L8.42773-12.1094L10.8008-5.53711Z"/>
  </g>
  <line id="" style="fill:none;stroke:#00AEEF;stroke-width:0.5;opacity:1.0;" x1="792.836" x2="792.836" y1="1919" y2="1933"/>
  <text style="stroke:none;fill:black;font-family:-apple-system,&quot;SF Pro Display&quot;,&quot;SF Pro Text&quot;,Helvetica,sans-serif;font-weight:bold;" transform="matrix(1 0 0 1 776 1953)">Margins</text>
  <text style="stroke:none;fill:black;font-family:-apple-system,&quot;SF Pro Display&quot;,&quot;SF Pro Text&quot;,Helvetica,sans-serif;" transform="matrix(1 0 0 1 776 1971)">Leading and trailing margins on the left and right side of each symbol</text>
  <text style="stroke:none;fill:black;font-family:-apple-system,&quot;SF Pro Display&quot;,&quot;SF Pro Text&quot;,Helvetica,sans-serif;" transform="matrix(1 0 0 1 776 1989)">can be adjusted by modifying the x-location of the margin guidelines.</text>
  <text style="stroke:none;fill:black;font-family:-apple-system,&quot;SF Pro Display&quot;,&quot;SF Pro Text&quot;,Helvetica,sans-serif;" transform="matrix(1 0 0 1 776 2007)">Modifications are automatically applied proportionally to all</text>
  <text style="stroke:none;fill:black;font-family:-apple-system,&quot;SF Pro Display&quot;,&quot;SF Pro Text&quot;,Helvetica,sans-serif;" transform="matrix(1 0 0 1 776 2025)">scales and weights.</text>
  <g id="" transform="matrix(1 0 0 1 1289 1933)">
   <path d="M2.8418 1.86523L4.54102 3.57422C5.40039 4.44336 6.38672 4.38477 7.31445 3.35938L17.4902-7.85156C17.7539-7.76367 18.0273-7.7832 18.3398-7.8418L19.4043-8.03711L20.0684-7.36328L20.0293-6.80664C19.9902-6.30859 20.1172-5.92773 20.6055-5.44922L21.3672-4.70703C21.8457-4.22852 22.4609-4.19922 22.9297-4.66797L25.8398-7.58789C26.3086-8.05664 26.2891-8.65234 25.8105-9.13086L25.0391-9.89258C24.5605-10.3711 24.1895-10.5273 23.7109-10.4883L23.1348-10.4395L22.4902-11.0742L22.7344-12.1973C22.8613-12.7637 22.7051-13.2031 22.1191-13.7891L19.9219-15.9766C16.582-19.2969 12.1484-19.2188 9.25781-16.3281C8.83789-15.918 8.80859-15.3418 9.04297-14.9512C9.27734-14.5898 9.73633-14.3555 10.3809-14.5215C11.8457-14.8633 13.3691-14.9219 14.7949-13.9844L14.209-12.5293C14.0137-12.0508 13.9844-11.6504 14.1113-11.2891L3.04688-0.898438C2.06055 0.0195312 1.98242 0.996094 2.8418 1.86523ZM10.752-15.957C13.1836-17.7344 16.4746-17.4316 18.7012-15.2051L21.1328-12.793C21.3672-12.5586 21.4062-12.373 21.3379-12.0312L21.0156-10.5469L22.5195-9.0625L23.5059-9.12109C23.7598-9.13086 23.8379-9.11133 24.0332-8.91602L24.6094-8.33984L22.168-5.89844L21.5918-6.47461C21.3965-6.66992 21.3672-6.74805 21.377-7.01172L21.4453-7.98828L19.9512-9.47266L18.4277-9.21875C18.1055-9.15039 17.959-9.17969 17.7148-9.41406L15.7129-11.416C15.459-11.6504 15.4297-11.8164 15.5859-12.1875L16.4648-14.2773C14.9023-15.7324 12.8711-16.3574 10.8398-15.7617C10.6836-15.7227 10.625-15.8496 10.752-15.957ZM5.27344 2.30469L4.10156 1.14258C3.63281 0.683594 3.74023 0.341797 4.14062-0.0195312L14.9512-10.1953L16.416-8.71094L6.42578 2.27539C6.07422 2.67578 5.74219 2.77344 5.27344 2.30469Z"/>
  </g>
  <text style="stroke:none;fill:black;font-family:-apple-system,&quot;SF Pro Display&quot;,&quot;SF Pro Text&quot;,Helvetica,sans-serif;font-weight:bold;" transform="matrix(1 0 0 1 1289 1953)">Exporting</text>
  <text style="stroke:none;fill:black;font-family:-apple-system,&quot;SF Pro Display&quot;,&quot;SF Pro Text&quot;,Helvetica,sans-serif;" transform="matrix(1 0 0 1 1289 1971)">Symbols should be outlined when exporting to ensure the</text>
  <text style="stroke:none;fill:black;font-family:-apple-system,&quot;SF Pro Display&quot;,&quot;SF Pro Text&quot;,Helvetica,sans-serif;" transform="matrix(1 0 0 1 1289 1989)">design is preserved when submitting to Xcode.</text>
  <text id="template-version" style="stroke:none;fill:black;font-family:-apple-system,&quot;SF Pro Display&quot;,&quot;SF Pro Text&quot;,Helvetica,sans-serif;text-anchor:end;" transform="matrix(1 0 0 1 3036 1933)">Template v.2.0</text>
  <text style="stroke:none;fill:black;font-family:-apple-system,&quot;SF Pro Display&quot;,&quot;SF Pro Text&quot;,Helvetica,sans-serif;text-anchor:end;" transform="matrix(1 0 0 1 3036 1951)">Requires Xcode 12 or greater</text>
  <text style="stroke:none;fill:black;font-family:-apple-system,&quot;SF Pro Display&quot;,&quot;SF Pro Text&quot;,Helvetica,sans-serif;" transform="matrix(1 0 0 1 263 726)">Small</text>
  <text style="stroke:none;fill:black;font-family:-apple-system,&quot;SF Pro Display&quot;,&quot;SF Pro Text&quot;,Helvetica,sans-serif;" transform="matrix(1 0 0 1 263 1156)">Medium</text>
  <text style="stroke:none;fill:black;font-family:-apple-system,&quot;SF Pro Display&quot;,&quot;SF Pro Text&quot;,Helvetica,sans-serif;" transform="matrix(1 0 0 1 263 1586)">Large</text>
 </g>
 <g id="Guides">
  <g id="H-reference" style="fill:#27AAE1;stroke:none;" transform="matrix(1 0 0 1 339 696)">
   <path d="M0.976562 0L3.66211 0L12.9883-24.4629L45.752-24.4629L55.127 0L57.7637 0L30.6152-70.459L28.125-70.459ZM29.3457-67.1387L29.4434-67.1387L44.873-26.709L13.8672-26.709Z"/>
  </g>
  <line id="Baseline-S" style="fill:none;stroke:#27AAE1;opacity:1;stroke-width:0.5;" x1="263" x2="3036" y1="696" y2="696"/>
  <line id="Capline-S" style="fill:none;stroke:#27AAE1;opacity:1;stroke-width:0.5;" x1="263" x2="3036" y1="625.541" y2="625.541"/>
  <g id="H-reference" style="fill:#27AAE1;stroke:none;" transform="matrix(1 0 0 1 339 1126)">
   <path d="M0.976562 0L3.66211 0L12.9883-24.4629L45.752-24.4629L55.127 0L57.7637 0L30.6152-70.459L28.125-70.459ZM29.3457-67.1387L29.4434-67.1387L44.873-26.709L13.8672-26.709Z"/>
  </g>
  <line id="Baseline-M" style="fill:none;stroke:#27AAE1;opacity:1;stroke-width:0.5;" x1="263" x2="3036" y1="1126" y2="1126"/>
  <line id="Capline-M" style="fill:none;stroke:#27AAE1;opacity:1;stroke-width:0.5;" x1="263" x2="3036" y1="1055.54" y2="1055.54"/>
  <g id="H-reference" style="fill:#27AAE1;stroke:none;" transform="matrix(1 0 0 1 339 1556)">
   <path d="M0.976562 0L3.66211 0L12.9883-24.4629L45.752-24.4629L55.127 0L57.7637 0L30.6152-70.459L28.125-70.459ZM29.3457-67.1387L29.4434-67.1387L44.873-26.709L13.8672-26.709Z"/>
  </g>
  <line id="Baseline-L" style="fill:none;stroke:#27AAE1;opacity:1;stroke-width:0.5;" x1="263" x2="3036" y1="1556" y2="1556"/>
  <line id="Capline-L" style="fill:none;stroke:#27AAE1;opacity:1;stroke-width:0.5;" x1="263" x2="3036" y1="1485.54" y2="1485.54"/>
  <line id="left-margin" x1="1401.7066461049908" x2="1401.7066461049908" y1="1030.79" y2="1150.12" style="fill:none;stroke:#00AEEF;stroke-width:0.5;opacity:1.0;"/>
  <line id="right-margin" x1="1500.553353895009" x2="1500.553353895009" y1="1030.79" y2="1150.12" style="fill:none;stroke:#00AEEF;stroke-width:0.5;opacity:1.0;"/>
 </g>
 <g id="Symbols">
  <g id="Black-L" transform="matrix(1.0,0.0,0.0,1.0,2852.941376250562,1439.031395781812)">  <path xmlns:xlink="http://www.w3.org/1999/xlink" stroke-miterlimit="4" fill="#000000" fill-rule="nonzero" stroke-linejoin="miter" stroke-width="1px" version="1.1" stroke-linecap="butt" fill-opacity="1" stroke-opacity="1" stroke-dasharray="none" stroke="none" d="M72.894,148.242L15.198,94.377C13.857,93.132,12.58,91.791,11.399,90.418L39.177,90.418C46.393,90.418,52.907,86.076,55.684,79.402L59.037,71.356L74.778,106.319C75.991,109.033,78.641,110.789,81.611,110.821C84.58,110.853,87.294,109.224,88.635,106.574L102.173,79.466L102.716,80.552C105.749,86.618,111.944,90.45,118.713,90.45L152.079,90.45C150.897,91.823,149.62,93.164,148.279,94.409L90.583,148.242C88.188,150.477,85.027,151.722,81.739,151.722C78.45,151.722,75.289,150.477,72.894,148.242ZM160.827,75.092L118.681,75.092C117.723,75.092,116.829,74.549,116.382,73.687L108.974,58.904C107.665,56.318,105.015,54.657,102.109,54.657C99.204,54.657,96.554,56.286,95.245,58.904L82.026,85.341L65.742,48.974C64.497,46.196,61.687,44.408,58.654,44.472C55.621,44.536,52.875,46.356,51.693,49.197L41.54,73.559C41.157,74.517,40.199,75.124,39.177,75.124L5.109,75.124C4.279,75.124,3.512,75.252,2.778,75.475C0.958,70.366,0,64.938,0,59.415L0,57.563C0,35.244,16.124,16.214,38.123,12.543C52.683,10.116,67.498,14.873,77.907,25.282L81.739,29.114L85.57,25.282C95.979,14.873,110.794,10.116,125.354,12.543C147.353,16.214,163.477,35.244,163.477,57.563L163.477,59.415C163.477,64.811,162.583,70.111,160.827,75.092ZM160.827,75.092"/>
</g>
  <g id="Heavy-L" transform="matrix(1.0,0.0,0.0,1.0,2556.231376250562,1439.031395781812)">  <path stroke-linecap="butt" stroke-opacity="1" fill-rule="nonzero" stroke-dasharray="none" stroke="none" fill="#000000" stroke-width="1px" stroke-miterlimit="4" stroke-linejoin="miter" xmlns:xlink="http://www.w3.org/1999/xlink" fill-opacity="1" version="1.1" d="M72.894,148.242L15.198,94.377C13.857,93.132,12.58,91.791,11.399,90.418L39.177,90.418C46.393,90.418,52.907,86.076,55.684,79.402L59.037,71.356L74.778,106.319C75.991,109.033,78.641,110.789,81.611,110.821C84.58,110.853,87.294,109.224,88.635,106.574L102.173,79.466L102.716,80.552C105.749,86.618,111.944,90.45,118.713,90.45L152.079,90.45C150.897,91.823,149.62,93.164,148.279,94.409L90.583,148.242C88.188,150.477,85.027,151.722,81.739,151.722C78.45,151.722,75.289,150.477,72.894,148.242ZM160.827,75.092L118.681,75.092C117.723,75.092,116.829,74.549,116.382,73.687L108.974,58.904C107.665,56.318,105.015,54.657,102.109,54.657C99.204,54.657,96.554,56.286,95.245,58.904L82.026,85.341L65.742,48.974C64.497,46.196,61.687,44.408,58.654,44.472C55.621,44.536,52.875,46.356,51.693,49.197L41.54,73.559C41.157,74.517,40.199,75.124,39.177,75.124L5.109,75.124C4.279,75.124,3.512,75.252,2.778,75.475C0.958,70.366,0,64.938,0,59.415L0,57.563C0,35.244,16.124,16.214,38.123,12.543C52.683,10.116,67.498,14.873,77.907,25.282L81.739,29.114L85.57,25.282C95.979,14.873,110.794,10.116,125.354,12.543C147.353,16.214,163.477,35.244,163.477,57.563L163.477,59.415C163.477,64.811,162.583,70.111,160.827,75.092ZM160.827,75.092"/>
</g>
  <g id="Bold-L" transform="matrix(1.0,0.0,0.0,1.0,2259.521376250562,1439.031395781812)">  <path stroke-dasharray="none" version="1.1" fill-opacity="1" stroke-linejoin="miter" fill-rule="nonzero" stroke="none" fill="#000000" xmlns:xlink="http://www.w3.org/1999/xlink" stroke-miterlimit="4" stroke-width="1px" stroke-opacity="1" stroke-linecap="butt" d="M72.894,148.242L15.198,94.377C13.857,93.132,12.58,91.791,11.399,90.418L39.177,90.418C46.393,90.418,52.907,86.076,55.684,79.402L59.037,71.356L74.778,106.319C75.991,109.033,78.641,110.789,81.611,110.821C84.58,110.853,87.294,109.224,88.635,106.574L102.173,79.466L102.716,80.552C105.749,86.618,111.944,90.45,118.713,90.45L152.079,90.45C150.897,91.823,149.62,93.164,148.279,94.409L90.583,148.242C88.188,150.477,85.027,151.722,81.739,151.722C78.45,151.722,75.289,150.477,72.894,148.242ZM160.827,75.092L118.681,75.092C117.723,75.092,116.829,74.549,116.382,73.687L108.974,58.904C107.665,56.318,105.015,54.657,102.109,54.657C99.204,54.657,96.554,56.286,95.245,58.904L82.026,85.341L65.742,48.974C64.497,46.196,61.687,44.408,58.654,44.472C55.621,44.536,52.875,46.356,51.693,49.197L41.54,73.559C41.157,74.517,40.199,75.124,39.177,75.124L5.109,75.124C4.279,75.124,3.512,75.252,2.778,75.475C0.958,70.366,0,64.938,0,59.415L0,57.563C0,35.244,16.124,16.214,38.123,12.543C52.683,10.116,67.498,14.873,77.907,25.282L81.739,29.114L85.57,25.282C95.979,14.873,110.794,10.116,125.354,12.543C147.353,16.214,163.477,35.244,163.477,57.563L163.477,59.415C163.477,64.811,162.583,70.111,160.827,75.092ZM160.827,75.092"/>
</g>
  <g id="Semibold-L" transform="matrix(1.0,0.0,0.0,1.0,1962.811376250562,1439.031395781812)">  <path stroke-linejoin="miter" fill="#000000" stroke-opacity="1" version="1.1" fill-opacity="1" stroke-width="1px" stroke-linecap="butt" xmlns:xlink="http://www.w3.org/1999/xlink" stroke-miterlimit="4" stroke-dasharray="none" stroke="none" fill-rule="nonzero" d="M72.894,148.242L15.198,94.377C13.857,93.132,12.58,91.791,11.399,90.418L39.177,90.418C46.393,90.418,52.907,86.076,55.684,79.402L59.037,71.356L74.778,106.319C75.991,109.033,78.641,110.789,81.611,110.821C84.58,110.853,87.294,109.224,88.635,106.574L102.173,79.466L102.716,80.552C105.749,86.618,111.944,90.45,118.713,90.45L152.079,90.45C150.897,91.823,149.62,93.164,148.279,94.409L90.583,148.242C88.188,150.477,85.027,151.722,81.739,151.722C78.45,151.722,75.289,150.477,72.894,148.242ZM160.827,75.092L118.681,75.092C117.723,75.092,116.829,74.549,116.382,73.687L108.974,58.904C107.665,56.318,105.015,54.657,102.109,54.657C99.204,54.657,96.554,56.286,95.245,58.904L82.026,85.341L65.742,48.974C64.497,46.196,61.687,44.408,58.654,44.472C55.621,44.536,52.875,46.356,51.693,49.197L41.54,73.559C41.157,74.517,40.199,75.124,39.177,75.124L5.109,75.124C4.279,75.124,3.512,75.252,2.778,75.475C0.958,70.366,0,64.938,0,59.415L0,57.563C0,35.244,16.124,16.214,38.123,12.543C52.683,10.116,67.498,14.873,77.907,25.282L81.739,29.114L85.57,25.282C95.979,14.873,110.794,10.116,125.354,12.543C147.353,16.214,163.477,35.244,163.477,57.563L163.477,59.415C163.477,64.811,162.583,70.111,160.827,75.092ZM160.827,75.092"/>
</g>
  <g id="Medium-L" transform="matrix(1.0,0.0,0.0,1.0,1666.101376250562,1439.031395781812)">  <path stroke-width="1px" stroke="none" fill-opacity="1" stroke-dasharray="none" stroke-linecap="butt" stroke-miterlimit="4" stroke-linejoin="miter" fill-rule="nonzero" xmlns:xlink="http://www.w3.org/1999/xlink" fill="#000000" version="1.1" stroke-opacity="1" d="M72.894,148.242L15.198,94.377C13.857,93.132,12.58,91.791,11.399,90.418L39.177,90.418C46.393,90.418,52.907,86.076,55.684,79.402L59.037,71.356L74.778,106.319C75.991,109.033,78.641,110.789,81.611,110.821C84.58,110.853,87.294,109.224,88.635,106.574L102.173,79.466L102.716,80.552C105.749,86.618,111.944,90.45,118.713,90.45L152.079,90.45C150.897,91.823,149.62,93.164,148.279,94.409L90.583,148.242C88.188,150.477,85.027,151.722,81.739,151.722C78.45,151.722,75.289,150.477,72.894,148.242ZM160.827,75.092L118.681,75.092C117.723,75.092,116.829,74.549,116.382,73.687L108.974,58.904C107.665,56.318,105.015,54.657,102.109,54.657C99.204,54.657,96.554,56.286,95.245,58.904L82.026,85.341L65.742,48.974C64.497,46.196,61.687,44.408,58.654,44.472C55.621,44.536,52.875,46.356,51.693,49.197L41.54,73.559C41.157,74.517,40.199,75.124,39.177,75.124L5.109,75.124C4.279,75.124,3.512,75.252,2.778,75.475C0.958,70.366,0,64.938,0,59.415L0,57.563C0,35.244,16.124,16.214,38.123,12.543C52.683,10.116,67.498,14.873,77.907,25.282L81.739,29.114L85.57,25.282C95.979,14.873,110.794,10.116,125.354,12.543C147.353,16.214,163.477,35.244,163.477,57.563L163.477,59.415C163.477,64.811,162.583,70.111,160.827,75.092ZM160.827,75.092"/>
</g>
  <g id="Regular-L" transform="matrix(1.0,0.0,0.0,1.0,1369.391376250562,1439.031395781812)">  <path stroke-linecap="butt" fill="#000000" fill-opacity="1" stroke="none" xmlns:xlink="http://www.w3.org/1999/xlink" stroke-width="1px" version="1.1" fill-rule="nonzero" stroke-opacity="1" stroke-linejoin="miter" stroke-dasharray="none" stroke-miterlimit="4" d="M72.894,148.242L15.198,94.377C13.857,93.132,12.58,91.791,11.399,90.418L39.177,90.418C46.393,90.418,52.907,86.076,55.684,79.402L59.037,71.356L74.778,106.319C75.991,109.033,78.641,110.789,81.611,110.821C84.58,110.853,87.294,109.224,88.635,106.574L102.173,79.466L102.716,80.552C105.749,86.618,111.944,90.45,118.713,90.45L152.079,90.45C150.897,91.823,149.62,93.164,148.279,94.409L90.583,148.242C88.188,150.477,85.027,151.722,81.739,151.722C78.45,151.722,75.289,150.477,72.894,148.242ZM160.827,75.092L118.681,75.092C117.723,75.092,116.829,74.549,116.382,73.687L108.974,58.904C107.665,56.318,105.015,54.657,102.109,54.657C99.204,54.657,96.554,56.286,95.245,58.904L82.026,85.341L65.742,48.974C64.497,46.196,61.687,44.408,58.654,44.472C55.621,44.536,52.875,46.356,51.693,49.197L41.54,73.559C41.157,74.517,40.199,75.124,39.177,75.124L5.109,75.124C4.279,75.124,3.512,75.252,2.778,75.475C0.958,70.366,0,64.938,0,59.415L0,57.563C0,35.244,16.124,16.214,38.123,12.543C52.683,10.116,67.498,14.873,77.907,25.282L81.739,29.114L85.57,25.282C95.979,14.873,110.794,10.116,125.354,12.543C147.353,16.214,163.477,35.244,163.477,57.563L163.477,59.415C163.477,64.811,162.583,70.111,160.827,75.092ZM160.827,75.092"/>
</g>
  <g id="Light-L" transform="matrix(1.0,0.0,0.0,1.0,1072.6813762505622,1439.031395781812)">  <path fill-opacity="1" fill="#000000" stroke-miterlimit="4" stroke-width="1px" fill-rule="nonzero" stroke-linecap="butt" xmlns:xlink="http://www.w3.org/1999/xlink" stroke-dasharray="none" stroke-opacity="1" stroke-linejoin="miter" stroke="none" version="1.1" d="M72.894,148.242L15.198,94.377C13.857,93.132,12.58,91.791,11.399,90.418L39.177,90.418C46.393,90.418,52.907,86.076,55.684,79.402L59.037,71.356L74.778,106.319C75.991,109.033,78.641,110.789,81.611,110.821C84.58,110.853,87.294,109.224,88.635,106.574L102.173,79.466L102.716,80.552C105.749,86.618,111.944,90.45,118.713,90.45L152.079,90.45C150.897,91.823,149.62,93.164,148.279,94.409L90.583,148.242C88.188,150.477,85.027,151.722,81.739,151.722C78.45,151.722,75.289,150.477,72.894,148.242ZM160.827,75.092L118.681,75.092C117.723,75.092,116.829,74.549,116.382,73.687L108.974,58.904C107.665,56.318,105.015,54.657,102.109,54.657C99.204,54.657,96.554,56.286,95.245,58.904L82.026,85.341L65.742,48.974C64.497,46.196,61.687,44.408,58.654,44.472C55.621,44.536,52.875,46.356,51.693,49.197L41.54,73.559C41.157,74.517,40.199,75.124,39.177,75.124L5.109,75.124C4.279,75.124,3.512,75.252,2.778,75.475C0.958,70.366,0,64.938,0,59.415L0,57.563C0,35.244,16.124,16.214,38.123,12.543C52.683,10.116,67.498,14.873,77.907,25.282L81.739,29.114L85.57,25.282C95.979,14.873,110.794,10.116,125.354,12.543C147.353,16.214,163.477,35.244,163.477,57.563L163.477,59.415C163.477,64.811,162.583,70.111,160.827,75.092ZM160.827,75.092"/>
</g>
  <g id="Thin-L" transform="matrix(1.0,0.0,0.0,1.0,775.9713762505621,1439.031395781812)">  <path stroke-dasharray="none" version="1.1" stroke-linejoin="miter" stroke-width="1px" stroke-linecap="butt" stroke-opacity="1" fill-rule="nonzero" xmlns:xlink="http://www.w3.org/1999/xlink" stroke="none" fill="#000000" stroke-miterlimit="4" fill-opacity="1" d="M72.894,148.242L15.198,94.377C13.857,93.132,12.58,91.791,11.399,90.418L39.177,90.418C46.393,90.418,52.907,86.076,55.684,79.402L59.037,71.356L74.778,106.319C75.991,109.033,78.641,110.789,81.611,110.821C84.58,110.853,87.294,109.224,88.635,106.574L102.173,79.466L102.716,80.552C105.749,86.618,111.944,90.45,118.713,90.45L152.079,90.45C150.897,91.823,149.62,93.164,148.279,94.409L90.583,148.242C88.188,150.477,85.027,151.722,81.739,151.722C78.45,151.722,75.289,150.477,72.894,148.242ZM160.827,75.092L118.681,75.092C117.723,75.092,116.829,74.549,116.382,73.687L108.974,58.904C107.665,56.318,105.015,54.657,102.109,54.657C99.204,54.657,96.554,56.286,95.245,58.904L82.026,85.341L65.742,48.974C64.497,46.196,61.687,44.408,58.654,44.472C55.621,44.536,52.875,46.356,51.693,49.197L41.54,73.559C41.157,74.517,40.199,75.124,39.177,75.124L5.109,75.124C4.279,75.124,3.512,75.252,2.778,75.475C0.958,70.366,0,64.938,0,59.415L0,57.563C0,35.244,16.124,16.214,38.123,12.543C52.683,10.116,67.498,14.873,77.907,25.282L81.739,29.114L85.57,25.282C95.979,14.873,110.794,10.116,125.354,12.543C147.353,16.214,163.477,35.244,163.477,57.563L163.477,59.415C163.477,64.811,162.583,70.111,160.827,75.092ZM160.827,75.092"/>
</g>
  <g id="Ultralight-L" transform="matrix(1.0,0.0,0.0,1.0,479.2613762505621,1439.031395781812)">  <path stroke-opacity="1" xmlns:xlink="http://www.w3.org/1999/xlink" stroke-width="1px" stroke-dasharray="none" stroke-miterlimit="4" fill-opacity="1" fill-rule="nonzero" stroke="none" version="1.1" fill="#000000" stroke-linecap="butt" stroke-linejoin="miter" d="M72.894,148.242L15.198,94.377C13.857,93.132,12.58,91.791,11.399,90.418L39.177,90.418C46.393,90.418,52.907,86.076,55.684,79.402L59.037,71.356L74.778,106.319C75.991,109.033,78.641,110.789,81.611,110.821C84.58,110.853,87.294,109.224,88.635,106.574L102.173,79.466L102.716,80.552C105.749,86.618,111.944,90.45,118.713,90.45L152.079,90.45C150.897,91.823,149.62,93.164,148.279,94.409L90.583,148.242C88.188,150.477,85.027,151.722,81.739,151.722C78.45,151.722,75.289,150.477,72.894,148.242ZM160.827,75.092L118.681,75.092C117.723,75.092,116.829,74.549,116.382,73.687L108.974,58.904C107.665,56.318,105.015,54.657,102.109,54.657C99.204,54.657,96.554,56.286,95.245,58.904L82.026,85.341L65.742,48.974C64.497,46.196,61.687,44.408,58.654,44.472C55.621,44.536,52.875,46.356,51.693,49.197L41.54,73.559C41.157,74.517,40.199,75.124,39.177,75.124L5.109,75.124C4.279,75.124,3.512,75.252,2.778,75.475C0.958,70.366,0,64.938,0,59.415L0,57.563C0,35.244,16.124,16.214,38.123,12.543C52.683,10.116,67.498,14.873,77.907,25.282L81.739,29.114L85.57,25.282C95.979,14.873,110.794,10.116,125.354,12.543C147.353,16.214,163.477,35.244,163.477,57.563L163.477,59.415C163.477,64.811,162.583,70.111,160.827,75.092ZM160.827,75.092"/>
</g>
  <g id="Black-M" transform="matrix(1.0,0.0,0.0,1.0,2871.3167257756295,1027.4067453068794)">  <path xmlns:xlink="http://www.w3.org/1999/xlink" stroke-miterlimit="4" fill="#000000" fill-rule="nonzero" stroke-linejoin="miter" stroke-width="1px" version="1.1" stroke-linecap="butt" fill-opacity="1" stroke-opacity="1" stroke-dasharray="none" stroke="none" d="M56.507,114.916L11.782,73.161C10.742,72.195,9.752,71.156,8.836,70.091L30.37,70.091C35.964,70.091,41.013,66.725,43.166,61.552L45.765,55.315L57.967,82.418C58.908,84.522,60.962,85.883,63.264,85.908C65.566,85.932,67.67,84.67,68.71,82.616L79.204,61.602L79.625,62.443C81.976,67.146,86.778,70.116,92.025,70.116L117.89,70.116C116.975,71.181,115.984,72.22,114.945,73.185L70.219,114.916C68.363,116.649,65.913,117.614,63.363,117.614C60.814,117.614,58.364,116.649,56.507,114.916ZM124.672,58.211L92.001,58.211C91.258,58.211,90.565,57.79,90.218,57.122L84.476,45.662C83.461,43.657,81.407,42.37,79.155,42.37C76.902,42.37,74.848,43.632,73.833,45.662L63.586,66.156L50.963,37.964C49.998,35.811,47.819,34.425,45.468,34.474C43.117,34.524,40.988,35.935,40.072,38.137L32.201,57.023C31.904,57.765,31.162,58.236,30.37,58.236L3.96,58.236C3.317,58.236,2.723,58.335,2.153,58.508C0.743,54.548,0,50.34,0,46.058L0,44.622C0,27.321,12.499,12.569,29.553,9.723C40.84,7.842,52.324,11.53,60.393,19.599L63.363,22.569L66.333,19.599C74.402,11.53,85.887,7.842,97.174,9.723C114.227,12.569,126.727,27.321,126.727,44.622L126.727,46.058C126.727,50.241,126.034,54.35,124.672,58.211ZM124.672,58.211"/>
</g>
  <g id="Heavy-M" transform="matrix(1.0,0.0,0.0,1.0,2574.6067257756295,1027.4067453068794)">  <path stroke-linecap="butt" stroke-opacity="1" fill-rule="nonzero" stroke-dasharray="none" stroke="none" fill="#000000" stroke-width="1px" stroke-miterlimit="4" stroke-linejoin="miter" xmlns:xlink="http://www.w3.org/1999/xlink" fill-opacity="1" version="1.1" d="M56.507,114.916L11.782,73.161C10.742,72.195,9.752,71.156,8.836,70.091L30.37,70.091C35.964,70.091,41.013,66.725,43.166,61.552L45.765,55.315L57.967,82.418C58.908,84.522,60.962,85.883,63.264,85.908C65.566,85.932,67.67,84.67,68.71,82.616L79.204,61.602L79.625,62.443C81.976,67.146,86.778,70.116,92.025,70.116L117.89,70.116C116.975,71.181,115.984,72.22,114.945,73.185L70.219,114.916C68.363,116.649,65.913,117.614,63.363,117.614C60.814,117.614,58.364,116.649,56.507,114.916ZM124.672,58.211L92.001,58.211C91.258,58.211,90.565,57.79,90.218,57.122L84.476,45.662C83.461,43.657,81.407,42.37,79.155,42.37C76.902,42.37,74.848,43.632,73.833,45.662L63.586,66.156L50.963,37.964C49.998,35.811,47.819,34.425,45.468,34.474C43.117,34.524,40.988,35.935,40.072,38.137L32.201,57.023C31.904,57.765,31.162,58.236,30.37,58.236L3.96,58.236C3.317,58.236,2.723,58.335,2.153,58.508C0.743,54.548,0,50.34,0,46.058L0,44.622C0,27.321,12.499,12.569,29.553,9.723C40.84,7.842,52.324,11.53,60.393,19.599L63.363,22.569L66.333,19.599C74.402,11.53,85.887,7.842,97.174,9.723C114.227,12.569,126.727,27.321,126.727,44.622L126.727,46.058C126.727,50.241,126.034,54.35,124.672,58.211ZM124.672,58.211"/>
</g>
  <g id="Bold-M" transform="matrix(1.0,0.0,0.0,1.0,2277.8967257756294,1027.4067453068794)">  <path stroke-dasharray="none" version="1.1" fill-opacity="1" stroke-linejoin="miter" fill-rule="nonzero" stroke="none" fill="#000000" xmlns:xlink="http://www.w3.org/1999/xlink" stroke-miterlimit="4" stroke-width="1px" stroke-opacity="1" stroke-linecap="butt" d="M56.507,114.916L11.782,73.161C10.742,72.195,9.752,71.156,8.836,70.091L30.37,70.091C35.964,70.091,41.013,66.725,43.166,61.552L45.765,55.315L57.967,82.418C58.908,84.522,60.962,85.883,63.264,85.908C65.566,85.932,67.67,84.67,68.71,82.616L79.204,61.602L79.625,62.443C81.976,67.146,86.778,70.116,92.025,70.116L117.89,70.116C116.975,71.181,115.984,72.22,114.945,73.185L70.219,114.916C68.363,116.649,65.913,117.614,63.363,117.614C60.814,117.614,58.364,116.649,56.507,114.916ZM124.672,58.211L92.001,58.211C91.258,58.211,90.565,57.79,90.218,57.122L84.476,45.662C83.461,43.657,81.407,42.37,79.155,42.37C76.902,42.37,74.848,43.632,73.833,45.662L63.586,66.156L50.963,37.964C49.998,35.811,47.819,34.425,45.468,34.474C43.117,34.524,40.988,35.935,40.072,38.137L32.201,57.023C31.904,57.765,31.162,58.236,30.37,58.236L3.96,58.236C3.317,58.236,2.723,58.335,2.153,58.508C0.743,54.548,0,50.34,0,46.058L0,44.622C0,27.321,12.499,12.569,29.553,9.723C40.84,7.842,52.324,11.53,60.393,19.599L63.363,22.569L66.333,19.599C74.402,11.53,85.887,7.842,97.174,9.723C114.227,12.569,126.727,27.321,126.727,44.622L126.727,46.058C126.727,50.241,126.034,54.35,124.672,58.211ZM124.672,58.211"/>
</g>
  <g id="Semibold-M" transform="matrix(1.0,0.0,0.0,1.0,1981.1867257756294,1027.4067453068794)">  <path stroke-linejoin="miter" fill="#000000" stroke-opacity="1" version="1.1" fill-opacity="1" stroke-width="1px" stroke-linecap="butt" xmlns:xlink="http://www.w3.org/1999/xlink" stroke-miterlimit="4" stroke-dasharray="none" stroke="none" fill-rule="nonzero" d="M56.507,114.916L11.782,73.161C10.742,72.195,9.752,71.156,8.836,70.091L30.37,70.091C35.964,70.091,41.013,66.725,43.166,61.552L45.765,55.315L57.967,82.418C58.908,84.522,60.962,85.883,63.264,85.908C65.566,85.932,67.67,84.67,68.71,82.616L79.204,61.602L79.625,62.443C81.976,67.146,86.778,70.116,92.025,70.116L117.89,70.116C116.975,71.181,115.984,72.22,114.945,73.185L70.219,114.916C68.363,116.649,65.913,117.614,63.363,117.614C60.814,117.614,58.364,116.649,56.507,114.916ZM124.672,58.211L92.001,58.211C91.258,58.211,90.565,57.79,90.218,57.122L84.476,45.662C83.461,43.657,81.407,42.37,79.155,42.37C76.902,42.37,74.848,43.632,73.833,45.662L63.586,66.156L50.963,37.964C49.998,35.811,47.819,34.425,45.468,34.474C43.117,34.524,40.988,35.935,40.072,38.137L32.201,57.023C31.904,57.765,31.162,58.236,30.37,58.236L3.96,58.236C3.317,58.236,2.723,58.335,2.153,58.508C0.743,54.548,0,50.34,0,46.058L0,44.622C0,27.321,12.499,12.569,29.553,9.723C40.84,7.842,52.324,11.53,60.393,19.599L63.363,22.569L66.333,19.599C74.402,11.53,85.887,7.842,97.174,9.723C114.227,12.569,126.727,27.321,126.727,44.622L126.727,46.058C126.727,50.241,126.034,54.35,124.672,58.211ZM124.672,58.211"/>
</g>
  <g id="Medium-M" transform="matrix(1.0,0.0,0.0,1.0,1684.4767257756293,1027.4067453068794)">  <path stroke-width="1px" stroke="none" fill-opacity="1" stroke-dasharray="none" stroke-linecap="butt" stroke-miterlimit="4" stroke-linejoin="miter" fill-rule="nonzero" xmlns:xlink="http://www.w3.org/1999/xlink" fill="#000000" version="1.1" stroke-opacity="1" d="M56.507,114.916L11.782,73.161C10.742,72.195,9.752,71.156,8.836,70.091L30.37,70.091C35.964,70.091,41.013,66.725,43.166,61.552L45.765,55.315L57.967,82.418C58.908,84.522,60.962,85.883,63.264,85.908C65.566,85.932,67.67,84.67,68.71,82.616L79.204,61.602L79.625,62.443C81.976,67.146,86.778,70.116,92.025,70.116L117.89,70.116C116.975,71.181,115.984,72.22,114.945,73.185L70.219,114.916C68.363,116.649,65.913,117.614,63.363,117.614C60.814,117.614,58.364,116.649,56.507,114.916ZM124.672,58.211L92.001,58.211C91.258,58.211,90.565,57.79,90.218,57.122L84.476,45.662C83.461,43.657,81.407,42.37,79.155,42.37C76.902,42.37,74.848,43.632,73.833,45.662L63.586,66.156L50.963,37.964C49.998,35.811,47.819,34.425,45.468,34.474C43.117,34.524,40.988,35.935,40.072,38.137L32.201,57.023C31.904,57.765,31.162,58.236,30.37,58.236L3.96,58.236C3.317,58.236,2.723,58.335,2.153,58.508C0.743,54.548,0,50.34,0,46.058L0,44.622C0,27.321,12.499,12.569,29.553,9.723C40.84,7.842,52.324,11.53,60.393,19.599L63.363,22.569L66.333,19.599C74.402,11.53,85.887,7.842,97.174,9.723C114.227,12.569,126.727,27.321,126.727,44.622L126.727,46.058C126.727,50.241,126.034,54.35,124.672,58.211ZM124.672,58.211"/>
</g>
  <g id="Regular-M" transform="matrix(1.0,0.0,0.0,1.0,1387.7667257756293,1027.4067453068794)">  <path stroke-linecap="butt" fill="#000000" fill-opacity="1" stroke="none" xmlns:xlink="http://www.w3.org/1999/xlink" stroke-width="1px" version="1.1" fill-rule="nonzero" stroke-opacity="1" stroke-linejoin="miter" stroke-dasharray="none" stroke-miterlimit="4" d="M56.507,114.916L11.782,73.161C10.742,72.195,9.752,71.156,8.836,70.091L30.37,70.091C35.964,70.091,41.013,66.725,43.166,61.552L45.765,55.315L57.967,82.418C58.908,84.522,60.962,85.883,63.264,85.908C65.566,85.932,67.67,84.67,68.71,82.616L79.204,61.602L79.625,62.443C81.976,67.146,86.778,70.116,92.025,70.116L117.89,70.116C116.975,71.181,115.984,72.22,114.945,73.185L70.219,114.916C68.363,116.649,65.913,117.614,63.363,117.614C60.814,117.614,58.364,116.649,56.507,114.916ZM124.672,58.211L92.001,58.211C91.258,58.211,90.565,57.79,90.218,57.122L84.476,45.662C83.461,43.657,81.407,42.37,79.155,42.37C76.902,42.37,74.848,43.632,73.833,45.662L63.586,66.156L50.963,37.964C49.998,35.811,47.819,34.425,45.468,34.474C43.117,34.524,40.988,35.935,40.072,38.137L32.201,57.023C31.904,57.765,31.162,58.236,30.37,58.236L3.96,58.236C3.317,58.236,2.723,58.335,2.153,58.508C0.743,54.548,0,50.34,0,46.058L0,44.622C0,27.321,12.499,12.569,29.553,9.723C40.84,7.842,52.324,11.53,60.393,19.599L63.363,22.569L66.333,19.599C74.402,11.53,85.887,7.842,97.174,9.723C114.227,12.569,126.727,27.321,126.727,44.622L126.727,46.058C126.727,50.241,126.034,54.35,124.672,58.211ZM124.672,58.211"/>
</g>
  <g id="Light-M" transform="matrix(1.0,0.0,0.0,1.0,1091.0567257756295,1027.4067453068794)">  <path fill-opacity="1" fill="#000000" stroke-miterlimit="4" stroke-width="1px" fill-rule="nonzero" stroke-linecap="butt" xmlns:xlink="http://www.w3.org/1999/xlink" stroke-dasharray="none" stroke-opacity="1" stroke-linejoin="miter" stroke="none" version="1.1" d="M56.507,114.916L11.782,73.161C10.742,72.195,9.752,71.156,8.836,70.091L30.37,70.091C35.964,70.091,41.013,66.725,43.166,61.552L45.765,55.315L57.967,82.418C58.908,84.522,60.962,85.883,63.264,85.908C65.566,85.932,67.67,84.67,68.71,82.616L79.204,61.602L79.625,62.443C81.976,67.146,86.778,70.116,92.025,70.116L117.89,70.116C116.975,71.181,115.984,72.22,114.945,73.185L70.219,114.916C68.363,116.649,65.913,117.614,63.363,117.614C60.814,117.614,58.364,116.649,56.507,114.916ZM124.672,58.211L92.001,58.211C91.258,58.211,90.565,57.79,90.218,57.122L84.476,45.662C83.461,43.657,81.407,42.37,79.155,42.37C76.902,42.37,74.848,43.632,73.833,45.662L63.586,66.156L50.963,37.964C49.998,35.811,47.819,34.425,45.468,34.474C43.117,34.524,40.988,35.935,40.072,38.137L32.201,57.023C31.904,57.765,31.162,58.236,30.37,58.236L3.96,58.236C3.317,58.236,2.723,58.335,2.153,58.508C0.743,54.548,0,50.34,0,46.058L0,44.622C0,27.321,12.499,12.569,29.553,9.723C40.84,7.842,52.324,11.53,60.393,19.599L63.363,22.569L66.333,19.599C74.402,11.53,85.887,7.842,97.174,9.723C114.227,12.569,126.727,27.321,126.727,44.622L126.727,46.058C126.727,50.241,126.034,54.35,124.672,58.211ZM124.672,58.211"/>
</g>
  <g id="Thin-M" transform="matrix(1.0,0.0,0.0,1.0,794.3467257756296,1027.4067453068794)">  <path stroke-dasharray="none" version="1.1" stroke-linejoin="miter" stroke-width="1px" stroke-linecap="butt" stroke-opacity="1" fill-rule="nonzero" xmlns:xlink="http://www.w3.org/1999/xlink" stroke="none" fill="#000000" stroke-miterlimit="4" fill-opacity="1" d="M56.507,114.916L11.782,73.161C10.742,72.195,9.752,71.156,8.836,70.091L30.37,70.091C35.964,70.091,41.013,66.725,43.166,61.552L45.765,55.315L57.967,82.418C58.908,84.522,60.962,85.883,63.264,85.908C65.566,85.932,67.67,84.67,68.71,82.616L79.204,61.602L79.625,62.443C81.976,67.146,86.778,70.116,92.025,70.116L117.89,70.116C116.975,71.181,115.984,72.22,114.945,73.185L70.219,114.916C68.363,116.649,65.913,117.614,63.363,117.614C60.814,117.614,58.364,116.649,56.507,114.916ZM124.672,58.211L92.001,58.211C91.258,58.211,90.565,57.79,90.218,57.122L84.476,45.662C83.461,43.657,81.407,42.37,79.155,42.37C76.902,42.37,74.848,43.632,73.833,45.662L63.586,66.156L50.963,37.964C49.998,35.811,47.819,34.425,45.468,34.474C43.117,34.524,40.988,35.935,40.072,38.137L32.201,57.023C31.904,57.765,31.162,58.236,30.37,58.236L3.96,58.236C3.317,58.236,2.723,58.335,2.153,58.508C0.743,54.548,0,50.34,0,46.058L0,44.622C0,27.321,12.499,12.569,29.553,9.723C40.84,7.842,52.324,11.53,60.393,19.599L63.363,22.569L66.333,19.599C74.402,11.53,85.887,7.842,97.174,9.723C114.227,12.569,126.727,27.321,126.727,44.622L126.727,46.058C126.727,50.241,126.034,54.35,124.672,58.211ZM124.672,58.211"/>
</g>
  <g id="Ultralight-M" transform="matrix(1.0,0.0,0.0,1.0,497.6367257756295,1027.4067453068794)">  <path stroke-opacity="1" xmlns:xlink="http://www.w3.org/1999/xlink" stroke-width="1px" stroke-dasharray="none" stroke-miterlimit="4" fill-opacity="1" fill-rule="nonzero" stroke="none" version="1.1" fill="#000000" stroke-linecap="butt" stroke-linejoin="miter" d="M56.507,114.916L11.782,73.161C10.742,72.195,9.752,71.156,8.836,70.091L30.37,70.091C35.964,70.091,41.013,66.725,43.166,61.552L45.765,55.315L57.967,82.418C58.908,84.522,60.962,85.883,63.264,85.908C65.566,85.932,67.67,84.67,68.71,82.616L79.204,61.602L79.625,62.443C81.976,67.146,86.778,70.116,92.025,70.116L117.89,70.116C116.975,71.181,115.984,72.22,114.945,73.185L70.219,114.916C68.363,116.649,65.913,117.614,63.363,117.614C60.814,117.614,58.364,116.649,56.507,114.916ZM124.672,58.211L92.001,58.211C91.258,58.211,90.565,57.79,90.218,57.122L84.476,45.662C83.461,43.657,81.407,42.37,79.155,42.37C76.902,42.37,74.848,43.632,73.833,45.662L63.586,66.156L50.963,37.964C49.998,35.811,47.819,34.425,45.468,34.474C43.117,34.524,40.988,35.935,40.072,38.137L32.201,57.023C31.904,57.765,31.162,58.236,30.37,58.236L3.96,58.236C3.317,58.236,2.723,58.335,2.153,58.508C0.743,54.548,0,50.34,0,46.058L0,44.622C0,27.321,12.499,12.569,29.553,9.723C40.84,7.842,52.324,11.53,60.393,19.599L63.363,22.569L66.333,19.599C74.402,11.53,85.887,7.842,97.174,9.723C114.227,12.569,126.727,27.321,126.727,44.622L126.727,46.058C126.727,50.241,126.034,54.35,124.672,58.211ZM124.672,58.211"/>
</g>
  <g id="Black-S" transform="matrix(1.0,0.0,0.0,1.0,2885.066556282318,611.1565758135679)">  <path xmlns:xlink="http://www.w3.org/1999/xlink" stroke-miterlimit="4" fill="#000000" fill-rule="nonzero" stroke-linejoin="miter" stroke-width="1px" version="1.1" stroke-linecap="butt" fill-opacity="1" stroke-opacity="1" stroke-dasharray="none" stroke="none" d="M44.245,89.979L9.225,57.285C8.411,56.529,7.636,55.715,6.919,54.882L23.78,54.882C28.16,54.882,32.113,52.246,33.799,48.195L35.834,43.312L45.389,64.533C46.125,66.18,47.734,67.246,49.536,67.266C51.338,67.285,52.986,66.297,53.8,64.688L62.017,48.234L62.346,48.893C64.187,52.575,67.947,54.901,72.056,54.901L92.308,54.901C91.591,55.734,90.816,56.548,90.002,57.304L54.982,89.979C53.528,91.336,51.61,92.092,49.613,92.092C47.617,92.092,45.699,91.336,44.245,89.979ZM97.618,45.579L72.036,45.579C71.455,45.579,70.912,45.25,70.641,44.726L66.145,35.753C65.35,34.183,63.742,33.176,61.978,33.176C60.214,33.176,58.606,34.164,57.811,35.753L49.788,51.8L39.904,29.726C39.148,28.04,37.443,26.955,35.602,26.993C33.76,27.032,32.094,28.137,31.377,29.862L25.214,44.649C24.981,45.23,24.4,45.598,23.78,45.598L3.101,45.598C2.597,45.598,2.132,45.676,1.686,45.812C0.581,42.711,0,39.416,0,36.063L0,34.939C0,21.392,9.787,9.842,23.14,7.613C31.977,6.14,40.97,9.028,47.288,15.346L49.613,17.671L51.939,15.346C58.257,9.028,67.249,6.14,76.087,7.613C89.44,9.842,99.227,21.392,99.227,34.939L99.227,36.063C99.227,39.339,98.684,42.556,97.618,45.579ZM97.618,45.579"/>
</g>
  <g id="Heavy-S" transform="matrix(1.0,0.0,0.0,1.0,2588.356556282318,611.1565758135679)">  <path stroke-linecap="butt" stroke-opacity="1" fill-rule="nonzero" stroke-dasharray="none" stroke="none" fill="#000000" stroke-width="1px" stroke-miterlimit="4" stroke-linejoin="miter" xmlns:xlink="http://www.w3.org/1999/xlink" fill-opacity="1" version="1.1" d="M44.245,89.979L9.225,57.285C8.411,56.529,7.636,55.715,6.919,54.882L23.78,54.882C28.16,54.882,32.113,52.246,33.799,48.195L35.834,43.312L45.389,64.533C46.125,66.18,47.734,67.246,49.536,67.266C51.338,67.285,52.986,66.297,53.8,64.688L62.017,48.234L62.346,48.893C64.187,52.575,67.947,54.901,72.056,54.901L92.308,54.901C91.591,55.734,90.816,56.548,90.002,57.304L54.982,89.979C53.528,91.336,51.61,92.092,49.613,92.092C47.617,92.092,45.699,91.336,44.245,89.979ZM97.618,45.579L72.036,45.579C71.455,45.579,70.912,45.25,70.641,44.726L66.145,35.753C65.35,34.183,63.742,33.176,61.978,33.176C60.214,33.176,58.606,34.164,57.811,35.753L49.788,51.8L39.904,29.726C39.148,28.04,37.443,26.955,35.602,26.993C33.76,27.032,32.094,28.137,31.377,29.862L25.214,44.649C24.981,45.23,24.4,45.598,23.78,45.598L3.101,45.598C2.597,45.598,2.132,45.676,1.686,45.812C0.581,42.711,0,39.416,0,36.063L0,34.939C0,21.392,9.787,9.842,23.14,7.613C31.977,6.14,40.97,9.028,47.288,15.346L49.613,17.671L51.939,15.346C58.257,9.028,67.249,6.14,76.087,7.613C89.44,9.842,99.227,21.392,99.227,34.939L99.227,36.063C99.227,39.339,98.684,42.556,97.618,45.579ZM97.618,45.579"/>
</g>
  <g id="Bold-S" transform="matrix(1.0,0.0,0.0,1.0,2291.6465562823178,611.1565758135679)">  <path stroke-dasharray="none" version="1.1" fill-opacity="1" stroke-linejoin="miter" fill-rule="nonzero" stroke="none" fill="#000000" xmlns:xlink="http://www.w3.org/1999/xlink" stroke-miterlimit="4" stroke-width="1px" stroke-opacity="1" stroke-linecap="butt" d="M44.245,89.979L9.225,57.285C8.411,56.529,7.636,55.715,6.919,54.882L23.78,54.882C28.16,54.882,32.113,52.246,33.799,48.195L35.834,43.312L45.389,64.533C46.125,66.18,47.734,67.246,49.536,67.266C51.338,67.285,52.986,66.297,53.8,64.688L62.017,48.234L62.346,48.893C64.187,52.575,67.947,54.901,72.056,54.901L92.308,54.901C91.591,55.734,90.816,56.548,90.002,57.304L54.982,89.979C53.528,91.336,51.61,92.092,49.613,92.092C47.617,92.092,45.699,91.336,44.245,89.979ZM97.618,45.579L72.036,45.579C71.455,45.579,70.912,45.25,70.641,44.726L66.145,35.753C65.35,34.183,63.742,33.176,61.978,33.176C60.214,33.176,58.606,34.164,57.811,35.753L49.788,51.8L39.904,29.726C39.148,28.04,37.443,26.955,35.602,26.993C33.76,27.032,32.094,28.137,31.377,29.862L25.214,44.649C24.981,45.23,24.4,45.598,23.78,45.598L3.101,45.598C2.597,45.598,2.132,45.676,1.686,45.812C0.581,42.711,0,39.416,0,36.063L0,34.939C0,21.392,9.787,9.842,23.14,7.613C31.977,6.14,40.97,9.028,47.288,15.346L49.613,17.671L51.939,15.346C58.257,9.028,67.249,6.14,76.087,7.613C89.44,9.842,99.227,21.392,99.227,34.939L99.227,36.063C99.227,39.339,98.684,42.556,97.618,45.579ZM97.618,45.579"/>
</g>
  <g id="Semibold-S" transform="matrix(1.0,0.0,0.0,1.0,1994.936556282318,611.1565758135679)">  <path stroke-linejoin="miter" fill="#000000" stroke-opacity="1" version="1.1" fill-opacity="1" stroke-width="1px" stroke-linecap="butt" xmlns:xlink="http://www.w3.org/1999/xlink" stroke-miterlimit="4" stroke-dasharray="none" stroke="none" fill-rule="nonzero" d="M44.245,89.979L9.225,57.285C8.411,56.529,7.636,55.715,6.919,54.882L23.78,54.882C28.16,54.882,32.113,52.246,33.799,48.195L35.834,43.312L45.389,64.533C46.125,66.18,47.734,67.246,49.536,67.266C51.338,67.285,52.986,66.297,53.8,64.688L62.017,48.234L62.346,48.893C64.187,52.575,67.947,54.901,72.056,54.901L92.308,54.901C91.591,55.734,90.816,56.548,90.002,57.304L54.982,89.979C53.528,91.336,51.61,92.092,49.613,92.092C47.617,92.092,45.699,91.336,44.245,89.979ZM97.618,45.579L72.036,45.579C71.455,45.579,70.912,45.25,70.641,44.726L66.145,35.753C65.35,34.183,63.742,33.176,61.978,33.176C60.214,33.176,58.606,34.164,57.811,35.753L49.788,51.8L39.904,29.726C39.148,28.04,37.443,26.955,35.602,26.993C33.76,27.032,32.094,28.137,31.377,29.862L25.214,44.649C24.981,45.23,24.4,45.598,23.78,45.598L3.101,45.598C2.597,45.598,2.132,45.676,1.686,45.812C0.581,42.711,0,39.416,0,36.063L0,34.939C0,21.392,9.787,9.842,23.14,7.613C31.977,6.14,40.97,9.028,47.288,15.346L49.613,17.671L51.939,15.346C58.257,9.028,67.249,6.14,76.087,7.613C89.44,9.842,99.227,21.392,99.227,34.939L99.227,36.063C99.227,39.339,98.684,42.556,97.618,45.579ZM97.618,45.579"/>
</g>
  <g id="Medium-S" transform="matrix(1.0,0.0,0.0,1.0,1698.226556282318,611.1565758135679)">  <path stroke-width="1px" stroke="none" fill-opacity="1" stroke-dasharray="none" stroke-linecap="butt" stroke-miterlimit="4" stroke-linejoin="miter" fill-rule="nonzero" xmlns:xlink="http://www.w3.org/1999/xlink" fill="#000000" version="1.1" stroke-opacity="1" d="M44.245,89.979L9.225,57.285C8.411,56.529,7.636,55.715,6.919,54.882L23.78,54.882C28.16,54.882,32.113,52.246,33.799,48.195L35.834,43.312L45.389,64.533C46.125,66.18,47.734,67.246,49.536,67.266C51.338,67.285,52.986,66.297,53.8,64.688L62.017,48.234L62.346,48.893C64.187,52.575,67.947,54.901,72.056,54.901L92.308,54.901C91.591,55.734,90.816,56.548,90.002,57.304L54.982,89.979C53.528,91.336,51.61,92.092,49.613,92.092C47.617,92.092,45.699,91.336,44.245,89.979ZM97.618,45.579L72.036,45.579C71.455,45.579,70.912,45.25,70.641,44.726L66.145,35.753C65.35,34.183,63.742,33.176,61.978,33.176C60.214,33.176,58.606,34.164,57.811,35.753L49.788,51.8L39.904,29.726C39.148,28.04,37.443,26.955,35.602,26.993C33.76,27.032,32.094,28.137,31.377,29.862L25.214,44.649C24.981,45.23,24.4,45.598,23.78,45.598L3.101,45.598C2.597,45.598,2.132,45.676,1.686,45.812C0.581,42.711,0,39.416,0,36.063L0,34.939C0,21.392,9.787,9.842,23.14,7.613C31.977,6.14,40.97,9.028,47.288,15.346L49.613,17.671L51.939,15.346C58.257,9.028,67.249,6.14,76.087,7.613C89.44,9.842,99.227,21.392,99.227,34.939L99.227,36.063C99.227,39.339,98.684,42.556,97.618,45.579ZM97.618,45.579"/>
</g>
  <g id="Regular-S" transform="matrix(1.0,0.0,0.0,1.0,1401.5165562823179,611.1565758135679)">  <path stroke-linecap="butt" fill="#000000" fill-opacity="1" stroke="none" xmlns:xlink="http://www.w3.org/1999/xlink" stroke-width="1px" version="1.1" fill-rule="nonzero" stroke-opacity="1" stroke-linejoin="miter" stroke-dasharray="none" stroke-miterlimit="4" d="M44.245,89.979L9.225,57.285C8.411,56.529,7.636,55.715,6.919,54.882L23.78,54.882C28.16,54.882,32.113,52.246,33.799,48.195L35.834,43.312L45.389,64.533C46.125,66.18,47.734,67.246,49.536,67.266C51.338,67.285,52.986,66.297,53.8,64.688L62.017,48.234L62.346,48.893C64.187,52.575,67.947,54.901,72.056,54.901L92.308,54.901C91.591,55.734,90.816,56.548,90.002,57.304L54.982,89.979C53.528,91.336,51.61,92.092,49.613,92.092C47.617,92.092,45.699,91.336,44.245,89.979ZM97.618,45.579L72.036,45.579C71.455,45.579,70.912,45.25,70.641,44.726L66.145,35.753C65.35,34.183,63.742,33.176,61.978,33.176C60.214,33.176,58.606,34.164,57.811,35.753L49.788,51.8L39.904,29.726C39.148,28.04,37.443,26.955,35.602,26.993C33.76,27.032,32.094,28.137,31.377,29.862L25.214,44.649C24.981,45.23,24.4,45.598,23.78,45.598L3.101,45.598C2.597,45.598,2.132,45.676,1.686,45.812C0.581,42.711,0,39.416,0,36.063L0,34.939C0,21.392,9.787,9.842,23.14,7.613C31.977,6.14,40.97,9.028,47.288,15.346L49.613,17.671L51.939,15.346C58.257,9.028,67.249,6.14,76.087,7.613C89.44,9.842,99.227,21.392,99.227,34.939L99.227,36.063C99.227,39.339,98.684,42.556,97.618,45.579ZM97.618,45.579"/>
</g>
  <g id="Light-S" transform="matrix(1.0,0.0,0.0,1.0,1104.806556282318,611.1565758135679)">  <path fill-opacity="1" fill="#000000" stroke-miterlimit="4" stroke-width="1px" fill-rule="nonzero" stroke-linecap="butt" xmlns:xlink="http://www.w3.org/1999/xlink" stroke-dasharray="none" stroke-opacity="1" stroke-linejoin="miter" stroke="none" version="1.1" d="M44.245,89.979L9.225,57.285C8.411,56.529,7.636,55.715,6.919,54.882L23.78,54.882C28.16,54.882,32.113,52.246,33.799,48.195L35.834,43.312L45.389,64.533C46.125,66.18,47.734,67.246,49.536,67.266C51.338,67.285,52.986,66.297,53.8,64.688L62.017,48.234L62.346,48.893C64.187,52.575,67.947,54.901,72.056,54.901L92.308,54.901C91.591,55.734,90.816,56.548,90.002,57.304L54.982,89.979C53.528,91.336,51.61,92.092,49.613,92.092C47.617,92.092,45.699,91.336,44.245,89.979ZM97.618,45.579L72.036,45.579C71.455,45.579,70.912,45.25,70.641,44.726L66.145,35.753C65.35,34.183,63.742,33.176,61.978,33.176C60.214,33.176,58.606,34.164,57.811,35.753L49.788,51.8L39.904,29.726C39.148,28.04,37.443,26.955,35.602,26.993C33.76,27.032,32.094,28.137,31.377,29.862L25.214,44.649C24.981,45.23,24.4,45.598,23.78,45.598L3.101,45.598C2.597,45.598,2.132,45.676,1.686,45.812C0.581,42.711,0,39.416,0,36.063L0,34.939C0,21.392,9.787,9.842,23.14,7.613C31.977,6.14,40.97,9.028,47.288,15.346L49.613,17.671L51.939,15.346C58.257,9.028,67.249,6.14,76.087,7.613C89.44,9.842,99.227,21.392,99.227,34.939L99.227,36.063C99.227,39.339,98.684,42.556,97.618,45.579ZM97.618,45.579"/>
</g>
  <g id="Thin-S" transform="matrix(1.0,0.0,0.0,1.0,808.0965562823179,611.1565758135679)">  <path stroke-dasharray="none" version="1.1" stroke-linejoin="miter" stroke-width="1px" stroke-linecap="butt" stroke-opacity="1" fill-rule="nonzero" xmlns:xlink="http://www.w3.org/1999/xlink" stroke="none" fill="#000000" stroke-miterlimit="4" fill-opacity="1" d="M44.245,89.979L9.225,57.285C8.411,56.529,7.636,55.715,6.919,54.882L23.78,54.882C28.16,54.882,32.113,52.246,33.799,48.195L35.834,43.312L45.389,64.533C46.125,66.18,47.734,67.246,49.536,67.266C51.338,67.285,52.986,66.297,53.8,64.688L62.017,48.234L62.346,48.893C64.187,52.575,67.947,54.901,72.056,54.901L92.308,54.901C91.591,55.734,90.816,56.548,90.002,57.304L54.982,89.979C53.528,91.336,51.61,92.092,49.613,92.092C47.617,92.092,45.699,91.336,44.245,89.979ZM97.618,45.579L72.036,45.579C71.455,45.579,70.912,45.25,70.641,44.726L66.145,35.753C65.35,34.183,63.742,33.176,61.978,33.176C60.214,33.176,58.606,34.164,57.811,35.753L49.788,51.8L39.904,29.726C39.148,28.04,37.443,26.955,35.602,26.993C33.76,27.032,32.094,28.137,31.377,29.862L25.214,44.649C24.981,45.23,24.4,45.598,23.78,45.598L3.101,45.598C2.597,45.598,2.132,45.676,1.686,45.812C0.581,42.711,0,39.416,0,36.063L0,34.939C0,21.392,9.787,9.842,23.14,7.613C31.977,6.14,40.97,9.028,47.288,15.346L49.613,17.671L51.939,15.346C58.257,9.028,67.249,6.14,76.087,7.613C89.44,9.842,99.227,21.392,99.227,34.939L99.227,36.063C99.227,39.339,98.684,42.556,97.618,45.579ZM97.618,45.579"/>
</g>
  <g id="Ultralight-S" transform="matrix(1.0,0.0,0.0,1.0,511.3865562823179,611.1565758135679)">  <path stroke-opacity="1" xmlns:xlink="http://www.w3.org/1999/xlink" stroke-width="1px" stroke-dasharray="none" stroke-miterlimit="4" fill-opacity="1" fill-rule="nonzero" stroke="none" version="1.1" fill="#000000" stroke-linecap="butt" stroke-linejoin="miter" d="M44.245,89.979L9.225,57.285C8.411,56.529,7.636,55.715,6.919,54.882L23.78,54.882C28.16,54.882,32.113,52.246,33.799,48.195L35.834,43.312L45.389,64.533C46.125,66.18,47.734,67.246,49.536,67.266C51.338,67.285,52.986,66.297,53.8,64.688L62.017,48.234L62.346,48.893C64.187,52.575,67.947,54.901,72.056,54.901L92.308,54.901C91.591,55.734,90.816,56.548,90.002,57.304L54.982,89.979C53.528,91.336,51.61,92.092,49.613,92.092C47.617,92.092,45.699,91.336,44.245,89.979ZM97.618,45.579L72.036,45.579C71.455,45.579,70.912,45.25,70.641,44.726L66.145,35.753C65.35,34.183,63.742,33.176,61.978,33.176C60.214,33.176,58.606,34.164,57.811,35.753L49.788,51.8L39.904,29.726C39.148,28.04,37.443,26.955,35.602,26.993C33.76,27.032,32.094,28.137,31.377,29.862L25.214,44.649C24.981,45.23,24.4,45.598,23.78,45.598L3.101,45.598C2.597,45.598,2.132,45.676,1.686,45.812C0.581,42.711,0,39.416,0,36.063L0,34.939C0,21.392,9.787,9.842,23.14,7.613C31.977,6.14,40.97,9.028,47.288,15.346L49.613,17.671L51.939,15.346C58.257,9.028,67.249,6.14,76.087,7.613C89.44,9.842,99.227,21.392,99.227,34.939L99.227,36.063C99.227,39.339,98.684,42.556,97.618,45.579ZM97.618,45.579"/>
</g>
 </g>
</svg>
