<?xml version="1.0" encoding="UTF-8"?>
<!-- Generator: CustomSymbols v2.7.2.48 by @serious_bret https://bretlester.com/app_content/CustomSymbols/ -->
<!-- Guides: Left/Right 0.11/0.11 Cap/Base 0.222/0.222 -->
<!-- Settings: RefScale 1.0 Min/Max Stroke Scales 0.5/2.21 -->
<!DOCTYPE svg
PUBLIC "-//W3C//DTD SVG 1.1//EN"
       "http://www.w3.org/Graphics/SVG/1.1/DTD/svg11.dtd">
<svg version="1.1" xmlns="http://www.w3.org/2000/svg" xmlns:xlink="http://www.w3.org/1999/xlink" width="3300" height="2200">
<![CDATA[<?xml version="1.0" encoding="UTF-8"?>
<svg width="96px" height="96px" viewBox="0 0 96 96" version="1.1" xmlns="http://www.w3.org/2000/svg" xmlns:xlink="http://www.w3.org/1999/xlink">
    <title>icon/medical/pump-medical-solid</title>
    <g id="icon/medical/pump-medical-solid" stroke="none" stroke-width="1" fill="none" fill-rule="evenodd">
        <path d="M29.4796152,6 L29.4796152,24 L53.4796474,24 L53.4796474,18 L64.7484124,18 C65.5359135,18 66.3046645,18.31875 66.8671653,18.88125 L73.2234238,25.2375 C75.5671769,27.58125 79.373432,27.58125 81.7171851,25.2375 C84.0609383,22.89375 84.0609383,19.0875 81.7171851,16.74375 L75.3609266,10.3875 C72.5484229,7.575 68.7234178,6 64.7484124,6 L53.4796474,6 C53.4796474,2.68125 50.7983938,0 47.4796393,0 L35.4796152,0 C32.1608688,0 29.4796152,2.68125 29.4796152,6 Z M27.4921126,30 C21.2483542,30 16.0545973,34.78125 15.5295966,41.00625 L12.0420919,83.00625 C11.4608411,90 16.9733485,96 24.0046079,96 L58.9546547,96 C65.9671641,96 71.4984215,90 70.9171707,83.00625 L67.410916,41.00625 C66.8859153,34.78125 61.6921583,30 55.4484,30 L27.4921126,30 Z M45.9796373,52.5 L45.9796373,58.5 L51.9796454,58.5 C54.4733987,58.5 56.4796514,60.50625 56.4796514,63 C56.4796514,65.49375 54.4733987,67.5 51.9796454,67.5 L45.9796373,67.5 L45.9796373,73.5 C45.9796373,75.99375 43.9733846,78 41.4796313,78 C38.985878,78 36.9796253,75.99375 36.9796253,73.5 L36.9796253,67.5 L30.9796112,67.5 C28.4858639,67.5 26.4796112,65.49375 26.4796112,63 C26.4796112,60.50625 28.4858639,58.5 30.9796112,58.5 L36.9796253,58.5 L36.9796253,52.5 C36.9796253,50.00625 38.985878,48 41.4796313,48 C43.9733846,48 45.9796373,50.00625 45.9796373,52.5 Z" id="Shape" fill="#FB4C6C" fill-rule="nonzero"></path>
    </g>
</svg>]]>
 <g id="Notes">
  <rect height="2200" id="artboard" style="fill:white;opacity:1" width="3300" x="0" y="0"/>
  <line id="" style="fill:none;stroke:black;opacity:1;stroke-width:0.5;" x1="263" x2="3036" y1="292" y2="292"/>
  <text id="reftext1" style="stroke:none;fill:black;font-family:-apple-system,&quot;SF Pro Display&quot;,&quot;SF Pro Text&quot;,Helvetica,sans-serif;font-weight:bold;" transform="matrix(1 0 0 1 263 322)">Weight/Scale Variations</text>
  <text id="reftext2" style="stroke:none;fill:black;font-family:-apple-system,&quot;SF Pro Display&quot;,&quot;SF Pro Text&quot;,Helvetica,sans-serif;text-anchor:middle;" transform="matrix(1 0 0 1 559.711 322)">Ultralight</text>
  <text style="stroke:none;fill:black;font-family:-apple-system,&quot;SF Pro Display&quot;,&quot;SF Pro Text&quot;,Helvetica,sans-serif;text-anchor:middle;" transform="matrix(1 0 0 1 856.422 322)">Thin</text>
  <text style="stroke:none;fill:black;font-family:-apple-system,&quot;SF Pro Display&quot;,&quot;SF Pro Text&quot;,Helvetica,sans-serif;text-anchor:middle;" transform="matrix(1 0 0 1 1153.13 322)">Light</text>
  <text style="stroke:none;fill:black;font-family:-apple-system,&quot;SF Pro Display&quot;,&quot;SF Pro Text&quot;,Helvetica,sans-serif;text-anchor:middle;" transform="matrix(1 0 0 1 1449.84 322)">Regular</text>
  <text style="stroke:none;fill:black;font-family:-apple-system,&quot;SF Pro Display&quot;,&quot;SF Pro Text&quot;,Helvetica,sans-serif;text-anchor:middle;" transform="matrix(1 0 0 1 1746.56 322)">Medium</text>
  <text style="stroke:none;fill:black;font-family:-apple-system,&quot;SF Pro Display&quot;,&quot;SF Pro Text&quot;,Helvetica,sans-serif;text-anchor:middle;" transform="matrix(1 0 0 1 2043.27 322)">Semibold</text>
  <text style="stroke:none;fill:black;font-family:-apple-system,&quot;SF Pro Display&quot;,&quot;SF Pro Text&quot;,Helvetica,sans-serif;text-anchor:middle;" transform="matrix(1 0 0 1 2339.98 322)">Bold</text>
  <text style="stroke:none;fill:black;font-family:-apple-system,&quot;SF Pro Display&quot;,&quot;SF Pro Text&quot;,Helvetica,sans-serif;text-anchor:middle;" transform="matrix(1 0 0 1 2636.69 322)">Heavy</text>
  <text style="stroke:none;fill:black;font-family:-apple-system,&quot;SF Pro Display&quot;,&quot;SF Pro Text&quot;,Helvetica,sans-serif;text-anchor:middle;" transform="matrix(1 0 0 1 2933.4 322)">Black</text>
  <line id="" style="fill:none;stroke:black;opacity:1;stroke-width:0.5;" x1="263" x2="3036" y1="1903" y2="1903"/>
  <g id="" transform="matrix(1 0 0 1 263 1933)">
   <path d="M9.24805 0.830078C13.5547 0.830078 17.1387-2.74414 17.1387-7.05078C17.1387-11.3574 13.5449-14.9316 9.23828-14.9316C4.94141-14.9316 1.36719-11.3574 1.36719-7.05078C1.36719-2.74414 4.95117 0.830078 9.24805 0.830078ZM9.24805-0.654297C5.70312-0.654297 2.87109-3.49609 2.87109-7.05078C2.87109-10.6055 5.69336-13.4473 9.23828-13.4473C12.793-13.4473 15.6348-10.6055 15.6445-7.05078C15.6543-3.49609 12.8027-0.654297 9.24805-0.654297ZM6.39648-6.31836L8.50586-6.31836L8.50586-4.19922C8.50586-3.75977 8.79883-3.45703 9.22852-3.45703C9.67773-3.45703 9.9707-3.75977 9.9707-4.19922L9.9707-6.31836L12.0996-6.31836C12.5391-6.31836 12.8418-6.61133 12.8418-7.04102C12.8418-7.48047 12.5391-7.7832 12.0996-7.7832L9.9707-7.7832L9.9707-9.89258C9.9707-10.3418 9.67773-10.6445 9.22852-10.6445C8.79883-10.6445 8.50586-10.3418 8.50586-9.89258L8.50586-7.7832L6.39648-7.7832C5.94727-7.7832 5.64453-7.48047 5.64453-7.04102C5.64453-6.61133 5.94727-6.31836 6.39648-6.31836Z"/>
  </g>
  <g id="" transform="matrix(1 0 0 1 281.506 1933)">
   <path d="M11.709 2.91016C17.1582 2.91016 21.6699-1.61133 21.6699-7.05078C21.6699-12.5 17.1484-17.0117 11.6992-17.0117C6.25977-17.0117 1.74805-12.5 1.74805-7.05078C1.74805-1.61133 6.26953 2.91016 11.709 2.91016ZM11.709 1.25C7.09961 1.25 3.41797-2.44141 3.41797-7.05078C3.41797-11.6602 7.08984-15.3516 11.6992-15.3516C16.3086-15.3516 20-11.6602 20.0098-7.05078C20.0195-2.44141 16.3184 1.25 11.709 1.25ZM7.98828-6.23047L10.8789-6.23047L10.8789-3.32031C10.8789-2.83203 11.2109-2.5 11.6895-2.5C12.1777-2.5 12.5195-2.83203 12.5195-3.32031L12.5195-6.23047L15.4297-6.23047C15.918-6.23047 16.25-6.5625 16.25-7.04102C16.25-7.5293 15.918-7.87109 15.4297-7.87109L12.5195-7.87109L12.5195-10.7617C12.5195-11.2695 12.1777-11.6016 11.6895-11.6016C11.2109-11.6016 10.8789-11.2598 10.8789-10.7617L10.8789-7.87109L7.98828-7.87109C7.48047-7.87109 7.14844-7.5293 7.14844-7.04102C7.14844-6.5625 7.49023-6.23047 7.98828-6.23047Z"/>
  </g>
  <g id="" transform="matrix(1 0 0 1 304.924 1933)">
   <path d="M14.9707 5.66406C21.9336 5.66406 27.6953-0.0976562 27.6953-7.05078C27.6953-14.0137 21.9238-19.7754 14.9609-19.7754C8.00781-19.7754 2.25586-14.0137 2.25586-7.05078C2.25586-0.0976562 8.01758 5.66406 14.9707 5.66406ZM14.9707 3.84766C8.93555 3.84766 4.08203-1.01562 4.08203-7.05078C4.08203-13.0957 8.92578-17.9492 14.9609-17.9492C21.0059-17.9492 25.8594-13.0957 25.8691-7.05078C25.8789-1.01562 21.0156 3.84766 14.9707 3.84766ZM10.0586-6.14258L14.0625-6.14258L14.0625-2.12891C14.0625-1.5918 14.4336-1.2207 14.9512-1.2207C15.4883-1.2207 15.8594-1.5918 15.8594-2.12891L15.8594-6.14258L19.8828-6.14258C20.4102-6.14258 20.791-6.51367 20.791-7.03125C20.791-7.56836 20.4199-7.94922 19.8828-7.94922L15.8594-7.94922L15.8594-11.9531C15.8594-12.5098 15.4883-12.8809 14.9512-12.8809C14.4336-12.8809 14.0625-12.5 14.0625-11.9531L14.0625-7.94922L10.0586-7.94922C9.50195-7.94922 9.13086-7.56836 9.13086-7.03125C9.13086-6.51367 9.51172-6.14258 10.0586-6.14258Z"/>
  </g>
  <text style="stroke:none;fill:black;font-family:-apple-system,&quot;SF Pro Display&quot;,&quot;SF Pro Text&quot;,Helvetica,sans-serif;font-weight:bold;" transform="matrix(1 0 0 1 263 1953)">Design Variations</text>
  <text style="stroke:none;fill:black;font-family:-apple-system,&quot;SF Pro Display&quot;,&quot;SF Pro Text&quot;,Helvetica,sans-serif;" transform="matrix(1 0 0 1 263 1971)">Symbols are supported in up to nine weights and three scales.</text>
  <text style="stroke:none;fill:black;font-family:-apple-system,&quot;SF Pro Display&quot;,&quot;SF Pro Text&quot;,Helvetica,sans-serif;" transform="matrix(1 0 0 1 263 1989)">For optimal layout with text and other symbols, vertically align</text>
  <text style="stroke:none;fill:black;font-family:-apple-system,&quot;SF Pro Display&quot;,&quot;SF Pro Text&quot;,Helvetica,sans-serif;" transform="matrix(1 0 0 1 263 2007)">symbols with the adjacent text.</text>
  <line id="" style="fill:none;stroke:#00AEEF;stroke-width:0.5;opacity:1.0;" x1="776" x2="776" y1="1919" y2="1933"/>
  <g id="" transform="matrix(1 0 0 1 776 1933)">
   <path d="M3.31055 0.126953C3.82812 0.126953 4.08203-0.0683594 4.26758-0.605469L5.52734-4.0625L11.2891-4.0625L12.5488-0.605469C12.7344-0.0683594 12.9883 0.126953 13.4961 0.126953C14.0137 0.126953 14.3457-0.185547 14.3457-0.673828C14.3457-0.839844 14.3164-0.986328 14.2383-1.20117L9.6582-13.3887C9.43359-13.9941 9.0332-14.2871 8.4082-14.2871C7.80273-14.2871 7.39258-13.9941 7.17773-13.3984L2.59766-1.19141C2.51953-0.976562 2.49023-0.830078 2.49023-0.664062C2.49023-0.175781 2.80273 0.126953 3.31055 0.126953ZM6.00586-5.53711L8.37891-12.1094L8.42773-12.1094L10.8008-5.53711Z"/>
  </g>
  <line id="" style="fill:none;stroke:#00AEEF;stroke-width:0.5;opacity:1.0;" x1="792.836" x2="792.836" y1="1919" y2="1933"/>
  <text style="stroke:none;fill:black;font-family:-apple-system,&quot;SF Pro Display&quot;,&quot;SF Pro Text&quot;,Helvetica,sans-serif;font-weight:bold;" transform="matrix(1 0 0 1 776 1953)">Margins</text>
  <text style="stroke:none;fill:black;font-family:-apple-system,&quot;SF Pro Display&quot;,&quot;SF Pro Text&quot;,Helvetica,sans-serif;" transform="matrix(1 0 0 1 776 1971)">Leading and trailing margins on the left and right side of each symbol</text>
  <text style="stroke:none;fill:black;font-family:-apple-system,&quot;SF Pro Display&quot;,&quot;SF Pro Text&quot;,Helvetica,sans-serif;" transform="matrix(1 0 0 1 776 1989)">can be adjusted by modifying the x-location of the margin guidelines.</text>
  <text style="stroke:none;fill:black;font-family:-apple-system,&quot;SF Pro Display&quot;,&quot;SF Pro Text&quot;,Helvetica,sans-serif;" transform="matrix(1 0 0 1 776 2007)">Modifications are automatically applied proportionally to all</text>
  <text style="stroke:none;fill:black;font-family:-apple-system,&quot;SF Pro Display&quot;,&quot;SF Pro Text&quot;,Helvetica,sans-serif;" transform="matrix(1 0 0 1 776 2025)">scales and weights.</text>
  <g id="" transform="matrix(1 0 0 1 1289 1933)">
   <path d="M2.8418 1.86523L4.54102 3.57422C5.40039 4.44336 6.38672 4.38477 7.31445 3.35938L17.4902-7.85156C17.7539-7.76367 18.0273-7.7832 18.3398-7.8418L19.4043-8.03711L20.0684-7.36328L20.0293-6.80664C19.9902-6.30859 20.1172-5.92773 20.6055-5.44922L21.3672-4.70703C21.8457-4.22852 22.4609-4.19922 22.9297-4.66797L25.8398-7.58789C26.3086-8.05664 26.2891-8.65234 25.8105-9.13086L25.0391-9.89258C24.5605-10.3711 24.1895-10.5273 23.7109-10.4883L23.1348-10.4395L22.4902-11.0742L22.7344-12.1973C22.8613-12.7637 22.7051-13.2031 22.1191-13.7891L19.9219-15.9766C16.582-19.2969 12.1484-19.2188 9.25781-16.3281C8.83789-15.918 8.80859-15.3418 9.04297-14.9512C9.27734-14.5898 9.73633-14.3555 10.3809-14.5215C11.8457-14.8633 13.3691-14.9219 14.7949-13.9844L14.209-12.5293C14.0137-12.0508 13.9844-11.6504 14.1113-11.2891L3.04688-0.898438C2.06055 0.0195312 1.98242 0.996094 2.8418 1.86523ZM10.752-15.957C13.1836-17.7344 16.4746-17.4316 18.7012-15.2051L21.1328-12.793C21.3672-12.5586 21.4062-12.373 21.3379-12.0312L21.0156-10.5469L22.5195-9.0625L23.5059-9.12109C23.7598-9.13086 23.8379-9.11133 24.0332-8.91602L24.6094-8.33984L22.168-5.89844L21.5918-6.47461C21.3965-6.66992 21.3672-6.74805 21.377-7.01172L21.4453-7.98828L19.9512-9.47266L18.4277-9.21875C18.1055-9.15039 17.959-9.17969 17.7148-9.41406L15.7129-11.416C15.459-11.6504 15.4297-11.8164 15.5859-12.1875L16.4648-14.2773C14.9023-15.7324 12.8711-16.3574 10.8398-15.7617C10.6836-15.7227 10.625-15.8496 10.752-15.957ZM5.27344 2.30469L4.10156 1.14258C3.63281 0.683594 3.74023 0.341797 4.14062-0.0195312L14.9512-10.1953L16.416-8.71094L6.42578 2.27539C6.07422 2.67578 5.74219 2.77344 5.27344 2.30469Z"/>
  </g>
  <text style="stroke:none;fill:black;font-family:-apple-system,&quot;SF Pro Display&quot;,&quot;SF Pro Text&quot;,Helvetica,sans-serif;font-weight:bold;" transform="matrix(1 0 0 1 1289 1953)">Exporting</text>
  <text style="stroke:none;fill:black;font-family:-apple-system,&quot;SF Pro Display&quot;,&quot;SF Pro Text&quot;,Helvetica,sans-serif;" transform="matrix(1 0 0 1 1289 1971)">Symbols should be outlined when exporting to ensure the</text>
  <text style="stroke:none;fill:black;font-family:-apple-system,&quot;SF Pro Display&quot;,&quot;SF Pro Text&quot;,Helvetica,sans-serif;" transform="matrix(1 0 0 1 1289 1989)">design is preserved when submitting to Xcode.</text>
  <text id="template-version" style="stroke:none;fill:black;font-family:-apple-system,&quot;SF Pro Display&quot;,&quot;SF Pro Text&quot;,Helvetica,sans-serif;text-anchor:end;" transform="matrix(1 0 0 1 3036 1933)">Template v.2.0</text>
  <text style="stroke:none;fill:black;font-family:-apple-system,&quot;SF Pro Display&quot;,&quot;SF Pro Text&quot;,Helvetica,sans-serif;text-anchor:end;" transform="matrix(1 0 0 1 3036 1951)">Requires Xcode 12 or greater</text>
  <text style="stroke:none;fill:black;font-family:-apple-system,&quot;SF Pro Display&quot;,&quot;SF Pro Text&quot;,Helvetica,sans-serif;" transform="matrix(1 0 0 1 263 726)">Small</text>
  <text style="stroke:none;fill:black;font-family:-apple-system,&quot;SF Pro Display&quot;,&quot;SF Pro Text&quot;,Helvetica,sans-serif;" transform="matrix(1 0 0 1 263 1156)">Medium</text>
  <text style="stroke:none;fill:black;font-family:-apple-system,&quot;SF Pro Display&quot;,&quot;SF Pro Text&quot;,Helvetica,sans-serif;" transform="matrix(1 0 0 1 263 1586)">Large</text>
 </g>
 <g id="Guides">
  <g id="H-reference" style="fill:#27AAE1;stroke:none;" transform="matrix(1 0 0 1 339 696)">
   <path d="M0.976562 0L3.66211 0L12.9883-24.4629L45.752-24.4629L55.127 0L57.7637 0L30.6152-70.459L28.125-70.459ZM29.3457-67.1387L29.4434-67.1387L44.873-26.709L13.8672-26.709Z"/>
  </g>
  <line id="Baseline-S" style="fill:none;stroke:#27AAE1;opacity:1;stroke-width:0.5;" x1="263" x2="3036" y1="696" y2="696"/>
  <line id="Capline-S" style="fill:none;stroke:#27AAE1;opacity:1;stroke-width:0.5;" x1="263" x2="3036" y1="625.541" y2="625.541"/>
  <g id="H-reference" style="fill:#27AAE1;stroke:none;" transform="matrix(1 0 0 1 339 1126)">
   <path d="M0.976562 0L3.66211 0L12.9883-24.4629L45.752-24.4629L55.127 0L57.7637 0L30.6152-70.459L28.125-70.459ZM29.3457-67.1387L29.4434-67.1387L44.873-26.709L13.8672-26.709Z"/>
  </g>
  <line id="Baseline-M" style="fill:none;stroke:#27AAE1;opacity:1;stroke-width:0.5;" x1="263" x2="3036" y1="1126" y2="1126"/>
  <line id="Capline-M" style="fill:none;stroke:#27AAE1;opacity:1;stroke-width:0.5;" x1="263" x2="3036" y1="1055.54" y2="1055.54"/>
  <g id="H-reference" style="fill:#27AAE1;stroke:none;" transform="matrix(1 0 0 1 339 1556)">
   <path d="M0.976562 0L3.66211 0L12.9883-24.4629L45.752-24.4629L55.127 0L57.7637 0L30.6152-70.459L28.125-70.459ZM29.3457-67.1387L29.4434-67.1387L44.873-26.709L13.8672-26.709Z"/>
  </g>
  <line id="Baseline-L" style="fill:none;stroke:#27AAE1;opacity:1;stroke-width:0.5;" x1="263" x2="3036" y1="1556" y2="1556"/>
  <line id="Capline-L" style="fill:none;stroke:#27AAE1;opacity:1;stroke-width:0.5;" x1="263" x2="3036" y1="1485.54" y2="1485.54"/>
  <line id="left-margin" x1="1401.7066461049908" x2="1401.7066461049908" y1="1030.79" y2="1150.12" style="fill:none;stroke:#00AEEF;stroke-width:0.5;opacity:1.0;"/>
  <line id="right-margin" x1="1500.553353895009" x2="1500.553353895009" y1="1030.79" y2="1150.12" style="fill:none;stroke:#00AEEF;stroke-width:0.5;opacity:1.0;"/>
 </g>
 <g id="Symbols">
  <g id="Black-L" transform="matrix(1.0,0.0,0.0,1.0,2852.941376250562,1439.031395781812)">  <path stroke-opacity="1" fill-opacity="1" stroke-linecap="butt" stroke-linejoin="miter" stroke-width="1px" stroke-dasharray="none" fill-rule="nonzero" version="1.1" stroke-miterlimit="4" xmlns:xlink="http://www.w3.org/1999/xlink" stroke="none" fill="#000000" d="M50.2,10.217L50.2,40.869L91.07,40.869L91.07,30.652L110.259,30.652C111.6,30.652,112.909,31.195,113.867,32.153L124.691,42.977C128.682,46.968,135.164,46.968,139.155,42.977C143.146,38.985,143.146,32.504,139.155,28.513L128.331,17.689C123.542,12.899,117.028,10.217,110.259,10.217L91.07,10.217C91.07,4.566,86.504,0,80.853,0L60.418,0C54.766,0,50.2,4.566,50.2,10.217ZM46.816,51.087C36.184,51.087,27.339,59.229,26.445,69.829L20.506,141.35C19.517,153.26,28.904,163.477,40.877,163.477L100.393,163.477C112.335,163.477,121.754,153.26,120.764,141.35L114.793,69.829C113.899,59.229,105.055,51.087,94.422,51.087L46.816,51.087ZM78.298,89.402L78.298,99.619L88.516,99.619C92.762,99.619,96.179,103.035,96.179,107.282C96.179,111.529,92.762,114.945,88.516,114.945L78.298,114.945L78.298,125.162C78.298,129.409,74.882,132.825,70.635,132.825C66.389,132.825,62.972,129.409,62.972,125.162L62.972,114.945L52.755,114.945C48.508,114.945,45.092,111.529,45.092,107.282C45.092,103.035,48.508,99.619,52.755,99.619L62.972,99.619L62.972,89.402C62.972,85.155,66.389,81.739,70.635,81.739C74.882,81.739,78.298,85.155,78.298,89.402ZM78.298,89.402"/>
</g>
  <g id="Heavy-L" transform="matrix(1.0,0.0,0.0,1.0,2556.231376250562,1439.031395781812)">  <path stroke-linecap="butt" stroke-width="1px" fill-opacity="1" fill-rule="nonzero" stroke-linejoin="miter" fill="#000000" stroke-opacity="1" stroke-dasharray="none" version="1.1" xmlns:xlink="http://www.w3.org/1999/xlink" stroke-miterlimit="4" stroke="none" d="M50.2,10.217L50.2,40.869L91.07,40.869L91.07,30.652L110.259,30.652C111.6,30.652,112.909,31.195,113.867,32.153L124.691,42.977C128.682,46.968,135.164,46.968,139.155,42.977C143.146,38.985,143.146,32.504,139.155,28.513L128.331,17.689C123.542,12.899,117.028,10.217,110.259,10.217L91.07,10.217C91.07,4.566,86.504,0,80.853,0L60.418,0C54.766,0,50.2,4.566,50.2,10.217ZM46.816,51.087C36.184,51.087,27.339,59.229,26.445,69.829L20.506,141.35C19.517,153.26,28.904,163.477,40.877,163.477L100.393,163.477C112.335,163.477,121.754,153.26,120.764,141.35L114.793,69.829C113.899,59.229,105.055,51.087,94.422,51.087L46.816,51.087ZM78.298,89.402L78.298,99.619L88.516,99.619C92.762,99.619,96.179,103.035,96.179,107.282C96.179,111.529,92.762,114.945,88.516,114.945L78.298,114.945L78.298,125.162C78.298,129.409,74.882,132.825,70.635,132.825C66.389,132.825,62.972,129.409,62.972,125.162L62.972,114.945L52.755,114.945C48.508,114.945,45.092,111.529,45.092,107.282C45.092,103.035,48.508,99.619,52.755,99.619L62.972,99.619L62.972,89.402C62.972,85.155,66.389,81.739,70.635,81.739C74.882,81.739,78.298,85.155,78.298,89.402ZM78.298,89.402"/>
</g>
  <g id="Bold-L" transform="matrix(1.0,0.0,0.0,1.0,2259.521376250562,1439.031395781812)">  <path stroke-width="1px" stroke-miterlimit="4" stroke-dasharray="none" stroke="none" fill-opacity="1" fill="#000000" stroke-linecap="butt" stroke-opacity="1" version="1.1" fill-rule="nonzero" xmlns:xlink="http://www.w3.org/1999/xlink" stroke-linejoin="miter" d="M50.2,10.217L50.2,40.869L91.07,40.869L91.07,30.652L110.259,30.652C111.6,30.652,112.909,31.195,113.867,32.153L124.691,42.977C128.682,46.968,135.164,46.968,139.155,42.977C143.146,38.985,143.146,32.504,139.155,28.513L128.331,17.689C123.542,12.899,117.028,10.217,110.259,10.217L91.07,10.217C91.07,4.566,86.504,0,80.853,0L60.418,0C54.766,0,50.2,4.566,50.2,10.217ZM46.816,51.087C36.184,51.087,27.339,59.229,26.445,69.829L20.506,141.35C19.517,153.26,28.904,163.477,40.877,163.477L100.393,163.477C112.335,163.477,121.754,153.26,120.764,141.35L114.793,69.829C113.899,59.229,105.055,51.087,94.422,51.087L46.816,51.087ZM78.298,89.402L78.298,99.619L88.516,99.619C92.762,99.619,96.179,103.035,96.179,107.282C96.179,111.529,92.762,114.945,88.516,114.945L78.298,114.945L78.298,125.162C78.298,129.409,74.882,132.825,70.635,132.825C66.389,132.825,62.972,129.409,62.972,125.162L62.972,114.945L52.755,114.945C48.508,114.945,45.092,111.529,45.092,107.282C45.092,103.035,48.508,99.619,52.755,99.619L62.972,99.619L62.972,89.402C62.972,85.155,66.389,81.739,70.635,81.739C74.882,81.739,78.298,85.155,78.298,89.402ZM78.298,89.402"/>
</g>
  <g id="Semibold-L" transform="matrix(1.0,0.0,0.0,1.0,1962.811376250562,1439.031395781812)">  <path stroke-dasharray="none" stroke-opacity="1" stroke-linejoin="miter" stroke-width="1px" fill="#000000" fill-rule="nonzero" version="1.1" stroke="none" stroke-miterlimit="4" stroke-linecap="butt" xmlns:xlink="http://www.w3.org/1999/xlink" fill-opacity="1" d="M50.2,10.217L50.2,40.869L91.07,40.869L91.07,30.652L110.259,30.652C111.6,30.652,112.909,31.195,113.867,32.153L124.691,42.977C128.682,46.968,135.164,46.968,139.155,42.977C143.146,38.985,143.146,32.504,139.155,28.513L128.331,17.689C123.542,12.899,117.028,10.217,110.259,10.217L91.07,10.217C91.07,4.566,86.504,0,80.853,0L60.418,0C54.766,0,50.2,4.566,50.2,10.217ZM46.816,51.087C36.184,51.087,27.339,59.229,26.445,69.829L20.506,141.35C19.517,153.26,28.904,163.477,40.877,163.477L100.393,163.477C112.335,163.477,121.754,153.26,120.764,141.35L114.793,69.829C113.899,59.229,105.055,51.087,94.422,51.087L46.816,51.087ZM78.298,89.402L78.298,99.619L88.516,99.619C92.762,99.619,96.179,103.035,96.179,107.282C96.179,111.529,92.762,114.945,88.516,114.945L78.298,114.945L78.298,125.162C78.298,129.409,74.882,132.825,70.635,132.825C66.389,132.825,62.972,129.409,62.972,125.162L62.972,114.945L52.755,114.945C48.508,114.945,45.092,111.529,45.092,107.282C45.092,103.035,48.508,99.619,52.755,99.619L62.972,99.619L62.972,89.402C62.972,85.155,66.389,81.739,70.635,81.739C74.882,81.739,78.298,85.155,78.298,89.402ZM78.298,89.402"/>
</g>
  <g id="Medium-L" transform="matrix(1.0,0.0,0.0,1.0,1666.101376250562,1439.031395781812)">  <path xmlns:xlink="http://www.w3.org/1999/xlink" stroke-width="1px" fill="#000000" stroke-linecap="butt" stroke-linejoin="miter" version="1.1" fill-opacity="1" fill-rule="nonzero" stroke-dasharray="none" stroke-opacity="1" stroke-miterlimit="4" stroke="none" d="M50.2,10.217L50.2,40.869L91.07,40.869L91.07,30.652L110.259,30.652C111.6,30.652,112.909,31.195,113.867,32.153L124.691,42.977C128.682,46.968,135.164,46.968,139.155,42.977C143.146,38.985,143.146,32.504,139.155,28.513L128.331,17.689C123.542,12.899,117.028,10.217,110.259,10.217L91.07,10.217C91.07,4.566,86.504,0,80.853,0L60.418,0C54.766,0,50.2,4.566,50.2,10.217ZM46.816,51.087C36.184,51.087,27.339,59.229,26.445,69.829L20.506,141.35C19.517,153.26,28.904,163.477,40.877,163.477L100.393,163.477C112.335,163.477,121.754,153.26,120.764,141.35L114.793,69.829C113.899,59.229,105.055,51.087,94.422,51.087L46.816,51.087ZM78.298,89.402L78.298,99.619L88.516,99.619C92.762,99.619,96.179,103.035,96.179,107.282C96.179,111.529,92.762,114.945,88.516,114.945L78.298,114.945L78.298,125.162C78.298,129.409,74.882,132.825,70.635,132.825C66.389,132.825,62.972,129.409,62.972,125.162L62.972,114.945L52.755,114.945C48.508,114.945,45.092,111.529,45.092,107.282C45.092,103.035,48.508,99.619,52.755,99.619L62.972,99.619L62.972,89.402C62.972,85.155,66.389,81.739,70.635,81.739C74.882,81.739,78.298,85.155,78.298,89.402ZM78.298,89.402"/>
</g>
  <g id="Regular-L" transform="matrix(1.0,0.0,0.0,1.0,1369.391376250562,1439.031395781812)">  <path stroke-miterlimit="4" stroke-opacity="1" stroke="none" fill-rule="nonzero" stroke-dasharray="none" stroke-width="1px" stroke-linejoin="miter" xmlns:xlink="http://www.w3.org/1999/xlink" version="1.1" fill-opacity="1" stroke-linecap="butt" fill="#000000" d="M50.2,10.217L50.2,40.869L91.07,40.869L91.07,30.652L110.259,30.652C111.6,30.652,112.909,31.195,113.867,32.153L124.691,42.977C128.682,46.968,135.164,46.968,139.155,42.977C143.146,38.985,143.146,32.504,139.155,28.513L128.331,17.689C123.542,12.899,117.028,10.217,110.259,10.217L91.07,10.217C91.07,4.566,86.504,0,80.853,0L60.418,0C54.766,0,50.2,4.566,50.2,10.217ZM46.816,51.087C36.184,51.087,27.339,59.229,26.445,69.829L20.506,141.35C19.517,153.26,28.904,163.477,40.877,163.477L100.393,163.477C112.335,163.477,121.754,153.26,120.764,141.35L114.793,69.829C113.899,59.229,105.055,51.087,94.422,51.087L46.816,51.087ZM78.298,89.402L78.298,99.619L88.516,99.619C92.762,99.619,96.179,103.035,96.179,107.282C96.179,111.529,92.762,114.945,88.516,114.945L78.298,114.945L78.298,125.162C78.298,129.409,74.882,132.825,70.635,132.825C66.389,132.825,62.972,129.409,62.972,125.162L62.972,114.945L52.755,114.945C48.508,114.945,45.092,111.529,45.092,107.282C45.092,103.035,48.508,99.619,52.755,99.619L62.972,99.619L62.972,89.402C62.972,85.155,66.389,81.739,70.635,81.739C74.882,81.739,78.298,85.155,78.298,89.402ZM78.298,89.402"/>
</g>
  <g id="Light-L" transform="matrix(1.0,0.0,0.0,1.0,1072.6813762505622,1439.031395781812)">  <path fill-rule="nonzero" version="1.1" stroke-linejoin="miter" fill="#000000" stroke-width="1px" stroke="none" stroke-opacity="1" stroke-dasharray="none" stroke-miterlimit="4" fill-opacity="1" xmlns:xlink="http://www.w3.org/1999/xlink" stroke-linecap="butt" d="M50.2,10.217L50.2,40.869L91.07,40.869L91.07,30.652L110.259,30.652C111.6,30.652,112.909,31.195,113.867,32.153L124.691,42.977C128.682,46.968,135.164,46.968,139.155,42.977C143.146,38.985,143.146,32.504,139.155,28.513L128.331,17.689C123.542,12.899,117.028,10.217,110.259,10.217L91.07,10.217C91.07,4.566,86.504,0,80.853,0L60.418,0C54.766,0,50.2,4.566,50.2,10.217ZM46.816,51.087C36.184,51.087,27.339,59.229,26.445,69.829L20.506,141.35C19.517,153.26,28.904,163.477,40.877,163.477L100.393,163.477C112.335,163.477,121.754,153.26,120.764,141.35L114.793,69.829C113.899,59.229,105.055,51.087,94.422,51.087L46.816,51.087ZM78.298,89.402L78.298,99.619L88.516,99.619C92.762,99.619,96.179,103.035,96.179,107.282C96.179,111.529,92.762,114.945,88.516,114.945L78.298,114.945L78.298,125.162C78.298,129.409,74.882,132.825,70.635,132.825C66.389,132.825,62.972,129.409,62.972,125.162L62.972,114.945L52.755,114.945C48.508,114.945,45.092,111.529,45.092,107.282C45.092,103.035,48.508,99.619,52.755,99.619L62.972,99.619L62.972,89.402C62.972,85.155,66.389,81.739,70.635,81.739C74.882,81.739,78.298,85.155,78.298,89.402ZM78.298,89.402"/>
</g>
  <g id="Thin-L" transform="matrix(1.0,0.0,0.0,1.0,775.9713762505621,1439.031395781812)">  <path version="1.1" fill-rule="nonzero" xmlns:xlink="http://www.w3.org/1999/xlink" stroke-linejoin="miter" fill="#000000" fill-opacity="1" stroke-miterlimit="4" stroke-opacity="1" stroke-linecap="butt" stroke-width="1px" stroke="none" stroke-dasharray="none" d="M50.2,10.217L50.2,40.869L91.07,40.869L91.07,30.652L110.259,30.652C111.6,30.652,112.909,31.195,113.867,32.153L124.691,42.977C128.682,46.968,135.164,46.968,139.155,42.977C143.146,38.985,143.146,32.504,139.155,28.513L128.331,17.689C123.542,12.899,117.028,10.217,110.259,10.217L91.07,10.217C91.07,4.566,86.504,0,80.853,0L60.418,0C54.766,0,50.2,4.566,50.2,10.217ZM46.816,51.087C36.184,51.087,27.339,59.229,26.445,69.829L20.506,141.35C19.517,153.26,28.904,163.477,40.877,163.477L100.393,163.477C112.335,163.477,121.754,153.26,120.764,141.35L114.793,69.829C113.899,59.229,105.055,51.087,94.422,51.087L46.816,51.087ZM78.298,89.402L78.298,99.619L88.516,99.619C92.762,99.619,96.179,103.035,96.179,107.282C96.179,111.529,92.762,114.945,88.516,114.945L78.298,114.945L78.298,125.162C78.298,129.409,74.882,132.825,70.635,132.825C66.389,132.825,62.972,129.409,62.972,125.162L62.972,114.945L52.755,114.945C48.508,114.945,45.092,111.529,45.092,107.282C45.092,103.035,48.508,99.619,52.755,99.619L62.972,99.619L62.972,89.402C62.972,85.155,66.389,81.739,70.635,81.739C74.882,81.739,78.298,85.155,78.298,89.402ZM78.298,89.402"/>
</g>
  <g id="Ultralight-L" transform="matrix(1.0,0.0,0.0,1.0,479.2613762505621,1439.031395781812)">  <path fill-rule="nonzero" version="1.1" stroke="none" xmlns:xlink="http://www.w3.org/1999/xlink" stroke-miterlimit="4" stroke-opacity="1" stroke-linejoin="miter" stroke-dasharray="none" fill-opacity="1" stroke-linecap="butt" fill="#000000" stroke-width="1px" d="M50.2,10.217L50.2,40.869L91.07,40.869L91.07,30.652L110.259,30.652C111.6,30.652,112.909,31.195,113.867,32.153L124.691,42.977C128.682,46.968,135.164,46.968,139.155,42.977C143.146,38.985,143.146,32.504,139.155,28.513L128.331,17.689C123.542,12.899,117.028,10.217,110.259,10.217L91.07,10.217C91.07,4.566,86.504,0,80.853,0L60.418,0C54.766,0,50.2,4.566,50.2,10.217ZM46.816,51.087C36.184,51.087,27.339,59.229,26.445,69.829L20.506,141.35C19.517,153.26,28.904,163.477,40.877,163.477L100.393,163.477C112.335,163.477,121.754,153.26,120.764,141.35L114.793,69.829C113.899,59.229,105.055,51.087,94.422,51.087L46.816,51.087ZM78.298,89.402L78.298,99.619L88.516,99.619C92.762,99.619,96.179,103.035,96.179,107.282C96.179,111.529,92.762,114.945,88.516,114.945L78.298,114.945L78.298,125.162C78.298,129.409,74.882,132.825,70.635,132.825C66.389,132.825,62.972,129.409,62.972,125.162L62.972,114.945L52.755,114.945C48.508,114.945,45.092,111.529,45.092,107.282C45.092,103.035,48.508,99.619,52.755,99.619L62.972,99.619L62.972,89.402C62.972,85.155,66.389,81.739,70.635,81.739C74.882,81.739,78.298,85.155,78.298,89.402ZM78.298,89.402"/>
</g>
  <g id="Black-M" transform="matrix(1.0,0.0,0.0,1.0,2871.3167257756295,1027.4067453068794)">  <path stroke-opacity="1" fill-opacity="1" stroke-linecap="butt" stroke-linejoin="miter" stroke-width="1px" stroke-dasharray="none" fill-rule="nonzero" version="1.1" stroke-miterlimit="4" xmlns:xlink="http://www.w3.org/1999/xlink" stroke="none" fill="#000000" d="M38.915,7.92L38.915,31.682L70.597,31.682L70.597,23.761L85.472,23.761C86.512,23.761,87.527,24.182,88.269,24.925L96.66,33.315C99.754,36.409,104.778,36.409,107.872,33.315C110.966,30.221,110.966,25.197,107.872,22.103L99.482,13.712C95.769,10,90.72,7.92,85.472,7.92L70.597,7.92C70.597,3.539,67.057,0,62.676,0L46.836,0C42.455,0,38.915,3.539,38.915,7.92ZM36.291,39.602C28.049,39.602,21.193,45.914,20.5,54.131L15.896,109.574C15.129,118.806,22.406,126.727,31.688,126.727L77.824,126.727C87.081,126.727,94.383,118.806,93.615,109.574L88.987,54.131C88.294,45.914,81.438,39.602,73.196,39.602L36.291,39.602ZM60.696,69.304L60.696,77.224L68.617,77.224C71.909,77.224,74.557,79.872,74.557,83.164C74.557,86.456,71.909,89.105,68.617,89.105L60.696,89.105L60.696,97.025C60.696,100.317,58.048,102.965,54.756,102.965C51.464,102.965,48.816,100.317,48.816,97.025L48.816,89.105L40.895,89.105C37.603,89.105,34.955,86.456,34.955,83.164C34.955,79.872,37.603,77.224,40.895,77.224L48.816,77.224L48.816,69.304C48.816,66.012,51.464,63.363,54.756,63.363C58.048,63.363,60.696,66.012,60.696,69.304ZM60.696,69.304"/>
</g>
  <g id="Heavy-M" transform="matrix(1.0,0.0,0.0,1.0,2574.6067257756295,1027.4067453068794)">  <path stroke-linecap="butt" stroke-width="1px" fill-opacity="1" fill-rule="nonzero" stroke-linejoin="miter" fill="#000000" stroke-opacity="1" stroke-dasharray="none" version="1.1" xmlns:xlink="http://www.w3.org/1999/xlink" stroke-miterlimit="4" stroke="none" d="M38.915,7.92L38.915,31.682L70.597,31.682L70.597,23.761L85.472,23.761C86.512,23.761,87.527,24.182,88.269,24.925L96.66,33.315C99.754,36.409,104.778,36.409,107.872,33.315C110.966,30.221,110.966,25.197,107.872,22.103L99.482,13.712C95.769,10,90.72,7.92,85.472,7.92L70.597,7.92C70.597,3.539,67.057,0,62.676,0L46.836,0C42.455,0,38.915,3.539,38.915,7.92ZM36.291,39.602C28.049,39.602,21.193,45.914,20.5,54.131L15.896,109.574C15.129,118.806,22.406,126.727,31.688,126.727L77.824,126.727C87.081,126.727,94.383,118.806,93.615,109.574L88.987,54.131C88.294,45.914,81.438,39.602,73.196,39.602L36.291,39.602ZM60.696,69.304L60.696,77.224L68.617,77.224C71.909,77.224,74.557,79.872,74.557,83.164C74.557,86.456,71.909,89.105,68.617,89.105L60.696,89.105L60.696,97.025C60.696,100.317,58.048,102.965,54.756,102.965C51.464,102.965,48.816,100.317,48.816,97.025L48.816,89.105L40.895,89.105C37.603,89.105,34.955,86.456,34.955,83.164C34.955,79.872,37.603,77.224,40.895,77.224L48.816,77.224L48.816,69.304C48.816,66.012,51.464,63.363,54.756,63.363C58.048,63.363,60.696,66.012,60.696,69.304ZM60.696,69.304"/>
</g>
  <g id="Bold-M" transform="matrix(1.0,0.0,0.0,1.0,2277.8967257756294,1027.4067453068794)">  <path stroke-width="1px" stroke-miterlimit="4" stroke-dasharray="none" stroke="none" fill-opacity="1" fill="#000000" stroke-linecap="butt" stroke-opacity="1" version="1.1" fill-rule="nonzero" xmlns:xlink="http://www.w3.org/1999/xlink" stroke-linejoin="miter" d="M38.915,7.92L38.915,31.682L70.597,31.682L70.597,23.761L85.472,23.761C86.512,23.761,87.527,24.182,88.269,24.925L96.66,33.315C99.754,36.409,104.778,36.409,107.872,33.315C110.966,30.221,110.966,25.197,107.872,22.103L99.482,13.712C95.769,10,90.72,7.92,85.472,7.92L70.597,7.92C70.597,3.539,67.057,0,62.676,0L46.836,0C42.455,0,38.915,3.539,38.915,7.92ZM36.291,39.602C28.049,39.602,21.193,45.914,20.5,54.131L15.896,109.574C15.129,118.806,22.406,126.727,31.688,126.727L77.824,126.727C87.081,126.727,94.383,118.806,93.615,109.574L88.987,54.131C88.294,45.914,81.438,39.602,73.196,39.602L36.291,39.602ZM60.696,69.304L60.696,77.224L68.617,77.224C71.909,77.224,74.557,79.872,74.557,83.164C74.557,86.456,71.909,89.105,68.617,89.105L60.696,89.105L60.696,97.025C60.696,100.317,58.048,102.965,54.756,102.965C51.464,102.965,48.816,100.317,48.816,97.025L48.816,89.105L40.895,89.105C37.603,89.105,34.955,86.456,34.955,83.164C34.955,79.872,37.603,77.224,40.895,77.224L48.816,77.224L48.816,69.304C48.816,66.012,51.464,63.363,54.756,63.363C58.048,63.363,60.696,66.012,60.696,69.304ZM60.696,69.304"/>
</g>
  <g id="Semibold-M" transform="matrix(1.0,0.0,0.0,1.0,1981.1867257756294,1027.4067453068794)">  <path stroke-dasharray="none" stroke-opacity="1" stroke-linejoin="miter" stroke-width="1px" fill="#000000" fill-rule="nonzero" version="1.1" stroke="none" stroke-miterlimit="4" stroke-linecap="butt" xmlns:xlink="http://www.w3.org/1999/xlink" fill-opacity="1" d="M38.915,7.92L38.915,31.682L70.597,31.682L70.597,23.761L85.472,23.761C86.512,23.761,87.527,24.182,88.269,24.925L96.66,33.315C99.754,36.409,104.778,36.409,107.872,33.315C110.966,30.221,110.966,25.197,107.872,22.103L99.482,13.712C95.769,10,90.72,7.92,85.472,7.92L70.597,7.92C70.597,3.539,67.057,0,62.676,0L46.836,0C42.455,0,38.915,3.539,38.915,7.92ZM36.291,39.602C28.049,39.602,21.193,45.914,20.5,54.131L15.896,109.574C15.129,118.806,22.406,126.727,31.688,126.727L77.824,126.727C87.081,126.727,94.383,118.806,93.615,109.574L88.987,54.131C88.294,45.914,81.438,39.602,73.196,39.602L36.291,39.602ZM60.696,69.304L60.696,77.224L68.617,77.224C71.909,77.224,74.557,79.872,74.557,83.164C74.557,86.456,71.909,89.105,68.617,89.105L60.696,89.105L60.696,97.025C60.696,100.317,58.048,102.965,54.756,102.965C51.464,102.965,48.816,100.317,48.816,97.025L48.816,89.105L40.895,89.105C37.603,89.105,34.955,86.456,34.955,83.164C34.955,79.872,37.603,77.224,40.895,77.224L48.816,77.224L48.816,69.304C48.816,66.012,51.464,63.363,54.756,63.363C58.048,63.363,60.696,66.012,60.696,69.304ZM60.696,69.304"/>
</g>
  <g id="Medium-M" transform="matrix(1.0,0.0,0.0,1.0,1684.4767257756293,1027.4067453068794)">  <path xmlns:xlink="http://www.w3.org/1999/xlink" stroke-width="1px" fill="#000000" stroke-linecap="butt" stroke-linejoin="miter" version="1.1" fill-opacity="1" fill-rule="nonzero" stroke-dasharray="none" stroke-opacity="1" stroke-miterlimit="4" stroke="none" d="M38.915,7.92L38.915,31.682L70.597,31.682L70.597,23.761L85.472,23.761C86.512,23.761,87.527,24.182,88.269,24.925L96.66,33.315C99.754,36.409,104.778,36.409,107.872,33.315C110.966,30.221,110.966,25.197,107.872,22.103L99.482,13.712C95.769,10,90.72,7.92,85.472,7.92L70.597,7.92C70.597,3.539,67.057,0,62.676,0L46.836,0C42.455,0,38.915,3.539,38.915,7.92ZM36.291,39.602C28.049,39.602,21.193,45.914,20.5,54.131L15.896,109.574C15.129,118.806,22.406,126.727,31.688,126.727L77.824,126.727C87.081,126.727,94.383,118.806,93.615,109.574L88.987,54.131C88.294,45.914,81.438,39.602,73.196,39.602L36.291,39.602ZM60.696,69.304L60.696,77.224L68.617,77.224C71.909,77.224,74.557,79.872,74.557,83.164C74.557,86.456,71.909,89.105,68.617,89.105L60.696,89.105L60.696,97.025C60.696,100.317,58.048,102.965,54.756,102.965C51.464,102.965,48.816,100.317,48.816,97.025L48.816,89.105L40.895,89.105C37.603,89.105,34.955,86.456,34.955,83.164C34.955,79.872,37.603,77.224,40.895,77.224L48.816,77.224L48.816,69.304C48.816,66.012,51.464,63.363,54.756,63.363C58.048,63.363,60.696,66.012,60.696,69.304ZM60.696,69.304"/>
</g>
  <g id="Regular-M" transform="matrix(1.0,0.0,0.0,1.0,1387.7667257756293,1027.4067453068794)">  <path stroke-miterlimit="4" stroke-opacity="1" stroke="none" fill-rule="nonzero" stroke-dasharray="none" stroke-width="1px" stroke-linejoin="miter" xmlns:xlink="http://www.w3.org/1999/xlink" version="1.1" fill-opacity="1" stroke-linecap="butt" fill="#000000" d="M38.915,7.92L38.915,31.682L70.597,31.682L70.597,23.761L85.472,23.761C86.512,23.761,87.527,24.182,88.269,24.925L96.66,33.315C99.754,36.409,104.778,36.409,107.872,33.315C110.966,30.221,110.966,25.197,107.872,22.103L99.482,13.712C95.769,10,90.72,7.92,85.472,7.92L70.597,7.92C70.597,3.539,67.057,0,62.676,0L46.836,0C42.455,0,38.915,3.539,38.915,7.92ZM36.291,39.602C28.049,39.602,21.193,45.914,20.5,54.131L15.896,109.574C15.129,118.806,22.406,126.727,31.688,126.727L77.824,126.727C87.081,126.727,94.383,118.806,93.615,109.574L88.987,54.131C88.294,45.914,81.438,39.602,73.196,39.602L36.291,39.602ZM60.696,69.304L60.696,77.224L68.617,77.224C71.909,77.224,74.557,79.872,74.557,83.164C74.557,86.456,71.909,89.105,68.617,89.105L60.696,89.105L60.696,97.025C60.696,100.317,58.048,102.965,54.756,102.965C51.464,102.965,48.816,100.317,48.816,97.025L48.816,89.105L40.895,89.105C37.603,89.105,34.955,86.456,34.955,83.164C34.955,79.872,37.603,77.224,40.895,77.224L48.816,77.224L48.816,69.304C48.816,66.012,51.464,63.363,54.756,63.363C58.048,63.363,60.696,66.012,60.696,69.304ZM60.696,69.304"/>
</g>
  <g id="Light-M" transform="matrix(1.0,0.0,0.0,1.0,1091.0567257756295,1027.4067453068794)">  <path fill-rule="nonzero" version="1.1" stroke-linejoin="miter" fill="#000000" stroke-width="1px" stroke="none" stroke-opacity="1" stroke-dasharray="none" stroke-miterlimit="4" fill-opacity="1" xmlns:xlink="http://www.w3.org/1999/xlink" stroke-linecap="butt" d="M38.915,7.92L38.915,31.682L70.597,31.682L70.597,23.761L85.472,23.761C86.512,23.761,87.527,24.182,88.269,24.925L96.66,33.315C99.754,36.409,104.778,36.409,107.872,33.315C110.966,30.221,110.966,25.197,107.872,22.103L99.482,13.712C95.769,10,90.72,7.92,85.472,7.92L70.597,7.92C70.597,3.539,67.057,0,62.676,0L46.836,0C42.455,0,38.915,3.539,38.915,7.92ZM36.291,39.602C28.049,39.602,21.193,45.914,20.5,54.131L15.896,109.574C15.129,118.806,22.406,126.727,31.688,126.727L77.824,126.727C87.081,126.727,94.383,118.806,93.615,109.574L88.987,54.131C88.294,45.914,81.438,39.602,73.196,39.602L36.291,39.602ZM60.696,69.304L60.696,77.224L68.617,77.224C71.909,77.224,74.557,79.872,74.557,83.164C74.557,86.456,71.909,89.105,68.617,89.105L60.696,89.105L60.696,97.025C60.696,100.317,58.048,102.965,54.756,102.965C51.464,102.965,48.816,100.317,48.816,97.025L48.816,89.105L40.895,89.105C37.603,89.105,34.955,86.456,34.955,83.164C34.955,79.872,37.603,77.224,40.895,77.224L48.816,77.224L48.816,69.304C48.816,66.012,51.464,63.363,54.756,63.363C58.048,63.363,60.696,66.012,60.696,69.304ZM60.696,69.304"/>
</g>
  <g id="Thin-M" transform="matrix(1.0,0.0,0.0,1.0,794.3467257756296,1027.4067453068794)">  <path version="1.1" fill-rule="nonzero" xmlns:xlink="http://www.w3.org/1999/xlink" stroke-linejoin="miter" fill="#000000" fill-opacity="1" stroke-miterlimit="4" stroke-opacity="1" stroke-linecap="butt" stroke-width="1px" stroke="none" stroke-dasharray="none" d="M38.915,7.92L38.915,31.682L70.597,31.682L70.597,23.761L85.472,23.761C86.512,23.761,87.527,24.182,88.269,24.925L96.66,33.315C99.754,36.409,104.778,36.409,107.872,33.315C110.966,30.221,110.966,25.197,107.872,22.103L99.482,13.712C95.769,10,90.72,7.92,85.472,7.92L70.597,7.92C70.597,3.539,67.057,0,62.676,0L46.836,0C42.455,0,38.915,3.539,38.915,7.92ZM36.291,39.602C28.049,39.602,21.193,45.914,20.5,54.131L15.896,109.574C15.129,118.806,22.406,126.727,31.688,126.727L77.824,126.727C87.081,126.727,94.383,118.806,93.615,109.574L88.987,54.131C88.294,45.914,81.438,39.602,73.196,39.602L36.291,39.602ZM60.696,69.304L60.696,77.224L68.617,77.224C71.909,77.224,74.557,79.872,74.557,83.164C74.557,86.456,71.909,89.105,68.617,89.105L60.696,89.105L60.696,97.025C60.696,100.317,58.048,102.965,54.756,102.965C51.464,102.965,48.816,100.317,48.816,97.025L48.816,89.105L40.895,89.105C37.603,89.105,34.955,86.456,34.955,83.164C34.955,79.872,37.603,77.224,40.895,77.224L48.816,77.224L48.816,69.304C48.816,66.012,51.464,63.363,54.756,63.363C58.048,63.363,60.696,66.012,60.696,69.304ZM60.696,69.304"/>
</g>
  <g id="Ultralight-M" transform="matrix(1.0,0.0,0.0,1.0,497.6367257756295,1027.4067453068794)">  <path fill-rule="nonzero" version="1.1" stroke="none" xmlns:xlink="http://www.w3.org/1999/xlink" stroke-miterlimit="4" stroke-opacity="1" stroke-linejoin="miter" stroke-dasharray="none" fill-opacity="1" stroke-linecap="butt" fill="#000000" stroke-width="1px" d="M38.915,7.92L38.915,31.682L70.597,31.682L70.597,23.761L85.472,23.761C86.512,23.761,87.527,24.182,88.269,24.925L96.66,33.315C99.754,36.409,104.778,36.409,107.872,33.315C110.966,30.221,110.966,25.197,107.872,22.103L99.482,13.712C95.769,10,90.72,7.92,85.472,7.92L70.597,7.92C70.597,3.539,67.057,0,62.676,0L46.836,0C42.455,0,38.915,3.539,38.915,7.92ZM36.291,39.602C28.049,39.602,21.193,45.914,20.5,54.131L15.896,109.574C15.129,118.806,22.406,126.727,31.688,126.727L77.824,126.727C87.081,126.727,94.383,118.806,93.615,109.574L88.987,54.131C88.294,45.914,81.438,39.602,73.196,39.602L36.291,39.602ZM60.696,69.304L60.696,77.224L68.617,77.224C71.909,77.224,74.557,79.872,74.557,83.164C74.557,86.456,71.909,89.105,68.617,89.105L60.696,89.105L60.696,97.025C60.696,100.317,58.048,102.965,54.756,102.965C51.464,102.965,48.816,100.317,48.816,97.025L48.816,89.105L40.895,89.105C37.603,89.105,34.955,86.456,34.955,83.164C34.955,79.872,37.603,77.224,40.895,77.224L48.816,77.224L48.816,69.304C48.816,66.012,51.464,63.363,54.756,63.363C58.048,63.363,60.696,66.012,60.696,69.304ZM60.696,69.304"/>
</g>
  <g id="Black-S" transform="matrix(1.0,0.0,0.0,1.0,2885.066556282318,611.1565758135679)">  <path stroke-opacity="1" fill-opacity="1" stroke-linecap="butt" stroke-linejoin="miter" stroke-width="1px" stroke-dasharray="none" fill-rule="nonzero" version="1.1" stroke-miterlimit="4" xmlns:xlink="http://www.w3.org/1999/xlink" stroke="none" fill="#000000" d="M30.471,6.202L30.471,24.807L55.277,24.807L55.277,18.605L66.925,18.605C67.739,18.605,68.533,18.935,69.115,19.516L75.685,26.086C78.107,28.508,82.041,28.508,84.464,26.086C86.887,23.663,86.887,19.729,84.464,17.307L77.894,10.737C74.987,7.83,71.033,6.202,66.925,6.202L55.277,6.202C55.277,2.771,52.506,0,49.076,0L36.672,0C33.242,0,30.471,2.771,30.471,6.202ZM28.416,31.008C21.963,31.008,16.594,35.95,16.052,42.385L12.447,85.796C11.846,93.025,17.544,99.227,24.811,99.227L60.936,99.227C68.185,99.227,73.902,93.025,73.301,85.796L69.677,42.385C69.134,35.95,63.766,31.008,57.312,31.008L28.416,31.008ZM47.525,54.265L47.525,60.466L53.727,60.466C56.304,60.466,58.378,62.54,58.378,65.118C58.378,67.695,56.304,69.769,53.727,69.769L47.525,69.769L47.525,75.971C47.525,78.548,45.451,80.622,42.874,80.622C40.296,80.622,38.223,78.548,38.223,75.971L38.223,69.769L32.021,69.769C29.443,69.769,27.37,67.695,27.37,65.118C27.37,62.54,29.443,60.466,32.021,60.466L38.223,60.466L38.223,54.265C38.223,51.687,40.296,49.613,42.874,49.613C45.451,49.613,47.525,51.687,47.525,54.265ZM47.525,54.265"/>
</g>
  <g id="Heavy-S" transform="matrix(1.0,0.0,0.0,1.0,2588.356556282318,611.1565758135679)">  <path stroke-linecap="butt" stroke-width="1px" fill-opacity="1" fill-rule="nonzero" stroke-linejoin="miter" fill="#000000" stroke-opacity="1" stroke-dasharray="none" version="1.1" xmlns:xlink="http://www.w3.org/1999/xlink" stroke-miterlimit="4" stroke="none" d="M30.471,6.202L30.471,24.807L55.277,24.807L55.277,18.605L66.925,18.605C67.739,18.605,68.533,18.935,69.115,19.516L75.685,26.086C78.107,28.508,82.041,28.508,84.464,26.086C86.887,23.663,86.887,19.729,84.464,17.307L77.894,10.737C74.987,7.83,71.033,6.202,66.925,6.202L55.277,6.202C55.277,2.771,52.506,0,49.076,0L36.672,0C33.242,0,30.471,2.771,30.471,6.202ZM28.416,31.008C21.963,31.008,16.594,35.95,16.052,42.385L12.447,85.796C11.846,93.025,17.544,99.227,24.811,99.227L60.936,99.227C68.185,99.227,73.902,93.025,73.301,85.796L69.677,42.385C69.134,35.95,63.766,31.008,57.312,31.008L28.416,31.008ZM47.525,54.265L47.525,60.466L53.727,60.466C56.304,60.466,58.378,62.54,58.378,65.118C58.378,67.695,56.304,69.769,53.727,69.769L47.525,69.769L47.525,75.971C47.525,78.548,45.451,80.622,42.874,80.622C40.296,80.622,38.223,78.548,38.223,75.971L38.223,69.769L32.021,69.769C29.443,69.769,27.37,67.695,27.37,65.118C27.37,62.54,29.443,60.466,32.021,60.466L38.223,60.466L38.223,54.265C38.223,51.687,40.296,49.613,42.874,49.613C45.451,49.613,47.525,51.687,47.525,54.265ZM47.525,54.265"/>
</g>
  <g id="Bold-S" transform="matrix(1.0,0.0,0.0,1.0,2291.6465562823178,611.1565758135679)">  <path stroke-width="1px" stroke-miterlimit="4" stroke-dasharray="none" stroke="none" fill-opacity="1" fill="#000000" stroke-linecap="butt" stroke-opacity="1" version="1.1" fill-rule="nonzero" xmlns:xlink="http://www.w3.org/1999/xlink" stroke-linejoin="miter" d="M30.471,6.202L30.471,24.807L55.277,24.807L55.277,18.605L66.925,18.605C67.739,18.605,68.533,18.935,69.115,19.516L75.685,26.086C78.107,28.508,82.041,28.508,84.464,26.086C86.887,23.663,86.887,19.729,84.464,17.307L77.894,10.737C74.987,7.83,71.033,6.202,66.925,6.202L55.277,6.202C55.277,2.771,52.506,0,49.076,0L36.672,0C33.242,0,30.471,2.771,30.471,6.202ZM28.416,31.008C21.963,31.008,16.594,35.95,16.052,42.385L12.447,85.796C11.846,93.025,17.544,99.227,24.811,99.227L60.936,99.227C68.185,99.227,73.902,93.025,73.301,85.796L69.677,42.385C69.134,35.95,63.766,31.008,57.312,31.008L28.416,31.008ZM47.525,54.265L47.525,60.466L53.727,60.466C56.304,60.466,58.378,62.54,58.378,65.118C58.378,67.695,56.304,69.769,53.727,69.769L47.525,69.769L47.525,75.971C47.525,78.548,45.451,80.622,42.874,80.622C40.296,80.622,38.223,78.548,38.223,75.971L38.223,69.769L32.021,69.769C29.443,69.769,27.37,67.695,27.37,65.118C27.37,62.54,29.443,60.466,32.021,60.466L38.223,60.466L38.223,54.265C38.223,51.687,40.296,49.613,42.874,49.613C45.451,49.613,47.525,51.687,47.525,54.265ZM47.525,54.265"/>
</g>
  <g id="Semibold-S" transform="matrix(1.0,0.0,0.0,1.0,1994.936556282318,611.1565758135679)">  <path stroke-dasharray="none" stroke-opacity="1" stroke-linejoin="miter" stroke-width="1px" fill="#000000" fill-rule="nonzero" version="1.1" stroke="none" stroke-miterlimit="4" stroke-linecap="butt" xmlns:xlink="http://www.w3.org/1999/xlink" fill-opacity="1" d="M30.471,6.202L30.471,24.807L55.277,24.807L55.277,18.605L66.925,18.605C67.739,18.605,68.533,18.935,69.115,19.516L75.685,26.086C78.107,28.508,82.041,28.508,84.464,26.086C86.887,23.663,86.887,19.729,84.464,17.307L77.894,10.737C74.987,7.83,71.033,6.202,66.925,6.202L55.277,6.202C55.277,2.771,52.506,0,49.076,0L36.672,0C33.242,0,30.471,2.771,30.471,6.202ZM28.416,31.008C21.963,31.008,16.594,35.95,16.052,42.385L12.447,85.796C11.846,93.025,17.544,99.227,24.811,99.227L60.936,99.227C68.185,99.227,73.902,93.025,73.301,85.796L69.677,42.385C69.134,35.95,63.766,31.008,57.312,31.008L28.416,31.008ZM47.525,54.265L47.525,60.466L53.727,60.466C56.304,60.466,58.378,62.54,58.378,65.118C58.378,67.695,56.304,69.769,53.727,69.769L47.525,69.769L47.525,75.971C47.525,78.548,45.451,80.622,42.874,80.622C40.296,80.622,38.223,78.548,38.223,75.971L38.223,69.769L32.021,69.769C29.443,69.769,27.37,67.695,27.37,65.118C27.37,62.54,29.443,60.466,32.021,60.466L38.223,60.466L38.223,54.265C38.223,51.687,40.296,49.613,42.874,49.613C45.451,49.613,47.525,51.687,47.525,54.265ZM47.525,54.265"/>
</g>
  <g id="Medium-S" transform="matrix(1.0,0.0,0.0,1.0,1698.226556282318,611.1565758135679)">  <path xmlns:xlink="http://www.w3.org/1999/xlink" stroke-width="1px" fill="#000000" stroke-linecap="butt" stroke-linejoin="miter" version="1.1" fill-opacity="1" fill-rule="nonzero" stroke-dasharray="none" stroke-opacity="1" stroke-miterlimit="4" stroke="none" d="M30.471,6.202L30.471,24.807L55.277,24.807L55.277,18.605L66.925,18.605C67.739,18.605,68.533,18.935,69.115,19.516L75.685,26.086C78.107,28.508,82.041,28.508,84.464,26.086C86.887,23.663,86.887,19.729,84.464,17.307L77.894,10.737C74.987,7.83,71.033,6.202,66.925,6.202L55.277,6.202C55.277,2.771,52.506,0,49.076,0L36.672,0C33.242,0,30.471,2.771,30.471,6.202ZM28.416,31.008C21.963,31.008,16.594,35.95,16.052,42.385L12.447,85.796C11.846,93.025,17.544,99.227,24.811,99.227L60.936,99.227C68.185,99.227,73.902,93.025,73.301,85.796L69.677,42.385C69.134,35.95,63.766,31.008,57.312,31.008L28.416,31.008ZM47.525,54.265L47.525,60.466L53.727,60.466C56.304,60.466,58.378,62.54,58.378,65.118C58.378,67.695,56.304,69.769,53.727,69.769L47.525,69.769L47.525,75.971C47.525,78.548,45.451,80.622,42.874,80.622C40.296,80.622,38.223,78.548,38.223,75.971L38.223,69.769L32.021,69.769C29.443,69.769,27.37,67.695,27.37,65.118C27.37,62.54,29.443,60.466,32.021,60.466L38.223,60.466L38.223,54.265C38.223,51.687,40.296,49.613,42.874,49.613C45.451,49.613,47.525,51.687,47.525,54.265ZM47.525,54.265"/>
</g>
  <g id="Regular-S" transform="matrix(1.0,0.0,0.0,1.0,1401.5165562823179,611.1565758135679)">  <path stroke-miterlimit="4" stroke-opacity="1" stroke="none" fill-rule="nonzero" stroke-dasharray="none" stroke-width="1px" stroke-linejoin="miter" xmlns:xlink="http://www.w3.org/1999/xlink" version="1.1" fill-opacity="1" stroke-linecap="butt" fill="#000000" d="M30.471,6.202L30.471,24.807L55.277,24.807L55.277,18.605L66.925,18.605C67.739,18.605,68.533,18.935,69.115,19.516L75.685,26.086C78.107,28.508,82.041,28.508,84.464,26.086C86.887,23.663,86.887,19.729,84.464,17.307L77.894,10.737C74.987,7.83,71.033,6.202,66.925,6.202L55.277,6.202C55.277,2.771,52.506,0,49.076,0L36.672,0C33.242,0,30.471,2.771,30.471,6.202ZM28.416,31.008C21.963,31.008,16.594,35.95,16.052,42.385L12.447,85.796C11.846,93.025,17.544,99.227,24.811,99.227L60.936,99.227C68.185,99.227,73.902,93.025,73.301,85.796L69.677,42.385C69.134,35.95,63.766,31.008,57.312,31.008L28.416,31.008ZM47.525,54.265L47.525,60.466L53.727,60.466C56.304,60.466,58.378,62.54,58.378,65.118C58.378,67.695,56.304,69.769,53.727,69.769L47.525,69.769L47.525,75.971C47.525,78.548,45.451,80.622,42.874,80.622C40.296,80.622,38.223,78.548,38.223,75.971L38.223,69.769L32.021,69.769C29.443,69.769,27.37,67.695,27.37,65.118C27.37,62.54,29.443,60.466,32.021,60.466L38.223,60.466L38.223,54.265C38.223,51.687,40.296,49.613,42.874,49.613C45.451,49.613,47.525,51.687,47.525,54.265ZM47.525,54.265"/>
</g>
  <g id="Light-S" transform="matrix(1.0,0.0,0.0,1.0,1104.806556282318,611.1565758135679)">  <path fill-rule="nonzero" version="1.1" stroke-linejoin="miter" fill="#000000" stroke-width="1px" stroke="none" stroke-opacity="1" stroke-dasharray="none" stroke-miterlimit="4" fill-opacity="1" xmlns:xlink="http://www.w3.org/1999/xlink" stroke-linecap="butt" d="M30.471,6.202L30.471,24.807L55.277,24.807L55.277,18.605L66.925,18.605C67.739,18.605,68.533,18.935,69.115,19.516L75.685,26.086C78.107,28.508,82.041,28.508,84.464,26.086C86.887,23.663,86.887,19.729,84.464,17.307L77.894,10.737C74.987,7.83,71.033,6.202,66.925,6.202L55.277,6.202C55.277,2.771,52.506,0,49.076,0L36.672,0C33.242,0,30.471,2.771,30.471,6.202ZM28.416,31.008C21.963,31.008,16.594,35.95,16.052,42.385L12.447,85.796C11.846,93.025,17.544,99.227,24.811,99.227L60.936,99.227C68.185,99.227,73.902,93.025,73.301,85.796L69.677,42.385C69.134,35.95,63.766,31.008,57.312,31.008L28.416,31.008ZM47.525,54.265L47.525,60.466L53.727,60.466C56.304,60.466,58.378,62.54,58.378,65.118C58.378,67.695,56.304,69.769,53.727,69.769L47.525,69.769L47.525,75.971C47.525,78.548,45.451,80.622,42.874,80.622C40.296,80.622,38.223,78.548,38.223,75.971L38.223,69.769L32.021,69.769C29.443,69.769,27.37,67.695,27.37,65.118C27.37,62.54,29.443,60.466,32.021,60.466L38.223,60.466L38.223,54.265C38.223,51.687,40.296,49.613,42.874,49.613C45.451,49.613,47.525,51.687,47.525,54.265ZM47.525,54.265"/>
</g>
  <g id="Thin-S" transform="matrix(1.0,0.0,0.0,1.0,808.0965562823179,611.1565758135679)">  <path version="1.1" fill-rule="nonzero" xmlns:xlink="http://www.w3.org/1999/xlink" stroke-linejoin="miter" fill="#000000" fill-opacity="1" stroke-miterlimit="4" stroke-opacity="1" stroke-linecap="butt" stroke-width="1px" stroke="none" stroke-dasharray="none" d="M30.471,6.202L30.471,24.807L55.277,24.807L55.277,18.605L66.925,18.605C67.739,18.605,68.533,18.935,69.115,19.516L75.685,26.086C78.107,28.508,82.041,28.508,84.464,26.086C86.887,23.663,86.887,19.729,84.464,17.307L77.894,10.737C74.987,7.83,71.033,6.202,66.925,6.202L55.277,6.202C55.277,2.771,52.506,0,49.076,0L36.672,0C33.242,0,30.471,2.771,30.471,6.202ZM28.416,31.008C21.963,31.008,16.594,35.95,16.052,42.385L12.447,85.796C11.846,93.025,17.544,99.227,24.811,99.227L60.936,99.227C68.185,99.227,73.902,93.025,73.301,85.796L69.677,42.385C69.134,35.95,63.766,31.008,57.312,31.008L28.416,31.008ZM47.525,54.265L47.525,60.466L53.727,60.466C56.304,60.466,58.378,62.54,58.378,65.118C58.378,67.695,56.304,69.769,53.727,69.769L47.525,69.769L47.525,75.971C47.525,78.548,45.451,80.622,42.874,80.622C40.296,80.622,38.223,78.548,38.223,75.971L38.223,69.769L32.021,69.769C29.443,69.769,27.37,67.695,27.37,65.118C27.37,62.54,29.443,60.466,32.021,60.466L38.223,60.466L38.223,54.265C38.223,51.687,40.296,49.613,42.874,49.613C45.451,49.613,47.525,51.687,47.525,54.265ZM47.525,54.265"/>
</g>
  <g id="Ultralight-S" transform="matrix(1.0,0.0,0.0,1.0,511.3865562823179,611.1565758135679)">  <path fill-rule="nonzero" version="1.1" stroke="none" xmlns:xlink="http://www.w3.org/1999/xlink" stroke-miterlimit="4" stroke-opacity="1" stroke-linejoin="miter" stroke-dasharray="none" fill-opacity="1" stroke-linecap="butt" fill="#000000" stroke-width="1px" d="M30.471,6.202L30.471,24.807L55.277,24.807L55.277,18.605L66.925,18.605C67.739,18.605,68.533,18.935,69.115,19.516L75.685,26.086C78.107,28.508,82.041,28.508,84.464,26.086C86.887,23.663,86.887,19.729,84.464,17.307L77.894,10.737C74.987,7.83,71.033,6.202,66.925,6.202L55.277,6.202C55.277,2.771,52.506,0,49.076,0L36.672,0C33.242,0,30.471,2.771,30.471,6.202ZM28.416,31.008C21.963,31.008,16.594,35.95,16.052,42.385L12.447,85.796C11.846,93.025,17.544,99.227,24.811,99.227L60.936,99.227C68.185,99.227,73.902,93.025,73.301,85.796L69.677,42.385C69.134,35.95,63.766,31.008,57.312,31.008L28.416,31.008ZM47.525,54.265L47.525,60.466L53.727,60.466C56.304,60.466,58.378,62.54,58.378,65.118C58.378,67.695,56.304,69.769,53.727,69.769L47.525,69.769L47.525,75.971C47.525,78.548,45.451,80.622,42.874,80.622C40.296,80.622,38.223,78.548,38.223,75.971L38.223,69.769L32.021,69.769C29.443,69.769,27.37,67.695,27.37,65.118C27.37,62.54,29.443,60.466,32.021,60.466L38.223,60.466L38.223,54.265C38.223,51.687,40.296,49.613,42.874,49.613C45.451,49.613,47.525,51.687,47.525,54.265ZM47.525,54.265"/>
</g>
 </g>
</svg>
