<?xml version="1.0" encoding="UTF-8"?>
<!-- Generator: CustomSymbols v2.7.2.48 by @serious_bret https://bretlester.com/app_content/CustomSymbols/ -->
<!-- Guides: Left/Right 0.11/0.11 Cap/Base 0.222/0.222 -->
<!-- Settings: RefScale 1.0 Min/Max Stroke Scales 0.5/2.21 -->
<!DOCTYPE svg
PUBLIC "-//W3C//DTD SVG 1.1//EN"
       "http://www.w3.org/Graphics/SVG/1.1/DTD/svg11.dtd">
<svg version="1.1" xmlns="http://www.w3.org/2000/svg" xmlns:xlink="http://www.w3.org/1999/xlink" width="3300" height="2200">
<![CDATA[<?xml version="1.0" encoding="UTF-8"?>
<svg width="96px" height="96px" viewBox="0 0 96 96" version="1.1" xmlns="http://www.w3.org/2000/svg" xmlns:xlink="http://www.w3.org/1999/xlink">
    <title>icon/medical/lungs-solid</title>
    <g id="icon/medical/lungs-solid" stroke="none" stroke-width="1" fill="none" fill-rule="evenodd">
        <path d="M48.0075012,10 C50.6629161,10 52.8082513,12.1453352 52.8082513,14.80075 L52.8082513,34.6188461 C52.8082513,37.0792305 54.0684482,39.3745891 56.1387717,40.6947953 L57.6090014,41.6249406 L57.6090014,34.7988742 C57.6090014,29.0529766 62.2597281,24.40225 68.0056259,24.40225 C71.2611346,24.40225 74.4266292,25.9324891 76.3769339,28.722925 C78.6872949,32.038443 83.0229723,38.5344578 87.0285982,46.2606648 C91.0042194,53.8968578 94.8898265,63.1383016 95.9699953,71.8096562 C96,72.0046867 96,72.1997172 96,72.40975 L96,73.4599141 C96,80.8260648 90.029067,86.812 82.6479137,86.812 C81.5527426,86.812 80.4725738,86.6769789 79.4074074,86.4069367 L68.5007032,83.6765102 C62.1097046,82.0862617 57.6090014,76.3253617 57.6090014,69.7093281 L57.6090014,58.7576172 L71.1861228,67.3989672 C72.3112986,68.1040773 73.7815284,67.7740258 74.5016409,66.6638523 C75.2217534,65.5536789 74.8766995,64.0684469 73.766526,63.3483344 L57.6090014,53.0717289 L57.6090014,53.0117195 L50.9929677,48.7960609 C49.8977965,48.1059531 48.9076418,47.2808242 48.0075012,46.3806836 C47.1223629,47.2808242 46.1172058,48.1059531 45.0220347,48.7960609 L38.4060009,53.0117195 L24.1837787,62.0581328 L22.1584623,63.3483344 C22.1584623,63.3483344 22.1584623,63.3483344 22.1434599,63.3483344 C21.0332865,64.0684469 20.7032349,65.5386766 21.4233474,66.6638523 C22.1284576,67.7890281 23.6136896,68.1190797 24.7388654,67.3989672 L38.4060009,58.6976078 L38.4060009,69.7093281 C38.4060009,76.3253617 33.9052977,82.0862617 27.4992968,83.6765102 L16.5925926,86.4069367 C15.5274262,86.6769789 14.4472574,86.812 13.3520863,86.812 C5.9859353,86.812 0,80.8410672 0,73.4599141 L0,72.40975 C0,72.2147195 0.0150023441,72.0046867 0.0300046882,71.8096562 C1.11017346,63.1232992 4.99578059,53.8968578 8.97140178,46.2606648 C12.99203,38.5344578 17.3127051,32.038443 19.6230661,28.722925 C21.5733708,25.9324891 24.7238631,24.40225 27.9943741,24.40225 C33.7552743,24.40225 38.4060009,29.0529766 38.4060009,34.7988742 L38.4060009,41.6249406 L39.8762307,40.6947953 C41.9465541,39.3745891 43.2067511,37.0792305 43.2067511,34.6188461 L43.2067511,14.80075 C43.2067511,12.1453352 45.3520863,10 48.0075012,10 Z" id="Shape" fill="#FB4C6C" fill-rule="nonzero"></path>
    </g>
</svg>]]>
 <g id="Notes">
  <rect height="2200" id="artboard" style="fill:white;opacity:1" width="3300" x="0" y="0"/>
  <line id="" style="fill:none;stroke:black;opacity:1;stroke-width:0.5;" x1="263" x2="3036" y1="292" y2="292"/>
  <text id="reftext1" style="stroke:none;fill:black;font-family:-apple-system,&quot;SF Pro Display&quot;,&quot;SF Pro Text&quot;,Helvetica,sans-serif;font-weight:bold;" transform="matrix(1 0 0 1 263 322)">Weight/Scale Variations</text>
  <text id="reftext2" style="stroke:none;fill:black;font-family:-apple-system,&quot;SF Pro Display&quot;,&quot;SF Pro Text&quot;,Helvetica,sans-serif;text-anchor:middle;" transform="matrix(1 0 0 1 559.711 322)">Ultralight</text>
  <text style="stroke:none;fill:black;font-family:-apple-system,&quot;SF Pro Display&quot;,&quot;SF Pro Text&quot;,Helvetica,sans-serif;text-anchor:middle;" transform="matrix(1 0 0 1 856.422 322)">Thin</text>
  <text style="stroke:none;fill:black;font-family:-apple-system,&quot;SF Pro Display&quot;,&quot;SF Pro Text&quot;,Helvetica,sans-serif;text-anchor:middle;" transform="matrix(1 0 0 1 1153.13 322)">Light</text>
  <text style="stroke:none;fill:black;font-family:-apple-system,&quot;SF Pro Display&quot;,&quot;SF Pro Text&quot;,Helvetica,sans-serif;text-anchor:middle;" transform="matrix(1 0 0 1 1449.84 322)">Regular</text>
  <text style="stroke:none;fill:black;font-family:-apple-system,&quot;SF Pro Display&quot;,&quot;SF Pro Text&quot;,Helvetica,sans-serif;text-anchor:middle;" transform="matrix(1 0 0 1 1746.56 322)">Medium</text>
  <text style="stroke:none;fill:black;font-family:-apple-system,&quot;SF Pro Display&quot;,&quot;SF Pro Text&quot;,Helvetica,sans-serif;text-anchor:middle;" transform="matrix(1 0 0 1 2043.27 322)">Semibold</text>
  <text style="stroke:none;fill:black;font-family:-apple-system,&quot;SF Pro Display&quot;,&quot;SF Pro Text&quot;,Helvetica,sans-serif;text-anchor:middle;" transform="matrix(1 0 0 1 2339.98 322)">Bold</text>
  <text style="stroke:none;fill:black;font-family:-apple-system,&quot;SF Pro Display&quot;,&quot;SF Pro Text&quot;,Helvetica,sans-serif;text-anchor:middle;" transform="matrix(1 0 0 1 2636.69 322)">Heavy</text>
  <text style="stroke:none;fill:black;font-family:-apple-system,&quot;SF Pro Display&quot;,&quot;SF Pro Text&quot;,Helvetica,sans-serif;text-anchor:middle;" transform="matrix(1 0 0 1 2933.4 322)">Black</text>
  <line id="" style="fill:none;stroke:black;opacity:1;stroke-width:0.5;" x1="263" x2="3036" y1="1903" y2="1903"/>
  <g id="" transform="matrix(1 0 0 1 263 1933)">
   <path d="M9.24805 0.830078C13.5547 0.830078 17.1387-2.74414 17.1387-7.05078C17.1387-11.3574 13.5449-14.9316 9.23828-14.9316C4.94141-14.9316 1.36719-11.3574 1.36719-7.05078C1.36719-2.74414 4.95117 0.830078 9.24805 0.830078ZM9.24805-0.654297C5.70312-0.654297 2.87109-3.49609 2.87109-7.05078C2.87109-10.6055 5.69336-13.4473 9.23828-13.4473C12.793-13.4473 15.6348-10.6055 15.6445-7.05078C15.6543-3.49609 12.8027-0.654297 9.24805-0.654297ZM6.39648-6.31836L8.50586-6.31836L8.50586-4.19922C8.50586-3.75977 8.79883-3.45703 9.22852-3.45703C9.67773-3.45703 9.9707-3.75977 9.9707-4.19922L9.9707-6.31836L12.0996-6.31836C12.5391-6.31836 12.8418-6.61133 12.8418-7.04102C12.8418-7.48047 12.5391-7.7832 12.0996-7.7832L9.9707-7.7832L9.9707-9.89258C9.9707-10.3418 9.67773-10.6445 9.22852-10.6445C8.79883-10.6445 8.50586-10.3418 8.50586-9.89258L8.50586-7.7832L6.39648-7.7832C5.94727-7.7832 5.64453-7.48047 5.64453-7.04102C5.64453-6.61133 5.94727-6.31836 6.39648-6.31836Z"/>
  </g>
  <g id="" transform="matrix(1 0 0 1 281.506 1933)">
   <path d="M11.709 2.91016C17.1582 2.91016 21.6699-1.61133 21.6699-7.05078C21.6699-12.5 17.1484-17.0117 11.6992-17.0117C6.25977-17.0117 1.74805-12.5 1.74805-7.05078C1.74805-1.61133 6.26953 2.91016 11.709 2.91016ZM11.709 1.25C7.09961 1.25 3.41797-2.44141 3.41797-7.05078C3.41797-11.6602 7.08984-15.3516 11.6992-15.3516C16.3086-15.3516 20-11.6602 20.0098-7.05078C20.0195-2.44141 16.3184 1.25 11.709 1.25ZM7.98828-6.23047L10.8789-6.23047L10.8789-3.32031C10.8789-2.83203 11.2109-2.5 11.6895-2.5C12.1777-2.5 12.5195-2.83203 12.5195-3.32031L12.5195-6.23047L15.4297-6.23047C15.918-6.23047 16.25-6.5625 16.25-7.04102C16.25-7.5293 15.918-7.87109 15.4297-7.87109L12.5195-7.87109L12.5195-10.7617C12.5195-11.2695 12.1777-11.6016 11.6895-11.6016C11.2109-11.6016 10.8789-11.2598 10.8789-10.7617L10.8789-7.87109L7.98828-7.87109C7.48047-7.87109 7.14844-7.5293 7.14844-7.04102C7.14844-6.5625 7.49023-6.23047 7.98828-6.23047Z"/>
  </g>
  <g id="" transform="matrix(1 0 0 1 304.924 1933)">
   <path d="M14.9707 5.66406C21.9336 5.66406 27.6953-0.0976562 27.6953-7.05078C27.6953-14.0137 21.9238-19.7754 14.9609-19.7754C8.00781-19.7754 2.25586-14.0137 2.25586-7.05078C2.25586-0.0976562 8.01758 5.66406 14.9707 5.66406ZM14.9707 3.84766C8.93555 3.84766 4.08203-1.01562 4.08203-7.05078C4.08203-13.0957 8.92578-17.9492 14.9609-17.9492C21.0059-17.9492 25.8594-13.0957 25.8691-7.05078C25.8789-1.01562 21.0156 3.84766 14.9707 3.84766ZM10.0586-6.14258L14.0625-6.14258L14.0625-2.12891C14.0625-1.5918 14.4336-1.2207 14.9512-1.2207C15.4883-1.2207 15.8594-1.5918 15.8594-2.12891L15.8594-6.14258L19.8828-6.14258C20.4102-6.14258 20.791-6.51367 20.791-7.03125C20.791-7.56836 20.4199-7.94922 19.8828-7.94922L15.8594-7.94922L15.8594-11.9531C15.8594-12.5098 15.4883-12.8809 14.9512-12.8809C14.4336-12.8809 14.0625-12.5 14.0625-11.9531L14.0625-7.94922L10.0586-7.94922C9.50195-7.94922 9.13086-7.56836 9.13086-7.03125C9.13086-6.51367 9.51172-6.14258 10.0586-6.14258Z"/>
  </g>
  <text style="stroke:none;fill:black;font-family:-apple-system,&quot;SF Pro Display&quot;,&quot;SF Pro Text&quot;,Helvetica,sans-serif;font-weight:bold;" transform="matrix(1 0 0 1 263 1953)">Design Variations</text>
  <text style="stroke:none;fill:black;font-family:-apple-system,&quot;SF Pro Display&quot;,&quot;SF Pro Text&quot;,Helvetica,sans-serif;" transform="matrix(1 0 0 1 263 1971)">Symbols are supported in up to nine weights and three scales.</text>
  <text style="stroke:none;fill:black;font-family:-apple-system,&quot;SF Pro Display&quot;,&quot;SF Pro Text&quot;,Helvetica,sans-serif;" transform="matrix(1 0 0 1 263 1989)">For optimal layout with text and other symbols, vertically align</text>
  <text style="stroke:none;fill:black;font-family:-apple-system,&quot;SF Pro Display&quot;,&quot;SF Pro Text&quot;,Helvetica,sans-serif;" transform="matrix(1 0 0 1 263 2007)">symbols with the adjacent text.</text>
  <line id="" style="fill:none;stroke:#00AEEF;stroke-width:0.5;opacity:1.0;" x1="776" x2="776" y1="1919" y2="1933"/>
  <g id="" transform="matrix(1 0 0 1 776 1933)">
   <path d="M3.31055 0.126953C3.82812 0.126953 4.08203-0.0683594 4.26758-0.605469L5.52734-4.0625L11.2891-4.0625L12.5488-0.605469C12.7344-0.0683594 12.9883 0.126953 13.4961 0.126953C14.0137 0.126953 14.3457-0.185547 14.3457-0.673828C14.3457-0.839844 14.3164-0.986328 14.2383-1.20117L9.6582-13.3887C9.43359-13.9941 9.0332-14.2871 8.4082-14.2871C7.80273-14.2871 7.39258-13.9941 7.17773-13.3984L2.59766-1.19141C2.51953-0.976562 2.49023-0.830078 2.49023-0.664062C2.49023-0.175781 2.80273 0.126953 3.31055 0.126953ZM6.00586-5.53711L8.37891-12.1094L8.42773-12.1094L10.8008-5.53711Z"/>
  </g>
  <line id="" style="fill:none;stroke:#00AEEF;stroke-width:0.5;opacity:1.0;" x1="792.836" x2="792.836" y1="1919" y2="1933"/>
  <text style="stroke:none;fill:black;font-family:-apple-system,&quot;SF Pro Display&quot;,&quot;SF Pro Text&quot;,Helvetica,sans-serif;font-weight:bold;" transform="matrix(1 0 0 1 776 1953)">Margins</text>
  <text style="stroke:none;fill:black;font-family:-apple-system,&quot;SF Pro Display&quot;,&quot;SF Pro Text&quot;,Helvetica,sans-serif;" transform="matrix(1 0 0 1 776 1971)">Leading and trailing margins on the left and right side of each symbol</text>
  <text style="stroke:none;fill:black;font-family:-apple-system,&quot;SF Pro Display&quot;,&quot;SF Pro Text&quot;,Helvetica,sans-serif;" transform="matrix(1 0 0 1 776 1989)">can be adjusted by modifying the x-location of the margin guidelines.</text>
  <text style="stroke:none;fill:black;font-family:-apple-system,&quot;SF Pro Display&quot;,&quot;SF Pro Text&quot;,Helvetica,sans-serif;" transform="matrix(1 0 0 1 776 2007)">Modifications are automatically applied proportionally to all</text>
  <text style="stroke:none;fill:black;font-family:-apple-system,&quot;SF Pro Display&quot;,&quot;SF Pro Text&quot;,Helvetica,sans-serif;" transform="matrix(1 0 0 1 776 2025)">scales and weights.</text>
  <g id="" transform="matrix(1 0 0 1 1289 1933)">
   <path d="M2.8418 1.86523L4.54102 3.57422C5.40039 4.44336 6.38672 4.38477 7.31445 3.35938L17.4902-7.85156C17.7539-7.76367 18.0273-7.7832 18.3398-7.8418L19.4043-8.03711L20.0684-7.36328L20.0293-6.80664C19.9902-6.30859 20.1172-5.92773 20.6055-5.44922L21.3672-4.70703C21.8457-4.22852 22.4609-4.19922 22.9297-4.66797L25.8398-7.58789C26.3086-8.05664 26.2891-8.65234 25.8105-9.13086L25.0391-9.89258C24.5605-10.3711 24.1895-10.5273 23.7109-10.4883L23.1348-10.4395L22.4902-11.0742L22.7344-12.1973C22.8613-12.7637 22.7051-13.2031 22.1191-13.7891L19.9219-15.9766C16.582-19.2969 12.1484-19.2188 9.25781-16.3281C8.83789-15.918 8.80859-15.3418 9.04297-14.9512C9.27734-14.5898 9.73633-14.3555 10.3809-14.5215C11.8457-14.8633 13.3691-14.9219 14.7949-13.9844L14.209-12.5293C14.0137-12.0508 13.9844-11.6504 14.1113-11.2891L3.04688-0.898438C2.06055 0.0195312 1.98242 0.996094 2.8418 1.86523ZM10.752-15.957C13.1836-17.7344 16.4746-17.4316 18.7012-15.2051L21.1328-12.793C21.3672-12.5586 21.4062-12.373 21.3379-12.0312L21.0156-10.5469L22.5195-9.0625L23.5059-9.12109C23.7598-9.13086 23.8379-9.11133 24.0332-8.91602L24.6094-8.33984L22.168-5.89844L21.5918-6.47461C21.3965-6.66992 21.3672-6.74805 21.377-7.01172L21.4453-7.98828L19.9512-9.47266L18.4277-9.21875C18.1055-9.15039 17.959-9.17969 17.7148-9.41406L15.7129-11.416C15.459-11.6504 15.4297-11.8164 15.5859-12.1875L16.4648-14.2773C14.9023-15.7324 12.8711-16.3574 10.8398-15.7617C10.6836-15.7227 10.625-15.8496 10.752-15.957ZM5.27344 2.30469L4.10156 1.14258C3.63281 0.683594 3.74023 0.341797 4.14062-0.0195312L14.9512-10.1953L16.416-8.71094L6.42578 2.27539C6.07422 2.67578 5.74219 2.77344 5.27344 2.30469Z"/>
  </g>
  <text style="stroke:none;fill:black;font-family:-apple-system,&quot;SF Pro Display&quot;,&quot;SF Pro Text&quot;,Helvetica,sans-serif;font-weight:bold;" transform="matrix(1 0 0 1 1289 1953)">Exporting</text>
  <text style="stroke:none;fill:black;font-family:-apple-system,&quot;SF Pro Display&quot;,&quot;SF Pro Text&quot;,Helvetica,sans-serif;" transform="matrix(1 0 0 1 1289 1971)">Symbols should be outlined when exporting to ensure the</text>
  <text style="stroke:none;fill:black;font-family:-apple-system,&quot;SF Pro Display&quot;,&quot;SF Pro Text&quot;,Helvetica,sans-serif;" transform="matrix(1 0 0 1 1289 1989)">design is preserved when submitting to Xcode.</text>
  <text id="template-version" style="stroke:none;fill:black;font-family:-apple-system,&quot;SF Pro Display&quot;,&quot;SF Pro Text&quot;,Helvetica,sans-serif;text-anchor:end;" transform="matrix(1 0 0 1 3036 1933)">Template v.2.0</text>
  <text style="stroke:none;fill:black;font-family:-apple-system,&quot;SF Pro Display&quot;,&quot;SF Pro Text&quot;,Helvetica,sans-serif;text-anchor:end;" transform="matrix(1 0 0 1 3036 1951)">Requires Xcode 12 or greater</text>
  <text style="stroke:none;fill:black;font-family:-apple-system,&quot;SF Pro Display&quot;,&quot;SF Pro Text&quot;,Helvetica,sans-serif;" transform="matrix(1 0 0 1 263 726)">Small</text>
  <text style="stroke:none;fill:black;font-family:-apple-system,&quot;SF Pro Display&quot;,&quot;SF Pro Text&quot;,Helvetica,sans-serif;" transform="matrix(1 0 0 1 263 1156)">Medium</text>
  <text style="stroke:none;fill:black;font-family:-apple-system,&quot;SF Pro Display&quot;,&quot;SF Pro Text&quot;,Helvetica,sans-serif;" transform="matrix(1 0 0 1 263 1586)">Large</text>
 </g>
 <g id="Guides">
  <g id="H-reference" style="fill:#27AAE1;stroke:none;" transform="matrix(1 0 0 1 339 696)">
   <path d="M0.976562 0L3.66211 0L12.9883-24.4629L45.752-24.4629L55.127 0L57.7637 0L30.6152-70.459L28.125-70.459ZM29.3457-67.1387L29.4434-67.1387L44.873-26.709L13.8672-26.709Z"/>
  </g>
  <line id="Baseline-S" style="fill:none;stroke:#27AAE1;opacity:1;stroke-width:0.5;" x1="263" x2="3036" y1="696" y2="696"/>
  <line id="Capline-S" style="fill:none;stroke:#27AAE1;opacity:1;stroke-width:0.5;" x1="263" x2="3036" y1="625.541" y2="625.541"/>
  <g id="H-reference" style="fill:#27AAE1;stroke:none;" transform="matrix(1 0 0 1 339 1126)">
   <path d="M0.976562 0L3.66211 0L12.9883-24.4629L45.752-24.4629L55.127 0L57.7637 0L30.6152-70.459L28.125-70.459ZM29.3457-67.1387L29.4434-67.1387L44.873-26.709L13.8672-26.709Z"/>
  </g>
  <line id="Baseline-M" style="fill:none;stroke:#27AAE1;opacity:1;stroke-width:0.5;" x1="263" x2="3036" y1="1126" y2="1126"/>
  <line id="Capline-M" style="fill:none;stroke:#27AAE1;opacity:1;stroke-width:0.5;" x1="263" x2="3036" y1="1055.54" y2="1055.54"/>
  <g id="H-reference" style="fill:#27AAE1;stroke:none;" transform="matrix(1 0 0 1 339 1556)">
   <path d="M0.976562 0L3.66211 0L12.9883-24.4629L45.752-24.4629L55.127 0L57.7637 0L30.6152-70.459L28.125-70.459ZM29.3457-67.1387L29.4434-67.1387L44.873-26.709L13.8672-26.709Z"/>
  </g>
  <line id="Baseline-L" style="fill:none;stroke:#27AAE1;opacity:1;stroke-width:0.5;" x1="263" x2="3036" y1="1556" y2="1556"/>
  <line id="Capline-L" style="fill:none;stroke:#27AAE1;opacity:1;stroke-width:0.5;" x1="263" x2="3036" y1="1485.54" y2="1485.54"/>
  <line id="left-margin" x1="1401.7066461049908" x2="1401.7066461049908" y1="1030.79" y2="1150.12" style="fill:none;stroke:#00AEEF;stroke-width:0.5;opacity:1.0;"/>
  <line id="right-margin" x1="1500.553353895009" x2="1500.553353895009" y1="1030.79" y2="1150.12" style="fill:none;stroke:#00AEEF;stroke-width:0.5;opacity:1.0;"/>
 </g>
 <g id="Symbols">
  <g id="Black-L" transform="matrix(1.0,0.0,0.0,1.0,2852.941376250562,1439.031395781812)">  <path stroke-width="1px" stroke-dasharray="none" xmlns:xlink="http://www.w3.org/1999/xlink" fill-rule="nonzero" fill="#000000" stroke-miterlimit="4" version="1.1" stroke="none" fill-opacity="1" stroke-linejoin="miter" stroke-opacity="1" stroke-linecap="butt" d="M81.751,17.029C86.273,17.029,89.927,20.682,89.927,25.204L89.927,58.952C89.927,63.142,92.073,67.051,95.598,69.299L98.102,70.883L98.102,59.259C98.102,49.474,106.021,41.554,115.806,41.554C121.35,41.554,126.74,44.16,130.061,48.912C133.996,54.558,141.379,65.62,148.2,78.777C154.97,91.78,161.587,107.517,163.426,122.284C163.477,122.616,163.477,122.948,163.477,123.306L163.477,125.094C163.477,137.638,153.309,147.831,140.74,147.831C138.875,147.831,137.036,147.601,135.222,147.141L116.649,142.492C105.766,139.784,98.102,129.974,98.102,118.707L98.102,100.058L121.222,114.773C123.138,115.974,125.642,115.412,126.868,113.521C128.094,111.631,127.507,109.101,125.616,107.875L98.102,90.375L98.102,90.273L86.835,83.094C84.97,81.919,83.284,80.514,81.751,78.981C80.244,80.514,78.532,81.919,76.667,83.094L65.401,90.273L41.182,105.678L37.733,107.875C37.733,107.875,37.733,107.875,37.708,107.875C35.817,109.101,35.255,111.605,36.482,113.521C37.682,115.437,40.211,115.999,42.128,114.773L65.401,99.955L65.401,118.707C65.401,129.974,57.737,139.784,46.828,142.492L28.255,147.141C26.441,147.601,24.602,147.831,22.737,147.831C10.193,147.831,0,137.663,0,125.094L0,123.306C0,122.974,0.026,122.616,0.051,122.284C1.891,107.492,8.507,91.78,15.277,78.777C22.124,65.62,29.482,54.558,33.416,48.912C36.737,44.16,42.102,41.554,47.671,41.554C57.481,41.554,65.401,49.474,65.401,59.259L65.401,70.883L67.905,69.299C71.43,67.051,73.576,63.142,73.576,58.952L73.576,25.204C73.576,20.682,77.23,17.029,81.751,17.029ZM81.751,17.029"/>
</g>
  <g id="Heavy-L" transform="matrix(1.0,0.0,0.0,1.0,2556.231376250562,1439.031395781812)">  <path version="1.1" stroke-width="1px" xmlns:xlink="http://www.w3.org/1999/xlink" stroke="none" stroke-linecap="butt" fill-rule="nonzero" stroke-opacity="1" fill="#000000" fill-opacity="1" stroke-dasharray="none" stroke-miterlimit="4" stroke-linejoin="miter" d="M81.751,17.029C86.273,17.029,89.927,20.682,89.927,25.204L89.927,58.952C89.927,63.142,92.073,67.051,95.598,69.299L98.102,70.883L98.102,59.259C98.102,49.474,106.021,41.554,115.806,41.554C121.35,41.554,126.74,44.16,130.061,48.912C133.996,54.558,141.379,65.62,148.2,78.777C154.97,91.78,161.587,107.517,163.426,122.284C163.477,122.616,163.477,122.948,163.477,123.306L163.477,125.094C163.477,137.638,153.309,147.831,140.74,147.831C138.875,147.831,137.036,147.601,135.222,147.141L116.649,142.492C105.766,139.784,98.102,129.974,98.102,118.707L98.102,100.058L121.222,114.773C123.138,115.974,125.642,115.412,126.868,113.521C128.094,111.631,127.507,109.101,125.616,107.875L98.102,90.375L98.102,90.273L86.835,83.094C84.97,81.919,83.284,80.514,81.751,78.981C80.244,80.514,78.532,81.919,76.667,83.094L65.401,90.273L41.182,105.678L37.733,107.875C37.733,107.875,37.733,107.875,37.708,107.875C35.817,109.101,35.255,111.605,36.482,113.521C37.682,115.437,40.211,115.999,42.128,114.773L65.401,99.955L65.401,118.707C65.401,129.974,57.737,139.784,46.828,142.492L28.255,147.141C26.441,147.601,24.602,147.831,22.737,147.831C10.193,147.831,0,137.663,0,125.094L0,123.306C0,122.974,0.026,122.616,0.051,122.284C1.891,107.492,8.507,91.78,15.277,78.777C22.124,65.62,29.482,54.558,33.416,48.912C36.737,44.16,42.102,41.554,47.671,41.554C57.481,41.554,65.401,49.474,65.401,59.259L65.401,70.883L67.905,69.299C71.43,67.051,73.576,63.142,73.576,58.952L73.576,25.204C73.576,20.682,77.23,17.029,81.751,17.029ZM81.751,17.029"/>
</g>
  <g id="Bold-L" transform="matrix(1.0,0.0,0.0,1.0,2259.521376250562,1439.031395781812)">  <path stroke-dasharray="none" stroke="none" fill-opacity="1" stroke-opacity="1" stroke-linecap="butt" version="1.1" stroke-linejoin="miter" fill="#000000" stroke-width="1px" stroke-miterlimit="4" fill-rule="nonzero" xmlns:xlink="http://www.w3.org/1999/xlink" d="M81.751,17.029C86.273,17.029,89.927,20.682,89.927,25.204L89.927,58.952C89.927,63.142,92.073,67.051,95.598,69.299L98.102,70.883L98.102,59.259C98.102,49.474,106.021,41.554,115.806,41.554C121.35,41.554,126.74,44.16,130.061,48.912C133.996,54.558,141.379,65.62,148.2,78.777C154.97,91.78,161.587,107.517,163.426,122.284C163.477,122.616,163.477,122.948,163.477,123.306L163.477,125.094C163.477,137.638,153.309,147.831,140.74,147.831C138.875,147.831,137.036,147.601,135.222,147.141L116.649,142.492C105.766,139.784,98.102,129.974,98.102,118.707L98.102,100.058L121.222,114.773C123.138,115.974,125.642,115.412,126.868,113.521C128.094,111.631,127.507,109.101,125.616,107.875L98.102,90.375L98.102,90.273L86.835,83.094C84.97,81.919,83.284,80.514,81.751,78.981C80.244,80.514,78.532,81.919,76.667,83.094L65.401,90.273L41.182,105.678L37.733,107.875C37.733,107.875,37.733,107.875,37.708,107.875C35.817,109.101,35.255,111.605,36.482,113.521C37.682,115.437,40.211,115.999,42.128,114.773L65.401,99.955L65.401,118.707C65.401,129.974,57.737,139.784,46.828,142.492L28.255,147.141C26.441,147.601,24.602,147.831,22.737,147.831C10.193,147.831,0,137.663,0,125.094L0,123.306C0,122.974,0.026,122.616,0.051,122.284C1.891,107.492,8.507,91.78,15.277,78.777C22.124,65.62,29.482,54.558,33.416,48.912C36.737,44.16,42.102,41.554,47.671,41.554C57.481,41.554,65.401,49.474,65.401,59.259L65.401,70.883L67.905,69.299C71.43,67.051,73.576,63.142,73.576,58.952L73.576,25.204C73.576,20.682,77.23,17.029,81.751,17.029ZM81.751,17.029"/>
</g>
  <g id="Semibold-L" transform="matrix(1.0,0.0,0.0,1.0,1962.811376250562,1439.031395781812)">  <path stroke="none" fill-opacity="1" xmlns:xlink="http://www.w3.org/1999/xlink" stroke-miterlimit="4" fill-rule="nonzero" stroke-dasharray="none" version="1.1" stroke-width="1px" stroke-opacity="1" fill="#000000" stroke-linecap="butt" stroke-linejoin="miter" d="M81.751,17.029C86.273,17.029,89.927,20.682,89.927,25.204L89.927,58.952C89.927,63.142,92.073,67.051,95.598,69.299L98.102,70.883L98.102,59.259C98.102,49.474,106.021,41.554,115.806,41.554C121.35,41.554,126.74,44.16,130.061,48.912C133.996,54.558,141.379,65.62,148.2,78.777C154.97,91.78,161.587,107.517,163.426,122.284C163.477,122.616,163.477,122.948,163.477,123.306L163.477,125.094C163.477,137.638,153.309,147.831,140.74,147.831C138.875,147.831,137.036,147.601,135.222,147.141L116.649,142.492C105.766,139.784,98.102,129.974,98.102,118.707L98.102,100.058L121.222,114.773C123.138,115.974,125.642,115.412,126.868,113.521C128.094,111.631,127.507,109.101,125.616,107.875L98.102,90.375L98.102,90.273L86.835,83.094C84.97,81.919,83.284,80.514,81.751,78.981C80.244,80.514,78.532,81.919,76.667,83.094L65.401,90.273L41.182,105.678L37.733,107.875C37.733,107.875,37.733,107.875,37.708,107.875C35.817,109.101,35.255,111.605,36.482,113.521C37.682,115.437,40.211,115.999,42.128,114.773L65.401,99.955L65.401,118.707C65.401,129.974,57.737,139.784,46.828,142.492L28.255,147.141C26.441,147.601,24.602,147.831,22.737,147.831C10.193,147.831,0,137.663,0,125.094L0,123.306C0,122.974,0.026,122.616,0.051,122.284C1.891,107.492,8.507,91.78,15.277,78.777C22.124,65.62,29.482,54.558,33.416,48.912C36.737,44.16,42.102,41.554,47.671,41.554C57.481,41.554,65.401,49.474,65.401,59.259L65.401,70.883L67.905,69.299C71.43,67.051,73.576,63.142,73.576,58.952L73.576,25.204C73.576,20.682,77.23,17.029,81.751,17.029ZM81.751,17.029"/>
</g>
  <g id="Medium-L" transform="matrix(1.0,0.0,0.0,1.0,1666.101376250562,1439.031395781812)">  <path fill-rule="nonzero" stroke-linecap="butt" stroke="none" fill="#000000" stroke-width="1px" version="1.1" stroke-linejoin="miter" stroke-miterlimit="4" stroke-dasharray="none" stroke-opacity="1" xmlns:xlink="http://www.w3.org/1999/xlink" fill-opacity="1" d="M81.751,17.029C86.273,17.029,89.927,20.682,89.927,25.204L89.927,58.952C89.927,63.142,92.073,67.051,95.598,69.299L98.102,70.883L98.102,59.259C98.102,49.474,106.021,41.554,115.806,41.554C121.35,41.554,126.74,44.16,130.061,48.912C133.996,54.558,141.379,65.62,148.2,78.777C154.97,91.78,161.587,107.517,163.426,122.284C163.477,122.616,163.477,122.948,163.477,123.306L163.477,125.094C163.477,137.638,153.309,147.831,140.74,147.831C138.875,147.831,137.036,147.601,135.222,147.141L116.649,142.492C105.766,139.784,98.102,129.974,98.102,118.707L98.102,100.058L121.222,114.773C123.138,115.974,125.642,115.412,126.868,113.521C128.094,111.631,127.507,109.101,125.616,107.875L98.102,90.375L98.102,90.273L86.835,83.094C84.97,81.919,83.284,80.514,81.751,78.981C80.244,80.514,78.532,81.919,76.667,83.094L65.401,90.273L41.182,105.678L37.733,107.875C37.733,107.875,37.733,107.875,37.708,107.875C35.817,109.101,35.255,111.605,36.482,113.521C37.682,115.437,40.211,115.999,42.128,114.773L65.401,99.955L65.401,118.707C65.401,129.974,57.737,139.784,46.828,142.492L28.255,147.141C26.441,147.601,24.602,147.831,22.737,147.831C10.193,147.831,0,137.663,0,125.094L0,123.306C0,122.974,0.026,122.616,0.051,122.284C1.891,107.492,8.507,91.78,15.277,78.777C22.124,65.62,29.482,54.558,33.416,48.912C36.737,44.16,42.102,41.554,47.671,41.554C57.481,41.554,65.401,49.474,65.401,59.259L65.401,70.883L67.905,69.299C71.43,67.051,73.576,63.142,73.576,58.952L73.576,25.204C73.576,20.682,77.23,17.029,81.751,17.029ZM81.751,17.029"/>
</g>
  <g id="Regular-L" transform="matrix(1.0,0.0,0.0,1.0,1369.391376250562,1439.031395781812)">  <path xmlns:xlink="http://www.w3.org/1999/xlink" fill-rule="nonzero" stroke-miterlimit="4" fill="#000000" stroke-width="1px" stroke-dasharray="none" stroke-linecap="butt" stroke="none" version="1.1" stroke-linejoin="miter" stroke-opacity="1" fill-opacity="1" d="M81.751,17.029C86.273,17.029,89.927,20.682,89.927,25.204L89.927,58.952C89.927,63.142,92.073,67.051,95.598,69.299L98.102,70.883L98.102,59.259C98.102,49.474,106.021,41.554,115.806,41.554C121.35,41.554,126.74,44.16,130.061,48.912C133.996,54.558,141.379,65.62,148.2,78.777C154.97,91.78,161.587,107.517,163.426,122.284C163.477,122.616,163.477,122.948,163.477,123.306L163.477,125.094C163.477,137.638,153.309,147.831,140.74,147.831C138.875,147.831,137.036,147.601,135.222,147.141L116.649,142.492C105.766,139.784,98.102,129.974,98.102,118.707L98.102,100.058L121.222,114.773C123.138,115.974,125.642,115.412,126.868,113.521C128.094,111.631,127.507,109.101,125.616,107.875L98.102,90.375L98.102,90.273L86.835,83.094C84.97,81.919,83.284,80.514,81.751,78.981C80.244,80.514,78.532,81.919,76.667,83.094L65.401,90.273L41.182,105.678L37.733,107.875C37.733,107.875,37.733,107.875,37.708,107.875C35.817,109.101,35.255,111.605,36.482,113.521C37.682,115.437,40.211,115.999,42.128,114.773L65.401,99.955L65.401,118.707C65.401,129.974,57.737,139.784,46.828,142.492L28.255,147.141C26.441,147.601,24.602,147.831,22.737,147.831C10.193,147.831,0,137.663,0,125.094L0,123.306C0,122.974,0.026,122.616,0.051,122.284C1.891,107.492,8.507,91.78,15.277,78.777C22.124,65.62,29.482,54.558,33.416,48.912C36.737,44.16,42.102,41.554,47.671,41.554C57.481,41.554,65.401,49.474,65.401,59.259L65.401,70.883L67.905,69.299C71.43,67.051,73.576,63.142,73.576,58.952L73.576,25.204C73.576,20.682,77.23,17.029,81.751,17.029ZM81.751,17.029"/>
</g>
  <g id="Light-L" transform="matrix(1.0,0.0,0.0,1.0,1072.6813762505622,1439.031395781812)">  <path stroke="none" stroke-miterlimit="4" stroke-linejoin="miter" stroke-opacity="1" stroke-dasharray="none" fill="#000000" xmlns:xlink="http://www.w3.org/1999/xlink" version="1.1" stroke-width="1px" stroke-linecap="butt" fill-rule="nonzero" fill-opacity="1" d="M81.751,17.029C86.273,17.029,89.927,20.682,89.927,25.204L89.927,58.952C89.927,63.142,92.073,67.051,95.598,69.299L98.102,70.883L98.102,59.259C98.102,49.474,106.021,41.554,115.806,41.554C121.35,41.554,126.74,44.16,130.061,48.912C133.996,54.558,141.379,65.62,148.2,78.777C154.97,91.78,161.587,107.517,163.426,122.284C163.477,122.616,163.477,122.948,163.477,123.306L163.477,125.094C163.477,137.638,153.309,147.831,140.74,147.831C138.875,147.831,137.036,147.601,135.222,147.141L116.649,142.492C105.766,139.784,98.102,129.974,98.102,118.707L98.102,100.058L121.222,114.773C123.138,115.974,125.642,115.412,126.868,113.521C128.094,111.631,127.507,109.101,125.616,107.875L98.102,90.375L98.102,90.273L86.835,83.094C84.97,81.919,83.284,80.514,81.751,78.981C80.244,80.514,78.532,81.919,76.667,83.094L65.401,90.273L41.182,105.678L37.733,107.875C37.733,107.875,37.733,107.875,37.708,107.875C35.817,109.101,35.255,111.605,36.482,113.521C37.682,115.437,40.211,115.999,42.128,114.773L65.401,99.955L65.401,118.707C65.401,129.974,57.737,139.784,46.828,142.492L28.255,147.141C26.441,147.601,24.602,147.831,22.737,147.831C10.193,147.831,0,137.663,0,125.094L0,123.306C0,122.974,0.026,122.616,0.051,122.284C1.891,107.492,8.507,91.78,15.277,78.777C22.124,65.62,29.482,54.558,33.416,48.912C36.737,44.16,42.102,41.554,47.671,41.554C57.481,41.554,65.401,49.474,65.401,59.259L65.401,70.883L67.905,69.299C71.43,67.051,73.576,63.142,73.576,58.952L73.576,25.204C73.576,20.682,77.23,17.029,81.751,17.029ZM81.751,17.029"/>
</g>
  <g id="Thin-L" transform="matrix(1.0,0.0,0.0,1.0,775.9713762505621,1439.031395781812)">  <path stroke-width="1px" fill-rule="nonzero" xmlns:xlink="http://www.w3.org/1999/xlink" stroke="none" stroke-miterlimit="4" stroke-linecap="butt" version="1.1" stroke-opacity="1" stroke-linejoin="miter" fill="#000000" stroke-dasharray="none" fill-opacity="1" d="M81.751,17.029C86.273,17.029,89.927,20.682,89.927,25.204L89.927,58.952C89.927,63.142,92.073,67.051,95.598,69.299L98.102,70.883L98.102,59.259C98.102,49.474,106.021,41.554,115.806,41.554C121.35,41.554,126.74,44.16,130.061,48.912C133.996,54.558,141.379,65.62,148.2,78.777C154.97,91.78,161.587,107.517,163.426,122.284C163.477,122.616,163.477,122.948,163.477,123.306L163.477,125.094C163.477,137.638,153.309,147.831,140.74,147.831C138.875,147.831,137.036,147.601,135.222,147.141L116.649,142.492C105.766,139.784,98.102,129.974,98.102,118.707L98.102,100.058L121.222,114.773C123.138,115.974,125.642,115.412,126.868,113.521C128.094,111.631,127.507,109.101,125.616,107.875L98.102,90.375L98.102,90.273L86.835,83.094C84.97,81.919,83.284,80.514,81.751,78.981C80.244,80.514,78.532,81.919,76.667,83.094L65.401,90.273L41.182,105.678L37.733,107.875C37.733,107.875,37.733,107.875,37.708,107.875C35.817,109.101,35.255,111.605,36.482,113.521C37.682,115.437,40.211,115.999,42.128,114.773L65.401,99.955L65.401,118.707C65.401,129.974,57.737,139.784,46.828,142.492L28.255,147.141C26.441,147.601,24.602,147.831,22.737,147.831C10.193,147.831,0,137.663,0,125.094L0,123.306C0,122.974,0.026,122.616,0.051,122.284C1.891,107.492,8.507,91.78,15.277,78.777C22.124,65.62,29.482,54.558,33.416,48.912C36.737,44.16,42.102,41.554,47.671,41.554C57.481,41.554,65.401,49.474,65.401,59.259L65.401,70.883L67.905,69.299C71.43,67.051,73.576,63.142,73.576,58.952L73.576,25.204C73.576,20.682,77.23,17.029,81.751,17.029ZM81.751,17.029"/>
</g>
  <g id="Ultralight-L" transform="matrix(1.0,0.0,0.0,1.0,479.2613762505621,1439.031395781812)">  <path stroke-opacity="1" fill="#000000" fill-opacity="1" stroke-miterlimit="4" version="1.1" stroke-linejoin="miter" xmlns:xlink="http://www.w3.org/1999/xlink" stroke="none" stroke-dasharray="none" stroke-linecap="butt" stroke-width="1px" fill-rule="nonzero" d="M81.751,17.029C86.273,17.029,89.927,20.682,89.927,25.204L89.927,58.952C89.927,63.142,92.073,67.051,95.598,69.299L98.102,70.883L98.102,59.259C98.102,49.474,106.021,41.554,115.806,41.554C121.35,41.554,126.74,44.16,130.061,48.912C133.996,54.558,141.379,65.62,148.2,78.777C154.97,91.78,161.587,107.517,163.426,122.284C163.477,122.616,163.477,122.948,163.477,123.306L163.477,125.094C163.477,137.638,153.309,147.831,140.74,147.831C138.875,147.831,137.036,147.601,135.222,147.141L116.649,142.492C105.766,139.784,98.102,129.974,98.102,118.707L98.102,100.058L121.222,114.773C123.138,115.974,125.642,115.412,126.868,113.521C128.094,111.631,127.507,109.101,125.616,107.875L98.102,90.375L98.102,90.273L86.835,83.094C84.97,81.919,83.284,80.514,81.751,78.981C80.244,80.514,78.532,81.919,76.667,83.094L65.401,90.273L41.182,105.678L37.733,107.875C37.733,107.875,37.733,107.875,37.708,107.875C35.817,109.101,35.255,111.605,36.482,113.521C37.682,115.437,40.211,115.999,42.128,114.773L65.401,99.955L65.401,118.707C65.401,129.974,57.737,139.784,46.828,142.492L28.255,147.141C26.441,147.601,24.602,147.831,22.737,147.831C10.193,147.831,0,137.663,0,125.094L0,123.306C0,122.974,0.026,122.616,0.051,122.284C1.891,107.492,8.507,91.78,15.277,78.777C22.124,65.62,29.482,54.558,33.416,48.912C36.737,44.16,42.102,41.554,47.671,41.554C57.481,41.554,65.401,49.474,65.401,59.259L65.401,70.883L67.905,69.299C71.43,67.051,73.576,63.142,73.576,58.952L73.576,25.204C73.576,20.682,77.23,17.029,81.751,17.029ZM81.751,17.029"/>
</g>
  <g id="Black-M" transform="matrix(1.0,0.0,0.0,1.0,2871.3167257756295,1027.4067453068794)">  <path stroke-width="1px" stroke-dasharray="none" xmlns:xlink="http://www.w3.org/1999/xlink" fill-rule="nonzero" fill="#000000" stroke-miterlimit="4" version="1.1" stroke="none" fill-opacity="1" stroke-linejoin="miter" stroke-opacity="1" stroke-linecap="butt" d="M63.373,13.201C66.879,13.201,69.71,16.033,69.71,19.538L69.71,45.699C69.71,48.947,71.374,51.977,74.107,53.72L76.048,54.948L76.048,45.937C76.048,38.352,82.187,32.213,89.772,32.213C94.07,32.213,98.248,34.233,100.823,37.916C103.873,42.293,109.596,50.868,114.884,61.067C120.132,71.148,125.261,83.347,126.687,94.794C126.727,95.051,126.727,95.309,126.727,95.586L126.727,96.972C126.727,106.696,118.845,114.598,109.101,114.598C107.655,114.598,106.229,114.42,104.823,114.063L90.426,110.459C81.989,108.359,76.048,100.755,76.048,92.021L76.048,77.564L93.971,88.971C95.456,89.902,97.397,89.466,98.347,88.001C99.298,86.535,98.842,84.575,97.377,83.624L76.048,70.058L76.048,69.979L67.314,64.414C65.868,63.503,64.561,62.414,63.373,61.226C62.205,62.414,60.878,63.503,59.432,64.414L50.699,69.979L31.924,81.921L29.251,83.624C29.251,83.624,29.251,83.624,29.231,83.624C27.765,84.575,27.33,86.516,28.28,88.001C29.211,89.486,31.172,89.922,32.657,88.971L50.699,77.485L50.699,92.021C50.699,100.755,44.757,108.359,36.301,110.459L21.903,114.063C20.497,114.42,19.071,114.598,17.626,114.598C7.902,114.598,0,106.716,0,96.972L0,95.586C0,95.328,0.02,95.051,0.04,94.794C1.466,83.327,6.595,71.148,11.843,61.067C17.15,50.868,22.854,42.293,25.904,37.916C28.478,34.233,32.637,32.213,36.954,32.213C44.559,32.213,50.699,38.352,50.699,45.937L50.699,54.948L52.639,53.72C55.372,51.977,57.036,48.947,57.036,45.699L57.036,19.538C57.036,16.033,59.868,13.201,63.373,13.201ZM63.373,13.201"/>
</g>
  <g id="Heavy-M" transform="matrix(1.0,0.0,0.0,1.0,2574.6067257756295,1027.4067453068794)">  <path version="1.1" stroke-width="1px" xmlns:xlink="http://www.w3.org/1999/xlink" stroke="none" stroke-linecap="butt" fill-rule="nonzero" stroke-opacity="1" fill="#000000" fill-opacity="1" stroke-dasharray="none" stroke-miterlimit="4" stroke-linejoin="miter" d="M63.373,13.201C66.879,13.201,69.71,16.033,69.71,19.538L69.71,45.699C69.71,48.947,71.374,51.977,74.107,53.72L76.048,54.948L76.048,45.937C76.048,38.352,82.187,32.213,89.772,32.213C94.07,32.213,98.248,34.233,100.823,37.916C103.873,42.293,109.596,50.868,114.884,61.067C120.132,71.148,125.261,83.347,126.687,94.794C126.727,95.051,126.727,95.309,126.727,95.586L126.727,96.972C126.727,106.696,118.845,114.598,109.101,114.598C107.655,114.598,106.229,114.42,104.823,114.063L90.426,110.459C81.989,108.359,76.048,100.755,76.048,92.021L76.048,77.564L93.971,88.971C95.456,89.902,97.397,89.466,98.347,88.001C99.298,86.535,98.842,84.575,97.377,83.624L76.048,70.058L76.048,69.979L67.314,64.414C65.868,63.503,64.561,62.414,63.373,61.226C62.205,62.414,60.878,63.503,59.432,64.414L50.699,69.979L31.924,81.921L29.251,83.624C29.251,83.624,29.251,83.624,29.231,83.624C27.765,84.575,27.33,86.516,28.28,88.001C29.211,89.486,31.172,89.922,32.657,88.971L50.699,77.485L50.699,92.021C50.699,100.755,44.757,108.359,36.301,110.459L21.903,114.063C20.497,114.42,19.071,114.598,17.626,114.598C7.902,114.598,0,106.716,0,96.972L0,95.586C0,95.328,0.02,95.051,0.04,94.794C1.466,83.327,6.595,71.148,11.843,61.067C17.15,50.868,22.854,42.293,25.904,37.916C28.478,34.233,32.637,32.213,36.954,32.213C44.559,32.213,50.699,38.352,50.699,45.937L50.699,54.948L52.639,53.72C55.372,51.977,57.036,48.947,57.036,45.699L57.036,19.538C57.036,16.033,59.868,13.201,63.373,13.201ZM63.373,13.201"/>
</g>
  <g id="Bold-M" transform="matrix(1.0,0.0,0.0,1.0,2277.8967257756294,1027.4067453068794)">  <path stroke-dasharray="none" stroke="none" fill-opacity="1" stroke-opacity="1" stroke-linecap="butt" version="1.1" stroke-linejoin="miter" fill="#000000" stroke-width="1px" stroke-miterlimit="4" fill-rule="nonzero" xmlns:xlink="http://www.w3.org/1999/xlink" d="M63.373,13.201C66.879,13.201,69.71,16.033,69.71,19.538L69.71,45.699C69.71,48.947,71.374,51.977,74.107,53.72L76.048,54.948L76.048,45.937C76.048,38.352,82.187,32.213,89.772,32.213C94.07,32.213,98.248,34.233,100.823,37.916C103.873,42.293,109.596,50.868,114.884,61.067C120.132,71.148,125.261,83.347,126.687,94.794C126.727,95.051,126.727,95.309,126.727,95.586L126.727,96.972C126.727,106.696,118.845,114.598,109.101,114.598C107.655,114.598,106.229,114.42,104.823,114.063L90.426,110.459C81.989,108.359,76.048,100.755,76.048,92.021L76.048,77.564L93.971,88.971C95.456,89.902,97.397,89.466,98.347,88.001C99.298,86.535,98.842,84.575,97.377,83.624L76.048,70.058L76.048,69.979L67.314,64.414C65.868,63.503,64.561,62.414,63.373,61.226C62.205,62.414,60.878,63.503,59.432,64.414L50.699,69.979L31.924,81.921L29.251,83.624C29.251,83.624,29.251,83.624,29.231,83.624C27.765,84.575,27.33,86.516,28.28,88.001C29.211,89.486,31.172,89.922,32.657,88.971L50.699,77.485L50.699,92.021C50.699,100.755,44.757,108.359,36.301,110.459L21.903,114.063C20.497,114.42,19.071,114.598,17.626,114.598C7.902,114.598,0,106.716,0,96.972L0,95.586C0,95.328,0.02,95.051,0.04,94.794C1.466,83.327,6.595,71.148,11.843,61.067C17.15,50.868,22.854,42.293,25.904,37.916C28.478,34.233,32.637,32.213,36.954,32.213C44.559,32.213,50.699,38.352,50.699,45.937L50.699,54.948L52.639,53.72C55.372,51.977,57.036,48.947,57.036,45.699L57.036,19.538C57.036,16.033,59.868,13.201,63.373,13.201ZM63.373,13.201"/>
</g>
  <g id="Semibold-M" transform="matrix(1.0,0.0,0.0,1.0,1981.1867257756294,1027.4067453068794)">  <path stroke="none" fill-opacity="1" xmlns:xlink="http://www.w3.org/1999/xlink" stroke-miterlimit="4" fill-rule="nonzero" stroke-dasharray="none" version="1.1" stroke-width="1px" stroke-opacity="1" fill="#000000" stroke-linecap="butt" stroke-linejoin="miter" d="M63.373,13.201C66.879,13.201,69.71,16.033,69.71,19.538L69.71,45.699C69.71,48.947,71.374,51.977,74.107,53.72L76.048,54.948L76.048,45.937C76.048,38.352,82.187,32.213,89.772,32.213C94.07,32.213,98.248,34.233,100.823,37.916C103.873,42.293,109.596,50.868,114.884,61.067C120.132,71.148,125.261,83.347,126.687,94.794C126.727,95.051,126.727,95.309,126.727,95.586L126.727,96.972C126.727,106.696,118.845,114.598,109.101,114.598C107.655,114.598,106.229,114.42,104.823,114.063L90.426,110.459C81.989,108.359,76.048,100.755,76.048,92.021L76.048,77.564L93.971,88.971C95.456,89.902,97.397,89.466,98.347,88.001C99.298,86.535,98.842,84.575,97.377,83.624L76.048,70.058L76.048,69.979L67.314,64.414C65.868,63.503,64.561,62.414,63.373,61.226C62.205,62.414,60.878,63.503,59.432,64.414L50.699,69.979L31.924,81.921L29.251,83.624C29.251,83.624,29.251,83.624,29.231,83.624C27.765,84.575,27.33,86.516,28.28,88.001C29.211,89.486,31.172,89.922,32.657,88.971L50.699,77.485L50.699,92.021C50.699,100.755,44.757,108.359,36.301,110.459L21.903,114.063C20.497,114.42,19.071,114.598,17.626,114.598C7.902,114.598,0,106.716,0,96.972L0,95.586C0,95.328,0.02,95.051,0.04,94.794C1.466,83.327,6.595,71.148,11.843,61.067C17.15,50.868,22.854,42.293,25.904,37.916C28.478,34.233,32.637,32.213,36.954,32.213C44.559,32.213,50.699,38.352,50.699,45.937L50.699,54.948L52.639,53.72C55.372,51.977,57.036,48.947,57.036,45.699L57.036,19.538C57.036,16.033,59.868,13.201,63.373,13.201ZM63.373,13.201"/>
</g>
  <g id="Medium-M" transform="matrix(1.0,0.0,0.0,1.0,1684.4767257756293,1027.4067453068794)">  <path fill-rule="nonzero" stroke-linecap="butt" stroke="none" fill="#000000" stroke-width="1px" version="1.1" stroke-linejoin="miter" stroke-miterlimit="4" stroke-dasharray="none" stroke-opacity="1" xmlns:xlink="http://www.w3.org/1999/xlink" fill-opacity="1" d="M63.373,13.201C66.879,13.201,69.71,16.033,69.71,19.538L69.71,45.699C69.71,48.947,71.374,51.977,74.107,53.72L76.048,54.948L76.048,45.937C76.048,38.352,82.187,32.213,89.772,32.213C94.07,32.213,98.248,34.233,100.823,37.916C103.873,42.293,109.596,50.868,114.884,61.067C120.132,71.148,125.261,83.347,126.687,94.794C126.727,95.051,126.727,95.309,126.727,95.586L126.727,96.972C126.727,106.696,118.845,114.598,109.101,114.598C107.655,114.598,106.229,114.42,104.823,114.063L90.426,110.459C81.989,108.359,76.048,100.755,76.048,92.021L76.048,77.564L93.971,88.971C95.456,89.902,97.397,89.466,98.347,88.001C99.298,86.535,98.842,84.575,97.377,83.624L76.048,70.058L76.048,69.979L67.314,64.414C65.868,63.503,64.561,62.414,63.373,61.226C62.205,62.414,60.878,63.503,59.432,64.414L50.699,69.979L31.924,81.921L29.251,83.624C29.251,83.624,29.251,83.624,29.231,83.624C27.765,84.575,27.33,86.516,28.28,88.001C29.211,89.486,31.172,89.922,32.657,88.971L50.699,77.485L50.699,92.021C50.699,100.755,44.757,108.359,36.301,110.459L21.903,114.063C20.497,114.42,19.071,114.598,17.626,114.598C7.902,114.598,0,106.716,0,96.972L0,95.586C0,95.328,0.02,95.051,0.04,94.794C1.466,83.327,6.595,71.148,11.843,61.067C17.15,50.868,22.854,42.293,25.904,37.916C28.478,34.233,32.637,32.213,36.954,32.213C44.559,32.213,50.699,38.352,50.699,45.937L50.699,54.948L52.639,53.72C55.372,51.977,57.036,48.947,57.036,45.699L57.036,19.538C57.036,16.033,59.868,13.201,63.373,13.201ZM63.373,13.201"/>
</g>
  <g id="Regular-M" transform="matrix(1.0,0.0,0.0,1.0,1387.7667257756293,1027.4067453068794)">  <path xmlns:xlink="http://www.w3.org/1999/xlink" fill-rule="nonzero" stroke-miterlimit="4" fill="#000000" stroke-width="1px" stroke-dasharray="none" stroke-linecap="butt" stroke="none" version="1.1" stroke-linejoin="miter" stroke-opacity="1" fill-opacity="1" d="M63.373,13.201C66.879,13.201,69.71,16.033,69.71,19.538L69.71,45.699C69.71,48.947,71.374,51.977,74.107,53.72L76.048,54.948L76.048,45.937C76.048,38.352,82.187,32.213,89.772,32.213C94.07,32.213,98.248,34.233,100.823,37.916C103.873,42.293,109.596,50.868,114.884,61.067C120.132,71.148,125.261,83.347,126.687,94.794C126.727,95.051,126.727,95.309,126.727,95.586L126.727,96.972C126.727,106.696,118.845,114.598,109.101,114.598C107.655,114.598,106.229,114.42,104.823,114.063L90.426,110.459C81.989,108.359,76.048,100.755,76.048,92.021L76.048,77.564L93.971,88.971C95.456,89.902,97.397,89.466,98.347,88.001C99.298,86.535,98.842,84.575,97.377,83.624L76.048,70.058L76.048,69.979L67.314,64.414C65.868,63.503,64.561,62.414,63.373,61.226C62.205,62.414,60.878,63.503,59.432,64.414L50.699,69.979L31.924,81.921L29.251,83.624C29.251,83.624,29.251,83.624,29.231,83.624C27.765,84.575,27.33,86.516,28.28,88.001C29.211,89.486,31.172,89.922,32.657,88.971L50.699,77.485L50.699,92.021C50.699,100.755,44.757,108.359,36.301,110.459L21.903,114.063C20.497,114.42,19.071,114.598,17.626,114.598C7.902,114.598,0,106.716,0,96.972L0,95.586C0,95.328,0.02,95.051,0.04,94.794C1.466,83.327,6.595,71.148,11.843,61.067C17.15,50.868,22.854,42.293,25.904,37.916C28.478,34.233,32.637,32.213,36.954,32.213C44.559,32.213,50.699,38.352,50.699,45.937L50.699,54.948L52.639,53.72C55.372,51.977,57.036,48.947,57.036,45.699L57.036,19.538C57.036,16.033,59.868,13.201,63.373,13.201ZM63.373,13.201"/>
</g>
  <g id="Light-M" transform="matrix(1.0,0.0,0.0,1.0,1091.0567257756295,1027.4067453068794)">  <path stroke="none" stroke-miterlimit="4" stroke-linejoin="miter" stroke-opacity="1" stroke-dasharray="none" fill="#000000" xmlns:xlink="http://www.w3.org/1999/xlink" version="1.1" stroke-width="1px" stroke-linecap="butt" fill-rule="nonzero" fill-opacity="1" d="M63.373,13.201C66.879,13.201,69.71,16.033,69.71,19.538L69.71,45.699C69.71,48.947,71.374,51.977,74.107,53.72L76.048,54.948L76.048,45.937C76.048,38.352,82.187,32.213,89.772,32.213C94.07,32.213,98.248,34.233,100.823,37.916C103.873,42.293,109.596,50.868,114.884,61.067C120.132,71.148,125.261,83.347,126.687,94.794C126.727,95.051,126.727,95.309,126.727,95.586L126.727,96.972C126.727,106.696,118.845,114.598,109.101,114.598C107.655,114.598,106.229,114.42,104.823,114.063L90.426,110.459C81.989,108.359,76.048,100.755,76.048,92.021L76.048,77.564L93.971,88.971C95.456,89.902,97.397,89.466,98.347,88.001C99.298,86.535,98.842,84.575,97.377,83.624L76.048,70.058L76.048,69.979L67.314,64.414C65.868,63.503,64.561,62.414,63.373,61.226C62.205,62.414,60.878,63.503,59.432,64.414L50.699,69.979L31.924,81.921L29.251,83.624C29.251,83.624,29.251,83.624,29.231,83.624C27.765,84.575,27.33,86.516,28.28,88.001C29.211,89.486,31.172,89.922,32.657,88.971L50.699,77.485L50.699,92.021C50.699,100.755,44.757,108.359,36.301,110.459L21.903,114.063C20.497,114.42,19.071,114.598,17.626,114.598C7.902,114.598,0,106.716,0,96.972L0,95.586C0,95.328,0.02,95.051,0.04,94.794C1.466,83.327,6.595,71.148,11.843,61.067C17.15,50.868,22.854,42.293,25.904,37.916C28.478,34.233,32.637,32.213,36.954,32.213C44.559,32.213,50.699,38.352,50.699,45.937L50.699,54.948L52.639,53.72C55.372,51.977,57.036,48.947,57.036,45.699L57.036,19.538C57.036,16.033,59.868,13.201,63.373,13.201ZM63.373,13.201"/>
</g>
  <g id="Thin-M" transform="matrix(1.0,0.0,0.0,1.0,794.3467257756296,1027.4067453068794)">  <path stroke-width="1px" fill-rule="nonzero" xmlns:xlink="http://www.w3.org/1999/xlink" stroke="none" stroke-miterlimit="4" stroke-linecap="butt" version="1.1" stroke-opacity="1" stroke-linejoin="miter" fill="#000000" stroke-dasharray="none" fill-opacity="1" d="M63.373,13.201C66.879,13.201,69.71,16.033,69.71,19.538L69.71,45.699C69.71,48.947,71.374,51.977,74.107,53.72L76.048,54.948L76.048,45.937C76.048,38.352,82.187,32.213,89.772,32.213C94.07,32.213,98.248,34.233,100.823,37.916C103.873,42.293,109.596,50.868,114.884,61.067C120.132,71.148,125.261,83.347,126.687,94.794C126.727,95.051,126.727,95.309,126.727,95.586L126.727,96.972C126.727,106.696,118.845,114.598,109.101,114.598C107.655,114.598,106.229,114.42,104.823,114.063L90.426,110.459C81.989,108.359,76.048,100.755,76.048,92.021L76.048,77.564L93.971,88.971C95.456,89.902,97.397,89.466,98.347,88.001C99.298,86.535,98.842,84.575,97.377,83.624L76.048,70.058L76.048,69.979L67.314,64.414C65.868,63.503,64.561,62.414,63.373,61.226C62.205,62.414,60.878,63.503,59.432,64.414L50.699,69.979L31.924,81.921L29.251,83.624C29.251,83.624,29.251,83.624,29.231,83.624C27.765,84.575,27.33,86.516,28.28,88.001C29.211,89.486,31.172,89.922,32.657,88.971L50.699,77.485L50.699,92.021C50.699,100.755,44.757,108.359,36.301,110.459L21.903,114.063C20.497,114.42,19.071,114.598,17.626,114.598C7.902,114.598,0,106.716,0,96.972L0,95.586C0,95.328,0.02,95.051,0.04,94.794C1.466,83.327,6.595,71.148,11.843,61.067C17.15,50.868,22.854,42.293,25.904,37.916C28.478,34.233,32.637,32.213,36.954,32.213C44.559,32.213,50.699,38.352,50.699,45.937L50.699,54.948L52.639,53.72C55.372,51.977,57.036,48.947,57.036,45.699L57.036,19.538C57.036,16.033,59.868,13.201,63.373,13.201ZM63.373,13.201"/>
</g>
  <g id="Ultralight-M" transform="matrix(1.0,0.0,0.0,1.0,497.6367257756295,1027.4067453068794)">  <path stroke-opacity="1" fill="#000000" fill-opacity="1" stroke-miterlimit="4" version="1.1" stroke-linejoin="miter" xmlns:xlink="http://www.w3.org/1999/xlink" stroke="none" stroke-dasharray="none" stroke-linecap="butt" stroke-width="1px" fill-rule="nonzero" d="M63.373,13.201C66.879,13.201,69.71,16.033,69.71,19.538L69.71,45.699C69.71,48.947,71.374,51.977,74.107,53.72L76.048,54.948L76.048,45.937C76.048,38.352,82.187,32.213,89.772,32.213C94.07,32.213,98.248,34.233,100.823,37.916C103.873,42.293,109.596,50.868,114.884,61.067C120.132,71.148,125.261,83.347,126.687,94.794C126.727,95.051,126.727,95.309,126.727,95.586L126.727,96.972C126.727,106.696,118.845,114.598,109.101,114.598C107.655,114.598,106.229,114.42,104.823,114.063L90.426,110.459C81.989,108.359,76.048,100.755,76.048,92.021L76.048,77.564L93.971,88.971C95.456,89.902,97.397,89.466,98.347,88.001C99.298,86.535,98.842,84.575,97.377,83.624L76.048,70.058L76.048,69.979L67.314,64.414C65.868,63.503,64.561,62.414,63.373,61.226C62.205,62.414,60.878,63.503,59.432,64.414L50.699,69.979L31.924,81.921L29.251,83.624C29.251,83.624,29.251,83.624,29.231,83.624C27.765,84.575,27.33,86.516,28.28,88.001C29.211,89.486,31.172,89.922,32.657,88.971L50.699,77.485L50.699,92.021C50.699,100.755,44.757,108.359,36.301,110.459L21.903,114.063C20.497,114.42,19.071,114.598,17.626,114.598C7.902,114.598,0,106.716,0,96.972L0,95.586C0,95.328,0.02,95.051,0.04,94.794C1.466,83.327,6.595,71.148,11.843,61.067C17.15,50.868,22.854,42.293,25.904,37.916C28.478,34.233,32.637,32.213,36.954,32.213C44.559,32.213,50.699,38.352,50.699,45.937L50.699,54.948L52.639,53.72C55.372,51.977,57.036,48.947,57.036,45.699L57.036,19.538C57.036,16.033,59.868,13.201,63.373,13.201ZM63.373,13.201"/>
</g>
  <g id="Black-S" transform="matrix(1.0,0.0,0.0,1.0,2885.066556282318,611.1565758135679)">  <path stroke-width="1px" stroke-dasharray="none" xmlns:xlink="http://www.w3.org/1999/xlink" fill-rule="nonzero" fill="#000000" stroke-miterlimit="4" version="1.1" stroke="none" fill-opacity="1" stroke-linejoin="miter" stroke-opacity="1" stroke-linecap="butt" d="M49.621,10.336C52.366,10.336,54.583,12.554,54.583,15.298L54.583,35.783C54.583,38.326,55.886,40.698,58.026,42.063L59.545,43.024L59.545,35.969C59.545,30.03,64.352,25.222,70.292,25.222C73.656,25.222,76.928,26.804,78.944,29.688C81.332,33.115,85.814,39.83,89.954,47.816C94.063,55.709,98.079,65.261,99.196,74.223C99.227,74.425,99.227,74.627,99.227,74.844L99.227,75.929C99.227,83.543,93.055,89.73,85.426,89.73C84.294,89.73,83.178,89.59,82.077,89.311L70.803,86.489C64.197,84.845,59.545,78.891,59.545,72.052L59.545,60.733L73.579,69.664C74.742,70.393,76.262,70.052,77.006,68.905C77.75,67.757,77.394,66.222,76.246,65.478L59.545,54.856L59.545,54.794L52.707,50.436C51.575,49.723,50.552,48.87,49.621,47.94C48.706,48.87,47.667,49.723,46.535,50.436L39.697,54.794L24.997,64.144L22.903,65.478C22.903,65.478,22.903,65.478,22.888,65.478C21.74,66.222,21.399,67.742,22.143,68.905C22.872,70.068,24.407,70.409,25.57,69.664L39.697,60.671L39.697,72.052C39.697,78.891,35.045,84.845,28.424,86.489L17.15,89.311C16.049,89.59,14.933,89.73,13.801,89.73C6.187,89.73,0,83.558,0,75.929L0,74.844C0,74.642,0.016,74.425,0.031,74.223C1.147,65.245,5.164,55.709,9.273,47.816C13.429,39.83,17.895,33.115,20.283,29.688C22.299,26.804,25.555,25.222,28.935,25.222C34.89,25.222,39.697,30.03,39.697,35.969L39.697,43.024L41.217,42.063C43.357,40.698,44.659,38.326,44.659,35.783L44.659,15.298C44.659,12.554,46.877,10.336,49.621,10.336ZM49.621,10.336"/>
</g>
  <g id="Heavy-S" transform="matrix(1.0,0.0,0.0,1.0,2588.356556282318,611.1565758135679)">  <path version="1.1" stroke-width="1px" xmlns:xlink="http://www.w3.org/1999/xlink" stroke="none" stroke-linecap="butt" fill-rule="nonzero" stroke-opacity="1" fill="#000000" fill-opacity="1" stroke-dasharray="none" stroke-miterlimit="4" stroke-linejoin="miter" d="M49.621,10.336C52.366,10.336,54.583,12.554,54.583,15.298L54.583,35.783C54.583,38.326,55.886,40.698,58.026,42.063L59.545,43.024L59.545,35.969C59.545,30.03,64.352,25.222,70.292,25.222C73.656,25.222,76.928,26.804,78.944,29.688C81.332,33.115,85.814,39.83,89.954,47.816C94.063,55.709,98.079,65.261,99.196,74.223C99.227,74.425,99.227,74.627,99.227,74.844L99.227,75.929C99.227,83.543,93.055,89.73,85.426,89.73C84.294,89.73,83.178,89.59,82.077,89.311L70.803,86.489C64.197,84.845,59.545,78.891,59.545,72.052L59.545,60.733L73.579,69.664C74.742,70.393,76.262,70.052,77.006,68.905C77.75,67.757,77.394,66.222,76.246,65.478L59.545,54.856L59.545,54.794L52.707,50.436C51.575,49.723,50.552,48.87,49.621,47.94C48.706,48.87,47.667,49.723,46.535,50.436L39.697,54.794L24.997,64.144L22.903,65.478C22.903,65.478,22.903,65.478,22.888,65.478C21.74,66.222,21.399,67.742,22.143,68.905C22.872,70.068,24.407,70.409,25.57,69.664L39.697,60.671L39.697,72.052C39.697,78.891,35.045,84.845,28.424,86.489L17.15,89.311C16.049,89.59,14.933,89.73,13.801,89.73C6.187,89.73,0,83.558,0,75.929L0,74.844C0,74.642,0.016,74.425,0.031,74.223C1.147,65.245,5.164,55.709,9.273,47.816C13.429,39.83,17.895,33.115,20.283,29.688C22.299,26.804,25.555,25.222,28.935,25.222C34.89,25.222,39.697,30.03,39.697,35.969L39.697,43.024L41.217,42.063C43.357,40.698,44.659,38.326,44.659,35.783L44.659,15.298C44.659,12.554,46.877,10.336,49.621,10.336ZM49.621,10.336"/>
</g>
  <g id="Bold-S" transform="matrix(1.0,0.0,0.0,1.0,2291.6465562823178,611.1565758135679)">  <path stroke-dasharray="none" stroke="none" fill-opacity="1" stroke-opacity="1" stroke-linecap="butt" version="1.1" stroke-linejoin="miter" fill="#000000" stroke-width="1px" stroke-miterlimit="4" fill-rule="nonzero" xmlns:xlink="http://www.w3.org/1999/xlink" d="M49.621,10.336C52.366,10.336,54.583,12.554,54.583,15.298L54.583,35.783C54.583,38.326,55.886,40.698,58.026,42.063L59.545,43.024L59.545,35.969C59.545,30.03,64.352,25.222,70.292,25.222C73.656,25.222,76.928,26.804,78.944,29.688C81.332,33.115,85.814,39.83,89.954,47.816C94.063,55.709,98.079,65.261,99.196,74.223C99.227,74.425,99.227,74.627,99.227,74.844L99.227,75.929C99.227,83.543,93.055,89.73,85.426,89.73C84.294,89.73,83.178,89.59,82.077,89.311L70.803,86.489C64.197,84.845,59.545,78.891,59.545,72.052L59.545,60.733L73.579,69.664C74.742,70.393,76.262,70.052,77.006,68.905C77.75,67.757,77.394,66.222,76.246,65.478L59.545,54.856L59.545,54.794L52.707,50.436C51.575,49.723,50.552,48.87,49.621,47.94C48.706,48.87,47.667,49.723,46.535,50.436L39.697,54.794L24.997,64.144L22.903,65.478C22.903,65.478,22.903,65.478,22.888,65.478C21.74,66.222,21.399,67.742,22.143,68.905C22.872,70.068,24.407,70.409,25.57,69.664L39.697,60.671L39.697,72.052C39.697,78.891,35.045,84.845,28.424,86.489L17.15,89.311C16.049,89.59,14.933,89.73,13.801,89.73C6.187,89.73,0,83.558,0,75.929L0,74.844C0,74.642,0.016,74.425,0.031,74.223C1.147,65.245,5.164,55.709,9.273,47.816C13.429,39.83,17.895,33.115,20.283,29.688C22.299,26.804,25.555,25.222,28.935,25.222C34.89,25.222,39.697,30.03,39.697,35.969L39.697,43.024L41.217,42.063C43.357,40.698,44.659,38.326,44.659,35.783L44.659,15.298C44.659,12.554,46.877,10.336,49.621,10.336ZM49.621,10.336"/>
</g>
  <g id="Semibold-S" transform="matrix(1.0,0.0,0.0,1.0,1994.936556282318,611.1565758135679)">  <path stroke="none" fill-opacity="1" xmlns:xlink="http://www.w3.org/1999/xlink" stroke-miterlimit="4" fill-rule="nonzero" stroke-dasharray="none" version="1.1" stroke-width="1px" stroke-opacity="1" fill="#000000" stroke-linecap="butt" stroke-linejoin="miter" d="M49.621,10.336C52.366,10.336,54.583,12.554,54.583,15.298L54.583,35.783C54.583,38.326,55.886,40.698,58.026,42.063L59.545,43.024L59.545,35.969C59.545,30.03,64.352,25.222,70.292,25.222C73.656,25.222,76.928,26.804,78.944,29.688C81.332,33.115,85.814,39.83,89.954,47.816C94.063,55.709,98.079,65.261,99.196,74.223C99.227,74.425,99.227,74.627,99.227,74.844L99.227,75.929C99.227,83.543,93.055,89.73,85.426,89.73C84.294,89.73,83.178,89.59,82.077,89.311L70.803,86.489C64.197,84.845,59.545,78.891,59.545,72.052L59.545,60.733L73.579,69.664C74.742,70.393,76.262,70.052,77.006,68.905C77.75,67.757,77.394,66.222,76.246,65.478L59.545,54.856L59.545,54.794L52.707,50.436C51.575,49.723,50.552,48.87,49.621,47.94C48.706,48.87,47.667,49.723,46.535,50.436L39.697,54.794L24.997,64.144L22.903,65.478C22.903,65.478,22.903,65.478,22.888,65.478C21.74,66.222,21.399,67.742,22.143,68.905C22.872,70.068,24.407,70.409,25.57,69.664L39.697,60.671L39.697,72.052C39.697,78.891,35.045,84.845,28.424,86.489L17.15,89.311C16.049,89.59,14.933,89.73,13.801,89.73C6.187,89.73,0,83.558,0,75.929L0,74.844C0,74.642,0.016,74.425,0.031,74.223C1.147,65.245,5.164,55.709,9.273,47.816C13.429,39.83,17.895,33.115,20.283,29.688C22.299,26.804,25.555,25.222,28.935,25.222C34.89,25.222,39.697,30.03,39.697,35.969L39.697,43.024L41.217,42.063C43.357,40.698,44.659,38.326,44.659,35.783L44.659,15.298C44.659,12.554,46.877,10.336,49.621,10.336ZM49.621,10.336"/>
</g>
  <g id="Medium-S" transform="matrix(1.0,0.0,0.0,1.0,1698.226556282318,611.1565758135679)">  <path fill-rule="nonzero" stroke-linecap="butt" stroke="none" fill="#000000" stroke-width="1px" version="1.1" stroke-linejoin="miter" stroke-miterlimit="4" stroke-dasharray="none" stroke-opacity="1" xmlns:xlink="http://www.w3.org/1999/xlink" fill-opacity="1" d="M49.621,10.336C52.366,10.336,54.583,12.554,54.583,15.298L54.583,35.783C54.583,38.326,55.886,40.698,58.026,42.063L59.545,43.024L59.545,35.969C59.545,30.03,64.352,25.222,70.292,25.222C73.656,25.222,76.928,26.804,78.944,29.688C81.332,33.115,85.814,39.83,89.954,47.816C94.063,55.709,98.079,65.261,99.196,74.223C99.227,74.425,99.227,74.627,99.227,74.844L99.227,75.929C99.227,83.543,93.055,89.73,85.426,89.73C84.294,89.73,83.178,89.59,82.077,89.311L70.803,86.489C64.197,84.845,59.545,78.891,59.545,72.052L59.545,60.733L73.579,69.664C74.742,70.393,76.262,70.052,77.006,68.905C77.75,67.757,77.394,66.222,76.246,65.478L59.545,54.856L59.545,54.794L52.707,50.436C51.575,49.723,50.552,48.87,49.621,47.94C48.706,48.87,47.667,49.723,46.535,50.436L39.697,54.794L24.997,64.144L22.903,65.478C22.903,65.478,22.903,65.478,22.888,65.478C21.74,66.222,21.399,67.742,22.143,68.905C22.872,70.068,24.407,70.409,25.57,69.664L39.697,60.671L39.697,72.052C39.697,78.891,35.045,84.845,28.424,86.489L17.15,89.311C16.049,89.59,14.933,89.73,13.801,89.73C6.187,89.73,0,83.558,0,75.929L0,74.844C0,74.642,0.016,74.425,0.031,74.223C1.147,65.245,5.164,55.709,9.273,47.816C13.429,39.83,17.895,33.115,20.283,29.688C22.299,26.804,25.555,25.222,28.935,25.222C34.89,25.222,39.697,30.03,39.697,35.969L39.697,43.024L41.217,42.063C43.357,40.698,44.659,38.326,44.659,35.783L44.659,15.298C44.659,12.554,46.877,10.336,49.621,10.336ZM49.621,10.336"/>
</g>
  <g id="Regular-S" transform="matrix(1.0,0.0,0.0,1.0,1401.5165562823179,611.1565758135679)">  <path xmlns:xlink="http://www.w3.org/1999/xlink" fill-rule="nonzero" stroke-miterlimit="4" fill="#000000" stroke-width="1px" stroke-dasharray="none" stroke-linecap="butt" stroke="none" version="1.1" stroke-linejoin="miter" stroke-opacity="1" fill-opacity="1" d="M49.621,10.336C52.366,10.336,54.583,12.554,54.583,15.298L54.583,35.783C54.583,38.326,55.886,40.698,58.026,42.063L59.545,43.024L59.545,35.969C59.545,30.03,64.352,25.222,70.292,25.222C73.656,25.222,76.928,26.804,78.944,29.688C81.332,33.115,85.814,39.83,89.954,47.816C94.063,55.709,98.079,65.261,99.196,74.223C99.227,74.425,99.227,74.627,99.227,74.844L99.227,75.929C99.227,83.543,93.055,89.73,85.426,89.73C84.294,89.73,83.178,89.59,82.077,89.311L70.803,86.489C64.197,84.845,59.545,78.891,59.545,72.052L59.545,60.733L73.579,69.664C74.742,70.393,76.262,70.052,77.006,68.905C77.75,67.757,77.394,66.222,76.246,65.478L59.545,54.856L59.545,54.794L52.707,50.436C51.575,49.723,50.552,48.87,49.621,47.94C48.706,48.87,47.667,49.723,46.535,50.436L39.697,54.794L24.997,64.144L22.903,65.478C22.903,65.478,22.903,65.478,22.888,65.478C21.74,66.222,21.399,67.742,22.143,68.905C22.872,70.068,24.407,70.409,25.57,69.664L39.697,60.671L39.697,72.052C39.697,78.891,35.045,84.845,28.424,86.489L17.15,89.311C16.049,89.59,14.933,89.73,13.801,89.73C6.187,89.73,0,83.558,0,75.929L0,74.844C0,74.642,0.016,74.425,0.031,74.223C1.147,65.245,5.164,55.709,9.273,47.816C13.429,39.83,17.895,33.115,20.283,29.688C22.299,26.804,25.555,25.222,28.935,25.222C34.89,25.222,39.697,30.03,39.697,35.969L39.697,43.024L41.217,42.063C43.357,40.698,44.659,38.326,44.659,35.783L44.659,15.298C44.659,12.554,46.877,10.336,49.621,10.336ZM49.621,10.336"/>
</g>
  <g id="Light-S" transform="matrix(1.0,0.0,0.0,1.0,1104.806556282318,611.1565758135679)">  <path stroke="none" stroke-miterlimit="4" stroke-linejoin="miter" stroke-opacity="1" stroke-dasharray="none" fill="#000000" xmlns:xlink="http://www.w3.org/1999/xlink" version="1.1" stroke-width="1px" stroke-linecap="butt" fill-rule="nonzero" fill-opacity="1" d="M49.621,10.336C52.366,10.336,54.583,12.554,54.583,15.298L54.583,35.783C54.583,38.326,55.886,40.698,58.026,42.063L59.545,43.024L59.545,35.969C59.545,30.03,64.352,25.222,70.292,25.222C73.656,25.222,76.928,26.804,78.944,29.688C81.332,33.115,85.814,39.83,89.954,47.816C94.063,55.709,98.079,65.261,99.196,74.223C99.227,74.425,99.227,74.627,99.227,74.844L99.227,75.929C99.227,83.543,93.055,89.73,85.426,89.73C84.294,89.73,83.178,89.59,82.077,89.311L70.803,86.489C64.197,84.845,59.545,78.891,59.545,72.052L59.545,60.733L73.579,69.664C74.742,70.393,76.262,70.052,77.006,68.905C77.75,67.757,77.394,66.222,76.246,65.478L59.545,54.856L59.545,54.794L52.707,50.436C51.575,49.723,50.552,48.87,49.621,47.94C48.706,48.87,47.667,49.723,46.535,50.436L39.697,54.794L24.997,64.144L22.903,65.478C22.903,65.478,22.903,65.478,22.888,65.478C21.74,66.222,21.399,67.742,22.143,68.905C22.872,70.068,24.407,70.409,25.57,69.664L39.697,60.671L39.697,72.052C39.697,78.891,35.045,84.845,28.424,86.489L17.15,89.311C16.049,89.59,14.933,89.73,13.801,89.73C6.187,89.73,0,83.558,0,75.929L0,74.844C0,74.642,0.016,74.425,0.031,74.223C1.147,65.245,5.164,55.709,9.273,47.816C13.429,39.83,17.895,33.115,20.283,29.688C22.299,26.804,25.555,25.222,28.935,25.222C34.89,25.222,39.697,30.03,39.697,35.969L39.697,43.024L41.217,42.063C43.357,40.698,44.659,38.326,44.659,35.783L44.659,15.298C44.659,12.554,46.877,10.336,49.621,10.336ZM49.621,10.336"/>
</g>
  <g id="Thin-S" transform="matrix(1.0,0.0,0.0,1.0,808.0965562823179,611.1565758135679)">  <path stroke-width="1px" fill-rule="nonzero" xmlns:xlink="http://www.w3.org/1999/xlink" stroke="none" stroke-miterlimit="4" stroke-linecap="butt" version="1.1" stroke-opacity="1" stroke-linejoin="miter" fill="#000000" stroke-dasharray="none" fill-opacity="1" d="M49.621,10.336C52.366,10.336,54.583,12.554,54.583,15.298L54.583,35.783C54.583,38.326,55.886,40.698,58.026,42.063L59.545,43.024L59.545,35.969C59.545,30.03,64.352,25.222,70.292,25.222C73.656,25.222,76.928,26.804,78.944,29.688C81.332,33.115,85.814,39.83,89.954,47.816C94.063,55.709,98.079,65.261,99.196,74.223C99.227,74.425,99.227,74.627,99.227,74.844L99.227,75.929C99.227,83.543,93.055,89.73,85.426,89.73C84.294,89.73,83.178,89.59,82.077,89.311L70.803,86.489C64.197,84.845,59.545,78.891,59.545,72.052L59.545,60.733L73.579,69.664C74.742,70.393,76.262,70.052,77.006,68.905C77.75,67.757,77.394,66.222,76.246,65.478L59.545,54.856L59.545,54.794L52.707,50.436C51.575,49.723,50.552,48.87,49.621,47.94C48.706,48.87,47.667,49.723,46.535,50.436L39.697,54.794L24.997,64.144L22.903,65.478C22.903,65.478,22.903,65.478,22.888,65.478C21.74,66.222,21.399,67.742,22.143,68.905C22.872,70.068,24.407,70.409,25.57,69.664L39.697,60.671L39.697,72.052C39.697,78.891,35.045,84.845,28.424,86.489L17.15,89.311C16.049,89.59,14.933,89.73,13.801,89.73C6.187,89.73,0,83.558,0,75.929L0,74.844C0,74.642,0.016,74.425,0.031,74.223C1.147,65.245,5.164,55.709,9.273,47.816C13.429,39.83,17.895,33.115,20.283,29.688C22.299,26.804,25.555,25.222,28.935,25.222C34.89,25.222,39.697,30.03,39.697,35.969L39.697,43.024L41.217,42.063C43.357,40.698,44.659,38.326,44.659,35.783L44.659,15.298C44.659,12.554,46.877,10.336,49.621,10.336ZM49.621,10.336"/>
</g>
  <g id="Ultralight-S" transform="matrix(1.0,0.0,0.0,1.0,511.3865562823179,611.1565758135679)">  <path stroke-opacity="1" fill="#000000" fill-opacity="1" stroke-miterlimit="4" version="1.1" stroke-linejoin="miter" xmlns:xlink="http://www.w3.org/1999/xlink" stroke="none" stroke-dasharray="none" stroke-linecap="butt" stroke-width="1px" fill-rule="nonzero" d="M49.621,10.336C52.366,10.336,54.583,12.554,54.583,15.298L54.583,35.783C54.583,38.326,55.886,40.698,58.026,42.063L59.545,43.024L59.545,35.969C59.545,30.03,64.352,25.222,70.292,25.222C73.656,25.222,76.928,26.804,78.944,29.688C81.332,33.115,85.814,39.83,89.954,47.816C94.063,55.709,98.079,65.261,99.196,74.223C99.227,74.425,99.227,74.627,99.227,74.844L99.227,75.929C99.227,83.543,93.055,89.73,85.426,89.73C84.294,89.73,83.178,89.59,82.077,89.311L70.803,86.489C64.197,84.845,59.545,78.891,59.545,72.052L59.545,60.733L73.579,69.664C74.742,70.393,76.262,70.052,77.006,68.905C77.75,67.757,77.394,66.222,76.246,65.478L59.545,54.856L59.545,54.794L52.707,50.436C51.575,49.723,50.552,48.87,49.621,47.94C48.706,48.87,47.667,49.723,46.535,50.436L39.697,54.794L24.997,64.144L22.903,65.478C22.903,65.478,22.903,65.478,22.888,65.478C21.74,66.222,21.399,67.742,22.143,68.905C22.872,70.068,24.407,70.409,25.57,69.664L39.697,60.671L39.697,72.052C39.697,78.891,35.045,84.845,28.424,86.489L17.15,89.311C16.049,89.59,14.933,89.73,13.801,89.73C6.187,89.73,0,83.558,0,75.929L0,74.844C0,74.642,0.016,74.425,0.031,74.223C1.147,65.245,5.164,55.709,9.273,47.816C13.429,39.83,17.895,33.115,20.283,29.688C22.299,26.804,25.555,25.222,28.935,25.222C34.89,25.222,39.697,30.03,39.697,35.969L39.697,43.024L41.217,42.063C43.357,40.698,44.659,38.326,44.659,35.783L44.659,15.298C44.659,12.554,46.877,10.336,49.621,10.336ZM49.621,10.336"/>
</g>
 </g>
</svg>
