<?xml version="1.0" encoding="UTF-8"?>
<!-- Generator: CustomSymbols v2.7.2.48 by @serious_bret https://bretlester.com/app_content/CustomSymbols/ -->
<!-- Guides: Left/Right 0.11/0.11 Cap/Base 0.222/0.222 -->
<!-- Settings: RefScale 1.0 Min/Max Stroke Scales 0.5/2.21 -->
<!DOCTYPE svg
PUBLIC "-//W3C//DTD SVG 1.1//EN"
       "http://www.w3.org/Graphics/SVG/1.1/DTD/svg11.dtd">
<svg version="1.1" xmlns="http://www.w3.org/2000/svg" xmlns:xlink="http://www.w3.org/1999/xlink" width="3300" height="2200">
<![CDATA[<?xml version="1.0" encoding="UTF-8"?>
<svg width="96px" height="96px" viewBox="0 0 96 96" version="1.1" xmlns="http://www.w3.org/2000/svg" xmlns:xlink="http://www.w3.org/1999/xlink">
    <title>icon/medical/house-chimney-medical</title>
    <g id="icon/medical/house-chimney-medical" stroke="none" stroke-width="1" fill="none" fill-rule="evenodd">
        <path d="M95.9748286,47.5868258 C95.9748286,50.5870719 93.474616,52.9372646 90.6410417,52.9372646 L85.3072548,52.9372646 L85.4239314,79.6394544 C85.4572675,85.5566063 80.6735274,90.357 74.7563575,90.357 L21.3518158,90.357 C15.4679821,90.357 10.684242,85.5732744 10.684242,79.6894585 L10.684242,52.9372646 L5.33378693,52.9372646 C2.33353178,52.9372646 0,50.6037399 0,47.5868258 C0,46.0867028 0.500042525,44.7532601 1.66680842,43.5864978 L44.4037762,6.33344269 C45.5705421,5.16668034 46.9039888,5 48.0707547,5 C49.2375206,5 50.5709674,5.33336067 51.5710524,6.16676235 L69.3392301,21.7847098 L69.3392301,15.6675415 C69.3392301,12.7172996 71.7227662,10.3337707 74.6730171,10.3337707 L80.006804,10.3337707 C82.9570549,10.3337707 85.3405909,12.7172996 85.3405909,15.6675415 L85.3405909,35.8358621 L94.1413394,43.5698297 C95.4747861,44.7365921 96.1415095,46.0700348 95.9748286,47.5701578 L95.9748286,47.5868258 Z M45.3371889,37.0026245 C43.8703975,37.0026245 42.6702955,38.2027229 42.6702955,39.6695099 L42.6702955,47.670166 L34.6696151,47.670166 C33.2028237,47.670166 32.0027216,48.8702644 32.0027216,50.3370514 L32.0027216,55.6708221 C32.0027216,57.1376091 33.2028237,58.3377075 34.6696151,58.3377075 L42.6702955,58.3377075 L42.6702955,66.3383636 C42.6702955,67.8051506 43.8703975,69.005249 45.3371889,69.005249 L50.6709759,69.005249 C52.1377673,69.005249 53.3378693,67.8051506 53.3378693,66.3383636 L53.3378693,58.3377075 L61.3385497,58.3377075 C62.8053411,58.3377075 64.0054432,57.1376091 64.0054432,55.6708221 L64.0054432,50.3370514 C64.0054432,48.8702644 62.8053411,47.670166 61.3385497,47.670166 L53.3378693,47.670166 L53.3378693,39.6695099 C53.3378693,38.2027229 52.1377673,37.0026245 50.6709759,37.0026245 L45.3371889,37.0026245 Z" id="Shape" fill="#FB4C6C" fill-rule="nonzero"></path>
    </g>
</svg>]]>
 <g id="Notes">
  <rect height="2200" id="artboard" style="fill:white;opacity:1" width="3300" x="0" y="0"/>
  <line id="" style="fill:none;stroke:black;opacity:1;stroke-width:0.5;" x1="263" x2="3036" y1="292" y2="292"/>
  <text id="reftext1" style="stroke:none;fill:black;font-family:-apple-system,&quot;SF Pro Display&quot;,&quot;SF Pro Text&quot;,Helvetica,sans-serif;font-weight:bold;" transform="matrix(1 0 0 1 263 322)">Weight/Scale Variations</text>
  <text id="reftext2" style="stroke:none;fill:black;font-family:-apple-system,&quot;SF Pro Display&quot;,&quot;SF Pro Text&quot;,Helvetica,sans-serif;text-anchor:middle;" transform="matrix(1 0 0 1 559.711 322)">Ultralight</text>
  <text style="stroke:none;fill:black;font-family:-apple-system,&quot;SF Pro Display&quot;,&quot;SF Pro Text&quot;,Helvetica,sans-serif;text-anchor:middle;" transform="matrix(1 0 0 1 856.422 322)">Thin</text>
  <text style="stroke:none;fill:black;font-family:-apple-system,&quot;SF Pro Display&quot;,&quot;SF Pro Text&quot;,Helvetica,sans-serif;text-anchor:middle;" transform="matrix(1 0 0 1 1153.13 322)">Light</text>
  <text style="stroke:none;fill:black;font-family:-apple-system,&quot;SF Pro Display&quot;,&quot;SF Pro Text&quot;,Helvetica,sans-serif;text-anchor:middle;" transform="matrix(1 0 0 1 1449.84 322)">Regular</text>
  <text style="stroke:none;fill:black;font-family:-apple-system,&quot;SF Pro Display&quot;,&quot;SF Pro Text&quot;,Helvetica,sans-serif;text-anchor:middle;" transform="matrix(1 0 0 1 1746.56 322)">Medium</text>
  <text style="stroke:none;fill:black;font-family:-apple-system,&quot;SF Pro Display&quot;,&quot;SF Pro Text&quot;,Helvetica,sans-serif;text-anchor:middle;" transform="matrix(1 0 0 1 2043.27 322)">Semibold</text>
  <text style="stroke:none;fill:black;font-family:-apple-system,&quot;SF Pro Display&quot;,&quot;SF Pro Text&quot;,Helvetica,sans-serif;text-anchor:middle;" transform="matrix(1 0 0 1 2339.98 322)">Bold</text>
  <text style="stroke:none;fill:black;font-family:-apple-system,&quot;SF Pro Display&quot;,&quot;SF Pro Text&quot;,Helvetica,sans-serif;text-anchor:middle;" transform="matrix(1 0 0 1 2636.69 322)">Heavy</text>
  <text style="stroke:none;fill:black;font-family:-apple-system,&quot;SF Pro Display&quot;,&quot;SF Pro Text&quot;,Helvetica,sans-serif;text-anchor:middle;" transform="matrix(1 0 0 1 2933.4 322)">Black</text>
  <line id="" style="fill:none;stroke:black;opacity:1;stroke-width:0.5;" x1="263" x2="3036" y1="1903" y2="1903"/>
  <g id="" transform="matrix(1 0 0 1 263 1933)">
   <path d="M9.24805 0.830078C13.5547 0.830078 17.1387-2.74414 17.1387-7.05078C17.1387-11.3574 13.5449-14.9316 9.23828-14.9316C4.94141-14.9316 1.36719-11.3574 1.36719-7.05078C1.36719-2.74414 4.95117 0.830078 9.24805 0.830078ZM9.24805-0.654297C5.70312-0.654297 2.87109-3.49609 2.87109-7.05078C2.87109-10.6055 5.69336-13.4473 9.23828-13.4473C12.793-13.4473 15.6348-10.6055 15.6445-7.05078C15.6543-3.49609 12.8027-0.654297 9.24805-0.654297ZM6.39648-6.31836L8.50586-6.31836L8.50586-4.19922C8.50586-3.75977 8.79883-3.45703 9.22852-3.45703C9.67773-3.45703 9.9707-3.75977 9.9707-4.19922L9.9707-6.31836L12.0996-6.31836C12.5391-6.31836 12.8418-6.61133 12.8418-7.04102C12.8418-7.48047 12.5391-7.7832 12.0996-7.7832L9.9707-7.7832L9.9707-9.89258C9.9707-10.3418 9.67773-10.6445 9.22852-10.6445C8.79883-10.6445 8.50586-10.3418 8.50586-9.89258L8.50586-7.7832L6.39648-7.7832C5.94727-7.7832 5.64453-7.48047 5.64453-7.04102C5.64453-6.61133 5.94727-6.31836 6.39648-6.31836Z"/>
  </g>
  <g id="" transform="matrix(1 0 0 1 281.506 1933)">
   <path d="M11.709 2.91016C17.1582 2.91016 21.6699-1.61133 21.6699-7.05078C21.6699-12.5 17.1484-17.0117 11.6992-17.0117C6.25977-17.0117 1.74805-12.5 1.74805-7.05078C1.74805-1.61133 6.26953 2.91016 11.709 2.91016ZM11.709 1.25C7.09961 1.25 3.41797-2.44141 3.41797-7.05078C3.41797-11.6602 7.08984-15.3516 11.6992-15.3516C16.3086-15.3516 20-11.6602 20.0098-7.05078C20.0195-2.44141 16.3184 1.25 11.709 1.25ZM7.98828-6.23047L10.8789-6.23047L10.8789-3.32031C10.8789-2.83203 11.2109-2.5 11.6895-2.5C12.1777-2.5 12.5195-2.83203 12.5195-3.32031L12.5195-6.23047L15.4297-6.23047C15.918-6.23047 16.25-6.5625 16.25-7.04102C16.25-7.5293 15.918-7.87109 15.4297-7.87109L12.5195-7.87109L12.5195-10.7617C12.5195-11.2695 12.1777-11.6016 11.6895-11.6016C11.2109-11.6016 10.8789-11.2598 10.8789-10.7617L10.8789-7.87109L7.98828-7.87109C7.48047-7.87109 7.14844-7.5293 7.14844-7.04102C7.14844-6.5625 7.49023-6.23047 7.98828-6.23047Z"/>
  </g>
  <g id="" transform="matrix(1 0 0 1 304.924 1933)">
   <path d="M14.9707 5.66406C21.9336 5.66406 27.6953-0.0976562 27.6953-7.05078C27.6953-14.0137 21.9238-19.7754 14.9609-19.7754C8.00781-19.7754 2.25586-14.0137 2.25586-7.05078C2.25586-0.0976562 8.01758 5.66406 14.9707 5.66406ZM14.9707 3.84766C8.93555 3.84766 4.08203-1.01562 4.08203-7.05078C4.08203-13.0957 8.92578-17.9492 14.9609-17.9492C21.0059-17.9492 25.8594-13.0957 25.8691-7.05078C25.8789-1.01562 21.0156 3.84766 14.9707 3.84766ZM10.0586-6.14258L14.0625-6.14258L14.0625-2.12891C14.0625-1.5918 14.4336-1.2207 14.9512-1.2207C15.4883-1.2207 15.8594-1.5918 15.8594-2.12891L15.8594-6.14258L19.8828-6.14258C20.4102-6.14258 20.791-6.51367 20.791-7.03125C20.791-7.56836 20.4199-7.94922 19.8828-7.94922L15.8594-7.94922L15.8594-11.9531C15.8594-12.5098 15.4883-12.8809 14.9512-12.8809C14.4336-12.8809 14.0625-12.5 14.0625-11.9531L14.0625-7.94922L10.0586-7.94922C9.50195-7.94922 9.13086-7.56836 9.13086-7.03125C9.13086-6.51367 9.51172-6.14258 10.0586-6.14258Z"/>
  </g>
  <text style="stroke:none;fill:black;font-family:-apple-system,&quot;SF Pro Display&quot;,&quot;SF Pro Text&quot;,Helvetica,sans-serif;font-weight:bold;" transform="matrix(1 0 0 1 263 1953)">Design Variations</text>
  <text style="stroke:none;fill:black;font-family:-apple-system,&quot;SF Pro Display&quot;,&quot;SF Pro Text&quot;,Helvetica,sans-serif;" transform="matrix(1 0 0 1 263 1971)">Symbols are supported in up to nine weights and three scales.</text>
  <text style="stroke:none;fill:black;font-family:-apple-system,&quot;SF Pro Display&quot;,&quot;SF Pro Text&quot;,Helvetica,sans-serif;" transform="matrix(1 0 0 1 263 1989)">For optimal layout with text and other symbols, vertically align</text>
  <text style="stroke:none;fill:black;font-family:-apple-system,&quot;SF Pro Display&quot;,&quot;SF Pro Text&quot;,Helvetica,sans-serif;" transform="matrix(1 0 0 1 263 2007)">symbols with the adjacent text.</text>
  <line id="" style="fill:none;stroke:#00AEEF;stroke-width:0.5;opacity:1.0;" x1="776" x2="776" y1="1919" y2="1933"/>
  <g id="" transform="matrix(1 0 0 1 776 1933)">
   <path d="M3.31055 0.126953C3.82812 0.126953 4.08203-0.0683594 4.26758-0.605469L5.52734-4.0625L11.2891-4.0625L12.5488-0.605469C12.7344-0.0683594 12.9883 0.126953 13.4961 0.126953C14.0137 0.126953 14.3457-0.185547 14.3457-0.673828C14.3457-0.839844 14.3164-0.986328 14.2383-1.20117L9.6582-13.3887C9.43359-13.9941 9.0332-14.2871 8.4082-14.2871C7.80273-14.2871 7.39258-13.9941 7.17773-13.3984L2.59766-1.19141C2.51953-0.976562 2.49023-0.830078 2.49023-0.664062C2.49023-0.175781 2.80273 0.126953 3.31055 0.126953ZM6.00586-5.53711L8.37891-12.1094L8.42773-12.1094L10.8008-5.53711Z"/>
  </g>
  <line id="" style="fill:none;stroke:#00AEEF;stroke-width:0.5;opacity:1.0;" x1="792.836" x2="792.836" y1="1919" y2="1933"/>
  <text style="stroke:none;fill:black;font-family:-apple-system,&quot;SF Pro Display&quot;,&quot;SF Pro Text&quot;,Helvetica,sans-serif;font-weight:bold;" transform="matrix(1 0 0 1 776 1953)">Margins</text>
  <text style="stroke:none;fill:black;font-family:-apple-system,&quot;SF Pro Display&quot;,&quot;SF Pro Text&quot;,Helvetica,sans-serif;" transform="matrix(1 0 0 1 776 1971)">Leading and trailing margins on the left and right side of each symbol</text>
  <text style="stroke:none;fill:black;font-family:-apple-system,&quot;SF Pro Display&quot;,&quot;SF Pro Text&quot;,Helvetica,sans-serif;" transform="matrix(1 0 0 1 776 1989)">can be adjusted by modifying the x-location of the margin guidelines.</text>
  <text style="stroke:none;fill:black;font-family:-apple-system,&quot;SF Pro Display&quot;,&quot;SF Pro Text&quot;,Helvetica,sans-serif;" transform="matrix(1 0 0 1 776 2007)">Modifications are automatically applied proportionally to all</text>
  <text style="stroke:none;fill:black;font-family:-apple-system,&quot;SF Pro Display&quot;,&quot;SF Pro Text&quot;,Helvetica,sans-serif;" transform="matrix(1 0 0 1 776 2025)">scales and weights.</text>
  <g id="" transform="matrix(1 0 0 1 1289 1933)">
   <path d="M2.8418 1.86523L4.54102 3.57422C5.40039 4.44336 6.38672 4.38477 7.31445 3.35938L17.4902-7.85156C17.7539-7.76367 18.0273-7.7832 18.3398-7.8418L19.4043-8.03711L20.0684-7.36328L20.0293-6.80664C19.9902-6.30859 20.1172-5.92773 20.6055-5.44922L21.3672-4.70703C21.8457-4.22852 22.4609-4.19922 22.9297-4.66797L25.8398-7.58789C26.3086-8.05664 26.2891-8.65234 25.8105-9.13086L25.0391-9.89258C24.5605-10.3711 24.1895-10.5273 23.7109-10.4883L23.1348-10.4395L22.4902-11.0742L22.7344-12.1973C22.8613-12.7637 22.7051-13.2031 22.1191-13.7891L19.9219-15.9766C16.582-19.2969 12.1484-19.2188 9.25781-16.3281C8.83789-15.918 8.80859-15.3418 9.04297-14.9512C9.27734-14.5898 9.73633-14.3555 10.3809-14.5215C11.8457-14.8633 13.3691-14.9219 14.7949-13.9844L14.209-12.5293C14.0137-12.0508 13.9844-11.6504 14.1113-11.2891L3.04688-0.898438C2.06055 0.0195312 1.98242 0.996094 2.8418 1.86523ZM10.752-15.957C13.1836-17.7344 16.4746-17.4316 18.7012-15.2051L21.1328-12.793C21.3672-12.5586 21.4062-12.373 21.3379-12.0312L21.0156-10.5469L22.5195-9.0625L23.5059-9.12109C23.7598-9.13086 23.8379-9.11133 24.0332-8.91602L24.6094-8.33984L22.168-5.89844L21.5918-6.47461C21.3965-6.66992 21.3672-6.74805 21.377-7.01172L21.4453-7.98828L19.9512-9.47266L18.4277-9.21875C18.1055-9.15039 17.959-9.17969 17.7148-9.41406L15.7129-11.416C15.459-11.6504 15.4297-11.8164 15.5859-12.1875L16.4648-14.2773C14.9023-15.7324 12.8711-16.3574 10.8398-15.7617C10.6836-15.7227 10.625-15.8496 10.752-15.957ZM5.27344 2.30469L4.10156 1.14258C3.63281 0.683594 3.74023 0.341797 4.14062-0.0195312L14.9512-10.1953L16.416-8.71094L6.42578 2.27539C6.07422 2.67578 5.74219 2.77344 5.27344 2.30469Z"/>
  </g>
  <text style="stroke:none;fill:black;font-family:-apple-system,&quot;SF Pro Display&quot;,&quot;SF Pro Text&quot;,Helvetica,sans-serif;font-weight:bold;" transform="matrix(1 0 0 1 1289 1953)">Exporting</text>
  <text style="stroke:none;fill:black;font-family:-apple-system,&quot;SF Pro Display&quot;,&quot;SF Pro Text&quot;,Helvetica,sans-serif;" transform="matrix(1 0 0 1 1289 1971)">Symbols should be outlined when exporting to ensure the</text>
  <text style="stroke:none;fill:black;font-family:-apple-system,&quot;SF Pro Display&quot;,&quot;SF Pro Text&quot;,Helvetica,sans-serif;" transform="matrix(1 0 0 1 1289 1989)">design is preserved when submitting to Xcode.</text>
  <text id="template-version" style="stroke:none;fill:black;font-family:-apple-system,&quot;SF Pro Display&quot;,&quot;SF Pro Text&quot;,Helvetica,sans-serif;text-anchor:end;" transform="matrix(1 0 0 1 3036 1933)">Template v.2.0</text>
  <text style="stroke:none;fill:black;font-family:-apple-system,&quot;SF Pro Display&quot;,&quot;SF Pro Text&quot;,Helvetica,sans-serif;text-anchor:end;" transform="matrix(1 0 0 1 3036 1951)">Requires Xcode 12 or greater</text>
  <text style="stroke:none;fill:black;font-family:-apple-system,&quot;SF Pro Display&quot;,&quot;SF Pro Text&quot;,Helvetica,sans-serif;" transform="matrix(1 0 0 1 263 726)">Small</text>
  <text style="stroke:none;fill:black;font-family:-apple-system,&quot;SF Pro Display&quot;,&quot;SF Pro Text&quot;,Helvetica,sans-serif;" transform="matrix(1 0 0 1 263 1156)">Medium</text>
  <text style="stroke:none;fill:black;font-family:-apple-system,&quot;SF Pro Display&quot;,&quot;SF Pro Text&quot;,Helvetica,sans-serif;" transform="matrix(1 0 0 1 263 1586)">Large</text>
 </g>
 <g id="Guides">
  <g id="H-reference" style="fill:#27AAE1;stroke:none;" transform="matrix(1 0 0 1 339 696)">
   <path d="M0.976562 0L3.66211 0L12.9883-24.4629L45.752-24.4629L55.127 0L57.7637 0L30.6152-70.459L28.125-70.459ZM29.3457-67.1387L29.4434-67.1387L44.873-26.709L13.8672-26.709Z"/>
  </g>
  <line id="Baseline-S" style="fill:none;stroke:#27AAE1;opacity:1;stroke-width:0.5;" x1="263" x2="3036" y1="696" y2="696"/>
  <line id="Capline-S" style="fill:none;stroke:#27AAE1;opacity:1;stroke-width:0.5;" x1="263" x2="3036" y1="625.541" y2="625.541"/>
  <g id="H-reference" style="fill:#27AAE1;stroke:none;" transform="matrix(1 0 0 1 339 1126)">
   <path d="M0.976562 0L3.66211 0L12.9883-24.4629L45.752-24.4629L55.127 0L57.7637 0L30.6152-70.459L28.125-70.459ZM29.3457-67.1387L29.4434-67.1387L44.873-26.709L13.8672-26.709Z"/>
  </g>
  <line id="Baseline-M" style="fill:none;stroke:#27AAE1;opacity:1;stroke-width:0.5;" x1="263" x2="3036" y1="1126" y2="1126"/>
  <line id="Capline-M" style="fill:none;stroke:#27AAE1;opacity:1;stroke-width:0.5;" x1="263" x2="3036" y1="1055.54" y2="1055.54"/>
  <g id="H-reference" style="fill:#27AAE1;stroke:none;" transform="matrix(1 0 0 1 339 1556)">
   <path d="M0.976562 0L3.66211 0L12.9883-24.4629L45.752-24.4629L55.127 0L57.7637 0L30.6152-70.459L28.125-70.459ZM29.3457-67.1387L29.4434-67.1387L44.873-26.709L13.8672-26.709Z"/>
  </g>
  <line id="Baseline-L" style="fill:none;stroke:#27AAE1;opacity:1;stroke-width:0.5;" x1="263" x2="3036" y1="1556" y2="1556"/>
  <line id="Capline-L" style="fill:none;stroke:#27AAE1;opacity:1;stroke-width:0.5;" x1="263" x2="3036" y1="1485.54" y2="1485.54"/>
  <line id="left-margin" x1="1401.7066461049908" x2="1401.7066461049908" y1="1030.79" y2="1150.12" style="fill:none;stroke:#00AEEF;stroke-width:0.5;opacity:1.0;"/>
  <line id="right-margin" x1="1500.553353895009" x2="1500.553353895009" y1="1030.79" y2="1150.12" style="fill:none;stroke:#00AEEF;stroke-width:0.5;opacity:1.0;"/>
 </g>
 <g id="Symbols">
  <g id="Black-L" transform="matrix(1.0,0.0,0.0,1.0,2852.941376250562,1439.031395781812)">  <path stroke-opacity="1" fill-opacity="1" stroke="none" version="1.1" xmlns:xlink="http://www.w3.org/1999/xlink" stroke-width="1px" fill="#000000" fill-rule="nonzero" stroke-linecap="butt" stroke-dasharray="none" stroke-miterlimit="4" stroke-linejoin="miter" d="M163.434,81.035C163.434,86.144,159.177,90.146,154.352,90.146L145.269,90.146L145.467,135.617C145.524,145.693,137.378,153.868,127.302,153.868L36.36,153.868C26.34,153.868,18.194,145.722,18.194,135.702L18.194,90.146L9.083,90.146C3.974,90.146,0,86.173,0,81.035C0,78.48,0.852,76.21,2.838,74.223L75.615,10.785C77.602,8.798,79.872,8.514,81.859,8.514C83.846,8.514,86.117,9.082,87.82,10.501L118.077,37.097L118.077,26.68C118.077,21.656,122.136,17.597,127.16,17.597L136.243,17.597C141.267,17.597,145.325,21.656,145.325,26.68L145.325,61.024L160.312,74.195C162.583,76.181,163.718,78.452,163.434,81.007L163.434,81.035ZM77.204,63.011C74.706,63.011,72.663,65.055,72.663,67.553L72.663,81.177L59.038,81.177C56.541,81.177,54.497,83.221,54.497,85.718L54.497,94.801C54.497,97.299,56.541,99.343,59.038,99.343L72.663,99.343L72.663,112.967C72.663,115.465,74.706,117.508,77.204,117.508L86.287,117.508C88.785,117.508,90.828,115.465,90.828,112.967L90.828,99.343L104.453,99.343C106.95,99.343,108.994,97.299,108.994,94.801L108.994,85.718C108.994,83.221,106.95,81.177,104.453,81.177L90.828,81.177L90.828,67.553C90.828,65.055,88.785,63.011,86.287,63.011L77.204,63.011ZM77.204,63.011"/>
</g>
  <g id="Heavy-L" transform="matrix(1.0,0.0,0.0,1.0,2556.231376250562,1439.031395781812)">  <path stroke-linecap="butt" stroke-dasharray="none" fill="#000000" stroke-miterlimit="4" version="1.1" stroke-opacity="1" xmlns:xlink="http://www.w3.org/1999/xlink" fill-rule="nonzero" stroke="none" fill-opacity="1" stroke-width="1px" stroke-linejoin="miter" d="M163.434,81.035C163.434,86.144,159.177,90.146,154.352,90.146L145.269,90.146L145.467,135.617C145.524,145.693,137.378,153.868,127.302,153.868L36.36,153.868C26.34,153.868,18.194,145.722,18.194,135.702L18.194,90.146L9.083,90.146C3.974,90.146,0,86.173,0,81.035C0,78.48,0.852,76.21,2.838,74.223L75.615,10.785C77.602,8.798,79.872,8.514,81.859,8.514C83.846,8.514,86.117,9.082,87.82,10.501L118.077,37.097L118.077,26.68C118.077,21.656,122.136,17.597,127.16,17.597L136.243,17.597C141.267,17.597,145.325,21.656,145.325,26.68L145.325,61.024L160.312,74.195C162.583,76.181,163.718,78.452,163.434,81.007L163.434,81.035ZM77.204,63.011C74.706,63.011,72.663,65.055,72.663,67.553L72.663,81.177L59.038,81.177C56.541,81.177,54.497,83.221,54.497,85.718L54.497,94.801C54.497,97.299,56.541,99.343,59.038,99.343L72.663,99.343L72.663,112.967C72.663,115.465,74.706,117.508,77.204,117.508L86.287,117.508C88.785,117.508,90.828,115.465,90.828,112.967L90.828,99.343L104.453,99.343C106.95,99.343,108.994,97.299,108.994,94.801L108.994,85.718C108.994,83.221,106.95,81.177,104.453,81.177L90.828,81.177L90.828,67.553C90.828,65.055,88.785,63.011,86.287,63.011L77.204,63.011ZM77.204,63.011"/>
</g>
  <g id="Bold-L" transform="matrix(1.0,0.0,0.0,1.0,2259.521376250562,1439.031395781812)">  <path stroke-dasharray="none" version="1.1" stroke-linejoin="miter" stroke="none" stroke-linecap="butt" stroke-width="1px" stroke-opacity="1" fill="#000000" stroke-miterlimit="4" fill-rule="nonzero" xmlns:xlink="http://www.w3.org/1999/xlink" fill-opacity="1" d="M163.434,81.035C163.434,86.144,159.177,90.146,154.352,90.146L145.269,90.146L145.467,135.617C145.524,145.693,137.378,153.868,127.302,153.868L36.36,153.868C26.34,153.868,18.194,145.722,18.194,135.702L18.194,90.146L9.083,90.146C3.974,90.146,0,86.173,0,81.035C0,78.48,0.852,76.21,2.838,74.223L75.615,10.785C77.602,8.798,79.872,8.514,81.859,8.514C83.846,8.514,86.117,9.082,87.82,10.501L118.077,37.097L118.077,26.68C118.077,21.656,122.136,17.597,127.16,17.597L136.243,17.597C141.267,17.597,145.325,21.656,145.325,26.68L145.325,61.024L160.312,74.195C162.583,76.181,163.718,78.452,163.434,81.007L163.434,81.035ZM77.204,63.011C74.706,63.011,72.663,65.055,72.663,67.553L72.663,81.177L59.038,81.177C56.541,81.177,54.497,83.221,54.497,85.718L54.497,94.801C54.497,97.299,56.541,99.343,59.038,99.343L72.663,99.343L72.663,112.967C72.663,115.465,74.706,117.508,77.204,117.508L86.287,117.508C88.785,117.508,90.828,115.465,90.828,112.967L90.828,99.343L104.453,99.343C106.95,99.343,108.994,97.299,108.994,94.801L108.994,85.718C108.994,83.221,106.95,81.177,104.453,81.177L90.828,81.177L90.828,67.553C90.828,65.055,88.785,63.011,86.287,63.011L77.204,63.011ZM77.204,63.011"/>
</g>
  <g id="Semibold-L" transform="matrix(1.0,0.0,0.0,1.0,1962.811376250562,1439.031395781812)">  <path fill-opacity="1" stroke-width="1px" stroke-linejoin="miter" stroke="none" xmlns:xlink="http://www.w3.org/1999/xlink" stroke-dasharray="none" stroke-miterlimit="4" fill="#000000" stroke-linecap="butt" stroke-opacity="1" version="1.1" fill-rule="nonzero" d="M163.434,81.035C163.434,86.144,159.177,90.146,154.352,90.146L145.269,90.146L145.467,135.617C145.524,145.693,137.378,153.868,127.302,153.868L36.36,153.868C26.34,153.868,18.194,145.722,18.194,135.702L18.194,90.146L9.083,90.146C3.974,90.146,0,86.173,0,81.035C0,78.48,0.852,76.21,2.838,74.223L75.615,10.785C77.602,8.798,79.872,8.514,81.859,8.514C83.846,8.514,86.117,9.082,87.82,10.501L118.077,37.097L118.077,26.68C118.077,21.656,122.136,17.597,127.16,17.597L136.243,17.597C141.267,17.597,145.325,21.656,145.325,26.68L145.325,61.024L160.312,74.195C162.583,76.181,163.718,78.452,163.434,81.007L163.434,81.035ZM77.204,63.011C74.706,63.011,72.663,65.055,72.663,67.553L72.663,81.177L59.038,81.177C56.541,81.177,54.497,83.221,54.497,85.718L54.497,94.801C54.497,97.299,56.541,99.343,59.038,99.343L72.663,99.343L72.663,112.967C72.663,115.465,74.706,117.508,77.204,117.508L86.287,117.508C88.785,117.508,90.828,115.465,90.828,112.967L90.828,99.343L104.453,99.343C106.95,99.343,108.994,97.299,108.994,94.801L108.994,85.718C108.994,83.221,106.95,81.177,104.453,81.177L90.828,81.177L90.828,67.553C90.828,65.055,88.785,63.011,86.287,63.011L77.204,63.011ZM77.204,63.011"/>
</g>
  <g id="Medium-L" transform="matrix(1.0,0.0,0.0,1.0,1666.101376250562,1439.031395781812)">  <path fill="#000000" xmlns:xlink="http://www.w3.org/1999/xlink" stroke-linecap="butt" fill-opacity="1" stroke-linejoin="miter" stroke-dasharray="none" stroke-opacity="1" fill-rule="nonzero" stroke="none" stroke-width="1px" stroke-miterlimit="4" version="1.1" d="M163.434,81.035C163.434,86.144,159.177,90.146,154.352,90.146L145.269,90.146L145.467,135.617C145.524,145.693,137.378,153.868,127.302,153.868L36.36,153.868C26.34,153.868,18.194,145.722,18.194,135.702L18.194,90.146L9.083,90.146C3.974,90.146,0,86.173,0,81.035C0,78.48,0.852,76.21,2.838,74.223L75.615,10.785C77.602,8.798,79.872,8.514,81.859,8.514C83.846,8.514,86.117,9.082,87.82,10.501L118.077,37.097L118.077,26.68C118.077,21.656,122.136,17.597,127.16,17.597L136.243,17.597C141.267,17.597,145.325,21.656,145.325,26.68L145.325,61.024L160.312,74.195C162.583,76.181,163.718,78.452,163.434,81.007L163.434,81.035ZM77.204,63.011C74.706,63.011,72.663,65.055,72.663,67.553L72.663,81.177L59.038,81.177C56.541,81.177,54.497,83.221,54.497,85.718L54.497,94.801C54.497,97.299,56.541,99.343,59.038,99.343L72.663,99.343L72.663,112.967C72.663,115.465,74.706,117.508,77.204,117.508L86.287,117.508C88.785,117.508,90.828,115.465,90.828,112.967L90.828,99.343L104.453,99.343C106.95,99.343,108.994,97.299,108.994,94.801L108.994,85.718C108.994,83.221,106.95,81.177,104.453,81.177L90.828,81.177L90.828,67.553C90.828,65.055,88.785,63.011,86.287,63.011L77.204,63.011ZM77.204,63.011"/>
</g>
  <g id="Regular-L" transform="matrix(1.0,0.0,0.0,1.0,1369.391376250562,1439.031395781812)">  <path stroke="none" fill="#000000" stroke-width="1px" stroke-miterlimit="4" stroke-linecap="butt" fill-rule="nonzero" stroke-linejoin="miter" stroke-opacity="1" xmlns:xlink="http://www.w3.org/1999/xlink" stroke-dasharray="none" version="1.1" fill-opacity="1" d="M163.434,81.035C163.434,86.144,159.177,90.146,154.352,90.146L145.269,90.146L145.467,135.617C145.524,145.693,137.378,153.868,127.302,153.868L36.36,153.868C26.34,153.868,18.194,145.722,18.194,135.702L18.194,90.146L9.083,90.146C3.974,90.146,0,86.173,0,81.035C0,78.48,0.852,76.21,2.838,74.223L75.615,10.785C77.602,8.798,79.872,8.514,81.859,8.514C83.846,8.514,86.117,9.082,87.82,10.501L118.077,37.097L118.077,26.68C118.077,21.656,122.136,17.597,127.16,17.597L136.243,17.597C141.267,17.597,145.325,21.656,145.325,26.68L145.325,61.024L160.312,74.195C162.583,76.181,163.718,78.452,163.434,81.007L163.434,81.035ZM77.204,63.011C74.706,63.011,72.663,65.055,72.663,67.553L72.663,81.177L59.038,81.177C56.541,81.177,54.497,83.221,54.497,85.718L54.497,94.801C54.497,97.299,56.541,99.343,59.038,99.343L72.663,99.343L72.663,112.967C72.663,115.465,74.706,117.508,77.204,117.508L86.287,117.508C88.785,117.508,90.828,115.465,90.828,112.967L90.828,99.343L104.453,99.343C106.95,99.343,108.994,97.299,108.994,94.801L108.994,85.718C108.994,83.221,106.95,81.177,104.453,81.177L90.828,81.177L90.828,67.553C90.828,65.055,88.785,63.011,86.287,63.011L77.204,63.011ZM77.204,63.011"/>
</g>
  <g id="Light-L" transform="matrix(1.0,0.0,0.0,1.0,1072.6813762505622,1439.031395781812)">  <path stroke-dasharray="none" stroke-opacity="1" fill-rule="nonzero" fill="#000000" stroke-linecap="butt" stroke-miterlimit="4" version="1.1" stroke-linejoin="miter" stroke="none" fill-opacity="1" stroke-width="1px" xmlns:xlink="http://www.w3.org/1999/xlink" d="M163.434,81.035C163.434,86.144,159.177,90.146,154.352,90.146L145.269,90.146L145.467,135.617C145.524,145.693,137.378,153.868,127.302,153.868L36.36,153.868C26.34,153.868,18.194,145.722,18.194,135.702L18.194,90.146L9.083,90.146C3.974,90.146,0,86.173,0,81.035C0,78.48,0.852,76.21,2.838,74.223L75.615,10.785C77.602,8.798,79.872,8.514,81.859,8.514C83.846,8.514,86.117,9.082,87.82,10.501L118.077,37.097L118.077,26.68C118.077,21.656,122.136,17.597,127.16,17.597L136.243,17.597C141.267,17.597,145.325,21.656,145.325,26.68L145.325,61.024L160.312,74.195C162.583,76.181,163.718,78.452,163.434,81.007L163.434,81.035ZM77.204,63.011C74.706,63.011,72.663,65.055,72.663,67.553L72.663,81.177L59.038,81.177C56.541,81.177,54.497,83.221,54.497,85.718L54.497,94.801C54.497,97.299,56.541,99.343,59.038,99.343L72.663,99.343L72.663,112.967C72.663,115.465,74.706,117.508,77.204,117.508L86.287,117.508C88.785,117.508,90.828,115.465,90.828,112.967L90.828,99.343L104.453,99.343C106.95,99.343,108.994,97.299,108.994,94.801L108.994,85.718C108.994,83.221,106.95,81.177,104.453,81.177L90.828,81.177L90.828,67.553C90.828,65.055,88.785,63.011,86.287,63.011L77.204,63.011ZM77.204,63.011"/>
</g>
  <g id="Thin-L" transform="matrix(1.0,0.0,0.0,1.0,775.9713762505621,1439.031395781812)">  <path fill="#000000" stroke-linecap="butt" stroke-linejoin="miter" fill-opacity="1" fill-rule="nonzero" stroke-dasharray="none" stroke-opacity="1" stroke-width="1px" stroke="none" xmlns:xlink="http://www.w3.org/1999/xlink" version="1.1" stroke-miterlimit="4" d="M163.434,81.035C163.434,86.144,159.177,90.146,154.352,90.146L145.269,90.146L145.467,135.617C145.524,145.693,137.378,153.868,127.302,153.868L36.36,153.868C26.34,153.868,18.194,145.722,18.194,135.702L18.194,90.146L9.083,90.146C3.974,90.146,0,86.173,0,81.035C0,78.48,0.852,76.21,2.838,74.223L75.615,10.785C77.602,8.798,79.872,8.514,81.859,8.514C83.846,8.514,86.117,9.082,87.82,10.501L118.077,37.097L118.077,26.68C118.077,21.656,122.136,17.597,127.16,17.597L136.243,17.597C141.267,17.597,145.325,21.656,145.325,26.68L145.325,61.024L160.312,74.195C162.583,76.181,163.718,78.452,163.434,81.007L163.434,81.035ZM77.204,63.011C74.706,63.011,72.663,65.055,72.663,67.553L72.663,81.177L59.038,81.177C56.541,81.177,54.497,83.221,54.497,85.718L54.497,94.801C54.497,97.299,56.541,99.343,59.038,99.343L72.663,99.343L72.663,112.967C72.663,115.465,74.706,117.508,77.204,117.508L86.287,117.508C88.785,117.508,90.828,115.465,90.828,112.967L90.828,99.343L104.453,99.343C106.95,99.343,108.994,97.299,108.994,94.801L108.994,85.718C108.994,83.221,106.95,81.177,104.453,81.177L90.828,81.177L90.828,67.553C90.828,65.055,88.785,63.011,86.287,63.011L77.204,63.011ZM77.204,63.011"/>
</g>
  <g id="Ultralight-L" transform="matrix(1.0,0.0,0.0,1.0,479.2613762505621,1439.031395781812)">  <path xmlns:xlink="http://www.w3.org/1999/xlink" fill-opacity="1" stroke-dasharray="none" fill-rule="nonzero" stroke-opacity="1" stroke-linecap="butt" stroke-linejoin="miter" stroke-width="1px" stroke-miterlimit="4" stroke="none" version="1.1" fill="#000000" d="M163.434,81.035C163.434,86.144,159.177,90.146,154.352,90.146L145.269,90.146L145.467,135.617C145.524,145.693,137.378,153.868,127.302,153.868L36.36,153.868C26.34,153.868,18.194,145.722,18.194,135.702L18.194,90.146L9.083,90.146C3.974,90.146,0,86.173,0,81.035C0,78.48,0.852,76.21,2.838,74.223L75.615,10.785C77.602,8.798,79.872,8.514,81.859,8.514C83.846,8.514,86.117,9.082,87.82,10.501L118.077,37.097L118.077,26.68C118.077,21.656,122.136,17.597,127.16,17.597L136.243,17.597C141.267,17.597,145.325,21.656,145.325,26.68L145.325,61.024L160.312,74.195C162.583,76.181,163.718,78.452,163.434,81.007L163.434,81.035ZM77.204,63.011C74.706,63.011,72.663,65.055,72.663,67.553L72.663,81.177L59.038,81.177C56.541,81.177,54.497,83.221,54.497,85.718L54.497,94.801C54.497,97.299,56.541,99.343,59.038,99.343L72.663,99.343L72.663,112.967C72.663,115.465,74.706,117.508,77.204,117.508L86.287,117.508C88.785,117.508,90.828,115.465,90.828,112.967L90.828,99.343L104.453,99.343C106.95,99.343,108.994,97.299,108.994,94.801L108.994,85.718C108.994,83.221,106.95,81.177,104.453,81.177L90.828,81.177L90.828,67.553C90.828,65.055,88.785,63.011,86.287,63.011L77.204,63.011ZM77.204,63.011"/>
</g>
  <g id="Black-M" transform="matrix(1.0,0.0,0.0,1.0,2871.3167257756295,1027.4067453068794)">  <path stroke-opacity="1" fill-opacity="1" stroke="none" version="1.1" xmlns:xlink="http://www.w3.org/1999/xlink" stroke-width="1px" fill="#000000" fill-rule="nonzero" stroke-linecap="butt" stroke-dasharray="none" stroke-miterlimit="4" stroke-linejoin="miter" d="M126.693,62.818C126.693,66.778,123.393,69.881,119.652,69.881L112.611,69.881L112.765,105.13C112.809,112.941,106.495,119.277,98.683,119.277L28.186,119.277C20.419,119.277,14.104,112.963,14.104,105.196L14.104,69.881L7.041,69.881C3.08,69.881,0,66.8,0,62.818C0,60.838,0.66,59.077,2.2,57.537L58.616,8.361C60.156,6.82,61.916,6.6,63.457,6.6C64.997,6.6,66.757,7.04,68.077,8.141L91.533,28.757L91.533,20.682C91.533,16.788,94.679,13.641,98.573,13.641L105.614,13.641C109.509,13.641,112.655,16.788,112.655,20.682L112.655,47.306L124.273,57.515C126.033,59.055,126.913,60.816,126.693,62.796L126.693,62.818ZM59.848,48.846C57.912,48.846,56.328,50.43,56.328,52.366L56.328,62.928L45.766,62.928C43.83,62.928,42.246,64.512,42.246,66.448L42.246,73.489C42.246,75.426,43.83,77.01,45.766,77.01L56.328,77.01L56.328,87.571C56.328,89.507,57.912,91.092,59.848,91.092L66.889,91.092C68.825,91.092,70.41,89.507,70.41,87.571L70.41,77.01L80.971,77.01C82.907,77.01,84.492,75.426,84.492,73.489L84.492,66.448C84.492,64.512,82.907,62.928,80.971,62.928L70.41,62.928L70.41,52.366C70.41,50.43,68.825,48.846,66.889,48.846L59.848,48.846ZM59.848,48.846"/>
</g>
  <g id="Heavy-M" transform="matrix(1.0,0.0,0.0,1.0,2574.6067257756295,1027.4067453068794)">  <path stroke-linecap="butt" stroke-dasharray="none" fill="#000000" stroke-miterlimit="4" version="1.1" stroke-opacity="1" xmlns:xlink="http://www.w3.org/1999/xlink" fill-rule="nonzero" stroke="none" fill-opacity="1" stroke-width="1px" stroke-linejoin="miter" d="M126.693,62.818C126.693,66.778,123.393,69.881,119.652,69.881L112.611,69.881L112.765,105.13C112.809,112.941,106.495,119.277,98.683,119.277L28.186,119.277C20.419,119.277,14.104,112.963,14.104,105.196L14.104,69.881L7.041,69.881C3.08,69.881,0,66.8,0,62.818C0,60.838,0.66,59.077,2.2,57.537L58.616,8.361C60.156,6.82,61.916,6.6,63.457,6.6C64.997,6.6,66.757,7.04,68.077,8.141L91.533,28.757L91.533,20.682C91.533,16.788,94.679,13.641,98.573,13.641L105.614,13.641C109.509,13.641,112.655,16.788,112.655,20.682L112.655,47.306L124.273,57.515C126.033,59.055,126.913,60.816,126.693,62.796L126.693,62.818ZM59.848,48.846C57.912,48.846,56.328,50.43,56.328,52.366L56.328,62.928L45.766,62.928C43.83,62.928,42.246,64.512,42.246,66.448L42.246,73.489C42.246,75.426,43.83,77.01,45.766,77.01L56.328,77.01L56.328,87.571C56.328,89.507,57.912,91.092,59.848,91.092L66.889,91.092C68.825,91.092,70.41,89.507,70.41,87.571L70.41,77.01L80.971,77.01C82.907,77.01,84.492,75.426,84.492,73.489L84.492,66.448C84.492,64.512,82.907,62.928,80.971,62.928L70.41,62.928L70.41,52.366C70.41,50.43,68.825,48.846,66.889,48.846L59.848,48.846ZM59.848,48.846"/>
</g>
  <g id="Bold-M" transform="matrix(1.0,0.0,0.0,1.0,2277.8967257756294,1027.4067453068794)">  <path stroke-dasharray="none" version="1.1" stroke-linejoin="miter" stroke="none" stroke-linecap="butt" stroke-width="1px" stroke-opacity="1" fill="#000000" stroke-miterlimit="4" fill-rule="nonzero" xmlns:xlink="http://www.w3.org/1999/xlink" fill-opacity="1" d="M126.693,62.818C126.693,66.778,123.393,69.881,119.652,69.881L112.611,69.881L112.765,105.13C112.809,112.941,106.495,119.277,98.683,119.277L28.186,119.277C20.419,119.277,14.104,112.963,14.104,105.196L14.104,69.881L7.041,69.881C3.08,69.881,0,66.8,0,62.818C0,60.838,0.66,59.077,2.2,57.537L58.616,8.361C60.156,6.82,61.916,6.6,63.457,6.6C64.997,6.6,66.757,7.04,68.077,8.141L91.533,28.757L91.533,20.682C91.533,16.788,94.679,13.641,98.573,13.641L105.614,13.641C109.509,13.641,112.655,16.788,112.655,20.682L112.655,47.306L124.273,57.515C126.033,59.055,126.913,60.816,126.693,62.796L126.693,62.818ZM59.848,48.846C57.912,48.846,56.328,50.43,56.328,52.366L56.328,62.928L45.766,62.928C43.83,62.928,42.246,64.512,42.246,66.448L42.246,73.489C42.246,75.426,43.83,77.01,45.766,77.01L56.328,77.01L56.328,87.571C56.328,89.507,57.912,91.092,59.848,91.092L66.889,91.092C68.825,91.092,70.41,89.507,70.41,87.571L70.41,77.01L80.971,77.01C82.907,77.01,84.492,75.426,84.492,73.489L84.492,66.448C84.492,64.512,82.907,62.928,80.971,62.928L70.41,62.928L70.41,52.366C70.41,50.43,68.825,48.846,66.889,48.846L59.848,48.846ZM59.848,48.846"/>
</g>
  <g id="Semibold-M" transform="matrix(1.0,0.0,0.0,1.0,1981.1867257756294,1027.4067453068794)">  <path fill-opacity="1" stroke-width="1px" stroke-linejoin="miter" stroke="none" xmlns:xlink="http://www.w3.org/1999/xlink" stroke-dasharray="none" stroke-miterlimit="4" fill="#000000" stroke-linecap="butt" stroke-opacity="1" version="1.1" fill-rule="nonzero" d="M126.693,62.818C126.693,66.778,123.393,69.881,119.652,69.881L112.611,69.881L112.765,105.13C112.809,112.941,106.495,119.277,98.683,119.277L28.186,119.277C20.419,119.277,14.104,112.963,14.104,105.196L14.104,69.881L7.041,69.881C3.08,69.881,0,66.8,0,62.818C0,60.838,0.66,59.077,2.2,57.537L58.616,8.361C60.156,6.82,61.916,6.6,63.457,6.6C64.997,6.6,66.757,7.04,68.077,8.141L91.533,28.757L91.533,20.682C91.533,16.788,94.679,13.641,98.573,13.641L105.614,13.641C109.509,13.641,112.655,16.788,112.655,20.682L112.655,47.306L124.273,57.515C126.033,59.055,126.913,60.816,126.693,62.796L126.693,62.818ZM59.848,48.846C57.912,48.846,56.328,50.43,56.328,52.366L56.328,62.928L45.766,62.928C43.83,62.928,42.246,64.512,42.246,66.448L42.246,73.489C42.246,75.426,43.83,77.01,45.766,77.01L56.328,77.01L56.328,87.571C56.328,89.507,57.912,91.092,59.848,91.092L66.889,91.092C68.825,91.092,70.41,89.507,70.41,87.571L70.41,77.01L80.971,77.01C82.907,77.01,84.492,75.426,84.492,73.489L84.492,66.448C84.492,64.512,82.907,62.928,80.971,62.928L70.41,62.928L70.41,52.366C70.41,50.43,68.825,48.846,66.889,48.846L59.848,48.846ZM59.848,48.846"/>
</g>
  <g id="Medium-M" transform="matrix(1.0,0.0,0.0,1.0,1684.4767257756293,1027.4067453068794)">  <path fill="#000000" xmlns:xlink="http://www.w3.org/1999/xlink" stroke-linecap="butt" fill-opacity="1" stroke-linejoin="miter" stroke-dasharray="none" stroke-opacity="1" fill-rule="nonzero" stroke="none" stroke-width="1px" stroke-miterlimit="4" version="1.1" d="M126.693,62.818C126.693,66.778,123.393,69.881,119.652,69.881L112.611,69.881L112.765,105.13C112.809,112.941,106.495,119.277,98.683,119.277L28.186,119.277C20.419,119.277,14.104,112.963,14.104,105.196L14.104,69.881L7.041,69.881C3.08,69.881,0,66.8,0,62.818C0,60.838,0.66,59.077,2.2,57.537L58.616,8.361C60.156,6.82,61.916,6.6,63.457,6.6C64.997,6.6,66.757,7.04,68.077,8.141L91.533,28.757L91.533,20.682C91.533,16.788,94.679,13.641,98.573,13.641L105.614,13.641C109.509,13.641,112.655,16.788,112.655,20.682L112.655,47.306L124.273,57.515C126.033,59.055,126.913,60.816,126.693,62.796L126.693,62.818ZM59.848,48.846C57.912,48.846,56.328,50.43,56.328,52.366L56.328,62.928L45.766,62.928C43.83,62.928,42.246,64.512,42.246,66.448L42.246,73.489C42.246,75.426,43.83,77.01,45.766,77.01L56.328,77.01L56.328,87.571C56.328,89.507,57.912,91.092,59.848,91.092L66.889,91.092C68.825,91.092,70.41,89.507,70.41,87.571L70.41,77.01L80.971,77.01C82.907,77.01,84.492,75.426,84.492,73.489L84.492,66.448C84.492,64.512,82.907,62.928,80.971,62.928L70.41,62.928L70.41,52.366C70.41,50.43,68.825,48.846,66.889,48.846L59.848,48.846ZM59.848,48.846"/>
</g>
  <g id="Regular-M" transform="matrix(1.0,0.0,0.0,1.0,1387.7667257756293,1027.4067453068794)">  <path stroke="none" fill="#000000" stroke-width="1px" stroke-miterlimit="4" stroke-linecap="butt" fill-rule="nonzero" stroke-linejoin="miter" stroke-opacity="1" xmlns:xlink="http://www.w3.org/1999/xlink" stroke-dasharray="none" version="1.1" fill-opacity="1" d="M126.693,62.818C126.693,66.778,123.393,69.881,119.652,69.881L112.611,69.881L112.765,105.13C112.809,112.941,106.495,119.277,98.683,119.277L28.186,119.277C20.419,119.277,14.104,112.963,14.104,105.196L14.104,69.881L7.041,69.881C3.08,69.881,0,66.8,0,62.818C0,60.838,0.66,59.077,2.2,57.537L58.616,8.361C60.156,6.82,61.916,6.6,63.457,6.6C64.997,6.6,66.757,7.04,68.077,8.141L91.533,28.757L91.533,20.682C91.533,16.788,94.679,13.641,98.573,13.641L105.614,13.641C109.509,13.641,112.655,16.788,112.655,20.682L112.655,47.306L124.273,57.515C126.033,59.055,126.913,60.816,126.693,62.796L126.693,62.818ZM59.848,48.846C57.912,48.846,56.328,50.43,56.328,52.366L56.328,62.928L45.766,62.928C43.83,62.928,42.246,64.512,42.246,66.448L42.246,73.489C42.246,75.426,43.83,77.01,45.766,77.01L56.328,77.01L56.328,87.571C56.328,89.507,57.912,91.092,59.848,91.092L66.889,91.092C68.825,91.092,70.41,89.507,70.41,87.571L70.41,77.01L80.971,77.01C82.907,77.01,84.492,75.426,84.492,73.489L84.492,66.448C84.492,64.512,82.907,62.928,80.971,62.928L70.41,62.928L70.41,52.366C70.41,50.43,68.825,48.846,66.889,48.846L59.848,48.846ZM59.848,48.846"/>
</g>
  <g id="Light-M" transform="matrix(1.0,0.0,0.0,1.0,1091.0567257756295,1027.4067453068794)">  <path stroke-dasharray="none" stroke-opacity="1" fill-rule="nonzero" fill="#000000" stroke-linecap="butt" stroke-miterlimit="4" version="1.1" stroke-linejoin="miter" stroke="none" fill-opacity="1" stroke-width="1px" xmlns:xlink="http://www.w3.org/1999/xlink" d="M126.693,62.818C126.693,66.778,123.393,69.881,119.652,69.881L112.611,69.881L112.765,105.13C112.809,112.941,106.495,119.277,98.683,119.277L28.186,119.277C20.419,119.277,14.104,112.963,14.104,105.196L14.104,69.881L7.041,69.881C3.08,69.881,0,66.8,0,62.818C0,60.838,0.66,59.077,2.2,57.537L58.616,8.361C60.156,6.82,61.916,6.6,63.457,6.6C64.997,6.6,66.757,7.04,68.077,8.141L91.533,28.757L91.533,20.682C91.533,16.788,94.679,13.641,98.573,13.641L105.614,13.641C109.509,13.641,112.655,16.788,112.655,20.682L112.655,47.306L124.273,57.515C126.033,59.055,126.913,60.816,126.693,62.796L126.693,62.818ZM59.848,48.846C57.912,48.846,56.328,50.43,56.328,52.366L56.328,62.928L45.766,62.928C43.83,62.928,42.246,64.512,42.246,66.448L42.246,73.489C42.246,75.426,43.83,77.01,45.766,77.01L56.328,77.01L56.328,87.571C56.328,89.507,57.912,91.092,59.848,91.092L66.889,91.092C68.825,91.092,70.41,89.507,70.41,87.571L70.41,77.01L80.971,77.01C82.907,77.01,84.492,75.426,84.492,73.489L84.492,66.448C84.492,64.512,82.907,62.928,80.971,62.928L70.41,62.928L70.41,52.366C70.41,50.43,68.825,48.846,66.889,48.846L59.848,48.846ZM59.848,48.846"/>
</g>
  <g id="Thin-M" transform="matrix(1.0,0.0,0.0,1.0,794.3467257756296,1027.4067453068794)">  <path fill="#000000" stroke-linecap="butt" stroke-linejoin="miter" fill-opacity="1" fill-rule="nonzero" stroke-dasharray="none" stroke-opacity="1" stroke-width="1px" stroke="none" xmlns:xlink="http://www.w3.org/1999/xlink" version="1.1" stroke-miterlimit="4" d="M126.693,62.818C126.693,66.778,123.393,69.881,119.652,69.881L112.611,69.881L112.765,105.13C112.809,112.941,106.495,119.277,98.683,119.277L28.186,119.277C20.419,119.277,14.104,112.963,14.104,105.196L14.104,69.881L7.041,69.881C3.08,69.881,0,66.8,0,62.818C0,60.838,0.66,59.077,2.2,57.537L58.616,8.361C60.156,6.82,61.916,6.6,63.457,6.6C64.997,6.6,66.757,7.04,68.077,8.141L91.533,28.757L91.533,20.682C91.533,16.788,94.679,13.641,98.573,13.641L105.614,13.641C109.509,13.641,112.655,16.788,112.655,20.682L112.655,47.306L124.273,57.515C126.033,59.055,126.913,60.816,126.693,62.796L126.693,62.818ZM59.848,48.846C57.912,48.846,56.328,50.43,56.328,52.366L56.328,62.928L45.766,62.928C43.83,62.928,42.246,64.512,42.246,66.448L42.246,73.489C42.246,75.426,43.83,77.01,45.766,77.01L56.328,77.01L56.328,87.571C56.328,89.507,57.912,91.092,59.848,91.092L66.889,91.092C68.825,91.092,70.41,89.507,70.41,87.571L70.41,77.01L80.971,77.01C82.907,77.01,84.492,75.426,84.492,73.489L84.492,66.448C84.492,64.512,82.907,62.928,80.971,62.928L70.41,62.928L70.41,52.366C70.41,50.43,68.825,48.846,66.889,48.846L59.848,48.846ZM59.848,48.846"/>
</g>
  <g id="Ultralight-M" transform="matrix(1.0,0.0,0.0,1.0,497.6367257756295,1027.4067453068794)">  <path xmlns:xlink="http://www.w3.org/1999/xlink" fill-opacity="1" stroke-dasharray="none" fill-rule="nonzero" stroke-opacity="1" stroke-linecap="butt" stroke-linejoin="miter" stroke-width="1px" stroke-miterlimit="4" stroke="none" version="1.1" fill="#000000" d="M126.693,62.818C126.693,66.778,123.393,69.881,119.652,69.881L112.611,69.881L112.765,105.13C112.809,112.941,106.495,119.277,98.683,119.277L28.186,119.277C20.419,119.277,14.104,112.963,14.104,105.196L14.104,69.881L7.041,69.881C3.08,69.881,0,66.8,0,62.818C0,60.838,0.66,59.077,2.2,57.537L58.616,8.361C60.156,6.82,61.916,6.6,63.457,6.6C64.997,6.6,66.757,7.04,68.077,8.141L91.533,28.757L91.533,20.682C91.533,16.788,94.679,13.641,98.573,13.641L105.614,13.641C109.509,13.641,112.655,16.788,112.655,20.682L112.655,47.306L124.273,57.515C126.033,59.055,126.913,60.816,126.693,62.796L126.693,62.818ZM59.848,48.846C57.912,48.846,56.328,50.43,56.328,52.366L56.328,62.928L45.766,62.928C43.83,62.928,42.246,64.512,42.246,66.448L42.246,73.489C42.246,75.426,43.83,77.01,45.766,77.01L56.328,77.01L56.328,87.571C56.328,89.507,57.912,91.092,59.848,91.092L66.889,91.092C68.825,91.092,70.41,89.507,70.41,87.571L70.41,77.01L80.971,77.01C82.907,77.01,84.492,75.426,84.492,73.489L84.492,66.448C84.492,64.512,82.907,62.928,80.971,62.928L70.41,62.928L70.41,52.366C70.41,50.43,68.825,48.846,66.889,48.846L59.848,48.846ZM59.848,48.846"/>
</g>
  <g id="Black-S" transform="matrix(1.0,0.0,0.0,1.0,2885.066556282318,611.1565758135679)">  <path stroke-opacity="1" fill-opacity="1" stroke="none" version="1.1" xmlns:xlink="http://www.w3.org/1999/xlink" stroke-width="1px" fill="#000000" fill-rule="nonzero" stroke-linecap="butt" stroke-dasharray="none" stroke-miterlimit="4" stroke-linejoin="miter" d="M99.201,49.186C99.201,52.287,96.617,54.717,93.688,54.717L88.175,54.717L88.295,82.316C88.33,88.432,83.385,93.394,77.269,93.394L22.07,93.394C15.988,93.394,11.043,88.45,11.043,82.368L11.043,54.717L5.513,54.717C2.412,54.717,0,52.305,0,49.186C0,47.636,0.517,46.258,1.723,45.052L45.896,6.546C47.102,5.34,48.481,5.168,49.687,5.168C50.893,5.168,52.271,5.513,53.305,6.374L71.67,22.517L71.67,16.194C71.67,13.145,74.134,10.681,77.183,10.681L82.696,10.681C85.746,10.681,88.209,13.145,88.209,16.194L88.209,37.04L97.306,45.034C98.684,46.24,99.373,47.619,99.201,49.169L99.201,49.186ZM46.861,38.246C45.345,38.246,44.105,39.487,44.105,41.003L44.105,49.273L35.835,49.273C34.319,49.273,33.078,50.513,33.078,52.029L33.078,57.542C33.078,59.058,34.319,60.299,35.835,60.299L44.105,60.299L44.105,68.568C44.105,70.084,45.345,71.325,46.861,71.325L52.374,71.325C53.89,71.325,55.131,70.084,55.131,68.568L55.131,60.299L63.4,60.299C64.916,60.299,66.157,59.058,66.157,57.542L66.157,52.029C66.157,50.513,64.916,49.273,63.4,49.273L55.131,49.273L55.131,41.003C55.131,39.487,53.89,38.246,52.374,38.246L46.861,38.246ZM46.861,38.246"/>
</g>
  <g id="Heavy-S" transform="matrix(1.0,0.0,0.0,1.0,2588.356556282318,611.1565758135679)">  <path stroke-linecap="butt" stroke-dasharray="none" fill="#000000" stroke-miterlimit="4" version="1.1" stroke-opacity="1" xmlns:xlink="http://www.w3.org/1999/xlink" fill-rule="nonzero" stroke="none" fill-opacity="1" stroke-width="1px" stroke-linejoin="miter" d="M99.201,49.186C99.201,52.287,96.617,54.717,93.688,54.717L88.175,54.717L88.295,82.316C88.33,88.432,83.385,93.394,77.269,93.394L22.07,93.394C15.988,93.394,11.043,88.45,11.043,82.368L11.043,54.717L5.513,54.717C2.412,54.717,0,52.305,0,49.186C0,47.636,0.517,46.258,1.723,45.052L45.896,6.546C47.102,5.34,48.481,5.168,49.687,5.168C50.893,5.168,52.271,5.513,53.305,6.374L71.67,22.517L71.67,16.194C71.67,13.145,74.134,10.681,77.183,10.681L82.696,10.681C85.746,10.681,88.209,13.145,88.209,16.194L88.209,37.04L97.306,45.034C98.684,46.24,99.373,47.619,99.201,49.169L99.201,49.186ZM46.861,38.246C45.345,38.246,44.105,39.487,44.105,41.003L44.105,49.273L35.835,49.273C34.319,49.273,33.078,50.513,33.078,52.029L33.078,57.542C33.078,59.058,34.319,60.299,35.835,60.299L44.105,60.299L44.105,68.568C44.105,70.084,45.345,71.325,46.861,71.325L52.374,71.325C53.89,71.325,55.131,70.084,55.131,68.568L55.131,60.299L63.4,60.299C64.916,60.299,66.157,59.058,66.157,57.542L66.157,52.029C66.157,50.513,64.916,49.273,63.4,49.273L55.131,49.273L55.131,41.003C55.131,39.487,53.89,38.246,52.374,38.246L46.861,38.246ZM46.861,38.246"/>
</g>
  <g id="Bold-S" transform="matrix(1.0,0.0,0.0,1.0,2291.6465562823178,611.1565758135679)">  <path stroke-dasharray="none" version="1.1" stroke-linejoin="miter" stroke="none" stroke-linecap="butt" stroke-width="1px" stroke-opacity="1" fill="#000000" stroke-miterlimit="4" fill-rule="nonzero" xmlns:xlink="http://www.w3.org/1999/xlink" fill-opacity="1" d="M99.201,49.186C99.201,52.287,96.617,54.717,93.688,54.717L88.175,54.717L88.295,82.316C88.33,88.432,83.385,93.394,77.269,93.394L22.07,93.394C15.988,93.394,11.043,88.45,11.043,82.368L11.043,54.717L5.513,54.717C2.412,54.717,0,52.305,0,49.186C0,47.636,0.517,46.258,1.723,45.052L45.896,6.546C47.102,5.34,48.481,5.168,49.687,5.168C50.893,5.168,52.271,5.513,53.305,6.374L71.67,22.517L71.67,16.194C71.67,13.145,74.134,10.681,77.183,10.681L82.696,10.681C85.746,10.681,88.209,13.145,88.209,16.194L88.209,37.04L97.306,45.034C98.684,46.24,99.373,47.619,99.201,49.169L99.201,49.186ZM46.861,38.246C45.345,38.246,44.105,39.487,44.105,41.003L44.105,49.273L35.835,49.273C34.319,49.273,33.078,50.513,33.078,52.029L33.078,57.542C33.078,59.058,34.319,60.299,35.835,60.299L44.105,60.299L44.105,68.568C44.105,70.084,45.345,71.325,46.861,71.325L52.374,71.325C53.89,71.325,55.131,70.084,55.131,68.568L55.131,60.299L63.4,60.299C64.916,60.299,66.157,59.058,66.157,57.542L66.157,52.029C66.157,50.513,64.916,49.273,63.4,49.273L55.131,49.273L55.131,41.003C55.131,39.487,53.89,38.246,52.374,38.246L46.861,38.246ZM46.861,38.246"/>
</g>
  <g id="Semibold-S" transform="matrix(1.0,0.0,0.0,1.0,1994.936556282318,611.1565758135679)">  <path fill-opacity="1" stroke-width="1px" stroke-linejoin="miter" stroke="none" xmlns:xlink="http://www.w3.org/1999/xlink" stroke-dasharray="none" stroke-miterlimit="4" fill="#000000" stroke-linecap="butt" stroke-opacity="1" version="1.1" fill-rule="nonzero" d="M99.201,49.186C99.201,52.287,96.617,54.717,93.688,54.717L88.175,54.717L88.295,82.316C88.33,88.432,83.385,93.394,77.269,93.394L22.07,93.394C15.988,93.394,11.043,88.45,11.043,82.368L11.043,54.717L5.513,54.717C2.412,54.717,0,52.305,0,49.186C0,47.636,0.517,46.258,1.723,45.052L45.896,6.546C47.102,5.34,48.481,5.168,49.687,5.168C50.893,5.168,52.271,5.513,53.305,6.374L71.67,22.517L71.67,16.194C71.67,13.145,74.134,10.681,77.183,10.681L82.696,10.681C85.746,10.681,88.209,13.145,88.209,16.194L88.209,37.04L97.306,45.034C98.684,46.24,99.373,47.619,99.201,49.169L99.201,49.186ZM46.861,38.246C45.345,38.246,44.105,39.487,44.105,41.003L44.105,49.273L35.835,49.273C34.319,49.273,33.078,50.513,33.078,52.029L33.078,57.542C33.078,59.058,34.319,60.299,35.835,60.299L44.105,60.299L44.105,68.568C44.105,70.084,45.345,71.325,46.861,71.325L52.374,71.325C53.89,71.325,55.131,70.084,55.131,68.568L55.131,60.299L63.4,60.299C64.916,60.299,66.157,59.058,66.157,57.542L66.157,52.029C66.157,50.513,64.916,49.273,63.4,49.273L55.131,49.273L55.131,41.003C55.131,39.487,53.89,38.246,52.374,38.246L46.861,38.246ZM46.861,38.246"/>
</g>
  <g id="Medium-S" transform="matrix(1.0,0.0,0.0,1.0,1698.226556282318,611.1565758135679)">  <path fill="#000000" xmlns:xlink="http://www.w3.org/1999/xlink" stroke-linecap="butt" fill-opacity="1" stroke-linejoin="miter" stroke-dasharray="none" stroke-opacity="1" fill-rule="nonzero" stroke="none" stroke-width="1px" stroke-miterlimit="4" version="1.1" d="M99.201,49.186C99.201,52.287,96.617,54.717,93.688,54.717L88.175,54.717L88.295,82.316C88.33,88.432,83.385,93.394,77.269,93.394L22.07,93.394C15.988,93.394,11.043,88.45,11.043,82.368L11.043,54.717L5.513,54.717C2.412,54.717,0,52.305,0,49.186C0,47.636,0.517,46.258,1.723,45.052L45.896,6.546C47.102,5.34,48.481,5.168,49.687,5.168C50.893,5.168,52.271,5.513,53.305,6.374L71.67,22.517L71.67,16.194C71.67,13.145,74.134,10.681,77.183,10.681L82.696,10.681C85.746,10.681,88.209,13.145,88.209,16.194L88.209,37.04L97.306,45.034C98.684,46.24,99.373,47.619,99.201,49.169L99.201,49.186ZM46.861,38.246C45.345,38.246,44.105,39.487,44.105,41.003L44.105,49.273L35.835,49.273C34.319,49.273,33.078,50.513,33.078,52.029L33.078,57.542C33.078,59.058,34.319,60.299,35.835,60.299L44.105,60.299L44.105,68.568C44.105,70.084,45.345,71.325,46.861,71.325L52.374,71.325C53.89,71.325,55.131,70.084,55.131,68.568L55.131,60.299L63.4,60.299C64.916,60.299,66.157,59.058,66.157,57.542L66.157,52.029C66.157,50.513,64.916,49.273,63.4,49.273L55.131,49.273L55.131,41.003C55.131,39.487,53.89,38.246,52.374,38.246L46.861,38.246ZM46.861,38.246"/>
</g>
  <g id="Regular-S" transform="matrix(1.0,0.0,0.0,1.0,1401.5165562823179,611.1565758135679)">  <path stroke="none" fill="#000000" stroke-width="1px" stroke-miterlimit="4" stroke-linecap="butt" fill-rule="nonzero" stroke-linejoin="miter" stroke-opacity="1" xmlns:xlink="http://www.w3.org/1999/xlink" stroke-dasharray="none" version="1.1" fill-opacity="1" d="M99.201,49.186C99.201,52.287,96.617,54.717,93.688,54.717L88.175,54.717L88.295,82.316C88.33,88.432,83.385,93.394,77.269,93.394L22.07,93.394C15.988,93.394,11.043,88.45,11.043,82.368L11.043,54.717L5.513,54.717C2.412,54.717,0,52.305,0,49.186C0,47.636,0.517,46.258,1.723,45.052L45.896,6.546C47.102,5.34,48.481,5.168,49.687,5.168C50.893,5.168,52.271,5.513,53.305,6.374L71.67,22.517L71.67,16.194C71.67,13.145,74.134,10.681,77.183,10.681L82.696,10.681C85.746,10.681,88.209,13.145,88.209,16.194L88.209,37.04L97.306,45.034C98.684,46.24,99.373,47.619,99.201,49.169L99.201,49.186ZM46.861,38.246C45.345,38.246,44.105,39.487,44.105,41.003L44.105,49.273L35.835,49.273C34.319,49.273,33.078,50.513,33.078,52.029L33.078,57.542C33.078,59.058,34.319,60.299,35.835,60.299L44.105,60.299L44.105,68.568C44.105,70.084,45.345,71.325,46.861,71.325L52.374,71.325C53.89,71.325,55.131,70.084,55.131,68.568L55.131,60.299L63.4,60.299C64.916,60.299,66.157,59.058,66.157,57.542L66.157,52.029C66.157,50.513,64.916,49.273,63.4,49.273L55.131,49.273L55.131,41.003C55.131,39.487,53.89,38.246,52.374,38.246L46.861,38.246ZM46.861,38.246"/>
</g>
  <g id="Light-S" transform="matrix(1.0,0.0,0.0,1.0,1104.806556282318,611.1565758135679)">  <path stroke-dasharray="none" stroke-opacity="1" fill-rule="nonzero" fill="#000000" stroke-linecap="butt" stroke-miterlimit="4" version="1.1" stroke-linejoin="miter" stroke="none" fill-opacity="1" stroke-width="1px" xmlns:xlink="http://www.w3.org/1999/xlink" d="M99.201,49.186C99.201,52.287,96.617,54.717,93.688,54.717L88.175,54.717L88.295,82.316C88.33,88.432,83.385,93.394,77.269,93.394L22.07,93.394C15.988,93.394,11.043,88.45,11.043,82.368L11.043,54.717L5.513,54.717C2.412,54.717,0,52.305,0,49.186C0,47.636,0.517,46.258,1.723,45.052L45.896,6.546C47.102,5.34,48.481,5.168,49.687,5.168C50.893,5.168,52.271,5.513,53.305,6.374L71.67,22.517L71.67,16.194C71.67,13.145,74.134,10.681,77.183,10.681L82.696,10.681C85.746,10.681,88.209,13.145,88.209,16.194L88.209,37.04L97.306,45.034C98.684,46.24,99.373,47.619,99.201,49.169L99.201,49.186ZM46.861,38.246C45.345,38.246,44.105,39.487,44.105,41.003L44.105,49.273L35.835,49.273C34.319,49.273,33.078,50.513,33.078,52.029L33.078,57.542C33.078,59.058,34.319,60.299,35.835,60.299L44.105,60.299L44.105,68.568C44.105,70.084,45.345,71.325,46.861,71.325L52.374,71.325C53.89,71.325,55.131,70.084,55.131,68.568L55.131,60.299L63.4,60.299C64.916,60.299,66.157,59.058,66.157,57.542L66.157,52.029C66.157,50.513,64.916,49.273,63.4,49.273L55.131,49.273L55.131,41.003C55.131,39.487,53.89,38.246,52.374,38.246L46.861,38.246ZM46.861,38.246"/>
</g>
  <g id="Thin-S" transform="matrix(1.0,0.0,0.0,1.0,808.0965562823179,611.1565758135679)">  <path fill="#000000" stroke-linecap="butt" stroke-linejoin="miter" fill-opacity="1" fill-rule="nonzero" stroke-dasharray="none" stroke-opacity="1" stroke-width="1px" stroke="none" xmlns:xlink="http://www.w3.org/1999/xlink" version="1.1" stroke-miterlimit="4" d="M99.201,49.186C99.201,52.287,96.617,54.717,93.688,54.717L88.175,54.717L88.295,82.316C88.33,88.432,83.385,93.394,77.269,93.394L22.07,93.394C15.988,93.394,11.043,88.45,11.043,82.368L11.043,54.717L5.513,54.717C2.412,54.717,0,52.305,0,49.186C0,47.636,0.517,46.258,1.723,45.052L45.896,6.546C47.102,5.34,48.481,5.168,49.687,5.168C50.893,5.168,52.271,5.513,53.305,6.374L71.67,22.517L71.67,16.194C71.67,13.145,74.134,10.681,77.183,10.681L82.696,10.681C85.746,10.681,88.209,13.145,88.209,16.194L88.209,37.04L97.306,45.034C98.684,46.24,99.373,47.619,99.201,49.169L99.201,49.186ZM46.861,38.246C45.345,38.246,44.105,39.487,44.105,41.003L44.105,49.273L35.835,49.273C34.319,49.273,33.078,50.513,33.078,52.029L33.078,57.542C33.078,59.058,34.319,60.299,35.835,60.299L44.105,60.299L44.105,68.568C44.105,70.084,45.345,71.325,46.861,71.325L52.374,71.325C53.89,71.325,55.131,70.084,55.131,68.568L55.131,60.299L63.4,60.299C64.916,60.299,66.157,59.058,66.157,57.542L66.157,52.029C66.157,50.513,64.916,49.273,63.4,49.273L55.131,49.273L55.131,41.003C55.131,39.487,53.89,38.246,52.374,38.246L46.861,38.246ZM46.861,38.246"/>
</g>
  <g id="Ultralight-S" transform="matrix(1.0,0.0,0.0,1.0,511.3865562823179,611.1565758135679)">  <path xmlns:xlink="http://www.w3.org/1999/xlink" fill-opacity="1" stroke-dasharray="none" fill-rule="nonzero" stroke-opacity="1" stroke-linecap="butt" stroke-linejoin="miter" stroke-width="1px" stroke-miterlimit="4" stroke="none" version="1.1" fill="#000000" d="M99.201,49.186C99.201,52.287,96.617,54.717,93.688,54.717L88.175,54.717L88.295,82.316C88.33,88.432,83.385,93.394,77.269,93.394L22.07,93.394C15.988,93.394,11.043,88.45,11.043,82.368L11.043,54.717L5.513,54.717C2.412,54.717,0,52.305,0,49.186C0,47.636,0.517,46.258,1.723,45.052L45.896,6.546C47.102,5.34,48.481,5.168,49.687,5.168C50.893,5.168,52.271,5.513,53.305,6.374L71.67,22.517L71.67,16.194C71.67,13.145,74.134,10.681,77.183,10.681L82.696,10.681C85.746,10.681,88.209,13.145,88.209,16.194L88.209,37.04L97.306,45.034C98.684,46.24,99.373,47.619,99.201,49.169L99.201,49.186ZM46.861,38.246C45.345,38.246,44.105,39.487,44.105,41.003L44.105,49.273L35.835,49.273C34.319,49.273,33.078,50.513,33.078,52.029L33.078,57.542C33.078,59.058,34.319,60.299,35.835,60.299L44.105,60.299L44.105,68.568C44.105,70.084,45.345,71.325,46.861,71.325L52.374,71.325C53.89,71.325,55.131,70.084,55.131,68.568L55.131,60.299L63.4,60.299C64.916,60.299,66.157,59.058,66.157,57.542L66.157,52.029C66.157,50.513,64.916,49.273,63.4,49.273L55.131,49.273L55.131,41.003C55.131,39.487,53.89,38.246,52.374,38.246L46.861,38.246ZM46.861,38.246"/>
</g>
 </g>
</svg>
