<?xml version="1.0" encoding="UTF-8"?>
<!-- Generator: CustomSymbols v2.7.2.48 by @serious_bret https://bretlester.com/app_content/CustomSymbols/ -->
<!-- Guides: Left/Right 0.11/0.11 Cap/Base 0.222/0.222 -->
<!-- Settings: RefScale 1.0 Min/Max Stroke Scales 0.5/2.21 -->
<!DOCTYPE svg
PUBLIC "-//W3C//DTD SVG 1.1//EN"
       "http://www.w3.org/Graphics/SVG/1.1/DTD/svg11.dtd">
<svg version="1.1" xmlns="http://www.w3.org/2000/svg" xmlns:xlink="http://www.w3.org/1999/xlink" width="3300" height="2200">
<![CDATA[<?xml version="1.0" encoding="UTF-8"?>
<svg width="96px" height="96px" viewBox="0 0 96 96" version="1.1" xmlns="http://www.w3.org/2000/svg" xmlns:xlink="http://www.w3.org/1999/xlink">
    <title>icon/medical/toilet-paper</title>
    <g id="icon/medical/toilet-paper" stroke="none" stroke-width="1" fill="none" fill-rule="evenodd">
        <path d="M69.4356523,6 C61.8134035,14.0439188 59.6726869,26.5152363 59.6726869,37.13775 C59.6726869,62.8912641 55.2452956,77.195168 52.7477928,83.1794543 C51.1260377,87.071673 47.363566,89.034 43.7632698,89.034 L5.18171714,89.034 C3.31669883,89.034 1.58142093,88.0285102 0.673238097,86.4067523 C-0.234944731,84.7849945 -0.234944731,82.7902324 0.7381083,81.1846922 C2.32742825,78.3141809 3.23561108,74.9895773 4.06270615,71.8271496 C5.87907181,64.8373734 7.77652522,53.5985918 7.77652522,37.13775 C7.77652522,19.9471172 14.7500719,6 23.3453737,6 L69.4356523,6 Z M80.4311515,68.2755 C71.8358497,68.2755 64.862303,54.3283828 64.862303,37.13775 C64.862303,19.9471172 71.8358497,6 80.4311515,6 C89.0264533,6 96,19.9471172 96,37.13775 C96,54.3283828 89.0264533,68.2755 80.4311515,68.2755 Z M80.4311515,47.517 C83.301658,47.517 85.6207677,42.8625551 85.6207677,37.13775 C85.6207677,31.4129449 83.301658,26.7585 80.4311515,26.7585 C77.5606451,26.7585 75.2415353,31.4129449 75.2415353,37.13775 C75.2415353,42.8625551 77.5606451,47.517 80.4311515,47.517 Z M20.7505656,39.7325625 C20.7505656,38.3054156 19.582902,37.13775 18.1557575,37.13775 C16.7286131,37.13775 15.5609495,38.3054156 15.5609495,39.7325625 C15.5609495,41.1597094 16.7286131,42.327375 18.1557575,42.327375 C19.582902,42.327375 20.7505656,41.1597094 20.7505656,39.7325625 Z M31.129798,39.7325625 C31.129798,38.3054156 29.9621343,37.13775 28.5349899,37.13775 C27.1078454,37.13775 25.9401818,38.3054156 25.9401818,39.7325625 C25.9401818,41.1597094 27.1078454,42.327375 28.5349899,42.327375 C29.9621343,42.327375 31.129798,41.1597094 31.129798,39.7325625 Z M38.9142222,42.327375 C40.3413666,42.327375 41.5090303,41.1597094 41.5090303,39.7325625 C41.5090303,38.3054156 40.3413666,37.13775 38.9142222,37.13775 C37.4870778,37.13775 36.3194141,38.3054156 36.3194141,39.7325625 C36.3194141,41.1597094 37.4870778,42.327375 38.9142222,42.327375 Z M51.8882626,39.7325625 C51.8882626,38.3054156 50.720599,37.13775 49.2934545,37.13775 C47.8663101,37.13775 46.6986464,38.3054156 46.6986464,39.7325625 C46.6986464,41.1597094 47.8663101,42.327375 49.2934545,42.327375 C50.720599,42.327375 51.8882626,41.1597094 51.8882626,39.7325625 Z" id="Shape" fill="#FB4C6C" fill-rule="nonzero"></path>
    </g>
</svg>]]>
 <g id="Notes">
  <rect height="2200" id="artboard" style="fill:white;opacity:1" width="3300" x="0" y="0"/>
  <line id="" style="fill:none;stroke:black;opacity:1;stroke-width:0.5;" x1="263" x2="3036" y1="292" y2="292"/>
  <text id="reftext1" style="stroke:none;fill:black;font-family:-apple-system,&quot;SF Pro Display&quot;,&quot;SF Pro Text&quot;,Helvetica,sans-serif;font-weight:bold;" transform="matrix(1 0 0 1 263 322)">Weight/Scale Variations</text>
  <text id="reftext2" style="stroke:none;fill:black;font-family:-apple-system,&quot;SF Pro Display&quot;,&quot;SF Pro Text&quot;,Helvetica,sans-serif;text-anchor:middle;" transform="matrix(1 0 0 1 559.711 322)">Ultralight</text>
  <text style="stroke:none;fill:black;font-family:-apple-system,&quot;SF Pro Display&quot;,&quot;SF Pro Text&quot;,Helvetica,sans-serif;text-anchor:middle;" transform="matrix(1 0 0 1 856.422 322)">Thin</text>
  <text style="stroke:none;fill:black;font-family:-apple-system,&quot;SF Pro Display&quot;,&quot;SF Pro Text&quot;,Helvetica,sans-serif;text-anchor:middle;" transform="matrix(1 0 0 1 1153.13 322)">Light</text>
  <text style="stroke:none;fill:black;font-family:-apple-system,&quot;SF Pro Display&quot;,&quot;SF Pro Text&quot;,Helvetica,sans-serif;text-anchor:middle;" transform="matrix(1 0 0 1 1449.84 322)">Regular</text>
  <text style="stroke:none;fill:black;font-family:-apple-system,&quot;SF Pro Display&quot;,&quot;SF Pro Text&quot;,Helvetica,sans-serif;text-anchor:middle;" transform="matrix(1 0 0 1 1746.56 322)">Medium</text>
  <text style="stroke:none;fill:black;font-family:-apple-system,&quot;SF Pro Display&quot;,&quot;SF Pro Text&quot;,Helvetica,sans-serif;text-anchor:middle;" transform="matrix(1 0 0 1 2043.27 322)">Semibold</text>
  <text style="stroke:none;fill:black;font-family:-apple-system,&quot;SF Pro Display&quot;,&quot;SF Pro Text&quot;,Helvetica,sans-serif;text-anchor:middle;" transform="matrix(1 0 0 1 2339.98 322)">Bold</text>
  <text style="stroke:none;fill:black;font-family:-apple-system,&quot;SF Pro Display&quot;,&quot;SF Pro Text&quot;,Helvetica,sans-serif;text-anchor:middle;" transform="matrix(1 0 0 1 2636.69 322)">Heavy</text>
  <text style="stroke:none;fill:black;font-family:-apple-system,&quot;SF Pro Display&quot;,&quot;SF Pro Text&quot;,Helvetica,sans-serif;text-anchor:middle;" transform="matrix(1 0 0 1 2933.4 322)">Black</text>
  <line id="" style="fill:none;stroke:black;opacity:1;stroke-width:0.5;" x1="263" x2="3036" y1="1903" y2="1903"/>
  <g id="" transform="matrix(1 0 0 1 263 1933)">
   <path d="M9.24805 0.830078C13.5547 0.830078 17.1387-2.74414 17.1387-7.05078C17.1387-11.3574 13.5449-14.9316 9.23828-14.9316C4.94141-14.9316 1.36719-11.3574 1.36719-7.05078C1.36719-2.74414 4.95117 0.830078 9.24805 0.830078ZM9.24805-0.654297C5.70312-0.654297 2.87109-3.49609 2.87109-7.05078C2.87109-10.6055 5.69336-13.4473 9.23828-13.4473C12.793-13.4473 15.6348-10.6055 15.6445-7.05078C15.6543-3.49609 12.8027-0.654297 9.24805-0.654297ZM6.39648-6.31836L8.50586-6.31836L8.50586-4.19922C8.50586-3.75977 8.79883-3.45703 9.22852-3.45703C9.67773-3.45703 9.9707-3.75977 9.9707-4.19922L9.9707-6.31836L12.0996-6.31836C12.5391-6.31836 12.8418-6.61133 12.8418-7.04102C12.8418-7.48047 12.5391-7.7832 12.0996-7.7832L9.9707-7.7832L9.9707-9.89258C9.9707-10.3418 9.67773-10.6445 9.22852-10.6445C8.79883-10.6445 8.50586-10.3418 8.50586-9.89258L8.50586-7.7832L6.39648-7.7832C5.94727-7.7832 5.64453-7.48047 5.64453-7.04102C5.64453-6.61133 5.94727-6.31836 6.39648-6.31836Z"/>
  </g>
  <g id="" transform="matrix(1 0 0 1 281.506 1933)">
   <path d="M11.709 2.91016C17.1582 2.91016 21.6699-1.61133 21.6699-7.05078C21.6699-12.5 17.1484-17.0117 11.6992-17.0117C6.25977-17.0117 1.74805-12.5 1.74805-7.05078C1.74805-1.61133 6.26953 2.91016 11.709 2.91016ZM11.709 1.25C7.09961 1.25 3.41797-2.44141 3.41797-7.05078C3.41797-11.6602 7.08984-15.3516 11.6992-15.3516C16.3086-15.3516 20-11.6602 20.0098-7.05078C20.0195-2.44141 16.3184 1.25 11.709 1.25ZM7.98828-6.23047L10.8789-6.23047L10.8789-3.32031C10.8789-2.83203 11.2109-2.5 11.6895-2.5C12.1777-2.5 12.5195-2.83203 12.5195-3.32031L12.5195-6.23047L15.4297-6.23047C15.918-6.23047 16.25-6.5625 16.25-7.04102C16.25-7.5293 15.918-7.87109 15.4297-7.87109L12.5195-7.87109L12.5195-10.7617C12.5195-11.2695 12.1777-11.6016 11.6895-11.6016C11.2109-11.6016 10.8789-11.2598 10.8789-10.7617L10.8789-7.87109L7.98828-7.87109C7.48047-7.87109 7.14844-7.5293 7.14844-7.04102C7.14844-6.5625 7.49023-6.23047 7.98828-6.23047Z"/>
  </g>
  <g id="" transform="matrix(1 0 0 1 304.924 1933)">
   <path d="M14.9707 5.66406C21.9336 5.66406 27.6953-0.0976562 27.6953-7.05078C27.6953-14.0137 21.9238-19.7754 14.9609-19.7754C8.00781-19.7754 2.25586-14.0137 2.25586-7.05078C2.25586-0.0976562 8.01758 5.66406 14.9707 5.66406ZM14.9707 3.84766C8.93555 3.84766 4.08203-1.01562 4.08203-7.05078C4.08203-13.0957 8.92578-17.9492 14.9609-17.9492C21.0059-17.9492 25.8594-13.0957 25.8691-7.05078C25.8789-1.01562 21.0156 3.84766 14.9707 3.84766ZM10.0586-6.14258L14.0625-6.14258L14.0625-2.12891C14.0625-1.5918 14.4336-1.2207 14.9512-1.2207C15.4883-1.2207 15.8594-1.5918 15.8594-2.12891L15.8594-6.14258L19.8828-6.14258C20.4102-6.14258 20.791-6.51367 20.791-7.03125C20.791-7.56836 20.4199-7.94922 19.8828-7.94922L15.8594-7.94922L15.8594-11.9531C15.8594-12.5098 15.4883-12.8809 14.9512-12.8809C14.4336-12.8809 14.0625-12.5 14.0625-11.9531L14.0625-7.94922L10.0586-7.94922C9.50195-7.94922 9.13086-7.56836 9.13086-7.03125C9.13086-6.51367 9.51172-6.14258 10.0586-6.14258Z"/>
  </g>
  <text style="stroke:none;fill:black;font-family:-apple-system,&quot;SF Pro Display&quot;,&quot;SF Pro Text&quot;,Helvetica,sans-serif;font-weight:bold;" transform="matrix(1 0 0 1 263 1953)">Design Variations</text>
  <text style="stroke:none;fill:black;font-family:-apple-system,&quot;SF Pro Display&quot;,&quot;SF Pro Text&quot;,Helvetica,sans-serif;" transform="matrix(1 0 0 1 263 1971)">Symbols are supported in up to nine weights and three scales.</text>
  <text style="stroke:none;fill:black;font-family:-apple-system,&quot;SF Pro Display&quot;,&quot;SF Pro Text&quot;,Helvetica,sans-serif;" transform="matrix(1 0 0 1 263 1989)">For optimal layout with text and other symbols, vertically align</text>
  <text style="stroke:none;fill:black;font-family:-apple-system,&quot;SF Pro Display&quot;,&quot;SF Pro Text&quot;,Helvetica,sans-serif;" transform="matrix(1 0 0 1 263 2007)">symbols with the adjacent text.</text>
  <line id="" style="fill:none;stroke:#00AEEF;stroke-width:0.5;opacity:1.0;" x1="776" x2="776" y1="1919" y2="1933"/>
  <g id="" transform="matrix(1 0 0 1 776 1933)">
   <path d="M3.31055 0.126953C3.82812 0.126953 4.08203-0.0683594 4.26758-0.605469L5.52734-4.0625L11.2891-4.0625L12.5488-0.605469C12.7344-0.0683594 12.9883 0.126953 13.4961 0.126953C14.0137 0.126953 14.3457-0.185547 14.3457-0.673828C14.3457-0.839844 14.3164-0.986328 14.2383-1.20117L9.6582-13.3887C9.43359-13.9941 9.0332-14.2871 8.4082-14.2871C7.80273-14.2871 7.39258-13.9941 7.17773-13.3984L2.59766-1.19141C2.51953-0.976562 2.49023-0.830078 2.49023-0.664062C2.49023-0.175781 2.80273 0.126953 3.31055 0.126953ZM6.00586-5.53711L8.37891-12.1094L8.42773-12.1094L10.8008-5.53711Z"/>
  </g>
  <line id="" style="fill:none;stroke:#00AEEF;stroke-width:0.5;opacity:1.0;" x1="792.836" x2="792.836" y1="1919" y2="1933"/>
  <text style="stroke:none;fill:black;font-family:-apple-system,&quot;SF Pro Display&quot;,&quot;SF Pro Text&quot;,Helvetica,sans-serif;font-weight:bold;" transform="matrix(1 0 0 1 776 1953)">Margins</text>
  <text style="stroke:none;fill:black;font-family:-apple-system,&quot;SF Pro Display&quot;,&quot;SF Pro Text&quot;,Helvetica,sans-serif;" transform="matrix(1 0 0 1 776 1971)">Leading and trailing margins on the left and right side of each symbol</text>
  <text style="stroke:none;fill:black;font-family:-apple-system,&quot;SF Pro Display&quot;,&quot;SF Pro Text&quot;,Helvetica,sans-serif;" transform="matrix(1 0 0 1 776 1989)">can be adjusted by modifying the x-location of the margin guidelines.</text>
  <text style="stroke:none;fill:black;font-family:-apple-system,&quot;SF Pro Display&quot;,&quot;SF Pro Text&quot;,Helvetica,sans-serif;" transform="matrix(1 0 0 1 776 2007)">Modifications are automatically applied proportionally to all</text>
  <text style="stroke:none;fill:black;font-family:-apple-system,&quot;SF Pro Display&quot;,&quot;SF Pro Text&quot;,Helvetica,sans-serif;" transform="matrix(1 0 0 1 776 2025)">scales and weights.</text>
  <g id="" transform="matrix(1 0 0 1 1289 1933)">
   <path d="M2.8418 1.86523L4.54102 3.57422C5.40039 4.44336 6.38672 4.38477 7.31445 3.35938L17.4902-7.85156C17.7539-7.76367 18.0273-7.7832 18.3398-7.8418L19.4043-8.03711L20.0684-7.36328L20.0293-6.80664C19.9902-6.30859 20.1172-5.92773 20.6055-5.44922L21.3672-4.70703C21.8457-4.22852 22.4609-4.19922 22.9297-4.66797L25.8398-7.58789C26.3086-8.05664 26.2891-8.65234 25.8105-9.13086L25.0391-9.89258C24.5605-10.3711 24.1895-10.5273 23.7109-10.4883L23.1348-10.4395L22.4902-11.0742L22.7344-12.1973C22.8613-12.7637 22.7051-13.2031 22.1191-13.7891L19.9219-15.9766C16.582-19.2969 12.1484-19.2188 9.25781-16.3281C8.83789-15.918 8.80859-15.3418 9.04297-14.9512C9.27734-14.5898 9.73633-14.3555 10.3809-14.5215C11.8457-14.8633 13.3691-14.9219 14.7949-13.9844L14.209-12.5293C14.0137-12.0508 13.9844-11.6504 14.1113-11.2891L3.04688-0.898438C2.06055 0.0195312 1.98242 0.996094 2.8418 1.86523ZM10.752-15.957C13.1836-17.7344 16.4746-17.4316 18.7012-15.2051L21.1328-12.793C21.3672-12.5586 21.4062-12.373 21.3379-12.0312L21.0156-10.5469L22.5195-9.0625L23.5059-9.12109C23.7598-9.13086 23.8379-9.11133 24.0332-8.91602L24.6094-8.33984L22.168-5.89844L21.5918-6.47461C21.3965-6.66992 21.3672-6.74805 21.377-7.01172L21.4453-7.98828L19.9512-9.47266L18.4277-9.21875C18.1055-9.15039 17.959-9.17969 17.7148-9.41406L15.7129-11.416C15.459-11.6504 15.4297-11.8164 15.5859-12.1875L16.4648-14.2773C14.9023-15.7324 12.8711-16.3574 10.8398-15.7617C10.6836-15.7227 10.625-15.8496 10.752-15.957ZM5.27344 2.30469L4.10156 1.14258C3.63281 0.683594 3.74023 0.341797 4.14062-0.0195312L14.9512-10.1953L16.416-8.71094L6.42578 2.27539C6.07422 2.67578 5.74219 2.77344 5.27344 2.30469Z"/>
  </g>
  <text style="stroke:none;fill:black;font-family:-apple-system,&quot;SF Pro Display&quot;,&quot;SF Pro Text&quot;,Helvetica,sans-serif;font-weight:bold;" transform="matrix(1 0 0 1 1289 1953)">Exporting</text>
  <text style="stroke:none;fill:black;font-family:-apple-system,&quot;SF Pro Display&quot;,&quot;SF Pro Text&quot;,Helvetica,sans-serif;" transform="matrix(1 0 0 1 1289 1971)">Symbols should be outlined when exporting to ensure the</text>
  <text style="stroke:none;fill:black;font-family:-apple-system,&quot;SF Pro Display&quot;,&quot;SF Pro Text&quot;,Helvetica,sans-serif;" transform="matrix(1 0 0 1 1289 1989)">design is preserved when submitting to Xcode.</text>
  <text id="template-version" style="stroke:none;fill:black;font-family:-apple-system,&quot;SF Pro Display&quot;,&quot;SF Pro Text&quot;,Helvetica,sans-serif;text-anchor:end;" transform="matrix(1 0 0 1 3036 1933)">Template v.2.0</text>
  <text style="stroke:none;fill:black;font-family:-apple-system,&quot;SF Pro Display&quot;,&quot;SF Pro Text&quot;,Helvetica,sans-serif;text-anchor:end;" transform="matrix(1 0 0 1 3036 1951)">Requires Xcode 12 or greater</text>
  <text style="stroke:none;fill:black;font-family:-apple-system,&quot;SF Pro Display&quot;,&quot;SF Pro Text&quot;,Helvetica,sans-serif;" transform="matrix(1 0 0 1 263 726)">Small</text>
  <text style="stroke:none;fill:black;font-family:-apple-system,&quot;SF Pro Display&quot;,&quot;SF Pro Text&quot;,Helvetica,sans-serif;" transform="matrix(1 0 0 1 263 1156)">Medium</text>
  <text style="stroke:none;fill:black;font-family:-apple-system,&quot;SF Pro Display&quot;,&quot;SF Pro Text&quot;,Helvetica,sans-serif;" transform="matrix(1 0 0 1 263 1586)">Large</text>
 </g>
 <g id="Guides">
  <g id="H-reference" style="fill:#27AAE1;stroke:none;" transform="matrix(1 0 0 1 339 696)">
   <path d="M0.976562 0L3.66211 0L12.9883-24.4629L45.752-24.4629L55.127 0L57.7637 0L30.6152-70.459L28.125-70.459ZM29.3457-67.1387L29.4434-67.1387L44.873-26.709L13.8672-26.709Z"/>
  </g>
  <line id="Baseline-S" style="fill:none;stroke:#27AAE1;opacity:1;stroke-width:0.5;" x1="263" x2="3036" y1="696" y2="696"/>
  <line id="Capline-S" style="fill:none;stroke:#27AAE1;opacity:1;stroke-width:0.5;" x1="263" x2="3036" y1="625.541" y2="625.541"/>
  <g id="H-reference" style="fill:#27AAE1;stroke:none;" transform="matrix(1 0 0 1 339 1126)">
   <path d="M0.976562 0L3.66211 0L12.9883-24.4629L45.752-24.4629L55.127 0L57.7637 0L30.6152-70.459L28.125-70.459ZM29.3457-67.1387L29.4434-67.1387L44.873-26.709L13.8672-26.709Z"/>
  </g>
  <line id="Baseline-M" style="fill:none;stroke:#27AAE1;opacity:1;stroke-width:0.5;" x1="263" x2="3036" y1="1126" y2="1126"/>
  <line id="Capline-M" style="fill:none;stroke:#27AAE1;opacity:1;stroke-width:0.5;" x1="263" x2="3036" y1="1055.54" y2="1055.54"/>
  <g id="H-reference" style="fill:#27AAE1;stroke:none;" transform="matrix(1 0 0 1 339 1556)">
   <path d="M0.976562 0L3.66211 0L12.9883-24.4629L45.752-24.4629L55.127 0L57.7637 0L30.6152-70.459L28.125-70.459ZM29.3457-67.1387L29.4434-67.1387L44.873-26.709L13.8672-26.709Z"/>
  </g>
  <line id="Baseline-L" style="fill:none;stroke:#27AAE1;opacity:1;stroke-width:0.5;" x1="263" x2="3036" y1="1556" y2="1556"/>
  <line id="Capline-L" style="fill:none;stroke:#27AAE1;opacity:1;stroke-width:0.5;" x1="263" x2="3036" y1="1485.54" y2="1485.54"/>
  <line id="left-margin" x1="1401.7066461049908" x2="1401.7066461049908" y1="1030.79" y2="1150.12" style="fill:none;stroke:#00AEEF;stroke-width:0.5;opacity:1.0;"/>
  <line id="right-margin" x1="1500.553353895009" x2="1500.553353895009" y1="1030.79" y2="1150.12" style="fill:none;stroke:#00AEEF;stroke-width:0.5;opacity:1.0;"/>
 </g>
 <g id="Symbols">
  <g id="Black-L" transform="matrix(1.0,0.0,0.0,1.0,2852.941376250562,1439.031395781812)">  <path fill-opacity="1" stroke-width="1px" stroke-linecap="butt" stroke-miterlimit="4" xmlns:xlink="http://www.w3.org/1999/xlink" stroke-opacity="1" fill="#000000" stroke-linejoin="miter" stroke="none" version="1.1" fill-rule="nonzero" stroke-dasharray="none" d="M118.241,10.217C105.261,23.915,101.616,45.152,101.616,63.241C101.616,107.097,94.077,131.455,89.824,141.645C87.062,148.273,80.655,151.615,74.524,151.615L8.824,151.615C5.648,151.615,2.693,149.903,1.146,147.141C-0.4,144.379,-0.4,140.982,1.257,138.248C3.963,133.36,5.51,127.699,6.918,122.314C10.011,110.411,13.243,91.272,13.243,63.241C13.243,33.968,25.118,10.217,39.755,10.217L118.241,10.217ZM136.965,116.266C122.328,116.266,110.453,92.515,110.453,63.241C110.453,33.968,122.328,10.217,136.965,10.217C151.602,10.217,163.477,33.968,163.477,63.241C163.477,92.515,151.602,116.266,136.965,116.266ZM136.965,80.916C141.853,80.916,145.803,72.99,145.803,63.241C145.803,53.493,141.853,45.567,136.965,45.567C132.077,45.567,128.128,53.493,128.128,63.241C128.128,72.99,132.077,80.916,136.965,80.916ZM35.336,67.66C35.336,65.23,33.347,63.241,30.917,63.241C28.487,63.241,26.499,65.23,26.499,67.66C26.499,70.09,28.487,72.079,30.917,72.079C33.347,72.079,35.336,70.09,35.336,67.66ZM53.011,67.66C53.011,65.23,51.022,63.241,48.592,63.241C46.162,63.241,44.173,65.23,44.173,67.66C44.173,70.09,46.162,72.079,48.592,72.079C51.022,72.079,53.011,70.09,53.011,67.66ZM66.267,72.079C68.697,72.079,70.685,70.09,70.685,67.66C70.685,65.23,68.697,63.241,66.267,63.241C63.836,63.241,61.848,65.23,61.848,67.66C61.848,70.09,63.836,72.079,66.267,72.079ZM88.36,67.66C88.36,65.23,86.372,63.241,83.941,63.241C81.511,63.241,79.523,65.23,79.523,67.66C79.523,70.09,81.511,72.079,83.941,72.079C86.372,72.079,88.36,70.09,88.36,67.66ZM88.36,67.66"/>
</g>
  <g id="Heavy-L" transform="matrix(1.0,0.0,0.0,1.0,2556.231376250562,1439.031395781812)">  <path stroke-dasharray="none" stroke-linecap="butt" stroke-miterlimit="4" fill-opacity="1" stroke="none" xmlns:xlink="http://www.w3.org/1999/xlink" fill-rule="nonzero" stroke-linejoin="miter" stroke-opacity="1" fill="#000000" version="1.1" stroke-width="1px" d="M118.241,10.217C105.261,23.915,101.616,45.152,101.616,63.241C101.616,107.097,94.077,131.455,89.824,141.645C87.062,148.273,80.655,151.615,74.524,151.615L8.824,151.615C5.648,151.615,2.693,149.903,1.146,147.141C-0.4,144.379,-0.4,140.982,1.257,138.248C3.963,133.36,5.51,127.699,6.918,122.314C10.011,110.411,13.243,91.272,13.243,63.241C13.243,33.968,25.118,10.217,39.755,10.217L118.241,10.217ZM136.965,116.266C122.328,116.266,110.453,92.515,110.453,63.241C110.453,33.968,122.328,10.217,136.965,10.217C151.602,10.217,163.477,33.968,163.477,63.241C163.477,92.515,151.602,116.266,136.965,116.266ZM136.965,80.916C141.853,80.916,145.803,72.99,145.803,63.241C145.803,53.493,141.853,45.567,136.965,45.567C132.077,45.567,128.128,53.493,128.128,63.241C128.128,72.99,132.077,80.916,136.965,80.916ZM35.336,67.66C35.336,65.23,33.347,63.241,30.917,63.241C28.487,63.241,26.499,65.23,26.499,67.66C26.499,70.09,28.487,72.079,30.917,72.079C33.347,72.079,35.336,70.09,35.336,67.66ZM53.011,67.66C53.011,65.23,51.022,63.241,48.592,63.241C46.162,63.241,44.173,65.23,44.173,67.66C44.173,70.09,46.162,72.079,48.592,72.079C51.022,72.079,53.011,70.09,53.011,67.66ZM66.267,72.079C68.697,72.079,70.685,70.09,70.685,67.66C70.685,65.23,68.697,63.241,66.267,63.241C63.836,63.241,61.848,65.23,61.848,67.66C61.848,70.09,63.836,72.079,66.267,72.079ZM88.36,67.66C88.36,65.23,86.372,63.241,83.941,63.241C81.511,63.241,79.523,65.23,79.523,67.66C79.523,70.09,81.511,72.079,83.941,72.079C86.372,72.079,88.36,70.09,88.36,67.66ZM88.36,67.66"/>
</g>
  <g id="Bold-L" transform="matrix(1.0,0.0,0.0,1.0,2259.521376250562,1439.031395781812)">  <path stroke-linejoin="miter" stroke="none" stroke-miterlimit="4" xmlns:xlink="http://www.w3.org/1999/xlink" stroke-dasharray="none" version="1.1" fill-rule="nonzero" stroke-opacity="1" fill-opacity="1" stroke-width="1px" fill="#000000" stroke-linecap="butt" d="M118.241,10.217C105.261,23.915,101.616,45.152,101.616,63.241C101.616,107.097,94.077,131.455,89.824,141.645C87.062,148.273,80.655,151.615,74.524,151.615L8.824,151.615C5.648,151.615,2.693,149.903,1.146,147.141C-0.4,144.379,-0.4,140.982,1.257,138.248C3.963,133.36,5.51,127.699,6.918,122.314C10.011,110.411,13.243,91.272,13.243,63.241C13.243,33.968,25.118,10.217,39.755,10.217L118.241,10.217ZM136.965,116.266C122.328,116.266,110.453,92.515,110.453,63.241C110.453,33.968,122.328,10.217,136.965,10.217C151.602,10.217,163.477,33.968,163.477,63.241C163.477,92.515,151.602,116.266,136.965,116.266ZM136.965,80.916C141.853,80.916,145.803,72.99,145.803,63.241C145.803,53.493,141.853,45.567,136.965,45.567C132.077,45.567,128.128,53.493,128.128,63.241C128.128,72.99,132.077,80.916,136.965,80.916ZM35.336,67.66C35.336,65.23,33.347,63.241,30.917,63.241C28.487,63.241,26.499,65.23,26.499,67.66C26.499,70.09,28.487,72.079,30.917,72.079C33.347,72.079,35.336,70.09,35.336,67.66ZM53.011,67.66C53.011,65.23,51.022,63.241,48.592,63.241C46.162,63.241,44.173,65.23,44.173,67.66C44.173,70.09,46.162,72.079,48.592,72.079C51.022,72.079,53.011,70.09,53.011,67.66ZM66.267,72.079C68.697,72.079,70.685,70.09,70.685,67.66C70.685,65.23,68.697,63.241,66.267,63.241C63.836,63.241,61.848,65.23,61.848,67.66C61.848,70.09,63.836,72.079,66.267,72.079ZM88.36,67.66C88.36,65.23,86.372,63.241,83.941,63.241C81.511,63.241,79.523,65.23,79.523,67.66C79.523,70.09,81.511,72.079,83.941,72.079C86.372,72.079,88.36,70.09,88.36,67.66ZM88.36,67.66"/>
</g>
  <g id="Semibold-L" transform="matrix(1.0,0.0,0.0,1.0,1962.811376250562,1439.031395781812)">  <path fill-rule="nonzero" stroke="none" xmlns:xlink="http://www.w3.org/1999/xlink" stroke-miterlimit="4" stroke-opacity="1" fill="#000000" stroke-linejoin="miter" stroke-width="1px" fill-opacity="1" stroke-linecap="butt" stroke-dasharray="none" version="1.1" d="M118.241,10.217C105.261,23.915,101.616,45.152,101.616,63.241C101.616,107.097,94.077,131.455,89.824,141.645C87.062,148.273,80.655,151.615,74.524,151.615L8.824,151.615C5.648,151.615,2.693,149.903,1.146,147.141C-0.4,144.379,-0.4,140.982,1.257,138.248C3.963,133.36,5.51,127.699,6.918,122.314C10.011,110.411,13.243,91.272,13.243,63.241C13.243,33.968,25.118,10.217,39.755,10.217L118.241,10.217ZM136.965,116.266C122.328,116.266,110.453,92.515,110.453,63.241C110.453,33.968,122.328,10.217,136.965,10.217C151.602,10.217,163.477,33.968,163.477,63.241C163.477,92.515,151.602,116.266,136.965,116.266ZM136.965,80.916C141.853,80.916,145.803,72.99,145.803,63.241C145.803,53.493,141.853,45.567,136.965,45.567C132.077,45.567,128.128,53.493,128.128,63.241C128.128,72.99,132.077,80.916,136.965,80.916ZM35.336,67.66C35.336,65.23,33.347,63.241,30.917,63.241C28.487,63.241,26.499,65.23,26.499,67.66C26.499,70.09,28.487,72.079,30.917,72.079C33.347,72.079,35.336,70.09,35.336,67.66ZM53.011,67.66C53.011,65.23,51.022,63.241,48.592,63.241C46.162,63.241,44.173,65.23,44.173,67.66C44.173,70.09,46.162,72.079,48.592,72.079C51.022,72.079,53.011,70.09,53.011,67.66ZM66.267,72.079C68.697,72.079,70.685,70.09,70.685,67.66C70.685,65.23,68.697,63.241,66.267,63.241C63.836,63.241,61.848,65.23,61.848,67.66C61.848,70.09,63.836,72.079,66.267,72.079ZM88.36,67.66C88.36,65.23,86.372,63.241,83.941,63.241C81.511,63.241,79.523,65.23,79.523,67.66C79.523,70.09,81.511,72.079,83.941,72.079C86.372,72.079,88.36,70.09,88.36,67.66ZM88.36,67.66"/>
</g>
  <g id="Medium-L" transform="matrix(1.0,0.0,0.0,1.0,1666.101376250562,1439.031395781812)">  <path stroke-dasharray="none" stroke-opacity="1" stroke-linejoin="miter" stroke-miterlimit="4" fill-rule="nonzero" xmlns:xlink="http://www.w3.org/1999/xlink" stroke-width="1px" fill="#000000" fill-opacity="1" stroke="none" stroke-linecap="butt" version="1.1" d="M118.241,10.217C105.261,23.915,101.616,45.152,101.616,63.241C101.616,107.097,94.077,131.455,89.824,141.645C87.062,148.273,80.655,151.615,74.524,151.615L8.824,151.615C5.648,151.615,2.693,149.903,1.146,147.141C-0.4,144.379,-0.4,140.982,1.257,138.248C3.963,133.36,5.51,127.699,6.918,122.314C10.011,110.411,13.243,91.272,13.243,63.241C13.243,33.968,25.118,10.217,39.755,10.217L118.241,10.217ZM136.965,116.266C122.328,116.266,110.453,92.515,110.453,63.241C110.453,33.968,122.328,10.217,136.965,10.217C151.602,10.217,163.477,33.968,163.477,63.241C163.477,92.515,151.602,116.266,136.965,116.266ZM136.965,80.916C141.853,80.916,145.803,72.99,145.803,63.241C145.803,53.493,141.853,45.567,136.965,45.567C132.077,45.567,128.128,53.493,128.128,63.241C128.128,72.99,132.077,80.916,136.965,80.916ZM35.336,67.66C35.336,65.23,33.347,63.241,30.917,63.241C28.487,63.241,26.499,65.23,26.499,67.66C26.499,70.09,28.487,72.079,30.917,72.079C33.347,72.079,35.336,70.09,35.336,67.66ZM53.011,67.66C53.011,65.23,51.022,63.241,48.592,63.241C46.162,63.241,44.173,65.23,44.173,67.66C44.173,70.09,46.162,72.079,48.592,72.079C51.022,72.079,53.011,70.09,53.011,67.66ZM66.267,72.079C68.697,72.079,70.685,70.09,70.685,67.66C70.685,65.23,68.697,63.241,66.267,63.241C63.836,63.241,61.848,65.23,61.848,67.66C61.848,70.09,63.836,72.079,66.267,72.079ZM88.36,67.66C88.36,65.23,86.372,63.241,83.941,63.241C81.511,63.241,79.523,65.23,79.523,67.66C79.523,70.09,81.511,72.079,83.941,72.079C86.372,72.079,88.36,70.09,88.36,67.66ZM88.36,67.66"/>
</g>
  <g id="Regular-L" transform="matrix(1.0,0.0,0.0,1.0,1369.391376250562,1439.031395781812)">  <path stroke="none" fill-opacity="1" xmlns:xlink="http://www.w3.org/1999/xlink" stroke-miterlimit="4" fill-rule="nonzero" stroke-dasharray="none" version="1.1" stroke-width="1px" stroke-opacity="1" fill="#000000" stroke-linecap="butt" stroke-linejoin="miter" d="M118.241,10.217C105.261,23.915,101.616,45.152,101.616,63.241C101.616,107.097,94.077,131.455,89.824,141.645C87.062,148.273,80.655,151.615,74.524,151.615L8.824,151.615C5.648,151.615,2.693,149.903,1.146,147.141C-0.4,144.379,-0.4,140.982,1.257,138.248C3.963,133.36,5.51,127.699,6.918,122.314C10.011,110.411,13.243,91.272,13.243,63.241C13.243,33.968,25.118,10.217,39.755,10.217L118.241,10.217ZM136.965,116.266C122.328,116.266,110.453,92.515,110.453,63.241C110.453,33.968,122.328,10.217,136.965,10.217C151.602,10.217,163.477,33.968,163.477,63.241C163.477,92.515,151.602,116.266,136.965,116.266ZM136.965,80.916C141.853,80.916,145.803,72.99,145.803,63.241C145.803,53.493,141.853,45.567,136.965,45.567C132.077,45.567,128.128,53.493,128.128,63.241C128.128,72.99,132.077,80.916,136.965,80.916ZM35.336,67.66C35.336,65.23,33.347,63.241,30.917,63.241C28.487,63.241,26.499,65.23,26.499,67.66C26.499,70.09,28.487,72.079,30.917,72.079C33.347,72.079,35.336,70.09,35.336,67.66ZM53.011,67.66C53.011,65.23,51.022,63.241,48.592,63.241C46.162,63.241,44.173,65.23,44.173,67.66C44.173,70.09,46.162,72.079,48.592,72.079C51.022,72.079,53.011,70.09,53.011,67.66ZM66.267,72.079C68.697,72.079,70.685,70.09,70.685,67.66C70.685,65.23,68.697,63.241,66.267,63.241C63.836,63.241,61.848,65.23,61.848,67.66C61.848,70.09,63.836,72.079,66.267,72.079ZM88.36,67.66C88.36,65.23,86.372,63.241,83.941,63.241C81.511,63.241,79.523,65.23,79.523,67.66C79.523,70.09,81.511,72.079,83.941,72.079C86.372,72.079,88.36,70.09,88.36,67.66ZM88.36,67.66"/>
</g>
  <g id="Light-L" transform="matrix(1.0,0.0,0.0,1.0,1072.6813762505622,1439.031395781812)">  <path version="1.1" stroke-linejoin="miter" fill-opacity="1" stroke-width="1px" fill="#000000" fill-rule="nonzero" stroke-opacity="1" stroke-linecap="butt" xmlns:xlink="http://www.w3.org/1999/xlink" stroke="none" stroke-dasharray="none" stroke-miterlimit="4" d="M118.241,10.217C105.261,23.915,101.616,45.152,101.616,63.241C101.616,107.097,94.077,131.455,89.824,141.645C87.062,148.273,80.655,151.615,74.524,151.615L8.824,151.615C5.648,151.615,2.693,149.903,1.146,147.141C-0.4,144.379,-0.4,140.982,1.257,138.248C3.963,133.36,5.51,127.699,6.918,122.314C10.011,110.411,13.243,91.272,13.243,63.241C13.243,33.968,25.118,10.217,39.755,10.217L118.241,10.217ZM136.965,116.266C122.328,116.266,110.453,92.515,110.453,63.241C110.453,33.968,122.328,10.217,136.965,10.217C151.602,10.217,163.477,33.968,163.477,63.241C163.477,92.515,151.602,116.266,136.965,116.266ZM136.965,80.916C141.853,80.916,145.803,72.99,145.803,63.241C145.803,53.493,141.853,45.567,136.965,45.567C132.077,45.567,128.128,53.493,128.128,63.241C128.128,72.99,132.077,80.916,136.965,80.916ZM35.336,67.66C35.336,65.23,33.347,63.241,30.917,63.241C28.487,63.241,26.499,65.23,26.499,67.66C26.499,70.09,28.487,72.079,30.917,72.079C33.347,72.079,35.336,70.09,35.336,67.66ZM53.011,67.66C53.011,65.23,51.022,63.241,48.592,63.241C46.162,63.241,44.173,65.23,44.173,67.66C44.173,70.09,46.162,72.079,48.592,72.079C51.022,72.079,53.011,70.09,53.011,67.66ZM66.267,72.079C68.697,72.079,70.685,70.09,70.685,67.66C70.685,65.23,68.697,63.241,66.267,63.241C63.836,63.241,61.848,65.23,61.848,67.66C61.848,70.09,63.836,72.079,66.267,72.079ZM88.36,67.66C88.36,65.23,86.372,63.241,83.941,63.241C81.511,63.241,79.523,65.23,79.523,67.66C79.523,70.09,81.511,72.079,83.941,72.079C86.372,72.079,88.36,70.09,88.36,67.66ZM88.36,67.66"/>
</g>
  <g id="Thin-L" transform="matrix(1.0,0.0,0.0,1.0,775.9713762505621,1439.031395781812)">  <path stroke-linejoin="miter" version="1.1" stroke-opacity="1" fill-rule="nonzero" stroke="none" fill-opacity="1" xmlns:xlink="http://www.w3.org/1999/xlink" stroke-width="1px" stroke-linecap="butt" fill="#000000" stroke-dasharray="none" stroke-miterlimit="4" d="M118.241,10.217C105.261,23.915,101.616,45.152,101.616,63.241C101.616,107.097,94.077,131.455,89.824,141.645C87.062,148.273,80.655,151.615,74.524,151.615L8.824,151.615C5.648,151.615,2.693,149.903,1.146,147.141C-0.4,144.379,-0.4,140.982,1.257,138.248C3.963,133.36,5.51,127.699,6.918,122.314C10.011,110.411,13.243,91.272,13.243,63.241C13.243,33.968,25.118,10.217,39.755,10.217L118.241,10.217ZM136.965,116.266C122.328,116.266,110.453,92.515,110.453,63.241C110.453,33.968,122.328,10.217,136.965,10.217C151.602,10.217,163.477,33.968,163.477,63.241C163.477,92.515,151.602,116.266,136.965,116.266ZM136.965,80.916C141.853,80.916,145.803,72.99,145.803,63.241C145.803,53.493,141.853,45.567,136.965,45.567C132.077,45.567,128.128,53.493,128.128,63.241C128.128,72.99,132.077,80.916,136.965,80.916ZM35.336,67.66C35.336,65.23,33.347,63.241,30.917,63.241C28.487,63.241,26.499,65.23,26.499,67.66C26.499,70.09,28.487,72.079,30.917,72.079C33.347,72.079,35.336,70.09,35.336,67.66ZM53.011,67.66C53.011,65.23,51.022,63.241,48.592,63.241C46.162,63.241,44.173,65.23,44.173,67.66C44.173,70.09,46.162,72.079,48.592,72.079C51.022,72.079,53.011,70.09,53.011,67.66ZM66.267,72.079C68.697,72.079,70.685,70.09,70.685,67.66C70.685,65.23,68.697,63.241,66.267,63.241C63.836,63.241,61.848,65.23,61.848,67.66C61.848,70.09,63.836,72.079,66.267,72.079ZM88.36,67.66C88.36,65.23,86.372,63.241,83.941,63.241C81.511,63.241,79.523,65.23,79.523,67.66C79.523,70.09,81.511,72.079,83.941,72.079C86.372,72.079,88.36,70.09,88.36,67.66ZM88.36,67.66"/>
</g>
  <g id="Ultralight-L" transform="matrix(1.0,0.0,0.0,1.0,479.2613762505621,1439.031395781812)">  <path xmlns:xlink="http://www.w3.org/1999/xlink" stroke-linecap="butt" fill="#000000" version="1.1" fill-rule="nonzero" stroke="none" stroke-dasharray="none" fill-opacity="1" stroke-miterlimit="4" stroke-width="1px" stroke-linejoin="miter" stroke-opacity="1" d="M118.241,10.217C105.261,23.915,101.616,45.152,101.616,63.241C101.616,107.097,94.077,131.455,89.824,141.645C87.062,148.273,80.655,151.615,74.524,151.615L8.824,151.615C5.648,151.615,2.693,149.903,1.146,147.141C-0.4,144.379,-0.4,140.982,1.257,138.248C3.963,133.36,5.51,127.699,6.918,122.314C10.011,110.411,13.243,91.272,13.243,63.241C13.243,33.968,25.118,10.217,39.755,10.217L118.241,10.217ZM136.965,116.266C122.328,116.266,110.453,92.515,110.453,63.241C110.453,33.968,122.328,10.217,136.965,10.217C151.602,10.217,163.477,33.968,163.477,63.241C163.477,92.515,151.602,116.266,136.965,116.266ZM136.965,80.916C141.853,80.916,145.803,72.99,145.803,63.241C145.803,53.493,141.853,45.567,136.965,45.567C132.077,45.567,128.128,53.493,128.128,63.241C128.128,72.99,132.077,80.916,136.965,80.916ZM35.336,67.66C35.336,65.23,33.347,63.241,30.917,63.241C28.487,63.241,26.499,65.23,26.499,67.66C26.499,70.09,28.487,72.079,30.917,72.079C33.347,72.079,35.336,70.09,35.336,67.66ZM53.011,67.66C53.011,65.23,51.022,63.241,48.592,63.241C46.162,63.241,44.173,65.23,44.173,67.66C44.173,70.09,46.162,72.079,48.592,72.079C51.022,72.079,53.011,70.09,53.011,67.66ZM66.267,72.079C68.697,72.079,70.685,70.09,70.685,67.66C70.685,65.23,68.697,63.241,66.267,63.241C63.836,63.241,61.848,65.23,61.848,67.66C61.848,70.09,63.836,72.079,66.267,72.079ZM88.36,67.66C88.36,65.23,86.372,63.241,83.941,63.241C81.511,63.241,79.523,65.23,79.523,67.66C79.523,70.09,81.511,72.079,83.941,72.079C86.372,72.079,88.36,70.09,88.36,67.66ZM88.36,67.66"/>
</g>
  <g id="Black-M" transform="matrix(1.0,0.0,0.0,1.0,2871.3167257756295,1027.4067453068794)">  <path fill-opacity="1" stroke-width="1px" stroke-linecap="butt" stroke-miterlimit="4" xmlns:xlink="http://www.w3.org/1999/xlink" stroke-opacity="1" fill="#000000" stroke-linejoin="miter" stroke="none" version="1.1" fill-rule="nonzero" stroke-dasharray="none" d="M91.66,7.92C81.598,18.539,78.772,35.002,78.772,49.024C78.772,83.021,72.928,101.903,69.631,109.803C67.49,114.941,62.523,117.531,57.771,117.531L6.84,117.531C4.378,117.531,2.088,116.204,0.889,114.063C-0.31,111.922,-0.31,109.289,0.974,107.169C3.072,103.38,4.271,98.991,5.363,94.817C7.761,85.59,10.266,70.754,10.266,49.024C10.266,26.332,19.471,7.92,30.817,7.92L91.66,7.92ZM106.175,90.128C94.828,90.128,85.623,71.717,85.623,49.024C85.623,26.332,94.828,7.92,106.175,7.92C117.521,7.92,126.727,26.332,126.727,49.024C126.727,71.717,117.521,90.128,106.175,90.128ZM106.175,62.726C109.964,62.726,113.025,56.581,113.025,49.024C113.025,41.467,109.964,35.323,106.175,35.323C102.385,35.323,99.324,41.467,99.324,49.024C99.324,56.581,102.385,62.726,106.175,62.726ZM27.392,52.45C27.392,50.566,25.851,49.024,23.967,49.024C22.083,49.024,20.542,50.566,20.542,52.45C20.542,54.334,22.083,55.875,23.967,55.875C25.851,55.875,27.392,54.334,27.392,52.45ZM41.093,52.45C41.093,50.566,39.552,49.024,37.668,49.024C35.784,49.024,34.243,50.566,34.243,52.45C34.243,54.334,35.784,55.875,37.668,55.875C39.552,55.875,41.093,54.334,41.093,52.45ZM51.369,55.875C53.253,55.875,54.795,54.334,54.795,52.45C54.795,50.566,53.253,49.024,51.369,49.024C49.486,49.024,47.944,50.566,47.944,52.45C47.944,54.334,49.486,55.875,51.369,55.875ZM68.496,52.45C68.496,50.566,66.955,49.024,65.071,49.024C63.187,49.024,61.645,50.566,61.645,52.45C61.645,54.334,63.187,55.875,65.071,55.875C66.955,55.875,68.496,54.334,68.496,52.45ZM68.496,52.45"/>
</g>
  <g id="Heavy-M" transform="matrix(1.0,0.0,0.0,1.0,2574.6067257756295,1027.4067453068794)">  <path stroke-dasharray="none" stroke-linecap="butt" stroke-miterlimit="4" fill-opacity="1" stroke="none" xmlns:xlink="http://www.w3.org/1999/xlink" fill-rule="nonzero" stroke-linejoin="miter" stroke-opacity="1" fill="#000000" version="1.1" stroke-width="1px" d="M91.66,7.92C81.598,18.539,78.772,35.002,78.772,49.024C78.772,83.021,72.928,101.903,69.631,109.803C67.49,114.941,62.523,117.531,57.771,117.531L6.84,117.531C4.378,117.531,2.088,116.204,0.889,114.063C-0.31,111.922,-0.31,109.289,0.974,107.169C3.072,103.38,4.271,98.991,5.363,94.817C7.761,85.59,10.266,70.754,10.266,49.024C10.266,26.332,19.471,7.92,30.817,7.92L91.66,7.92ZM106.175,90.128C94.828,90.128,85.623,71.717,85.623,49.024C85.623,26.332,94.828,7.92,106.175,7.92C117.521,7.92,126.727,26.332,126.727,49.024C126.727,71.717,117.521,90.128,106.175,90.128ZM106.175,62.726C109.964,62.726,113.025,56.581,113.025,49.024C113.025,41.467,109.964,35.323,106.175,35.323C102.385,35.323,99.324,41.467,99.324,49.024C99.324,56.581,102.385,62.726,106.175,62.726ZM27.392,52.45C27.392,50.566,25.851,49.024,23.967,49.024C22.083,49.024,20.542,50.566,20.542,52.45C20.542,54.334,22.083,55.875,23.967,55.875C25.851,55.875,27.392,54.334,27.392,52.45ZM41.093,52.45C41.093,50.566,39.552,49.024,37.668,49.024C35.784,49.024,34.243,50.566,34.243,52.45C34.243,54.334,35.784,55.875,37.668,55.875C39.552,55.875,41.093,54.334,41.093,52.45ZM51.369,55.875C53.253,55.875,54.795,54.334,54.795,52.45C54.795,50.566,53.253,49.024,51.369,49.024C49.486,49.024,47.944,50.566,47.944,52.45C47.944,54.334,49.486,55.875,51.369,55.875ZM68.496,52.45C68.496,50.566,66.955,49.024,65.071,49.024C63.187,49.024,61.645,50.566,61.645,52.45C61.645,54.334,63.187,55.875,65.071,55.875C66.955,55.875,68.496,54.334,68.496,52.45ZM68.496,52.45"/>
</g>
  <g id="Bold-M" transform="matrix(1.0,0.0,0.0,1.0,2277.8967257756294,1027.4067453068794)">  <path stroke-linejoin="miter" stroke="none" stroke-miterlimit="4" xmlns:xlink="http://www.w3.org/1999/xlink" stroke-dasharray="none" version="1.1" fill-rule="nonzero" stroke-opacity="1" fill-opacity="1" stroke-width="1px" fill="#000000" stroke-linecap="butt" d="M91.66,7.92C81.598,18.539,78.772,35.002,78.772,49.024C78.772,83.021,72.928,101.903,69.631,109.803C67.49,114.941,62.523,117.531,57.771,117.531L6.84,117.531C4.378,117.531,2.088,116.204,0.889,114.063C-0.31,111.922,-0.31,109.289,0.974,107.169C3.072,103.38,4.271,98.991,5.363,94.817C7.761,85.59,10.266,70.754,10.266,49.024C10.266,26.332,19.471,7.92,30.817,7.92L91.66,7.92ZM106.175,90.128C94.828,90.128,85.623,71.717,85.623,49.024C85.623,26.332,94.828,7.92,106.175,7.92C117.521,7.92,126.727,26.332,126.727,49.024C126.727,71.717,117.521,90.128,106.175,90.128ZM106.175,62.726C109.964,62.726,113.025,56.581,113.025,49.024C113.025,41.467,109.964,35.323,106.175,35.323C102.385,35.323,99.324,41.467,99.324,49.024C99.324,56.581,102.385,62.726,106.175,62.726ZM27.392,52.45C27.392,50.566,25.851,49.024,23.967,49.024C22.083,49.024,20.542,50.566,20.542,52.45C20.542,54.334,22.083,55.875,23.967,55.875C25.851,55.875,27.392,54.334,27.392,52.45ZM41.093,52.45C41.093,50.566,39.552,49.024,37.668,49.024C35.784,49.024,34.243,50.566,34.243,52.45C34.243,54.334,35.784,55.875,37.668,55.875C39.552,55.875,41.093,54.334,41.093,52.45ZM51.369,55.875C53.253,55.875,54.795,54.334,54.795,52.45C54.795,50.566,53.253,49.024,51.369,49.024C49.486,49.024,47.944,50.566,47.944,52.45C47.944,54.334,49.486,55.875,51.369,55.875ZM68.496,52.45C68.496,50.566,66.955,49.024,65.071,49.024C63.187,49.024,61.645,50.566,61.645,52.45C61.645,54.334,63.187,55.875,65.071,55.875C66.955,55.875,68.496,54.334,68.496,52.45ZM68.496,52.45"/>
</g>
  <g id="Semibold-M" transform="matrix(1.0,0.0,0.0,1.0,1981.1867257756294,1027.4067453068794)">  <path fill-rule="nonzero" stroke="none" xmlns:xlink="http://www.w3.org/1999/xlink" stroke-miterlimit="4" stroke-opacity="1" fill="#000000" stroke-linejoin="miter" stroke-width="1px" fill-opacity="1" stroke-linecap="butt" stroke-dasharray="none" version="1.1" d="M91.66,7.92C81.598,18.539,78.772,35.002,78.772,49.024C78.772,83.021,72.928,101.903,69.631,109.803C67.49,114.941,62.523,117.531,57.771,117.531L6.84,117.531C4.378,117.531,2.088,116.204,0.889,114.063C-0.31,111.922,-0.31,109.289,0.974,107.169C3.072,103.38,4.271,98.991,5.363,94.817C7.761,85.59,10.266,70.754,10.266,49.024C10.266,26.332,19.471,7.92,30.817,7.92L91.66,7.92ZM106.175,90.128C94.828,90.128,85.623,71.717,85.623,49.024C85.623,26.332,94.828,7.92,106.175,7.92C117.521,7.92,126.727,26.332,126.727,49.024C126.727,71.717,117.521,90.128,106.175,90.128ZM106.175,62.726C109.964,62.726,113.025,56.581,113.025,49.024C113.025,41.467,109.964,35.323,106.175,35.323C102.385,35.323,99.324,41.467,99.324,49.024C99.324,56.581,102.385,62.726,106.175,62.726ZM27.392,52.45C27.392,50.566,25.851,49.024,23.967,49.024C22.083,49.024,20.542,50.566,20.542,52.45C20.542,54.334,22.083,55.875,23.967,55.875C25.851,55.875,27.392,54.334,27.392,52.45ZM41.093,52.45C41.093,50.566,39.552,49.024,37.668,49.024C35.784,49.024,34.243,50.566,34.243,52.45C34.243,54.334,35.784,55.875,37.668,55.875C39.552,55.875,41.093,54.334,41.093,52.45ZM51.369,55.875C53.253,55.875,54.795,54.334,54.795,52.45C54.795,50.566,53.253,49.024,51.369,49.024C49.486,49.024,47.944,50.566,47.944,52.45C47.944,54.334,49.486,55.875,51.369,55.875ZM68.496,52.45C68.496,50.566,66.955,49.024,65.071,49.024C63.187,49.024,61.645,50.566,61.645,52.45C61.645,54.334,63.187,55.875,65.071,55.875C66.955,55.875,68.496,54.334,68.496,52.45ZM68.496,52.45"/>
</g>
  <g id="Medium-M" transform="matrix(1.0,0.0,0.0,1.0,1684.4767257756293,1027.4067453068794)">  <path stroke-dasharray="none" stroke-opacity="1" stroke-linejoin="miter" stroke-miterlimit="4" fill-rule="nonzero" xmlns:xlink="http://www.w3.org/1999/xlink" stroke-width="1px" fill="#000000" fill-opacity="1" stroke="none" stroke-linecap="butt" version="1.1" d="M91.66,7.92C81.598,18.539,78.772,35.002,78.772,49.024C78.772,83.021,72.928,101.903,69.631,109.803C67.49,114.941,62.523,117.531,57.771,117.531L6.84,117.531C4.378,117.531,2.088,116.204,0.889,114.063C-0.31,111.922,-0.31,109.289,0.974,107.169C3.072,103.38,4.271,98.991,5.363,94.817C7.761,85.59,10.266,70.754,10.266,49.024C10.266,26.332,19.471,7.92,30.817,7.92L91.66,7.92ZM106.175,90.128C94.828,90.128,85.623,71.717,85.623,49.024C85.623,26.332,94.828,7.92,106.175,7.92C117.521,7.92,126.727,26.332,126.727,49.024C126.727,71.717,117.521,90.128,106.175,90.128ZM106.175,62.726C109.964,62.726,113.025,56.581,113.025,49.024C113.025,41.467,109.964,35.323,106.175,35.323C102.385,35.323,99.324,41.467,99.324,49.024C99.324,56.581,102.385,62.726,106.175,62.726ZM27.392,52.45C27.392,50.566,25.851,49.024,23.967,49.024C22.083,49.024,20.542,50.566,20.542,52.45C20.542,54.334,22.083,55.875,23.967,55.875C25.851,55.875,27.392,54.334,27.392,52.45ZM41.093,52.45C41.093,50.566,39.552,49.024,37.668,49.024C35.784,49.024,34.243,50.566,34.243,52.45C34.243,54.334,35.784,55.875,37.668,55.875C39.552,55.875,41.093,54.334,41.093,52.45ZM51.369,55.875C53.253,55.875,54.795,54.334,54.795,52.45C54.795,50.566,53.253,49.024,51.369,49.024C49.486,49.024,47.944,50.566,47.944,52.45C47.944,54.334,49.486,55.875,51.369,55.875ZM68.496,52.45C68.496,50.566,66.955,49.024,65.071,49.024C63.187,49.024,61.645,50.566,61.645,52.45C61.645,54.334,63.187,55.875,65.071,55.875C66.955,55.875,68.496,54.334,68.496,52.45ZM68.496,52.45"/>
</g>
  <g id="Regular-M" transform="matrix(1.0,0.0,0.0,1.0,1387.7667257756293,1027.4067453068794)">  <path stroke="none" fill-opacity="1" xmlns:xlink="http://www.w3.org/1999/xlink" stroke-miterlimit="4" fill-rule="nonzero" stroke-dasharray="none" version="1.1" stroke-width="1px" stroke-opacity="1" fill="#000000" stroke-linecap="butt" stroke-linejoin="miter" d="M91.66,7.92C81.598,18.539,78.772,35.002,78.772,49.024C78.772,83.021,72.928,101.903,69.631,109.803C67.49,114.941,62.523,117.531,57.771,117.531L6.84,117.531C4.378,117.531,2.088,116.204,0.889,114.063C-0.31,111.922,-0.31,109.289,0.974,107.169C3.072,103.38,4.271,98.991,5.363,94.817C7.761,85.59,10.266,70.754,10.266,49.024C10.266,26.332,19.471,7.92,30.817,7.92L91.66,7.92ZM106.175,90.128C94.828,90.128,85.623,71.717,85.623,49.024C85.623,26.332,94.828,7.92,106.175,7.92C117.521,7.92,126.727,26.332,126.727,49.024C126.727,71.717,117.521,90.128,106.175,90.128ZM106.175,62.726C109.964,62.726,113.025,56.581,113.025,49.024C113.025,41.467,109.964,35.323,106.175,35.323C102.385,35.323,99.324,41.467,99.324,49.024C99.324,56.581,102.385,62.726,106.175,62.726ZM27.392,52.45C27.392,50.566,25.851,49.024,23.967,49.024C22.083,49.024,20.542,50.566,20.542,52.45C20.542,54.334,22.083,55.875,23.967,55.875C25.851,55.875,27.392,54.334,27.392,52.45ZM41.093,52.45C41.093,50.566,39.552,49.024,37.668,49.024C35.784,49.024,34.243,50.566,34.243,52.45C34.243,54.334,35.784,55.875,37.668,55.875C39.552,55.875,41.093,54.334,41.093,52.45ZM51.369,55.875C53.253,55.875,54.795,54.334,54.795,52.45C54.795,50.566,53.253,49.024,51.369,49.024C49.486,49.024,47.944,50.566,47.944,52.45C47.944,54.334,49.486,55.875,51.369,55.875ZM68.496,52.45C68.496,50.566,66.955,49.024,65.071,49.024C63.187,49.024,61.645,50.566,61.645,52.45C61.645,54.334,63.187,55.875,65.071,55.875C66.955,55.875,68.496,54.334,68.496,52.45ZM68.496,52.45"/>
</g>
  <g id="Light-M" transform="matrix(1.0,0.0,0.0,1.0,1091.0567257756295,1027.4067453068794)">  <path version="1.1" stroke-linejoin="miter" fill-opacity="1" stroke-width="1px" fill="#000000" fill-rule="nonzero" stroke-opacity="1" stroke-linecap="butt" xmlns:xlink="http://www.w3.org/1999/xlink" stroke="none" stroke-dasharray="none" stroke-miterlimit="4" d="M91.66,7.92C81.598,18.539,78.772,35.002,78.772,49.024C78.772,83.021,72.928,101.903,69.631,109.803C67.49,114.941,62.523,117.531,57.771,117.531L6.84,117.531C4.378,117.531,2.088,116.204,0.889,114.063C-0.31,111.922,-0.31,109.289,0.974,107.169C3.072,103.38,4.271,98.991,5.363,94.817C7.761,85.59,10.266,70.754,10.266,49.024C10.266,26.332,19.471,7.92,30.817,7.92L91.66,7.92ZM106.175,90.128C94.828,90.128,85.623,71.717,85.623,49.024C85.623,26.332,94.828,7.92,106.175,7.92C117.521,7.92,126.727,26.332,126.727,49.024C126.727,71.717,117.521,90.128,106.175,90.128ZM106.175,62.726C109.964,62.726,113.025,56.581,113.025,49.024C113.025,41.467,109.964,35.323,106.175,35.323C102.385,35.323,99.324,41.467,99.324,49.024C99.324,56.581,102.385,62.726,106.175,62.726ZM27.392,52.45C27.392,50.566,25.851,49.024,23.967,49.024C22.083,49.024,20.542,50.566,20.542,52.45C20.542,54.334,22.083,55.875,23.967,55.875C25.851,55.875,27.392,54.334,27.392,52.45ZM41.093,52.45C41.093,50.566,39.552,49.024,37.668,49.024C35.784,49.024,34.243,50.566,34.243,52.45C34.243,54.334,35.784,55.875,37.668,55.875C39.552,55.875,41.093,54.334,41.093,52.45ZM51.369,55.875C53.253,55.875,54.795,54.334,54.795,52.45C54.795,50.566,53.253,49.024,51.369,49.024C49.486,49.024,47.944,50.566,47.944,52.45C47.944,54.334,49.486,55.875,51.369,55.875ZM68.496,52.45C68.496,50.566,66.955,49.024,65.071,49.024C63.187,49.024,61.645,50.566,61.645,52.45C61.645,54.334,63.187,55.875,65.071,55.875C66.955,55.875,68.496,54.334,68.496,52.45ZM68.496,52.45"/>
</g>
  <g id="Thin-M" transform="matrix(1.0,0.0,0.0,1.0,794.3467257756296,1027.4067453068794)">  <path stroke-linejoin="miter" version="1.1" stroke-opacity="1" fill-rule="nonzero" stroke="none" fill-opacity="1" xmlns:xlink="http://www.w3.org/1999/xlink" stroke-width="1px" stroke-linecap="butt" fill="#000000" stroke-dasharray="none" stroke-miterlimit="4" d="M91.66,7.92C81.598,18.539,78.772,35.002,78.772,49.024C78.772,83.021,72.928,101.903,69.631,109.803C67.49,114.941,62.523,117.531,57.771,117.531L6.84,117.531C4.378,117.531,2.088,116.204,0.889,114.063C-0.31,111.922,-0.31,109.289,0.974,107.169C3.072,103.38,4.271,98.991,5.363,94.817C7.761,85.59,10.266,70.754,10.266,49.024C10.266,26.332,19.471,7.92,30.817,7.92L91.66,7.92ZM106.175,90.128C94.828,90.128,85.623,71.717,85.623,49.024C85.623,26.332,94.828,7.92,106.175,7.92C117.521,7.92,126.727,26.332,126.727,49.024C126.727,71.717,117.521,90.128,106.175,90.128ZM106.175,62.726C109.964,62.726,113.025,56.581,113.025,49.024C113.025,41.467,109.964,35.323,106.175,35.323C102.385,35.323,99.324,41.467,99.324,49.024C99.324,56.581,102.385,62.726,106.175,62.726ZM27.392,52.45C27.392,50.566,25.851,49.024,23.967,49.024C22.083,49.024,20.542,50.566,20.542,52.45C20.542,54.334,22.083,55.875,23.967,55.875C25.851,55.875,27.392,54.334,27.392,52.45ZM41.093,52.45C41.093,50.566,39.552,49.024,37.668,49.024C35.784,49.024,34.243,50.566,34.243,52.45C34.243,54.334,35.784,55.875,37.668,55.875C39.552,55.875,41.093,54.334,41.093,52.45ZM51.369,55.875C53.253,55.875,54.795,54.334,54.795,52.45C54.795,50.566,53.253,49.024,51.369,49.024C49.486,49.024,47.944,50.566,47.944,52.45C47.944,54.334,49.486,55.875,51.369,55.875ZM68.496,52.45C68.496,50.566,66.955,49.024,65.071,49.024C63.187,49.024,61.645,50.566,61.645,52.45C61.645,54.334,63.187,55.875,65.071,55.875C66.955,55.875,68.496,54.334,68.496,52.45ZM68.496,52.45"/>
</g>
  <g id="Ultralight-M" transform="matrix(1.0,0.0,0.0,1.0,497.6367257756295,1027.4067453068794)">  <path xmlns:xlink="http://www.w3.org/1999/xlink" stroke-linecap="butt" fill="#000000" version="1.1" fill-rule="nonzero" stroke="none" stroke-dasharray="none" fill-opacity="1" stroke-miterlimit="4" stroke-width="1px" stroke-linejoin="miter" stroke-opacity="1" d="M91.66,7.92C81.598,18.539,78.772,35.002,78.772,49.024C78.772,83.021,72.928,101.903,69.631,109.803C67.49,114.941,62.523,117.531,57.771,117.531L6.84,117.531C4.378,117.531,2.088,116.204,0.889,114.063C-0.31,111.922,-0.31,109.289,0.974,107.169C3.072,103.38,4.271,98.991,5.363,94.817C7.761,85.59,10.266,70.754,10.266,49.024C10.266,26.332,19.471,7.92,30.817,7.92L91.66,7.92ZM106.175,90.128C94.828,90.128,85.623,71.717,85.623,49.024C85.623,26.332,94.828,7.92,106.175,7.92C117.521,7.92,126.727,26.332,126.727,49.024C126.727,71.717,117.521,90.128,106.175,90.128ZM106.175,62.726C109.964,62.726,113.025,56.581,113.025,49.024C113.025,41.467,109.964,35.323,106.175,35.323C102.385,35.323,99.324,41.467,99.324,49.024C99.324,56.581,102.385,62.726,106.175,62.726ZM27.392,52.45C27.392,50.566,25.851,49.024,23.967,49.024C22.083,49.024,20.542,50.566,20.542,52.45C20.542,54.334,22.083,55.875,23.967,55.875C25.851,55.875,27.392,54.334,27.392,52.45ZM41.093,52.45C41.093,50.566,39.552,49.024,37.668,49.024C35.784,49.024,34.243,50.566,34.243,52.45C34.243,54.334,35.784,55.875,37.668,55.875C39.552,55.875,41.093,54.334,41.093,52.45ZM51.369,55.875C53.253,55.875,54.795,54.334,54.795,52.45C54.795,50.566,53.253,49.024,51.369,49.024C49.486,49.024,47.944,50.566,47.944,52.45C47.944,54.334,49.486,55.875,51.369,55.875ZM68.496,52.45C68.496,50.566,66.955,49.024,65.071,49.024C63.187,49.024,61.645,50.566,61.645,52.45C61.645,54.334,63.187,55.875,65.071,55.875C66.955,55.875,68.496,54.334,68.496,52.45ZM68.496,52.45"/>
</g>
  <g id="Black-S" transform="matrix(1.0,0.0,0.0,1.0,2885.066556282318,611.1565758135679)">  <path fill-opacity="1" stroke-width="1px" stroke-linecap="butt" stroke-miterlimit="4" xmlns:xlink="http://www.w3.org/1999/xlink" stroke-opacity="1" fill="#000000" stroke-linejoin="miter" stroke="none" version="1.1" fill-rule="nonzero" stroke-dasharray="none" d="M71.77,6.202C63.891,14.516,61.678,27.407,61.678,38.386C61.678,65.005,57.102,79.79,54.521,85.975C52.845,89.998,48.956,92.027,45.234,92.027L5.356,92.027C3.428,92.027,1.635,90.987,0.696,89.311C-0.243,87.635,-0.243,85.573,0.763,83.914C2.406,80.947,3.344,77.51,4.199,74.242C6.077,67.017,8.038,55.4,8.038,38.386C8.038,20.618,15.246,6.202,24.13,6.202L71.77,6.202ZM83.135,70.57C74.25,70.57,67.043,56.155,67.043,38.386C67.043,20.618,74.25,6.202,83.135,6.202C92.019,6.202,99.227,20.618,99.227,38.386C99.227,56.155,92.019,70.57,83.135,70.57ZM83.135,49.114C86.102,49.114,88.499,44.303,88.499,38.386C88.499,32.469,86.102,27.658,83.135,27.658C80.168,27.658,77.771,32.469,77.771,38.386C77.771,44.303,80.168,49.114,83.135,49.114ZM21.448,41.068C21.448,39.593,20.241,38.386,18.766,38.386C17.291,38.386,16.084,39.593,16.084,41.068C16.084,42.543,17.291,43.75,18.766,43.75C20.241,43.75,21.448,42.543,21.448,41.068ZM32.176,41.068C32.176,39.593,30.969,38.386,29.494,38.386C28.019,38.386,26.812,39.593,26.812,41.068C26.812,42.543,28.019,43.75,29.494,43.75C30.969,43.75,32.176,42.543,32.176,41.068ZM40.222,43.75C41.697,43.75,42.904,42.543,42.904,41.068C42.904,39.593,41.697,38.386,40.222,38.386C38.747,38.386,37.54,39.593,37.54,41.068C37.54,42.543,38.747,43.75,40.222,43.75ZM53.632,41.068C53.632,39.593,52.425,38.386,50.95,38.386C49.475,38.386,48.268,39.593,48.268,41.068C48.268,42.543,49.475,43.75,50.95,43.75C52.425,43.75,53.632,42.543,53.632,41.068ZM53.632,41.068"/>
</g>
  <g id="Heavy-S" transform="matrix(1.0,0.0,0.0,1.0,2588.356556282318,611.1565758135679)">  <path stroke-dasharray="none" stroke-linecap="butt" stroke-miterlimit="4" fill-opacity="1" stroke="none" xmlns:xlink="http://www.w3.org/1999/xlink" fill-rule="nonzero" stroke-linejoin="miter" stroke-opacity="1" fill="#000000" version="1.1" stroke-width="1px" d="M71.77,6.202C63.891,14.516,61.678,27.407,61.678,38.386C61.678,65.005,57.102,79.79,54.521,85.975C52.845,89.998,48.956,92.027,45.234,92.027L5.356,92.027C3.428,92.027,1.635,90.987,0.696,89.311C-0.243,87.635,-0.243,85.573,0.763,83.914C2.406,80.947,3.344,77.51,4.199,74.242C6.077,67.017,8.038,55.4,8.038,38.386C8.038,20.618,15.246,6.202,24.13,6.202L71.77,6.202ZM83.135,70.57C74.25,70.57,67.043,56.155,67.043,38.386C67.043,20.618,74.25,6.202,83.135,6.202C92.019,6.202,99.227,20.618,99.227,38.386C99.227,56.155,92.019,70.57,83.135,70.57ZM83.135,49.114C86.102,49.114,88.499,44.303,88.499,38.386C88.499,32.469,86.102,27.658,83.135,27.658C80.168,27.658,77.771,32.469,77.771,38.386C77.771,44.303,80.168,49.114,83.135,49.114ZM21.448,41.068C21.448,39.593,20.241,38.386,18.766,38.386C17.291,38.386,16.084,39.593,16.084,41.068C16.084,42.543,17.291,43.75,18.766,43.75C20.241,43.75,21.448,42.543,21.448,41.068ZM32.176,41.068C32.176,39.593,30.969,38.386,29.494,38.386C28.019,38.386,26.812,39.593,26.812,41.068C26.812,42.543,28.019,43.75,29.494,43.75C30.969,43.75,32.176,42.543,32.176,41.068ZM40.222,43.75C41.697,43.75,42.904,42.543,42.904,41.068C42.904,39.593,41.697,38.386,40.222,38.386C38.747,38.386,37.54,39.593,37.54,41.068C37.54,42.543,38.747,43.75,40.222,43.75ZM53.632,41.068C53.632,39.593,52.425,38.386,50.95,38.386C49.475,38.386,48.268,39.593,48.268,41.068C48.268,42.543,49.475,43.75,50.95,43.75C52.425,43.75,53.632,42.543,53.632,41.068ZM53.632,41.068"/>
</g>
  <g id="Bold-S" transform="matrix(1.0,0.0,0.0,1.0,2291.6465562823178,611.1565758135679)">  <path stroke-linejoin="miter" stroke="none" stroke-miterlimit="4" xmlns:xlink="http://www.w3.org/1999/xlink" stroke-dasharray="none" version="1.1" fill-rule="nonzero" stroke-opacity="1" fill-opacity="1" stroke-width="1px" fill="#000000" stroke-linecap="butt" d="M71.77,6.202C63.891,14.516,61.678,27.407,61.678,38.386C61.678,65.005,57.102,79.79,54.521,85.975C52.845,89.998,48.956,92.027,45.234,92.027L5.356,92.027C3.428,92.027,1.635,90.987,0.696,89.311C-0.243,87.635,-0.243,85.573,0.763,83.914C2.406,80.947,3.344,77.51,4.199,74.242C6.077,67.017,8.038,55.4,8.038,38.386C8.038,20.618,15.246,6.202,24.13,6.202L71.77,6.202ZM83.135,70.57C74.25,70.57,67.043,56.155,67.043,38.386C67.043,20.618,74.25,6.202,83.135,6.202C92.019,6.202,99.227,20.618,99.227,38.386C99.227,56.155,92.019,70.57,83.135,70.57ZM83.135,49.114C86.102,49.114,88.499,44.303,88.499,38.386C88.499,32.469,86.102,27.658,83.135,27.658C80.168,27.658,77.771,32.469,77.771,38.386C77.771,44.303,80.168,49.114,83.135,49.114ZM21.448,41.068C21.448,39.593,20.241,38.386,18.766,38.386C17.291,38.386,16.084,39.593,16.084,41.068C16.084,42.543,17.291,43.75,18.766,43.75C20.241,43.75,21.448,42.543,21.448,41.068ZM32.176,41.068C32.176,39.593,30.969,38.386,29.494,38.386C28.019,38.386,26.812,39.593,26.812,41.068C26.812,42.543,28.019,43.75,29.494,43.75C30.969,43.75,32.176,42.543,32.176,41.068ZM40.222,43.75C41.697,43.75,42.904,42.543,42.904,41.068C42.904,39.593,41.697,38.386,40.222,38.386C38.747,38.386,37.54,39.593,37.54,41.068C37.54,42.543,38.747,43.75,40.222,43.75ZM53.632,41.068C53.632,39.593,52.425,38.386,50.95,38.386C49.475,38.386,48.268,39.593,48.268,41.068C48.268,42.543,49.475,43.75,50.95,43.75C52.425,43.75,53.632,42.543,53.632,41.068ZM53.632,41.068"/>
</g>
  <g id="Semibold-S" transform="matrix(1.0,0.0,0.0,1.0,1994.936556282318,611.1565758135679)">  <path fill-rule="nonzero" stroke="none" xmlns:xlink="http://www.w3.org/1999/xlink" stroke-miterlimit="4" stroke-opacity="1" fill="#000000" stroke-linejoin="miter" stroke-width="1px" fill-opacity="1" stroke-linecap="butt" stroke-dasharray="none" version="1.1" d="M71.77,6.202C63.891,14.516,61.678,27.407,61.678,38.386C61.678,65.005,57.102,79.79,54.521,85.975C52.845,89.998,48.956,92.027,45.234,92.027L5.356,92.027C3.428,92.027,1.635,90.987,0.696,89.311C-0.243,87.635,-0.243,85.573,0.763,83.914C2.406,80.947,3.344,77.51,4.199,74.242C6.077,67.017,8.038,55.4,8.038,38.386C8.038,20.618,15.246,6.202,24.13,6.202L71.77,6.202ZM83.135,70.57C74.25,70.57,67.043,56.155,67.043,38.386C67.043,20.618,74.25,6.202,83.135,6.202C92.019,6.202,99.227,20.618,99.227,38.386C99.227,56.155,92.019,70.57,83.135,70.57ZM83.135,49.114C86.102,49.114,88.499,44.303,88.499,38.386C88.499,32.469,86.102,27.658,83.135,27.658C80.168,27.658,77.771,32.469,77.771,38.386C77.771,44.303,80.168,49.114,83.135,49.114ZM21.448,41.068C21.448,39.593,20.241,38.386,18.766,38.386C17.291,38.386,16.084,39.593,16.084,41.068C16.084,42.543,17.291,43.75,18.766,43.75C20.241,43.75,21.448,42.543,21.448,41.068ZM32.176,41.068C32.176,39.593,30.969,38.386,29.494,38.386C28.019,38.386,26.812,39.593,26.812,41.068C26.812,42.543,28.019,43.75,29.494,43.75C30.969,43.75,32.176,42.543,32.176,41.068ZM40.222,43.75C41.697,43.75,42.904,42.543,42.904,41.068C42.904,39.593,41.697,38.386,40.222,38.386C38.747,38.386,37.54,39.593,37.54,41.068C37.54,42.543,38.747,43.75,40.222,43.75ZM53.632,41.068C53.632,39.593,52.425,38.386,50.95,38.386C49.475,38.386,48.268,39.593,48.268,41.068C48.268,42.543,49.475,43.75,50.95,43.75C52.425,43.75,53.632,42.543,53.632,41.068ZM53.632,41.068"/>
</g>
  <g id="Medium-S" transform="matrix(1.0,0.0,0.0,1.0,1698.226556282318,611.1565758135679)">  <path stroke-dasharray="none" stroke-opacity="1" stroke-linejoin="miter" stroke-miterlimit="4" fill-rule="nonzero" xmlns:xlink="http://www.w3.org/1999/xlink" stroke-width="1px" fill="#000000" fill-opacity="1" stroke="none" stroke-linecap="butt" version="1.1" d="M71.77,6.202C63.891,14.516,61.678,27.407,61.678,38.386C61.678,65.005,57.102,79.79,54.521,85.975C52.845,89.998,48.956,92.027,45.234,92.027L5.356,92.027C3.428,92.027,1.635,90.987,0.696,89.311C-0.243,87.635,-0.243,85.573,0.763,83.914C2.406,80.947,3.344,77.51,4.199,74.242C6.077,67.017,8.038,55.4,8.038,38.386C8.038,20.618,15.246,6.202,24.13,6.202L71.77,6.202ZM83.135,70.57C74.25,70.57,67.043,56.155,67.043,38.386C67.043,20.618,74.25,6.202,83.135,6.202C92.019,6.202,99.227,20.618,99.227,38.386C99.227,56.155,92.019,70.57,83.135,70.57ZM83.135,49.114C86.102,49.114,88.499,44.303,88.499,38.386C88.499,32.469,86.102,27.658,83.135,27.658C80.168,27.658,77.771,32.469,77.771,38.386C77.771,44.303,80.168,49.114,83.135,49.114ZM21.448,41.068C21.448,39.593,20.241,38.386,18.766,38.386C17.291,38.386,16.084,39.593,16.084,41.068C16.084,42.543,17.291,43.75,18.766,43.75C20.241,43.75,21.448,42.543,21.448,41.068ZM32.176,41.068C32.176,39.593,30.969,38.386,29.494,38.386C28.019,38.386,26.812,39.593,26.812,41.068C26.812,42.543,28.019,43.75,29.494,43.75C30.969,43.75,32.176,42.543,32.176,41.068ZM40.222,43.75C41.697,43.75,42.904,42.543,42.904,41.068C42.904,39.593,41.697,38.386,40.222,38.386C38.747,38.386,37.54,39.593,37.54,41.068C37.54,42.543,38.747,43.75,40.222,43.75ZM53.632,41.068C53.632,39.593,52.425,38.386,50.95,38.386C49.475,38.386,48.268,39.593,48.268,41.068C48.268,42.543,49.475,43.75,50.95,43.75C52.425,43.75,53.632,42.543,53.632,41.068ZM53.632,41.068"/>
</g>
  <g id="Regular-S" transform="matrix(1.0,0.0,0.0,1.0,1401.5165562823179,611.1565758135679)">  <path stroke="none" fill-opacity="1" xmlns:xlink="http://www.w3.org/1999/xlink" stroke-miterlimit="4" fill-rule="nonzero" stroke-dasharray="none" version="1.1" stroke-width="1px" stroke-opacity="1" fill="#000000" stroke-linecap="butt" stroke-linejoin="miter" d="M71.77,6.202C63.891,14.516,61.678,27.407,61.678,38.386C61.678,65.005,57.102,79.79,54.521,85.975C52.845,89.998,48.956,92.027,45.234,92.027L5.356,92.027C3.428,92.027,1.635,90.987,0.696,89.311C-0.243,87.635,-0.243,85.573,0.763,83.914C2.406,80.947,3.344,77.51,4.199,74.242C6.077,67.017,8.038,55.4,8.038,38.386C8.038,20.618,15.246,6.202,24.13,6.202L71.77,6.202ZM83.135,70.57C74.25,70.57,67.043,56.155,67.043,38.386C67.043,20.618,74.25,6.202,83.135,6.202C92.019,6.202,99.227,20.618,99.227,38.386C99.227,56.155,92.019,70.57,83.135,70.57ZM83.135,49.114C86.102,49.114,88.499,44.303,88.499,38.386C88.499,32.469,86.102,27.658,83.135,27.658C80.168,27.658,77.771,32.469,77.771,38.386C77.771,44.303,80.168,49.114,83.135,49.114ZM21.448,41.068C21.448,39.593,20.241,38.386,18.766,38.386C17.291,38.386,16.084,39.593,16.084,41.068C16.084,42.543,17.291,43.75,18.766,43.75C20.241,43.75,21.448,42.543,21.448,41.068ZM32.176,41.068C32.176,39.593,30.969,38.386,29.494,38.386C28.019,38.386,26.812,39.593,26.812,41.068C26.812,42.543,28.019,43.75,29.494,43.75C30.969,43.75,32.176,42.543,32.176,41.068ZM40.222,43.75C41.697,43.75,42.904,42.543,42.904,41.068C42.904,39.593,41.697,38.386,40.222,38.386C38.747,38.386,37.54,39.593,37.54,41.068C37.54,42.543,38.747,43.75,40.222,43.75ZM53.632,41.068C53.632,39.593,52.425,38.386,50.95,38.386C49.475,38.386,48.268,39.593,48.268,41.068C48.268,42.543,49.475,43.75,50.95,43.75C52.425,43.75,53.632,42.543,53.632,41.068ZM53.632,41.068"/>
</g>
  <g id="Light-S" transform="matrix(1.0,0.0,0.0,1.0,1104.806556282318,611.1565758135679)">  <path version="1.1" stroke-linejoin="miter" fill-opacity="1" stroke-width="1px" fill="#000000" fill-rule="nonzero" stroke-opacity="1" stroke-linecap="butt" xmlns:xlink="http://www.w3.org/1999/xlink" stroke="none" stroke-dasharray="none" stroke-miterlimit="4" d="M71.77,6.202C63.891,14.516,61.678,27.407,61.678,38.386C61.678,65.005,57.102,79.79,54.521,85.975C52.845,89.998,48.956,92.027,45.234,92.027L5.356,92.027C3.428,92.027,1.635,90.987,0.696,89.311C-0.243,87.635,-0.243,85.573,0.763,83.914C2.406,80.947,3.344,77.51,4.199,74.242C6.077,67.017,8.038,55.4,8.038,38.386C8.038,20.618,15.246,6.202,24.13,6.202L71.77,6.202ZM83.135,70.57C74.25,70.57,67.043,56.155,67.043,38.386C67.043,20.618,74.25,6.202,83.135,6.202C92.019,6.202,99.227,20.618,99.227,38.386C99.227,56.155,92.019,70.57,83.135,70.57ZM83.135,49.114C86.102,49.114,88.499,44.303,88.499,38.386C88.499,32.469,86.102,27.658,83.135,27.658C80.168,27.658,77.771,32.469,77.771,38.386C77.771,44.303,80.168,49.114,83.135,49.114ZM21.448,41.068C21.448,39.593,20.241,38.386,18.766,38.386C17.291,38.386,16.084,39.593,16.084,41.068C16.084,42.543,17.291,43.75,18.766,43.75C20.241,43.75,21.448,42.543,21.448,41.068ZM32.176,41.068C32.176,39.593,30.969,38.386,29.494,38.386C28.019,38.386,26.812,39.593,26.812,41.068C26.812,42.543,28.019,43.75,29.494,43.75C30.969,43.75,32.176,42.543,32.176,41.068ZM40.222,43.75C41.697,43.75,42.904,42.543,42.904,41.068C42.904,39.593,41.697,38.386,40.222,38.386C38.747,38.386,37.54,39.593,37.54,41.068C37.54,42.543,38.747,43.75,40.222,43.75ZM53.632,41.068C53.632,39.593,52.425,38.386,50.95,38.386C49.475,38.386,48.268,39.593,48.268,41.068C48.268,42.543,49.475,43.75,50.95,43.75C52.425,43.75,53.632,42.543,53.632,41.068ZM53.632,41.068"/>
</g>
  <g id="Thin-S" transform="matrix(1.0,0.0,0.0,1.0,808.0965562823179,611.1565758135679)">  <path stroke-linejoin="miter" version="1.1" stroke-opacity="1" fill-rule="nonzero" stroke="none" fill-opacity="1" xmlns:xlink="http://www.w3.org/1999/xlink" stroke-width="1px" stroke-linecap="butt" fill="#000000" stroke-dasharray="none" stroke-miterlimit="4" d="M71.77,6.202C63.891,14.516,61.678,27.407,61.678,38.386C61.678,65.005,57.102,79.79,54.521,85.975C52.845,89.998,48.956,92.027,45.234,92.027L5.356,92.027C3.428,92.027,1.635,90.987,0.696,89.311C-0.243,87.635,-0.243,85.573,0.763,83.914C2.406,80.947,3.344,77.51,4.199,74.242C6.077,67.017,8.038,55.4,8.038,38.386C8.038,20.618,15.246,6.202,24.13,6.202L71.77,6.202ZM83.135,70.57C74.25,70.57,67.043,56.155,67.043,38.386C67.043,20.618,74.25,6.202,83.135,6.202C92.019,6.202,99.227,20.618,99.227,38.386C99.227,56.155,92.019,70.57,83.135,70.57ZM83.135,49.114C86.102,49.114,88.499,44.303,88.499,38.386C88.499,32.469,86.102,27.658,83.135,27.658C80.168,27.658,77.771,32.469,77.771,38.386C77.771,44.303,80.168,49.114,83.135,49.114ZM21.448,41.068C21.448,39.593,20.241,38.386,18.766,38.386C17.291,38.386,16.084,39.593,16.084,41.068C16.084,42.543,17.291,43.75,18.766,43.75C20.241,43.75,21.448,42.543,21.448,41.068ZM32.176,41.068C32.176,39.593,30.969,38.386,29.494,38.386C28.019,38.386,26.812,39.593,26.812,41.068C26.812,42.543,28.019,43.75,29.494,43.75C30.969,43.75,32.176,42.543,32.176,41.068ZM40.222,43.75C41.697,43.75,42.904,42.543,42.904,41.068C42.904,39.593,41.697,38.386,40.222,38.386C38.747,38.386,37.54,39.593,37.54,41.068C37.54,42.543,38.747,43.75,40.222,43.75ZM53.632,41.068C53.632,39.593,52.425,38.386,50.95,38.386C49.475,38.386,48.268,39.593,48.268,41.068C48.268,42.543,49.475,43.75,50.95,43.75C52.425,43.75,53.632,42.543,53.632,41.068ZM53.632,41.068"/>
</g>
  <g id="Ultralight-S" transform="matrix(1.0,0.0,0.0,1.0,511.3865562823179,611.1565758135679)">  <path xmlns:xlink="http://www.w3.org/1999/xlink" stroke-linecap="butt" fill="#000000" version="1.1" fill-rule="nonzero" stroke="none" stroke-dasharray="none" fill-opacity="1" stroke-miterlimit="4" stroke-width="1px" stroke-linejoin="miter" stroke-opacity="1" d="M71.77,6.202C63.891,14.516,61.678,27.407,61.678,38.386C61.678,65.005,57.102,79.79,54.521,85.975C52.845,89.998,48.956,92.027,45.234,92.027L5.356,92.027C3.428,92.027,1.635,90.987,0.696,89.311C-0.243,87.635,-0.243,85.573,0.763,83.914C2.406,80.947,3.344,77.51,4.199,74.242C6.077,67.017,8.038,55.4,8.038,38.386C8.038,20.618,15.246,6.202,24.13,6.202L71.77,6.202ZM83.135,70.57C74.25,70.57,67.043,56.155,67.043,38.386C67.043,20.618,74.25,6.202,83.135,6.202C92.019,6.202,99.227,20.618,99.227,38.386C99.227,56.155,92.019,70.57,83.135,70.57ZM83.135,49.114C86.102,49.114,88.499,44.303,88.499,38.386C88.499,32.469,86.102,27.658,83.135,27.658C80.168,27.658,77.771,32.469,77.771,38.386C77.771,44.303,80.168,49.114,83.135,49.114ZM21.448,41.068C21.448,39.593,20.241,38.386,18.766,38.386C17.291,38.386,16.084,39.593,16.084,41.068C16.084,42.543,17.291,43.75,18.766,43.75C20.241,43.75,21.448,42.543,21.448,41.068ZM32.176,41.068C32.176,39.593,30.969,38.386,29.494,38.386C28.019,38.386,26.812,39.593,26.812,41.068C26.812,42.543,28.019,43.75,29.494,43.75C30.969,43.75,32.176,42.543,32.176,41.068ZM40.222,43.75C41.697,43.75,42.904,42.543,42.904,41.068C42.904,39.593,41.697,38.386,40.222,38.386C38.747,38.386,37.54,39.593,37.54,41.068C37.54,42.543,38.747,43.75,40.222,43.75ZM53.632,41.068C53.632,39.593,52.425,38.386,50.95,38.386C49.475,38.386,48.268,39.593,48.268,41.068C48.268,42.543,49.475,43.75,50.95,43.75C52.425,43.75,53.632,42.543,53.632,41.068ZM53.632,41.068"/>
</g>
 </g>
</svg>
