<?xml version="1.0" encoding="UTF-8"?>
<!-- Generator: CustomSymbols v2.7.2.48 by @serious_bret https://bretlester.com/app_content/CustomSymbols/ -->
<!-- Guides: Left/Right 0.11/0.11 Cap/Base 0.222/0.222 -->
<!-- Settings: RefScale 1.0 Min/Max Stroke Scales 0.5/2.21 -->
<!DOCTYPE svg
PUBLIC "-//W3C//DTD SVG 1.1//EN"
       "http://www.w3.org/Graphics/SVG/1.1/DTD/svg11.dtd">
<svg version="1.1" xmlns="http://www.w3.org/2000/svg" xmlns:xlink="http://www.w3.org/1999/xlink" width="3300" height="2200">
<![CDATA[<?xml version="1.0" encoding="UTF-8"?>
<svg width="96px" height="96px" viewBox="0 0 96 96" version="1.1" xmlns="http://www.w3.org/2000/svg" xmlns:xlink="http://www.w3.org/1999/xlink">
    <title>icon/login/sms@1x</title>
    <g id="icon/login/sms" stroke="none" stroke-width="1" fill="none" fill-rule="evenodd">
        <path d="M48.0040585,77.7695957 C70.0955668,77.7695957 88,63.2742847 88,45.3847978 C88,27.495311 70.0955668,13 48.0040585,13 C25.9125502,13 8.00811696,27.495311 8.00811696,45.3847978 C8.00811696,52.4066939 10.7734614,58.8992231 15.4604857,64.2084616 C15.1636409,68.0230171 13.6794165,71.417193 12.117075,74.001749 C11.2577872,75.4341535 10.382876,76.586305 9.74231598,77.3647857 C9.41422428,77.754026 9.16424964,78.0498487 8.97676867,78.2522537 C8.88302818,78.3456714 8.82053452,78.4235195 8.77366428,78.4702283 L8.72679403,78.5169371 L8.72679403,78.5169371 L8.72679403,78.5169371 L8.72679403,78.5169371 L8.72679403,78.5169371 C8.00811696,79.2331394 7.80501257,80.2918732 8.19559793,81.22605 C8.5861833,82.1602269 9.49234135,82.7674419 10.5078633,82.7674419 C14.9917833,82.7674419 19.5069501,81.3817462 23.2565697,79.7625063 C26.8343316,78.2055449 29.8808975,76.3527608 31.7400838,74.9982043 C36.7083297,76.78871 42.2077716,77.7851653 48.0040585,77.7851653 L48.0040585,77.7695957 Z M22.8837209,40.9462516 C22.8837209,37.8457189 25.377907,35.3255814 28.4465116,35.3255814 L31.3488372,35.3255814 C32.6790698,35.3255814 33.7674419,36.4252777 33.7674419,37.7693511 C33.7674419,39.1134244 32.6790698,40.2131207 31.3488372,40.2131207 L28.4465116,40.2131207 C28.0383721,40.2131207 27.7209302,40.549139 27.7209302,40.9462516 C27.7209302,41.1906286 27.8418605,41.419732 28.0534884,41.557194 L32.4976744,44.5508119 C34.0546512,45.589414 34.9767442,47.3458734 34.9767442,49.2397949 C34.9767442,52.3403277 32.4825581,54.8604651 29.4139535,54.8604651 L25.3023256,54.8604651 C23.972093,54.8604651 22.8837209,53.7607688 22.8837209,52.4166955 C22.8837209,51.0726221 23.972093,49.9729258 25.3023256,49.9729258 L29.4139535,49.9729258 C29.822093,49.9729258 30.1395349,49.6369075 30.1395349,49.2397949 C30.1395349,48.9954179 30.0186047,48.7663145 29.8069767,48.6288525 L25.3627907,45.6352346 C23.8209302,44.5966325 22.8837209,42.8401731 22.8837209,40.9462516 Z M65.655814,35.3255814 L68.5581395,35.3255814 C69.8883721,35.3255814 70.9767442,36.4252777 70.9767442,37.7693511 C70.9767442,39.1134244 69.8883721,40.2131207 68.5581395,40.2131207 L65.655814,40.2131207 C65.2476744,40.2131207 64.9302326,40.549139 64.9302326,40.9462516 C64.9302326,41.1906286 65.0511628,41.419732 65.2627907,41.557194 L69.7069767,44.5508119 C71.2488372,45.589414 72.1860465,47.3458734 72.1860465,49.2397949 C72.1860465,52.3403277 69.6918605,54.8604651 66.6232558,54.8604651 L62.5116279,54.8604651 C61.1813953,54.8604651 60.0930233,53.7607688 60.0930233,52.4166955 C60.0930233,51.0726221 61.1813953,49.9729258 62.5116279,49.9729258 L66.6232558,49.9729258 C67.0313953,49.9729258 67.3488372,49.6369075 67.3488372,49.2397949 C67.3488372,48.9954179 67.227907,48.7663145 67.0162791,48.6288525 L62.572093,45.6352346 C61.0302326,44.5966325 60.0930233,42.8401731 60.0930233,40.9462516 C60.0930233,37.8457189 62.5872093,35.3255814 65.655814,35.3255814 L65.655814,35.3255814 Z M42.1627907,36.3062014 L47.5348837,43.46241 L52.9069767,36.3062014 C53.5327035,35.4669872 54.6315407,35.116043 55.6388081,35.4517287 C56.6460756,35.7874144 57.3023256,36.7181793 57.3023256,37.7710117 L57.3023256,52.4191146 C57.3023256,53.7618574 56.2034884,54.8604651 54.8604651,54.8604651 C53.5174419,54.8604651 52.4186047,53.7618574 52.4186047,52.4191146 L52.4186047,45.0950632 L49.4883721,49.0012239 C49.0305233,49.6115616 48.2979651,49.9777641 47.5348837,49.9777641 C46.7718023,49.9777641 46.0392442,49.6115616 45.5813953,49.0012239 L42.6511628,45.0950632 L42.6511628,52.4191146 C42.6511628,53.7618574 41.5523256,54.8604651 40.2093023,54.8604651 C38.8662791,54.8604651 37.7674419,53.7618574 37.7674419,52.4191146 L37.7674419,37.7710117 C37.7674419,36.7181793 38.4389535,35.7874144 39.4309593,35.4517287 C40.4229651,35.116043 41.5218023,35.4669872 42.1627907,36.3062014 Z" id="Shape" fill="#352E33" fill-rule="nonzero"></path>
    </g>
</svg>]]>
 <g id="Notes">
  <rect height="2200" id="artboard" style="fill:white;opacity:1" width="3300" x="0" y="0"/>
  <line id="" style="fill:none;stroke:black;opacity:1;stroke-width:0.5;" x1="263" x2="3036" y1="292" y2="292"/>
  <text id="reftext1" style="stroke:none;fill:black;font-family:-apple-system,&quot;SF Pro Display&quot;,&quot;SF Pro Text&quot;,Helvetica,sans-serif;font-weight:bold;" transform="matrix(1 0 0 1 263 322)">Weight/Scale Variations</text>
  <text id="reftext2" style="stroke:none;fill:black;font-family:-apple-system,&quot;SF Pro Display&quot;,&quot;SF Pro Text&quot;,Helvetica,sans-serif;text-anchor:middle;" transform="matrix(1 0 0 1 559.711 322)">Ultralight</text>
  <text style="stroke:none;fill:black;font-family:-apple-system,&quot;SF Pro Display&quot;,&quot;SF Pro Text&quot;,Helvetica,sans-serif;text-anchor:middle;" transform="matrix(1 0 0 1 856.422 322)">Thin</text>
  <text style="stroke:none;fill:black;font-family:-apple-system,&quot;SF Pro Display&quot;,&quot;SF Pro Text&quot;,Helvetica,sans-serif;text-anchor:middle;" transform="matrix(1 0 0 1 1153.13 322)">Light</text>
  <text style="stroke:none;fill:black;font-family:-apple-system,&quot;SF Pro Display&quot;,&quot;SF Pro Text&quot;,Helvetica,sans-serif;text-anchor:middle;" transform="matrix(1 0 0 1 1449.84 322)">Regular</text>
  <text style="stroke:none;fill:black;font-family:-apple-system,&quot;SF Pro Display&quot;,&quot;SF Pro Text&quot;,Helvetica,sans-serif;text-anchor:middle;" transform="matrix(1 0 0 1 1746.56 322)">Medium</text>
  <text style="stroke:none;fill:black;font-family:-apple-system,&quot;SF Pro Display&quot;,&quot;SF Pro Text&quot;,Helvetica,sans-serif;text-anchor:middle;" transform="matrix(1 0 0 1 2043.27 322)">Semibold</text>
  <text style="stroke:none;fill:black;font-family:-apple-system,&quot;SF Pro Display&quot;,&quot;SF Pro Text&quot;,Helvetica,sans-serif;text-anchor:middle;" transform="matrix(1 0 0 1 2339.98 322)">Bold</text>
  <text style="stroke:none;fill:black;font-family:-apple-system,&quot;SF Pro Display&quot;,&quot;SF Pro Text&quot;,Helvetica,sans-serif;text-anchor:middle;" transform="matrix(1 0 0 1 2636.69 322)">Heavy</text>
  <text style="stroke:none;fill:black;font-family:-apple-system,&quot;SF Pro Display&quot;,&quot;SF Pro Text&quot;,Helvetica,sans-serif;text-anchor:middle;" transform="matrix(1 0 0 1 2933.4 322)">Black</text>
  <line id="" style="fill:none;stroke:black;opacity:1;stroke-width:0.5;" x1="263" x2="3036" y1="1903" y2="1903"/>
  <g id="" transform="matrix(1 0 0 1 263 1933)">
   <path d="M9.24805 0.830078C13.5547 0.830078 17.1387-2.74414 17.1387-7.05078C17.1387-11.3574 13.5449-14.9316 9.23828-14.9316C4.94141-14.9316 1.36719-11.3574 1.36719-7.05078C1.36719-2.74414 4.95117 0.830078 9.24805 0.830078ZM9.24805-0.654297C5.70312-0.654297 2.87109-3.49609 2.87109-7.05078C2.87109-10.6055 5.69336-13.4473 9.23828-13.4473C12.793-13.4473 15.6348-10.6055 15.6445-7.05078C15.6543-3.49609 12.8027-0.654297 9.24805-0.654297ZM6.39648-6.31836L8.50586-6.31836L8.50586-4.19922C8.50586-3.75977 8.79883-3.45703 9.22852-3.45703C9.67773-3.45703 9.9707-3.75977 9.9707-4.19922L9.9707-6.31836L12.0996-6.31836C12.5391-6.31836 12.8418-6.61133 12.8418-7.04102C12.8418-7.48047 12.5391-7.7832 12.0996-7.7832L9.9707-7.7832L9.9707-9.89258C9.9707-10.3418 9.67773-10.6445 9.22852-10.6445C8.79883-10.6445 8.50586-10.3418 8.50586-9.89258L8.50586-7.7832L6.39648-7.7832C5.94727-7.7832 5.64453-7.48047 5.64453-7.04102C5.64453-6.61133 5.94727-6.31836 6.39648-6.31836Z"/>
  </g>
  <g id="" transform="matrix(1 0 0 1 281.506 1933)">
   <path d="M11.709 2.91016C17.1582 2.91016 21.6699-1.61133 21.6699-7.05078C21.6699-12.5 17.1484-17.0117 11.6992-17.0117C6.25977-17.0117 1.74805-12.5 1.74805-7.05078C1.74805-1.61133 6.26953 2.91016 11.709 2.91016ZM11.709 1.25C7.09961 1.25 3.41797-2.44141 3.41797-7.05078C3.41797-11.6602 7.08984-15.3516 11.6992-15.3516C16.3086-15.3516 20-11.6602 20.0098-7.05078C20.0195-2.44141 16.3184 1.25 11.709 1.25ZM7.98828-6.23047L10.8789-6.23047L10.8789-3.32031C10.8789-2.83203 11.2109-2.5 11.6895-2.5C12.1777-2.5 12.5195-2.83203 12.5195-3.32031L12.5195-6.23047L15.4297-6.23047C15.918-6.23047 16.25-6.5625 16.25-7.04102C16.25-7.5293 15.918-7.87109 15.4297-7.87109L12.5195-7.87109L12.5195-10.7617C12.5195-11.2695 12.1777-11.6016 11.6895-11.6016C11.2109-11.6016 10.8789-11.2598 10.8789-10.7617L10.8789-7.87109L7.98828-7.87109C7.48047-7.87109 7.14844-7.5293 7.14844-7.04102C7.14844-6.5625 7.49023-6.23047 7.98828-6.23047Z"/>
  </g>
  <g id="" transform="matrix(1 0 0 1 304.924 1933)">
   <path d="M14.9707 5.66406C21.9336 5.66406 27.6953-0.0976562 27.6953-7.05078C27.6953-14.0137 21.9238-19.7754 14.9609-19.7754C8.00781-19.7754 2.25586-14.0137 2.25586-7.05078C2.25586-0.0976562 8.01758 5.66406 14.9707 5.66406ZM14.9707 3.84766C8.93555 3.84766 4.08203-1.01562 4.08203-7.05078C4.08203-13.0957 8.92578-17.9492 14.9609-17.9492C21.0059-17.9492 25.8594-13.0957 25.8691-7.05078C25.8789-1.01562 21.0156 3.84766 14.9707 3.84766ZM10.0586-6.14258L14.0625-6.14258L14.0625-2.12891C14.0625-1.5918 14.4336-1.2207 14.9512-1.2207C15.4883-1.2207 15.8594-1.5918 15.8594-2.12891L15.8594-6.14258L19.8828-6.14258C20.4102-6.14258 20.791-6.51367 20.791-7.03125C20.791-7.56836 20.4199-7.94922 19.8828-7.94922L15.8594-7.94922L15.8594-11.9531C15.8594-12.5098 15.4883-12.8809 14.9512-12.8809C14.4336-12.8809 14.0625-12.5 14.0625-11.9531L14.0625-7.94922L10.0586-7.94922C9.50195-7.94922 9.13086-7.56836 9.13086-7.03125C9.13086-6.51367 9.51172-6.14258 10.0586-6.14258Z"/>
  </g>
  <text style="stroke:none;fill:black;font-family:-apple-system,&quot;SF Pro Display&quot;,&quot;SF Pro Text&quot;,Helvetica,sans-serif;font-weight:bold;" transform="matrix(1 0 0 1 263 1953)">Design Variations</text>
  <text style="stroke:none;fill:black;font-family:-apple-system,&quot;SF Pro Display&quot;,&quot;SF Pro Text&quot;,Helvetica,sans-serif;" transform="matrix(1 0 0 1 263 1971)">Symbols are supported in up to nine weights and three scales.</text>
  <text style="stroke:none;fill:black;font-family:-apple-system,&quot;SF Pro Display&quot;,&quot;SF Pro Text&quot;,Helvetica,sans-serif;" transform="matrix(1 0 0 1 263 1989)">For optimal layout with text and other symbols, vertically align</text>
  <text style="stroke:none;fill:black;font-family:-apple-system,&quot;SF Pro Display&quot;,&quot;SF Pro Text&quot;,Helvetica,sans-serif;" transform="matrix(1 0 0 1 263 2007)">symbols with the adjacent text.</text>
  <line id="" style="fill:none;stroke:#00AEEF;stroke-width:0.5;opacity:1.0;" x1="776" x2="776" y1="1919" y2="1933"/>
  <g id="" transform="matrix(1 0 0 1 776 1933)">
   <path d="M3.31055 0.126953C3.82812 0.126953 4.08203-0.0683594 4.26758-0.605469L5.52734-4.0625L11.2891-4.0625L12.5488-0.605469C12.7344-0.0683594 12.9883 0.126953 13.4961 0.126953C14.0137 0.126953 14.3457-0.185547 14.3457-0.673828C14.3457-0.839844 14.3164-0.986328 14.2383-1.20117L9.6582-13.3887C9.43359-13.9941 9.0332-14.2871 8.4082-14.2871C7.80273-14.2871 7.39258-13.9941 7.17773-13.3984L2.59766-1.19141C2.51953-0.976562 2.49023-0.830078 2.49023-0.664062C2.49023-0.175781 2.80273 0.126953 3.31055 0.126953ZM6.00586-5.53711L8.37891-12.1094L8.42773-12.1094L10.8008-5.53711Z"/>
  </g>
  <line id="" style="fill:none;stroke:#00AEEF;stroke-width:0.5;opacity:1.0;" x1="792.836" x2="792.836" y1="1919" y2="1933"/>
  <text style="stroke:none;fill:black;font-family:-apple-system,&quot;SF Pro Display&quot;,&quot;SF Pro Text&quot;,Helvetica,sans-serif;font-weight:bold;" transform="matrix(1 0 0 1 776 1953)">Margins</text>
  <text style="stroke:none;fill:black;font-family:-apple-system,&quot;SF Pro Display&quot;,&quot;SF Pro Text&quot;,Helvetica,sans-serif;" transform="matrix(1 0 0 1 776 1971)">Leading and trailing margins on the left and right side of each symbol</text>
  <text style="stroke:none;fill:black;font-family:-apple-system,&quot;SF Pro Display&quot;,&quot;SF Pro Text&quot;,Helvetica,sans-serif;" transform="matrix(1 0 0 1 776 1989)">can be adjusted by modifying the x-location of the margin guidelines.</text>
  <text style="stroke:none;fill:black;font-family:-apple-system,&quot;SF Pro Display&quot;,&quot;SF Pro Text&quot;,Helvetica,sans-serif;" transform="matrix(1 0 0 1 776 2007)">Modifications are automatically applied proportionally to all</text>
  <text style="stroke:none;fill:black;font-family:-apple-system,&quot;SF Pro Display&quot;,&quot;SF Pro Text&quot;,Helvetica,sans-serif;" transform="matrix(1 0 0 1 776 2025)">scales and weights.</text>
  <g id="" transform="matrix(1 0 0 1 1289 1933)">
   <path d="M2.8418 1.86523L4.54102 3.57422C5.40039 4.44336 6.38672 4.38477 7.31445 3.35938L17.4902-7.85156C17.7539-7.76367 18.0273-7.7832 18.3398-7.8418L19.4043-8.03711L20.0684-7.36328L20.0293-6.80664C19.9902-6.30859 20.1172-5.92773 20.6055-5.44922L21.3672-4.70703C21.8457-4.22852 22.4609-4.19922 22.9297-4.66797L25.8398-7.58789C26.3086-8.05664 26.2891-8.65234 25.8105-9.13086L25.0391-9.89258C24.5605-10.3711 24.1895-10.5273 23.7109-10.4883L23.1348-10.4395L22.4902-11.0742L22.7344-12.1973C22.8613-12.7637 22.7051-13.2031 22.1191-13.7891L19.9219-15.9766C16.582-19.2969 12.1484-19.2188 9.25781-16.3281C8.83789-15.918 8.80859-15.3418 9.04297-14.9512C9.27734-14.5898 9.73633-14.3555 10.3809-14.5215C11.8457-14.8633 13.3691-14.9219 14.7949-13.9844L14.209-12.5293C14.0137-12.0508 13.9844-11.6504 14.1113-11.2891L3.04688-0.898438C2.06055 0.0195312 1.98242 0.996094 2.8418 1.86523ZM10.752-15.957C13.1836-17.7344 16.4746-17.4316 18.7012-15.2051L21.1328-12.793C21.3672-12.5586 21.4062-12.373 21.3379-12.0312L21.0156-10.5469L22.5195-9.0625L23.5059-9.12109C23.7598-9.13086 23.8379-9.11133 24.0332-8.91602L24.6094-8.33984L22.168-5.89844L21.5918-6.47461C21.3965-6.66992 21.3672-6.74805 21.377-7.01172L21.4453-7.98828L19.9512-9.47266L18.4277-9.21875C18.1055-9.15039 17.959-9.17969 17.7148-9.41406L15.7129-11.416C15.459-11.6504 15.4297-11.8164 15.5859-12.1875L16.4648-14.2773C14.9023-15.7324 12.8711-16.3574 10.8398-15.7617C10.6836-15.7227 10.625-15.8496 10.752-15.957ZM5.27344 2.30469L4.10156 1.14258C3.63281 0.683594 3.74023 0.341797 4.14062-0.0195312L14.9512-10.1953L16.416-8.71094L6.42578 2.27539C6.07422 2.67578 5.74219 2.77344 5.27344 2.30469Z"/>
  </g>
  <text style="stroke:none;fill:black;font-family:-apple-system,&quot;SF Pro Display&quot;,&quot;SF Pro Text&quot;,Helvetica,sans-serif;font-weight:bold;" transform="matrix(1 0 0 1 1289 1953)">Exporting</text>
  <text style="stroke:none;fill:black;font-family:-apple-system,&quot;SF Pro Display&quot;,&quot;SF Pro Text&quot;,Helvetica,sans-serif;" transform="matrix(1 0 0 1 1289 1971)">Symbols should be outlined when exporting to ensure the</text>
  <text style="stroke:none;fill:black;font-family:-apple-system,&quot;SF Pro Display&quot;,&quot;SF Pro Text&quot;,Helvetica,sans-serif;" transform="matrix(1 0 0 1 1289 1989)">design is preserved when submitting to Xcode.</text>
  <text id="template-version" style="stroke:none;fill:black;font-family:-apple-system,&quot;SF Pro Display&quot;,&quot;SF Pro Text&quot;,Helvetica,sans-serif;text-anchor:end;" transform="matrix(1 0 0 1 3036 1933)">Template v.2.0</text>
  <text style="stroke:none;fill:black;font-family:-apple-system,&quot;SF Pro Display&quot;,&quot;SF Pro Text&quot;,Helvetica,sans-serif;text-anchor:end;" transform="matrix(1 0 0 1 3036 1951)">Requires Xcode 12 or greater</text>
  <text style="stroke:none;fill:black;font-family:-apple-system,&quot;SF Pro Display&quot;,&quot;SF Pro Text&quot;,Helvetica,sans-serif;" transform="matrix(1 0 0 1 263 726)">Small</text>
  <text style="stroke:none;fill:black;font-family:-apple-system,&quot;SF Pro Display&quot;,&quot;SF Pro Text&quot;,Helvetica,sans-serif;" transform="matrix(1 0 0 1 263 1156)">Medium</text>
  <text style="stroke:none;fill:black;font-family:-apple-system,&quot;SF Pro Display&quot;,&quot;SF Pro Text&quot;,Helvetica,sans-serif;" transform="matrix(1 0 0 1 263 1586)">Large</text>
 </g>
 <g id="Guides">
  <g id="H-reference" style="fill:#27AAE1;stroke:none;" transform="matrix(1 0 0 1 339 696)">
   <path d="M0.976562 0L3.66211 0L12.9883-24.4629L45.752-24.4629L55.127 0L57.7637 0L30.6152-70.459L28.125-70.459ZM29.3457-67.1387L29.4434-67.1387L44.873-26.709L13.8672-26.709Z"/>
  </g>
  <line id="Baseline-S" style="fill:none;stroke:#27AAE1;opacity:1;stroke-width:0.5;" x1="263" x2="3036" y1="696" y2="696"/>
  <line id="Capline-S" style="fill:none;stroke:#27AAE1;opacity:1;stroke-width:0.5;" x1="263" x2="3036" y1="625.541" y2="625.541"/>
  <g id="H-reference" style="fill:#27AAE1;stroke:none;" transform="matrix(1 0 0 1 339 1126)">
   <path d="M0.976562 0L3.66211 0L12.9883-24.4629L45.752-24.4629L55.127 0L57.7637 0L30.6152-70.459L28.125-70.459ZM29.3457-67.1387L29.4434-67.1387L44.873-26.709L13.8672-26.709Z"/>
  </g>
  <line id="Baseline-M" style="fill:none;stroke:#27AAE1;opacity:1;stroke-width:0.5;" x1="263" x2="3036" y1="1126" y2="1126"/>
  <line id="Capline-M" style="fill:none;stroke:#27AAE1;opacity:1;stroke-width:0.5;" x1="263" x2="3036" y1="1055.54" y2="1055.54"/>
  <g id="H-reference" style="fill:#27AAE1;stroke:none;" transform="matrix(1 0 0 1 339 1556)">
   <path d="M0.976562 0L3.66211 0L12.9883-24.4629L45.752-24.4629L55.127 0L57.7637 0L30.6152-70.459L28.125-70.459ZM29.3457-67.1387L29.4434-67.1387L44.873-26.709L13.8672-26.709Z"/>
  </g>
  <line id="Baseline-L" style="fill:none;stroke:#27AAE1;opacity:1;stroke-width:0.5;" x1="263" x2="3036" y1="1556" y2="1556"/>
  <line id="Capline-L" style="fill:none;stroke:#27AAE1;opacity:1;stroke-width:0.5;" x1="263" x2="3036" y1="1485.54" y2="1485.54"/>
  <line id="left-margin" x1="1401.7066461049908" x2="1401.7066461049908" y1="1030.79" y2="1150.12" style="fill:none;stroke:#00AEEF;stroke-width:0.5;opacity:1.0;"/>
  <line id="right-margin" x1="1500.553353895009" x2="1500.553353895009" y1="1030.79" y2="1150.12" style="fill:none;stroke:#00AEEF;stroke-width:0.5;opacity:1.0;"/>
 </g>
 <g id="Symbols">
  <g id="Black-L" transform="matrix(1.0,0.0,0.0,1.0,2852.941376250562,1439.031395781812)">  <path stroke-opacity="1" fill-opacity="1" xmlns:xlink="http://www.w3.org/1999/xlink" version="1.1" stroke-linejoin="miter" stroke-miterlimit="4" stroke-dasharray="none" fill-rule="nonzero" stroke-width="1px" stroke-linecap="butt" stroke="none" fill="#000000" d="M81.746,132.433C119.365,132.433,149.854,107.749,149.854,77.285C149.854,46.821,119.365,22.138,81.746,22.138C44.126,22.138,13.637,46.821,13.637,77.285C13.637,89.243,18.346,100.299,26.327,109.34C25.822,115.836,23.295,121.615,20.634,126.017C19.171,128.456,17.681,130.418,16.59,131.744C16.031,132.406,15.606,132.91,15.286,133.255C15.127,133.414,15.02,133.546,14.941,133.626L14.861,133.706L14.861,133.706L14.861,133.706L14.861,133.706L14.861,133.706C13.637,134.925,13.291,136.728,13.956,138.319C14.621,139.91,16.164,140.944,17.894,140.944C25.529,140.944,33.218,138.584,39.603,135.827C45.696,133.175,50.884,130.02,54.05,127.714C62.51,130.763,71.875,132.459,81.746,132.459L81.746,132.433ZM38.968,69.727C38.968,64.447,43.216,60.156,48.441,60.156L53.384,60.156C55.649,60.156,57.502,62.028,57.502,64.317C57.502,66.606,55.649,68.478,53.384,68.478L48.441,68.478C47.746,68.478,47.206,69.051,47.206,69.727C47.206,70.143,47.412,70.533,47.772,70.767L55.34,75.865C57.991,77.634,59.561,80.625,59.561,83.85C59.561,89.13,55.314,93.421,50.089,93.421L43.087,93.421C40.822,93.421,38.968,91.549,38.968,89.26C38.968,86.971,40.822,85.098,43.087,85.098L50.089,85.098C50.784,85.098,51.324,84.526,51.324,83.85C51.324,83.434,51.118,83.044,50.758,82.809L43.19,77.712C40.564,75.943,38.968,72.952,38.968,69.727ZM111.804,60.156L116.747,60.156C119.012,60.156,120.865,62.028,120.865,64.317C120.865,66.606,119.012,68.478,116.747,68.478L111.804,68.478C111.109,68.478,110.569,69.051,110.569,69.727C110.569,70.143,110.775,70.533,111.135,70.767L118.703,75.865C121.329,77.634,122.925,80.625,122.925,83.85C122.925,89.13,118.677,93.421,113.452,93.421L106.45,93.421C104.185,93.421,102.332,91.549,102.332,89.26C102.332,86.971,104.185,85.098,106.45,85.098L113.452,85.098C114.147,85.098,114.688,84.526,114.688,83.85C114.688,83.434,114.482,83.044,114.121,82.809L106.553,77.712C103.928,75.943,102.332,72.952,102.332,69.727C102.332,64.447,106.579,60.156,111.804,60.156L111.804,60.156ZM71.799,61.825L80.947,74.012L90.095,61.825C91.16,60.396,93.031,59.799,94.747,60.37C96.462,60.942,97.579,62.527,97.579,64.32L97.579,89.264C97.579,91.55,95.708,93.421,93.421,93.421C91.134,93.421,89.263,91.55,89.263,89.264L89.263,76.792L84.273,83.444C83.493,84.483,82.246,85.107,80.947,85.107C79.647,85.107,78.4,84.483,77.62,83.444L72.63,76.792L72.63,89.264C72.63,91.55,70.759,93.421,68.472,93.421C66.185,93.421,64.314,91.55,64.314,89.264L64.314,64.32C64.314,62.527,65.457,60.942,67.147,60.37C68.836,59.799,70.707,60.396,71.799,61.825ZM71.799,61.825"/>
</g>
  <g id="Heavy-L" transform="matrix(1.0,0.0,0.0,1.0,2556.231376250562,1439.031395781812)">  <path stroke-width="1px" xmlns:xlink="http://www.w3.org/1999/xlink" version="1.1" fill="#000000" stroke-dasharray="none" stroke-linejoin="miter" stroke-miterlimit="4" fill-rule="nonzero" stroke-opacity="1" stroke="none" stroke-linecap="butt" fill-opacity="1" d="M81.746,132.433C119.365,132.433,149.854,107.749,149.854,77.285C149.854,46.821,119.365,22.138,81.746,22.138C44.126,22.138,13.637,46.821,13.637,77.285C13.637,89.243,18.346,100.299,26.327,109.34C25.822,115.836,23.295,121.615,20.634,126.017C19.171,128.456,17.681,130.418,16.59,131.744C16.031,132.406,15.606,132.91,15.286,133.255C15.127,133.414,15.02,133.546,14.941,133.626L14.861,133.706L14.861,133.706L14.861,133.706L14.861,133.706L14.861,133.706C13.637,134.925,13.291,136.728,13.956,138.319C14.621,139.91,16.164,140.944,17.894,140.944C25.529,140.944,33.218,138.584,39.603,135.827C45.696,133.175,50.884,130.02,54.05,127.714C62.51,130.763,71.875,132.459,81.746,132.459L81.746,132.433ZM38.968,69.727C38.968,64.447,43.216,60.156,48.441,60.156L53.384,60.156C55.649,60.156,57.502,62.028,57.502,64.317C57.502,66.606,55.649,68.478,53.384,68.478L48.441,68.478C47.746,68.478,47.206,69.051,47.206,69.727C47.206,70.143,47.412,70.533,47.772,70.767L55.34,75.865C57.991,77.634,59.561,80.625,59.561,83.85C59.561,89.13,55.314,93.421,50.089,93.421L43.087,93.421C40.822,93.421,38.968,91.549,38.968,89.26C38.968,86.971,40.822,85.098,43.087,85.098L50.089,85.098C50.784,85.098,51.324,84.526,51.324,83.85C51.324,83.434,51.118,83.044,50.758,82.809L43.19,77.712C40.564,75.943,38.968,72.952,38.968,69.727ZM111.804,60.156L116.747,60.156C119.012,60.156,120.865,62.028,120.865,64.317C120.865,66.606,119.012,68.478,116.747,68.478L111.804,68.478C111.109,68.478,110.569,69.051,110.569,69.727C110.569,70.143,110.775,70.533,111.135,70.767L118.703,75.865C121.329,77.634,122.925,80.625,122.925,83.85C122.925,89.13,118.677,93.421,113.452,93.421L106.45,93.421C104.185,93.421,102.332,91.549,102.332,89.26C102.332,86.971,104.185,85.098,106.45,85.098L113.452,85.098C114.147,85.098,114.688,84.526,114.688,83.85C114.688,83.434,114.482,83.044,114.121,82.809L106.553,77.712C103.928,75.943,102.332,72.952,102.332,69.727C102.332,64.447,106.579,60.156,111.804,60.156L111.804,60.156ZM71.799,61.825L80.947,74.012L90.095,61.825C91.16,60.396,93.031,59.799,94.747,60.37C96.462,60.942,97.579,62.527,97.579,64.32L97.579,89.264C97.579,91.55,95.708,93.421,93.421,93.421C91.134,93.421,89.263,91.55,89.263,89.264L89.263,76.792L84.273,83.444C83.493,84.483,82.246,85.107,80.947,85.107C79.647,85.107,78.4,84.483,77.62,83.444L72.63,76.792L72.63,89.264C72.63,91.55,70.759,93.421,68.472,93.421C66.185,93.421,64.314,91.55,64.314,89.264L64.314,64.32C64.314,62.527,65.457,60.942,67.147,60.37C68.836,59.799,70.707,60.396,71.799,61.825ZM71.799,61.825"/>
</g>
  <g id="Bold-L" transform="matrix(1.0,0.0,0.0,1.0,2259.521376250562,1439.031395781812)">  <path stroke-linecap="butt" stroke-opacity="1" stroke-miterlimit="4" stroke="none" stroke-linejoin="miter" fill-rule="nonzero" stroke-width="1px" fill-opacity="1" stroke-dasharray="none" xmlns:xlink="http://www.w3.org/1999/xlink" fill="#000000" version="1.1" d="M81.746,132.433C119.365,132.433,149.854,107.749,149.854,77.285C149.854,46.821,119.365,22.138,81.746,22.138C44.126,22.138,13.637,46.821,13.637,77.285C13.637,89.243,18.346,100.299,26.327,109.34C25.822,115.836,23.295,121.615,20.634,126.017C19.171,128.456,17.681,130.418,16.59,131.744C16.031,132.406,15.606,132.91,15.286,133.255C15.127,133.414,15.02,133.546,14.941,133.626L14.861,133.706L14.861,133.706L14.861,133.706L14.861,133.706L14.861,133.706C13.637,134.925,13.291,136.728,13.956,138.319C14.621,139.91,16.164,140.944,17.894,140.944C25.529,140.944,33.218,138.584,39.603,135.827C45.696,133.175,50.884,130.02,54.05,127.714C62.51,130.763,71.875,132.459,81.746,132.459L81.746,132.433ZM38.968,69.727C38.968,64.447,43.216,60.156,48.441,60.156L53.384,60.156C55.649,60.156,57.502,62.028,57.502,64.317C57.502,66.606,55.649,68.478,53.384,68.478L48.441,68.478C47.746,68.478,47.206,69.051,47.206,69.727C47.206,70.143,47.412,70.533,47.772,70.767L55.34,75.865C57.991,77.634,59.561,80.625,59.561,83.85C59.561,89.13,55.314,93.421,50.089,93.421L43.087,93.421C40.822,93.421,38.968,91.549,38.968,89.26C38.968,86.971,40.822,85.098,43.087,85.098L50.089,85.098C50.784,85.098,51.324,84.526,51.324,83.85C51.324,83.434,51.118,83.044,50.758,82.809L43.19,77.712C40.564,75.943,38.968,72.952,38.968,69.727ZM111.804,60.156L116.747,60.156C119.012,60.156,120.865,62.028,120.865,64.317C120.865,66.606,119.012,68.478,116.747,68.478L111.804,68.478C111.109,68.478,110.569,69.051,110.569,69.727C110.569,70.143,110.775,70.533,111.135,70.767L118.703,75.865C121.329,77.634,122.925,80.625,122.925,83.85C122.925,89.13,118.677,93.421,113.452,93.421L106.45,93.421C104.185,93.421,102.332,91.549,102.332,89.26C102.332,86.971,104.185,85.098,106.45,85.098L113.452,85.098C114.147,85.098,114.688,84.526,114.688,83.85C114.688,83.434,114.482,83.044,114.121,82.809L106.553,77.712C103.928,75.943,102.332,72.952,102.332,69.727C102.332,64.447,106.579,60.156,111.804,60.156L111.804,60.156ZM71.799,61.825L80.947,74.012L90.095,61.825C91.16,60.396,93.031,59.799,94.747,60.37C96.462,60.942,97.579,62.527,97.579,64.32L97.579,89.264C97.579,91.55,95.708,93.421,93.421,93.421C91.134,93.421,89.263,91.55,89.263,89.264L89.263,76.792L84.273,83.444C83.493,84.483,82.246,85.107,80.947,85.107C79.647,85.107,78.4,84.483,77.62,83.444L72.63,76.792L72.63,89.264C72.63,91.55,70.759,93.421,68.472,93.421C66.185,93.421,64.314,91.55,64.314,89.264L64.314,64.32C64.314,62.527,65.457,60.942,67.147,60.37C68.836,59.799,70.707,60.396,71.799,61.825ZM71.799,61.825"/>
</g>
  <g id="Semibold-L" transform="matrix(1.0,0.0,0.0,1.0,1962.811376250562,1439.031395781812)">  <path stroke-dasharray="none" stroke-width="1px" stroke-miterlimit="4" stroke-linejoin="miter" stroke-opacity="1" fill="#000000" stroke-linecap="butt" xmlns:xlink="http://www.w3.org/1999/xlink" fill-rule="nonzero" fill-opacity="1" version="1.1" stroke="none" d="M81.746,132.433C119.365,132.433,149.854,107.749,149.854,77.285C149.854,46.821,119.365,22.138,81.746,22.138C44.126,22.138,13.637,46.821,13.637,77.285C13.637,89.243,18.346,100.299,26.327,109.34C25.822,115.836,23.295,121.615,20.634,126.017C19.171,128.456,17.681,130.418,16.59,131.744C16.031,132.406,15.606,132.91,15.286,133.255C15.127,133.414,15.02,133.546,14.941,133.626L14.861,133.706L14.861,133.706L14.861,133.706L14.861,133.706L14.861,133.706C13.637,134.925,13.291,136.728,13.956,138.319C14.621,139.91,16.164,140.944,17.894,140.944C25.529,140.944,33.218,138.584,39.603,135.827C45.696,133.175,50.884,130.02,54.05,127.714C62.51,130.763,71.875,132.459,81.746,132.459L81.746,132.433ZM38.968,69.727C38.968,64.447,43.216,60.156,48.441,60.156L53.384,60.156C55.649,60.156,57.502,62.028,57.502,64.317C57.502,66.606,55.649,68.478,53.384,68.478L48.441,68.478C47.746,68.478,47.206,69.051,47.206,69.727C47.206,70.143,47.412,70.533,47.772,70.767L55.34,75.865C57.991,77.634,59.561,80.625,59.561,83.85C59.561,89.13,55.314,93.421,50.089,93.421L43.087,93.421C40.822,93.421,38.968,91.549,38.968,89.26C38.968,86.971,40.822,85.098,43.087,85.098L50.089,85.098C50.784,85.098,51.324,84.526,51.324,83.85C51.324,83.434,51.118,83.044,50.758,82.809L43.19,77.712C40.564,75.943,38.968,72.952,38.968,69.727ZM111.804,60.156L116.747,60.156C119.012,60.156,120.865,62.028,120.865,64.317C120.865,66.606,119.012,68.478,116.747,68.478L111.804,68.478C111.109,68.478,110.569,69.051,110.569,69.727C110.569,70.143,110.775,70.533,111.135,70.767L118.703,75.865C121.329,77.634,122.925,80.625,122.925,83.85C122.925,89.13,118.677,93.421,113.452,93.421L106.45,93.421C104.185,93.421,102.332,91.549,102.332,89.26C102.332,86.971,104.185,85.098,106.45,85.098L113.452,85.098C114.147,85.098,114.688,84.526,114.688,83.85C114.688,83.434,114.482,83.044,114.121,82.809L106.553,77.712C103.928,75.943,102.332,72.952,102.332,69.727C102.332,64.447,106.579,60.156,111.804,60.156L111.804,60.156ZM71.799,61.825L80.947,74.012L90.095,61.825C91.16,60.396,93.031,59.799,94.747,60.37C96.462,60.942,97.579,62.527,97.579,64.32L97.579,89.264C97.579,91.55,95.708,93.421,93.421,93.421C91.134,93.421,89.263,91.55,89.263,89.264L89.263,76.792L84.273,83.444C83.493,84.483,82.246,85.107,80.947,85.107C79.647,85.107,78.4,84.483,77.62,83.444L72.63,76.792L72.63,89.264C72.63,91.55,70.759,93.421,68.472,93.421C66.185,93.421,64.314,91.55,64.314,89.264L64.314,64.32C64.314,62.527,65.457,60.942,67.147,60.37C68.836,59.799,70.707,60.396,71.799,61.825ZM71.799,61.825"/>
</g>
  <g id="Medium-L" transform="matrix(1.0,0.0,0.0,1.0,1666.101376250562,1439.031395781812)">  <path fill-rule="nonzero" stroke-miterlimit="4" fill="#000000" stroke-opacity="1" version="1.1" stroke-width="1px" stroke-dasharray="none" stroke="none" xmlns:xlink="http://www.w3.org/1999/xlink" stroke-linejoin="miter" stroke-linecap="butt" fill-opacity="1" d="M81.746,132.433C119.365,132.433,149.854,107.749,149.854,77.285C149.854,46.821,119.365,22.138,81.746,22.138C44.126,22.138,13.637,46.821,13.637,77.285C13.637,89.243,18.346,100.299,26.327,109.34C25.822,115.836,23.295,121.615,20.634,126.017C19.171,128.456,17.681,130.418,16.59,131.744C16.031,132.406,15.606,132.91,15.286,133.255C15.127,133.414,15.02,133.546,14.941,133.626L14.861,133.706L14.861,133.706L14.861,133.706L14.861,133.706L14.861,133.706C13.637,134.925,13.291,136.728,13.956,138.319C14.621,139.91,16.164,140.944,17.894,140.944C25.529,140.944,33.218,138.584,39.603,135.827C45.696,133.175,50.884,130.02,54.05,127.714C62.51,130.763,71.875,132.459,81.746,132.459L81.746,132.433ZM38.968,69.727C38.968,64.447,43.216,60.156,48.441,60.156L53.384,60.156C55.649,60.156,57.502,62.028,57.502,64.317C57.502,66.606,55.649,68.478,53.384,68.478L48.441,68.478C47.746,68.478,47.206,69.051,47.206,69.727C47.206,70.143,47.412,70.533,47.772,70.767L55.34,75.865C57.991,77.634,59.561,80.625,59.561,83.85C59.561,89.13,55.314,93.421,50.089,93.421L43.087,93.421C40.822,93.421,38.968,91.549,38.968,89.26C38.968,86.971,40.822,85.098,43.087,85.098L50.089,85.098C50.784,85.098,51.324,84.526,51.324,83.85C51.324,83.434,51.118,83.044,50.758,82.809L43.19,77.712C40.564,75.943,38.968,72.952,38.968,69.727ZM111.804,60.156L116.747,60.156C119.012,60.156,120.865,62.028,120.865,64.317C120.865,66.606,119.012,68.478,116.747,68.478L111.804,68.478C111.109,68.478,110.569,69.051,110.569,69.727C110.569,70.143,110.775,70.533,111.135,70.767L118.703,75.865C121.329,77.634,122.925,80.625,122.925,83.85C122.925,89.13,118.677,93.421,113.452,93.421L106.45,93.421C104.185,93.421,102.332,91.549,102.332,89.26C102.332,86.971,104.185,85.098,106.45,85.098L113.452,85.098C114.147,85.098,114.688,84.526,114.688,83.85C114.688,83.434,114.482,83.044,114.121,82.809L106.553,77.712C103.928,75.943,102.332,72.952,102.332,69.727C102.332,64.447,106.579,60.156,111.804,60.156L111.804,60.156ZM71.799,61.825L80.947,74.012L90.095,61.825C91.16,60.396,93.031,59.799,94.747,60.37C96.462,60.942,97.579,62.527,97.579,64.32L97.579,89.264C97.579,91.55,95.708,93.421,93.421,93.421C91.134,93.421,89.263,91.55,89.263,89.264L89.263,76.792L84.273,83.444C83.493,84.483,82.246,85.107,80.947,85.107C79.647,85.107,78.4,84.483,77.62,83.444L72.63,76.792L72.63,89.264C72.63,91.55,70.759,93.421,68.472,93.421C66.185,93.421,64.314,91.55,64.314,89.264L64.314,64.32C64.314,62.527,65.457,60.942,67.147,60.37C68.836,59.799,70.707,60.396,71.799,61.825ZM71.799,61.825"/>
</g>
  <g id="Regular-L" transform="matrix(1.0,0.0,0.0,1.0,1369.391376250562,1439.031395781812)">  <path stroke-linecap="butt" fill="#000000" stroke-opacity="1" stroke-width="1px" stroke-miterlimit="4" xmlns:xlink="http://www.w3.org/1999/xlink" fill-opacity="1" fill-rule="nonzero" stroke="none" stroke-dasharray="none" stroke-linejoin="miter" version="1.1" d="M81.746,132.433C119.365,132.433,149.854,107.749,149.854,77.285C149.854,46.821,119.365,22.138,81.746,22.138C44.126,22.138,13.637,46.821,13.637,77.285C13.637,89.243,18.346,100.299,26.327,109.34C25.822,115.836,23.295,121.615,20.634,126.017C19.171,128.456,17.681,130.418,16.59,131.744C16.031,132.406,15.606,132.91,15.286,133.255C15.127,133.414,15.02,133.546,14.941,133.626L14.861,133.706L14.861,133.706L14.861,133.706L14.861,133.706L14.861,133.706C13.637,134.925,13.291,136.728,13.956,138.319C14.621,139.91,16.164,140.944,17.894,140.944C25.529,140.944,33.218,138.584,39.603,135.827C45.696,133.175,50.884,130.02,54.05,127.714C62.51,130.763,71.875,132.459,81.746,132.459L81.746,132.433ZM38.968,69.727C38.968,64.447,43.216,60.156,48.441,60.156L53.384,60.156C55.649,60.156,57.502,62.028,57.502,64.317C57.502,66.606,55.649,68.478,53.384,68.478L48.441,68.478C47.746,68.478,47.206,69.051,47.206,69.727C47.206,70.143,47.412,70.533,47.772,70.767L55.34,75.865C57.991,77.634,59.561,80.625,59.561,83.85C59.561,89.13,55.314,93.421,50.089,93.421L43.087,93.421C40.822,93.421,38.968,91.549,38.968,89.26C38.968,86.971,40.822,85.098,43.087,85.098L50.089,85.098C50.784,85.098,51.324,84.526,51.324,83.85C51.324,83.434,51.118,83.044,50.758,82.809L43.19,77.712C40.564,75.943,38.968,72.952,38.968,69.727ZM111.804,60.156L116.747,60.156C119.012,60.156,120.865,62.028,120.865,64.317C120.865,66.606,119.012,68.478,116.747,68.478L111.804,68.478C111.109,68.478,110.569,69.051,110.569,69.727C110.569,70.143,110.775,70.533,111.135,70.767L118.703,75.865C121.329,77.634,122.925,80.625,122.925,83.85C122.925,89.13,118.677,93.421,113.452,93.421L106.45,93.421C104.185,93.421,102.332,91.549,102.332,89.26C102.332,86.971,104.185,85.098,106.45,85.098L113.452,85.098C114.147,85.098,114.688,84.526,114.688,83.85C114.688,83.434,114.482,83.044,114.121,82.809L106.553,77.712C103.928,75.943,102.332,72.952,102.332,69.727C102.332,64.447,106.579,60.156,111.804,60.156L111.804,60.156ZM71.799,61.825L80.947,74.012L90.095,61.825C91.16,60.396,93.031,59.799,94.747,60.37C96.462,60.942,97.579,62.527,97.579,64.32L97.579,89.264C97.579,91.55,95.708,93.421,93.421,93.421C91.134,93.421,89.263,91.55,89.263,89.264L89.263,76.792L84.273,83.444C83.493,84.483,82.246,85.107,80.947,85.107C79.647,85.107,78.4,84.483,77.62,83.444L72.63,76.792L72.63,89.264C72.63,91.55,70.759,93.421,68.472,93.421C66.185,93.421,64.314,91.55,64.314,89.264L64.314,64.32C64.314,62.527,65.457,60.942,67.147,60.37C68.836,59.799,70.707,60.396,71.799,61.825ZM71.799,61.825"/>
</g>
  <g id="Light-L" transform="matrix(1.0,0.0,0.0,1.0,1072.6813762505622,1439.031395781812)">  <path stroke-dasharray="none" fill-rule="nonzero" stroke-linecap="butt" xmlns:xlink="http://www.w3.org/1999/xlink" fill="#000000" fill-opacity="1" stroke-linejoin="miter" stroke-width="1px" version="1.1" stroke-miterlimit="4" stroke="none" stroke-opacity="1" d="M81.746,132.433C119.365,132.433,149.854,107.749,149.854,77.285C149.854,46.821,119.365,22.138,81.746,22.138C44.126,22.138,13.637,46.821,13.637,77.285C13.637,89.243,18.346,100.299,26.327,109.34C25.822,115.836,23.295,121.615,20.634,126.017C19.171,128.456,17.681,130.418,16.59,131.744C16.031,132.406,15.606,132.91,15.286,133.255C15.127,133.414,15.02,133.546,14.941,133.626L14.861,133.706L14.861,133.706L14.861,133.706L14.861,133.706L14.861,133.706C13.637,134.925,13.291,136.728,13.956,138.319C14.621,139.91,16.164,140.944,17.894,140.944C25.529,140.944,33.218,138.584,39.603,135.827C45.696,133.175,50.884,130.02,54.05,127.714C62.51,130.763,71.875,132.459,81.746,132.459L81.746,132.433ZM38.968,69.727C38.968,64.447,43.216,60.156,48.441,60.156L53.384,60.156C55.649,60.156,57.502,62.028,57.502,64.317C57.502,66.606,55.649,68.478,53.384,68.478L48.441,68.478C47.746,68.478,47.206,69.051,47.206,69.727C47.206,70.143,47.412,70.533,47.772,70.767L55.34,75.865C57.991,77.634,59.561,80.625,59.561,83.85C59.561,89.13,55.314,93.421,50.089,93.421L43.087,93.421C40.822,93.421,38.968,91.549,38.968,89.26C38.968,86.971,40.822,85.098,43.087,85.098L50.089,85.098C50.784,85.098,51.324,84.526,51.324,83.85C51.324,83.434,51.118,83.044,50.758,82.809L43.19,77.712C40.564,75.943,38.968,72.952,38.968,69.727ZM111.804,60.156L116.747,60.156C119.012,60.156,120.865,62.028,120.865,64.317C120.865,66.606,119.012,68.478,116.747,68.478L111.804,68.478C111.109,68.478,110.569,69.051,110.569,69.727C110.569,70.143,110.775,70.533,111.135,70.767L118.703,75.865C121.329,77.634,122.925,80.625,122.925,83.85C122.925,89.13,118.677,93.421,113.452,93.421L106.45,93.421C104.185,93.421,102.332,91.549,102.332,89.26C102.332,86.971,104.185,85.098,106.45,85.098L113.452,85.098C114.147,85.098,114.688,84.526,114.688,83.85C114.688,83.434,114.482,83.044,114.121,82.809L106.553,77.712C103.928,75.943,102.332,72.952,102.332,69.727C102.332,64.447,106.579,60.156,111.804,60.156L111.804,60.156ZM71.799,61.825L80.947,74.012L90.095,61.825C91.16,60.396,93.031,59.799,94.747,60.37C96.462,60.942,97.579,62.527,97.579,64.32L97.579,89.264C97.579,91.55,95.708,93.421,93.421,93.421C91.134,93.421,89.263,91.55,89.263,89.264L89.263,76.792L84.273,83.444C83.493,84.483,82.246,85.107,80.947,85.107C79.647,85.107,78.4,84.483,77.62,83.444L72.63,76.792L72.63,89.264C72.63,91.55,70.759,93.421,68.472,93.421C66.185,93.421,64.314,91.55,64.314,89.264L64.314,64.32C64.314,62.527,65.457,60.942,67.147,60.37C68.836,59.799,70.707,60.396,71.799,61.825ZM71.799,61.825"/>
</g>
  <g id="Thin-L" transform="matrix(1.0,0.0,0.0,1.0,775.9713762505621,1439.031395781812)">  <path stroke-linejoin="miter" stroke-linecap="butt" fill-opacity="1" stroke-opacity="1" fill-rule="nonzero" stroke-dasharray="none" version="1.1" xmlns:xlink="http://www.w3.org/1999/xlink" fill="#000000" stroke-width="1px" stroke="none" stroke-miterlimit="4" d="M81.746,132.433C119.365,132.433,149.854,107.749,149.854,77.285C149.854,46.821,119.365,22.138,81.746,22.138C44.126,22.138,13.637,46.821,13.637,77.285C13.637,89.243,18.346,100.299,26.327,109.34C25.822,115.836,23.295,121.615,20.634,126.017C19.171,128.456,17.681,130.418,16.59,131.744C16.031,132.406,15.606,132.91,15.286,133.255C15.127,133.414,15.02,133.546,14.941,133.626L14.861,133.706L14.861,133.706L14.861,133.706L14.861,133.706L14.861,133.706C13.637,134.925,13.291,136.728,13.956,138.319C14.621,139.91,16.164,140.944,17.894,140.944C25.529,140.944,33.218,138.584,39.603,135.827C45.696,133.175,50.884,130.02,54.05,127.714C62.51,130.763,71.875,132.459,81.746,132.459L81.746,132.433ZM38.968,69.727C38.968,64.447,43.216,60.156,48.441,60.156L53.384,60.156C55.649,60.156,57.502,62.028,57.502,64.317C57.502,66.606,55.649,68.478,53.384,68.478L48.441,68.478C47.746,68.478,47.206,69.051,47.206,69.727C47.206,70.143,47.412,70.533,47.772,70.767L55.34,75.865C57.991,77.634,59.561,80.625,59.561,83.85C59.561,89.13,55.314,93.421,50.089,93.421L43.087,93.421C40.822,93.421,38.968,91.549,38.968,89.26C38.968,86.971,40.822,85.098,43.087,85.098L50.089,85.098C50.784,85.098,51.324,84.526,51.324,83.85C51.324,83.434,51.118,83.044,50.758,82.809L43.19,77.712C40.564,75.943,38.968,72.952,38.968,69.727ZM111.804,60.156L116.747,60.156C119.012,60.156,120.865,62.028,120.865,64.317C120.865,66.606,119.012,68.478,116.747,68.478L111.804,68.478C111.109,68.478,110.569,69.051,110.569,69.727C110.569,70.143,110.775,70.533,111.135,70.767L118.703,75.865C121.329,77.634,122.925,80.625,122.925,83.85C122.925,89.13,118.677,93.421,113.452,93.421L106.45,93.421C104.185,93.421,102.332,91.549,102.332,89.26C102.332,86.971,104.185,85.098,106.45,85.098L113.452,85.098C114.147,85.098,114.688,84.526,114.688,83.85C114.688,83.434,114.482,83.044,114.121,82.809L106.553,77.712C103.928,75.943,102.332,72.952,102.332,69.727C102.332,64.447,106.579,60.156,111.804,60.156L111.804,60.156ZM71.799,61.825L80.947,74.012L90.095,61.825C91.16,60.396,93.031,59.799,94.747,60.37C96.462,60.942,97.579,62.527,97.579,64.32L97.579,89.264C97.579,91.55,95.708,93.421,93.421,93.421C91.134,93.421,89.263,91.55,89.263,89.264L89.263,76.792L84.273,83.444C83.493,84.483,82.246,85.107,80.947,85.107C79.647,85.107,78.4,84.483,77.62,83.444L72.63,76.792L72.63,89.264C72.63,91.55,70.759,93.421,68.472,93.421C66.185,93.421,64.314,91.55,64.314,89.264L64.314,64.32C64.314,62.527,65.457,60.942,67.147,60.37C68.836,59.799,70.707,60.396,71.799,61.825ZM71.799,61.825"/>
</g>
  <g id="Ultralight-L" transform="matrix(1.0,0.0,0.0,1.0,479.2613762505621,1439.031395781812)">  <path stroke-dasharray="none" xmlns:xlink="http://www.w3.org/1999/xlink" stroke-linecap="butt" stroke-miterlimit="4" fill-rule="nonzero" fill="#000000" stroke-width="1px" stroke-linejoin="miter" fill-opacity="1" version="1.1" stroke-opacity="1" stroke="none" d="M81.746,132.433C119.365,132.433,149.854,107.749,149.854,77.285C149.854,46.821,119.365,22.138,81.746,22.138C44.126,22.138,13.637,46.821,13.637,77.285C13.637,89.243,18.346,100.299,26.327,109.34C25.822,115.836,23.295,121.615,20.634,126.017C19.171,128.456,17.681,130.418,16.59,131.744C16.031,132.406,15.606,132.91,15.286,133.255C15.127,133.414,15.02,133.546,14.941,133.626L14.861,133.706L14.861,133.706L14.861,133.706L14.861,133.706L14.861,133.706C13.637,134.925,13.291,136.728,13.956,138.319C14.621,139.91,16.164,140.944,17.894,140.944C25.529,140.944,33.218,138.584,39.603,135.827C45.696,133.175,50.884,130.02,54.05,127.714C62.51,130.763,71.875,132.459,81.746,132.459L81.746,132.433ZM38.968,69.727C38.968,64.447,43.216,60.156,48.441,60.156L53.384,60.156C55.649,60.156,57.502,62.028,57.502,64.317C57.502,66.606,55.649,68.478,53.384,68.478L48.441,68.478C47.746,68.478,47.206,69.051,47.206,69.727C47.206,70.143,47.412,70.533,47.772,70.767L55.34,75.865C57.991,77.634,59.561,80.625,59.561,83.85C59.561,89.13,55.314,93.421,50.089,93.421L43.087,93.421C40.822,93.421,38.968,91.549,38.968,89.26C38.968,86.971,40.822,85.098,43.087,85.098L50.089,85.098C50.784,85.098,51.324,84.526,51.324,83.85C51.324,83.434,51.118,83.044,50.758,82.809L43.19,77.712C40.564,75.943,38.968,72.952,38.968,69.727ZM111.804,60.156L116.747,60.156C119.012,60.156,120.865,62.028,120.865,64.317C120.865,66.606,119.012,68.478,116.747,68.478L111.804,68.478C111.109,68.478,110.569,69.051,110.569,69.727C110.569,70.143,110.775,70.533,111.135,70.767L118.703,75.865C121.329,77.634,122.925,80.625,122.925,83.85C122.925,89.13,118.677,93.421,113.452,93.421L106.45,93.421C104.185,93.421,102.332,91.549,102.332,89.26C102.332,86.971,104.185,85.098,106.45,85.098L113.452,85.098C114.147,85.098,114.688,84.526,114.688,83.85C114.688,83.434,114.482,83.044,114.121,82.809L106.553,77.712C103.928,75.943,102.332,72.952,102.332,69.727C102.332,64.447,106.579,60.156,111.804,60.156L111.804,60.156ZM71.799,61.825L80.947,74.012L90.095,61.825C91.16,60.396,93.031,59.799,94.747,60.37C96.462,60.942,97.579,62.527,97.579,64.32L97.579,89.264C97.579,91.55,95.708,93.421,93.421,93.421C91.134,93.421,89.263,91.55,89.263,89.264L89.263,76.792L84.273,83.444C83.493,84.483,82.246,85.107,80.947,85.107C79.647,85.107,78.4,84.483,77.62,83.444L72.63,76.792L72.63,89.264C72.63,91.55,70.759,93.421,68.472,93.421C66.185,93.421,64.314,91.55,64.314,89.264L64.314,64.32C64.314,62.527,65.457,60.942,67.147,60.37C68.836,59.799,70.707,60.396,71.799,61.825ZM71.799,61.825"/>
</g>
  <g id="Black-M" transform="matrix(1.0,0.0,0.0,1.0,2871.3167257756295,1027.4067453068794)">  <path stroke-opacity="1" fill-opacity="1" xmlns:xlink="http://www.w3.org/1999/xlink" version="1.1" stroke-linejoin="miter" stroke-miterlimit="4" stroke-dasharray="none" fill-rule="nonzero" stroke-width="1px" stroke-linecap="butt" stroke="none" fill="#000000" d="M63.369,102.661C92.531,102.661,116.166,83.526,116.166,59.911C116.166,36.296,92.531,17.161,63.369,17.161C34.206,17.161,10.571,36.296,10.571,59.911C10.571,69.18,14.222,77.751,20.409,84.76C20.017,89.795,18.058,94.276,15.995,97.687C14.861,99.578,13.706,101.099,12.861,102.127C12.427,102.641,12.097,103.031,11.85,103.298C11.726,103.422,11.644,103.524,11.582,103.586L11.52,103.648L11.52,103.648L11.52,103.648L11.52,103.648L11.52,103.648C10.571,104.593,10.303,105.991,10.819,107.224C11.334,108.457,12.531,109.259,13.871,109.259C19.79,109.259,25.751,107.429,30.7,105.292C35.423,103.237,39.445,100.791,41.899,99.003C48.457,101.366,55.717,102.682,63.369,102.682L63.369,102.661ZM30.208,54.052C30.208,49.959,33.501,46.632,37.551,46.632L41.383,46.632C43.139,46.632,44.575,48.084,44.575,49.858C44.575,51.632,43.139,53.084,41.383,53.084L37.551,53.084C37.013,53.084,36.594,53.528,36.594,54.052C36.594,54.374,36.753,54.677,37.033,54.858L42.899,58.81C44.954,60.181,46.172,62.5,46.172,65C46.172,69.093,42.879,72.42,38.828,72.42L33.401,72.42C31.645,72.42,30.208,70.968,30.208,69.194C30.208,67.419,31.645,65.968,33.401,65.968L38.828,65.968C39.367,65.968,39.786,65.524,39.786,65C39.786,64.677,39.627,64.375,39.347,64.193L33.481,60.242C31.445,58.871,30.208,56.552,30.208,54.052ZM86.67,46.632L90.501,46.632C92.257,46.632,93.694,48.084,93.694,49.858C93.694,51.632,92.257,53.084,90.501,53.084L86.67,53.084C86.131,53.084,85.712,53.528,85.712,54.052C85.712,54.374,85.872,54.677,86.151,54.858L92.018,58.81C94.053,60.181,95.291,62.5,95.291,65C95.291,69.093,91.998,72.42,87.947,72.42L82.52,72.42C80.764,72.42,79.327,70.968,79.327,69.194C79.327,67.419,80.764,65.968,82.52,65.968L87.947,65.968C88.486,65.968,88.905,65.524,88.905,65C88.905,64.677,88.745,64.375,88.466,64.193L82.599,60.242C80.564,58.871,79.327,56.552,79.327,54.052C79.327,49.959,82.619,46.632,86.67,46.632L86.67,46.632ZM55.658,47.927L62.749,57.373L69.841,47.927C70.667,46.819,72.117,46.356,73.447,46.799C74.777,47.242,75.643,48.47,75.643,49.86L75.643,69.197C75.643,70.969,74.192,72.42,72.42,72.42C70.647,72.42,69.196,70.969,69.196,69.197L69.196,59.529L65.328,64.685C64.724,65.491,63.757,65.974,62.749,65.974C61.742,65.974,60.775,65.491,60.171,64.685L56.302,59.529L56.302,69.197C56.302,70.969,54.852,72.42,53.079,72.42C51.306,72.42,49.856,70.969,49.856,69.197L49.856,49.86C49.856,48.47,50.742,47.242,52.052,46.799C53.361,46.356,54.812,46.819,55.658,47.927ZM55.658,47.927"/>
</g>
  <g id="Heavy-M" transform="matrix(1.0,0.0,0.0,1.0,2574.6067257756295,1027.4067453068794)">  <path stroke-width="1px" xmlns:xlink="http://www.w3.org/1999/xlink" version="1.1" fill="#000000" stroke-dasharray="none" stroke-linejoin="miter" stroke-miterlimit="4" fill-rule="nonzero" stroke-opacity="1" stroke="none" stroke-linecap="butt" fill-opacity="1" d="M63.369,102.661C92.531,102.661,116.166,83.526,116.166,59.911C116.166,36.296,92.531,17.161,63.369,17.161C34.206,17.161,10.571,36.296,10.571,59.911C10.571,69.18,14.222,77.751,20.409,84.76C20.017,89.795,18.058,94.276,15.995,97.687C14.861,99.578,13.706,101.099,12.861,102.127C12.427,102.641,12.097,103.031,11.85,103.298C11.726,103.422,11.644,103.524,11.582,103.586L11.52,103.648L11.52,103.648L11.52,103.648L11.52,103.648L11.52,103.648C10.571,104.593,10.303,105.991,10.819,107.224C11.334,108.457,12.531,109.259,13.871,109.259C19.79,109.259,25.751,107.429,30.7,105.292C35.423,103.237,39.445,100.791,41.899,99.003C48.457,101.366,55.717,102.682,63.369,102.682L63.369,102.661ZM30.208,54.052C30.208,49.959,33.501,46.632,37.551,46.632L41.383,46.632C43.139,46.632,44.575,48.084,44.575,49.858C44.575,51.632,43.139,53.084,41.383,53.084L37.551,53.084C37.013,53.084,36.594,53.528,36.594,54.052C36.594,54.374,36.753,54.677,37.033,54.858L42.899,58.81C44.954,60.181,46.172,62.5,46.172,65C46.172,69.093,42.879,72.42,38.828,72.42L33.401,72.42C31.645,72.42,30.208,70.968,30.208,69.194C30.208,67.419,31.645,65.968,33.401,65.968L38.828,65.968C39.367,65.968,39.786,65.524,39.786,65C39.786,64.677,39.627,64.375,39.347,64.193L33.481,60.242C31.445,58.871,30.208,56.552,30.208,54.052ZM86.67,46.632L90.501,46.632C92.257,46.632,93.694,48.084,93.694,49.858C93.694,51.632,92.257,53.084,90.501,53.084L86.67,53.084C86.131,53.084,85.712,53.528,85.712,54.052C85.712,54.374,85.872,54.677,86.151,54.858L92.018,58.81C94.053,60.181,95.291,62.5,95.291,65C95.291,69.093,91.998,72.42,87.947,72.42L82.52,72.42C80.764,72.42,79.327,70.968,79.327,69.194C79.327,67.419,80.764,65.968,82.52,65.968L87.947,65.968C88.486,65.968,88.905,65.524,88.905,65C88.905,64.677,88.745,64.375,88.466,64.193L82.599,60.242C80.564,58.871,79.327,56.552,79.327,54.052C79.327,49.959,82.619,46.632,86.67,46.632L86.67,46.632ZM55.658,47.927L62.749,57.373L69.841,47.927C70.667,46.819,72.117,46.356,73.447,46.799C74.777,47.242,75.643,48.47,75.643,49.86L75.643,69.197C75.643,70.969,74.192,72.42,72.42,72.42C70.647,72.42,69.196,70.969,69.196,69.197L69.196,59.529L65.328,64.685C64.724,65.491,63.757,65.974,62.749,65.974C61.742,65.974,60.775,65.491,60.171,64.685L56.302,59.529L56.302,69.197C56.302,70.969,54.852,72.42,53.079,72.42C51.306,72.42,49.856,70.969,49.856,69.197L49.856,49.86C49.856,48.47,50.742,47.242,52.052,46.799C53.361,46.356,54.812,46.819,55.658,47.927ZM55.658,47.927"/>
</g>
  <g id="Bold-M" transform="matrix(1.0,0.0,0.0,1.0,2277.8967257756294,1027.4067453068794)">  <path stroke-linecap="butt" stroke-opacity="1" stroke-miterlimit="4" stroke="none" stroke-linejoin="miter" fill-rule="nonzero" stroke-width="1px" fill-opacity="1" stroke-dasharray="none" xmlns:xlink="http://www.w3.org/1999/xlink" fill="#000000" version="1.1" d="M63.369,102.661C92.531,102.661,116.166,83.526,116.166,59.911C116.166,36.296,92.531,17.161,63.369,17.161C34.206,17.161,10.571,36.296,10.571,59.911C10.571,69.18,14.222,77.751,20.409,84.76C20.017,89.795,18.058,94.276,15.995,97.687C14.861,99.578,13.706,101.099,12.861,102.127C12.427,102.641,12.097,103.031,11.85,103.298C11.726,103.422,11.644,103.524,11.582,103.586L11.52,103.648L11.52,103.648L11.52,103.648L11.52,103.648L11.52,103.648C10.571,104.593,10.303,105.991,10.819,107.224C11.334,108.457,12.531,109.259,13.871,109.259C19.79,109.259,25.751,107.429,30.7,105.292C35.423,103.237,39.445,100.791,41.899,99.003C48.457,101.366,55.717,102.682,63.369,102.682L63.369,102.661ZM30.208,54.052C30.208,49.959,33.501,46.632,37.551,46.632L41.383,46.632C43.139,46.632,44.575,48.084,44.575,49.858C44.575,51.632,43.139,53.084,41.383,53.084L37.551,53.084C37.013,53.084,36.594,53.528,36.594,54.052C36.594,54.374,36.753,54.677,37.033,54.858L42.899,58.81C44.954,60.181,46.172,62.5,46.172,65C46.172,69.093,42.879,72.42,38.828,72.42L33.401,72.42C31.645,72.42,30.208,70.968,30.208,69.194C30.208,67.419,31.645,65.968,33.401,65.968L38.828,65.968C39.367,65.968,39.786,65.524,39.786,65C39.786,64.677,39.627,64.375,39.347,64.193L33.481,60.242C31.445,58.871,30.208,56.552,30.208,54.052ZM86.67,46.632L90.501,46.632C92.257,46.632,93.694,48.084,93.694,49.858C93.694,51.632,92.257,53.084,90.501,53.084L86.67,53.084C86.131,53.084,85.712,53.528,85.712,54.052C85.712,54.374,85.872,54.677,86.151,54.858L92.018,58.81C94.053,60.181,95.291,62.5,95.291,65C95.291,69.093,91.998,72.42,87.947,72.42L82.52,72.42C80.764,72.42,79.327,70.968,79.327,69.194C79.327,67.419,80.764,65.968,82.52,65.968L87.947,65.968C88.486,65.968,88.905,65.524,88.905,65C88.905,64.677,88.745,64.375,88.466,64.193L82.599,60.242C80.564,58.871,79.327,56.552,79.327,54.052C79.327,49.959,82.619,46.632,86.67,46.632L86.67,46.632ZM55.658,47.927L62.749,57.373L69.841,47.927C70.667,46.819,72.117,46.356,73.447,46.799C74.777,47.242,75.643,48.47,75.643,49.86L75.643,69.197C75.643,70.969,74.192,72.42,72.42,72.42C70.647,72.42,69.196,70.969,69.196,69.197L69.196,59.529L65.328,64.685C64.724,65.491,63.757,65.974,62.749,65.974C61.742,65.974,60.775,65.491,60.171,64.685L56.302,59.529L56.302,69.197C56.302,70.969,54.852,72.42,53.079,72.42C51.306,72.42,49.856,70.969,49.856,69.197L49.856,49.86C49.856,48.47,50.742,47.242,52.052,46.799C53.361,46.356,54.812,46.819,55.658,47.927ZM55.658,47.927"/>
</g>
  <g id="Semibold-M" transform="matrix(1.0,0.0,0.0,1.0,1981.1867257756294,1027.4067453068794)">  <path stroke-dasharray="none" stroke-width="1px" stroke-miterlimit="4" stroke-linejoin="miter" stroke-opacity="1" fill="#000000" stroke-linecap="butt" xmlns:xlink="http://www.w3.org/1999/xlink" fill-rule="nonzero" fill-opacity="1" version="1.1" stroke="none" d="M63.369,102.661C92.531,102.661,116.166,83.526,116.166,59.911C116.166,36.296,92.531,17.161,63.369,17.161C34.206,17.161,10.571,36.296,10.571,59.911C10.571,69.18,14.222,77.751,20.409,84.76C20.017,89.795,18.058,94.276,15.995,97.687C14.861,99.578,13.706,101.099,12.861,102.127C12.427,102.641,12.097,103.031,11.85,103.298C11.726,103.422,11.644,103.524,11.582,103.586L11.52,103.648L11.52,103.648L11.52,103.648L11.52,103.648L11.52,103.648C10.571,104.593,10.303,105.991,10.819,107.224C11.334,108.457,12.531,109.259,13.871,109.259C19.79,109.259,25.751,107.429,30.7,105.292C35.423,103.237,39.445,100.791,41.899,99.003C48.457,101.366,55.717,102.682,63.369,102.682L63.369,102.661ZM30.208,54.052C30.208,49.959,33.501,46.632,37.551,46.632L41.383,46.632C43.139,46.632,44.575,48.084,44.575,49.858C44.575,51.632,43.139,53.084,41.383,53.084L37.551,53.084C37.013,53.084,36.594,53.528,36.594,54.052C36.594,54.374,36.753,54.677,37.033,54.858L42.899,58.81C44.954,60.181,46.172,62.5,46.172,65C46.172,69.093,42.879,72.42,38.828,72.42L33.401,72.42C31.645,72.42,30.208,70.968,30.208,69.194C30.208,67.419,31.645,65.968,33.401,65.968L38.828,65.968C39.367,65.968,39.786,65.524,39.786,65C39.786,64.677,39.627,64.375,39.347,64.193L33.481,60.242C31.445,58.871,30.208,56.552,30.208,54.052ZM86.67,46.632L90.501,46.632C92.257,46.632,93.694,48.084,93.694,49.858C93.694,51.632,92.257,53.084,90.501,53.084L86.67,53.084C86.131,53.084,85.712,53.528,85.712,54.052C85.712,54.374,85.872,54.677,86.151,54.858L92.018,58.81C94.053,60.181,95.291,62.5,95.291,65C95.291,69.093,91.998,72.42,87.947,72.42L82.52,72.42C80.764,72.42,79.327,70.968,79.327,69.194C79.327,67.419,80.764,65.968,82.52,65.968L87.947,65.968C88.486,65.968,88.905,65.524,88.905,65C88.905,64.677,88.745,64.375,88.466,64.193L82.599,60.242C80.564,58.871,79.327,56.552,79.327,54.052C79.327,49.959,82.619,46.632,86.67,46.632L86.67,46.632ZM55.658,47.927L62.749,57.373L69.841,47.927C70.667,46.819,72.117,46.356,73.447,46.799C74.777,47.242,75.643,48.47,75.643,49.86L75.643,69.197C75.643,70.969,74.192,72.42,72.42,72.42C70.647,72.42,69.196,70.969,69.196,69.197L69.196,59.529L65.328,64.685C64.724,65.491,63.757,65.974,62.749,65.974C61.742,65.974,60.775,65.491,60.171,64.685L56.302,59.529L56.302,69.197C56.302,70.969,54.852,72.42,53.079,72.42C51.306,72.42,49.856,70.969,49.856,69.197L49.856,49.86C49.856,48.47,50.742,47.242,52.052,46.799C53.361,46.356,54.812,46.819,55.658,47.927ZM55.658,47.927"/>
</g>
  <g id="Medium-M" transform="matrix(1.0,0.0,0.0,1.0,1684.4767257756293,1027.4067453068794)">  <path fill-rule="nonzero" stroke-miterlimit="4" fill="#000000" stroke-opacity="1" version="1.1" stroke-width="1px" stroke-dasharray="none" stroke="none" xmlns:xlink="http://www.w3.org/1999/xlink" stroke-linejoin="miter" stroke-linecap="butt" fill-opacity="1" d="M63.369,102.661C92.531,102.661,116.166,83.526,116.166,59.911C116.166,36.296,92.531,17.161,63.369,17.161C34.206,17.161,10.571,36.296,10.571,59.911C10.571,69.18,14.222,77.751,20.409,84.76C20.017,89.795,18.058,94.276,15.995,97.687C14.861,99.578,13.706,101.099,12.861,102.127C12.427,102.641,12.097,103.031,11.85,103.298C11.726,103.422,11.644,103.524,11.582,103.586L11.52,103.648L11.52,103.648L11.52,103.648L11.52,103.648L11.52,103.648C10.571,104.593,10.303,105.991,10.819,107.224C11.334,108.457,12.531,109.259,13.871,109.259C19.79,109.259,25.751,107.429,30.7,105.292C35.423,103.237,39.445,100.791,41.899,99.003C48.457,101.366,55.717,102.682,63.369,102.682L63.369,102.661ZM30.208,54.052C30.208,49.959,33.501,46.632,37.551,46.632L41.383,46.632C43.139,46.632,44.575,48.084,44.575,49.858C44.575,51.632,43.139,53.084,41.383,53.084L37.551,53.084C37.013,53.084,36.594,53.528,36.594,54.052C36.594,54.374,36.753,54.677,37.033,54.858L42.899,58.81C44.954,60.181,46.172,62.5,46.172,65C46.172,69.093,42.879,72.42,38.828,72.42L33.401,72.42C31.645,72.42,30.208,70.968,30.208,69.194C30.208,67.419,31.645,65.968,33.401,65.968L38.828,65.968C39.367,65.968,39.786,65.524,39.786,65C39.786,64.677,39.627,64.375,39.347,64.193L33.481,60.242C31.445,58.871,30.208,56.552,30.208,54.052ZM86.67,46.632L90.501,46.632C92.257,46.632,93.694,48.084,93.694,49.858C93.694,51.632,92.257,53.084,90.501,53.084L86.67,53.084C86.131,53.084,85.712,53.528,85.712,54.052C85.712,54.374,85.872,54.677,86.151,54.858L92.018,58.81C94.053,60.181,95.291,62.5,95.291,65C95.291,69.093,91.998,72.42,87.947,72.42L82.52,72.42C80.764,72.42,79.327,70.968,79.327,69.194C79.327,67.419,80.764,65.968,82.52,65.968L87.947,65.968C88.486,65.968,88.905,65.524,88.905,65C88.905,64.677,88.745,64.375,88.466,64.193L82.599,60.242C80.564,58.871,79.327,56.552,79.327,54.052C79.327,49.959,82.619,46.632,86.67,46.632L86.67,46.632ZM55.658,47.927L62.749,57.373L69.841,47.927C70.667,46.819,72.117,46.356,73.447,46.799C74.777,47.242,75.643,48.47,75.643,49.86L75.643,69.197C75.643,70.969,74.192,72.42,72.42,72.42C70.647,72.42,69.196,70.969,69.196,69.197L69.196,59.529L65.328,64.685C64.724,65.491,63.757,65.974,62.749,65.974C61.742,65.974,60.775,65.491,60.171,64.685L56.302,59.529L56.302,69.197C56.302,70.969,54.852,72.42,53.079,72.42C51.306,72.42,49.856,70.969,49.856,69.197L49.856,49.86C49.856,48.47,50.742,47.242,52.052,46.799C53.361,46.356,54.812,46.819,55.658,47.927ZM55.658,47.927"/>
</g>
  <g id="Regular-M" transform="matrix(1.0,0.0,0.0,1.0,1387.7667257756293,1027.4067453068794)">  <path stroke-linecap="butt" fill="#000000" stroke-opacity="1" stroke-width="1px" stroke-miterlimit="4" xmlns:xlink="http://www.w3.org/1999/xlink" fill-opacity="1" fill-rule="nonzero" stroke="none" stroke-dasharray="none" stroke-linejoin="miter" version="1.1" d="M63.369,102.661C92.531,102.661,116.166,83.526,116.166,59.911C116.166,36.296,92.531,17.161,63.369,17.161C34.206,17.161,10.571,36.296,10.571,59.911C10.571,69.18,14.222,77.751,20.409,84.76C20.017,89.795,18.058,94.276,15.995,97.687C14.861,99.578,13.706,101.099,12.861,102.127C12.427,102.641,12.097,103.031,11.85,103.298C11.726,103.422,11.644,103.524,11.582,103.586L11.52,103.648L11.52,103.648L11.52,103.648L11.52,103.648L11.52,103.648C10.571,104.593,10.303,105.991,10.819,107.224C11.334,108.457,12.531,109.259,13.871,109.259C19.79,109.259,25.751,107.429,30.7,105.292C35.423,103.237,39.445,100.791,41.899,99.003C48.457,101.366,55.717,102.682,63.369,102.682L63.369,102.661ZM30.208,54.052C30.208,49.959,33.501,46.632,37.551,46.632L41.383,46.632C43.139,46.632,44.575,48.084,44.575,49.858C44.575,51.632,43.139,53.084,41.383,53.084L37.551,53.084C37.013,53.084,36.594,53.528,36.594,54.052C36.594,54.374,36.753,54.677,37.033,54.858L42.899,58.81C44.954,60.181,46.172,62.5,46.172,65C46.172,69.093,42.879,72.42,38.828,72.42L33.401,72.42C31.645,72.42,30.208,70.968,30.208,69.194C30.208,67.419,31.645,65.968,33.401,65.968L38.828,65.968C39.367,65.968,39.786,65.524,39.786,65C39.786,64.677,39.627,64.375,39.347,64.193L33.481,60.242C31.445,58.871,30.208,56.552,30.208,54.052ZM86.67,46.632L90.501,46.632C92.257,46.632,93.694,48.084,93.694,49.858C93.694,51.632,92.257,53.084,90.501,53.084L86.67,53.084C86.131,53.084,85.712,53.528,85.712,54.052C85.712,54.374,85.872,54.677,86.151,54.858L92.018,58.81C94.053,60.181,95.291,62.5,95.291,65C95.291,69.093,91.998,72.42,87.947,72.42L82.52,72.42C80.764,72.42,79.327,70.968,79.327,69.194C79.327,67.419,80.764,65.968,82.52,65.968L87.947,65.968C88.486,65.968,88.905,65.524,88.905,65C88.905,64.677,88.745,64.375,88.466,64.193L82.599,60.242C80.564,58.871,79.327,56.552,79.327,54.052C79.327,49.959,82.619,46.632,86.67,46.632L86.67,46.632ZM55.658,47.927L62.749,57.373L69.841,47.927C70.667,46.819,72.117,46.356,73.447,46.799C74.777,47.242,75.643,48.47,75.643,49.86L75.643,69.197C75.643,70.969,74.192,72.42,72.42,72.42C70.647,72.42,69.196,70.969,69.196,69.197L69.196,59.529L65.328,64.685C64.724,65.491,63.757,65.974,62.749,65.974C61.742,65.974,60.775,65.491,60.171,64.685L56.302,59.529L56.302,69.197C56.302,70.969,54.852,72.42,53.079,72.42C51.306,72.42,49.856,70.969,49.856,69.197L49.856,49.86C49.856,48.47,50.742,47.242,52.052,46.799C53.361,46.356,54.812,46.819,55.658,47.927ZM55.658,47.927"/>
</g>
  <g id="Light-M" transform="matrix(1.0,0.0,0.0,1.0,1091.0567257756295,1027.4067453068794)">  <path stroke-dasharray="none" fill-rule="nonzero" stroke-linecap="butt" xmlns:xlink="http://www.w3.org/1999/xlink" fill="#000000" fill-opacity="1" stroke-linejoin="miter" stroke-width="1px" version="1.1" stroke-miterlimit="4" stroke="none" stroke-opacity="1" d="M63.369,102.661C92.531,102.661,116.166,83.526,116.166,59.911C116.166,36.296,92.531,17.161,63.369,17.161C34.206,17.161,10.571,36.296,10.571,59.911C10.571,69.18,14.222,77.751,20.409,84.76C20.017,89.795,18.058,94.276,15.995,97.687C14.861,99.578,13.706,101.099,12.861,102.127C12.427,102.641,12.097,103.031,11.85,103.298C11.726,103.422,11.644,103.524,11.582,103.586L11.52,103.648L11.52,103.648L11.52,103.648L11.52,103.648L11.52,103.648C10.571,104.593,10.303,105.991,10.819,107.224C11.334,108.457,12.531,109.259,13.871,109.259C19.79,109.259,25.751,107.429,30.7,105.292C35.423,103.237,39.445,100.791,41.899,99.003C48.457,101.366,55.717,102.682,63.369,102.682L63.369,102.661ZM30.208,54.052C30.208,49.959,33.501,46.632,37.551,46.632L41.383,46.632C43.139,46.632,44.575,48.084,44.575,49.858C44.575,51.632,43.139,53.084,41.383,53.084L37.551,53.084C37.013,53.084,36.594,53.528,36.594,54.052C36.594,54.374,36.753,54.677,37.033,54.858L42.899,58.81C44.954,60.181,46.172,62.5,46.172,65C46.172,69.093,42.879,72.42,38.828,72.42L33.401,72.42C31.645,72.42,30.208,70.968,30.208,69.194C30.208,67.419,31.645,65.968,33.401,65.968L38.828,65.968C39.367,65.968,39.786,65.524,39.786,65C39.786,64.677,39.627,64.375,39.347,64.193L33.481,60.242C31.445,58.871,30.208,56.552,30.208,54.052ZM86.67,46.632L90.501,46.632C92.257,46.632,93.694,48.084,93.694,49.858C93.694,51.632,92.257,53.084,90.501,53.084L86.67,53.084C86.131,53.084,85.712,53.528,85.712,54.052C85.712,54.374,85.872,54.677,86.151,54.858L92.018,58.81C94.053,60.181,95.291,62.5,95.291,65C95.291,69.093,91.998,72.42,87.947,72.42L82.52,72.42C80.764,72.42,79.327,70.968,79.327,69.194C79.327,67.419,80.764,65.968,82.52,65.968L87.947,65.968C88.486,65.968,88.905,65.524,88.905,65C88.905,64.677,88.745,64.375,88.466,64.193L82.599,60.242C80.564,58.871,79.327,56.552,79.327,54.052C79.327,49.959,82.619,46.632,86.67,46.632L86.67,46.632ZM55.658,47.927L62.749,57.373L69.841,47.927C70.667,46.819,72.117,46.356,73.447,46.799C74.777,47.242,75.643,48.47,75.643,49.86L75.643,69.197C75.643,70.969,74.192,72.42,72.42,72.42C70.647,72.42,69.196,70.969,69.196,69.197L69.196,59.529L65.328,64.685C64.724,65.491,63.757,65.974,62.749,65.974C61.742,65.974,60.775,65.491,60.171,64.685L56.302,59.529L56.302,69.197C56.302,70.969,54.852,72.42,53.079,72.42C51.306,72.42,49.856,70.969,49.856,69.197L49.856,49.86C49.856,48.47,50.742,47.242,52.052,46.799C53.361,46.356,54.812,46.819,55.658,47.927ZM55.658,47.927"/>
</g>
  <g id="Thin-M" transform="matrix(1.0,0.0,0.0,1.0,794.3467257756296,1027.4067453068794)">  <path stroke-linejoin="miter" stroke-linecap="butt" fill-opacity="1" stroke-opacity="1" fill-rule="nonzero" stroke-dasharray="none" version="1.1" xmlns:xlink="http://www.w3.org/1999/xlink" fill="#000000" stroke-width="1px" stroke="none" stroke-miterlimit="4" d="M63.369,102.661C92.531,102.661,116.166,83.526,116.166,59.911C116.166,36.296,92.531,17.161,63.369,17.161C34.206,17.161,10.571,36.296,10.571,59.911C10.571,69.18,14.222,77.751,20.409,84.76C20.017,89.795,18.058,94.276,15.995,97.687C14.861,99.578,13.706,101.099,12.861,102.127C12.427,102.641,12.097,103.031,11.85,103.298C11.726,103.422,11.644,103.524,11.582,103.586L11.52,103.648L11.52,103.648L11.52,103.648L11.52,103.648L11.52,103.648C10.571,104.593,10.303,105.991,10.819,107.224C11.334,108.457,12.531,109.259,13.871,109.259C19.79,109.259,25.751,107.429,30.7,105.292C35.423,103.237,39.445,100.791,41.899,99.003C48.457,101.366,55.717,102.682,63.369,102.682L63.369,102.661ZM30.208,54.052C30.208,49.959,33.501,46.632,37.551,46.632L41.383,46.632C43.139,46.632,44.575,48.084,44.575,49.858C44.575,51.632,43.139,53.084,41.383,53.084L37.551,53.084C37.013,53.084,36.594,53.528,36.594,54.052C36.594,54.374,36.753,54.677,37.033,54.858L42.899,58.81C44.954,60.181,46.172,62.5,46.172,65C46.172,69.093,42.879,72.42,38.828,72.42L33.401,72.42C31.645,72.42,30.208,70.968,30.208,69.194C30.208,67.419,31.645,65.968,33.401,65.968L38.828,65.968C39.367,65.968,39.786,65.524,39.786,65C39.786,64.677,39.627,64.375,39.347,64.193L33.481,60.242C31.445,58.871,30.208,56.552,30.208,54.052ZM86.67,46.632L90.501,46.632C92.257,46.632,93.694,48.084,93.694,49.858C93.694,51.632,92.257,53.084,90.501,53.084L86.67,53.084C86.131,53.084,85.712,53.528,85.712,54.052C85.712,54.374,85.872,54.677,86.151,54.858L92.018,58.81C94.053,60.181,95.291,62.5,95.291,65C95.291,69.093,91.998,72.42,87.947,72.42L82.52,72.42C80.764,72.42,79.327,70.968,79.327,69.194C79.327,67.419,80.764,65.968,82.52,65.968L87.947,65.968C88.486,65.968,88.905,65.524,88.905,65C88.905,64.677,88.745,64.375,88.466,64.193L82.599,60.242C80.564,58.871,79.327,56.552,79.327,54.052C79.327,49.959,82.619,46.632,86.67,46.632L86.67,46.632ZM55.658,47.927L62.749,57.373L69.841,47.927C70.667,46.819,72.117,46.356,73.447,46.799C74.777,47.242,75.643,48.47,75.643,49.86L75.643,69.197C75.643,70.969,74.192,72.42,72.42,72.42C70.647,72.42,69.196,70.969,69.196,69.197L69.196,59.529L65.328,64.685C64.724,65.491,63.757,65.974,62.749,65.974C61.742,65.974,60.775,65.491,60.171,64.685L56.302,59.529L56.302,69.197C56.302,70.969,54.852,72.42,53.079,72.42C51.306,72.42,49.856,70.969,49.856,69.197L49.856,49.86C49.856,48.47,50.742,47.242,52.052,46.799C53.361,46.356,54.812,46.819,55.658,47.927ZM55.658,47.927"/>
</g>
  <g id="Ultralight-M" transform="matrix(1.0,0.0,0.0,1.0,497.6367257756295,1027.4067453068794)">  <path stroke-dasharray="none" xmlns:xlink="http://www.w3.org/1999/xlink" stroke-linecap="butt" stroke-miterlimit="4" fill-rule="nonzero" fill="#000000" stroke-width="1px" stroke-linejoin="miter" fill-opacity="1" version="1.1" stroke-opacity="1" stroke="none" d="M63.369,102.661C92.531,102.661,116.166,83.526,116.166,59.911C116.166,36.296,92.531,17.161,63.369,17.161C34.206,17.161,10.571,36.296,10.571,59.911C10.571,69.18,14.222,77.751,20.409,84.76C20.017,89.795,18.058,94.276,15.995,97.687C14.861,99.578,13.706,101.099,12.861,102.127C12.427,102.641,12.097,103.031,11.85,103.298C11.726,103.422,11.644,103.524,11.582,103.586L11.52,103.648L11.52,103.648L11.52,103.648L11.52,103.648L11.52,103.648C10.571,104.593,10.303,105.991,10.819,107.224C11.334,108.457,12.531,109.259,13.871,109.259C19.79,109.259,25.751,107.429,30.7,105.292C35.423,103.237,39.445,100.791,41.899,99.003C48.457,101.366,55.717,102.682,63.369,102.682L63.369,102.661ZM30.208,54.052C30.208,49.959,33.501,46.632,37.551,46.632L41.383,46.632C43.139,46.632,44.575,48.084,44.575,49.858C44.575,51.632,43.139,53.084,41.383,53.084L37.551,53.084C37.013,53.084,36.594,53.528,36.594,54.052C36.594,54.374,36.753,54.677,37.033,54.858L42.899,58.81C44.954,60.181,46.172,62.5,46.172,65C46.172,69.093,42.879,72.42,38.828,72.42L33.401,72.42C31.645,72.42,30.208,70.968,30.208,69.194C30.208,67.419,31.645,65.968,33.401,65.968L38.828,65.968C39.367,65.968,39.786,65.524,39.786,65C39.786,64.677,39.627,64.375,39.347,64.193L33.481,60.242C31.445,58.871,30.208,56.552,30.208,54.052ZM86.67,46.632L90.501,46.632C92.257,46.632,93.694,48.084,93.694,49.858C93.694,51.632,92.257,53.084,90.501,53.084L86.67,53.084C86.131,53.084,85.712,53.528,85.712,54.052C85.712,54.374,85.872,54.677,86.151,54.858L92.018,58.81C94.053,60.181,95.291,62.5,95.291,65C95.291,69.093,91.998,72.42,87.947,72.42L82.52,72.42C80.764,72.42,79.327,70.968,79.327,69.194C79.327,67.419,80.764,65.968,82.52,65.968L87.947,65.968C88.486,65.968,88.905,65.524,88.905,65C88.905,64.677,88.745,64.375,88.466,64.193L82.599,60.242C80.564,58.871,79.327,56.552,79.327,54.052C79.327,49.959,82.619,46.632,86.67,46.632L86.67,46.632ZM55.658,47.927L62.749,57.373L69.841,47.927C70.667,46.819,72.117,46.356,73.447,46.799C74.777,47.242,75.643,48.47,75.643,49.86L75.643,69.197C75.643,70.969,74.192,72.42,72.42,72.42C70.647,72.42,69.196,70.969,69.196,69.197L69.196,59.529L65.328,64.685C64.724,65.491,63.757,65.974,62.749,65.974C61.742,65.974,60.775,65.491,60.171,64.685L56.302,59.529L56.302,69.197C56.302,70.969,54.852,72.42,53.079,72.42C51.306,72.42,49.856,70.969,49.856,69.197L49.856,49.86C49.856,48.47,50.742,47.242,52.052,46.799C53.361,46.356,54.812,46.819,55.658,47.927ZM55.658,47.927"/>
</g>
  <g id="Black-S" transform="matrix(1.0,0.0,0.0,1.0,2885.066556282318,611.1565758135679)">  <path stroke-opacity="1" fill-opacity="1" xmlns:xlink="http://www.w3.org/1999/xlink" version="1.1" stroke-linejoin="miter" stroke-miterlimit="4" stroke-dasharray="none" fill-rule="nonzero" stroke-width="1px" stroke-linecap="butt" stroke="none" fill="#000000" d="M49.618,80.384C72.452,80.384,90.958,65.401,90.958,46.91C90.958,28.42,72.452,13.437,49.618,13.437C26.784,13.437,8.277,28.42,8.277,46.91C8.277,54.168,11.136,60.879,15.98,66.367C15.673,70.31,14.139,73.818,12.524,76.489C11.636,77.97,10.732,79.161,10.07,79.965C9.731,80.368,9.472,80.673,9.279,80.883C9.182,80.979,9.117,81.06,9.069,81.108L9.02,81.156L9.02,81.156L9.02,81.156L9.02,81.156L9.02,81.156C8.277,81.896,8.067,82.991,8.471,83.956C8.875,84.922,9.811,85.55,10.861,85.55C15.496,85.55,20.163,84.117,24.038,82.444C27.736,80.834,30.885,78.919,32.807,77.519C37.942,79.37,43.627,80.4,49.618,80.4L49.618,80.384ZM23.653,42.323C23.653,39.118,26.231,36.513,29.403,36.513L32.403,36.513C33.778,36.513,34.902,37.65,34.902,39.039C34.902,40.428,33.778,41.565,32.403,41.565L29.403,41.565C28.981,41.565,28.653,41.912,28.653,42.323C28.653,42.575,28.778,42.812,28.996,42.954L33.59,46.048C35.199,47.122,36.152,48.937,36.152,50.895C36.152,54.1,33.574,56.705,30.403,56.705L26.153,56.705C24.778,56.705,23.653,55.568,23.653,54.179C23.653,52.789,24.778,51.653,26.153,51.653L30.403,51.653C30.825,51.653,31.153,51.305,31.153,50.895C31.153,50.642,31.028,50.406,30.809,50.263L26.215,47.169C24.622,46.096,23.653,44.28,23.653,42.323ZM67.863,36.513L70.863,36.513C72.238,36.513,73.363,37.65,73.363,39.039C73.363,40.428,72.238,41.565,70.863,41.565L67.863,41.565C67.441,41.565,67.113,41.912,67.113,42.323C67.113,42.575,67.238,42.812,67.456,42.954L72.05,46.048C73.644,47.122,74.612,48.937,74.612,50.895C74.612,54.1,72.034,56.705,68.863,56.705L64.613,56.705C63.238,56.705,62.113,55.568,62.113,54.179C62.113,52.789,63.238,51.653,64.613,51.653L68.863,51.653C69.285,51.653,69.613,51.305,69.613,50.895C69.613,50.642,69.488,50.406,69.269,50.263L64.675,47.169C63.082,46.096,62.113,44.28,62.113,42.323C62.113,39.118,64.691,36.513,67.863,36.513L67.863,36.513ZM43.58,37.527L49.133,44.923L54.685,37.527C55.332,36.659,56.468,36.296,57.509,36.643C58.55,36.99,59.228,37.952,59.228,39.041L59.228,54.181C59.228,55.569,58.093,56.705,56.705,56.705C55.316,56.705,54.181,55.569,54.181,54.181L54.181,46.611L51.152,50.648C50.679,51.279,49.921,51.658,49.133,51.658C48.344,51.658,47.587,51.279,47.114,50.648L44.085,46.611L44.085,54.181C44.085,55.569,42.949,56.705,41.561,56.705C40.173,56.705,39.037,55.569,39.037,54.181L39.037,39.041C39.037,37.952,39.731,36.99,40.756,36.643C41.782,36.296,42.917,36.659,43.58,37.527ZM43.58,37.527"/>
</g>
  <g id="Heavy-S" transform="matrix(1.0,0.0,0.0,1.0,2588.356556282318,611.1565758135679)">  <path stroke-width="1px" xmlns:xlink="http://www.w3.org/1999/xlink" version="1.1" fill="#000000" stroke-dasharray="none" stroke-linejoin="miter" stroke-miterlimit="4" fill-rule="nonzero" stroke-opacity="1" stroke="none" stroke-linecap="butt" fill-opacity="1" d="M49.618,80.384C72.452,80.384,90.958,65.401,90.958,46.91C90.958,28.42,72.452,13.437,49.618,13.437C26.784,13.437,8.277,28.42,8.277,46.91C8.277,54.168,11.136,60.879,15.98,66.367C15.673,70.31,14.139,73.818,12.524,76.489C11.636,77.97,10.732,79.161,10.07,79.965C9.731,80.368,9.472,80.673,9.279,80.883C9.182,80.979,9.117,81.06,9.069,81.108L9.02,81.156L9.02,81.156L9.02,81.156L9.02,81.156L9.02,81.156C8.277,81.896,8.067,82.991,8.471,83.956C8.875,84.922,9.811,85.55,10.861,85.55C15.496,85.55,20.163,84.117,24.038,82.444C27.736,80.834,30.885,78.919,32.807,77.519C37.942,79.37,43.627,80.4,49.618,80.4L49.618,80.384ZM23.653,42.323C23.653,39.118,26.231,36.513,29.403,36.513L32.403,36.513C33.778,36.513,34.902,37.65,34.902,39.039C34.902,40.428,33.778,41.565,32.403,41.565L29.403,41.565C28.981,41.565,28.653,41.912,28.653,42.323C28.653,42.575,28.778,42.812,28.996,42.954L33.59,46.048C35.199,47.122,36.152,48.937,36.152,50.895C36.152,54.1,33.574,56.705,30.403,56.705L26.153,56.705C24.778,56.705,23.653,55.568,23.653,54.179C23.653,52.789,24.778,51.653,26.153,51.653L30.403,51.653C30.825,51.653,31.153,51.305,31.153,50.895C31.153,50.642,31.028,50.406,30.809,50.263L26.215,47.169C24.622,46.096,23.653,44.28,23.653,42.323ZM67.863,36.513L70.863,36.513C72.238,36.513,73.363,37.65,73.363,39.039C73.363,40.428,72.238,41.565,70.863,41.565L67.863,41.565C67.441,41.565,67.113,41.912,67.113,42.323C67.113,42.575,67.238,42.812,67.456,42.954L72.05,46.048C73.644,47.122,74.612,48.937,74.612,50.895C74.612,54.1,72.034,56.705,68.863,56.705L64.613,56.705C63.238,56.705,62.113,55.568,62.113,54.179C62.113,52.789,63.238,51.653,64.613,51.653L68.863,51.653C69.285,51.653,69.613,51.305,69.613,50.895C69.613,50.642,69.488,50.406,69.269,50.263L64.675,47.169C63.082,46.096,62.113,44.28,62.113,42.323C62.113,39.118,64.691,36.513,67.863,36.513L67.863,36.513ZM43.58,37.527L49.133,44.923L54.685,37.527C55.332,36.659,56.468,36.296,57.509,36.643C58.55,36.99,59.228,37.952,59.228,39.041L59.228,54.181C59.228,55.569,58.093,56.705,56.705,56.705C55.316,56.705,54.181,55.569,54.181,54.181L54.181,46.611L51.152,50.648C50.679,51.279,49.921,51.658,49.133,51.658C48.344,51.658,47.587,51.279,47.114,50.648L44.085,46.611L44.085,54.181C44.085,55.569,42.949,56.705,41.561,56.705C40.173,56.705,39.037,55.569,39.037,54.181L39.037,39.041C39.037,37.952,39.731,36.99,40.756,36.643C41.782,36.296,42.917,36.659,43.58,37.527ZM43.58,37.527"/>
</g>
  <g id="Bold-S" transform="matrix(1.0,0.0,0.0,1.0,2291.6465562823178,611.1565758135679)">  <path stroke-linecap="butt" stroke-opacity="1" stroke-miterlimit="4" stroke="none" stroke-linejoin="miter" fill-rule="nonzero" stroke-width="1px" fill-opacity="1" stroke-dasharray="none" xmlns:xlink="http://www.w3.org/1999/xlink" fill="#000000" version="1.1" d="M49.618,80.384C72.452,80.384,90.958,65.401,90.958,46.91C90.958,28.42,72.452,13.437,49.618,13.437C26.784,13.437,8.277,28.42,8.277,46.91C8.277,54.168,11.136,60.879,15.98,66.367C15.673,70.31,14.139,73.818,12.524,76.489C11.636,77.97,10.732,79.161,10.07,79.965C9.731,80.368,9.472,80.673,9.279,80.883C9.182,80.979,9.117,81.06,9.069,81.108L9.02,81.156L9.02,81.156L9.02,81.156L9.02,81.156L9.02,81.156C8.277,81.896,8.067,82.991,8.471,83.956C8.875,84.922,9.811,85.55,10.861,85.55C15.496,85.55,20.163,84.117,24.038,82.444C27.736,80.834,30.885,78.919,32.807,77.519C37.942,79.37,43.627,80.4,49.618,80.4L49.618,80.384ZM23.653,42.323C23.653,39.118,26.231,36.513,29.403,36.513L32.403,36.513C33.778,36.513,34.902,37.65,34.902,39.039C34.902,40.428,33.778,41.565,32.403,41.565L29.403,41.565C28.981,41.565,28.653,41.912,28.653,42.323C28.653,42.575,28.778,42.812,28.996,42.954L33.59,46.048C35.199,47.122,36.152,48.937,36.152,50.895C36.152,54.1,33.574,56.705,30.403,56.705L26.153,56.705C24.778,56.705,23.653,55.568,23.653,54.179C23.653,52.789,24.778,51.653,26.153,51.653L30.403,51.653C30.825,51.653,31.153,51.305,31.153,50.895C31.153,50.642,31.028,50.406,30.809,50.263L26.215,47.169C24.622,46.096,23.653,44.28,23.653,42.323ZM67.863,36.513L70.863,36.513C72.238,36.513,73.363,37.65,73.363,39.039C73.363,40.428,72.238,41.565,70.863,41.565L67.863,41.565C67.441,41.565,67.113,41.912,67.113,42.323C67.113,42.575,67.238,42.812,67.456,42.954L72.05,46.048C73.644,47.122,74.612,48.937,74.612,50.895C74.612,54.1,72.034,56.705,68.863,56.705L64.613,56.705C63.238,56.705,62.113,55.568,62.113,54.179C62.113,52.789,63.238,51.653,64.613,51.653L68.863,51.653C69.285,51.653,69.613,51.305,69.613,50.895C69.613,50.642,69.488,50.406,69.269,50.263L64.675,47.169C63.082,46.096,62.113,44.28,62.113,42.323C62.113,39.118,64.691,36.513,67.863,36.513L67.863,36.513ZM43.58,37.527L49.133,44.923L54.685,37.527C55.332,36.659,56.468,36.296,57.509,36.643C58.55,36.99,59.228,37.952,59.228,39.041L59.228,54.181C59.228,55.569,58.093,56.705,56.705,56.705C55.316,56.705,54.181,55.569,54.181,54.181L54.181,46.611L51.152,50.648C50.679,51.279,49.921,51.658,49.133,51.658C48.344,51.658,47.587,51.279,47.114,50.648L44.085,46.611L44.085,54.181C44.085,55.569,42.949,56.705,41.561,56.705C40.173,56.705,39.037,55.569,39.037,54.181L39.037,39.041C39.037,37.952,39.731,36.99,40.756,36.643C41.782,36.296,42.917,36.659,43.58,37.527ZM43.58,37.527"/>
</g>
  <g id="Semibold-S" transform="matrix(1.0,0.0,0.0,1.0,1994.936556282318,611.1565758135679)">  <path stroke-dasharray="none" stroke-width="1px" stroke-miterlimit="4" stroke-linejoin="miter" stroke-opacity="1" fill="#000000" stroke-linecap="butt" xmlns:xlink="http://www.w3.org/1999/xlink" fill-rule="nonzero" fill-opacity="1" version="1.1" stroke="none" d="M49.618,80.384C72.452,80.384,90.958,65.401,90.958,46.91C90.958,28.42,72.452,13.437,49.618,13.437C26.784,13.437,8.277,28.42,8.277,46.91C8.277,54.168,11.136,60.879,15.98,66.367C15.673,70.31,14.139,73.818,12.524,76.489C11.636,77.97,10.732,79.161,10.07,79.965C9.731,80.368,9.472,80.673,9.279,80.883C9.182,80.979,9.117,81.06,9.069,81.108L9.02,81.156L9.02,81.156L9.02,81.156L9.02,81.156L9.02,81.156C8.277,81.896,8.067,82.991,8.471,83.956C8.875,84.922,9.811,85.55,10.861,85.55C15.496,85.55,20.163,84.117,24.038,82.444C27.736,80.834,30.885,78.919,32.807,77.519C37.942,79.37,43.627,80.4,49.618,80.4L49.618,80.384ZM23.653,42.323C23.653,39.118,26.231,36.513,29.403,36.513L32.403,36.513C33.778,36.513,34.902,37.65,34.902,39.039C34.902,40.428,33.778,41.565,32.403,41.565L29.403,41.565C28.981,41.565,28.653,41.912,28.653,42.323C28.653,42.575,28.778,42.812,28.996,42.954L33.59,46.048C35.199,47.122,36.152,48.937,36.152,50.895C36.152,54.1,33.574,56.705,30.403,56.705L26.153,56.705C24.778,56.705,23.653,55.568,23.653,54.179C23.653,52.789,24.778,51.653,26.153,51.653L30.403,51.653C30.825,51.653,31.153,51.305,31.153,50.895C31.153,50.642,31.028,50.406,30.809,50.263L26.215,47.169C24.622,46.096,23.653,44.28,23.653,42.323ZM67.863,36.513L70.863,36.513C72.238,36.513,73.363,37.65,73.363,39.039C73.363,40.428,72.238,41.565,70.863,41.565L67.863,41.565C67.441,41.565,67.113,41.912,67.113,42.323C67.113,42.575,67.238,42.812,67.456,42.954L72.05,46.048C73.644,47.122,74.612,48.937,74.612,50.895C74.612,54.1,72.034,56.705,68.863,56.705L64.613,56.705C63.238,56.705,62.113,55.568,62.113,54.179C62.113,52.789,63.238,51.653,64.613,51.653L68.863,51.653C69.285,51.653,69.613,51.305,69.613,50.895C69.613,50.642,69.488,50.406,69.269,50.263L64.675,47.169C63.082,46.096,62.113,44.28,62.113,42.323C62.113,39.118,64.691,36.513,67.863,36.513L67.863,36.513ZM43.58,37.527L49.133,44.923L54.685,37.527C55.332,36.659,56.468,36.296,57.509,36.643C58.55,36.99,59.228,37.952,59.228,39.041L59.228,54.181C59.228,55.569,58.093,56.705,56.705,56.705C55.316,56.705,54.181,55.569,54.181,54.181L54.181,46.611L51.152,50.648C50.679,51.279,49.921,51.658,49.133,51.658C48.344,51.658,47.587,51.279,47.114,50.648L44.085,46.611L44.085,54.181C44.085,55.569,42.949,56.705,41.561,56.705C40.173,56.705,39.037,55.569,39.037,54.181L39.037,39.041C39.037,37.952,39.731,36.99,40.756,36.643C41.782,36.296,42.917,36.659,43.58,37.527ZM43.58,37.527"/>
</g>
  <g id="Medium-S" transform="matrix(1.0,0.0,0.0,1.0,1698.226556282318,611.1565758135679)">  <path fill-rule="nonzero" stroke-miterlimit="4" fill="#000000" stroke-opacity="1" version="1.1" stroke-width="1px" stroke-dasharray="none" stroke="none" xmlns:xlink="http://www.w3.org/1999/xlink" stroke-linejoin="miter" stroke-linecap="butt" fill-opacity="1" d="M49.618,80.384C72.452,80.384,90.958,65.401,90.958,46.91C90.958,28.42,72.452,13.437,49.618,13.437C26.784,13.437,8.277,28.42,8.277,46.91C8.277,54.168,11.136,60.879,15.98,66.367C15.673,70.31,14.139,73.818,12.524,76.489C11.636,77.97,10.732,79.161,10.07,79.965C9.731,80.368,9.472,80.673,9.279,80.883C9.182,80.979,9.117,81.06,9.069,81.108L9.02,81.156L9.02,81.156L9.02,81.156L9.02,81.156L9.02,81.156C8.277,81.896,8.067,82.991,8.471,83.956C8.875,84.922,9.811,85.55,10.861,85.55C15.496,85.55,20.163,84.117,24.038,82.444C27.736,80.834,30.885,78.919,32.807,77.519C37.942,79.37,43.627,80.4,49.618,80.4L49.618,80.384ZM23.653,42.323C23.653,39.118,26.231,36.513,29.403,36.513L32.403,36.513C33.778,36.513,34.902,37.65,34.902,39.039C34.902,40.428,33.778,41.565,32.403,41.565L29.403,41.565C28.981,41.565,28.653,41.912,28.653,42.323C28.653,42.575,28.778,42.812,28.996,42.954L33.59,46.048C35.199,47.122,36.152,48.937,36.152,50.895C36.152,54.1,33.574,56.705,30.403,56.705L26.153,56.705C24.778,56.705,23.653,55.568,23.653,54.179C23.653,52.789,24.778,51.653,26.153,51.653L30.403,51.653C30.825,51.653,31.153,51.305,31.153,50.895C31.153,50.642,31.028,50.406,30.809,50.263L26.215,47.169C24.622,46.096,23.653,44.28,23.653,42.323ZM67.863,36.513L70.863,36.513C72.238,36.513,73.363,37.65,73.363,39.039C73.363,40.428,72.238,41.565,70.863,41.565L67.863,41.565C67.441,41.565,67.113,41.912,67.113,42.323C67.113,42.575,67.238,42.812,67.456,42.954L72.05,46.048C73.644,47.122,74.612,48.937,74.612,50.895C74.612,54.1,72.034,56.705,68.863,56.705L64.613,56.705C63.238,56.705,62.113,55.568,62.113,54.179C62.113,52.789,63.238,51.653,64.613,51.653L68.863,51.653C69.285,51.653,69.613,51.305,69.613,50.895C69.613,50.642,69.488,50.406,69.269,50.263L64.675,47.169C63.082,46.096,62.113,44.28,62.113,42.323C62.113,39.118,64.691,36.513,67.863,36.513L67.863,36.513ZM43.58,37.527L49.133,44.923L54.685,37.527C55.332,36.659,56.468,36.296,57.509,36.643C58.55,36.99,59.228,37.952,59.228,39.041L59.228,54.181C59.228,55.569,58.093,56.705,56.705,56.705C55.316,56.705,54.181,55.569,54.181,54.181L54.181,46.611L51.152,50.648C50.679,51.279,49.921,51.658,49.133,51.658C48.344,51.658,47.587,51.279,47.114,50.648L44.085,46.611L44.085,54.181C44.085,55.569,42.949,56.705,41.561,56.705C40.173,56.705,39.037,55.569,39.037,54.181L39.037,39.041C39.037,37.952,39.731,36.99,40.756,36.643C41.782,36.296,42.917,36.659,43.58,37.527ZM43.58,37.527"/>
</g>
  <g id="Regular-S" transform="matrix(1.0,0.0,0.0,1.0,1401.5165562823179,611.1565758135679)">  <path stroke-linecap="butt" fill="#000000" stroke-opacity="1" stroke-width="1px" stroke-miterlimit="4" xmlns:xlink="http://www.w3.org/1999/xlink" fill-opacity="1" fill-rule="nonzero" stroke="none" stroke-dasharray="none" stroke-linejoin="miter" version="1.1" d="M49.618,80.384C72.452,80.384,90.958,65.401,90.958,46.91C90.958,28.42,72.452,13.437,49.618,13.437C26.784,13.437,8.277,28.42,8.277,46.91C8.277,54.168,11.136,60.879,15.98,66.367C15.673,70.31,14.139,73.818,12.524,76.489C11.636,77.97,10.732,79.161,10.07,79.965C9.731,80.368,9.472,80.673,9.279,80.883C9.182,80.979,9.117,81.06,9.069,81.108L9.02,81.156L9.02,81.156L9.02,81.156L9.02,81.156L9.02,81.156C8.277,81.896,8.067,82.991,8.471,83.956C8.875,84.922,9.811,85.55,10.861,85.55C15.496,85.55,20.163,84.117,24.038,82.444C27.736,80.834,30.885,78.919,32.807,77.519C37.942,79.37,43.627,80.4,49.618,80.4L49.618,80.384ZM23.653,42.323C23.653,39.118,26.231,36.513,29.403,36.513L32.403,36.513C33.778,36.513,34.902,37.65,34.902,39.039C34.902,40.428,33.778,41.565,32.403,41.565L29.403,41.565C28.981,41.565,28.653,41.912,28.653,42.323C28.653,42.575,28.778,42.812,28.996,42.954L33.59,46.048C35.199,47.122,36.152,48.937,36.152,50.895C36.152,54.1,33.574,56.705,30.403,56.705L26.153,56.705C24.778,56.705,23.653,55.568,23.653,54.179C23.653,52.789,24.778,51.653,26.153,51.653L30.403,51.653C30.825,51.653,31.153,51.305,31.153,50.895C31.153,50.642,31.028,50.406,30.809,50.263L26.215,47.169C24.622,46.096,23.653,44.28,23.653,42.323ZM67.863,36.513L70.863,36.513C72.238,36.513,73.363,37.65,73.363,39.039C73.363,40.428,72.238,41.565,70.863,41.565L67.863,41.565C67.441,41.565,67.113,41.912,67.113,42.323C67.113,42.575,67.238,42.812,67.456,42.954L72.05,46.048C73.644,47.122,74.612,48.937,74.612,50.895C74.612,54.1,72.034,56.705,68.863,56.705L64.613,56.705C63.238,56.705,62.113,55.568,62.113,54.179C62.113,52.789,63.238,51.653,64.613,51.653L68.863,51.653C69.285,51.653,69.613,51.305,69.613,50.895C69.613,50.642,69.488,50.406,69.269,50.263L64.675,47.169C63.082,46.096,62.113,44.28,62.113,42.323C62.113,39.118,64.691,36.513,67.863,36.513L67.863,36.513ZM43.58,37.527L49.133,44.923L54.685,37.527C55.332,36.659,56.468,36.296,57.509,36.643C58.55,36.99,59.228,37.952,59.228,39.041L59.228,54.181C59.228,55.569,58.093,56.705,56.705,56.705C55.316,56.705,54.181,55.569,54.181,54.181L54.181,46.611L51.152,50.648C50.679,51.279,49.921,51.658,49.133,51.658C48.344,51.658,47.587,51.279,47.114,50.648L44.085,46.611L44.085,54.181C44.085,55.569,42.949,56.705,41.561,56.705C40.173,56.705,39.037,55.569,39.037,54.181L39.037,39.041C39.037,37.952,39.731,36.99,40.756,36.643C41.782,36.296,42.917,36.659,43.58,37.527ZM43.58,37.527"/>
</g>
  <g id="Light-S" transform="matrix(1.0,0.0,0.0,1.0,1104.806556282318,611.1565758135679)">  <path stroke-dasharray="none" fill-rule="nonzero" stroke-linecap="butt" xmlns:xlink="http://www.w3.org/1999/xlink" fill="#000000" fill-opacity="1" stroke-linejoin="miter" stroke-width="1px" version="1.1" stroke-miterlimit="4" stroke="none" stroke-opacity="1" d="M49.618,80.384C72.452,80.384,90.958,65.401,90.958,46.91C90.958,28.42,72.452,13.437,49.618,13.437C26.784,13.437,8.277,28.42,8.277,46.91C8.277,54.168,11.136,60.879,15.98,66.367C15.673,70.31,14.139,73.818,12.524,76.489C11.636,77.97,10.732,79.161,10.07,79.965C9.731,80.368,9.472,80.673,9.279,80.883C9.182,80.979,9.117,81.06,9.069,81.108L9.02,81.156L9.02,81.156L9.02,81.156L9.02,81.156L9.02,81.156C8.277,81.896,8.067,82.991,8.471,83.956C8.875,84.922,9.811,85.55,10.861,85.55C15.496,85.55,20.163,84.117,24.038,82.444C27.736,80.834,30.885,78.919,32.807,77.519C37.942,79.37,43.627,80.4,49.618,80.4L49.618,80.384ZM23.653,42.323C23.653,39.118,26.231,36.513,29.403,36.513L32.403,36.513C33.778,36.513,34.902,37.65,34.902,39.039C34.902,40.428,33.778,41.565,32.403,41.565L29.403,41.565C28.981,41.565,28.653,41.912,28.653,42.323C28.653,42.575,28.778,42.812,28.996,42.954L33.59,46.048C35.199,47.122,36.152,48.937,36.152,50.895C36.152,54.1,33.574,56.705,30.403,56.705L26.153,56.705C24.778,56.705,23.653,55.568,23.653,54.179C23.653,52.789,24.778,51.653,26.153,51.653L30.403,51.653C30.825,51.653,31.153,51.305,31.153,50.895C31.153,50.642,31.028,50.406,30.809,50.263L26.215,47.169C24.622,46.096,23.653,44.28,23.653,42.323ZM67.863,36.513L70.863,36.513C72.238,36.513,73.363,37.65,73.363,39.039C73.363,40.428,72.238,41.565,70.863,41.565L67.863,41.565C67.441,41.565,67.113,41.912,67.113,42.323C67.113,42.575,67.238,42.812,67.456,42.954L72.05,46.048C73.644,47.122,74.612,48.937,74.612,50.895C74.612,54.1,72.034,56.705,68.863,56.705L64.613,56.705C63.238,56.705,62.113,55.568,62.113,54.179C62.113,52.789,63.238,51.653,64.613,51.653L68.863,51.653C69.285,51.653,69.613,51.305,69.613,50.895C69.613,50.642,69.488,50.406,69.269,50.263L64.675,47.169C63.082,46.096,62.113,44.28,62.113,42.323C62.113,39.118,64.691,36.513,67.863,36.513L67.863,36.513ZM43.58,37.527L49.133,44.923L54.685,37.527C55.332,36.659,56.468,36.296,57.509,36.643C58.55,36.99,59.228,37.952,59.228,39.041L59.228,54.181C59.228,55.569,58.093,56.705,56.705,56.705C55.316,56.705,54.181,55.569,54.181,54.181L54.181,46.611L51.152,50.648C50.679,51.279,49.921,51.658,49.133,51.658C48.344,51.658,47.587,51.279,47.114,50.648L44.085,46.611L44.085,54.181C44.085,55.569,42.949,56.705,41.561,56.705C40.173,56.705,39.037,55.569,39.037,54.181L39.037,39.041C39.037,37.952,39.731,36.99,40.756,36.643C41.782,36.296,42.917,36.659,43.58,37.527ZM43.58,37.527"/>
</g>
  <g id="Thin-S" transform="matrix(1.0,0.0,0.0,1.0,808.0965562823179,611.1565758135679)">  <path stroke-linejoin="miter" stroke-linecap="butt" fill-opacity="1" stroke-opacity="1" fill-rule="nonzero" stroke-dasharray="none" version="1.1" xmlns:xlink="http://www.w3.org/1999/xlink" fill="#000000" stroke-width="1px" stroke="none" stroke-miterlimit="4" d="M49.618,80.384C72.452,80.384,90.958,65.401,90.958,46.91C90.958,28.42,72.452,13.437,49.618,13.437C26.784,13.437,8.277,28.42,8.277,46.91C8.277,54.168,11.136,60.879,15.98,66.367C15.673,70.31,14.139,73.818,12.524,76.489C11.636,77.97,10.732,79.161,10.07,79.965C9.731,80.368,9.472,80.673,9.279,80.883C9.182,80.979,9.117,81.06,9.069,81.108L9.02,81.156L9.02,81.156L9.02,81.156L9.02,81.156L9.02,81.156C8.277,81.896,8.067,82.991,8.471,83.956C8.875,84.922,9.811,85.55,10.861,85.55C15.496,85.55,20.163,84.117,24.038,82.444C27.736,80.834,30.885,78.919,32.807,77.519C37.942,79.37,43.627,80.4,49.618,80.4L49.618,80.384ZM23.653,42.323C23.653,39.118,26.231,36.513,29.403,36.513L32.403,36.513C33.778,36.513,34.902,37.65,34.902,39.039C34.902,40.428,33.778,41.565,32.403,41.565L29.403,41.565C28.981,41.565,28.653,41.912,28.653,42.323C28.653,42.575,28.778,42.812,28.996,42.954L33.59,46.048C35.199,47.122,36.152,48.937,36.152,50.895C36.152,54.1,33.574,56.705,30.403,56.705L26.153,56.705C24.778,56.705,23.653,55.568,23.653,54.179C23.653,52.789,24.778,51.653,26.153,51.653L30.403,51.653C30.825,51.653,31.153,51.305,31.153,50.895C31.153,50.642,31.028,50.406,30.809,50.263L26.215,47.169C24.622,46.096,23.653,44.28,23.653,42.323ZM67.863,36.513L70.863,36.513C72.238,36.513,73.363,37.65,73.363,39.039C73.363,40.428,72.238,41.565,70.863,41.565L67.863,41.565C67.441,41.565,67.113,41.912,67.113,42.323C67.113,42.575,67.238,42.812,67.456,42.954L72.05,46.048C73.644,47.122,74.612,48.937,74.612,50.895C74.612,54.1,72.034,56.705,68.863,56.705L64.613,56.705C63.238,56.705,62.113,55.568,62.113,54.179C62.113,52.789,63.238,51.653,64.613,51.653L68.863,51.653C69.285,51.653,69.613,51.305,69.613,50.895C69.613,50.642,69.488,50.406,69.269,50.263L64.675,47.169C63.082,46.096,62.113,44.28,62.113,42.323C62.113,39.118,64.691,36.513,67.863,36.513L67.863,36.513ZM43.58,37.527L49.133,44.923L54.685,37.527C55.332,36.659,56.468,36.296,57.509,36.643C58.55,36.99,59.228,37.952,59.228,39.041L59.228,54.181C59.228,55.569,58.093,56.705,56.705,56.705C55.316,56.705,54.181,55.569,54.181,54.181L54.181,46.611L51.152,50.648C50.679,51.279,49.921,51.658,49.133,51.658C48.344,51.658,47.587,51.279,47.114,50.648L44.085,46.611L44.085,54.181C44.085,55.569,42.949,56.705,41.561,56.705C40.173,56.705,39.037,55.569,39.037,54.181L39.037,39.041C39.037,37.952,39.731,36.99,40.756,36.643C41.782,36.296,42.917,36.659,43.58,37.527ZM43.58,37.527"/>
</g>
  <g id="Ultralight-S" transform="matrix(1.0,0.0,0.0,1.0,511.3865562823179,611.1565758135679)">  <path stroke-dasharray="none" xmlns:xlink="http://www.w3.org/1999/xlink" stroke-linecap="butt" stroke-miterlimit="4" fill-rule="nonzero" fill="#000000" stroke-width="1px" stroke-linejoin="miter" fill-opacity="1" version="1.1" stroke-opacity="1" stroke="none" d="M49.618,80.384C72.452,80.384,90.958,65.401,90.958,46.91C90.958,28.42,72.452,13.437,49.618,13.437C26.784,13.437,8.277,28.42,8.277,46.91C8.277,54.168,11.136,60.879,15.98,66.367C15.673,70.31,14.139,73.818,12.524,76.489C11.636,77.97,10.732,79.161,10.07,79.965C9.731,80.368,9.472,80.673,9.279,80.883C9.182,80.979,9.117,81.06,9.069,81.108L9.02,81.156L9.02,81.156L9.02,81.156L9.02,81.156L9.02,81.156C8.277,81.896,8.067,82.991,8.471,83.956C8.875,84.922,9.811,85.55,10.861,85.55C15.496,85.55,20.163,84.117,24.038,82.444C27.736,80.834,30.885,78.919,32.807,77.519C37.942,79.37,43.627,80.4,49.618,80.4L49.618,80.384ZM23.653,42.323C23.653,39.118,26.231,36.513,29.403,36.513L32.403,36.513C33.778,36.513,34.902,37.65,34.902,39.039C34.902,40.428,33.778,41.565,32.403,41.565L29.403,41.565C28.981,41.565,28.653,41.912,28.653,42.323C28.653,42.575,28.778,42.812,28.996,42.954L33.59,46.048C35.199,47.122,36.152,48.937,36.152,50.895C36.152,54.1,33.574,56.705,30.403,56.705L26.153,56.705C24.778,56.705,23.653,55.568,23.653,54.179C23.653,52.789,24.778,51.653,26.153,51.653L30.403,51.653C30.825,51.653,31.153,51.305,31.153,50.895C31.153,50.642,31.028,50.406,30.809,50.263L26.215,47.169C24.622,46.096,23.653,44.28,23.653,42.323ZM67.863,36.513L70.863,36.513C72.238,36.513,73.363,37.65,73.363,39.039C73.363,40.428,72.238,41.565,70.863,41.565L67.863,41.565C67.441,41.565,67.113,41.912,67.113,42.323C67.113,42.575,67.238,42.812,67.456,42.954L72.05,46.048C73.644,47.122,74.612,48.937,74.612,50.895C74.612,54.1,72.034,56.705,68.863,56.705L64.613,56.705C63.238,56.705,62.113,55.568,62.113,54.179C62.113,52.789,63.238,51.653,64.613,51.653L68.863,51.653C69.285,51.653,69.613,51.305,69.613,50.895C69.613,50.642,69.488,50.406,69.269,50.263L64.675,47.169C63.082,46.096,62.113,44.28,62.113,42.323C62.113,39.118,64.691,36.513,67.863,36.513L67.863,36.513ZM43.58,37.527L49.133,44.923L54.685,37.527C55.332,36.659,56.468,36.296,57.509,36.643C58.55,36.99,59.228,37.952,59.228,39.041L59.228,54.181C59.228,55.569,58.093,56.705,56.705,56.705C55.316,56.705,54.181,55.569,54.181,54.181L54.181,46.611L51.152,50.648C50.679,51.279,49.921,51.658,49.133,51.658C48.344,51.658,47.587,51.279,47.114,50.648L44.085,46.611L44.085,54.181C44.085,55.569,42.949,56.705,41.561,56.705C40.173,56.705,39.037,55.569,39.037,54.181L39.037,39.041C39.037,37.952,39.731,36.99,40.756,36.643C41.782,36.296,42.917,36.659,43.58,37.527ZM43.58,37.527"/>
</g>
 </g>
</svg>
