<?xml version="1.0" encoding="UTF-8"?>
<!-- Generator: CustomSymbols v2.7.2.48 by @serious_bret https://bretlester.com/app_content/CustomSymbols/ -->
<!-- Guides: Left/Right 0.11/0.11 Cap/Base 0.222/0.222 -->
<!-- Settings: RefScale 1.0 Min/Max Stroke Scales 0.5/2.21 -->
<!DOCTYPE svg
PUBLIC "-//W3C//DTD SVG 1.1//EN"
       "http://www.w3.org/Graphics/SVG/1.1/DTD/svg11.dtd">
<svg version="1.1" xmlns="http://www.w3.org/2000/svg" xmlns:xlink="http://www.w3.org/1999/xlink" width="3300" height="2200">
<![CDATA[<?xml version="1.0" encoding="UTF-8"?>
<svg width="96px" height="96px" viewBox="0 0 96 96" version="1.1" xmlns="http://www.w3.org/2000/svg" xmlns:xlink="http://www.w3.org/1999/xlink">
    <title>icon/medical/id-card</title>
    <g id="icon/medical/id-card" stroke="none" stroke-width="1" fill="none" fill-rule="evenodd">
        <path d="M0,21.6667143 L96,21.6667143 C96,15.7833547 91.2166667,11 85.3333333,11 L10.6666667,11 C4.78333333,11 0,15.7833547 0,21.6667143 Z M0,27.0000714 L0,75.0002857 C0,80.8836453 4.78333333,85.667 10.6666667,85.667 L85.3333333,85.667 C91.2166667,85.667 96,80.8836453 96,75.0002857 L96,27.0000714 L0,27.0000714 Z M10.6666667,73.2169444 C10.6666667,68.3002558 14.65,64.3335714 19.55,64.3335714 L39.1166667,64.3335714 C44.0333333,64.3335714 48,68.3169225 48,73.2169444 C48,74.2002821 47.2,75.0002857 46.2166667,75.0002857 L12.45,75.0002857 C11.4666667,75.0002857 10.6666667,74.2002821 10.6666667,73.2169444 Z M29.3333333,59.0002143 C23.45,59.0002143 18.6666667,54.2168596 18.6666667,48.3335 C18.6666667,42.4501404 23.45,37.6667857 29.3333333,37.6667857 C35.2166667,37.6667857 40,42.4501404 40,48.3335 C40,54.2168596 35.2166667,59.0002143 29.3333333,59.0002143 Z M58.6666667,40.3334643 C58.6666667,38.8667911 59.8666667,37.6667857 61.3333333,37.6667857 L82.6666667,37.6667857 C84.1333333,37.6667857 85.3333333,38.8667911 85.3333333,40.3334643 C85.3333333,41.8001375 84.1333333,43.0001429 82.6666667,43.0001429 L61.3333333,43.0001429 C59.8666667,43.0001429 58.6666667,41.8001375 58.6666667,40.3334643 Z M58.6666667,51.0001786 C58.6666667,49.5335054 59.8666667,48.3335 61.3333333,48.3335 L82.6666667,48.3335 C84.1333333,48.3335 85.3333333,49.5335054 85.3333333,51.0001786 C85.3333333,52.4668518 84.1333333,53.6668571 82.6666667,53.6668571 L61.3333333,53.6668571 C59.8666667,53.6668571 58.6666667,52.4668518 58.6666667,51.0001786 Z M58.6666667,61.6668929 C58.6666667,60.2002196 59.8666667,59.0002143 61.3333333,59.0002143 L82.6666667,59.0002143 C84.1333333,59.0002143 85.3333333,60.2002196 85.3333333,61.6668929 C85.3333333,63.1335661 84.1333333,64.3335714 82.6666667,64.3335714 L61.3333333,64.3335714 C59.8666667,64.3335714 58.6666667,63.1335661 58.6666667,61.6668929 Z" id="Shape" fill="#FB4C6C" fill-rule="nonzero"></path>
    </g>
</svg>]]>
 <g id="Notes">
  <rect height="2200" id="artboard" style="fill:white;opacity:1" width="3300" x="0" y="0"/>
  <line id="" style="fill:none;stroke:black;opacity:1;stroke-width:0.5;" x1="263" x2="3036" y1="292" y2="292"/>
  <text id="reftext1" style="stroke:none;fill:black;font-family:-apple-system,&quot;SF Pro Display&quot;,&quot;SF Pro Text&quot;,Helvetica,sans-serif;font-weight:bold;" transform="matrix(1 0 0 1 263 322)">Weight/Scale Variations</text>
  <text id="reftext2" style="stroke:none;fill:black;font-family:-apple-system,&quot;SF Pro Display&quot;,&quot;SF Pro Text&quot;,Helvetica,sans-serif;text-anchor:middle;" transform="matrix(1 0 0 1 559.711 322)">Ultralight</text>
  <text style="stroke:none;fill:black;font-family:-apple-system,&quot;SF Pro Display&quot;,&quot;SF Pro Text&quot;,Helvetica,sans-serif;text-anchor:middle;" transform="matrix(1 0 0 1 856.422 322)">Thin</text>
  <text style="stroke:none;fill:black;font-family:-apple-system,&quot;SF Pro Display&quot;,&quot;SF Pro Text&quot;,Helvetica,sans-serif;text-anchor:middle;" transform="matrix(1 0 0 1 1153.13 322)">Light</text>
  <text style="stroke:none;fill:black;font-family:-apple-system,&quot;SF Pro Display&quot;,&quot;SF Pro Text&quot;,Helvetica,sans-serif;text-anchor:middle;" transform="matrix(1 0 0 1 1449.84 322)">Regular</text>
  <text style="stroke:none;fill:black;font-family:-apple-system,&quot;SF Pro Display&quot;,&quot;SF Pro Text&quot;,Helvetica,sans-serif;text-anchor:middle;" transform="matrix(1 0 0 1 1746.56 322)">Medium</text>
  <text style="stroke:none;fill:black;font-family:-apple-system,&quot;SF Pro Display&quot;,&quot;SF Pro Text&quot;,Helvetica,sans-serif;text-anchor:middle;" transform="matrix(1 0 0 1 2043.27 322)">Semibold</text>
  <text style="stroke:none;fill:black;font-family:-apple-system,&quot;SF Pro Display&quot;,&quot;SF Pro Text&quot;,Helvetica,sans-serif;text-anchor:middle;" transform="matrix(1 0 0 1 2339.98 322)">Bold</text>
  <text style="stroke:none;fill:black;font-family:-apple-system,&quot;SF Pro Display&quot;,&quot;SF Pro Text&quot;,Helvetica,sans-serif;text-anchor:middle;" transform="matrix(1 0 0 1 2636.69 322)">Heavy</text>
  <text style="stroke:none;fill:black;font-family:-apple-system,&quot;SF Pro Display&quot;,&quot;SF Pro Text&quot;,Helvetica,sans-serif;text-anchor:middle;" transform="matrix(1 0 0 1 2933.4 322)">Black</text>
  <line id="" style="fill:none;stroke:black;opacity:1;stroke-width:0.5;" x1="263" x2="3036" y1="1903" y2="1903"/>
  <g id="" transform="matrix(1 0 0 1 263 1933)">
   <path d="M9.24805 0.830078C13.5547 0.830078 17.1387-2.74414 17.1387-7.05078C17.1387-11.3574 13.5449-14.9316 9.23828-14.9316C4.94141-14.9316 1.36719-11.3574 1.36719-7.05078C1.36719-2.74414 4.95117 0.830078 9.24805 0.830078ZM9.24805-0.654297C5.70312-0.654297 2.87109-3.49609 2.87109-7.05078C2.87109-10.6055 5.69336-13.4473 9.23828-13.4473C12.793-13.4473 15.6348-10.6055 15.6445-7.05078C15.6543-3.49609 12.8027-0.654297 9.24805-0.654297ZM6.39648-6.31836L8.50586-6.31836L8.50586-4.19922C8.50586-3.75977 8.79883-3.45703 9.22852-3.45703C9.67773-3.45703 9.9707-3.75977 9.9707-4.19922L9.9707-6.31836L12.0996-6.31836C12.5391-6.31836 12.8418-6.61133 12.8418-7.04102C12.8418-7.48047 12.5391-7.7832 12.0996-7.7832L9.9707-7.7832L9.9707-9.89258C9.9707-10.3418 9.67773-10.6445 9.22852-10.6445C8.79883-10.6445 8.50586-10.3418 8.50586-9.89258L8.50586-7.7832L6.39648-7.7832C5.94727-7.7832 5.64453-7.48047 5.64453-7.04102C5.64453-6.61133 5.94727-6.31836 6.39648-6.31836Z"/>
  </g>
  <g id="" transform="matrix(1 0 0 1 281.506 1933)">
   <path d="M11.709 2.91016C17.1582 2.91016 21.6699-1.61133 21.6699-7.05078C21.6699-12.5 17.1484-17.0117 11.6992-17.0117C6.25977-17.0117 1.74805-12.5 1.74805-7.05078C1.74805-1.61133 6.26953 2.91016 11.709 2.91016ZM11.709 1.25C7.09961 1.25 3.41797-2.44141 3.41797-7.05078C3.41797-11.6602 7.08984-15.3516 11.6992-15.3516C16.3086-15.3516 20-11.6602 20.0098-7.05078C20.0195-2.44141 16.3184 1.25 11.709 1.25ZM7.98828-6.23047L10.8789-6.23047L10.8789-3.32031C10.8789-2.83203 11.2109-2.5 11.6895-2.5C12.1777-2.5 12.5195-2.83203 12.5195-3.32031L12.5195-6.23047L15.4297-6.23047C15.918-6.23047 16.25-6.5625 16.25-7.04102C16.25-7.5293 15.918-7.87109 15.4297-7.87109L12.5195-7.87109L12.5195-10.7617C12.5195-11.2695 12.1777-11.6016 11.6895-11.6016C11.2109-11.6016 10.8789-11.2598 10.8789-10.7617L10.8789-7.87109L7.98828-7.87109C7.48047-7.87109 7.14844-7.5293 7.14844-7.04102C7.14844-6.5625 7.49023-6.23047 7.98828-6.23047Z"/>
  </g>
  <g id="" transform="matrix(1 0 0 1 304.924 1933)">
   <path d="M14.9707 5.66406C21.9336 5.66406 27.6953-0.0976562 27.6953-7.05078C27.6953-14.0137 21.9238-19.7754 14.9609-19.7754C8.00781-19.7754 2.25586-14.0137 2.25586-7.05078C2.25586-0.0976562 8.01758 5.66406 14.9707 5.66406ZM14.9707 3.84766C8.93555 3.84766 4.08203-1.01562 4.08203-7.05078C4.08203-13.0957 8.92578-17.9492 14.9609-17.9492C21.0059-17.9492 25.8594-13.0957 25.8691-7.05078C25.8789-1.01562 21.0156 3.84766 14.9707 3.84766ZM10.0586-6.14258L14.0625-6.14258L14.0625-2.12891C14.0625-1.5918 14.4336-1.2207 14.9512-1.2207C15.4883-1.2207 15.8594-1.5918 15.8594-2.12891L15.8594-6.14258L19.8828-6.14258C20.4102-6.14258 20.791-6.51367 20.791-7.03125C20.791-7.56836 20.4199-7.94922 19.8828-7.94922L15.8594-7.94922L15.8594-11.9531C15.8594-12.5098 15.4883-12.8809 14.9512-12.8809C14.4336-12.8809 14.0625-12.5 14.0625-11.9531L14.0625-7.94922L10.0586-7.94922C9.50195-7.94922 9.13086-7.56836 9.13086-7.03125C9.13086-6.51367 9.51172-6.14258 10.0586-6.14258Z"/>
  </g>
  <text style="stroke:none;fill:black;font-family:-apple-system,&quot;SF Pro Display&quot;,&quot;SF Pro Text&quot;,Helvetica,sans-serif;font-weight:bold;" transform="matrix(1 0 0 1 263 1953)">Design Variations</text>
  <text style="stroke:none;fill:black;font-family:-apple-system,&quot;SF Pro Display&quot;,&quot;SF Pro Text&quot;,Helvetica,sans-serif;" transform="matrix(1 0 0 1 263 1971)">Symbols are supported in up to nine weights and three scales.</text>
  <text style="stroke:none;fill:black;font-family:-apple-system,&quot;SF Pro Display&quot;,&quot;SF Pro Text&quot;,Helvetica,sans-serif;" transform="matrix(1 0 0 1 263 1989)">For optimal layout with text and other symbols, vertically align</text>
  <text style="stroke:none;fill:black;font-family:-apple-system,&quot;SF Pro Display&quot;,&quot;SF Pro Text&quot;,Helvetica,sans-serif;" transform="matrix(1 0 0 1 263 2007)">symbols with the adjacent text.</text>
  <line id="" style="fill:none;stroke:#00AEEF;stroke-width:0.5;opacity:1.0;" x1="776" x2="776" y1="1919" y2="1933"/>
  <g id="" transform="matrix(1 0 0 1 776 1933)">
   <path d="M3.31055 0.126953C3.82812 0.126953 4.08203-0.0683594 4.26758-0.605469L5.52734-4.0625L11.2891-4.0625L12.5488-0.605469C12.7344-0.0683594 12.9883 0.126953 13.4961 0.126953C14.0137 0.126953 14.3457-0.185547 14.3457-0.673828C14.3457-0.839844 14.3164-0.986328 14.2383-1.20117L9.6582-13.3887C9.43359-13.9941 9.0332-14.2871 8.4082-14.2871C7.80273-14.2871 7.39258-13.9941 7.17773-13.3984L2.59766-1.19141C2.51953-0.976562 2.49023-0.830078 2.49023-0.664062C2.49023-0.175781 2.80273 0.126953 3.31055 0.126953ZM6.00586-5.53711L8.37891-12.1094L8.42773-12.1094L10.8008-5.53711Z"/>
  </g>
  <line id="" style="fill:none;stroke:#00AEEF;stroke-width:0.5;opacity:1.0;" x1="792.836" x2="792.836" y1="1919" y2="1933"/>
  <text style="stroke:none;fill:black;font-family:-apple-system,&quot;SF Pro Display&quot;,&quot;SF Pro Text&quot;,Helvetica,sans-serif;font-weight:bold;" transform="matrix(1 0 0 1 776 1953)">Margins</text>
  <text style="stroke:none;fill:black;font-family:-apple-system,&quot;SF Pro Display&quot;,&quot;SF Pro Text&quot;,Helvetica,sans-serif;" transform="matrix(1 0 0 1 776 1971)">Leading and trailing margins on the left and right side of each symbol</text>
  <text style="stroke:none;fill:black;font-family:-apple-system,&quot;SF Pro Display&quot;,&quot;SF Pro Text&quot;,Helvetica,sans-serif;" transform="matrix(1 0 0 1 776 1989)">can be adjusted by modifying the x-location of the margin guidelines.</text>
  <text style="stroke:none;fill:black;font-family:-apple-system,&quot;SF Pro Display&quot;,&quot;SF Pro Text&quot;,Helvetica,sans-serif;" transform="matrix(1 0 0 1 776 2007)">Modifications are automatically applied proportionally to all</text>
  <text style="stroke:none;fill:black;font-family:-apple-system,&quot;SF Pro Display&quot;,&quot;SF Pro Text&quot;,Helvetica,sans-serif;" transform="matrix(1 0 0 1 776 2025)">scales and weights.</text>
  <g id="" transform="matrix(1 0 0 1 1289 1933)">
   <path d="M2.8418 1.86523L4.54102 3.57422C5.40039 4.44336 6.38672 4.38477 7.31445 3.35938L17.4902-7.85156C17.7539-7.76367 18.0273-7.7832 18.3398-7.8418L19.4043-8.03711L20.0684-7.36328L20.0293-6.80664C19.9902-6.30859 20.1172-5.92773 20.6055-5.44922L21.3672-4.70703C21.8457-4.22852 22.4609-4.19922 22.9297-4.66797L25.8398-7.58789C26.3086-8.05664 26.2891-8.65234 25.8105-9.13086L25.0391-9.89258C24.5605-10.3711 24.1895-10.5273 23.7109-10.4883L23.1348-10.4395L22.4902-11.0742L22.7344-12.1973C22.8613-12.7637 22.7051-13.2031 22.1191-13.7891L19.9219-15.9766C16.582-19.2969 12.1484-19.2188 9.25781-16.3281C8.83789-15.918 8.80859-15.3418 9.04297-14.9512C9.27734-14.5898 9.73633-14.3555 10.3809-14.5215C11.8457-14.8633 13.3691-14.9219 14.7949-13.9844L14.209-12.5293C14.0137-12.0508 13.9844-11.6504 14.1113-11.2891L3.04688-0.898438C2.06055 0.0195312 1.98242 0.996094 2.8418 1.86523ZM10.752-15.957C13.1836-17.7344 16.4746-17.4316 18.7012-15.2051L21.1328-12.793C21.3672-12.5586 21.4062-12.373 21.3379-12.0312L21.0156-10.5469L22.5195-9.0625L23.5059-9.12109C23.7598-9.13086 23.8379-9.11133 24.0332-8.91602L24.6094-8.33984L22.168-5.89844L21.5918-6.47461C21.3965-6.66992 21.3672-6.74805 21.377-7.01172L21.4453-7.98828L19.9512-9.47266L18.4277-9.21875C18.1055-9.15039 17.959-9.17969 17.7148-9.41406L15.7129-11.416C15.459-11.6504 15.4297-11.8164 15.5859-12.1875L16.4648-14.2773C14.9023-15.7324 12.8711-16.3574 10.8398-15.7617C10.6836-15.7227 10.625-15.8496 10.752-15.957ZM5.27344 2.30469L4.10156 1.14258C3.63281 0.683594 3.74023 0.341797 4.14062-0.0195312L14.9512-10.1953L16.416-8.71094L6.42578 2.27539C6.07422 2.67578 5.74219 2.77344 5.27344 2.30469Z"/>
  </g>
  <text style="stroke:none;fill:black;font-family:-apple-system,&quot;SF Pro Display&quot;,&quot;SF Pro Text&quot;,Helvetica,sans-serif;font-weight:bold;" transform="matrix(1 0 0 1 1289 1953)">Exporting</text>
  <text style="stroke:none;fill:black;font-family:-apple-system,&quot;SF Pro Display&quot;,&quot;SF Pro Text&quot;,Helvetica,sans-serif;" transform="matrix(1 0 0 1 1289 1971)">Symbols should be outlined when exporting to ensure the</text>
  <text style="stroke:none;fill:black;font-family:-apple-system,&quot;SF Pro Display&quot;,&quot;SF Pro Text&quot;,Helvetica,sans-serif;" transform="matrix(1 0 0 1 1289 1989)">design is preserved when submitting to Xcode.</text>
  <text id="template-version" style="stroke:none;fill:black;font-family:-apple-system,&quot;SF Pro Display&quot;,&quot;SF Pro Text&quot;,Helvetica,sans-serif;text-anchor:end;" transform="matrix(1 0 0 1 3036 1933)">Template v.2.0</text>
  <text style="stroke:none;fill:black;font-family:-apple-system,&quot;SF Pro Display&quot;,&quot;SF Pro Text&quot;,Helvetica,sans-serif;text-anchor:end;" transform="matrix(1 0 0 1 3036 1951)">Requires Xcode 12 or greater</text>
  <text style="stroke:none;fill:black;font-family:-apple-system,&quot;SF Pro Display&quot;,&quot;SF Pro Text&quot;,Helvetica,sans-serif;" transform="matrix(1 0 0 1 263 726)">Small</text>
  <text style="stroke:none;fill:black;font-family:-apple-system,&quot;SF Pro Display&quot;,&quot;SF Pro Text&quot;,Helvetica,sans-serif;" transform="matrix(1 0 0 1 263 1156)">Medium</text>
  <text style="stroke:none;fill:black;font-family:-apple-system,&quot;SF Pro Display&quot;,&quot;SF Pro Text&quot;,Helvetica,sans-serif;" transform="matrix(1 0 0 1 263 1586)">Large</text>
 </g>
 <g id="Guides">
  <g id="H-reference" style="fill:#27AAE1;stroke:none;" transform="matrix(1 0 0 1 339 696)">
   <path d="M0.976562 0L3.66211 0L12.9883-24.4629L45.752-24.4629L55.127 0L57.7637 0L30.6152-70.459L28.125-70.459ZM29.3457-67.1387L29.4434-67.1387L44.873-26.709L13.8672-26.709Z"/>
  </g>
  <line id="Baseline-S" style="fill:none;stroke:#27AAE1;opacity:1;stroke-width:0.5;" x1="263" x2="3036" y1="696" y2="696"/>
  <line id="Capline-S" style="fill:none;stroke:#27AAE1;opacity:1;stroke-width:0.5;" x1="263" x2="3036" y1="625.541" y2="625.541"/>
  <g id="H-reference" style="fill:#27AAE1;stroke:none;" transform="matrix(1 0 0 1 339 1126)">
   <path d="M0.976562 0L3.66211 0L12.9883-24.4629L45.752-24.4629L55.127 0L57.7637 0L30.6152-70.459L28.125-70.459ZM29.3457-67.1387L29.4434-67.1387L44.873-26.709L13.8672-26.709Z"/>
  </g>
  <line id="Baseline-M" style="fill:none;stroke:#27AAE1;opacity:1;stroke-width:0.5;" x1="263" x2="3036" y1="1126" y2="1126"/>
  <line id="Capline-M" style="fill:none;stroke:#27AAE1;opacity:1;stroke-width:0.5;" x1="263" x2="3036" y1="1055.54" y2="1055.54"/>
  <g id="H-reference" style="fill:#27AAE1;stroke:none;" transform="matrix(1 0 0 1 339 1556)">
   <path d="M0.976562 0L3.66211 0L12.9883-24.4629L45.752-24.4629L55.127 0L57.7637 0L30.6152-70.459L28.125-70.459ZM29.3457-67.1387L29.4434-67.1387L44.873-26.709L13.8672-26.709Z"/>
  </g>
  <line id="Baseline-L" style="fill:none;stroke:#27AAE1;opacity:1;stroke-width:0.5;" x1="263" x2="3036" y1="1556" y2="1556"/>
  <line id="Capline-L" style="fill:none;stroke:#27AAE1;opacity:1;stroke-width:0.5;" x1="263" x2="3036" y1="1485.54" y2="1485.54"/>
  <line id="left-margin" x1="1401.7066461049908" x2="1401.7066461049908" y1="1030.79" y2="1150.12" style="fill:none;stroke:#00AEEF;stroke-width:0.5;opacity:1.0;"/>
  <line id="right-margin" x1="1500.553353895009" x2="1500.553353895009" y1="1030.79" y2="1150.12" style="fill:none;stroke:#00AEEF;stroke-width:0.5;opacity:1.0;"/>
 </g>
 <g id="Symbols">
  <g id="Black-L" transform="matrix(1.0,0.0,0.0,1.0,2852.941376250562,1439.031395781812)">  <path stroke-miterlimit="4" stroke-opacity="1" stroke-dasharray="none" fill="#000000" stroke-linejoin="miter" fill-opacity="1" fill-rule="nonzero" stroke="none" stroke-width="1px" xmlns:xlink="http://www.w3.org/1999/xlink" version="1.1" stroke-linecap="butt" d="M0,36.896L163.477,36.896C163.477,26.877,155.332,18.732,145.313,18.732L18.164,18.732C8.145,18.732,0,26.877,0,36.896ZM0,45.978L0,127.717C0,137.736,8.145,145.881,18.164,145.881L145.313,145.881C155.332,145.881,163.477,137.736,163.477,127.717L163.477,45.978L0,45.978ZM18.164,124.68C18.164,116.308,24.947,109.553,33.291,109.553L66.611,109.553C74.984,109.553,81.739,116.336,81.739,124.68C81.739,126.355,80.376,127.717,78.702,127.717L21.201,127.717C19.526,127.717,18.164,126.355,18.164,124.68ZM49.951,100.471C39.933,100.471,31.787,92.325,31.787,82.307C31.787,72.288,39.933,64.142,49.951,64.142C59.97,64.142,68.116,72.288,68.116,82.307C68.116,92.325,59.97,100.471,49.951,100.471ZM99.903,68.683C99.903,66.186,101.946,64.142,104.444,64.142L140.772,64.142C143.27,64.142,145.313,66.186,145.313,68.683C145.313,71.181,143.27,73.224,140.772,73.224L104.444,73.224C101.946,73.224,99.903,71.181,99.903,68.683ZM99.903,86.848C99.903,84.35,101.946,82.307,104.444,82.307L140.772,82.307C143.27,82.307,145.313,84.35,145.313,86.848C145.313,89.345,143.27,91.389,140.772,91.389L104.444,91.389C101.946,91.389,99.903,89.345,99.903,86.848ZM99.903,105.012C99.903,102.514,101.946,100.471,104.444,100.471L140.772,100.471C143.27,100.471,145.313,102.514,145.313,105.012C145.313,107.509,143.27,109.553,140.772,109.553L104.444,109.553C101.946,109.553,99.903,107.509,99.903,105.012ZM99.903,105.012"/>
</g>
  <g id="Heavy-L" transform="matrix(1.0,0.0,0.0,1.0,2556.231376250562,1439.031395781812)">  <path fill="#000000" stroke-linecap="butt" xmlns:xlink="http://www.w3.org/1999/xlink" version="1.1" stroke-miterlimit="4" stroke-linejoin="miter" stroke="none" stroke-dasharray="none" fill-opacity="1" fill-rule="nonzero" stroke-opacity="1" stroke-width="1px" d="M0,36.896L163.477,36.896C163.477,26.877,155.332,18.732,145.313,18.732L18.164,18.732C8.145,18.732,0,26.877,0,36.896ZM0,45.978L0,127.717C0,137.736,8.145,145.881,18.164,145.881L145.313,145.881C155.332,145.881,163.477,137.736,163.477,127.717L163.477,45.978L0,45.978ZM18.164,124.68C18.164,116.308,24.947,109.553,33.291,109.553L66.611,109.553C74.984,109.553,81.739,116.336,81.739,124.68C81.739,126.355,80.376,127.717,78.702,127.717L21.201,127.717C19.526,127.717,18.164,126.355,18.164,124.68ZM49.951,100.471C39.933,100.471,31.787,92.325,31.787,82.307C31.787,72.288,39.933,64.142,49.951,64.142C59.97,64.142,68.116,72.288,68.116,82.307C68.116,92.325,59.97,100.471,49.951,100.471ZM99.903,68.683C99.903,66.186,101.946,64.142,104.444,64.142L140.772,64.142C143.27,64.142,145.313,66.186,145.313,68.683C145.313,71.181,143.27,73.224,140.772,73.224L104.444,73.224C101.946,73.224,99.903,71.181,99.903,68.683ZM99.903,86.848C99.903,84.35,101.946,82.307,104.444,82.307L140.772,82.307C143.27,82.307,145.313,84.35,145.313,86.848C145.313,89.345,143.27,91.389,140.772,91.389L104.444,91.389C101.946,91.389,99.903,89.345,99.903,86.848ZM99.903,105.012C99.903,102.514,101.946,100.471,104.444,100.471L140.772,100.471C143.27,100.471,145.313,102.514,145.313,105.012C145.313,107.509,143.27,109.553,140.772,109.553L104.444,109.553C101.946,109.553,99.903,107.509,99.903,105.012ZM99.903,105.012"/>
</g>
  <g id="Bold-L" transform="matrix(1.0,0.0,0.0,1.0,2259.521376250562,1439.031395781812)">  <path stroke-linecap="butt" stroke-width="1px" fill-opacity="1" stroke-opacity="1" stroke-dasharray="none" xmlns:xlink="http://www.w3.org/1999/xlink" fill="#000000" stroke="none" stroke-linejoin="miter" stroke-miterlimit="4" version="1.1" fill-rule="nonzero" d="M0,36.896L163.477,36.896C163.477,26.877,155.332,18.732,145.313,18.732L18.164,18.732C8.145,18.732,0,26.877,0,36.896ZM0,45.978L0,127.717C0,137.736,8.145,145.881,18.164,145.881L145.313,145.881C155.332,145.881,163.477,137.736,163.477,127.717L163.477,45.978L0,45.978ZM18.164,124.68C18.164,116.308,24.947,109.553,33.291,109.553L66.611,109.553C74.984,109.553,81.739,116.336,81.739,124.68C81.739,126.355,80.376,127.717,78.702,127.717L21.201,127.717C19.526,127.717,18.164,126.355,18.164,124.68ZM49.951,100.471C39.933,100.471,31.787,92.325,31.787,82.307C31.787,72.288,39.933,64.142,49.951,64.142C59.97,64.142,68.116,72.288,68.116,82.307C68.116,92.325,59.97,100.471,49.951,100.471ZM99.903,68.683C99.903,66.186,101.946,64.142,104.444,64.142L140.772,64.142C143.27,64.142,145.313,66.186,145.313,68.683C145.313,71.181,143.27,73.224,140.772,73.224L104.444,73.224C101.946,73.224,99.903,71.181,99.903,68.683ZM99.903,86.848C99.903,84.35,101.946,82.307,104.444,82.307L140.772,82.307C143.27,82.307,145.313,84.35,145.313,86.848C145.313,89.345,143.27,91.389,140.772,91.389L104.444,91.389C101.946,91.389,99.903,89.345,99.903,86.848ZM99.903,105.012C99.903,102.514,101.946,100.471,104.444,100.471L140.772,100.471C143.27,100.471,145.313,102.514,145.313,105.012C145.313,107.509,143.27,109.553,140.772,109.553L104.444,109.553C101.946,109.553,99.903,107.509,99.903,105.012ZM99.903,105.012"/>
</g>
  <g id="Semibold-L" transform="matrix(1.0,0.0,0.0,1.0,1962.811376250562,1439.031395781812)">  <path fill="#000000" fill-opacity="1" stroke-dasharray="none" stroke-width="1px" stroke-linecap="butt" stroke-opacity="1" version="1.1" fill-rule="nonzero" stroke-miterlimit="4" xmlns:xlink="http://www.w3.org/1999/xlink" stroke="none" stroke-linejoin="miter" d="M0,36.896L163.477,36.896C163.477,26.877,155.332,18.732,145.313,18.732L18.164,18.732C8.145,18.732,0,26.877,0,36.896ZM0,45.978L0,127.717C0,137.736,8.145,145.881,18.164,145.881L145.313,145.881C155.332,145.881,163.477,137.736,163.477,127.717L163.477,45.978L0,45.978ZM18.164,124.68C18.164,116.308,24.947,109.553,33.291,109.553L66.611,109.553C74.984,109.553,81.739,116.336,81.739,124.68C81.739,126.355,80.376,127.717,78.702,127.717L21.201,127.717C19.526,127.717,18.164,126.355,18.164,124.68ZM49.951,100.471C39.933,100.471,31.787,92.325,31.787,82.307C31.787,72.288,39.933,64.142,49.951,64.142C59.97,64.142,68.116,72.288,68.116,82.307C68.116,92.325,59.97,100.471,49.951,100.471ZM99.903,68.683C99.903,66.186,101.946,64.142,104.444,64.142L140.772,64.142C143.27,64.142,145.313,66.186,145.313,68.683C145.313,71.181,143.27,73.224,140.772,73.224L104.444,73.224C101.946,73.224,99.903,71.181,99.903,68.683ZM99.903,86.848C99.903,84.35,101.946,82.307,104.444,82.307L140.772,82.307C143.27,82.307,145.313,84.35,145.313,86.848C145.313,89.345,143.27,91.389,140.772,91.389L104.444,91.389C101.946,91.389,99.903,89.345,99.903,86.848ZM99.903,105.012C99.903,102.514,101.946,100.471,104.444,100.471L140.772,100.471C143.27,100.471,145.313,102.514,145.313,105.012C145.313,107.509,143.27,109.553,140.772,109.553L104.444,109.553C101.946,109.553,99.903,107.509,99.903,105.012ZM99.903,105.012"/>
</g>
  <g id="Medium-L" transform="matrix(1.0,0.0,0.0,1.0,1666.101376250562,1439.031395781812)">  <path fill-opacity="1" fill="#000000" stroke-linecap="butt" stroke-width="1px" version="1.1" stroke-opacity="1" stroke="none" stroke-dasharray="none" stroke-linejoin="miter" fill-rule="nonzero" xmlns:xlink="http://www.w3.org/1999/xlink" stroke-miterlimit="4" d="M0,36.896L163.477,36.896C163.477,26.877,155.332,18.732,145.313,18.732L18.164,18.732C8.145,18.732,0,26.877,0,36.896ZM0,45.978L0,127.717C0,137.736,8.145,145.881,18.164,145.881L145.313,145.881C155.332,145.881,163.477,137.736,163.477,127.717L163.477,45.978L0,45.978ZM18.164,124.68C18.164,116.308,24.947,109.553,33.291,109.553L66.611,109.553C74.984,109.553,81.739,116.336,81.739,124.68C81.739,126.355,80.376,127.717,78.702,127.717L21.201,127.717C19.526,127.717,18.164,126.355,18.164,124.68ZM49.951,100.471C39.933,100.471,31.787,92.325,31.787,82.307C31.787,72.288,39.933,64.142,49.951,64.142C59.97,64.142,68.116,72.288,68.116,82.307C68.116,92.325,59.97,100.471,49.951,100.471ZM99.903,68.683C99.903,66.186,101.946,64.142,104.444,64.142L140.772,64.142C143.27,64.142,145.313,66.186,145.313,68.683C145.313,71.181,143.27,73.224,140.772,73.224L104.444,73.224C101.946,73.224,99.903,71.181,99.903,68.683ZM99.903,86.848C99.903,84.35,101.946,82.307,104.444,82.307L140.772,82.307C143.27,82.307,145.313,84.35,145.313,86.848C145.313,89.345,143.27,91.389,140.772,91.389L104.444,91.389C101.946,91.389,99.903,89.345,99.903,86.848ZM99.903,105.012C99.903,102.514,101.946,100.471,104.444,100.471L140.772,100.471C143.27,100.471,145.313,102.514,145.313,105.012C145.313,107.509,143.27,109.553,140.772,109.553L104.444,109.553C101.946,109.553,99.903,107.509,99.903,105.012ZM99.903,105.012"/>
</g>
  <g id="Regular-L" transform="matrix(1.0,0.0,0.0,1.0,1369.391376250562,1439.031395781812)">  <path fill-opacity="1" stroke-dasharray="none" version="1.1" stroke-miterlimit="4" stroke-width="1px" stroke-linejoin="miter" stroke="none" stroke-opacity="1" fill-rule="nonzero" xmlns:xlink="http://www.w3.org/1999/xlink" stroke-linecap="butt" fill="#000000" d="M0,36.896L163.477,36.896C163.477,26.877,155.332,18.732,145.313,18.732L18.164,18.732C8.145,18.732,0,26.877,0,36.896ZM0,45.978L0,127.717C0,137.736,8.145,145.881,18.164,145.881L145.313,145.881C155.332,145.881,163.477,137.736,163.477,127.717L163.477,45.978L0,45.978ZM18.164,124.68C18.164,116.308,24.947,109.553,33.291,109.553L66.611,109.553C74.984,109.553,81.739,116.336,81.739,124.68C81.739,126.355,80.376,127.717,78.702,127.717L21.201,127.717C19.526,127.717,18.164,126.355,18.164,124.68ZM49.951,100.471C39.933,100.471,31.787,92.325,31.787,82.307C31.787,72.288,39.933,64.142,49.951,64.142C59.97,64.142,68.116,72.288,68.116,82.307C68.116,92.325,59.97,100.471,49.951,100.471ZM99.903,68.683C99.903,66.186,101.946,64.142,104.444,64.142L140.772,64.142C143.27,64.142,145.313,66.186,145.313,68.683C145.313,71.181,143.27,73.224,140.772,73.224L104.444,73.224C101.946,73.224,99.903,71.181,99.903,68.683ZM99.903,86.848C99.903,84.35,101.946,82.307,104.444,82.307L140.772,82.307C143.27,82.307,145.313,84.35,145.313,86.848C145.313,89.345,143.27,91.389,140.772,91.389L104.444,91.389C101.946,91.389,99.903,89.345,99.903,86.848ZM99.903,105.012C99.903,102.514,101.946,100.471,104.444,100.471L140.772,100.471C143.27,100.471,145.313,102.514,145.313,105.012C145.313,107.509,143.27,109.553,140.772,109.553L104.444,109.553C101.946,109.553,99.903,107.509,99.903,105.012ZM99.903,105.012"/>
</g>
  <g id="Light-L" transform="matrix(1.0,0.0,0.0,1.0,1072.6813762505622,1439.031395781812)">  <path stroke-width="1px" stroke-linejoin="miter" fill-opacity="1" fill-rule="nonzero" xmlns:xlink="http://www.w3.org/1999/xlink" stroke="none" stroke-dasharray="none" stroke-miterlimit="4" version="1.1" fill="#000000" stroke-opacity="1" stroke-linecap="butt" d="M0,36.896L163.477,36.896C163.477,26.877,155.332,18.732,145.313,18.732L18.164,18.732C8.145,18.732,0,26.877,0,36.896ZM0,45.978L0,127.717C0,137.736,8.145,145.881,18.164,145.881L145.313,145.881C155.332,145.881,163.477,137.736,163.477,127.717L163.477,45.978L0,45.978ZM18.164,124.68C18.164,116.308,24.947,109.553,33.291,109.553L66.611,109.553C74.984,109.553,81.739,116.336,81.739,124.68C81.739,126.355,80.376,127.717,78.702,127.717L21.201,127.717C19.526,127.717,18.164,126.355,18.164,124.68ZM49.951,100.471C39.933,100.471,31.787,92.325,31.787,82.307C31.787,72.288,39.933,64.142,49.951,64.142C59.97,64.142,68.116,72.288,68.116,82.307C68.116,92.325,59.97,100.471,49.951,100.471ZM99.903,68.683C99.903,66.186,101.946,64.142,104.444,64.142L140.772,64.142C143.27,64.142,145.313,66.186,145.313,68.683C145.313,71.181,143.27,73.224,140.772,73.224L104.444,73.224C101.946,73.224,99.903,71.181,99.903,68.683ZM99.903,86.848C99.903,84.35,101.946,82.307,104.444,82.307L140.772,82.307C143.27,82.307,145.313,84.35,145.313,86.848C145.313,89.345,143.27,91.389,140.772,91.389L104.444,91.389C101.946,91.389,99.903,89.345,99.903,86.848ZM99.903,105.012C99.903,102.514,101.946,100.471,104.444,100.471L140.772,100.471C143.27,100.471,145.313,102.514,145.313,105.012C145.313,107.509,143.27,109.553,140.772,109.553L104.444,109.553C101.946,109.553,99.903,107.509,99.903,105.012ZM99.903,105.012"/>
</g>
  <g id="Thin-L" transform="matrix(1.0,0.0,0.0,1.0,775.9713762505621,1439.031395781812)">  <path fill-rule="nonzero" stroke-dasharray="none" version="1.1" stroke-width="1px" stroke-linecap="butt" stroke-linejoin="miter" fill-opacity="1" stroke-opacity="1" stroke-miterlimit="4" stroke="none" xmlns:xlink="http://www.w3.org/1999/xlink" fill="#000000" d="M0,36.896L163.477,36.896C163.477,26.877,155.332,18.732,145.313,18.732L18.164,18.732C8.145,18.732,0,26.877,0,36.896ZM0,45.978L0,127.717C0,137.736,8.145,145.881,18.164,145.881L145.313,145.881C155.332,145.881,163.477,137.736,163.477,127.717L163.477,45.978L0,45.978ZM18.164,124.68C18.164,116.308,24.947,109.553,33.291,109.553L66.611,109.553C74.984,109.553,81.739,116.336,81.739,124.68C81.739,126.355,80.376,127.717,78.702,127.717L21.201,127.717C19.526,127.717,18.164,126.355,18.164,124.68ZM49.951,100.471C39.933,100.471,31.787,92.325,31.787,82.307C31.787,72.288,39.933,64.142,49.951,64.142C59.97,64.142,68.116,72.288,68.116,82.307C68.116,92.325,59.97,100.471,49.951,100.471ZM99.903,68.683C99.903,66.186,101.946,64.142,104.444,64.142L140.772,64.142C143.27,64.142,145.313,66.186,145.313,68.683C145.313,71.181,143.27,73.224,140.772,73.224L104.444,73.224C101.946,73.224,99.903,71.181,99.903,68.683ZM99.903,86.848C99.903,84.35,101.946,82.307,104.444,82.307L140.772,82.307C143.27,82.307,145.313,84.35,145.313,86.848C145.313,89.345,143.27,91.389,140.772,91.389L104.444,91.389C101.946,91.389,99.903,89.345,99.903,86.848ZM99.903,105.012C99.903,102.514,101.946,100.471,104.444,100.471L140.772,100.471C143.27,100.471,145.313,102.514,145.313,105.012C145.313,107.509,143.27,109.553,140.772,109.553L104.444,109.553C101.946,109.553,99.903,107.509,99.903,105.012ZM99.903,105.012"/>
</g>
  <g id="Ultralight-L" transform="matrix(1.0,0.0,0.0,1.0,479.2613762505621,1439.031395781812)">  <path stroke-width="1px" stroke-opacity="1" fill-opacity="1" fill="#000000" stroke-miterlimit="4" xmlns:xlink="http://www.w3.org/1999/xlink" fill-rule="nonzero" stroke="none" stroke-linejoin="miter" stroke-dasharray="none" version="1.1" stroke-linecap="butt" d="M0,36.896L163.477,36.896C163.477,26.877,155.332,18.732,145.313,18.732L18.164,18.732C8.145,18.732,0,26.877,0,36.896ZM0,45.978L0,127.717C0,137.736,8.145,145.881,18.164,145.881L145.313,145.881C155.332,145.881,163.477,137.736,163.477,127.717L163.477,45.978L0,45.978ZM18.164,124.68C18.164,116.308,24.947,109.553,33.291,109.553L66.611,109.553C74.984,109.553,81.739,116.336,81.739,124.68C81.739,126.355,80.376,127.717,78.702,127.717L21.201,127.717C19.526,127.717,18.164,126.355,18.164,124.68ZM49.951,100.471C39.933,100.471,31.787,92.325,31.787,82.307C31.787,72.288,39.933,64.142,49.951,64.142C59.97,64.142,68.116,72.288,68.116,82.307C68.116,92.325,59.97,100.471,49.951,100.471ZM99.903,68.683C99.903,66.186,101.946,64.142,104.444,64.142L140.772,64.142C143.27,64.142,145.313,66.186,145.313,68.683C145.313,71.181,143.27,73.224,140.772,73.224L104.444,73.224C101.946,73.224,99.903,71.181,99.903,68.683ZM99.903,86.848C99.903,84.35,101.946,82.307,104.444,82.307L140.772,82.307C143.27,82.307,145.313,84.35,145.313,86.848C145.313,89.345,143.27,91.389,140.772,91.389L104.444,91.389C101.946,91.389,99.903,89.345,99.903,86.848ZM99.903,105.012C99.903,102.514,101.946,100.471,104.444,100.471L140.772,100.471C143.27,100.471,145.313,102.514,145.313,105.012C145.313,107.509,143.27,109.553,140.772,109.553L104.444,109.553C101.946,109.553,99.903,107.509,99.903,105.012ZM99.903,105.012"/>
</g>
  <g id="Black-M" transform="matrix(1.0,0.0,0.0,1.0,2871.3167257756295,1027.4067453068794)">  <path stroke-miterlimit="4" stroke-opacity="1" stroke-dasharray="none" fill="#000000" stroke-linejoin="miter" fill-opacity="1" fill-rule="nonzero" stroke="none" stroke-width="1px" xmlns:xlink="http://www.w3.org/1999/xlink" version="1.1" stroke-linecap="butt" d="M0,28.602L126.727,28.602C126.727,20.835,120.412,14.521,112.646,14.521L14.081,14.521C6.314,14.521,0,20.835,0,28.602ZM0,35.642L0,99.005C0,106.772,6.314,113.086,14.081,113.086L112.646,113.086C120.412,113.086,126.727,106.772,126.727,99.005L126.727,35.642L0,35.642ZM14.081,96.651C14.081,90.161,19.339,84.925,25.807,84.925L51.637,84.925C58.127,84.925,63.363,90.183,63.363,96.651C63.363,97.949,62.307,99.005,61.009,99.005L16.435,99.005C15.137,99.005,14.081,97.949,14.081,96.651ZM38.722,77.884C30.956,77.884,24.641,71.57,24.641,63.804C24.641,56.037,30.956,49.723,38.722,49.723C46.488,49.723,52.803,56.037,52.803,63.804C52.803,71.57,46.488,77.884,38.722,77.884ZM77.444,53.243C77.444,51.307,79.028,49.723,80.964,49.723L109.126,49.723C111.062,49.723,112.646,51.307,112.646,53.243C112.646,55.179,111.062,56.763,109.126,56.763L80.964,56.763C79.028,56.763,77.444,55.179,77.444,53.243ZM77.444,67.324C77.444,65.388,79.028,63.804,80.964,63.804L109.126,63.804C111.062,63.804,112.646,65.388,112.646,67.324C112.646,69.26,111.062,70.844,109.126,70.844L80.964,70.844C79.028,70.844,77.444,69.26,77.444,67.324ZM77.444,81.405C77.444,79.468,79.028,77.884,80.964,77.884L109.126,77.884C111.062,77.884,112.646,79.468,112.646,81.405C112.646,83.341,111.062,84.925,109.126,84.925L80.964,84.925C79.028,84.925,77.444,83.341,77.444,81.405ZM77.444,81.405"/>
</g>
  <g id="Heavy-M" transform="matrix(1.0,0.0,0.0,1.0,2574.6067257756295,1027.4067453068794)">  <path fill="#000000" stroke-linecap="butt" xmlns:xlink="http://www.w3.org/1999/xlink" version="1.1" stroke-miterlimit="4" stroke-linejoin="miter" stroke="none" stroke-dasharray="none" fill-opacity="1" fill-rule="nonzero" stroke-opacity="1" stroke-width="1px" d="M0,28.602L126.727,28.602C126.727,20.835,120.412,14.521,112.646,14.521L14.081,14.521C6.314,14.521,0,20.835,0,28.602ZM0,35.642L0,99.005C0,106.772,6.314,113.086,14.081,113.086L112.646,113.086C120.412,113.086,126.727,106.772,126.727,99.005L126.727,35.642L0,35.642ZM14.081,96.651C14.081,90.161,19.339,84.925,25.807,84.925L51.637,84.925C58.127,84.925,63.363,90.183,63.363,96.651C63.363,97.949,62.307,99.005,61.009,99.005L16.435,99.005C15.137,99.005,14.081,97.949,14.081,96.651ZM38.722,77.884C30.956,77.884,24.641,71.57,24.641,63.804C24.641,56.037,30.956,49.723,38.722,49.723C46.488,49.723,52.803,56.037,52.803,63.804C52.803,71.57,46.488,77.884,38.722,77.884ZM77.444,53.243C77.444,51.307,79.028,49.723,80.964,49.723L109.126,49.723C111.062,49.723,112.646,51.307,112.646,53.243C112.646,55.179,111.062,56.763,109.126,56.763L80.964,56.763C79.028,56.763,77.444,55.179,77.444,53.243ZM77.444,67.324C77.444,65.388,79.028,63.804,80.964,63.804L109.126,63.804C111.062,63.804,112.646,65.388,112.646,67.324C112.646,69.26,111.062,70.844,109.126,70.844L80.964,70.844C79.028,70.844,77.444,69.26,77.444,67.324ZM77.444,81.405C77.444,79.468,79.028,77.884,80.964,77.884L109.126,77.884C111.062,77.884,112.646,79.468,112.646,81.405C112.646,83.341,111.062,84.925,109.126,84.925L80.964,84.925C79.028,84.925,77.444,83.341,77.444,81.405ZM77.444,81.405"/>
</g>
  <g id="Bold-M" transform="matrix(1.0,0.0,0.0,1.0,2277.8967257756294,1027.4067453068794)">  <path stroke-linecap="butt" stroke-width="1px" fill-opacity="1" stroke-opacity="1" stroke-dasharray="none" xmlns:xlink="http://www.w3.org/1999/xlink" fill="#000000" stroke="none" stroke-linejoin="miter" stroke-miterlimit="4" version="1.1" fill-rule="nonzero" d="M0,28.602L126.727,28.602C126.727,20.835,120.412,14.521,112.646,14.521L14.081,14.521C6.314,14.521,0,20.835,0,28.602ZM0,35.642L0,99.005C0,106.772,6.314,113.086,14.081,113.086L112.646,113.086C120.412,113.086,126.727,106.772,126.727,99.005L126.727,35.642L0,35.642ZM14.081,96.651C14.081,90.161,19.339,84.925,25.807,84.925L51.637,84.925C58.127,84.925,63.363,90.183,63.363,96.651C63.363,97.949,62.307,99.005,61.009,99.005L16.435,99.005C15.137,99.005,14.081,97.949,14.081,96.651ZM38.722,77.884C30.956,77.884,24.641,71.57,24.641,63.804C24.641,56.037,30.956,49.723,38.722,49.723C46.488,49.723,52.803,56.037,52.803,63.804C52.803,71.57,46.488,77.884,38.722,77.884ZM77.444,53.243C77.444,51.307,79.028,49.723,80.964,49.723L109.126,49.723C111.062,49.723,112.646,51.307,112.646,53.243C112.646,55.179,111.062,56.763,109.126,56.763L80.964,56.763C79.028,56.763,77.444,55.179,77.444,53.243ZM77.444,67.324C77.444,65.388,79.028,63.804,80.964,63.804L109.126,63.804C111.062,63.804,112.646,65.388,112.646,67.324C112.646,69.26,111.062,70.844,109.126,70.844L80.964,70.844C79.028,70.844,77.444,69.26,77.444,67.324ZM77.444,81.405C77.444,79.468,79.028,77.884,80.964,77.884L109.126,77.884C111.062,77.884,112.646,79.468,112.646,81.405C112.646,83.341,111.062,84.925,109.126,84.925L80.964,84.925C79.028,84.925,77.444,83.341,77.444,81.405ZM77.444,81.405"/>
</g>
  <g id="Semibold-M" transform="matrix(1.0,0.0,0.0,1.0,1981.1867257756294,1027.4067453068794)">  <path fill="#000000" fill-opacity="1" stroke-dasharray="none" stroke-width="1px" stroke-linecap="butt" stroke-opacity="1" version="1.1" fill-rule="nonzero" stroke-miterlimit="4" xmlns:xlink="http://www.w3.org/1999/xlink" stroke="none" stroke-linejoin="miter" d="M0,28.602L126.727,28.602C126.727,20.835,120.412,14.521,112.646,14.521L14.081,14.521C6.314,14.521,0,20.835,0,28.602ZM0,35.642L0,99.005C0,106.772,6.314,113.086,14.081,113.086L112.646,113.086C120.412,113.086,126.727,106.772,126.727,99.005L126.727,35.642L0,35.642ZM14.081,96.651C14.081,90.161,19.339,84.925,25.807,84.925L51.637,84.925C58.127,84.925,63.363,90.183,63.363,96.651C63.363,97.949,62.307,99.005,61.009,99.005L16.435,99.005C15.137,99.005,14.081,97.949,14.081,96.651ZM38.722,77.884C30.956,77.884,24.641,71.57,24.641,63.804C24.641,56.037,30.956,49.723,38.722,49.723C46.488,49.723,52.803,56.037,52.803,63.804C52.803,71.57,46.488,77.884,38.722,77.884ZM77.444,53.243C77.444,51.307,79.028,49.723,80.964,49.723L109.126,49.723C111.062,49.723,112.646,51.307,112.646,53.243C112.646,55.179,111.062,56.763,109.126,56.763L80.964,56.763C79.028,56.763,77.444,55.179,77.444,53.243ZM77.444,67.324C77.444,65.388,79.028,63.804,80.964,63.804L109.126,63.804C111.062,63.804,112.646,65.388,112.646,67.324C112.646,69.26,111.062,70.844,109.126,70.844L80.964,70.844C79.028,70.844,77.444,69.26,77.444,67.324ZM77.444,81.405C77.444,79.468,79.028,77.884,80.964,77.884L109.126,77.884C111.062,77.884,112.646,79.468,112.646,81.405C112.646,83.341,111.062,84.925,109.126,84.925L80.964,84.925C79.028,84.925,77.444,83.341,77.444,81.405ZM77.444,81.405"/>
</g>
  <g id="Medium-M" transform="matrix(1.0,0.0,0.0,1.0,1684.4767257756293,1027.4067453068794)">  <path fill-opacity="1" fill="#000000" stroke-linecap="butt" stroke-width="1px" version="1.1" stroke-opacity="1" stroke="none" stroke-dasharray="none" stroke-linejoin="miter" fill-rule="nonzero" xmlns:xlink="http://www.w3.org/1999/xlink" stroke-miterlimit="4" d="M0,28.602L126.727,28.602C126.727,20.835,120.412,14.521,112.646,14.521L14.081,14.521C6.314,14.521,0,20.835,0,28.602ZM0,35.642L0,99.005C0,106.772,6.314,113.086,14.081,113.086L112.646,113.086C120.412,113.086,126.727,106.772,126.727,99.005L126.727,35.642L0,35.642ZM14.081,96.651C14.081,90.161,19.339,84.925,25.807,84.925L51.637,84.925C58.127,84.925,63.363,90.183,63.363,96.651C63.363,97.949,62.307,99.005,61.009,99.005L16.435,99.005C15.137,99.005,14.081,97.949,14.081,96.651ZM38.722,77.884C30.956,77.884,24.641,71.57,24.641,63.804C24.641,56.037,30.956,49.723,38.722,49.723C46.488,49.723,52.803,56.037,52.803,63.804C52.803,71.57,46.488,77.884,38.722,77.884ZM77.444,53.243C77.444,51.307,79.028,49.723,80.964,49.723L109.126,49.723C111.062,49.723,112.646,51.307,112.646,53.243C112.646,55.179,111.062,56.763,109.126,56.763L80.964,56.763C79.028,56.763,77.444,55.179,77.444,53.243ZM77.444,67.324C77.444,65.388,79.028,63.804,80.964,63.804L109.126,63.804C111.062,63.804,112.646,65.388,112.646,67.324C112.646,69.26,111.062,70.844,109.126,70.844L80.964,70.844C79.028,70.844,77.444,69.26,77.444,67.324ZM77.444,81.405C77.444,79.468,79.028,77.884,80.964,77.884L109.126,77.884C111.062,77.884,112.646,79.468,112.646,81.405C112.646,83.341,111.062,84.925,109.126,84.925L80.964,84.925C79.028,84.925,77.444,83.341,77.444,81.405ZM77.444,81.405"/>
</g>
  <g id="Regular-M" transform="matrix(1.0,0.0,0.0,1.0,1387.7667257756293,1027.4067453068794)">  <path fill-opacity="1" stroke-dasharray="none" version="1.1" stroke-miterlimit="4" stroke-width="1px" stroke-linejoin="miter" stroke="none" stroke-opacity="1" fill-rule="nonzero" xmlns:xlink="http://www.w3.org/1999/xlink" stroke-linecap="butt" fill="#000000" d="M0,28.602L126.727,28.602C126.727,20.835,120.412,14.521,112.646,14.521L14.081,14.521C6.314,14.521,0,20.835,0,28.602ZM0,35.642L0,99.005C0,106.772,6.314,113.086,14.081,113.086L112.646,113.086C120.412,113.086,126.727,106.772,126.727,99.005L126.727,35.642L0,35.642ZM14.081,96.651C14.081,90.161,19.339,84.925,25.807,84.925L51.637,84.925C58.127,84.925,63.363,90.183,63.363,96.651C63.363,97.949,62.307,99.005,61.009,99.005L16.435,99.005C15.137,99.005,14.081,97.949,14.081,96.651ZM38.722,77.884C30.956,77.884,24.641,71.57,24.641,63.804C24.641,56.037,30.956,49.723,38.722,49.723C46.488,49.723,52.803,56.037,52.803,63.804C52.803,71.57,46.488,77.884,38.722,77.884ZM77.444,53.243C77.444,51.307,79.028,49.723,80.964,49.723L109.126,49.723C111.062,49.723,112.646,51.307,112.646,53.243C112.646,55.179,111.062,56.763,109.126,56.763L80.964,56.763C79.028,56.763,77.444,55.179,77.444,53.243ZM77.444,67.324C77.444,65.388,79.028,63.804,80.964,63.804L109.126,63.804C111.062,63.804,112.646,65.388,112.646,67.324C112.646,69.26,111.062,70.844,109.126,70.844L80.964,70.844C79.028,70.844,77.444,69.26,77.444,67.324ZM77.444,81.405C77.444,79.468,79.028,77.884,80.964,77.884L109.126,77.884C111.062,77.884,112.646,79.468,112.646,81.405C112.646,83.341,111.062,84.925,109.126,84.925L80.964,84.925C79.028,84.925,77.444,83.341,77.444,81.405ZM77.444,81.405"/>
</g>
  <g id="Light-M" transform="matrix(1.0,0.0,0.0,1.0,1091.0567257756295,1027.4067453068794)">  <path stroke-width="1px" stroke-linejoin="miter" fill-opacity="1" fill-rule="nonzero" xmlns:xlink="http://www.w3.org/1999/xlink" stroke="none" stroke-dasharray="none" stroke-miterlimit="4" version="1.1" fill="#000000" stroke-opacity="1" stroke-linecap="butt" d="M0,28.602L126.727,28.602C126.727,20.835,120.412,14.521,112.646,14.521L14.081,14.521C6.314,14.521,0,20.835,0,28.602ZM0,35.642L0,99.005C0,106.772,6.314,113.086,14.081,113.086L112.646,113.086C120.412,113.086,126.727,106.772,126.727,99.005L126.727,35.642L0,35.642ZM14.081,96.651C14.081,90.161,19.339,84.925,25.807,84.925L51.637,84.925C58.127,84.925,63.363,90.183,63.363,96.651C63.363,97.949,62.307,99.005,61.009,99.005L16.435,99.005C15.137,99.005,14.081,97.949,14.081,96.651ZM38.722,77.884C30.956,77.884,24.641,71.57,24.641,63.804C24.641,56.037,30.956,49.723,38.722,49.723C46.488,49.723,52.803,56.037,52.803,63.804C52.803,71.57,46.488,77.884,38.722,77.884ZM77.444,53.243C77.444,51.307,79.028,49.723,80.964,49.723L109.126,49.723C111.062,49.723,112.646,51.307,112.646,53.243C112.646,55.179,111.062,56.763,109.126,56.763L80.964,56.763C79.028,56.763,77.444,55.179,77.444,53.243ZM77.444,67.324C77.444,65.388,79.028,63.804,80.964,63.804L109.126,63.804C111.062,63.804,112.646,65.388,112.646,67.324C112.646,69.26,111.062,70.844,109.126,70.844L80.964,70.844C79.028,70.844,77.444,69.26,77.444,67.324ZM77.444,81.405C77.444,79.468,79.028,77.884,80.964,77.884L109.126,77.884C111.062,77.884,112.646,79.468,112.646,81.405C112.646,83.341,111.062,84.925,109.126,84.925L80.964,84.925C79.028,84.925,77.444,83.341,77.444,81.405ZM77.444,81.405"/>
</g>
  <g id="Thin-M" transform="matrix(1.0,0.0,0.0,1.0,794.3467257756296,1027.4067453068794)">  <path fill-rule="nonzero" stroke-dasharray="none" version="1.1" stroke-width="1px" stroke-linecap="butt" stroke-linejoin="miter" fill-opacity="1" stroke-opacity="1" stroke-miterlimit="4" stroke="none" xmlns:xlink="http://www.w3.org/1999/xlink" fill="#000000" d="M0,28.602L126.727,28.602C126.727,20.835,120.412,14.521,112.646,14.521L14.081,14.521C6.314,14.521,0,20.835,0,28.602ZM0,35.642L0,99.005C0,106.772,6.314,113.086,14.081,113.086L112.646,113.086C120.412,113.086,126.727,106.772,126.727,99.005L126.727,35.642L0,35.642ZM14.081,96.651C14.081,90.161,19.339,84.925,25.807,84.925L51.637,84.925C58.127,84.925,63.363,90.183,63.363,96.651C63.363,97.949,62.307,99.005,61.009,99.005L16.435,99.005C15.137,99.005,14.081,97.949,14.081,96.651ZM38.722,77.884C30.956,77.884,24.641,71.57,24.641,63.804C24.641,56.037,30.956,49.723,38.722,49.723C46.488,49.723,52.803,56.037,52.803,63.804C52.803,71.57,46.488,77.884,38.722,77.884ZM77.444,53.243C77.444,51.307,79.028,49.723,80.964,49.723L109.126,49.723C111.062,49.723,112.646,51.307,112.646,53.243C112.646,55.179,111.062,56.763,109.126,56.763L80.964,56.763C79.028,56.763,77.444,55.179,77.444,53.243ZM77.444,67.324C77.444,65.388,79.028,63.804,80.964,63.804L109.126,63.804C111.062,63.804,112.646,65.388,112.646,67.324C112.646,69.26,111.062,70.844,109.126,70.844L80.964,70.844C79.028,70.844,77.444,69.26,77.444,67.324ZM77.444,81.405C77.444,79.468,79.028,77.884,80.964,77.884L109.126,77.884C111.062,77.884,112.646,79.468,112.646,81.405C112.646,83.341,111.062,84.925,109.126,84.925L80.964,84.925C79.028,84.925,77.444,83.341,77.444,81.405ZM77.444,81.405"/>
</g>
  <g id="Ultralight-M" transform="matrix(1.0,0.0,0.0,1.0,497.6367257756295,1027.4067453068794)">  <path stroke-width="1px" stroke-opacity="1" fill-opacity="1" fill="#000000" stroke-miterlimit="4" xmlns:xlink="http://www.w3.org/1999/xlink" fill-rule="nonzero" stroke="none" stroke-linejoin="miter" stroke-dasharray="none" version="1.1" stroke-linecap="butt" d="M0,28.602L126.727,28.602C126.727,20.835,120.412,14.521,112.646,14.521L14.081,14.521C6.314,14.521,0,20.835,0,28.602ZM0,35.642L0,99.005C0,106.772,6.314,113.086,14.081,113.086L112.646,113.086C120.412,113.086,126.727,106.772,126.727,99.005L126.727,35.642L0,35.642ZM14.081,96.651C14.081,90.161,19.339,84.925,25.807,84.925L51.637,84.925C58.127,84.925,63.363,90.183,63.363,96.651C63.363,97.949,62.307,99.005,61.009,99.005L16.435,99.005C15.137,99.005,14.081,97.949,14.081,96.651ZM38.722,77.884C30.956,77.884,24.641,71.57,24.641,63.804C24.641,56.037,30.956,49.723,38.722,49.723C46.488,49.723,52.803,56.037,52.803,63.804C52.803,71.57,46.488,77.884,38.722,77.884ZM77.444,53.243C77.444,51.307,79.028,49.723,80.964,49.723L109.126,49.723C111.062,49.723,112.646,51.307,112.646,53.243C112.646,55.179,111.062,56.763,109.126,56.763L80.964,56.763C79.028,56.763,77.444,55.179,77.444,53.243ZM77.444,67.324C77.444,65.388,79.028,63.804,80.964,63.804L109.126,63.804C111.062,63.804,112.646,65.388,112.646,67.324C112.646,69.26,111.062,70.844,109.126,70.844L80.964,70.844C79.028,70.844,77.444,69.26,77.444,67.324ZM77.444,81.405C77.444,79.468,79.028,77.884,80.964,77.884L109.126,77.884C111.062,77.884,112.646,79.468,112.646,81.405C112.646,83.341,111.062,84.925,109.126,84.925L80.964,84.925C79.028,84.925,77.444,83.341,77.444,81.405ZM77.444,81.405"/>
</g>
  <g id="Black-S" transform="matrix(1.0,0.0,0.0,1.0,2885.066556282318,611.1565758135679)">  <path stroke-miterlimit="4" stroke-opacity="1" stroke-dasharray="none" fill="#000000" stroke-linejoin="miter" fill-opacity="1" fill-rule="nonzero" stroke="none" stroke-width="1px" xmlns:xlink="http://www.w3.org/1999/xlink" version="1.1" stroke-linecap="butt" d="M0,22.395L99.227,22.395C99.227,16.314,94.283,11.37,88.202,11.37L11.025,11.37C4.944,11.37,0,16.314,0,22.395ZM0,27.908L0,77.521C0,83.602,4.944,88.547,11.025,88.547L88.202,88.547C94.283,88.547,99.227,83.602,99.227,77.521L99.227,27.908L0,27.908ZM11.025,75.678C11.025,70.596,15.142,66.496,20.207,66.496L40.432,66.496C45.513,66.496,49.613,70.613,49.613,75.678C49.613,76.694,48.787,77.521,47.77,77.521L12.868,77.521C11.852,77.521,11.025,76.694,11.025,75.678ZM30.319,60.983C24.238,60.983,19.294,56.039,19.294,49.958C19.294,43.877,24.238,38.933,30.319,38.933C36.4,38.933,41.345,43.877,41.345,49.958C41.345,56.039,36.4,60.983,30.319,60.983ZM60.639,41.689C60.639,40.173,61.879,38.933,63.395,38.933L85.445,38.933C86.961,38.933,88.202,40.173,88.202,41.689C88.202,43.205,86.961,44.446,85.445,44.446L63.395,44.446C61.879,44.446,60.639,43.205,60.639,41.689ZM60.639,52.714C60.639,51.198,61.879,49.958,63.395,49.958L85.445,49.958C86.961,49.958,88.202,51.198,88.202,52.714C88.202,54.23,86.961,55.471,85.445,55.471L63.395,55.471C61.879,55.471,60.639,54.23,60.639,52.714ZM60.639,63.74C60.639,62.224,61.879,60.983,63.395,60.983L85.445,60.983C86.961,60.983,88.202,62.224,88.202,63.74C88.202,65.256,86.961,66.496,85.445,66.496L63.395,66.496C61.879,66.496,60.639,65.256,60.639,63.74ZM60.639,63.74"/>
</g>
  <g id="Heavy-S" transform="matrix(1.0,0.0,0.0,1.0,2588.356556282318,611.1565758135679)">  <path fill="#000000" stroke-linecap="butt" xmlns:xlink="http://www.w3.org/1999/xlink" version="1.1" stroke-miterlimit="4" stroke-linejoin="miter" stroke="none" stroke-dasharray="none" fill-opacity="1" fill-rule="nonzero" stroke-opacity="1" stroke-width="1px" d="M0,22.395L99.227,22.395C99.227,16.314,94.283,11.37,88.202,11.37L11.025,11.37C4.944,11.37,0,16.314,0,22.395ZM0,27.908L0,77.521C0,83.602,4.944,88.547,11.025,88.547L88.202,88.547C94.283,88.547,99.227,83.602,99.227,77.521L99.227,27.908L0,27.908ZM11.025,75.678C11.025,70.596,15.142,66.496,20.207,66.496L40.432,66.496C45.513,66.496,49.613,70.613,49.613,75.678C49.613,76.694,48.787,77.521,47.77,77.521L12.868,77.521C11.852,77.521,11.025,76.694,11.025,75.678ZM30.319,60.983C24.238,60.983,19.294,56.039,19.294,49.958C19.294,43.877,24.238,38.933,30.319,38.933C36.4,38.933,41.345,43.877,41.345,49.958C41.345,56.039,36.4,60.983,30.319,60.983ZM60.639,41.689C60.639,40.173,61.879,38.933,63.395,38.933L85.445,38.933C86.961,38.933,88.202,40.173,88.202,41.689C88.202,43.205,86.961,44.446,85.445,44.446L63.395,44.446C61.879,44.446,60.639,43.205,60.639,41.689ZM60.639,52.714C60.639,51.198,61.879,49.958,63.395,49.958L85.445,49.958C86.961,49.958,88.202,51.198,88.202,52.714C88.202,54.23,86.961,55.471,85.445,55.471L63.395,55.471C61.879,55.471,60.639,54.23,60.639,52.714ZM60.639,63.74C60.639,62.224,61.879,60.983,63.395,60.983L85.445,60.983C86.961,60.983,88.202,62.224,88.202,63.74C88.202,65.256,86.961,66.496,85.445,66.496L63.395,66.496C61.879,66.496,60.639,65.256,60.639,63.74ZM60.639,63.74"/>
</g>
  <g id="Bold-S" transform="matrix(1.0,0.0,0.0,1.0,2291.6465562823178,611.1565758135679)">  <path stroke-linecap="butt" stroke-width="1px" fill-opacity="1" stroke-opacity="1" stroke-dasharray="none" xmlns:xlink="http://www.w3.org/1999/xlink" fill="#000000" stroke="none" stroke-linejoin="miter" stroke-miterlimit="4" version="1.1" fill-rule="nonzero" d="M0,22.395L99.227,22.395C99.227,16.314,94.283,11.37,88.202,11.37L11.025,11.37C4.944,11.37,0,16.314,0,22.395ZM0,27.908L0,77.521C0,83.602,4.944,88.547,11.025,88.547L88.202,88.547C94.283,88.547,99.227,83.602,99.227,77.521L99.227,27.908L0,27.908ZM11.025,75.678C11.025,70.596,15.142,66.496,20.207,66.496L40.432,66.496C45.513,66.496,49.613,70.613,49.613,75.678C49.613,76.694,48.787,77.521,47.77,77.521L12.868,77.521C11.852,77.521,11.025,76.694,11.025,75.678ZM30.319,60.983C24.238,60.983,19.294,56.039,19.294,49.958C19.294,43.877,24.238,38.933,30.319,38.933C36.4,38.933,41.345,43.877,41.345,49.958C41.345,56.039,36.4,60.983,30.319,60.983ZM60.639,41.689C60.639,40.173,61.879,38.933,63.395,38.933L85.445,38.933C86.961,38.933,88.202,40.173,88.202,41.689C88.202,43.205,86.961,44.446,85.445,44.446L63.395,44.446C61.879,44.446,60.639,43.205,60.639,41.689ZM60.639,52.714C60.639,51.198,61.879,49.958,63.395,49.958L85.445,49.958C86.961,49.958,88.202,51.198,88.202,52.714C88.202,54.23,86.961,55.471,85.445,55.471L63.395,55.471C61.879,55.471,60.639,54.23,60.639,52.714ZM60.639,63.74C60.639,62.224,61.879,60.983,63.395,60.983L85.445,60.983C86.961,60.983,88.202,62.224,88.202,63.74C88.202,65.256,86.961,66.496,85.445,66.496L63.395,66.496C61.879,66.496,60.639,65.256,60.639,63.74ZM60.639,63.74"/>
</g>
  <g id="Semibold-S" transform="matrix(1.0,0.0,0.0,1.0,1994.936556282318,611.1565758135679)">  <path fill="#000000" fill-opacity="1" stroke-dasharray="none" stroke-width="1px" stroke-linecap="butt" stroke-opacity="1" version="1.1" fill-rule="nonzero" stroke-miterlimit="4" xmlns:xlink="http://www.w3.org/1999/xlink" stroke="none" stroke-linejoin="miter" d="M0,22.395L99.227,22.395C99.227,16.314,94.283,11.37,88.202,11.37L11.025,11.37C4.944,11.37,0,16.314,0,22.395ZM0,27.908L0,77.521C0,83.602,4.944,88.547,11.025,88.547L88.202,88.547C94.283,88.547,99.227,83.602,99.227,77.521L99.227,27.908L0,27.908ZM11.025,75.678C11.025,70.596,15.142,66.496,20.207,66.496L40.432,66.496C45.513,66.496,49.613,70.613,49.613,75.678C49.613,76.694,48.787,77.521,47.77,77.521L12.868,77.521C11.852,77.521,11.025,76.694,11.025,75.678ZM30.319,60.983C24.238,60.983,19.294,56.039,19.294,49.958C19.294,43.877,24.238,38.933,30.319,38.933C36.4,38.933,41.345,43.877,41.345,49.958C41.345,56.039,36.4,60.983,30.319,60.983ZM60.639,41.689C60.639,40.173,61.879,38.933,63.395,38.933L85.445,38.933C86.961,38.933,88.202,40.173,88.202,41.689C88.202,43.205,86.961,44.446,85.445,44.446L63.395,44.446C61.879,44.446,60.639,43.205,60.639,41.689ZM60.639,52.714C60.639,51.198,61.879,49.958,63.395,49.958L85.445,49.958C86.961,49.958,88.202,51.198,88.202,52.714C88.202,54.23,86.961,55.471,85.445,55.471L63.395,55.471C61.879,55.471,60.639,54.23,60.639,52.714ZM60.639,63.74C60.639,62.224,61.879,60.983,63.395,60.983L85.445,60.983C86.961,60.983,88.202,62.224,88.202,63.74C88.202,65.256,86.961,66.496,85.445,66.496L63.395,66.496C61.879,66.496,60.639,65.256,60.639,63.74ZM60.639,63.74"/>
</g>
  <g id="Medium-S" transform="matrix(1.0,0.0,0.0,1.0,1698.226556282318,611.1565758135679)">  <path fill-opacity="1" fill="#000000" stroke-linecap="butt" stroke-width="1px" version="1.1" stroke-opacity="1" stroke="none" stroke-dasharray="none" stroke-linejoin="miter" fill-rule="nonzero" xmlns:xlink="http://www.w3.org/1999/xlink" stroke-miterlimit="4" d="M0,22.395L99.227,22.395C99.227,16.314,94.283,11.37,88.202,11.37L11.025,11.37C4.944,11.37,0,16.314,0,22.395ZM0,27.908L0,77.521C0,83.602,4.944,88.547,11.025,88.547L88.202,88.547C94.283,88.547,99.227,83.602,99.227,77.521L99.227,27.908L0,27.908ZM11.025,75.678C11.025,70.596,15.142,66.496,20.207,66.496L40.432,66.496C45.513,66.496,49.613,70.613,49.613,75.678C49.613,76.694,48.787,77.521,47.77,77.521L12.868,77.521C11.852,77.521,11.025,76.694,11.025,75.678ZM30.319,60.983C24.238,60.983,19.294,56.039,19.294,49.958C19.294,43.877,24.238,38.933,30.319,38.933C36.4,38.933,41.345,43.877,41.345,49.958C41.345,56.039,36.4,60.983,30.319,60.983ZM60.639,41.689C60.639,40.173,61.879,38.933,63.395,38.933L85.445,38.933C86.961,38.933,88.202,40.173,88.202,41.689C88.202,43.205,86.961,44.446,85.445,44.446L63.395,44.446C61.879,44.446,60.639,43.205,60.639,41.689ZM60.639,52.714C60.639,51.198,61.879,49.958,63.395,49.958L85.445,49.958C86.961,49.958,88.202,51.198,88.202,52.714C88.202,54.23,86.961,55.471,85.445,55.471L63.395,55.471C61.879,55.471,60.639,54.23,60.639,52.714ZM60.639,63.74C60.639,62.224,61.879,60.983,63.395,60.983L85.445,60.983C86.961,60.983,88.202,62.224,88.202,63.74C88.202,65.256,86.961,66.496,85.445,66.496L63.395,66.496C61.879,66.496,60.639,65.256,60.639,63.74ZM60.639,63.74"/>
</g>
  <g id="Regular-S" transform="matrix(1.0,0.0,0.0,1.0,1401.5165562823179,611.1565758135679)">  <path fill-opacity="1" stroke-dasharray="none" version="1.1" stroke-miterlimit="4" stroke-width="1px" stroke-linejoin="miter" stroke="none" stroke-opacity="1" fill-rule="nonzero" xmlns:xlink="http://www.w3.org/1999/xlink" stroke-linecap="butt" fill="#000000" d="M0,22.395L99.227,22.395C99.227,16.314,94.283,11.37,88.202,11.37L11.025,11.37C4.944,11.37,0,16.314,0,22.395ZM0,27.908L0,77.521C0,83.602,4.944,88.547,11.025,88.547L88.202,88.547C94.283,88.547,99.227,83.602,99.227,77.521L99.227,27.908L0,27.908ZM11.025,75.678C11.025,70.596,15.142,66.496,20.207,66.496L40.432,66.496C45.513,66.496,49.613,70.613,49.613,75.678C49.613,76.694,48.787,77.521,47.77,77.521L12.868,77.521C11.852,77.521,11.025,76.694,11.025,75.678ZM30.319,60.983C24.238,60.983,19.294,56.039,19.294,49.958C19.294,43.877,24.238,38.933,30.319,38.933C36.4,38.933,41.345,43.877,41.345,49.958C41.345,56.039,36.4,60.983,30.319,60.983ZM60.639,41.689C60.639,40.173,61.879,38.933,63.395,38.933L85.445,38.933C86.961,38.933,88.202,40.173,88.202,41.689C88.202,43.205,86.961,44.446,85.445,44.446L63.395,44.446C61.879,44.446,60.639,43.205,60.639,41.689ZM60.639,52.714C60.639,51.198,61.879,49.958,63.395,49.958L85.445,49.958C86.961,49.958,88.202,51.198,88.202,52.714C88.202,54.23,86.961,55.471,85.445,55.471L63.395,55.471C61.879,55.471,60.639,54.23,60.639,52.714ZM60.639,63.74C60.639,62.224,61.879,60.983,63.395,60.983L85.445,60.983C86.961,60.983,88.202,62.224,88.202,63.74C88.202,65.256,86.961,66.496,85.445,66.496L63.395,66.496C61.879,66.496,60.639,65.256,60.639,63.74ZM60.639,63.74"/>
</g>
  <g id="Light-S" transform="matrix(1.0,0.0,0.0,1.0,1104.806556282318,611.1565758135679)">  <path stroke-width="1px" stroke-linejoin="miter" fill-opacity="1" fill-rule="nonzero" xmlns:xlink="http://www.w3.org/1999/xlink" stroke="none" stroke-dasharray="none" stroke-miterlimit="4" version="1.1" fill="#000000" stroke-opacity="1" stroke-linecap="butt" d="M0,22.395L99.227,22.395C99.227,16.314,94.283,11.37,88.202,11.37L11.025,11.37C4.944,11.37,0,16.314,0,22.395ZM0,27.908L0,77.521C0,83.602,4.944,88.547,11.025,88.547L88.202,88.547C94.283,88.547,99.227,83.602,99.227,77.521L99.227,27.908L0,27.908ZM11.025,75.678C11.025,70.596,15.142,66.496,20.207,66.496L40.432,66.496C45.513,66.496,49.613,70.613,49.613,75.678C49.613,76.694,48.787,77.521,47.77,77.521L12.868,77.521C11.852,77.521,11.025,76.694,11.025,75.678ZM30.319,60.983C24.238,60.983,19.294,56.039,19.294,49.958C19.294,43.877,24.238,38.933,30.319,38.933C36.4,38.933,41.345,43.877,41.345,49.958C41.345,56.039,36.4,60.983,30.319,60.983ZM60.639,41.689C60.639,40.173,61.879,38.933,63.395,38.933L85.445,38.933C86.961,38.933,88.202,40.173,88.202,41.689C88.202,43.205,86.961,44.446,85.445,44.446L63.395,44.446C61.879,44.446,60.639,43.205,60.639,41.689ZM60.639,52.714C60.639,51.198,61.879,49.958,63.395,49.958L85.445,49.958C86.961,49.958,88.202,51.198,88.202,52.714C88.202,54.23,86.961,55.471,85.445,55.471L63.395,55.471C61.879,55.471,60.639,54.23,60.639,52.714ZM60.639,63.74C60.639,62.224,61.879,60.983,63.395,60.983L85.445,60.983C86.961,60.983,88.202,62.224,88.202,63.74C88.202,65.256,86.961,66.496,85.445,66.496L63.395,66.496C61.879,66.496,60.639,65.256,60.639,63.74ZM60.639,63.74"/>
</g>
  <g id="Thin-S" transform="matrix(1.0,0.0,0.0,1.0,808.0965562823179,611.1565758135679)">  <path fill-rule="nonzero" stroke-dasharray="none" version="1.1" stroke-width="1px" stroke-linecap="butt" stroke-linejoin="miter" fill-opacity="1" stroke-opacity="1" stroke-miterlimit="4" stroke="none" xmlns:xlink="http://www.w3.org/1999/xlink" fill="#000000" d="M0,22.395L99.227,22.395C99.227,16.314,94.283,11.37,88.202,11.37L11.025,11.37C4.944,11.37,0,16.314,0,22.395ZM0,27.908L0,77.521C0,83.602,4.944,88.547,11.025,88.547L88.202,88.547C94.283,88.547,99.227,83.602,99.227,77.521L99.227,27.908L0,27.908ZM11.025,75.678C11.025,70.596,15.142,66.496,20.207,66.496L40.432,66.496C45.513,66.496,49.613,70.613,49.613,75.678C49.613,76.694,48.787,77.521,47.77,77.521L12.868,77.521C11.852,77.521,11.025,76.694,11.025,75.678ZM30.319,60.983C24.238,60.983,19.294,56.039,19.294,49.958C19.294,43.877,24.238,38.933,30.319,38.933C36.4,38.933,41.345,43.877,41.345,49.958C41.345,56.039,36.4,60.983,30.319,60.983ZM60.639,41.689C60.639,40.173,61.879,38.933,63.395,38.933L85.445,38.933C86.961,38.933,88.202,40.173,88.202,41.689C88.202,43.205,86.961,44.446,85.445,44.446L63.395,44.446C61.879,44.446,60.639,43.205,60.639,41.689ZM60.639,52.714C60.639,51.198,61.879,49.958,63.395,49.958L85.445,49.958C86.961,49.958,88.202,51.198,88.202,52.714C88.202,54.23,86.961,55.471,85.445,55.471L63.395,55.471C61.879,55.471,60.639,54.23,60.639,52.714ZM60.639,63.74C60.639,62.224,61.879,60.983,63.395,60.983L85.445,60.983C86.961,60.983,88.202,62.224,88.202,63.74C88.202,65.256,86.961,66.496,85.445,66.496L63.395,66.496C61.879,66.496,60.639,65.256,60.639,63.74ZM60.639,63.74"/>
</g>
  <g id="Ultralight-S" transform="matrix(1.0,0.0,0.0,1.0,511.3865562823179,611.1565758135679)">  <path stroke-width="1px" stroke-opacity="1" fill-opacity="1" fill="#000000" stroke-miterlimit="4" xmlns:xlink="http://www.w3.org/1999/xlink" fill-rule="nonzero" stroke="none" stroke-linejoin="miter" stroke-dasharray="none" version="1.1" stroke-linecap="butt" d="M0,22.395L99.227,22.395C99.227,16.314,94.283,11.37,88.202,11.37L11.025,11.37C4.944,11.37,0,16.314,0,22.395ZM0,27.908L0,77.521C0,83.602,4.944,88.547,11.025,88.547L88.202,88.547C94.283,88.547,99.227,83.602,99.227,77.521L99.227,27.908L0,27.908ZM11.025,75.678C11.025,70.596,15.142,66.496,20.207,66.496L40.432,66.496C45.513,66.496,49.613,70.613,49.613,75.678C49.613,76.694,48.787,77.521,47.77,77.521L12.868,77.521C11.852,77.521,11.025,76.694,11.025,75.678ZM30.319,60.983C24.238,60.983,19.294,56.039,19.294,49.958C19.294,43.877,24.238,38.933,30.319,38.933C36.4,38.933,41.345,43.877,41.345,49.958C41.345,56.039,36.4,60.983,30.319,60.983ZM60.639,41.689C60.639,40.173,61.879,38.933,63.395,38.933L85.445,38.933C86.961,38.933,88.202,40.173,88.202,41.689C88.202,43.205,86.961,44.446,85.445,44.446L63.395,44.446C61.879,44.446,60.639,43.205,60.639,41.689ZM60.639,52.714C60.639,51.198,61.879,49.958,63.395,49.958L85.445,49.958C86.961,49.958,88.202,51.198,88.202,52.714C88.202,54.23,86.961,55.471,85.445,55.471L63.395,55.471C61.879,55.471,60.639,54.23,60.639,52.714ZM60.639,63.74C60.639,62.224,61.879,60.983,63.395,60.983L85.445,60.983C86.961,60.983,88.202,62.224,88.202,63.74C88.202,65.256,86.961,66.496,85.445,66.496L63.395,66.496C61.879,66.496,60.639,65.256,60.639,63.74ZM60.639,63.74"/>
</g>
 </g>
</svg>
