<?xml version="1.0" encoding="UTF-8"?>
<!-- Generator: CustomSymbols v2.7.2.48 by @serious_bret https://bretlester.com/app_content/CustomSymbols/ -->
<!-- Guides: Left/Right 0.11/0.11 Cap/Base 0.222/0.222 -->
<!-- Settings: RefScale 1.0 Min/Max Stroke Scales 0.5/2.21 -->
<!DOCTYPE svg
PUBLIC "-//W3C//DTD SVG 1.1//EN"
       "http://www.w3.org/Graphics/SVG/1.1/DTD/svg11.dtd">
<svg version="1.1" xmlns="http://www.w3.org/2000/svg" xmlns:xlink="http://www.w3.org/1999/xlink" width="3300" height="2200">
<![CDATA[<?xml version="1.0" encoding="UTF-8"?>
<svg width="96px" height="96px" viewBox="0 0 96 96" version="1.1" xmlns="http://www.w3.org/2000/svg" xmlns:xlink="http://www.w3.org/1999/xlink">
    <title>icon/medical/toilet</title>
    <g id="icon/medical/toilet" stroke="none" stroke-width="1" fill="none" fill-rule="evenodd">
        <path d="M10.5000134,0 C8.00625597,0 6,2.00625 6,4.5 C6,6.99375 8.00625597,9 10.5000134,9 L12.0000179,9 L12.0000179,36.91875 C11.6437668,37.18125 11.2875157,37.4625 10.9500147,37.74375 C8.04375608,40.21875 6,43.66875 6,48 C6,56.79375 8.68125798,63.76875 12.9375206,69.09375 C15.6000286,72.4125 18.768788,74.9625 22.0312977,76.93125 L18.3000366,88.10625 C17.6812848,89.94375 18.0000357,91.95 19.1250391,93.50625 C20.2500424,95.0625 22.0687978,96 24.0000536,96 L72.0001964,96 C73.9314521,96 75.7314575,95.08125 76.8752109,93.50625 C78.0189643,91.93125 78.3189652,89.925 77.7002133,88.10625 L73.9877023,76.95 C77.250212,74.98125 80.4189714,72.43125 83.0814794,69.1125 C87.337742,63.7875 90.019,56.83125 90.019,48.01875 C90.019,43.6875 87.9752439,40.2375 85.0689853,37.78125 C84.7314843,37.5 84.3752332,37.21875 84.0189821,36.95625 L84.0189821,9 L85.5189866,9 C88.012744,9 90.019,6.99375 90.019,4.5 C90.019,2.00625 88.012744,0 85.5189866,0 L10.5000134,0 Z M78.0002142,48.05625 C78.0002142,48.24375 77.9439641,48.54375 77.2877121,49.10625 C76.3877094,49.875 74.6627043,50.79375 71.7939458,51.61875 C66.0939288,53.25 57.768904,54 48.000125,54 C38.2313459,54 29.9063211,53.25 24.2063042,51.6 C21.3375456,50.775 19.6125405,49.85625 18.7125378,49.0875 C18.0562859,48.525 18.0000357,48.225 18.0000357,48.0375 L18.0000357,47.98125 L18.0000357,47.9625 C18.0000357,47.775 18.0000357,47.49375 18.7125378,46.875 C19.6125405,46.10625 21.3375456,45.1875 24.2063042,44.3625 C29.9063211,42.75 38.2313459,42 48.000125,42 C57.768904,42 66.0939288,42.75 71.7939458,44.4 C74.6627043,45.225 76.3877094,46.14375 77.2877121,46.9125 C78.0002142,47.5125 78.0002142,47.8125 78.0002142,48 L78.0002142,48.01875 L78.0002142,48.075 L78.0002142,48.05625 Z M67.5376831,72 L67.500183,72.09375 L67.500183,72 L67.5376831,72 Z M27.0000536,12 L33.0000803,12 C34.6500852,12 36.0000893,13.35 36.0000893,15 C36.0000893,16.65 34.6500852,18 33.0000803,18 L27.0000536,18 C25.3500576,18 24.0000536,16.65 24.0000536,15 C24.0000536,13.35 25.3500576,12 27.0000536,12 Z" id="Shape" fill="#FB4C6C" fill-rule="nonzero"></path>
    </g>
</svg>]]>
 <g id="Notes">
  <rect height="2200" id="artboard" style="fill:white;opacity:1" width="3300" x="0" y="0"/>
  <line id="" style="fill:none;stroke:black;opacity:1;stroke-width:0.5;" x1="263" x2="3036" y1="292" y2="292"/>
  <text id="reftext1" style="stroke:none;fill:black;font-family:-apple-system,&quot;SF Pro Display&quot;,&quot;SF Pro Text&quot;,Helvetica,sans-serif;font-weight:bold;" transform="matrix(1 0 0 1 263 322)">Weight/Scale Variations</text>
  <text id="reftext2" style="stroke:none;fill:black;font-family:-apple-system,&quot;SF Pro Display&quot;,&quot;SF Pro Text&quot;,Helvetica,sans-serif;text-anchor:middle;" transform="matrix(1 0 0 1 559.711 322)">Ultralight</text>
  <text style="stroke:none;fill:black;font-family:-apple-system,&quot;SF Pro Display&quot;,&quot;SF Pro Text&quot;,Helvetica,sans-serif;text-anchor:middle;" transform="matrix(1 0 0 1 856.422 322)">Thin</text>
  <text style="stroke:none;fill:black;font-family:-apple-system,&quot;SF Pro Display&quot;,&quot;SF Pro Text&quot;,Helvetica,sans-serif;text-anchor:middle;" transform="matrix(1 0 0 1 1153.13 322)">Light</text>
  <text style="stroke:none;fill:black;font-family:-apple-system,&quot;SF Pro Display&quot;,&quot;SF Pro Text&quot;,Helvetica,sans-serif;text-anchor:middle;" transform="matrix(1 0 0 1 1449.84 322)">Regular</text>
  <text style="stroke:none;fill:black;font-family:-apple-system,&quot;SF Pro Display&quot;,&quot;SF Pro Text&quot;,Helvetica,sans-serif;text-anchor:middle;" transform="matrix(1 0 0 1 1746.56 322)">Medium</text>
  <text style="stroke:none;fill:black;font-family:-apple-system,&quot;SF Pro Display&quot;,&quot;SF Pro Text&quot;,Helvetica,sans-serif;text-anchor:middle;" transform="matrix(1 0 0 1 2043.27 322)">Semibold</text>
  <text style="stroke:none;fill:black;font-family:-apple-system,&quot;SF Pro Display&quot;,&quot;SF Pro Text&quot;,Helvetica,sans-serif;text-anchor:middle;" transform="matrix(1 0 0 1 2339.98 322)">Bold</text>
  <text style="stroke:none;fill:black;font-family:-apple-system,&quot;SF Pro Display&quot;,&quot;SF Pro Text&quot;,Helvetica,sans-serif;text-anchor:middle;" transform="matrix(1 0 0 1 2636.69 322)">Heavy</text>
  <text style="stroke:none;fill:black;font-family:-apple-system,&quot;SF Pro Display&quot;,&quot;SF Pro Text&quot;,Helvetica,sans-serif;text-anchor:middle;" transform="matrix(1 0 0 1 2933.4 322)">Black</text>
  <line id="" style="fill:none;stroke:black;opacity:1;stroke-width:0.5;" x1="263" x2="3036" y1="1903" y2="1903"/>
  <g id="" transform="matrix(1 0 0 1 263 1933)">
   <path d="M9.24805 0.830078C13.5547 0.830078 17.1387-2.74414 17.1387-7.05078C17.1387-11.3574 13.5449-14.9316 9.23828-14.9316C4.94141-14.9316 1.36719-11.3574 1.36719-7.05078C1.36719-2.74414 4.95117 0.830078 9.24805 0.830078ZM9.24805-0.654297C5.70312-0.654297 2.87109-3.49609 2.87109-7.05078C2.87109-10.6055 5.69336-13.4473 9.23828-13.4473C12.793-13.4473 15.6348-10.6055 15.6445-7.05078C15.6543-3.49609 12.8027-0.654297 9.24805-0.654297ZM6.39648-6.31836L8.50586-6.31836L8.50586-4.19922C8.50586-3.75977 8.79883-3.45703 9.22852-3.45703C9.67773-3.45703 9.9707-3.75977 9.9707-4.19922L9.9707-6.31836L12.0996-6.31836C12.5391-6.31836 12.8418-6.61133 12.8418-7.04102C12.8418-7.48047 12.5391-7.7832 12.0996-7.7832L9.9707-7.7832L9.9707-9.89258C9.9707-10.3418 9.67773-10.6445 9.22852-10.6445C8.79883-10.6445 8.50586-10.3418 8.50586-9.89258L8.50586-7.7832L6.39648-7.7832C5.94727-7.7832 5.64453-7.48047 5.64453-7.04102C5.64453-6.61133 5.94727-6.31836 6.39648-6.31836Z"/>
  </g>
  <g id="" transform="matrix(1 0 0 1 281.506 1933)">
   <path d="M11.709 2.91016C17.1582 2.91016 21.6699-1.61133 21.6699-7.05078C21.6699-12.5 17.1484-17.0117 11.6992-17.0117C6.25977-17.0117 1.74805-12.5 1.74805-7.05078C1.74805-1.61133 6.26953 2.91016 11.709 2.91016ZM11.709 1.25C7.09961 1.25 3.41797-2.44141 3.41797-7.05078C3.41797-11.6602 7.08984-15.3516 11.6992-15.3516C16.3086-15.3516 20-11.6602 20.0098-7.05078C20.0195-2.44141 16.3184 1.25 11.709 1.25ZM7.98828-6.23047L10.8789-6.23047L10.8789-3.32031C10.8789-2.83203 11.2109-2.5 11.6895-2.5C12.1777-2.5 12.5195-2.83203 12.5195-3.32031L12.5195-6.23047L15.4297-6.23047C15.918-6.23047 16.25-6.5625 16.25-7.04102C16.25-7.5293 15.918-7.87109 15.4297-7.87109L12.5195-7.87109L12.5195-10.7617C12.5195-11.2695 12.1777-11.6016 11.6895-11.6016C11.2109-11.6016 10.8789-11.2598 10.8789-10.7617L10.8789-7.87109L7.98828-7.87109C7.48047-7.87109 7.14844-7.5293 7.14844-7.04102C7.14844-6.5625 7.49023-6.23047 7.98828-6.23047Z"/>
  </g>
  <g id="" transform="matrix(1 0 0 1 304.924 1933)">
   <path d="M14.9707 5.66406C21.9336 5.66406 27.6953-0.0976562 27.6953-7.05078C27.6953-14.0137 21.9238-19.7754 14.9609-19.7754C8.00781-19.7754 2.25586-14.0137 2.25586-7.05078C2.25586-0.0976562 8.01758 5.66406 14.9707 5.66406ZM14.9707 3.84766C8.93555 3.84766 4.08203-1.01562 4.08203-7.05078C4.08203-13.0957 8.92578-17.9492 14.9609-17.9492C21.0059-17.9492 25.8594-13.0957 25.8691-7.05078C25.8789-1.01562 21.0156 3.84766 14.9707 3.84766ZM10.0586-6.14258L14.0625-6.14258L14.0625-2.12891C14.0625-1.5918 14.4336-1.2207 14.9512-1.2207C15.4883-1.2207 15.8594-1.5918 15.8594-2.12891L15.8594-6.14258L19.8828-6.14258C20.4102-6.14258 20.791-6.51367 20.791-7.03125C20.791-7.56836 20.4199-7.94922 19.8828-7.94922L15.8594-7.94922L15.8594-11.9531C15.8594-12.5098 15.4883-12.8809 14.9512-12.8809C14.4336-12.8809 14.0625-12.5 14.0625-11.9531L14.0625-7.94922L10.0586-7.94922C9.50195-7.94922 9.13086-7.56836 9.13086-7.03125C9.13086-6.51367 9.51172-6.14258 10.0586-6.14258Z"/>
  </g>
  <text style="stroke:none;fill:black;font-family:-apple-system,&quot;SF Pro Display&quot;,&quot;SF Pro Text&quot;,Helvetica,sans-serif;font-weight:bold;" transform="matrix(1 0 0 1 263 1953)">Design Variations</text>
  <text style="stroke:none;fill:black;font-family:-apple-system,&quot;SF Pro Display&quot;,&quot;SF Pro Text&quot;,Helvetica,sans-serif;" transform="matrix(1 0 0 1 263 1971)">Symbols are supported in up to nine weights and three scales.</text>
  <text style="stroke:none;fill:black;font-family:-apple-system,&quot;SF Pro Display&quot;,&quot;SF Pro Text&quot;,Helvetica,sans-serif;" transform="matrix(1 0 0 1 263 1989)">For optimal layout with text and other symbols, vertically align</text>
  <text style="stroke:none;fill:black;font-family:-apple-system,&quot;SF Pro Display&quot;,&quot;SF Pro Text&quot;,Helvetica,sans-serif;" transform="matrix(1 0 0 1 263 2007)">symbols with the adjacent text.</text>
  <line id="" style="fill:none;stroke:#00AEEF;stroke-width:0.5;opacity:1.0;" x1="776" x2="776" y1="1919" y2="1933"/>
  <g id="" transform="matrix(1 0 0 1 776 1933)">
   <path d="M3.31055 0.126953C3.82812 0.126953 4.08203-0.0683594 4.26758-0.605469L5.52734-4.0625L11.2891-4.0625L12.5488-0.605469C12.7344-0.0683594 12.9883 0.126953 13.4961 0.126953C14.0137 0.126953 14.3457-0.185547 14.3457-0.673828C14.3457-0.839844 14.3164-0.986328 14.2383-1.20117L9.6582-13.3887C9.43359-13.9941 9.0332-14.2871 8.4082-14.2871C7.80273-14.2871 7.39258-13.9941 7.17773-13.3984L2.59766-1.19141C2.51953-0.976562 2.49023-0.830078 2.49023-0.664062C2.49023-0.175781 2.80273 0.126953 3.31055 0.126953ZM6.00586-5.53711L8.37891-12.1094L8.42773-12.1094L10.8008-5.53711Z"/>
  </g>
  <line id="" style="fill:none;stroke:#00AEEF;stroke-width:0.5;opacity:1.0;" x1="792.836" x2="792.836" y1="1919" y2="1933"/>
  <text style="stroke:none;fill:black;font-family:-apple-system,&quot;SF Pro Display&quot;,&quot;SF Pro Text&quot;,Helvetica,sans-serif;font-weight:bold;" transform="matrix(1 0 0 1 776 1953)">Margins</text>
  <text style="stroke:none;fill:black;font-family:-apple-system,&quot;SF Pro Display&quot;,&quot;SF Pro Text&quot;,Helvetica,sans-serif;" transform="matrix(1 0 0 1 776 1971)">Leading and trailing margins on the left and right side of each symbol</text>
  <text style="stroke:none;fill:black;font-family:-apple-system,&quot;SF Pro Display&quot;,&quot;SF Pro Text&quot;,Helvetica,sans-serif;" transform="matrix(1 0 0 1 776 1989)">can be adjusted by modifying the x-location of the margin guidelines.</text>
  <text style="stroke:none;fill:black;font-family:-apple-system,&quot;SF Pro Display&quot;,&quot;SF Pro Text&quot;,Helvetica,sans-serif;" transform="matrix(1 0 0 1 776 2007)">Modifications are automatically applied proportionally to all</text>
  <text style="stroke:none;fill:black;font-family:-apple-system,&quot;SF Pro Display&quot;,&quot;SF Pro Text&quot;,Helvetica,sans-serif;" transform="matrix(1 0 0 1 776 2025)">scales and weights.</text>
  <g id="" transform="matrix(1 0 0 1 1289 1933)">
   <path d="M2.8418 1.86523L4.54102 3.57422C5.40039 4.44336 6.38672 4.38477 7.31445 3.35938L17.4902-7.85156C17.7539-7.76367 18.0273-7.7832 18.3398-7.8418L19.4043-8.03711L20.0684-7.36328L20.0293-6.80664C19.9902-6.30859 20.1172-5.92773 20.6055-5.44922L21.3672-4.70703C21.8457-4.22852 22.4609-4.19922 22.9297-4.66797L25.8398-7.58789C26.3086-8.05664 26.2891-8.65234 25.8105-9.13086L25.0391-9.89258C24.5605-10.3711 24.1895-10.5273 23.7109-10.4883L23.1348-10.4395L22.4902-11.0742L22.7344-12.1973C22.8613-12.7637 22.7051-13.2031 22.1191-13.7891L19.9219-15.9766C16.582-19.2969 12.1484-19.2188 9.25781-16.3281C8.83789-15.918 8.80859-15.3418 9.04297-14.9512C9.27734-14.5898 9.73633-14.3555 10.3809-14.5215C11.8457-14.8633 13.3691-14.9219 14.7949-13.9844L14.209-12.5293C14.0137-12.0508 13.9844-11.6504 14.1113-11.2891L3.04688-0.898438C2.06055 0.0195312 1.98242 0.996094 2.8418 1.86523ZM10.752-15.957C13.1836-17.7344 16.4746-17.4316 18.7012-15.2051L21.1328-12.793C21.3672-12.5586 21.4062-12.373 21.3379-12.0312L21.0156-10.5469L22.5195-9.0625L23.5059-9.12109C23.7598-9.13086 23.8379-9.11133 24.0332-8.91602L24.6094-8.33984L22.168-5.89844L21.5918-6.47461C21.3965-6.66992 21.3672-6.74805 21.377-7.01172L21.4453-7.98828L19.9512-9.47266L18.4277-9.21875C18.1055-9.15039 17.959-9.17969 17.7148-9.41406L15.7129-11.416C15.459-11.6504 15.4297-11.8164 15.5859-12.1875L16.4648-14.2773C14.9023-15.7324 12.8711-16.3574 10.8398-15.7617C10.6836-15.7227 10.625-15.8496 10.752-15.957ZM5.27344 2.30469L4.10156 1.14258C3.63281 0.683594 3.74023 0.341797 4.14062-0.0195312L14.9512-10.1953L16.416-8.71094L6.42578 2.27539C6.07422 2.67578 5.74219 2.77344 5.27344 2.30469Z"/>
  </g>
  <text style="stroke:none;fill:black;font-family:-apple-system,&quot;SF Pro Display&quot;,&quot;SF Pro Text&quot;,Helvetica,sans-serif;font-weight:bold;" transform="matrix(1 0 0 1 1289 1953)">Exporting</text>
  <text style="stroke:none;fill:black;font-family:-apple-system,&quot;SF Pro Display&quot;,&quot;SF Pro Text&quot;,Helvetica,sans-serif;" transform="matrix(1 0 0 1 1289 1971)">Symbols should be outlined when exporting to ensure the</text>
  <text style="stroke:none;fill:black;font-family:-apple-system,&quot;SF Pro Display&quot;,&quot;SF Pro Text&quot;,Helvetica,sans-serif;" transform="matrix(1 0 0 1 1289 1989)">design is preserved when submitting to Xcode.</text>
  <text id="template-version" style="stroke:none;fill:black;font-family:-apple-system,&quot;SF Pro Display&quot;,&quot;SF Pro Text&quot;,Helvetica,sans-serif;text-anchor:end;" transform="matrix(1 0 0 1 3036 1933)">Template v.2.0</text>
  <text style="stroke:none;fill:black;font-family:-apple-system,&quot;SF Pro Display&quot;,&quot;SF Pro Text&quot;,Helvetica,sans-serif;text-anchor:end;" transform="matrix(1 0 0 1 3036 1951)">Requires Xcode 12 or greater</text>
  <text style="stroke:none;fill:black;font-family:-apple-system,&quot;SF Pro Display&quot;,&quot;SF Pro Text&quot;,Helvetica,sans-serif;" transform="matrix(1 0 0 1 263 726)">Small</text>
  <text style="stroke:none;fill:black;font-family:-apple-system,&quot;SF Pro Display&quot;,&quot;SF Pro Text&quot;,Helvetica,sans-serif;" transform="matrix(1 0 0 1 263 1156)">Medium</text>
  <text style="stroke:none;fill:black;font-family:-apple-system,&quot;SF Pro Display&quot;,&quot;SF Pro Text&quot;,Helvetica,sans-serif;" transform="matrix(1 0 0 1 263 1586)">Large</text>
 </g>
 <g id="Guides">
  <g id="H-reference" style="fill:#27AAE1;stroke:none;" transform="matrix(1 0 0 1 339 696)">
   <path d="M0.976562 0L3.66211 0L12.9883-24.4629L45.752-24.4629L55.127 0L57.7637 0L30.6152-70.459L28.125-70.459ZM29.3457-67.1387L29.4434-67.1387L44.873-26.709L13.8672-26.709Z"/>
  </g>
  <line id="Baseline-S" style="fill:none;stroke:#27AAE1;opacity:1;stroke-width:0.5;" x1="263" x2="3036" y1="696" y2="696"/>
  <line id="Capline-S" style="fill:none;stroke:#27AAE1;opacity:1;stroke-width:0.5;" x1="263" x2="3036" y1="625.541" y2="625.541"/>
  <g id="H-reference" style="fill:#27AAE1;stroke:none;" transform="matrix(1 0 0 1 339 1126)">
   <path d="M0.976562 0L3.66211 0L12.9883-24.4629L45.752-24.4629L55.127 0L57.7637 0L30.6152-70.459L28.125-70.459ZM29.3457-67.1387L29.4434-67.1387L44.873-26.709L13.8672-26.709Z"/>
  </g>
  <line id="Baseline-M" style="fill:none;stroke:#27AAE1;opacity:1;stroke-width:0.5;" x1="263" x2="3036" y1="1126" y2="1126"/>
  <line id="Capline-M" style="fill:none;stroke:#27AAE1;opacity:1;stroke-width:0.5;" x1="263" x2="3036" y1="1055.54" y2="1055.54"/>
  <g id="H-reference" style="fill:#27AAE1;stroke:none;" transform="matrix(1 0 0 1 339 1556)">
   <path d="M0.976562 0L3.66211 0L12.9883-24.4629L45.752-24.4629L55.127 0L57.7637 0L30.6152-70.459L28.125-70.459ZM29.3457-67.1387L29.4434-67.1387L44.873-26.709L13.8672-26.709Z"/>
  </g>
  <line id="Baseline-L" style="fill:none;stroke:#27AAE1;opacity:1;stroke-width:0.5;" x1="263" x2="3036" y1="1556" y2="1556"/>
  <line id="Capline-L" style="fill:none;stroke:#27AAE1;opacity:1;stroke-width:0.5;" x1="263" x2="3036" y1="1485.54" y2="1485.54"/>
  <line id="left-margin" x1="1401.7066461049908" x2="1401.7066461049908" y1="1030.79" y2="1150.12" style="fill:none;stroke:#00AEEF;stroke-width:0.5;opacity:1.0;"/>
  <line id="right-margin" x1="1500.553353895009" x2="1500.553353895009" y1="1030.79" y2="1150.12" style="fill:none;stroke:#00AEEF;stroke-width:0.5;opacity:1.0;"/>
 </g>
 <g id="Symbols">
  <g id="Black-L" transform="matrix(1.0,0.0,0.0,1.0,2852.941376250562,1439.031395781812)">  <path fill="#000000" fill-opacity="1" stroke-miterlimit="4" fill-rule="nonzero" version="1.1" stroke-linejoin="miter" stroke-linecap="butt" stroke-width="1px" stroke-opacity="1" stroke-dasharray="none" stroke="none" xmlns:xlink="http://www.w3.org/1999/xlink" d="M17.88,0C13.634,0,10.217,3.416,10.217,7.663C10.217,11.91,13.634,15.326,17.88,15.326L20.435,15.326L20.435,62.868C19.828,63.316,19.221,63.794,18.647,64.273C13.698,68.488,10.217,74.363,10.217,81.739C10.217,96.713,14.783,108.591,22.031,117.659C26.565,123.31,31.961,127.653,37.517,131.005L31.163,150.035C30.109,153.164,30.652,156.581,32.568,159.231C34.484,161.881,37.581,163.477,40.869,163.477L122.608,163.477C125.897,163.477,128.962,161.913,130.91,159.231C132.858,156.549,133.368,153.132,132.315,150.035L125.993,131.037C131.548,127.685,136.944,123.342,141.478,117.691C148.726,108.623,153.292,96.777,153.292,81.771C153.292,74.395,149.812,68.52,144.863,64.337C144.288,63.858,143.682,63.379,143.075,62.932L143.075,15.326L145.629,15.326C149.876,15.326,153.292,11.91,153.292,7.663C153.292,3.416,149.876,0,145.629,0L17.88,0ZM132.826,81.834C132.826,82.154,132.73,82.665,131.612,83.622C130.08,84.932,127.142,86.496,122.257,87.901C112.551,90.679,98.374,91.956,81.739,91.956C65.104,91.956,50.927,90.679,41.221,87.869C36.335,86.464,33.398,84.9,31.865,83.591C30.748,82.633,30.652,82.122,30.652,81.802L30.652,81.707L30.652,81.675C30.652,81.355,30.652,80.877,31.865,79.823C33.398,78.514,36.335,76.949,41.221,75.544C50.927,72.798,65.104,71.521,81.739,71.521C98.374,71.521,112.551,72.798,122.257,75.608C127.142,77.013,130.08,78.578,131.612,79.887C132.826,80.908,132.826,81.419,132.826,81.739L132.826,81.771L132.826,81.866L132.826,81.834ZM115.009,122.608L114.945,122.768L114.945,122.608L115.009,122.608ZM45.978,20.435L56.195,20.435C59.005,20.435,61.304,22.734,61.304,25.543C61.304,28.353,59.005,30.652,56.195,30.652L45.978,30.652C43.168,30.652,40.869,28.353,40.869,25.543C40.869,22.734,43.168,20.435,45.978,20.435ZM45.978,20.435"/>
</g>
  <g id="Heavy-L" transform="matrix(1.0,0.0,0.0,1.0,2556.231376250562,1439.031395781812)">  <path stroke="none" xmlns:xlink="http://www.w3.org/1999/xlink" stroke-linecap="butt" fill="#000000" stroke-opacity="1" version="1.1" fill-opacity="1" stroke-width="1px" stroke-dasharray="none" stroke-miterlimit="4" stroke-linejoin="miter" fill-rule="nonzero" d="M17.88,0C13.634,0,10.217,3.416,10.217,7.663C10.217,11.91,13.634,15.326,17.88,15.326L20.435,15.326L20.435,62.868C19.828,63.316,19.221,63.794,18.647,64.273C13.698,68.488,10.217,74.363,10.217,81.739C10.217,96.713,14.783,108.591,22.031,117.659C26.565,123.31,31.961,127.653,37.517,131.005L31.163,150.035C30.109,153.164,30.652,156.581,32.568,159.231C34.484,161.881,37.581,163.477,40.869,163.477L122.608,163.477C125.897,163.477,128.962,161.913,130.91,159.231C132.858,156.549,133.368,153.132,132.315,150.035L125.993,131.037C131.548,127.685,136.944,123.342,141.478,117.691C148.726,108.623,153.292,96.777,153.292,81.771C153.292,74.395,149.812,68.52,144.863,64.337C144.288,63.858,143.682,63.379,143.075,62.932L143.075,15.326L145.629,15.326C149.876,15.326,153.292,11.91,153.292,7.663C153.292,3.416,149.876,0,145.629,0L17.88,0ZM132.826,81.834C132.826,82.154,132.73,82.665,131.612,83.622C130.08,84.932,127.142,86.496,122.257,87.901C112.551,90.679,98.374,91.956,81.739,91.956C65.104,91.956,50.927,90.679,41.221,87.869C36.335,86.464,33.398,84.9,31.865,83.591C30.748,82.633,30.652,82.122,30.652,81.802L30.652,81.707L30.652,81.675C30.652,81.355,30.652,80.877,31.865,79.823C33.398,78.514,36.335,76.949,41.221,75.544C50.927,72.798,65.104,71.521,81.739,71.521C98.374,71.521,112.551,72.798,122.257,75.608C127.142,77.013,130.08,78.578,131.612,79.887C132.826,80.908,132.826,81.419,132.826,81.739L132.826,81.771L132.826,81.866L132.826,81.834ZM115.009,122.608L114.945,122.768L114.945,122.608L115.009,122.608ZM45.978,20.435L56.195,20.435C59.005,20.435,61.304,22.734,61.304,25.543C61.304,28.353,59.005,30.652,56.195,30.652L45.978,30.652C43.168,30.652,40.869,28.353,40.869,25.543C40.869,22.734,43.168,20.435,45.978,20.435ZM45.978,20.435"/>
</g>
  <g id="Bold-L" transform="matrix(1.0,0.0,0.0,1.0,2259.521376250562,1439.031395781812)">  <path xmlns:xlink="http://www.w3.org/1999/xlink" stroke-linejoin="miter" version="1.1" stroke-width="1px" stroke-dasharray="none" stroke-linecap="butt" fill-opacity="1" fill="#000000" fill-rule="nonzero" stroke-opacity="1" stroke="none" stroke-miterlimit="4" d="M17.88,0C13.634,0,10.217,3.416,10.217,7.663C10.217,11.91,13.634,15.326,17.88,15.326L20.435,15.326L20.435,62.868C19.828,63.316,19.221,63.794,18.647,64.273C13.698,68.488,10.217,74.363,10.217,81.739C10.217,96.713,14.783,108.591,22.031,117.659C26.565,123.31,31.961,127.653,37.517,131.005L31.163,150.035C30.109,153.164,30.652,156.581,32.568,159.231C34.484,161.881,37.581,163.477,40.869,163.477L122.608,163.477C125.897,163.477,128.962,161.913,130.91,159.231C132.858,156.549,133.368,153.132,132.315,150.035L125.993,131.037C131.548,127.685,136.944,123.342,141.478,117.691C148.726,108.623,153.292,96.777,153.292,81.771C153.292,74.395,149.812,68.52,144.863,64.337C144.288,63.858,143.682,63.379,143.075,62.932L143.075,15.326L145.629,15.326C149.876,15.326,153.292,11.91,153.292,7.663C153.292,3.416,149.876,0,145.629,0L17.88,0ZM132.826,81.834C132.826,82.154,132.73,82.665,131.612,83.622C130.08,84.932,127.142,86.496,122.257,87.901C112.551,90.679,98.374,91.956,81.739,91.956C65.104,91.956,50.927,90.679,41.221,87.869C36.335,86.464,33.398,84.9,31.865,83.591C30.748,82.633,30.652,82.122,30.652,81.802L30.652,81.707L30.652,81.675C30.652,81.355,30.652,80.877,31.865,79.823C33.398,78.514,36.335,76.949,41.221,75.544C50.927,72.798,65.104,71.521,81.739,71.521C98.374,71.521,112.551,72.798,122.257,75.608C127.142,77.013,130.08,78.578,131.612,79.887C132.826,80.908,132.826,81.419,132.826,81.739L132.826,81.771L132.826,81.866L132.826,81.834ZM115.009,122.608L114.945,122.768L114.945,122.608L115.009,122.608ZM45.978,20.435L56.195,20.435C59.005,20.435,61.304,22.734,61.304,25.543C61.304,28.353,59.005,30.652,56.195,30.652L45.978,30.652C43.168,30.652,40.869,28.353,40.869,25.543C40.869,22.734,43.168,20.435,45.978,20.435ZM45.978,20.435"/>
</g>
  <g id="Semibold-L" transform="matrix(1.0,0.0,0.0,1.0,1962.811376250562,1439.031395781812)">  <path stroke-miterlimit="4" fill-opacity="1" stroke="none" xmlns:xlink="http://www.w3.org/1999/xlink" stroke-width="1px" stroke-opacity="1" fill="#000000" fill-rule="nonzero" version="1.1" stroke-linejoin="miter" stroke-linecap="butt" stroke-dasharray="none" d="M17.88,0C13.634,0,10.217,3.416,10.217,7.663C10.217,11.91,13.634,15.326,17.88,15.326L20.435,15.326L20.435,62.868C19.828,63.316,19.221,63.794,18.647,64.273C13.698,68.488,10.217,74.363,10.217,81.739C10.217,96.713,14.783,108.591,22.031,117.659C26.565,123.31,31.961,127.653,37.517,131.005L31.163,150.035C30.109,153.164,30.652,156.581,32.568,159.231C34.484,161.881,37.581,163.477,40.869,163.477L122.608,163.477C125.897,163.477,128.962,161.913,130.91,159.231C132.858,156.549,133.368,153.132,132.315,150.035L125.993,131.037C131.548,127.685,136.944,123.342,141.478,117.691C148.726,108.623,153.292,96.777,153.292,81.771C153.292,74.395,149.812,68.52,144.863,64.337C144.288,63.858,143.682,63.379,143.075,62.932L143.075,15.326L145.629,15.326C149.876,15.326,153.292,11.91,153.292,7.663C153.292,3.416,149.876,0,145.629,0L17.88,0ZM132.826,81.834C132.826,82.154,132.73,82.665,131.612,83.622C130.08,84.932,127.142,86.496,122.257,87.901C112.551,90.679,98.374,91.956,81.739,91.956C65.104,91.956,50.927,90.679,41.221,87.869C36.335,86.464,33.398,84.9,31.865,83.591C30.748,82.633,30.652,82.122,30.652,81.802L30.652,81.707L30.652,81.675C30.652,81.355,30.652,80.877,31.865,79.823C33.398,78.514,36.335,76.949,41.221,75.544C50.927,72.798,65.104,71.521,81.739,71.521C98.374,71.521,112.551,72.798,122.257,75.608C127.142,77.013,130.08,78.578,131.612,79.887C132.826,80.908,132.826,81.419,132.826,81.739L132.826,81.771L132.826,81.866L132.826,81.834ZM115.009,122.608L114.945,122.768L114.945,122.608L115.009,122.608ZM45.978,20.435L56.195,20.435C59.005,20.435,61.304,22.734,61.304,25.543C61.304,28.353,59.005,30.652,56.195,30.652L45.978,30.652C43.168,30.652,40.869,28.353,40.869,25.543C40.869,22.734,43.168,20.435,45.978,20.435ZM45.978,20.435"/>
</g>
  <g id="Medium-L" transform="matrix(1.0,0.0,0.0,1.0,1666.101376250562,1439.031395781812)">  <path stroke-opacity="1" xmlns:xlink="http://www.w3.org/1999/xlink" fill-rule="nonzero" stroke-miterlimit="4" fill="#000000" stroke-linejoin="miter" fill-opacity="1" version="1.1" stroke-width="1px" stroke="none" stroke-linecap="butt" stroke-dasharray="none" d="M17.88,0C13.634,0,10.217,3.416,10.217,7.663C10.217,11.91,13.634,15.326,17.88,15.326L20.435,15.326L20.435,62.868C19.828,63.316,19.221,63.794,18.647,64.273C13.698,68.488,10.217,74.363,10.217,81.739C10.217,96.713,14.783,108.591,22.031,117.659C26.565,123.31,31.961,127.653,37.517,131.005L31.163,150.035C30.109,153.164,30.652,156.581,32.568,159.231C34.484,161.881,37.581,163.477,40.869,163.477L122.608,163.477C125.897,163.477,128.962,161.913,130.91,159.231C132.858,156.549,133.368,153.132,132.315,150.035L125.993,131.037C131.548,127.685,136.944,123.342,141.478,117.691C148.726,108.623,153.292,96.777,153.292,81.771C153.292,74.395,149.812,68.52,144.863,64.337C144.288,63.858,143.682,63.379,143.075,62.932L143.075,15.326L145.629,15.326C149.876,15.326,153.292,11.91,153.292,7.663C153.292,3.416,149.876,0,145.629,0L17.88,0ZM132.826,81.834C132.826,82.154,132.73,82.665,131.612,83.622C130.08,84.932,127.142,86.496,122.257,87.901C112.551,90.679,98.374,91.956,81.739,91.956C65.104,91.956,50.927,90.679,41.221,87.869C36.335,86.464,33.398,84.9,31.865,83.591C30.748,82.633,30.652,82.122,30.652,81.802L30.652,81.707L30.652,81.675C30.652,81.355,30.652,80.877,31.865,79.823C33.398,78.514,36.335,76.949,41.221,75.544C50.927,72.798,65.104,71.521,81.739,71.521C98.374,71.521,112.551,72.798,122.257,75.608C127.142,77.013,130.08,78.578,131.612,79.887C132.826,80.908,132.826,81.419,132.826,81.739L132.826,81.771L132.826,81.866L132.826,81.834ZM115.009,122.608L114.945,122.768L114.945,122.608L115.009,122.608ZM45.978,20.435L56.195,20.435C59.005,20.435,61.304,22.734,61.304,25.543C61.304,28.353,59.005,30.652,56.195,30.652L45.978,30.652C43.168,30.652,40.869,28.353,40.869,25.543C40.869,22.734,43.168,20.435,45.978,20.435ZM45.978,20.435"/>
</g>
  <g id="Regular-L" transform="matrix(1.0,0.0,0.0,1.0,1369.391376250562,1439.031395781812)">  <path stroke-linecap="butt" stroke-dasharray="none" fill="#000000" version="1.1" stroke-miterlimit="4" fill-rule="nonzero" stroke-opacity="1" stroke="none" stroke-linejoin="miter" fill-opacity="1" xmlns:xlink="http://www.w3.org/1999/xlink" stroke-width="1px" d="M17.88,0C13.634,0,10.217,3.416,10.217,7.663C10.217,11.91,13.634,15.326,17.88,15.326L20.435,15.326L20.435,62.868C19.828,63.316,19.221,63.794,18.647,64.273C13.698,68.488,10.217,74.363,10.217,81.739C10.217,96.713,14.783,108.591,22.031,117.659C26.565,123.31,31.961,127.653,37.517,131.005L31.163,150.035C30.109,153.164,30.652,156.581,32.568,159.231C34.484,161.881,37.581,163.477,40.869,163.477L122.608,163.477C125.897,163.477,128.962,161.913,130.91,159.231C132.858,156.549,133.368,153.132,132.315,150.035L125.993,131.037C131.548,127.685,136.944,123.342,141.478,117.691C148.726,108.623,153.292,96.777,153.292,81.771C153.292,74.395,149.812,68.52,144.863,64.337C144.288,63.858,143.682,63.379,143.075,62.932L143.075,15.326L145.629,15.326C149.876,15.326,153.292,11.91,153.292,7.663C153.292,3.416,149.876,0,145.629,0L17.88,0ZM132.826,81.834C132.826,82.154,132.73,82.665,131.612,83.622C130.08,84.932,127.142,86.496,122.257,87.901C112.551,90.679,98.374,91.956,81.739,91.956C65.104,91.956,50.927,90.679,41.221,87.869C36.335,86.464,33.398,84.9,31.865,83.591C30.748,82.633,30.652,82.122,30.652,81.802L30.652,81.707L30.652,81.675C30.652,81.355,30.652,80.877,31.865,79.823C33.398,78.514,36.335,76.949,41.221,75.544C50.927,72.798,65.104,71.521,81.739,71.521C98.374,71.521,112.551,72.798,122.257,75.608C127.142,77.013,130.08,78.578,131.612,79.887C132.826,80.908,132.826,81.419,132.826,81.739L132.826,81.771L132.826,81.866L132.826,81.834ZM115.009,122.608L114.945,122.768L114.945,122.608L115.009,122.608ZM45.978,20.435L56.195,20.435C59.005,20.435,61.304,22.734,61.304,25.543C61.304,28.353,59.005,30.652,56.195,30.652L45.978,30.652C43.168,30.652,40.869,28.353,40.869,25.543C40.869,22.734,43.168,20.435,45.978,20.435ZM45.978,20.435"/>
</g>
  <g id="Light-L" transform="matrix(1.0,0.0,0.0,1.0,1072.6813762505622,1439.031395781812)">  <path stroke-opacity="1" fill-opacity="1" fill-rule="nonzero" stroke-linecap="butt" stroke="none" xmlns:xlink="http://www.w3.org/1999/xlink" stroke-width="1px" version="1.1" stroke-miterlimit="4" stroke-dasharray="none" fill="#000000" stroke-linejoin="miter" d="M17.88,0C13.634,0,10.217,3.416,10.217,7.663C10.217,11.91,13.634,15.326,17.88,15.326L20.435,15.326L20.435,62.868C19.828,63.316,19.221,63.794,18.647,64.273C13.698,68.488,10.217,74.363,10.217,81.739C10.217,96.713,14.783,108.591,22.031,117.659C26.565,123.31,31.961,127.653,37.517,131.005L31.163,150.035C30.109,153.164,30.652,156.581,32.568,159.231C34.484,161.881,37.581,163.477,40.869,163.477L122.608,163.477C125.897,163.477,128.962,161.913,130.91,159.231C132.858,156.549,133.368,153.132,132.315,150.035L125.993,131.037C131.548,127.685,136.944,123.342,141.478,117.691C148.726,108.623,153.292,96.777,153.292,81.771C153.292,74.395,149.812,68.52,144.863,64.337C144.288,63.858,143.682,63.379,143.075,62.932L143.075,15.326L145.629,15.326C149.876,15.326,153.292,11.91,153.292,7.663C153.292,3.416,149.876,0,145.629,0L17.88,0ZM132.826,81.834C132.826,82.154,132.73,82.665,131.612,83.622C130.08,84.932,127.142,86.496,122.257,87.901C112.551,90.679,98.374,91.956,81.739,91.956C65.104,91.956,50.927,90.679,41.221,87.869C36.335,86.464,33.398,84.9,31.865,83.591C30.748,82.633,30.652,82.122,30.652,81.802L30.652,81.707L30.652,81.675C30.652,81.355,30.652,80.877,31.865,79.823C33.398,78.514,36.335,76.949,41.221,75.544C50.927,72.798,65.104,71.521,81.739,71.521C98.374,71.521,112.551,72.798,122.257,75.608C127.142,77.013,130.08,78.578,131.612,79.887C132.826,80.908,132.826,81.419,132.826,81.739L132.826,81.771L132.826,81.866L132.826,81.834ZM115.009,122.608L114.945,122.768L114.945,122.608L115.009,122.608ZM45.978,20.435L56.195,20.435C59.005,20.435,61.304,22.734,61.304,25.543C61.304,28.353,59.005,30.652,56.195,30.652L45.978,30.652C43.168,30.652,40.869,28.353,40.869,25.543C40.869,22.734,43.168,20.435,45.978,20.435ZM45.978,20.435"/>
</g>
  <g id="Thin-L" transform="matrix(1.0,0.0,0.0,1.0,775.9713762505621,1439.031395781812)">  <path fill="#000000" stroke-miterlimit="4" fill-opacity="1" stroke-width="1px" stroke-opacity="1" version="1.1" stroke-dasharray="none" fill-rule="nonzero" xmlns:xlink="http://www.w3.org/1999/xlink" stroke-linejoin="miter" stroke="none" stroke-linecap="butt" d="M17.88,0C13.634,0,10.217,3.416,10.217,7.663C10.217,11.91,13.634,15.326,17.88,15.326L20.435,15.326L20.435,62.868C19.828,63.316,19.221,63.794,18.647,64.273C13.698,68.488,10.217,74.363,10.217,81.739C10.217,96.713,14.783,108.591,22.031,117.659C26.565,123.31,31.961,127.653,37.517,131.005L31.163,150.035C30.109,153.164,30.652,156.581,32.568,159.231C34.484,161.881,37.581,163.477,40.869,163.477L122.608,163.477C125.897,163.477,128.962,161.913,130.91,159.231C132.858,156.549,133.368,153.132,132.315,150.035L125.993,131.037C131.548,127.685,136.944,123.342,141.478,117.691C148.726,108.623,153.292,96.777,153.292,81.771C153.292,74.395,149.812,68.52,144.863,64.337C144.288,63.858,143.682,63.379,143.075,62.932L143.075,15.326L145.629,15.326C149.876,15.326,153.292,11.91,153.292,7.663C153.292,3.416,149.876,0,145.629,0L17.88,0ZM132.826,81.834C132.826,82.154,132.73,82.665,131.612,83.622C130.08,84.932,127.142,86.496,122.257,87.901C112.551,90.679,98.374,91.956,81.739,91.956C65.104,91.956,50.927,90.679,41.221,87.869C36.335,86.464,33.398,84.9,31.865,83.591C30.748,82.633,30.652,82.122,30.652,81.802L30.652,81.707L30.652,81.675C30.652,81.355,30.652,80.877,31.865,79.823C33.398,78.514,36.335,76.949,41.221,75.544C50.927,72.798,65.104,71.521,81.739,71.521C98.374,71.521,112.551,72.798,122.257,75.608C127.142,77.013,130.08,78.578,131.612,79.887C132.826,80.908,132.826,81.419,132.826,81.739L132.826,81.771L132.826,81.866L132.826,81.834ZM115.009,122.608L114.945,122.768L114.945,122.608L115.009,122.608ZM45.978,20.435L56.195,20.435C59.005,20.435,61.304,22.734,61.304,25.543C61.304,28.353,59.005,30.652,56.195,30.652L45.978,30.652C43.168,30.652,40.869,28.353,40.869,25.543C40.869,22.734,43.168,20.435,45.978,20.435ZM45.978,20.435"/>
</g>
  <g id="Ultralight-L" transform="matrix(1.0,0.0,0.0,1.0,479.2613762505621,1439.031395781812)">  <path stroke-opacity="1" fill-opacity="1" stroke-linecap="butt" stroke-linejoin="miter" stroke-width="1px" stroke-dasharray="none" fill-rule="nonzero" version="1.1" stroke-miterlimit="4" xmlns:xlink="http://www.w3.org/1999/xlink" stroke="none" fill="#000000" d="M17.88,0C13.634,0,10.217,3.416,10.217,7.663C10.217,11.91,13.634,15.326,17.88,15.326L20.435,15.326L20.435,62.868C19.828,63.316,19.221,63.794,18.647,64.273C13.698,68.488,10.217,74.363,10.217,81.739C10.217,96.713,14.783,108.591,22.031,117.659C26.565,123.31,31.961,127.653,37.517,131.005L31.163,150.035C30.109,153.164,30.652,156.581,32.568,159.231C34.484,161.881,37.581,163.477,40.869,163.477L122.608,163.477C125.897,163.477,128.962,161.913,130.91,159.231C132.858,156.549,133.368,153.132,132.315,150.035L125.993,131.037C131.548,127.685,136.944,123.342,141.478,117.691C148.726,108.623,153.292,96.777,153.292,81.771C153.292,74.395,149.812,68.52,144.863,64.337C144.288,63.858,143.682,63.379,143.075,62.932L143.075,15.326L145.629,15.326C149.876,15.326,153.292,11.91,153.292,7.663C153.292,3.416,149.876,0,145.629,0L17.88,0ZM132.826,81.834C132.826,82.154,132.73,82.665,131.612,83.622C130.08,84.932,127.142,86.496,122.257,87.901C112.551,90.679,98.374,91.956,81.739,91.956C65.104,91.956,50.927,90.679,41.221,87.869C36.335,86.464,33.398,84.9,31.865,83.591C30.748,82.633,30.652,82.122,30.652,81.802L30.652,81.707L30.652,81.675C30.652,81.355,30.652,80.877,31.865,79.823C33.398,78.514,36.335,76.949,41.221,75.544C50.927,72.798,65.104,71.521,81.739,71.521C98.374,71.521,112.551,72.798,122.257,75.608C127.142,77.013,130.08,78.578,131.612,79.887C132.826,80.908,132.826,81.419,132.826,81.739L132.826,81.771L132.826,81.866L132.826,81.834ZM115.009,122.608L114.945,122.768L114.945,122.608L115.009,122.608ZM45.978,20.435L56.195,20.435C59.005,20.435,61.304,22.734,61.304,25.543C61.304,28.353,59.005,30.652,56.195,30.652L45.978,30.652C43.168,30.652,40.869,28.353,40.869,25.543C40.869,22.734,43.168,20.435,45.978,20.435ZM45.978,20.435"/>
</g>
  <g id="Black-M" transform="matrix(1.0,0.0,0.0,1.0,2871.3167257756295,1027.4067453068794)">  <path fill="#000000" fill-opacity="1" stroke-miterlimit="4" fill-rule="nonzero" version="1.1" stroke-linejoin="miter" stroke-linecap="butt" stroke-width="1px" stroke-opacity="1" stroke-dasharray="none" stroke="none" xmlns:xlink="http://www.w3.org/1999/xlink" d="M13.861,0C10.569,0,7.92,2.648,7.92,5.94C7.92,9.232,10.569,11.881,13.861,11.881L15.841,11.881L15.841,48.735C15.371,49.082,14.9,49.453,14.455,49.824C10.618,53.091,7.92,57.646,7.92,63.363C7.92,74.972,11.46,84.179,17.078,91.208C20.593,95.589,24.776,98.956,29.083,101.554L24.157,116.306C23.341,118.732,23.761,121.38,25.246,123.435C26.731,125.489,29.132,126.727,31.682,126.727L95.045,126.727C97.595,126.727,99.971,125.514,101.481,123.435C102.99,121.356,103.386,118.707,102.57,116.306L97.669,101.579C101.976,98.98,106.159,95.614,109.673,91.233C115.292,84.204,118.831,75.021,118.831,63.388C118.831,57.67,116.133,53.116,112.297,49.874C111.851,49.503,111.381,49.131,110.911,48.785L110.911,11.881L112.891,11.881C116.183,11.881,118.831,9.232,118.831,5.94C118.831,2.648,116.183,0,112.891,0L13.861,0ZM102.966,63.438C102.966,63.685,102.891,64.081,102.025,64.824C100.837,65.838,98.56,67.051,94.773,68.14C87.248,70.294,76.259,71.284,63.363,71.284C50.468,71.284,39.478,70.294,31.954,68.116C28.167,67.026,25.89,65.814,24.702,64.799C23.836,64.056,23.761,63.66,23.761,63.413L23.761,63.339L23.761,63.314C23.761,63.066,23.761,62.695,24.702,61.878C25.89,60.863,28.167,59.651,31.954,58.562C39.478,56.433,50.468,55.443,63.363,55.443C76.259,55.443,87.248,56.433,94.773,58.611C98.56,59.7,100.837,60.913,102.025,61.928C102.966,62.72,102.966,63.116,102.966,63.363L102.966,63.388L102.966,63.462L102.966,63.438ZM89.154,95.045L89.105,95.169L89.105,95.045L89.154,95.045ZM35.642,15.841L43.562,15.841C45.74,15.841,47.523,17.623,47.523,19.801C47.523,21.979,45.74,23.761,43.562,23.761L35.642,23.761C33.464,23.761,31.682,21.979,31.682,19.801C31.682,17.623,33.464,15.841,35.642,15.841ZM35.642,15.841"/>
</g>
  <g id="Heavy-M" transform="matrix(1.0,0.0,0.0,1.0,2574.6067257756295,1027.4067453068794)">  <path stroke="none" xmlns:xlink="http://www.w3.org/1999/xlink" stroke-linecap="butt" fill="#000000" stroke-opacity="1" version="1.1" fill-opacity="1" stroke-width="1px" stroke-dasharray="none" stroke-miterlimit="4" stroke-linejoin="miter" fill-rule="nonzero" d="M13.861,0C10.569,0,7.92,2.648,7.92,5.94C7.92,9.232,10.569,11.881,13.861,11.881L15.841,11.881L15.841,48.735C15.371,49.082,14.9,49.453,14.455,49.824C10.618,53.091,7.92,57.646,7.92,63.363C7.92,74.972,11.46,84.179,17.078,91.208C20.593,95.589,24.776,98.956,29.083,101.554L24.157,116.306C23.341,118.732,23.761,121.38,25.246,123.435C26.731,125.489,29.132,126.727,31.682,126.727L95.045,126.727C97.595,126.727,99.971,125.514,101.481,123.435C102.99,121.356,103.386,118.707,102.57,116.306L97.669,101.579C101.976,98.98,106.159,95.614,109.673,91.233C115.292,84.204,118.831,75.021,118.831,63.388C118.831,57.67,116.133,53.116,112.297,49.874C111.851,49.503,111.381,49.131,110.911,48.785L110.911,11.881L112.891,11.881C116.183,11.881,118.831,9.232,118.831,5.94C118.831,2.648,116.183,0,112.891,0L13.861,0ZM102.966,63.438C102.966,63.685,102.891,64.081,102.025,64.824C100.837,65.838,98.56,67.051,94.773,68.14C87.248,70.294,76.259,71.284,63.363,71.284C50.468,71.284,39.478,70.294,31.954,68.116C28.167,67.026,25.89,65.814,24.702,64.799C23.836,64.056,23.761,63.66,23.761,63.413L23.761,63.339L23.761,63.314C23.761,63.066,23.761,62.695,24.702,61.878C25.89,60.863,28.167,59.651,31.954,58.562C39.478,56.433,50.468,55.443,63.363,55.443C76.259,55.443,87.248,56.433,94.773,58.611C98.56,59.7,100.837,60.913,102.025,61.928C102.966,62.72,102.966,63.116,102.966,63.363L102.966,63.388L102.966,63.462L102.966,63.438ZM89.154,95.045L89.105,95.169L89.105,95.045L89.154,95.045ZM35.642,15.841L43.562,15.841C45.74,15.841,47.523,17.623,47.523,19.801C47.523,21.979,45.74,23.761,43.562,23.761L35.642,23.761C33.464,23.761,31.682,21.979,31.682,19.801C31.682,17.623,33.464,15.841,35.642,15.841ZM35.642,15.841"/>
</g>
  <g id="Bold-M" transform="matrix(1.0,0.0,0.0,1.0,2277.8967257756294,1027.4067453068794)">  <path xmlns:xlink="http://www.w3.org/1999/xlink" stroke-linejoin="miter" version="1.1" stroke-width="1px" stroke-dasharray="none" stroke-linecap="butt" fill-opacity="1" fill="#000000" fill-rule="nonzero" stroke-opacity="1" stroke="none" stroke-miterlimit="4" d="M13.861,0C10.569,0,7.92,2.648,7.92,5.94C7.92,9.232,10.569,11.881,13.861,11.881L15.841,11.881L15.841,48.735C15.371,49.082,14.9,49.453,14.455,49.824C10.618,53.091,7.92,57.646,7.92,63.363C7.92,74.972,11.46,84.179,17.078,91.208C20.593,95.589,24.776,98.956,29.083,101.554L24.157,116.306C23.341,118.732,23.761,121.38,25.246,123.435C26.731,125.489,29.132,126.727,31.682,126.727L95.045,126.727C97.595,126.727,99.971,125.514,101.481,123.435C102.99,121.356,103.386,118.707,102.57,116.306L97.669,101.579C101.976,98.98,106.159,95.614,109.673,91.233C115.292,84.204,118.831,75.021,118.831,63.388C118.831,57.67,116.133,53.116,112.297,49.874C111.851,49.503,111.381,49.131,110.911,48.785L110.911,11.881L112.891,11.881C116.183,11.881,118.831,9.232,118.831,5.94C118.831,2.648,116.183,0,112.891,0L13.861,0ZM102.966,63.438C102.966,63.685,102.891,64.081,102.025,64.824C100.837,65.838,98.56,67.051,94.773,68.14C87.248,70.294,76.259,71.284,63.363,71.284C50.468,71.284,39.478,70.294,31.954,68.116C28.167,67.026,25.89,65.814,24.702,64.799C23.836,64.056,23.761,63.66,23.761,63.413L23.761,63.339L23.761,63.314C23.761,63.066,23.761,62.695,24.702,61.878C25.89,60.863,28.167,59.651,31.954,58.562C39.478,56.433,50.468,55.443,63.363,55.443C76.259,55.443,87.248,56.433,94.773,58.611C98.56,59.7,100.837,60.913,102.025,61.928C102.966,62.72,102.966,63.116,102.966,63.363L102.966,63.388L102.966,63.462L102.966,63.438ZM89.154,95.045L89.105,95.169L89.105,95.045L89.154,95.045ZM35.642,15.841L43.562,15.841C45.74,15.841,47.523,17.623,47.523,19.801C47.523,21.979,45.74,23.761,43.562,23.761L35.642,23.761C33.464,23.761,31.682,21.979,31.682,19.801C31.682,17.623,33.464,15.841,35.642,15.841ZM35.642,15.841"/>
</g>
  <g id="Semibold-M" transform="matrix(1.0,0.0,0.0,1.0,1981.1867257756294,1027.4067453068794)">  <path stroke-miterlimit="4" fill-opacity="1" stroke="none" xmlns:xlink="http://www.w3.org/1999/xlink" stroke-width="1px" stroke-opacity="1" fill="#000000" fill-rule="nonzero" version="1.1" stroke-linejoin="miter" stroke-linecap="butt" stroke-dasharray="none" d="M13.861,0C10.569,0,7.92,2.648,7.92,5.94C7.92,9.232,10.569,11.881,13.861,11.881L15.841,11.881L15.841,48.735C15.371,49.082,14.9,49.453,14.455,49.824C10.618,53.091,7.92,57.646,7.92,63.363C7.92,74.972,11.46,84.179,17.078,91.208C20.593,95.589,24.776,98.956,29.083,101.554L24.157,116.306C23.341,118.732,23.761,121.38,25.246,123.435C26.731,125.489,29.132,126.727,31.682,126.727L95.045,126.727C97.595,126.727,99.971,125.514,101.481,123.435C102.99,121.356,103.386,118.707,102.57,116.306L97.669,101.579C101.976,98.98,106.159,95.614,109.673,91.233C115.292,84.204,118.831,75.021,118.831,63.388C118.831,57.67,116.133,53.116,112.297,49.874C111.851,49.503,111.381,49.131,110.911,48.785L110.911,11.881L112.891,11.881C116.183,11.881,118.831,9.232,118.831,5.94C118.831,2.648,116.183,0,112.891,0L13.861,0ZM102.966,63.438C102.966,63.685,102.891,64.081,102.025,64.824C100.837,65.838,98.56,67.051,94.773,68.14C87.248,70.294,76.259,71.284,63.363,71.284C50.468,71.284,39.478,70.294,31.954,68.116C28.167,67.026,25.89,65.814,24.702,64.799C23.836,64.056,23.761,63.66,23.761,63.413L23.761,63.339L23.761,63.314C23.761,63.066,23.761,62.695,24.702,61.878C25.89,60.863,28.167,59.651,31.954,58.562C39.478,56.433,50.468,55.443,63.363,55.443C76.259,55.443,87.248,56.433,94.773,58.611C98.56,59.7,100.837,60.913,102.025,61.928C102.966,62.72,102.966,63.116,102.966,63.363L102.966,63.388L102.966,63.462L102.966,63.438ZM89.154,95.045L89.105,95.169L89.105,95.045L89.154,95.045ZM35.642,15.841L43.562,15.841C45.74,15.841,47.523,17.623,47.523,19.801C47.523,21.979,45.74,23.761,43.562,23.761L35.642,23.761C33.464,23.761,31.682,21.979,31.682,19.801C31.682,17.623,33.464,15.841,35.642,15.841ZM35.642,15.841"/>
</g>
  <g id="Medium-M" transform="matrix(1.0,0.0,0.0,1.0,1684.4767257756293,1027.4067453068794)">  <path stroke-opacity="1" xmlns:xlink="http://www.w3.org/1999/xlink" fill-rule="nonzero" stroke-miterlimit="4" fill="#000000" stroke-linejoin="miter" fill-opacity="1" version="1.1" stroke-width="1px" stroke="none" stroke-linecap="butt" stroke-dasharray="none" d="M13.861,0C10.569,0,7.92,2.648,7.92,5.94C7.92,9.232,10.569,11.881,13.861,11.881L15.841,11.881L15.841,48.735C15.371,49.082,14.9,49.453,14.455,49.824C10.618,53.091,7.92,57.646,7.92,63.363C7.92,74.972,11.46,84.179,17.078,91.208C20.593,95.589,24.776,98.956,29.083,101.554L24.157,116.306C23.341,118.732,23.761,121.38,25.246,123.435C26.731,125.489,29.132,126.727,31.682,126.727L95.045,126.727C97.595,126.727,99.971,125.514,101.481,123.435C102.99,121.356,103.386,118.707,102.57,116.306L97.669,101.579C101.976,98.98,106.159,95.614,109.673,91.233C115.292,84.204,118.831,75.021,118.831,63.388C118.831,57.67,116.133,53.116,112.297,49.874C111.851,49.503,111.381,49.131,110.911,48.785L110.911,11.881L112.891,11.881C116.183,11.881,118.831,9.232,118.831,5.94C118.831,2.648,116.183,0,112.891,0L13.861,0ZM102.966,63.438C102.966,63.685,102.891,64.081,102.025,64.824C100.837,65.838,98.56,67.051,94.773,68.14C87.248,70.294,76.259,71.284,63.363,71.284C50.468,71.284,39.478,70.294,31.954,68.116C28.167,67.026,25.89,65.814,24.702,64.799C23.836,64.056,23.761,63.66,23.761,63.413L23.761,63.339L23.761,63.314C23.761,63.066,23.761,62.695,24.702,61.878C25.89,60.863,28.167,59.651,31.954,58.562C39.478,56.433,50.468,55.443,63.363,55.443C76.259,55.443,87.248,56.433,94.773,58.611C98.56,59.7,100.837,60.913,102.025,61.928C102.966,62.72,102.966,63.116,102.966,63.363L102.966,63.388L102.966,63.462L102.966,63.438ZM89.154,95.045L89.105,95.169L89.105,95.045L89.154,95.045ZM35.642,15.841L43.562,15.841C45.74,15.841,47.523,17.623,47.523,19.801C47.523,21.979,45.74,23.761,43.562,23.761L35.642,23.761C33.464,23.761,31.682,21.979,31.682,19.801C31.682,17.623,33.464,15.841,35.642,15.841ZM35.642,15.841"/>
</g>
  <g id="Regular-M" transform="matrix(1.0,0.0,0.0,1.0,1387.7667257756293,1027.4067453068794)">  <path stroke-linecap="butt" stroke-dasharray="none" fill="#000000" version="1.1" stroke-miterlimit="4" fill-rule="nonzero" stroke-opacity="1" stroke="none" stroke-linejoin="miter" fill-opacity="1" xmlns:xlink="http://www.w3.org/1999/xlink" stroke-width="1px" d="M13.861,0C10.569,0,7.92,2.648,7.92,5.94C7.92,9.232,10.569,11.881,13.861,11.881L15.841,11.881L15.841,48.735C15.371,49.082,14.9,49.453,14.455,49.824C10.618,53.091,7.92,57.646,7.92,63.363C7.92,74.972,11.46,84.179,17.078,91.208C20.593,95.589,24.776,98.956,29.083,101.554L24.157,116.306C23.341,118.732,23.761,121.38,25.246,123.435C26.731,125.489,29.132,126.727,31.682,126.727L95.045,126.727C97.595,126.727,99.971,125.514,101.481,123.435C102.99,121.356,103.386,118.707,102.57,116.306L97.669,101.579C101.976,98.98,106.159,95.614,109.673,91.233C115.292,84.204,118.831,75.021,118.831,63.388C118.831,57.67,116.133,53.116,112.297,49.874C111.851,49.503,111.381,49.131,110.911,48.785L110.911,11.881L112.891,11.881C116.183,11.881,118.831,9.232,118.831,5.94C118.831,2.648,116.183,0,112.891,0L13.861,0ZM102.966,63.438C102.966,63.685,102.891,64.081,102.025,64.824C100.837,65.838,98.56,67.051,94.773,68.14C87.248,70.294,76.259,71.284,63.363,71.284C50.468,71.284,39.478,70.294,31.954,68.116C28.167,67.026,25.89,65.814,24.702,64.799C23.836,64.056,23.761,63.66,23.761,63.413L23.761,63.339L23.761,63.314C23.761,63.066,23.761,62.695,24.702,61.878C25.89,60.863,28.167,59.651,31.954,58.562C39.478,56.433,50.468,55.443,63.363,55.443C76.259,55.443,87.248,56.433,94.773,58.611C98.56,59.7,100.837,60.913,102.025,61.928C102.966,62.72,102.966,63.116,102.966,63.363L102.966,63.388L102.966,63.462L102.966,63.438ZM89.154,95.045L89.105,95.169L89.105,95.045L89.154,95.045ZM35.642,15.841L43.562,15.841C45.74,15.841,47.523,17.623,47.523,19.801C47.523,21.979,45.74,23.761,43.562,23.761L35.642,23.761C33.464,23.761,31.682,21.979,31.682,19.801C31.682,17.623,33.464,15.841,35.642,15.841ZM35.642,15.841"/>
</g>
  <g id="Light-M" transform="matrix(1.0,0.0,0.0,1.0,1091.0567257756295,1027.4067453068794)">  <path stroke-opacity="1" fill-opacity="1" fill-rule="nonzero" stroke-linecap="butt" stroke="none" xmlns:xlink="http://www.w3.org/1999/xlink" stroke-width="1px" version="1.1" stroke-miterlimit="4" stroke-dasharray="none" fill="#000000" stroke-linejoin="miter" d="M13.861,0C10.569,0,7.92,2.648,7.92,5.94C7.92,9.232,10.569,11.881,13.861,11.881L15.841,11.881L15.841,48.735C15.371,49.082,14.9,49.453,14.455,49.824C10.618,53.091,7.92,57.646,7.92,63.363C7.92,74.972,11.46,84.179,17.078,91.208C20.593,95.589,24.776,98.956,29.083,101.554L24.157,116.306C23.341,118.732,23.761,121.38,25.246,123.435C26.731,125.489,29.132,126.727,31.682,126.727L95.045,126.727C97.595,126.727,99.971,125.514,101.481,123.435C102.99,121.356,103.386,118.707,102.57,116.306L97.669,101.579C101.976,98.98,106.159,95.614,109.673,91.233C115.292,84.204,118.831,75.021,118.831,63.388C118.831,57.67,116.133,53.116,112.297,49.874C111.851,49.503,111.381,49.131,110.911,48.785L110.911,11.881L112.891,11.881C116.183,11.881,118.831,9.232,118.831,5.94C118.831,2.648,116.183,0,112.891,0L13.861,0ZM102.966,63.438C102.966,63.685,102.891,64.081,102.025,64.824C100.837,65.838,98.56,67.051,94.773,68.14C87.248,70.294,76.259,71.284,63.363,71.284C50.468,71.284,39.478,70.294,31.954,68.116C28.167,67.026,25.89,65.814,24.702,64.799C23.836,64.056,23.761,63.66,23.761,63.413L23.761,63.339L23.761,63.314C23.761,63.066,23.761,62.695,24.702,61.878C25.89,60.863,28.167,59.651,31.954,58.562C39.478,56.433,50.468,55.443,63.363,55.443C76.259,55.443,87.248,56.433,94.773,58.611C98.56,59.7,100.837,60.913,102.025,61.928C102.966,62.72,102.966,63.116,102.966,63.363L102.966,63.388L102.966,63.462L102.966,63.438ZM89.154,95.045L89.105,95.169L89.105,95.045L89.154,95.045ZM35.642,15.841L43.562,15.841C45.74,15.841,47.523,17.623,47.523,19.801C47.523,21.979,45.74,23.761,43.562,23.761L35.642,23.761C33.464,23.761,31.682,21.979,31.682,19.801C31.682,17.623,33.464,15.841,35.642,15.841ZM35.642,15.841"/>
</g>
  <g id="Thin-M" transform="matrix(1.0,0.0,0.0,1.0,794.3467257756296,1027.4067453068794)">  <path fill="#000000" stroke-miterlimit="4" fill-opacity="1" stroke-width="1px" stroke-opacity="1" version="1.1" stroke-dasharray="none" fill-rule="nonzero" xmlns:xlink="http://www.w3.org/1999/xlink" stroke-linejoin="miter" stroke="none" stroke-linecap="butt" d="M13.861,0C10.569,0,7.92,2.648,7.92,5.94C7.92,9.232,10.569,11.881,13.861,11.881L15.841,11.881L15.841,48.735C15.371,49.082,14.9,49.453,14.455,49.824C10.618,53.091,7.92,57.646,7.92,63.363C7.92,74.972,11.46,84.179,17.078,91.208C20.593,95.589,24.776,98.956,29.083,101.554L24.157,116.306C23.341,118.732,23.761,121.38,25.246,123.435C26.731,125.489,29.132,126.727,31.682,126.727L95.045,126.727C97.595,126.727,99.971,125.514,101.481,123.435C102.99,121.356,103.386,118.707,102.57,116.306L97.669,101.579C101.976,98.98,106.159,95.614,109.673,91.233C115.292,84.204,118.831,75.021,118.831,63.388C118.831,57.67,116.133,53.116,112.297,49.874C111.851,49.503,111.381,49.131,110.911,48.785L110.911,11.881L112.891,11.881C116.183,11.881,118.831,9.232,118.831,5.94C118.831,2.648,116.183,0,112.891,0L13.861,0ZM102.966,63.438C102.966,63.685,102.891,64.081,102.025,64.824C100.837,65.838,98.56,67.051,94.773,68.14C87.248,70.294,76.259,71.284,63.363,71.284C50.468,71.284,39.478,70.294,31.954,68.116C28.167,67.026,25.89,65.814,24.702,64.799C23.836,64.056,23.761,63.66,23.761,63.413L23.761,63.339L23.761,63.314C23.761,63.066,23.761,62.695,24.702,61.878C25.89,60.863,28.167,59.651,31.954,58.562C39.478,56.433,50.468,55.443,63.363,55.443C76.259,55.443,87.248,56.433,94.773,58.611C98.56,59.7,100.837,60.913,102.025,61.928C102.966,62.72,102.966,63.116,102.966,63.363L102.966,63.388L102.966,63.462L102.966,63.438ZM89.154,95.045L89.105,95.169L89.105,95.045L89.154,95.045ZM35.642,15.841L43.562,15.841C45.74,15.841,47.523,17.623,47.523,19.801C47.523,21.979,45.74,23.761,43.562,23.761L35.642,23.761C33.464,23.761,31.682,21.979,31.682,19.801C31.682,17.623,33.464,15.841,35.642,15.841ZM35.642,15.841"/>
</g>
  <g id="Ultralight-M" transform="matrix(1.0,0.0,0.0,1.0,497.6367257756295,1027.4067453068794)">  <path stroke-opacity="1" fill-opacity="1" stroke-linecap="butt" stroke-linejoin="miter" stroke-width="1px" stroke-dasharray="none" fill-rule="nonzero" version="1.1" stroke-miterlimit="4" xmlns:xlink="http://www.w3.org/1999/xlink" stroke="none" fill="#000000" d="M13.861,0C10.569,0,7.92,2.648,7.92,5.94C7.92,9.232,10.569,11.881,13.861,11.881L15.841,11.881L15.841,48.735C15.371,49.082,14.9,49.453,14.455,49.824C10.618,53.091,7.92,57.646,7.92,63.363C7.92,74.972,11.46,84.179,17.078,91.208C20.593,95.589,24.776,98.956,29.083,101.554L24.157,116.306C23.341,118.732,23.761,121.38,25.246,123.435C26.731,125.489,29.132,126.727,31.682,126.727L95.045,126.727C97.595,126.727,99.971,125.514,101.481,123.435C102.99,121.356,103.386,118.707,102.57,116.306L97.669,101.579C101.976,98.98,106.159,95.614,109.673,91.233C115.292,84.204,118.831,75.021,118.831,63.388C118.831,57.67,116.133,53.116,112.297,49.874C111.851,49.503,111.381,49.131,110.911,48.785L110.911,11.881L112.891,11.881C116.183,11.881,118.831,9.232,118.831,5.94C118.831,2.648,116.183,0,112.891,0L13.861,0ZM102.966,63.438C102.966,63.685,102.891,64.081,102.025,64.824C100.837,65.838,98.56,67.051,94.773,68.14C87.248,70.294,76.259,71.284,63.363,71.284C50.468,71.284,39.478,70.294,31.954,68.116C28.167,67.026,25.89,65.814,24.702,64.799C23.836,64.056,23.761,63.66,23.761,63.413L23.761,63.339L23.761,63.314C23.761,63.066,23.761,62.695,24.702,61.878C25.89,60.863,28.167,59.651,31.954,58.562C39.478,56.433,50.468,55.443,63.363,55.443C76.259,55.443,87.248,56.433,94.773,58.611C98.56,59.7,100.837,60.913,102.025,61.928C102.966,62.72,102.966,63.116,102.966,63.363L102.966,63.388L102.966,63.462L102.966,63.438ZM89.154,95.045L89.105,95.169L89.105,95.045L89.154,95.045ZM35.642,15.841L43.562,15.841C45.74,15.841,47.523,17.623,47.523,19.801C47.523,21.979,45.74,23.761,43.562,23.761L35.642,23.761C33.464,23.761,31.682,21.979,31.682,19.801C31.682,17.623,33.464,15.841,35.642,15.841ZM35.642,15.841"/>
</g>
  <g id="Black-S" transform="matrix(1.0,0.0,0.0,1.0,2885.066556282318,611.1565758135679)">  <path fill="#000000" fill-opacity="1" stroke-miterlimit="4" fill-rule="nonzero" version="1.1" stroke-linejoin="miter" stroke-linecap="butt" stroke-width="1px" stroke-opacity="1" stroke-dasharray="none" stroke="none" xmlns:xlink="http://www.w3.org/1999/xlink" d="M10.853,0C8.275,0,6.202,2.074,6.202,4.651C6.202,7.229,8.275,9.303,10.853,9.303L12.403,9.303L12.403,38.16C12.035,38.431,11.667,38.722,11.318,39.012C8.314,41.571,6.202,45.137,6.202,49.613C6.202,58.703,8.973,65.912,13.372,71.416C16.124,74.847,19.4,77.482,22.772,79.517L18.915,91.068C18.276,92.967,18.605,95.041,19.768,96.649C20.931,98.258,22.811,99.227,24.807,99.227L74.42,99.227C76.417,99.227,78.277,98.277,79.459,96.649C80.641,95.021,80.952,92.948,80.312,91.068L76.475,79.537C79.847,77.502,83.122,74.866,85.874,71.436C90.273,65.932,93.045,58.742,93.045,49.633C93.045,45.156,90.932,41.59,87.928,39.051C87.58,38.761,87.211,38.47,86.843,38.198L86.843,9.303L88.394,9.303C90.971,9.303,93.045,7.229,93.045,4.651C93.045,2.074,90.971,0,88.394,0L10.853,0ZM80.622,49.672C80.622,49.865,80.564,50.175,79.886,50.757C78.955,51.551,77.172,52.501,74.207,53.354C68.316,55.04,59.711,55.815,49.614,55.815C39.516,55.815,30.912,55.04,25.02,53.334C22.055,52.482,20.272,51.532,19.342,50.737C18.663,50.156,18.605,49.846,18.605,49.652L18.605,49.594L18.605,49.575C18.605,49.381,18.605,49.09,19.342,48.451C20.272,47.656,22.055,46.706,25.02,45.854C30.912,44.187,39.516,43.412,49.614,43.412C59.711,43.412,68.316,44.187,74.207,45.892C77.172,46.745,78.955,47.695,79.886,48.489C80.622,49.11,80.622,49.42,80.622,49.613L80.622,49.633L80.622,49.691L80.622,49.672ZM69.808,74.42L69.769,74.517L69.769,74.42L69.808,74.42ZM27.908,12.403L34.109,12.403C35.815,12.403,37.21,13.799,37.21,15.504C37.21,17.21,35.815,18.605,34.109,18.605L27.908,18.605C26.202,18.605,24.807,17.21,24.807,15.504C24.807,13.799,26.202,12.403,27.908,12.403ZM27.908,12.403"/>
</g>
  <g id="Heavy-S" transform="matrix(1.0,0.0,0.0,1.0,2588.356556282318,611.1565758135679)">  <path stroke="none" xmlns:xlink="http://www.w3.org/1999/xlink" stroke-linecap="butt" fill="#000000" stroke-opacity="1" version="1.1" fill-opacity="1" stroke-width="1px" stroke-dasharray="none" stroke-miterlimit="4" stroke-linejoin="miter" fill-rule="nonzero" d="M10.853,0C8.275,0,6.202,2.074,6.202,4.651C6.202,7.229,8.275,9.303,10.853,9.303L12.403,9.303L12.403,38.16C12.035,38.431,11.667,38.722,11.318,39.012C8.314,41.571,6.202,45.137,6.202,49.613C6.202,58.703,8.973,65.912,13.372,71.416C16.124,74.847,19.4,77.482,22.772,79.517L18.915,91.068C18.276,92.967,18.605,95.041,19.768,96.649C20.931,98.258,22.811,99.227,24.807,99.227L74.42,99.227C76.417,99.227,78.277,98.277,79.459,96.649C80.641,95.021,80.952,92.948,80.312,91.068L76.475,79.537C79.847,77.502,83.122,74.866,85.874,71.436C90.273,65.932,93.045,58.742,93.045,49.633C93.045,45.156,90.932,41.59,87.928,39.051C87.58,38.761,87.211,38.47,86.843,38.198L86.843,9.303L88.394,9.303C90.971,9.303,93.045,7.229,93.045,4.651C93.045,2.074,90.971,0,88.394,0L10.853,0ZM80.622,49.672C80.622,49.865,80.564,50.175,79.886,50.757C78.955,51.551,77.172,52.501,74.207,53.354C68.316,55.04,59.711,55.815,49.614,55.815C39.516,55.815,30.912,55.04,25.02,53.334C22.055,52.482,20.272,51.532,19.342,50.737C18.663,50.156,18.605,49.846,18.605,49.652L18.605,49.594L18.605,49.575C18.605,49.381,18.605,49.09,19.342,48.451C20.272,47.656,22.055,46.706,25.02,45.854C30.912,44.187,39.516,43.412,49.614,43.412C59.711,43.412,68.316,44.187,74.207,45.892C77.172,46.745,78.955,47.695,79.886,48.489C80.622,49.11,80.622,49.42,80.622,49.613L80.622,49.633L80.622,49.691L80.622,49.672ZM69.808,74.42L69.769,74.517L69.769,74.42L69.808,74.42ZM27.908,12.403L34.109,12.403C35.815,12.403,37.21,13.799,37.21,15.504C37.21,17.21,35.815,18.605,34.109,18.605L27.908,18.605C26.202,18.605,24.807,17.21,24.807,15.504C24.807,13.799,26.202,12.403,27.908,12.403ZM27.908,12.403"/>
</g>
  <g id="Bold-S" transform="matrix(1.0,0.0,0.0,1.0,2291.6465562823178,611.1565758135679)">  <path xmlns:xlink="http://www.w3.org/1999/xlink" stroke-linejoin="miter" version="1.1" stroke-width="1px" stroke-dasharray="none" stroke-linecap="butt" fill-opacity="1" fill="#000000" fill-rule="nonzero" stroke-opacity="1" stroke="none" stroke-miterlimit="4" d="M10.853,0C8.275,0,6.202,2.074,6.202,4.651C6.202,7.229,8.275,9.303,10.853,9.303L12.403,9.303L12.403,38.16C12.035,38.431,11.667,38.722,11.318,39.012C8.314,41.571,6.202,45.137,6.202,49.613C6.202,58.703,8.973,65.912,13.372,71.416C16.124,74.847,19.4,77.482,22.772,79.517L18.915,91.068C18.276,92.967,18.605,95.041,19.768,96.649C20.931,98.258,22.811,99.227,24.807,99.227L74.42,99.227C76.417,99.227,78.277,98.277,79.459,96.649C80.641,95.021,80.952,92.948,80.312,91.068L76.475,79.537C79.847,77.502,83.122,74.866,85.874,71.436C90.273,65.932,93.045,58.742,93.045,49.633C93.045,45.156,90.932,41.59,87.928,39.051C87.58,38.761,87.211,38.47,86.843,38.198L86.843,9.303L88.394,9.303C90.971,9.303,93.045,7.229,93.045,4.651C93.045,2.074,90.971,0,88.394,0L10.853,0ZM80.622,49.672C80.622,49.865,80.564,50.175,79.886,50.757C78.955,51.551,77.172,52.501,74.207,53.354C68.316,55.04,59.711,55.815,49.614,55.815C39.516,55.815,30.912,55.04,25.02,53.334C22.055,52.482,20.272,51.532,19.342,50.737C18.663,50.156,18.605,49.846,18.605,49.652L18.605,49.594L18.605,49.575C18.605,49.381,18.605,49.09,19.342,48.451C20.272,47.656,22.055,46.706,25.02,45.854C30.912,44.187,39.516,43.412,49.614,43.412C59.711,43.412,68.316,44.187,74.207,45.892C77.172,46.745,78.955,47.695,79.886,48.489C80.622,49.11,80.622,49.42,80.622,49.613L80.622,49.633L80.622,49.691L80.622,49.672ZM69.808,74.42L69.769,74.517L69.769,74.42L69.808,74.42ZM27.908,12.403L34.109,12.403C35.815,12.403,37.21,13.799,37.21,15.504C37.21,17.21,35.815,18.605,34.109,18.605L27.908,18.605C26.202,18.605,24.807,17.21,24.807,15.504C24.807,13.799,26.202,12.403,27.908,12.403ZM27.908,12.403"/>
</g>
  <g id="Semibold-S" transform="matrix(1.0,0.0,0.0,1.0,1994.936556282318,611.1565758135679)">  <path stroke-miterlimit="4" fill-opacity="1" stroke="none" xmlns:xlink="http://www.w3.org/1999/xlink" stroke-width="1px" stroke-opacity="1" fill="#000000" fill-rule="nonzero" version="1.1" stroke-linejoin="miter" stroke-linecap="butt" stroke-dasharray="none" d="M10.853,0C8.275,0,6.202,2.074,6.202,4.651C6.202,7.229,8.275,9.303,10.853,9.303L12.403,9.303L12.403,38.16C12.035,38.431,11.667,38.722,11.318,39.012C8.314,41.571,6.202,45.137,6.202,49.613C6.202,58.703,8.973,65.912,13.372,71.416C16.124,74.847,19.4,77.482,22.772,79.517L18.915,91.068C18.276,92.967,18.605,95.041,19.768,96.649C20.931,98.258,22.811,99.227,24.807,99.227L74.42,99.227C76.417,99.227,78.277,98.277,79.459,96.649C80.641,95.021,80.952,92.948,80.312,91.068L76.475,79.537C79.847,77.502,83.122,74.866,85.874,71.436C90.273,65.932,93.045,58.742,93.045,49.633C93.045,45.156,90.932,41.59,87.928,39.051C87.58,38.761,87.211,38.47,86.843,38.198L86.843,9.303L88.394,9.303C90.971,9.303,93.045,7.229,93.045,4.651C93.045,2.074,90.971,0,88.394,0L10.853,0ZM80.622,49.672C80.622,49.865,80.564,50.175,79.886,50.757C78.955,51.551,77.172,52.501,74.207,53.354C68.316,55.04,59.711,55.815,49.614,55.815C39.516,55.815,30.912,55.04,25.02,53.334C22.055,52.482,20.272,51.532,19.342,50.737C18.663,50.156,18.605,49.846,18.605,49.652L18.605,49.594L18.605,49.575C18.605,49.381,18.605,49.09,19.342,48.451C20.272,47.656,22.055,46.706,25.02,45.854C30.912,44.187,39.516,43.412,49.614,43.412C59.711,43.412,68.316,44.187,74.207,45.892C77.172,46.745,78.955,47.695,79.886,48.489C80.622,49.11,80.622,49.42,80.622,49.613L80.622,49.633L80.622,49.691L80.622,49.672ZM69.808,74.42L69.769,74.517L69.769,74.42L69.808,74.42ZM27.908,12.403L34.109,12.403C35.815,12.403,37.21,13.799,37.21,15.504C37.21,17.21,35.815,18.605,34.109,18.605L27.908,18.605C26.202,18.605,24.807,17.21,24.807,15.504C24.807,13.799,26.202,12.403,27.908,12.403ZM27.908,12.403"/>
</g>
  <g id="Medium-S" transform="matrix(1.0,0.0,0.0,1.0,1698.226556282318,611.1565758135679)">  <path stroke-opacity="1" xmlns:xlink="http://www.w3.org/1999/xlink" fill-rule="nonzero" stroke-miterlimit="4" fill="#000000" stroke-linejoin="miter" fill-opacity="1" version="1.1" stroke-width="1px" stroke="none" stroke-linecap="butt" stroke-dasharray="none" d="M10.853,0C8.275,0,6.202,2.074,6.202,4.651C6.202,7.229,8.275,9.303,10.853,9.303L12.403,9.303L12.403,38.16C12.035,38.431,11.667,38.722,11.318,39.012C8.314,41.571,6.202,45.137,6.202,49.613C6.202,58.703,8.973,65.912,13.372,71.416C16.124,74.847,19.4,77.482,22.772,79.517L18.915,91.068C18.276,92.967,18.605,95.041,19.768,96.649C20.931,98.258,22.811,99.227,24.807,99.227L74.42,99.227C76.417,99.227,78.277,98.277,79.459,96.649C80.641,95.021,80.952,92.948,80.312,91.068L76.475,79.537C79.847,77.502,83.122,74.866,85.874,71.436C90.273,65.932,93.045,58.742,93.045,49.633C93.045,45.156,90.932,41.59,87.928,39.051C87.58,38.761,87.211,38.47,86.843,38.198L86.843,9.303L88.394,9.303C90.971,9.303,93.045,7.229,93.045,4.651C93.045,2.074,90.971,0,88.394,0L10.853,0ZM80.622,49.672C80.622,49.865,80.564,50.175,79.886,50.757C78.955,51.551,77.172,52.501,74.207,53.354C68.316,55.04,59.711,55.815,49.614,55.815C39.516,55.815,30.912,55.04,25.02,53.334C22.055,52.482,20.272,51.532,19.342,50.737C18.663,50.156,18.605,49.846,18.605,49.652L18.605,49.594L18.605,49.575C18.605,49.381,18.605,49.09,19.342,48.451C20.272,47.656,22.055,46.706,25.02,45.854C30.912,44.187,39.516,43.412,49.614,43.412C59.711,43.412,68.316,44.187,74.207,45.892C77.172,46.745,78.955,47.695,79.886,48.489C80.622,49.11,80.622,49.42,80.622,49.613L80.622,49.633L80.622,49.691L80.622,49.672ZM69.808,74.42L69.769,74.517L69.769,74.42L69.808,74.42ZM27.908,12.403L34.109,12.403C35.815,12.403,37.21,13.799,37.21,15.504C37.21,17.21,35.815,18.605,34.109,18.605L27.908,18.605C26.202,18.605,24.807,17.21,24.807,15.504C24.807,13.799,26.202,12.403,27.908,12.403ZM27.908,12.403"/>
</g>
  <g id="Regular-S" transform="matrix(1.0,0.0,0.0,1.0,1401.5165562823179,611.1565758135679)">  <path stroke-linecap="butt" stroke-dasharray="none" fill="#000000" version="1.1" stroke-miterlimit="4" fill-rule="nonzero" stroke-opacity="1" stroke="none" stroke-linejoin="miter" fill-opacity="1" xmlns:xlink="http://www.w3.org/1999/xlink" stroke-width="1px" d="M10.853,0C8.275,0,6.202,2.074,6.202,4.651C6.202,7.229,8.275,9.303,10.853,9.303L12.403,9.303L12.403,38.16C12.035,38.431,11.667,38.722,11.318,39.012C8.314,41.571,6.202,45.137,6.202,49.613C6.202,58.703,8.973,65.912,13.372,71.416C16.124,74.847,19.4,77.482,22.772,79.517L18.915,91.068C18.276,92.967,18.605,95.041,19.768,96.649C20.931,98.258,22.811,99.227,24.807,99.227L74.42,99.227C76.417,99.227,78.277,98.277,79.459,96.649C80.641,95.021,80.952,92.948,80.312,91.068L76.475,79.537C79.847,77.502,83.122,74.866,85.874,71.436C90.273,65.932,93.045,58.742,93.045,49.633C93.045,45.156,90.932,41.59,87.928,39.051C87.58,38.761,87.211,38.47,86.843,38.198L86.843,9.303L88.394,9.303C90.971,9.303,93.045,7.229,93.045,4.651C93.045,2.074,90.971,0,88.394,0L10.853,0ZM80.622,49.672C80.622,49.865,80.564,50.175,79.886,50.757C78.955,51.551,77.172,52.501,74.207,53.354C68.316,55.04,59.711,55.815,49.614,55.815C39.516,55.815,30.912,55.04,25.02,53.334C22.055,52.482,20.272,51.532,19.342,50.737C18.663,50.156,18.605,49.846,18.605,49.652L18.605,49.594L18.605,49.575C18.605,49.381,18.605,49.09,19.342,48.451C20.272,47.656,22.055,46.706,25.02,45.854C30.912,44.187,39.516,43.412,49.614,43.412C59.711,43.412,68.316,44.187,74.207,45.892C77.172,46.745,78.955,47.695,79.886,48.489C80.622,49.11,80.622,49.42,80.622,49.613L80.622,49.633L80.622,49.691L80.622,49.672ZM69.808,74.42L69.769,74.517L69.769,74.42L69.808,74.42ZM27.908,12.403L34.109,12.403C35.815,12.403,37.21,13.799,37.21,15.504C37.21,17.21,35.815,18.605,34.109,18.605L27.908,18.605C26.202,18.605,24.807,17.21,24.807,15.504C24.807,13.799,26.202,12.403,27.908,12.403ZM27.908,12.403"/>
</g>
  <g id="Light-S" transform="matrix(1.0,0.0,0.0,1.0,1104.806556282318,611.1565758135679)">  <path stroke-opacity="1" fill-opacity="1" fill-rule="nonzero" stroke-linecap="butt" stroke="none" xmlns:xlink="http://www.w3.org/1999/xlink" stroke-width="1px" version="1.1" stroke-miterlimit="4" stroke-dasharray="none" fill="#000000" stroke-linejoin="miter" d="M10.853,0C8.275,0,6.202,2.074,6.202,4.651C6.202,7.229,8.275,9.303,10.853,9.303L12.403,9.303L12.403,38.16C12.035,38.431,11.667,38.722,11.318,39.012C8.314,41.571,6.202,45.137,6.202,49.613C6.202,58.703,8.973,65.912,13.372,71.416C16.124,74.847,19.4,77.482,22.772,79.517L18.915,91.068C18.276,92.967,18.605,95.041,19.768,96.649C20.931,98.258,22.811,99.227,24.807,99.227L74.42,99.227C76.417,99.227,78.277,98.277,79.459,96.649C80.641,95.021,80.952,92.948,80.312,91.068L76.475,79.537C79.847,77.502,83.122,74.866,85.874,71.436C90.273,65.932,93.045,58.742,93.045,49.633C93.045,45.156,90.932,41.59,87.928,39.051C87.58,38.761,87.211,38.47,86.843,38.198L86.843,9.303L88.394,9.303C90.971,9.303,93.045,7.229,93.045,4.651C93.045,2.074,90.971,0,88.394,0L10.853,0ZM80.622,49.672C80.622,49.865,80.564,50.175,79.886,50.757C78.955,51.551,77.172,52.501,74.207,53.354C68.316,55.04,59.711,55.815,49.614,55.815C39.516,55.815,30.912,55.04,25.02,53.334C22.055,52.482,20.272,51.532,19.342,50.737C18.663,50.156,18.605,49.846,18.605,49.652L18.605,49.594L18.605,49.575C18.605,49.381,18.605,49.09,19.342,48.451C20.272,47.656,22.055,46.706,25.02,45.854C30.912,44.187,39.516,43.412,49.614,43.412C59.711,43.412,68.316,44.187,74.207,45.892C77.172,46.745,78.955,47.695,79.886,48.489C80.622,49.11,80.622,49.42,80.622,49.613L80.622,49.633L80.622,49.691L80.622,49.672ZM69.808,74.42L69.769,74.517L69.769,74.42L69.808,74.42ZM27.908,12.403L34.109,12.403C35.815,12.403,37.21,13.799,37.21,15.504C37.21,17.21,35.815,18.605,34.109,18.605L27.908,18.605C26.202,18.605,24.807,17.21,24.807,15.504C24.807,13.799,26.202,12.403,27.908,12.403ZM27.908,12.403"/>
</g>
  <g id="Thin-S" transform="matrix(1.0,0.0,0.0,1.0,808.0965562823179,611.1565758135679)">  <path fill="#000000" stroke-miterlimit="4" fill-opacity="1" stroke-width="1px" stroke-opacity="1" version="1.1" stroke-dasharray="none" fill-rule="nonzero" xmlns:xlink="http://www.w3.org/1999/xlink" stroke-linejoin="miter" stroke="none" stroke-linecap="butt" d="M10.853,0C8.275,0,6.202,2.074,6.202,4.651C6.202,7.229,8.275,9.303,10.853,9.303L12.403,9.303L12.403,38.16C12.035,38.431,11.667,38.722,11.318,39.012C8.314,41.571,6.202,45.137,6.202,49.613C6.202,58.703,8.973,65.912,13.372,71.416C16.124,74.847,19.4,77.482,22.772,79.517L18.915,91.068C18.276,92.967,18.605,95.041,19.768,96.649C20.931,98.258,22.811,99.227,24.807,99.227L74.42,99.227C76.417,99.227,78.277,98.277,79.459,96.649C80.641,95.021,80.952,92.948,80.312,91.068L76.475,79.537C79.847,77.502,83.122,74.866,85.874,71.436C90.273,65.932,93.045,58.742,93.045,49.633C93.045,45.156,90.932,41.59,87.928,39.051C87.58,38.761,87.211,38.47,86.843,38.198L86.843,9.303L88.394,9.303C90.971,9.303,93.045,7.229,93.045,4.651C93.045,2.074,90.971,0,88.394,0L10.853,0ZM80.622,49.672C80.622,49.865,80.564,50.175,79.886,50.757C78.955,51.551,77.172,52.501,74.207,53.354C68.316,55.04,59.711,55.815,49.614,55.815C39.516,55.815,30.912,55.04,25.02,53.334C22.055,52.482,20.272,51.532,19.342,50.737C18.663,50.156,18.605,49.846,18.605,49.652L18.605,49.594L18.605,49.575C18.605,49.381,18.605,49.09,19.342,48.451C20.272,47.656,22.055,46.706,25.02,45.854C30.912,44.187,39.516,43.412,49.614,43.412C59.711,43.412,68.316,44.187,74.207,45.892C77.172,46.745,78.955,47.695,79.886,48.489C80.622,49.11,80.622,49.42,80.622,49.613L80.622,49.633L80.622,49.691L80.622,49.672ZM69.808,74.42L69.769,74.517L69.769,74.42L69.808,74.42ZM27.908,12.403L34.109,12.403C35.815,12.403,37.21,13.799,37.21,15.504C37.21,17.21,35.815,18.605,34.109,18.605L27.908,18.605C26.202,18.605,24.807,17.21,24.807,15.504C24.807,13.799,26.202,12.403,27.908,12.403ZM27.908,12.403"/>
</g>
  <g id="Ultralight-S" transform="matrix(1.0,0.0,0.0,1.0,511.3865562823179,611.1565758135679)">  <path stroke-opacity="1" fill-opacity="1" stroke-linecap="butt" stroke-linejoin="miter" stroke-width="1px" stroke-dasharray="none" fill-rule="nonzero" version="1.1" stroke-miterlimit="4" xmlns:xlink="http://www.w3.org/1999/xlink" stroke="none" fill="#000000" d="M10.853,0C8.275,0,6.202,2.074,6.202,4.651C6.202,7.229,8.275,9.303,10.853,9.303L12.403,9.303L12.403,38.16C12.035,38.431,11.667,38.722,11.318,39.012C8.314,41.571,6.202,45.137,6.202,49.613C6.202,58.703,8.973,65.912,13.372,71.416C16.124,74.847,19.4,77.482,22.772,79.517L18.915,91.068C18.276,92.967,18.605,95.041,19.768,96.649C20.931,98.258,22.811,99.227,24.807,99.227L74.42,99.227C76.417,99.227,78.277,98.277,79.459,96.649C80.641,95.021,80.952,92.948,80.312,91.068L76.475,79.537C79.847,77.502,83.122,74.866,85.874,71.436C90.273,65.932,93.045,58.742,93.045,49.633C93.045,45.156,90.932,41.59,87.928,39.051C87.58,38.761,87.211,38.47,86.843,38.198L86.843,9.303L88.394,9.303C90.971,9.303,93.045,7.229,93.045,4.651C93.045,2.074,90.971,0,88.394,0L10.853,0ZM80.622,49.672C80.622,49.865,80.564,50.175,79.886,50.757C78.955,51.551,77.172,52.501,74.207,53.354C68.316,55.04,59.711,55.815,49.614,55.815C39.516,55.815,30.912,55.04,25.02,53.334C22.055,52.482,20.272,51.532,19.342,50.737C18.663,50.156,18.605,49.846,18.605,49.652L18.605,49.594L18.605,49.575C18.605,49.381,18.605,49.09,19.342,48.451C20.272,47.656,22.055,46.706,25.02,45.854C30.912,44.187,39.516,43.412,49.614,43.412C59.711,43.412,68.316,44.187,74.207,45.892C77.172,46.745,78.955,47.695,79.886,48.489C80.622,49.11,80.622,49.42,80.622,49.613L80.622,49.633L80.622,49.691L80.622,49.672ZM69.808,74.42L69.769,74.517L69.769,74.42L69.808,74.42ZM27.908,12.403L34.109,12.403C35.815,12.403,37.21,13.799,37.21,15.504C37.21,17.21,35.815,18.605,34.109,18.605L27.908,18.605C26.202,18.605,24.807,17.21,24.807,15.504C24.807,13.799,26.202,12.403,27.908,12.403ZM27.908,12.403"/>
</g>
 </g>
</svg>
