<?xml version="1.0" encoding="UTF-8"?>
<!-- Generator: CustomSymbols v2.7.2.48 by @serious_bret https://bretlester.com/app_content/CustomSymbols/ -->
<!-- Guides: Left/Right 0.11/0.11 Cap/Base 0.222/0.222 -->
<!-- Settings: RefScale 1.0 Min/Max Stroke Scales 0.5/2.21 -->
<!DOCTYPE svg
PUBLIC "-//W3C//DTD SVG 1.1//EN"
       "http://www.w3.org/Graphics/SVG/1.1/DTD/svg11.dtd">
<svg version="1.1" xmlns="http://www.w3.org/2000/svg" xmlns:xlink="http://www.w3.org/1999/xlink" width="3300" height="2200">
<![CDATA[<?xml version="1.0" encoding="UTF-8"?>
<svg width="96px" height="96px" viewBox="0 0 96 96" version="1.1" xmlns="http://www.w3.org/2000/svg" xmlns:xlink="http://www.w3.org/1999/xlink">
    <title>icon/medical/notes-medical-solid</title>
    <g id="icon/medical/notes-medical-solid" stroke="none" stroke-width="1" fill="none" fill-rule="evenodd">
        <path d="M19.2,64 L19.2,12.8 C19.2,5.74 24.94,0 32,0 L83.2,0 C90.26,0 96,5.74 96,12.8 L96,52.3 C96,55.7 94.66,58.96 92.26,61.36 L80.56,73.06 C78.16,75.46 74.9,76.8 71.5,76.8 L32,76.8 C24.94,76.8 19.2,71.06 19.2,64 Z M54.4,19.2 C52.64,19.2 51.2,20.64 51.2,22.4 L51.2,32 L41.6,32 C39.84,32 38.4,33.44 38.4,35.2 L38.4,41.6 C38.4,43.36 39.84,44.8 41.6,44.8 L51.2,44.8 L51.2,54.4 C51.2,56.16 52.64,57.6 54.4,57.6 L60.8,57.6 C62.56,57.6 64,56.16 64,54.4 L64,44.8 L73.6,44.8 C75.36,44.8 76.8,43.36 76.8,41.6 L76.8,35.2 C76.8,33.44 75.36,32 73.6,32 L64,32 L64,22.4 C64,20.64 62.56,19.2 60.8,19.2 L54.4,19.2 Z M59.2,86.4 C61.86,86.4 64,88.54 64,91.2 C64,93.86 61.86,96 59.2,96 L27.2,96 C12.18,96 0,83.82 0,68.8 L0,24 C0,21.34 2.14,19.2 4.8,19.2 C7.46,19.2 9.6,21.34 9.6,24 L9.6,68.8 C9.6,78.52 17.48,86.4 27.2,86.4 L59.2,86.4 Z" id="Shape" fill="#FB4C6C" fill-rule="nonzero"></path>
    </g>
</svg>]]>
 <g id="Notes">
  <rect height="2200" id="artboard" style="fill:white;opacity:1" width="3300" x="0" y="0"/>
  <line id="" style="fill:none;stroke:black;opacity:1;stroke-width:0.5;" x1="263" x2="3036" y1="292" y2="292"/>
  <text id="reftext1" style="stroke:none;fill:black;font-family:-apple-system,&quot;SF Pro Display&quot;,&quot;SF Pro Text&quot;,Helvetica,sans-serif;font-weight:bold;" transform="matrix(1 0 0 1 263 322)">Weight/Scale Variations</text>
  <text id="reftext2" style="stroke:none;fill:black;font-family:-apple-system,&quot;SF Pro Display&quot;,&quot;SF Pro Text&quot;,Helvetica,sans-serif;text-anchor:middle;" transform="matrix(1 0 0 1 559.711 322)">Ultralight</text>
  <text style="stroke:none;fill:black;font-family:-apple-system,&quot;SF Pro Display&quot;,&quot;SF Pro Text&quot;,Helvetica,sans-serif;text-anchor:middle;" transform="matrix(1 0 0 1 856.422 322)">Thin</text>
  <text style="stroke:none;fill:black;font-family:-apple-system,&quot;SF Pro Display&quot;,&quot;SF Pro Text&quot;,Helvetica,sans-serif;text-anchor:middle;" transform="matrix(1 0 0 1 1153.13 322)">Light</text>
  <text style="stroke:none;fill:black;font-family:-apple-system,&quot;SF Pro Display&quot;,&quot;SF Pro Text&quot;,Helvetica,sans-serif;text-anchor:middle;" transform="matrix(1 0 0 1 1449.84 322)">Regular</text>
  <text style="stroke:none;fill:black;font-family:-apple-system,&quot;SF Pro Display&quot;,&quot;SF Pro Text&quot;,Helvetica,sans-serif;text-anchor:middle;" transform="matrix(1 0 0 1 1746.56 322)">Medium</text>
  <text style="stroke:none;fill:black;font-family:-apple-system,&quot;SF Pro Display&quot;,&quot;SF Pro Text&quot;,Helvetica,sans-serif;text-anchor:middle;" transform="matrix(1 0 0 1 2043.27 322)">Semibold</text>
  <text style="stroke:none;fill:black;font-family:-apple-system,&quot;SF Pro Display&quot;,&quot;SF Pro Text&quot;,Helvetica,sans-serif;text-anchor:middle;" transform="matrix(1 0 0 1 2339.98 322)">Bold</text>
  <text style="stroke:none;fill:black;font-family:-apple-system,&quot;SF Pro Display&quot;,&quot;SF Pro Text&quot;,Helvetica,sans-serif;text-anchor:middle;" transform="matrix(1 0 0 1 2636.69 322)">Heavy</text>
  <text style="stroke:none;fill:black;font-family:-apple-system,&quot;SF Pro Display&quot;,&quot;SF Pro Text&quot;,Helvetica,sans-serif;text-anchor:middle;" transform="matrix(1 0 0 1 2933.4 322)">Black</text>
  <line id="" style="fill:none;stroke:black;opacity:1;stroke-width:0.5;" x1="263" x2="3036" y1="1903" y2="1903"/>
  <g id="" transform="matrix(1 0 0 1 263 1933)">
   <path d="M9.24805 0.830078C13.5547 0.830078 17.1387-2.74414 17.1387-7.05078C17.1387-11.3574 13.5449-14.9316 9.23828-14.9316C4.94141-14.9316 1.36719-11.3574 1.36719-7.05078C1.36719-2.74414 4.95117 0.830078 9.24805 0.830078ZM9.24805-0.654297C5.70312-0.654297 2.87109-3.49609 2.87109-7.05078C2.87109-10.6055 5.69336-13.4473 9.23828-13.4473C12.793-13.4473 15.6348-10.6055 15.6445-7.05078C15.6543-3.49609 12.8027-0.654297 9.24805-0.654297ZM6.39648-6.31836L8.50586-6.31836L8.50586-4.19922C8.50586-3.75977 8.79883-3.45703 9.22852-3.45703C9.67773-3.45703 9.9707-3.75977 9.9707-4.19922L9.9707-6.31836L12.0996-6.31836C12.5391-6.31836 12.8418-6.61133 12.8418-7.04102C12.8418-7.48047 12.5391-7.7832 12.0996-7.7832L9.9707-7.7832L9.9707-9.89258C9.9707-10.3418 9.67773-10.6445 9.22852-10.6445C8.79883-10.6445 8.50586-10.3418 8.50586-9.89258L8.50586-7.7832L6.39648-7.7832C5.94727-7.7832 5.64453-7.48047 5.64453-7.04102C5.64453-6.61133 5.94727-6.31836 6.39648-6.31836Z"/>
  </g>
  <g id="" transform="matrix(1 0 0 1 281.506 1933)">
   <path d="M11.709 2.91016C17.1582 2.91016 21.6699-1.61133 21.6699-7.05078C21.6699-12.5 17.1484-17.0117 11.6992-17.0117C6.25977-17.0117 1.74805-12.5 1.74805-7.05078C1.74805-1.61133 6.26953 2.91016 11.709 2.91016ZM11.709 1.25C7.09961 1.25 3.41797-2.44141 3.41797-7.05078C3.41797-11.6602 7.08984-15.3516 11.6992-15.3516C16.3086-15.3516 20-11.6602 20.0098-7.05078C20.0195-2.44141 16.3184 1.25 11.709 1.25ZM7.98828-6.23047L10.8789-6.23047L10.8789-3.32031C10.8789-2.83203 11.2109-2.5 11.6895-2.5C12.1777-2.5 12.5195-2.83203 12.5195-3.32031L12.5195-6.23047L15.4297-6.23047C15.918-6.23047 16.25-6.5625 16.25-7.04102C16.25-7.5293 15.918-7.87109 15.4297-7.87109L12.5195-7.87109L12.5195-10.7617C12.5195-11.2695 12.1777-11.6016 11.6895-11.6016C11.2109-11.6016 10.8789-11.2598 10.8789-10.7617L10.8789-7.87109L7.98828-7.87109C7.48047-7.87109 7.14844-7.5293 7.14844-7.04102C7.14844-6.5625 7.49023-6.23047 7.98828-6.23047Z"/>
  </g>
  <g id="" transform="matrix(1 0 0 1 304.924 1933)">
   <path d="M14.9707 5.66406C21.9336 5.66406 27.6953-0.0976562 27.6953-7.05078C27.6953-14.0137 21.9238-19.7754 14.9609-19.7754C8.00781-19.7754 2.25586-14.0137 2.25586-7.05078C2.25586-0.0976562 8.01758 5.66406 14.9707 5.66406ZM14.9707 3.84766C8.93555 3.84766 4.08203-1.01562 4.08203-7.05078C4.08203-13.0957 8.92578-17.9492 14.9609-17.9492C21.0059-17.9492 25.8594-13.0957 25.8691-7.05078C25.8789-1.01562 21.0156 3.84766 14.9707 3.84766ZM10.0586-6.14258L14.0625-6.14258L14.0625-2.12891C14.0625-1.5918 14.4336-1.2207 14.9512-1.2207C15.4883-1.2207 15.8594-1.5918 15.8594-2.12891L15.8594-6.14258L19.8828-6.14258C20.4102-6.14258 20.791-6.51367 20.791-7.03125C20.791-7.56836 20.4199-7.94922 19.8828-7.94922L15.8594-7.94922L15.8594-11.9531C15.8594-12.5098 15.4883-12.8809 14.9512-12.8809C14.4336-12.8809 14.0625-12.5 14.0625-11.9531L14.0625-7.94922L10.0586-7.94922C9.50195-7.94922 9.13086-7.56836 9.13086-7.03125C9.13086-6.51367 9.51172-6.14258 10.0586-6.14258Z"/>
  </g>
  <text style="stroke:none;fill:black;font-family:-apple-system,&quot;SF Pro Display&quot;,&quot;SF Pro Text&quot;,Helvetica,sans-serif;font-weight:bold;" transform="matrix(1 0 0 1 263 1953)">Design Variations</text>
  <text style="stroke:none;fill:black;font-family:-apple-system,&quot;SF Pro Display&quot;,&quot;SF Pro Text&quot;,Helvetica,sans-serif;" transform="matrix(1 0 0 1 263 1971)">Symbols are supported in up to nine weights and three scales.</text>
  <text style="stroke:none;fill:black;font-family:-apple-system,&quot;SF Pro Display&quot;,&quot;SF Pro Text&quot;,Helvetica,sans-serif;" transform="matrix(1 0 0 1 263 1989)">For optimal layout with text and other symbols, vertically align</text>
  <text style="stroke:none;fill:black;font-family:-apple-system,&quot;SF Pro Display&quot;,&quot;SF Pro Text&quot;,Helvetica,sans-serif;" transform="matrix(1 0 0 1 263 2007)">symbols with the adjacent text.</text>
  <line id="" style="fill:none;stroke:#00AEEF;stroke-width:0.5;opacity:1.0;" x1="776" x2="776" y1="1919" y2="1933"/>
  <g id="" transform="matrix(1 0 0 1 776 1933)">
   <path d="M3.31055 0.126953C3.82812 0.126953 4.08203-0.0683594 4.26758-0.605469L5.52734-4.0625L11.2891-4.0625L12.5488-0.605469C12.7344-0.0683594 12.9883 0.126953 13.4961 0.126953C14.0137 0.126953 14.3457-0.185547 14.3457-0.673828C14.3457-0.839844 14.3164-0.986328 14.2383-1.20117L9.6582-13.3887C9.43359-13.9941 9.0332-14.2871 8.4082-14.2871C7.80273-14.2871 7.39258-13.9941 7.17773-13.3984L2.59766-1.19141C2.51953-0.976562 2.49023-0.830078 2.49023-0.664062C2.49023-0.175781 2.80273 0.126953 3.31055 0.126953ZM6.00586-5.53711L8.37891-12.1094L8.42773-12.1094L10.8008-5.53711Z"/>
  </g>
  <line id="" style="fill:none;stroke:#00AEEF;stroke-width:0.5;opacity:1.0;" x1="792.836" x2="792.836" y1="1919" y2="1933"/>
  <text style="stroke:none;fill:black;font-family:-apple-system,&quot;SF Pro Display&quot;,&quot;SF Pro Text&quot;,Helvetica,sans-serif;font-weight:bold;" transform="matrix(1 0 0 1 776 1953)">Margins</text>
  <text style="stroke:none;fill:black;font-family:-apple-system,&quot;SF Pro Display&quot;,&quot;SF Pro Text&quot;,Helvetica,sans-serif;" transform="matrix(1 0 0 1 776 1971)">Leading and trailing margins on the left and right side of each symbol</text>
  <text style="stroke:none;fill:black;font-family:-apple-system,&quot;SF Pro Display&quot;,&quot;SF Pro Text&quot;,Helvetica,sans-serif;" transform="matrix(1 0 0 1 776 1989)">can be adjusted by modifying the x-location of the margin guidelines.</text>
  <text style="stroke:none;fill:black;font-family:-apple-system,&quot;SF Pro Display&quot;,&quot;SF Pro Text&quot;,Helvetica,sans-serif;" transform="matrix(1 0 0 1 776 2007)">Modifications are automatically applied proportionally to all</text>
  <text style="stroke:none;fill:black;font-family:-apple-system,&quot;SF Pro Display&quot;,&quot;SF Pro Text&quot;,Helvetica,sans-serif;" transform="matrix(1 0 0 1 776 2025)">scales and weights.</text>
  <g id="" transform="matrix(1 0 0 1 1289 1933)">
   <path d="M2.8418 1.86523L4.54102 3.57422C5.40039 4.44336 6.38672 4.38477 7.31445 3.35938L17.4902-7.85156C17.7539-7.76367 18.0273-7.7832 18.3398-7.8418L19.4043-8.03711L20.0684-7.36328L20.0293-6.80664C19.9902-6.30859 20.1172-5.92773 20.6055-5.44922L21.3672-4.70703C21.8457-4.22852 22.4609-4.19922 22.9297-4.66797L25.8398-7.58789C26.3086-8.05664 26.2891-8.65234 25.8105-9.13086L25.0391-9.89258C24.5605-10.3711 24.1895-10.5273 23.7109-10.4883L23.1348-10.4395L22.4902-11.0742L22.7344-12.1973C22.8613-12.7637 22.7051-13.2031 22.1191-13.7891L19.9219-15.9766C16.582-19.2969 12.1484-19.2188 9.25781-16.3281C8.83789-15.918 8.80859-15.3418 9.04297-14.9512C9.27734-14.5898 9.73633-14.3555 10.3809-14.5215C11.8457-14.8633 13.3691-14.9219 14.7949-13.9844L14.209-12.5293C14.0137-12.0508 13.9844-11.6504 14.1113-11.2891L3.04688-0.898438C2.06055 0.0195312 1.98242 0.996094 2.8418 1.86523ZM10.752-15.957C13.1836-17.7344 16.4746-17.4316 18.7012-15.2051L21.1328-12.793C21.3672-12.5586 21.4062-12.373 21.3379-12.0312L21.0156-10.5469L22.5195-9.0625L23.5059-9.12109C23.7598-9.13086 23.8379-9.11133 24.0332-8.91602L24.6094-8.33984L22.168-5.89844L21.5918-6.47461C21.3965-6.66992 21.3672-6.74805 21.377-7.01172L21.4453-7.98828L19.9512-9.47266L18.4277-9.21875C18.1055-9.15039 17.959-9.17969 17.7148-9.41406L15.7129-11.416C15.459-11.6504 15.4297-11.8164 15.5859-12.1875L16.4648-14.2773C14.9023-15.7324 12.8711-16.3574 10.8398-15.7617C10.6836-15.7227 10.625-15.8496 10.752-15.957ZM5.27344 2.30469L4.10156 1.14258C3.63281 0.683594 3.74023 0.341797 4.14062-0.0195312L14.9512-10.1953L16.416-8.71094L6.42578 2.27539C6.07422 2.67578 5.74219 2.77344 5.27344 2.30469Z"/>
  </g>
  <text style="stroke:none;fill:black;font-family:-apple-system,&quot;SF Pro Display&quot;,&quot;SF Pro Text&quot;,Helvetica,sans-serif;font-weight:bold;" transform="matrix(1 0 0 1 1289 1953)">Exporting</text>
  <text style="stroke:none;fill:black;font-family:-apple-system,&quot;SF Pro Display&quot;,&quot;SF Pro Text&quot;,Helvetica,sans-serif;" transform="matrix(1 0 0 1 1289 1971)">Symbols should be outlined when exporting to ensure the</text>
  <text style="stroke:none;fill:black;font-family:-apple-system,&quot;SF Pro Display&quot;,&quot;SF Pro Text&quot;,Helvetica,sans-serif;" transform="matrix(1 0 0 1 1289 1989)">design is preserved when submitting to Xcode.</text>
  <text id="template-version" style="stroke:none;fill:black;font-family:-apple-system,&quot;SF Pro Display&quot;,&quot;SF Pro Text&quot;,Helvetica,sans-serif;text-anchor:end;" transform="matrix(1 0 0 1 3036 1933)">Template v.2.0</text>
  <text style="stroke:none;fill:black;font-family:-apple-system,&quot;SF Pro Display&quot;,&quot;SF Pro Text&quot;,Helvetica,sans-serif;text-anchor:end;" transform="matrix(1 0 0 1 3036 1951)">Requires Xcode 12 or greater</text>
  <text style="stroke:none;fill:black;font-family:-apple-system,&quot;SF Pro Display&quot;,&quot;SF Pro Text&quot;,Helvetica,sans-serif;" transform="matrix(1 0 0 1 263 726)">Small</text>
  <text style="stroke:none;fill:black;font-family:-apple-system,&quot;SF Pro Display&quot;,&quot;SF Pro Text&quot;,Helvetica,sans-serif;" transform="matrix(1 0 0 1 263 1156)">Medium</text>
  <text style="stroke:none;fill:black;font-family:-apple-system,&quot;SF Pro Display&quot;,&quot;SF Pro Text&quot;,Helvetica,sans-serif;" transform="matrix(1 0 0 1 263 1586)">Large</text>
 </g>
 <g id="Guides">
  <g id="H-reference" style="fill:#27AAE1;stroke:none;" transform="matrix(1 0 0 1 339 696)">
   <path d="M0.976562 0L3.66211 0L12.9883-24.4629L45.752-24.4629L55.127 0L57.7637 0L30.6152-70.459L28.125-70.459ZM29.3457-67.1387L29.4434-67.1387L44.873-26.709L13.8672-26.709Z"/>
  </g>
  <line id="Baseline-S" style="fill:none;stroke:#27AAE1;opacity:1;stroke-width:0.5;" x1="263" x2="3036" y1="696" y2="696"/>
  <line id="Capline-S" style="fill:none;stroke:#27AAE1;opacity:1;stroke-width:0.5;" x1="263" x2="3036" y1="625.541" y2="625.541"/>
  <g id="H-reference" style="fill:#27AAE1;stroke:none;" transform="matrix(1 0 0 1 339 1126)">
   <path d="M0.976562 0L3.66211 0L12.9883-24.4629L45.752-24.4629L55.127 0L57.7637 0L30.6152-70.459L28.125-70.459ZM29.3457-67.1387L29.4434-67.1387L44.873-26.709L13.8672-26.709Z"/>
  </g>
  <line id="Baseline-M" style="fill:none;stroke:#27AAE1;opacity:1;stroke-width:0.5;" x1="263" x2="3036" y1="1126" y2="1126"/>
  <line id="Capline-M" style="fill:none;stroke:#27AAE1;opacity:1;stroke-width:0.5;" x1="263" x2="3036" y1="1055.54" y2="1055.54"/>
  <g id="H-reference" style="fill:#27AAE1;stroke:none;" transform="matrix(1 0 0 1 339 1556)">
   <path d="M0.976562 0L3.66211 0L12.9883-24.4629L45.752-24.4629L55.127 0L57.7637 0L30.6152-70.459L28.125-70.459ZM29.3457-67.1387L29.4434-67.1387L44.873-26.709L13.8672-26.709Z"/>
  </g>
  <line id="Baseline-L" style="fill:none;stroke:#27AAE1;opacity:1;stroke-width:0.5;" x1="263" x2="3036" y1="1556" y2="1556"/>
  <line id="Capline-L" style="fill:none;stroke:#27AAE1;opacity:1;stroke-width:0.5;" x1="263" x2="3036" y1="1485.54" y2="1485.54"/>
  <line id="left-margin" x1="1401.7066461049908" x2="1401.7066461049908" y1="1030.79" y2="1150.12" style="fill:none;stroke:#00AEEF;stroke-width:0.5;opacity:1.0;"/>
  <line id="right-margin" x1="1500.553353895009" x2="1500.553353895009" y1="1030.79" y2="1150.12" style="fill:none;stroke:#00AEEF;stroke-width:0.5;opacity:1.0;"/>
 </g>
 <g id="Symbols">
  <g id="Black-L" transform="matrix(1.0,0.0,0.0,1.0,2852.941376250562,1439.031395781812)">  <path stroke-width="1px" fill-rule="nonzero" stroke-dasharray="none" fill="#000000" fill-opacity="1" stroke-linejoin="miter" stroke-linecap="butt" stroke-opacity="1" xmlns:xlink="http://www.w3.org/1999/xlink" stroke="none" version="1.1" stroke-miterlimit="4" d="M32.695,108.985L32.695,21.797C32.695,9.775,42.47,0,54.492,0L141.68,0C153.703,0,163.477,9.775,163.477,21.797L163.477,89.061C163.477,94.851,161.195,100.402,157.108,104.489L137.185,124.413C133.098,128.5,127.546,130.782,121.756,130.782L54.492,130.782C42.47,130.782,32.695,121.007,32.695,108.985ZM92.637,32.695C89.64,32.695,87.188,35.148,87.188,38.145L87.188,54.492L70.84,54.492C67.843,54.492,65.391,56.945,65.391,59.942L65.391,70.84C65.391,73.837,67.843,76.289,70.84,76.289L87.188,76.289L87.188,92.637C87.188,95.634,89.64,98.086,92.637,98.086L103.536,98.086C106.533,98.086,108.985,95.634,108.985,92.637L108.985,76.289L125.333,76.289C128.33,76.289,130.782,73.837,130.782,70.84L130.782,59.942C130.782,56.945,128.33,54.492,125.333,54.492L108.985,54.492L108.985,38.145C108.985,35.148,106.533,32.695,103.536,32.695L92.637,32.695ZM100.811,147.13C105.341,147.13,108.985,150.774,108.985,155.303C108.985,159.833,105.341,163.477,100.811,163.477L46.319,163.477C20.741,163.477,0,142.736,0,117.159L0,40.869C0,36.34,3.644,32.695,8.174,32.695C12.704,32.695,16.348,36.34,16.348,40.869L16.348,117.159C16.348,133.711,29.766,147.13,46.319,147.13L100.811,147.13ZM100.811,147.13"/>
</g>
  <g id="Heavy-L" transform="matrix(1.0,0.0,0.0,1.0,2556.231376250562,1439.031395781812)">  <path stroke-miterlimit="4" stroke-width="1px" fill="#000000" xmlns:xlink="http://www.w3.org/1999/xlink" stroke-dasharray="none" fill-rule="nonzero" stroke-opacity="1" stroke-linecap="butt" fill-opacity="1" stroke-linejoin="miter" stroke="none" version="1.1" d="M32.695,108.985L32.695,21.797C32.695,9.775,42.47,0,54.492,0L141.68,0C153.703,0,163.477,9.775,163.477,21.797L163.477,89.061C163.477,94.851,161.195,100.402,157.108,104.489L137.185,124.413C133.098,128.5,127.546,130.782,121.756,130.782L54.492,130.782C42.47,130.782,32.695,121.007,32.695,108.985ZM92.637,32.695C89.64,32.695,87.188,35.148,87.188,38.145L87.188,54.492L70.84,54.492C67.843,54.492,65.391,56.945,65.391,59.942L65.391,70.84C65.391,73.837,67.843,76.289,70.84,76.289L87.188,76.289L87.188,92.637C87.188,95.634,89.64,98.086,92.637,98.086L103.536,98.086C106.533,98.086,108.985,95.634,108.985,92.637L108.985,76.289L125.333,76.289C128.33,76.289,130.782,73.837,130.782,70.84L130.782,59.942C130.782,56.945,128.33,54.492,125.333,54.492L108.985,54.492L108.985,38.145C108.985,35.148,106.533,32.695,103.536,32.695L92.637,32.695ZM100.811,147.13C105.341,147.13,108.985,150.774,108.985,155.303C108.985,159.833,105.341,163.477,100.811,163.477L46.319,163.477C20.741,163.477,0,142.736,0,117.159L0,40.869C0,36.34,3.644,32.695,8.174,32.695C12.704,32.695,16.348,36.34,16.348,40.869L16.348,117.159C16.348,133.711,29.766,147.13,46.319,147.13L100.811,147.13ZM100.811,147.13"/>
</g>
  <g id="Bold-L" transform="matrix(1.0,0.0,0.0,1.0,2259.521376250562,1439.031395781812)">  <path stroke="none" stroke-linejoin="miter" stroke-linecap="butt" stroke-dasharray="none" version="1.1" fill="#000000" stroke-opacity="1" fill-rule="nonzero" xmlns:xlink="http://www.w3.org/1999/xlink" stroke-width="1px" stroke-miterlimit="4" fill-opacity="1" d="M32.695,108.985L32.695,21.797C32.695,9.775,42.47,0,54.492,0L141.68,0C153.703,0,163.477,9.775,163.477,21.797L163.477,89.061C163.477,94.851,161.195,100.402,157.108,104.489L137.185,124.413C133.098,128.5,127.546,130.782,121.756,130.782L54.492,130.782C42.47,130.782,32.695,121.007,32.695,108.985ZM92.637,32.695C89.64,32.695,87.188,35.148,87.188,38.145L87.188,54.492L70.84,54.492C67.843,54.492,65.391,56.945,65.391,59.942L65.391,70.84C65.391,73.837,67.843,76.289,70.84,76.289L87.188,76.289L87.188,92.637C87.188,95.634,89.64,98.086,92.637,98.086L103.536,98.086C106.533,98.086,108.985,95.634,108.985,92.637L108.985,76.289L125.333,76.289C128.33,76.289,130.782,73.837,130.782,70.84L130.782,59.942C130.782,56.945,128.33,54.492,125.333,54.492L108.985,54.492L108.985,38.145C108.985,35.148,106.533,32.695,103.536,32.695L92.637,32.695ZM100.811,147.13C105.341,147.13,108.985,150.774,108.985,155.303C108.985,159.833,105.341,163.477,100.811,163.477L46.319,163.477C20.741,163.477,0,142.736,0,117.159L0,40.869C0,36.34,3.644,32.695,8.174,32.695C12.704,32.695,16.348,36.34,16.348,40.869L16.348,117.159C16.348,133.711,29.766,147.13,46.319,147.13L100.811,147.13ZM100.811,147.13"/>
</g>
  <g id="Semibold-L" transform="matrix(1.0,0.0,0.0,1.0,1962.811376250562,1439.031395781812)">  <path stroke-opacity="1" stroke-width="1px" fill-opacity="1" fill="#000000" version="1.1" fill-rule="nonzero" xmlns:xlink="http://www.w3.org/1999/xlink" stroke-dasharray="none" stroke-miterlimit="4" stroke="none" stroke-linejoin="miter" stroke-linecap="butt" d="M32.695,108.985L32.695,21.797C32.695,9.775,42.47,0,54.492,0L141.68,0C153.703,0,163.477,9.775,163.477,21.797L163.477,89.061C163.477,94.851,161.195,100.402,157.108,104.489L137.185,124.413C133.098,128.5,127.546,130.782,121.756,130.782L54.492,130.782C42.47,130.782,32.695,121.007,32.695,108.985ZM92.637,32.695C89.64,32.695,87.188,35.148,87.188,38.145L87.188,54.492L70.84,54.492C67.843,54.492,65.391,56.945,65.391,59.942L65.391,70.84C65.391,73.837,67.843,76.289,70.84,76.289L87.188,76.289L87.188,92.637C87.188,95.634,89.64,98.086,92.637,98.086L103.536,98.086C106.533,98.086,108.985,95.634,108.985,92.637L108.985,76.289L125.333,76.289C128.33,76.289,130.782,73.837,130.782,70.84L130.782,59.942C130.782,56.945,128.33,54.492,125.333,54.492L108.985,54.492L108.985,38.145C108.985,35.148,106.533,32.695,103.536,32.695L92.637,32.695ZM100.811,147.13C105.341,147.13,108.985,150.774,108.985,155.303C108.985,159.833,105.341,163.477,100.811,163.477L46.319,163.477C20.741,163.477,0,142.736,0,117.159L0,40.869C0,36.34,3.644,32.695,8.174,32.695C12.704,32.695,16.348,36.34,16.348,40.869L16.348,117.159C16.348,133.711,29.766,147.13,46.319,147.13L100.811,147.13ZM100.811,147.13"/>
</g>
  <g id="Medium-L" transform="matrix(1.0,0.0,0.0,1.0,1666.101376250562,1439.031395781812)">  <path xmlns:xlink="http://www.w3.org/1999/xlink" stroke-linecap="butt" stroke-width="1px" stroke-opacity="1" stroke="none" fill-opacity="1" stroke-linejoin="miter" stroke-dasharray="none" fill="#000000" stroke-miterlimit="4" version="1.1" fill-rule="nonzero" d="M32.695,108.985L32.695,21.797C32.695,9.775,42.47,0,54.492,0L141.68,0C153.703,0,163.477,9.775,163.477,21.797L163.477,89.061C163.477,94.851,161.195,100.402,157.108,104.489L137.185,124.413C133.098,128.5,127.546,130.782,121.756,130.782L54.492,130.782C42.47,130.782,32.695,121.007,32.695,108.985ZM92.637,32.695C89.64,32.695,87.188,35.148,87.188,38.145L87.188,54.492L70.84,54.492C67.843,54.492,65.391,56.945,65.391,59.942L65.391,70.84C65.391,73.837,67.843,76.289,70.84,76.289L87.188,76.289L87.188,92.637C87.188,95.634,89.64,98.086,92.637,98.086L103.536,98.086C106.533,98.086,108.985,95.634,108.985,92.637L108.985,76.289L125.333,76.289C128.33,76.289,130.782,73.837,130.782,70.84L130.782,59.942C130.782,56.945,128.33,54.492,125.333,54.492L108.985,54.492L108.985,38.145C108.985,35.148,106.533,32.695,103.536,32.695L92.637,32.695ZM100.811,147.13C105.341,147.13,108.985,150.774,108.985,155.303C108.985,159.833,105.341,163.477,100.811,163.477L46.319,163.477C20.741,163.477,0,142.736,0,117.159L0,40.869C0,36.34,3.644,32.695,8.174,32.695C12.704,32.695,16.348,36.34,16.348,40.869L16.348,117.159C16.348,133.711,29.766,147.13,46.319,147.13L100.811,147.13ZM100.811,147.13"/>
</g>
  <g id="Regular-L" transform="matrix(1.0,0.0,0.0,1.0,1369.391376250562,1439.031395781812)">  <path fill-rule="nonzero" stroke-opacity="1" stroke-width="1px" xmlns:xlink="http://www.w3.org/1999/xlink" fill="#000000" stroke="none" stroke-miterlimit="4" stroke-dasharray="none" stroke-linejoin="miter" stroke-linecap="butt" version="1.1" fill-opacity="1" d="M32.695,108.985L32.695,21.797C32.695,9.775,42.47,0,54.492,0L141.68,0C153.703,0,163.477,9.775,163.477,21.797L163.477,89.061C163.477,94.851,161.195,100.402,157.108,104.489L137.185,124.413C133.098,128.5,127.546,130.782,121.756,130.782L54.492,130.782C42.47,130.782,32.695,121.007,32.695,108.985ZM92.637,32.695C89.64,32.695,87.188,35.148,87.188,38.145L87.188,54.492L70.84,54.492C67.843,54.492,65.391,56.945,65.391,59.942L65.391,70.84C65.391,73.837,67.843,76.289,70.84,76.289L87.188,76.289L87.188,92.637C87.188,95.634,89.64,98.086,92.637,98.086L103.536,98.086C106.533,98.086,108.985,95.634,108.985,92.637L108.985,76.289L125.333,76.289C128.33,76.289,130.782,73.837,130.782,70.84L130.782,59.942C130.782,56.945,128.33,54.492,125.333,54.492L108.985,54.492L108.985,38.145C108.985,35.148,106.533,32.695,103.536,32.695L92.637,32.695ZM100.811,147.13C105.341,147.13,108.985,150.774,108.985,155.303C108.985,159.833,105.341,163.477,100.811,163.477L46.319,163.477C20.741,163.477,0,142.736,0,117.159L0,40.869C0,36.34,3.644,32.695,8.174,32.695C12.704,32.695,16.348,36.34,16.348,40.869L16.348,117.159C16.348,133.711,29.766,147.13,46.319,147.13L100.811,147.13ZM100.811,147.13"/>
</g>
  <g id="Light-L" transform="matrix(1.0,0.0,0.0,1.0,1072.6813762505622,1439.031395781812)">  <path xmlns:xlink="http://www.w3.org/1999/xlink" fill-opacity="1" stroke-dasharray="none" fill-rule="nonzero" stroke-opacity="1" stroke-linecap="butt" stroke-linejoin="miter" stroke-width="1px" stroke-miterlimit="4" stroke="none" version="1.1" fill="#000000" d="M32.695,108.985L32.695,21.797C32.695,9.775,42.47,0,54.492,0L141.68,0C153.703,0,163.477,9.775,163.477,21.797L163.477,89.061C163.477,94.851,161.195,100.402,157.108,104.489L137.185,124.413C133.098,128.5,127.546,130.782,121.756,130.782L54.492,130.782C42.47,130.782,32.695,121.007,32.695,108.985ZM92.637,32.695C89.64,32.695,87.188,35.148,87.188,38.145L87.188,54.492L70.84,54.492C67.843,54.492,65.391,56.945,65.391,59.942L65.391,70.84C65.391,73.837,67.843,76.289,70.84,76.289L87.188,76.289L87.188,92.637C87.188,95.634,89.64,98.086,92.637,98.086L103.536,98.086C106.533,98.086,108.985,95.634,108.985,92.637L108.985,76.289L125.333,76.289C128.33,76.289,130.782,73.837,130.782,70.84L130.782,59.942C130.782,56.945,128.33,54.492,125.333,54.492L108.985,54.492L108.985,38.145C108.985,35.148,106.533,32.695,103.536,32.695L92.637,32.695ZM100.811,147.13C105.341,147.13,108.985,150.774,108.985,155.303C108.985,159.833,105.341,163.477,100.811,163.477L46.319,163.477C20.741,163.477,0,142.736,0,117.159L0,40.869C0,36.34,3.644,32.695,8.174,32.695C12.704,32.695,16.348,36.34,16.348,40.869L16.348,117.159C16.348,133.711,29.766,147.13,46.319,147.13L100.811,147.13ZM100.811,147.13"/>
</g>
  <g id="Thin-L" transform="matrix(1.0,0.0,0.0,1.0,775.9713762505621,1439.031395781812)">  <path fill="#000000" stroke="none" version="1.1" fill-rule="nonzero" stroke-width="1px" stroke-linecap="butt" fill-opacity="1" stroke-opacity="1" stroke-linejoin="miter" xmlns:xlink="http://www.w3.org/1999/xlink" stroke-miterlimit="4" stroke-dasharray="none" d="M32.695,108.985L32.695,21.797C32.695,9.775,42.47,0,54.492,0L141.68,0C153.703,0,163.477,9.775,163.477,21.797L163.477,89.061C163.477,94.851,161.195,100.402,157.108,104.489L137.185,124.413C133.098,128.5,127.546,130.782,121.756,130.782L54.492,130.782C42.47,130.782,32.695,121.007,32.695,108.985ZM92.637,32.695C89.64,32.695,87.188,35.148,87.188,38.145L87.188,54.492L70.84,54.492C67.843,54.492,65.391,56.945,65.391,59.942L65.391,70.84C65.391,73.837,67.843,76.289,70.84,76.289L87.188,76.289L87.188,92.637C87.188,95.634,89.64,98.086,92.637,98.086L103.536,98.086C106.533,98.086,108.985,95.634,108.985,92.637L108.985,76.289L125.333,76.289C128.33,76.289,130.782,73.837,130.782,70.84L130.782,59.942C130.782,56.945,128.33,54.492,125.333,54.492L108.985,54.492L108.985,38.145C108.985,35.148,106.533,32.695,103.536,32.695L92.637,32.695ZM100.811,147.13C105.341,147.13,108.985,150.774,108.985,155.303C108.985,159.833,105.341,163.477,100.811,163.477L46.319,163.477C20.741,163.477,0,142.736,0,117.159L0,40.869C0,36.34,3.644,32.695,8.174,32.695C12.704,32.695,16.348,36.34,16.348,40.869L16.348,117.159C16.348,133.711,29.766,147.13,46.319,147.13L100.811,147.13ZM100.811,147.13"/>
</g>
  <g id="Ultralight-L" transform="matrix(1.0,0.0,0.0,1.0,479.2613762505621,1439.031395781812)">  <path stroke-width="1px" stroke-opacity="1" fill-opacity="1" fill="#000000" stroke-miterlimit="4" xmlns:xlink="http://www.w3.org/1999/xlink" fill-rule="nonzero" stroke="none" stroke-linejoin="miter" stroke-dasharray="none" version="1.1" stroke-linecap="butt" d="M32.695,108.985L32.695,21.797C32.695,9.775,42.47,0,54.492,0L141.68,0C153.703,0,163.477,9.775,163.477,21.797L163.477,89.061C163.477,94.851,161.195,100.402,157.108,104.489L137.185,124.413C133.098,128.5,127.546,130.782,121.756,130.782L54.492,130.782C42.47,130.782,32.695,121.007,32.695,108.985ZM92.637,32.695C89.64,32.695,87.188,35.148,87.188,38.145L87.188,54.492L70.84,54.492C67.843,54.492,65.391,56.945,65.391,59.942L65.391,70.84C65.391,73.837,67.843,76.289,70.84,76.289L87.188,76.289L87.188,92.637C87.188,95.634,89.64,98.086,92.637,98.086L103.536,98.086C106.533,98.086,108.985,95.634,108.985,92.637L108.985,76.289L125.333,76.289C128.33,76.289,130.782,73.837,130.782,70.84L130.782,59.942C130.782,56.945,128.33,54.492,125.333,54.492L108.985,54.492L108.985,38.145C108.985,35.148,106.533,32.695,103.536,32.695L92.637,32.695ZM100.811,147.13C105.341,147.13,108.985,150.774,108.985,155.303C108.985,159.833,105.341,163.477,100.811,163.477L46.319,163.477C20.741,163.477,0,142.736,0,117.159L0,40.869C0,36.34,3.644,32.695,8.174,32.695C12.704,32.695,16.348,36.34,16.348,40.869L16.348,117.159C16.348,133.711,29.766,147.13,46.319,147.13L100.811,147.13ZM100.811,147.13"/>
</g>
  <g id="Black-M" transform="matrix(1.0,0.0,0.0,1.0,2871.3167257756295,1027.4067453068794)">  <path stroke-width="1px" fill-rule="nonzero" stroke-dasharray="none" fill="#000000" fill-opacity="1" stroke-linejoin="miter" stroke-linecap="butt" stroke-opacity="1" xmlns:xlink="http://www.w3.org/1999/xlink" stroke="none" version="1.1" stroke-miterlimit="4" d="M25.345,84.484L25.345,16.897C25.345,7.577,32.923,0,42.242,0L109.83,0C119.149,0,126.727,7.577,126.727,16.897L126.727,69.04C126.727,73.528,124.958,77.831,121.789,80.999L106.345,96.444C103.177,99.612,98.873,101.381,94.385,101.381L42.242,101.381C32.923,101.381,25.345,93.804,25.345,84.484ZM71.812,25.345C69.488,25.345,67.587,27.246,67.587,29.57L67.587,42.242L54.915,42.242C52.592,42.242,50.691,44.143,50.691,46.466L50.691,54.915C50.691,57.238,52.592,59.139,54.915,59.139L67.587,59.139L67.587,71.812C67.587,74.135,69.488,76.036,71.812,76.036L80.26,76.036C82.583,76.036,84.484,74.135,84.484,71.812L84.484,59.139L97.157,59.139C99.48,59.139,101.381,57.238,101.381,54.915L101.381,46.466C101.381,44.143,99.48,42.242,97.157,42.242L84.484,42.242L84.484,29.57C84.484,27.246,82.583,25.345,80.26,25.345L71.812,25.345ZM78.148,114.054C81.659,114.054,84.484,116.879,84.484,120.39C84.484,123.902,81.659,126.727,78.148,126.727L35.906,126.727C16.078,126.727,0,110.648,0,90.821L0,31.682C0,28.17,2.825,25.345,6.336,25.345C9.848,25.345,12.673,28.17,12.673,31.682L12.673,90.821C12.673,103.652,23.075,114.054,35.906,114.054L78.148,114.054ZM78.148,114.054"/>
</g>
  <g id="Heavy-M" transform="matrix(1.0,0.0,0.0,1.0,2574.6067257756295,1027.4067453068794)">  <path stroke-miterlimit="4" stroke-width="1px" fill="#000000" xmlns:xlink="http://www.w3.org/1999/xlink" stroke-dasharray="none" fill-rule="nonzero" stroke-opacity="1" stroke-linecap="butt" fill-opacity="1" stroke-linejoin="miter" stroke="none" version="1.1" d="M25.345,84.484L25.345,16.897C25.345,7.577,32.923,0,42.242,0L109.83,0C119.149,0,126.727,7.577,126.727,16.897L126.727,69.04C126.727,73.528,124.958,77.831,121.789,80.999L106.345,96.444C103.177,99.612,98.873,101.381,94.385,101.381L42.242,101.381C32.923,101.381,25.345,93.804,25.345,84.484ZM71.812,25.345C69.488,25.345,67.587,27.246,67.587,29.57L67.587,42.242L54.915,42.242C52.592,42.242,50.691,44.143,50.691,46.466L50.691,54.915C50.691,57.238,52.592,59.139,54.915,59.139L67.587,59.139L67.587,71.812C67.587,74.135,69.488,76.036,71.812,76.036L80.26,76.036C82.583,76.036,84.484,74.135,84.484,71.812L84.484,59.139L97.157,59.139C99.48,59.139,101.381,57.238,101.381,54.915L101.381,46.466C101.381,44.143,99.48,42.242,97.157,42.242L84.484,42.242L84.484,29.57C84.484,27.246,82.583,25.345,80.26,25.345L71.812,25.345ZM78.148,114.054C81.659,114.054,84.484,116.879,84.484,120.39C84.484,123.902,81.659,126.727,78.148,126.727L35.906,126.727C16.078,126.727,0,110.648,0,90.821L0,31.682C0,28.17,2.825,25.345,6.336,25.345C9.848,25.345,12.673,28.17,12.673,31.682L12.673,90.821C12.673,103.652,23.075,114.054,35.906,114.054L78.148,114.054ZM78.148,114.054"/>
</g>
  <g id="Bold-M" transform="matrix(1.0,0.0,0.0,1.0,2277.8967257756294,1027.4067453068794)">  <path stroke="none" stroke-linejoin="miter" stroke-linecap="butt" stroke-dasharray="none" version="1.1" fill="#000000" stroke-opacity="1" fill-rule="nonzero" xmlns:xlink="http://www.w3.org/1999/xlink" stroke-width="1px" stroke-miterlimit="4" fill-opacity="1" d="M25.345,84.484L25.345,16.897C25.345,7.577,32.923,0,42.242,0L109.83,0C119.149,0,126.727,7.577,126.727,16.897L126.727,69.04C126.727,73.528,124.958,77.831,121.789,80.999L106.345,96.444C103.177,99.612,98.873,101.381,94.385,101.381L42.242,101.381C32.923,101.381,25.345,93.804,25.345,84.484ZM71.812,25.345C69.488,25.345,67.587,27.246,67.587,29.57L67.587,42.242L54.915,42.242C52.592,42.242,50.691,44.143,50.691,46.466L50.691,54.915C50.691,57.238,52.592,59.139,54.915,59.139L67.587,59.139L67.587,71.812C67.587,74.135,69.488,76.036,71.812,76.036L80.26,76.036C82.583,76.036,84.484,74.135,84.484,71.812L84.484,59.139L97.157,59.139C99.48,59.139,101.381,57.238,101.381,54.915L101.381,46.466C101.381,44.143,99.48,42.242,97.157,42.242L84.484,42.242L84.484,29.57C84.484,27.246,82.583,25.345,80.26,25.345L71.812,25.345ZM78.148,114.054C81.659,114.054,84.484,116.879,84.484,120.39C84.484,123.902,81.659,126.727,78.148,126.727L35.906,126.727C16.078,126.727,0,110.648,0,90.821L0,31.682C0,28.17,2.825,25.345,6.336,25.345C9.848,25.345,12.673,28.17,12.673,31.682L12.673,90.821C12.673,103.652,23.075,114.054,35.906,114.054L78.148,114.054ZM78.148,114.054"/>
</g>
  <g id="Semibold-M" transform="matrix(1.0,0.0,0.0,1.0,1981.1867257756294,1027.4067453068794)">  <path stroke-opacity="1" stroke-width="1px" fill-opacity="1" fill="#000000" version="1.1" fill-rule="nonzero" xmlns:xlink="http://www.w3.org/1999/xlink" stroke-dasharray="none" stroke-miterlimit="4" stroke="none" stroke-linejoin="miter" stroke-linecap="butt" d="M25.345,84.484L25.345,16.897C25.345,7.577,32.923,0,42.242,0L109.83,0C119.149,0,126.727,7.577,126.727,16.897L126.727,69.04C126.727,73.528,124.958,77.831,121.789,80.999L106.345,96.444C103.177,99.612,98.873,101.381,94.385,101.381L42.242,101.381C32.923,101.381,25.345,93.804,25.345,84.484ZM71.812,25.345C69.488,25.345,67.587,27.246,67.587,29.57L67.587,42.242L54.915,42.242C52.592,42.242,50.691,44.143,50.691,46.466L50.691,54.915C50.691,57.238,52.592,59.139,54.915,59.139L67.587,59.139L67.587,71.812C67.587,74.135,69.488,76.036,71.812,76.036L80.26,76.036C82.583,76.036,84.484,74.135,84.484,71.812L84.484,59.139L97.157,59.139C99.48,59.139,101.381,57.238,101.381,54.915L101.381,46.466C101.381,44.143,99.48,42.242,97.157,42.242L84.484,42.242L84.484,29.57C84.484,27.246,82.583,25.345,80.26,25.345L71.812,25.345ZM78.148,114.054C81.659,114.054,84.484,116.879,84.484,120.39C84.484,123.902,81.659,126.727,78.148,126.727L35.906,126.727C16.078,126.727,0,110.648,0,90.821L0,31.682C0,28.17,2.825,25.345,6.336,25.345C9.848,25.345,12.673,28.17,12.673,31.682L12.673,90.821C12.673,103.652,23.075,114.054,35.906,114.054L78.148,114.054ZM78.148,114.054"/>
</g>
  <g id="Medium-M" transform="matrix(1.0,0.0,0.0,1.0,1684.4767257756293,1027.4067453068794)">  <path xmlns:xlink="http://www.w3.org/1999/xlink" stroke-linecap="butt" stroke-width="1px" stroke-opacity="1" stroke="none" fill-opacity="1" stroke-linejoin="miter" stroke-dasharray="none" fill="#000000" stroke-miterlimit="4" version="1.1" fill-rule="nonzero" d="M25.345,84.484L25.345,16.897C25.345,7.577,32.923,0,42.242,0L109.83,0C119.149,0,126.727,7.577,126.727,16.897L126.727,69.04C126.727,73.528,124.958,77.831,121.789,80.999L106.345,96.444C103.177,99.612,98.873,101.381,94.385,101.381L42.242,101.381C32.923,101.381,25.345,93.804,25.345,84.484ZM71.812,25.345C69.488,25.345,67.587,27.246,67.587,29.57L67.587,42.242L54.915,42.242C52.592,42.242,50.691,44.143,50.691,46.466L50.691,54.915C50.691,57.238,52.592,59.139,54.915,59.139L67.587,59.139L67.587,71.812C67.587,74.135,69.488,76.036,71.812,76.036L80.26,76.036C82.583,76.036,84.484,74.135,84.484,71.812L84.484,59.139L97.157,59.139C99.48,59.139,101.381,57.238,101.381,54.915L101.381,46.466C101.381,44.143,99.48,42.242,97.157,42.242L84.484,42.242L84.484,29.57C84.484,27.246,82.583,25.345,80.26,25.345L71.812,25.345ZM78.148,114.054C81.659,114.054,84.484,116.879,84.484,120.39C84.484,123.902,81.659,126.727,78.148,126.727L35.906,126.727C16.078,126.727,0,110.648,0,90.821L0,31.682C0,28.17,2.825,25.345,6.336,25.345C9.848,25.345,12.673,28.17,12.673,31.682L12.673,90.821C12.673,103.652,23.075,114.054,35.906,114.054L78.148,114.054ZM78.148,114.054"/>
</g>
  <g id="Regular-M" transform="matrix(1.0,0.0,0.0,1.0,1387.7667257756293,1027.4067453068794)">  <path fill-rule="nonzero" stroke-opacity="1" stroke-width="1px" xmlns:xlink="http://www.w3.org/1999/xlink" fill="#000000" stroke="none" stroke-miterlimit="4" stroke-dasharray="none" stroke-linejoin="miter" stroke-linecap="butt" version="1.1" fill-opacity="1" d="M25.345,84.484L25.345,16.897C25.345,7.577,32.923,0,42.242,0L109.83,0C119.149,0,126.727,7.577,126.727,16.897L126.727,69.04C126.727,73.528,124.958,77.831,121.789,80.999L106.345,96.444C103.177,99.612,98.873,101.381,94.385,101.381L42.242,101.381C32.923,101.381,25.345,93.804,25.345,84.484ZM71.812,25.345C69.488,25.345,67.587,27.246,67.587,29.57L67.587,42.242L54.915,42.242C52.592,42.242,50.691,44.143,50.691,46.466L50.691,54.915C50.691,57.238,52.592,59.139,54.915,59.139L67.587,59.139L67.587,71.812C67.587,74.135,69.488,76.036,71.812,76.036L80.26,76.036C82.583,76.036,84.484,74.135,84.484,71.812L84.484,59.139L97.157,59.139C99.48,59.139,101.381,57.238,101.381,54.915L101.381,46.466C101.381,44.143,99.48,42.242,97.157,42.242L84.484,42.242L84.484,29.57C84.484,27.246,82.583,25.345,80.26,25.345L71.812,25.345ZM78.148,114.054C81.659,114.054,84.484,116.879,84.484,120.39C84.484,123.902,81.659,126.727,78.148,126.727L35.906,126.727C16.078,126.727,0,110.648,0,90.821L0,31.682C0,28.17,2.825,25.345,6.336,25.345C9.848,25.345,12.673,28.17,12.673,31.682L12.673,90.821C12.673,103.652,23.075,114.054,35.906,114.054L78.148,114.054ZM78.148,114.054"/>
</g>
  <g id="Light-M" transform="matrix(1.0,0.0,0.0,1.0,1091.0567257756295,1027.4067453068794)">  <path xmlns:xlink="http://www.w3.org/1999/xlink" fill-opacity="1" stroke-dasharray="none" fill-rule="nonzero" stroke-opacity="1" stroke-linecap="butt" stroke-linejoin="miter" stroke-width="1px" stroke-miterlimit="4" stroke="none" version="1.1" fill="#000000" d="M25.345,84.484L25.345,16.897C25.345,7.577,32.923,0,42.242,0L109.83,0C119.149,0,126.727,7.577,126.727,16.897L126.727,69.04C126.727,73.528,124.958,77.831,121.789,80.999L106.345,96.444C103.177,99.612,98.873,101.381,94.385,101.381L42.242,101.381C32.923,101.381,25.345,93.804,25.345,84.484ZM71.812,25.345C69.488,25.345,67.587,27.246,67.587,29.57L67.587,42.242L54.915,42.242C52.592,42.242,50.691,44.143,50.691,46.466L50.691,54.915C50.691,57.238,52.592,59.139,54.915,59.139L67.587,59.139L67.587,71.812C67.587,74.135,69.488,76.036,71.812,76.036L80.26,76.036C82.583,76.036,84.484,74.135,84.484,71.812L84.484,59.139L97.157,59.139C99.48,59.139,101.381,57.238,101.381,54.915L101.381,46.466C101.381,44.143,99.48,42.242,97.157,42.242L84.484,42.242L84.484,29.57C84.484,27.246,82.583,25.345,80.26,25.345L71.812,25.345ZM78.148,114.054C81.659,114.054,84.484,116.879,84.484,120.39C84.484,123.902,81.659,126.727,78.148,126.727L35.906,126.727C16.078,126.727,0,110.648,0,90.821L0,31.682C0,28.17,2.825,25.345,6.336,25.345C9.848,25.345,12.673,28.17,12.673,31.682L12.673,90.821C12.673,103.652,23.075,114.054,35.906,114.054L78.148,114.054ZM78.148,114.054"/>
</g>
  <g id="Thin-M" transform="matrix(1.0,0.0,0.0,1.0,794.3467257756296,1027.4067453068794)">  <path fill="#000000" stroke="none" version="1.1" fill-rule="nonzero" stroke-width="1px" stroke-linecap="butt" fill-opacity="1" stroke-opacity="1" stroke-linejoin="miter" xmlns:xlink="http://www.w3.org/1999/xlink" stroke-miterlimit="4" stroke-dasharray="none" d="M25.345,84.484L25.345,16.897C25.345,7.577,32.923,0,42.242,0L109.83,0C119.149,0,126.727,7.577,126.727,16.897L126.727,69.04C126.727,73.528,124.958,77.831,121.789,80.999L106.345,96.444C103.177,99.612,98.873,101.381,94.385,101.381L42.242,101.381C32.923,101.381,25.345,93.804,25.345,84.484ZM71.812,25.345C69.488,25.345,67.587,27.246,67.587,29.57L67.587,42.242L54.915,42.242C52.592,42.242,50.691,44.143,50.691,46.466L50.691,54.915C50.691,57.238,52.592,59.139,54.915,59.139L67.587,59.139L67.587,71.812C67.587,74.135,69.488,76.036,71.812,76.036L80.26,76.036C82.583,76.036,84.484,74.135,84.484,71.812L84.484,59.139L97.157,59.139C99.48,59.139,101.381,57.238,101.381,54.915L101.381,46.466C101.381,44.143,99.48,42.242,97.157,42.242L84.484,42.242L84.484,29.57C84.484,27.246,82.583,25.345,80.26,25.345L71.812,25.345ZM78.148,114.054C81.659,114.054,84.484,116.879,84.484,120.39C84.484,123.902,81.659,126.727,78.148,126.727L35.906,126.727C16.078,126.727,0,110.648,0,90.821L0,31.682C0,28.17,2.825,25.345,6.336,25.345C9.848,25.345,12.673,28.17,12.673,31.682L12.673,90.821C12.673,103.652,23.075,114.054,35.906,114.054L78.148,114.054ZM78.148,114.054"/>
</g>
  <g id="Ultralight-M" transform="matrix(1.0,0.0,0.0,1.0,497.6367257756295,1027.4067453068794)">  <path stroke-width="1px" stroke-opacity="1" fill-opacity="1" fill="#000000" stroke-miterlimit="4" xmlns:xlink="http://www.w3.org/1999/xlink" fill-rule="nonzero" stroke="none" stroke-linejoin="miter" stroke-dasharray="none" version="1.1" stroke-linecap="butt" d="M25.345,84.484L25.345,16.897C25.345,7.577,32.923,0,42.242,0L109.83,0C119.149,0,126.727,7.577,126.727,16.897L126.727,69.04C126.727,73.528,124.958,77.831,121.789,80.999L106.345,96.444C103.177,99.612,98.873,101.381,94.385,101.381L42.242,101.381C32.923,101.381,25.345,93.804,25.345,84.484ZM71.812,25.345C69.488,25.345,67.587,27.246,67.587,29.57L67.587,42.242L54.915,42.242C52.592,42.242,50.691,44.143,50.691,46.466L50.691,54.915C50.691,57.238,52.592,59.139,54.915,59.139L67.587,59.139L67.587,71.812C67.587,74.135,69.488,76.036,71.812,76.036L80.26,76.036C82.583,76.036,84.484,74.135,84.484,71.812L84.484,59.139L97.157,59.139C99.48,59.139,101.381,57.238,101.381,54.915L101.381,46.466C101.381,44.143,99.48,42.242,97.157,42.242L84.484,42.242L84.484,29.57C84.484,27.246,82.583,25.345,80.26,25.345L71.812,25.345ZM78.148,114.054C81.659,114.054,84.484,116.879,84.484,120.39C84.484,123.902,81.659,126.727,78.148,126.727L35.906,126.727C16.078,126.727,0,110.648,0,90.821L0,31.682C0,28.17,2.825,25.345,6.336,25.345C9.848,25.345,12.673,28.17,12.673,31.682L12.673,90.821C12.673,103.652,23.075,114.054,35.906,114.054L78.148,114.054ZM78.148,114.054"/>
</g>
  <g id="Black-S" transform="matrix(1.0,0.0,0.0,1.0,2885.066556282318,611.1565758135679)">  <path stroke-width="1px" fill-rule="nonzero" stroke-dasharray="none" fill="#000000" fill-opacity="1" stroke-linejoin="miter" stroke-linecap="butt" stroke-opacity="1" xmlns:xlink="http://www.w3.org/1999/xlink" stroke="none" version="1.1" stroke-miterlimit="4" d="M19.845,66.151L19.845,13.23C19.845,5.933,25.778,0,33.076,0L85.997,0C93.294,0,99.227,5.933,99.227,13.23L99.227,54.058C99.227,57.572,97.842,60.942,95.361,63.423L83.268,75.516C80.787,77.996,77.418,79.382,73.903,79.382L33.076,79.382C25.778,79.382,19.845,73.449,19.845,66.151ZM56.229,19.845C54.409,19.845,52.921,21.334,52.921,23.153L52.921,33.076L42.998,33.076C41.179,33.076,39.691,34.564,39.691,36.383L39.691,42.998C39.691,44.817,41.179,46.306,42.998,46.306L52.921,46.306L52.921,56.229C52.921,58.048,54.409,59.536,56.229,59.536L62.844,59.536C64.663,59.536,66.151,58.048,66.151,56.229L66.151,46.306L76.074,46.306C77.893,46.306,79.382,44.817,79.382,42.998L79.382,36.383C79.382,34.564,77.893,33.076,76.074,33.076L66.151,33.076L66.151,23.153C66.151,21.334,64.663,19.845,62.844,19.845L56.229,19.845ZM61.19,89.304C63.939,89.304,66.151,91.516,66.151,94.266C66.151,97.015,63.939,99.227,61.19,99.227L28.114,99.227C12.589,99.227,0,86.637,0,71.113L0,24.807C0,22.057,2.212,19.845,4.961,19.845C7.711,19.845,9.923,22.057,9.923,24.807L9.923,71.113C9.923,81.159,18.068,89.304,28.114,89.304L61.19,89.304ZM61.19,89.304"/>
</g>
  <g id="Heavy-S" transform="matrix(1.0,0.0,0.0,1.0,2588.356556282318,611.1565758135679)">  <path stroke-miterlimit="4" stroke-width="1px" fill="#000000" xmlns:xlink="http://www.w3.org/1999/xlink" stroke-dasharray="none" fill-rule="nonzero" stroke-opacity="1" stroke-linecap="butt" fill-opacity="1" stroke-linejoin="miter" stroke="none" version="1.1" d="M19.845,66.151L19.845,13.23C19.845,5.933,25.778,0,33.076,0L85.997,0C93.294,0,99.227,5.933,99.227,13.23L99.227,54.058C99.227,57.572,97.842,60.942,95.361,63.423L83.268,75.516C80.787,77.996,77.418,79.382,73.903,79.382L33.076,79.382C25.778,79.382,19.845,73.449,19.845,66.151ZM56.229,19.845C54.409,19.845,52.921,21.334,52.921,23.153L52.921,33.076L42.998,33.076C41.179,33.076,39.691,34.564,39.691,36.383L39.691,42.998C39.691,44.817,41.179,46.306,42.998,46.306L52.921,46.306L52.921,56.229C52.921,58.048,54.409,59.536,56.229,59.536L62.844,59.536C64.663,59.536,66.151,58.048,66.151,56.229L66.151,46.306L76.074,46.306C77.893,46.306,79.382,44.817,79.382,42.998L79.382,36.383C79.382,34.564,77.893,33.076,76.074,33.076L66.151,33.076L66.151,23.153C66.151,21.334,64.663,19.845,62.844,19.845L56.229,19.845ZM61.19,89.304C63.939,89.304,66.151,91.516,66.151,94.266C66.151,97.015,63.939,99.227,61.19,99.227L28.114,99.227C12.589,99.227,0,86.637,0,71.113L0,24.807C0,22.057,2.212,19.845,4.961,19.845C7.711,19.845,9.923,22.057,9.923,24.807L9.923,71.113C9.923,81.159,18.068,89.304,28.114,89.304L61.19,89.304ZM61.19,89.304"/>
</g>
  <g id="Bold-S" transform="matrix(1.0,0.0,0.0,1.0,2291.6465562823178,611.1565758135679)">  <path stroke="none" stroke-linejoin="miter" stroke-linecap="butt" stroke-dasharray="none" version="1.1" fill="#000000" stroke-opacity="1" fill-rule="nonzero" xmlns:xlink="http://www.w3.org/1999/xlink" stroke-width="1px" stroke-miterlimit="4" fill-opacity="1" d="M19.845,66.151L19.845,13.23C19.845,5.933,25.778,0,33.076,0L85.997,0C93.294,0,99.227,5.933,99.227,13.23L99.227,54.058C99.227,57.572,97.842,60.942,95.361,63.423L83.268,75.516C80.787,77.996,77.418,79.382,73.903,79.382L33.076,79.382C25.778,79.382,19.845,73.449,19.845,66.151ZM56.229,19.845C54.409,19.845,52.921,21.334,52.921,23.153L52.921,33.076L42.998,33.076C41.179,33.076,39.691,34.564,39.691,36.383L39.691,42.998C39.691,44.817,41.179,46.306,42.998,46.306L52.921,46.306L52.921,56.229C52.921,58.048,54.409,59.536,56.229,59.536L62.844,59.536C64.663,59.536,66.151,58.048,66.151,56.229L66.151,46.306L76.074,46.306C77.893,46.306,79.382,44.817,79.382,42.998L79.382,36.383C79.382,34.564,77.893,33.076,76.074,33.076L66.151,33.076L66.151,23.153C66.151,21.334,64.663,19.845,62.844,19.845L56.229,19.845ZM61.19,89.304C63.939,89.304,66.151,91.516,66.151,94.266C66.151,97.015,63.939,99.227,61.19,99.227L28.114,99.227C12.589,99.227,0,86.637,0,71.113L0,24.807C0,22.057,2.212,19.845,4.961,19.845C7.711,19.845,9.923,22.057,9.923,24.807L9.923,71.113C9.923,81.159,18.068,89.304,28.114,89.304L61.19,89.304ZM61.19,89.304"/>
</g>
  <g id="Semibold-S" transform="matrix(1.0,0.0,0.0,1.0,1994.936556282318,611.1565758135679)">  <path stroke-opacity="1" stroke-width="1px" fill-opacity="1" fill="#000000" version="1.1" fill-rule="nonzero" xmlns:xlink="http://www.w3.org/1999/xlink" stroke-dasharray="none" stroke-miterlimit="4" stroke="none" stroke-linejoin="miter" stroke-linecap="butt" d="M19.845,66.151L19.845,13.23C19.845,5.933,25.778,0,33.076,0L85.997,0C93.294,0,99.227,5.933,99.227,13.23L99.227,54.058C99.227,57.572,97.842,60.942,95.361,63.423L83.268,75.516C80.787,77.996,77.418,79.382,73.903,79.382L33.076,79.382C25.778,79.382,19.845,73.449,19.845,66.151ZM56.229,19.845C54.409,19.845,52.921,21.334,52.921,23.153L52.921,33.076L42.998,33.076C41.179,33.076,39.691,34.564,39.691,36.383L39.691,42.998C39.691,44.817,41.179,46.306,42.998,46.306L52.921,46.306L52.921,56.229C52.921,58.048,54.409,59.536,56.229,59.536L62.844,59.536C64.663,59.536,66.151,58.048,66.151,56.229L66.151,46.306L76.074,46.306C77.893,46.306,79.382,44.817,79.382,42.998L79.382,36.383C79.382,34.564,77.893,33.076,76.074,33.076L66.151,33.076L66.151,23.153C66.151,21.334,64.663,19.845,62.844,19.845L56.229,19.845ZM61.19,89.304C63.939,89.304,66.151,91.516,66.151,94.266C66.151,97.015,63.939,99.227,61.19,99.227L28.114,99.227C12.589,99.227,0,86.637,0,71.113L0,24.807C0,22.057,2.212,19.845,4.961,19.845C7.711,19.845,9.923,22.057,9.923,24.807L9.923,71.113C9.923,81.159,18.068,89.304,28.114,89.304L61.19,89.304ZM61.19,89.304"/>
</g>
  <g id="Medium-S" transform="matrix(1.0,0.0,0.0,1.0,1698.226556282318,611.1565758135679)">  <path xmlns:xlink="http://www.w3.org/1999/xlink" stroke-linecap="butt" stroke-width="1px" stroke-opacity="1" stroke="none" fill-opacity="1" stroke-linejoin="miter" stroke-dasharray="none" fill="#000000" stroke-miterlimit="4" version="1.1" fill-rule="nonzero" d="M19.845,66.151L19.845,13.23C19.845,5.933,25.778,0,33.076,0L85.997,0C93.294,0,99.227,5.933,99.227,13.23L99.227,54.058C99.227,57.572,97.842,60.942,95.361,63.423L83.268,75.516C80.787,77.996,77.418,79.382,73.903,79.382L33.076,79.382C25.778,79.382,19.845,73.449,19.845,66.151ZM56.229,19.845C54.409,19.845,52.921,21.334,52.921,23.153L52.921,33.076L42.998,33.076C41.179,33.076,39.691,34.564,39.691,36.383L39.691,42.998C39.691,44.817,41.179,46.306,42.998,46.306L52.921,46.306L52.921,56.229C52.921,58.048,54.409,59.536,56.229,59.536L62.844,59.536C64.663,59.536,66.151,58.048,66.151,56.229L66.151,46.306L76.074,46.306C77.893,46.306,79.382,44.817,79.382,42.998L79.382,36.383C79.382,34.564,77.893,33.076,76.074,33.076L66.151,33.076L66.151,23.153C66.151,21.334,64.663,19.845,62.844,19.845L56.229,19.845ZM61.19,89.304C63.939,89.304,66.151,91.516,66.151,94.266C66.151,97.015,63.939,99.227,61.19,99.227L28.114,99.227C12.589,99.227,0,86.637,0,71.113L0,24.807C0,22.057,2.212,19.845,4.961,19.845C7.711,19.845,9.923,22.057,9.923,24.807L9.923,71.113C9.923,81.159,18.068,89.304,28.114,89.304L61.19,89.304ZM61.19,89.304"/>
</g>
  <g id="Regular-S" transform="matrix(1.0,0.0,0.0,1.0,1401.5165562823179,611.1565758135679)">  <path fill-rule="nonzero" stroke-opacity="1" stroke-width="1px" xmlns:xlink="http://www.w3.org/1999/xlink" fill="#000000" stroke="none" stroke-miterlimit="4" stroke-dasharray="none" stroke-linejoin="miter" stroke-linecap="butt" version="1.1" fill-opacity="1" d="M19.845,66.151L19.845,13.23C19.845,5.933,25.778,0,33.076,0L85.997,0C93.294,0,99.227,5.933,99.227,13.23L99.227,54.058C99.227,57.572,97.842,60.942,95.361,63.423L83.268,75.516C80.787,77.996,77.418,79.382,73.903,79.382L33.076,79.382C25.778,79.382,19.845,73.449,19.845,66.151ZM56.229,19.845C54.409,19.845,52.921,21.334,52.921,23.153L52.921,33.076L42.998,33.076C41.179,33.076,39.691,34.564,39.691,36.383L39.691,42.998C39.691,44.817,41.179,46.306,42.998,46.306L52.921,46.306L52.921,56.229C52.921,58.048,54.409,59.536,56.229,59.536L62.844,59.536C64.663,59.536,66.151,58.048,66.151,56.229L66.151,46.306L76.074,46.306C77.893,46.306,79.382,44.817,79.382,42.998L79.382,36.383C79.382,34.564,77.893,33.076,76.074,33.076L66.151,33.076L66.151,23.153C66.151,21.334,64.663,19.845,62.844,19.845L56.229,19.845ZM61.19,89.304C63.939,89.304,66.151,91.516,66.151,94.266C66.151,97.015,63.939,99.227,61.19,99.227L28.114,99.227C12.589,99.227,0,86.637,0,71.113L0,24.807C0,22.057,2.212,19.845,4.961,19.845C7.711,19.845,9.923,22.057,9.923,24.807L9.923,71.113C9.923,81.159,18.068,89.304,28.114,89.304L61.19,89.304ZM61.19,89.304"/>
</g>
  <g id="Light-S" transform="matrix(1.0,0.0,0.0,1.0,1104.806556282318,611.1565758135679)">  <path xmlns:xlink="http://www.w3.org/1999/xlink" fill-opacity="1" stroke-dasharray="none" fill-rule="nonzero" stroke-opacity="1" stroke-linecap="butt" stroke-linejoin="miter" stroke-width="1px" stroke-miterlimit="4" stroke="none" version="1.1" fill="#000000" d="M19.845,66.151L19.845,13.23C19.845,5.933,25.778,0,33.076,0L85.997,0C93.294,0,99.227,5.933,99.227,13.23L99.227,54.058C99.227,57.572,97.842,60.942,95.361,63.423L83.268,75.516C80.787,77.996,77.418,79.382,73.903,79.382L33.076,79.382C25.778,79.382,19.845,73.449,19.845,66.151ZM56.229,19.845C54.409,19.845,52.921,21.334,52.921,23.153L52.921,33.076L42.998,33.076C41.179,33.076,39.691,34.564,39.691,36.383L39.691,42.998C39.691,44.817,41.179,46.306,42.998,46.306L52.921,46.306L52.921,56.229C52.921,58.048,54.409,59.536,56.229,59.536L62.844,59.536C64.663,59.536,66.151,58.048,66.151,56.229L66.151,46.306L76.074,46.306C77.893,46.306,79.382,44.817,79.382,42.998L79.382,36.383C79.382,34.564,77.893,33.076,76.074,33.076L66.151,33.076L66.151,23.153C66.151,21.334,64.663,19.845,62.844,19.845L56.229,19.845ZM61.19,89.304C63.939,89.304,66.151,91.516,66.151,94.266C66.151,97.015,63.939,99.227,61.19,99.227L28.114,99.227C12.589,99.227,0,86.637,0,71.113L0,24.807C0,22.057,2.212,19.845,4.961,19.845C7.711,19.845,9.923,22.057,9.923,24.807L9.923,71.113C9.923,81.159,18.068,89.304,28.114,89.304L61.19,89.304ZM61.19,89.304"/>
</g>
  <g id="Thin-S" transform="matrix(1.0,0.0,0.0,1.0,808.0965562823179,611.1565758135679)">  <path fill="#000000" stroke="none" version="1.1" fill-rule="nonzero" stroke-width="1px" stroke-linecap="butt" fill-opacity="1" stroke-opacity="1" stroke-linejoin="miter" xmlns:xlink="http://www.w3.org/1999/xlink" stroke-miterlimit="4" stroke-dasharray="none" d="M19.845,66.151L19.845,13.23C19.845,5.933,25.778,0,33.076,0L85.997,0C93.294,0,99.227,5.933,99.227,13.23L99.227,54.058C99.227,57.572,97.842,60.942,95.361,63.423L83.268,75.516C80.787,77.996,77.418,79.382,73.903,79.382L33.076,79.382C25.778,79.382,19.845,73.449,19.845,66.151ZM56.229,19.845C54.409,19.845,52.921,21.334,52.921,23.153L52.921,33.076L42.998,33.076C41.179,33.076,39.691,34.564,39.691,36.383L39.691,42.998C39.691,44.817,41.179,46.306,42.998,46.306L52.921,46.306L52.921,56.229C52.921,58.048,54.409,59.536,56.229,59.536L62.844,59.536C64.663,59.536,66.151,58.048,66.151,56.229L66.151,46.306L76.074,46.306C77.893,46.306,79.382,44.817,79.382,42.998L79.382,36.383C79.382,34.564,77.893,33.076,76.074,33.076L66.151,33.076L66.151,23.153C66.151,21.334,64.663,19.845,62.844,19.845L56.229,19.845ZM61.19,89.304C63.939,89.304,66.151,91.516,66.151,94.266C66.151,97.015,63.939,99.227,61.19,99.227L28.114,99.227C12.589,99.227,0,86.637,0,71.113L0,24.807C0,22.057,2.212,19.845,4.961,19.845C7.711,19.845,9.923,22.057,9.923,24.807L9.923,71.113C9.923,81.159,18.068,89.304,28.114,89.304L61.19,89.304ZM61.19,89.304"/>
</g>
  <g id="Ultralight-S" transform="matrix(1.0,0.0,0.0,1.0,511.3865562823179,611.1565758135679)">  <path stroke-width="1px" stroke-opacity="1" fill-opacity="1" fill="#000000" stroke-miterlimit="4" xmlns:xlink="http://www.w3.org/1999/xlink" fill-rule="nonzero" stroke="none" stroke-linejoin="miter" stroke-dasharray="none" version="1.1" stroke-linecap="butt" d="M19.845,66.151L19.845,13.23C19.845,5.933,25.778,0,33.076,0L85.997,0C93.294,0,99.227,5.933,99.227,13.23L99.227,54.058C99.227,57.572,97.842,60.942,95.361,63.423L83.268,75.516C80.787,77.996,77.418,79.382,73.903,79.382L33.076,79.382C25.778,79.382,19.845,73.449,19.845,66.151ZM56.229,19.845C54.409,19.845,52.921,21.334,52.921,23.153L52.921,33.076L42.998,33.076C41.179,33.076,39.691,34.564,39.691,36.383L39.691,42.998C39.691,44.817,41.179,46.306,42.998,46.306L52.921,46.306L52.921,56.229C52.921,58.048,54.409,59.536,56.229,59.536L62.844,59.536C64.663,59.536,66.151,58.048,66.151,56.229L66.151,46.306L76.074,46.306C77.893,46.306,79.382,44.817,79.382,42.998L79.382,36.383C79.382,34.564,77.893,33.076,76.074,33.076L66.151,33.076L66.151,23.153C66.151,21.334,64.663,19.845,62.844,19.845L56.229,19.845ZM61.19,89.304C63.939,89.304,66.151,91.516,66.151,94.266C66.151,97.015,63.939,99.227,61.19,99.227L28.114,99.227C12.589,99.227,0,86.637,0,71.113L0,24.807C0,22.057,2.212,19.845,4.961,19.845C7.711,19.845,9.923,22.057,9.923,24.807L9.923,71.113C9.923,81.159,18.068,89.304,28.114,89.304L61.19,89.304ZM61.19,89.304"/>
</g>
 </g>
</svg>
