<?xml version="1.0" encoding="UTF-8"?>
<!-- Generator: CustomSymbols v2.7.2.48 by @serious_bret https://bretlester.com/app_content/CustomSymbols/ -->
<!-- Guides: Left/Right 0.11/0.11 Cap/Base 0.222/0.222 -->
<!-- Settings: RefScale 1.0 Min/Max Stroke Scales 0.5/2.21 -->
<!DOCTYPE svg
PUBLIC "-//W3C//DTD SVG 1.1//EN"
       "http://www.w3.org/Graphics/SVG/1.1/DTD/svg11.dtd">
<svg version="1.1" xmlns="http://www.w3.org/2000/svg" xmlns:xlink="http://www.w3.org/1999/xlink" width="3300" height="2200">
<![CDATA[<?xml version="1.0" encoding="UTF-8"?>
<svg width="96px" height="96px" viewBox="0 0 96 96" version="1.1" xmlns="http://www.w3.org/2000/svg" xmlns:xlink="http://www.w3.org/1999/xlink">
    <title>icon/medical/virus-solid</title>
    <g id="icon/medical/virus-solid" stroke="none" stroke-width="1" fill="none" fill-rule="evenodd">
        <path d="M54,6 C54,2.68125 51.31875,0 48,0 C44.68125,0 42,2.68125 42,6 L42,8.15625 C42,17.5125 30.69375,22.2 24.075,15.58125 L22.5375,14.0625 C20.19375,11.71875 16.40625,11.71875 14.0625,14.0625 C11.71875,16.40625 11.71875,20.2125 14.0625,22.55625 L15.6,24.09375 C22.2,30.69375 17.5125,42 8.15625,42 L6,42 C2.68125,42 0,44.68125 0,48 C0,51.31875 2.68125,54 6,54 L8.15625,54 C17.5125,54 22.2,65.30625 15.58125,71.925 L14.0625,73.4625 C11.71875,75.80625 11.71875,79.6125 14.0625,81.95625 C16.40625,84.3 20.2125,84.3 22.55625,81.95625 L24.09375,80.41875 C30.7125,73.8 42.01875,78.4875 42.01875,87.84375 L42.01875,90 C42.01875,93.31875 44.7,96 48.01875,96 C51.3375,96 54.01875,93.31875 54.01875,90 L54.01875,87.84375 C54.01875,78.4875 65.325,73.8 71.94375,80.41875 L73.48125,81.95625 C75.825,84.3 79.63125,84.3 81.975,81.95625 C84.31875,79.6125 84.31875,75.80625 81.975,73.4625 L80.4375,71.925 C73.81875,65.30625 78.50625,54 87.8625,54 L90,54 C93.31875,54 96,51.31875 96,48 C96,44.68125 93.31875,42 90,42 L87.84375,42 C78.4875,42 73.8,30.69375 80.41875,24.075 L81.95625,22.5375 C84.3,20.19375 84.3,16.3875 81.95625,14.04375 C79.6125,11.7 75.80625,11.7 73.4625,14.04375 L71.925,15.58125 C65.30625,22.2 54,17.5125 54,8.15625 L54,6 Z M51,42 C51,46.96875 46.96875,51 42,51 C37.03125,51 33,46.96875 33,42 C33,37.03125 37.03125,33 42,33 C46.96875,33 51,37.03125 51,42 Z M57,61.5 C54.50625,61.5 52.5,59.49375 52.5,57 C52.5,54.50625 54.50625,52.5 57,52.5 C59.49375,52.5 61.5,54.50625 61.5,57 C61.5,59.49375 59.49375,61.5 57,61.5 Z" id="Shape" fill="#FB4C6C" fill-rule="nonzero"></path>
    </g>
</svg>]]>
 <g id="Notes">
  <rect height="2200" id="artboard" style="fill:white;opacity:1" width="3300" x="0" y="0"/>
  <line id="" style="fill:none;stroke:black;opacity:1;stroke-width:0.5;" x1="263" x2="3036" y1="292" y2="292"/>
  <text id="reftext1" style="stroke:none;fill:black;font-family:-apple-system,&quot;SF Pro Display&quot;,&quot;SF Pro Text&quot;,Helvetica,sans-serif;font-weight:bold;" transform="matrix(1 0 0 1 263 322)">Weight/Scale Variations</text>
  <text id="reftext2" style="stroke:none;fill:black;font-family:-apple-system,&quot;SF Pro Display&quot;,&quot;SF Pro Text&quot;,Helvetica,sans-serif;text-anchor:middle;" transform="matrix(1 0 0 1 559.711 322)">Ultralight</text>
  <text style="stroke:none;fill:black;font-family:-apple-system,&quot;SF Pro Display&quot;,&quot;SF Pro Text&quot;,Helvetica,sans-serif;text-anchor:middle;" transform="matrix(1 0 0 1 856.422 322)">Thin</text>
  <text style="stroke:none;fill:black;font-family:-apple-system,&quot;SF Pro Display&quot;,&quot;SF Pro Text&quot;,Helvetica,sans-serif;text-anchor:middle;" transform="matrix(1 0 0 1 1153.13 322)">Light</text>
  <text style="stroke:none;fill:black;font-family:-apple-system,&quot;SF Pro Display&quot;,&quot;SF Pro Text&quot;,Helvetica,sans-serif;text-anchor:middle;" transform="matrix(1 0 0 1 1449.84 322)">Regular</text>
  <text style="stroke:none;fill:black;font-family:-apple-system,&quot;SF Pro Display&quot;,&quot;SF Pro Text&quot;,Helvetica,sans-serif;text-anchor:middle;" transform="matrix(1 0 0 1 1746.56 322)">Medium</text>
  <text style="stroke:none;fill:black;font-family:-apple-system,&quot;SF Pro Display&quot;,&quot;SF Pro Text&quot;,Helvetica,sans-serif;text-anchor:middle;" transform="matrix(1 0 0 1 2043.27 322)">Semibold</text>
  <text style="stroke:none;fill:black;font-family:-apple-system,&quot;SF Pro Display&quot;,&quot;SF Pro Text&quot;,Helvetica,sans-serif;text-anchor:middle;" transform="matrix(1 0 0 1 2339.98 322)">Bold</text>
  <text style="stroke:none;fill:black;font-family:-apple-system,&quot;SF Pro Display&quot;,&quot;SF Pro Text&quot;,Helvetica,sans-serif;text-anchor:middle;" transform="matrix(1 0 0 1 2636.69 322)">Heavy</text>
  <text style="stroke:none;fill:black;font-family:-apple-system,&quot;SF Pro Display&quot;,&quot;SF Pro Text&quot;,Helvetica,sans-serif;text-anchor:middle;" transform="matrix(1 0 0 1 2933.4 322)">Black</text>
  <line id="" style="fill:none;stroke:black;opacity:1;stroke-width:0.5;" x1="263" x2="3036" y1="1903" y2="1903"/>
  <g id="" transform="matrix(1 0 0 1 263 1933)">
   <path d="M9.24805 0.830078C13.5547 0.830078 17.1387-2.74414 17.1387-7.05078C17.1387-11.3574 13.5449-14.9316 9.23828-14.9316C4.94141-14.9316 1.36719-11.3574 1.36719-7.05078C1.36719-2.74414 4.95117 0.830078 9.24805 0.830078ZM9.24805-0.654297C5.70312-0.654297 2.87109-3.49609 2.87109-7.05078C2.87109-10.6055 5.69336-13.4473 9.23828-13.4473C12.793-13.4473 15.6348-10.6055 15.6445-7.05078C15.6543-3.49609 12.8027-0.654297 9.24805-0.654297ZM6.39648-6.31836L8.50586-6.31836L8.50586-4.19922C8.50586-3.75977 8.79883-3.45703 9.22852-3.45703C9.67773-3.45703 9.9707-3.75977 9.9707-4.19922L9.9707-6.31836L12.0996-6.31836C12.5391-6.31836 12.8418-6.61133 12.8418-7.04102C12.8418-7.48047 12.5391-7.7832 12.0996-7.7832L9.9707-7.7832L9.9707-9.89258C9.9707-10.3418 9.67773-10.6445 9.22852-10.6445C8.79883-10.6445 8.50586-10.3418 8.50586-9.89258L8.50586-7.7832L6.39648-7.7832C5.94727-7.7832 5.64453-7.48047 5.64453-7.04102C5.64453-6.61133 5.94727-6.31836 6.39648-6.31836Z"/>
  </g>
  <g id="" transform="matrix(1 0 0 1 281.506 1933)">
   <path d="M11.709 2.91016C17.1582 2.91016 21.6699-1.61133 21.6699-7.05078C21.6699-12.5 17.1484-17.0117 11.6992-17.0117C6.25977-17.0117 1.74805-12.5 1.74805-7.05078C1.74805-1.61133 6.26953 2.91016 11.709 2.91016ZM11.709 1.25C7.09961 1.25 3.41797-2.44141 3.41797-7.05078C3.41797-11.6602 7.08984-15.3516 11.6992-15.3516C16.3086-15.3516 20-11.6602 20.0098-7.05078C20.0195-2.44141 16.3184 1.25 11.709 1.25ZM7.98828-6.23047L10.8789-6.23047L10.8789-3.32031C10.8789-2.83203 11.2109-2.5 11.6895-2.5C12.1777-2.5 12.5195-2.83203 12.5195-3.32031L12.5195-6.23047L15.4297-6.23047C15.918-6.23047 16.25-6.5625 16.25-7.04102C16.25-7.5293 15.918-7.87109 15.4297-7.87109L12.5195-7.87109L12.5195-10.7617C12.5195-11.2695 12.1777-11.6016 11.6895-11.6016C11.2109-11.6016 10.8789-11.2598 10.8789-10.7617L10.8789-7.87109L7.98828-7.87109C7.48047-7.87109 7.14844-7.5293 7.14844-7.04102C7.14844-6.5625 7.49023-6.23047 7.98828-6.23047Z"/>
  </g>
  <g id="" transform="matrix(1 0 0 1 304.924 1933)">
   <path d="M14.9707 5.66406C21.9336 5.66406 27.6953-0.0976562 27.6953-7.05078C27.6953-14.0137 21.9238-19.7754 14.9609-19.7754C8.00781-19.7754 2.25586-14.0137 2.25586-7.05078C2.25586-0.0976562 8.01758 5.66406 14.9707 5.66406ZM14.9707 3.84766C8.93555 3.84766 4.08203-1.01562 4.08203-7.05078C4.08203-13.0957 8.92578-17.9492 14.9609-17.9492C21.0059-17.9492 25.8594-13.0957 25.8691-7.05078C25.8789-1.01562 21.0156 3.84766 14.9707 3.84766ZM10.0586-6.14258L14.0625-6.14258L14.0625-2.12891C14.0625-1.5918 14.4336-1.2207 14.9512-1.2207C15.4883-1.2207 15.8594-1.5918 15.8594-2.12891L15.8594-6.14258L19.8828-6.14258C20.4102-6.14258 20.791-6.51367 20.791-7.03125C20.791-7.56836 20.4199-7.94922 19.8828-7.94922L15.8594-7.94922L15.8594-11.9531C15.8594-12.5098 15.4883-12.8809 14.9512-12.8809C14.4336-12.8809 14.0625-12.5 14.0625-11.9531L14.0625-7.94922L10.0586-7.94922C9.50195-7.94922 9.13086-7.56836 9.13086-7.03125C9.13086-6.51367 9.51172-6.14258 10.0586-6.14258Z"/>
  </g>
  <text style="stroke:none;fill:black;font-family:-apple-system,&quot;SF Pro Display&quot;,&quot;SF Pro Text&quot;,Helvetica,sans-serif;font-weight:bold;" transform="matrix(1 0 0 1 263 1953)">Design Variations</text>
  <text style="stroke:none;fill:black;font-family:-apple-system,&quot;SF Pro Display&quot;,&quot;SF Pro Text&quot;,Helvetica,sans-serif;" transform="matrix(1 0 0 1 263 1971)">Symbols are supported in up to nine weights and three scales.</text>
  <text style="stroke:none;fill:black;font-family:-apple-system,&quot;SF Pro Display&quot;,&quot;SF Pro Text&quot;,Helvetica,sans-serif;" transform="matrix(1 0 0 1 263 1989)">For optimal layout with text and other symbols, vertically align</text>
  <text style="stroke:none;fill:black;font-family:-apple-system,&quot;SF Pro Display&quot;,&quot;SF Pro Text&quot;,Helvetica,sans-serif;" transform="matrix(1 0 0 1 263 2007)">symbols with the adjacent text.</text>
  <line id="" style="fill:none;stroke:#00AEEF;stroke-width:0.5;opacity:1.0;" x1="776" x2="776" y1="1919" y2="1933"/>
  <g id="" transform="matrix(1 0 0 1 776 1933)">
   <path d="M3.31055 0.126953C3.82812 0.126953 4.08203-0.0683594 4.26758-0.605469L5.52734-4.0625L11.2891-4.0625L12.5488-0.605469C12.7344-0.0683594 12.9883 0.126953 13.4961 0.126953C14.0137 0.126953 14.3457-0.185547 14.3457-0.673828C14.3457-0.839844 14.3164-0.986328 14.2383-1.20117L9.6582-13.3887C9.43359-13.9941 9.0332-14.2871 8.4082-14.2871C7.80273-14.2871 7.39258-13.9941 7.17773-13.3984L2.59766-1.19141C2.51953-0.976562 2.49023-0.830078 2.49023-0.664062C2.49023-0.175781 2.80273 0.126953 3.31055 0.126953ZM6.00586-5.53711L8.37891-12.1094L8.42773-12.1094L10.8008-5.53711Z"/>
  </g>
  <line id="" style="fill:none;stroke:#00AEEF;stroke-width:0.5;opacity:1.0;" x1="792.836" x2="792.836" y1="1919" y2="1933"/>
  <text style="stroke:none;fill:black;font-family:-apple-system,&quot;SF Pro Display&quot;,&quot;SF Pro Text&quot;,Helvetica,sans-serif;font-weight:bold;" transform="matrix(1 0 0 1 776 1953)">Margins</text>
  <text style="stroke:none;fill:black;font-family:-apple-system,&quot;SF Pro Display&quot;,&quot;SF Pro Text&quot;,Helvetica,sans-serif;" transform="matrix(1 0 0 1 776 1971)">Leading and trailing margins on the left and right side of each symbol</text>
  <text style="stroke:none;fill:black;font-family:-apple-system,&quot;SF Pro Display&quot;,&quot;SF Pro Text&quot;,Helvetica,sans-serif;" transform="matrix(1 0 0 1 776 1989)">can be adjusted by modifying the x-location of the margin guidelines.</text>
  <text style="stroke:none;fill:black;font-family:-apple-system,&quot;SF Pro Display&quot;,&quot;SF Pro Text&quot;,Helvetica,sans-serif;" transform="matrix(1 0 0 1 776 2007)">Modifications are automatically applied proportionally to all</text>
  <text style="stroke:none;fill:black;font-family:-apple-system,&quot;SF Pro Display&quot;,&quot;SF Pro Text&quot;,Helvetica,sans-serif;" transform="matrix(1 0 0 1 776 2025)">scales and weights.</text>
  <g id="" transform="matrix(1 0 0 1 1289 1933)">
   <path d="M2.8418 1.86523L4.54102 3.57422C5.40039 4.44336 6.38672 4.38477 7.31445 3.35938L17.4902-7.85156C17.7539-7.76367 18.0273-7.7832 18.3398-7.8418L19.4043-8.03711L20.0684-7.36328L20.0293-6.80664C19.9902-6.30859 20.1172-5.92773 20.6055-5.44922L21.3672-4.70703C21.8457-4.22852 22.4609-4.19922 22.9297-4.66797L25.8398-7.58789C26.3086-8.05664 26.2891-8.65234 25.8105-9.13086L25.0391-9.89258C24.5605-10.3711 24.1895-10.5273 23.7109-10.4883L23.1348-10.4395L22.4902-11.0742L22.7344-12.1973C22.8613-12.7637 22.7051-13.2031 22.1191-13.7891L19.9219-15.9766C16.582-19.2969 12.1484-19.2188 9.25781-16.3281C8.83789-15.918 8.80859-15.3418 9.04297-14.9512C9.27734-14.5898 9.73633-14.3555 10.3809-14.5215C11.8457-14.8633 13.3691-14.9219 14.7949-13.9844L14.209-12.5293C14.0137-12.0508 13.9844-11.6504 14.1113-11.2891L3.04688-0.898438C2.06055 0.0195312 1.98242 0.996094 2.8418 1.86523ZM10.752-15.957C13.1836-17.7344 16.4746-17.4316 18.7012-15.2051L21.1328-12.793C21.3672-12.5586 21.4062-12.373 21.3379-12.0312L21.0156-10.5469L22.5195-9.0625L23.5059-9.12109C23.7598-9.13086 23.8379-9.11133 24.0332-8.91602L24.6094-8.33984L22.168-5.89844L21.5918-6.47461C21.3965-6.66992 21.3672-6.74805 21.377-7.01172L21.4453-7.98828L19.9512-9.47266L18.4277-9.21875C18.1055-9.15039 17.959-9.17969 17.7148-9.41406L15.7129-11.416C15.459-11.6504 15.4297-11.8164 15.5859-12.1875L16.4648-14.2773C14.9023-15.7324 12.8711-16.3574 10.8398-15.7617C10.6836-15.7227 10.625-15.8496 10.752-15.957ZM5.27344 2.30469L4.10156 1.14258C3.63281 0.683594 3.74023 0.341797 4.14062-0.0195312L14.9512-10.1953L16.416-8.71094L6.42578 2.27539C6.07422 2.67578 5.74219 2.77344 5.27344 2.30469Z"/>
  </g>
  <text style="stroke:none;fill:black;font-family:-apple-system,&quot;SF Pro Display&quot;,&quot;SF Pro Text&quot;,Helvetica,sans-serif;font-weight:bold;" transform="matrix(1 0 0 1 1289 1953)">Exporting</text>
  <text style="stroke:none;fill:black;font-family:-apple-system,&quot;SF Pro Display&quot;,&quot;SF Pro Text&quot;,Helvetica,sans-serif;" transform="matrix(1 0 0 1 1289 1971)">Symbols should be outlined when exporting to ensure the</text>
  <text style="stroke:none;fill:black;font-family:-apple-system,&quot;SF Pro Display&quot;,&quot;SF Pro Text&quot;,Helvetica,sans-serif;" transform="matrix(1 0 0 1 1289 1989)">design is preserved when submitting to Xcode.</text>
  <text id="template-version" style="stroke:none;fill:black;font-family:-apple-system,&quot;SF Pro Display&quot;,&quot;SF Pro Text&quot;,Helvetica,sans-serif;text-anchor:end;" transform="matrix(1 0 0 1 3036 1933)">Template v.2.0</text>
  <text style="stroke:none;fill:black;font-family:-apple-system,&quot;SF Pro Display&quot;,&quot;SF Pro Text&quot;,Helvetica,sans-serif;text-anchor:end;" transform="matrix(1 0 0 1 3036 1951)">Requires Xcode 12 or greater</text>
  <text style="stroke:none;fill:black;font-family:-apple-system,&quot;SF Pro Display&quot;,&quot;SF Pro Text&quot;,Helvetica,sans-serif;" transform="matrix(1 0 0 1 263 726)">Small</text>
  <text style="stroke:none;fill:black;font-family:-apple-system,&quot;SF Pro Display&quot;,&quot;SF Pro Text&quot;,Helvetica,sans-serif;" transform="matrix(1 0 0 1 263 1156)">Medium</text>
  <text style="stroke:none;fill:black;font-family:-apple-system,&quot;SF Pro Display&quot;,&quot;SF Pro Text&quot;,Helvetica,sans-serif;" transform="matrix(1 0 0 1 263 1586)">Large</text>
 </g>
 <g id="Guides">
  <g id="H-reference" style="fill:#27AAE1;stroke:none;" transform="matrix(1 0 0 1 339 696)">
   <path d="M0.976562 0L3.66211 0L12.9883-24.4629L45.752-24.4629L55.127 0L57.7637 0L30.6152-70.459L28.125-70.459ZM29.3457-67.1387L29.4434-67.1387L44.873-26.709L13.8672-26.709Z"/>
  </g>
  <line id="Baseline-S" style="fill:none;stroke:#27AAE1;opacity:1;stroke-width:0.5;" x1="263" x2="3036" y1="696" y2="696"/>
  <line id="Capline-S" style="fill:none;stroke:#27AAE1;opacity:1;stroke-width:0.5;" x1="263" x2="3036" y1="625.541" y2="625.541"/>
  <g id="H-reference" style="fill:#27AAE1;stroke:none;" transform="matrix(1 0 0 1 339 1126)">
   <path d="M0.976562 0L3.66211 0L12.9883-24.4629L45.752-24.4629L55.127 0L57.7637 0L30.6152-70.459L28.125-70.459ZM29.3457-67.1387L29.4434-67.1387L44.873-26.709L13.8672-26.709Z"/>
  </g>
  <line id="Baseline-M" style="fill:none;stroke:#27AAE1;opacity:1;stroke-width:0.5;" x1="263" x2="3036" y1="1126" y2="1126"/>
  <line id="Capline-M" style="fill:none;stroke:#27AAE1;opacity:1;stroke-width:0.5;" x1="263" x2="3036" y1="1055.54" y2="1055.54"/>
  <g id="H-reference" style="fill:#27AAE1;stroke:none;" transform="matrix(1 0 0 1 339 1556)">
   <path d="M0.976562 0L3.66211 0L12.9883-24.4629L45.752-24.4629L55.127 0L57.7637 0L30.6152-70.459L28.125-70.459ZM29.3457-67.1387L29.4434-67.1387L44.873-26.709L13.8672-26.709Z"/>
  </g>
  <line id="Baseline-L" style="fill:none;stroke:#27AAE1;opacity:1;stroke-width:0.5;" x1="263" x2="3036" y1="1556" y2="1556"/>
  <line id="Capline-L" style="fill:none;stroke:#27AAE1;opacity:1;stroke-width:0.5;" x1="263" x2="3036" y1="1485.54" y2="1485.54"/>
  <line id="left-margin" x1="1401.7066461049908" x2="1401.7066461049908" y1="1030.79" y2="1150.12" style="fill:none;stroke:#00AEEF;stroke-width:0.5;opacity:1.0;"/>
  <line id="right-margin" x1="1500.553353895009" x2="1500.553353895009" y1="1030.79" y2="1150.12" style="fill:none;stroke:#00AEEF;stroke-width:0.5;opacity:1.0;"/>
 </g>
 <g id="Symbols">
  <g id="Black-L" transform="matrix(1.0,0.0,0.0,1.0,2852.941376250562,1439.031395781812)">  <path stroke-opacity="1" stroke-dasharray="none" stroke-linecap="butt" fill="#000000" stroke-miterlimit="4" fill-opacity="1" stroke="none" xmlns:xlink="http://www.w3.org/1999/xlink" stroke-linejoin="miter" stroke-width="1px" version="1.1" fill-rule="nonzero" d="M91.956,10.217C91.956,4.566,87.39,0,81.739,0C76.087,0,71.521,4.566,71.521,10.217L71.521,13.889C71.521,29.822,52.268,37.804,40.997,26.533L38.379,23.947C34.388,19.956,27.938,19.956,23.947,23.947C19.956,27.938,19.956,34.42,23.947,38.411L26.565,41.029C37.804,52.268,29.822,71.521,13.889,71.521L10.217,71.521C4.566,71.521,0,76.087,0,81.739C0,87.39,4.566,91.956,10.217,91.956L13.889,91.956C29.822,91.956,37.804,111.209,26.533,122.48L23.947,125.098C19.956,129.09,19.956,135.571,23.947,139.562C27.938,143.553,34.42,143.553,38.411,139.562L41.029,136.944C52.3,125.673,71.553,133.655,71.553,149.588L71.553,153.26C71.553,158.911,76.119,163.477,81.771,163.477C87.422,163.477,91.988,158.911,91.988,153.26L91.988,149.588C91.988,133.655,111.241,125.673,122.512,136.944L125.13,139.562C129.121,143.553,135.603,143.553,139.594,139.562C143.585,135.571,143.585,129.09,139.594,125.098L136.976,122.48C125.705,111.209,133.687,91.956,149.62,91.956L153.26,91.956C158.911,91.956,163.477,87.39,163.477,81.739C163.477,76.087,158.911,71.521,153.26,71.521L149.588,71.521C133.655,71.521,125.673,52.268,136.944,40.997L139.562,38.379C143.553,34.388,143.553,27.906,139.562,23.915C135.571,19.924,129.09,19.924,125.098,23.915L122.48,26.533C111.209,37.804,91.956,29.822,91.956,13.889L91.956,10.217ZM86.847,71.521C86.847,79.983,79.983,86.847,71.521,86.847C63.06,86.847,56.195,79.983,56.195,71.521C56.195,63.06,63.06,56.195,71.521,56.195C79.983,56.195,86.847,63.06,86.847,71.521ZM97.065,104.728C92.818,104.728,89.402,101.311,89.402,97.065C89.402,92.818,92.818,89.402,97.065,89.402C101.311,89.402,104.728,92.818,104.728,97.065C104.728,101.311,101.311,104.728,97.065,104.728ZM97.065,104.728"/>
</g>
  <g id="Heavy-L" transform="matrix(1.0,0.0,0.0,1.0,2556.231376250562,1439.031395781812)">  <path stroke-width="1px" xmlns:xlink="http://www.w3.org/1999/xlink" version="1.1" stroke-miterlimit="4" stroke-linejoin="miter" fill-opacity="1" stroke-dasharray="none" stroke="none" stroke-opacity="1" stroke-linecap="butt" fill-rule="nonzero" fill="#000000" d="M91.956,10.217C91.956,4.566,87.39,0,81.739,0C76.087,0,71.521,4.566,71.521,10.217L71.521,13.889C71.521,29.822,52.268,37.804,40.997,26.533L38.379,23.947C34.388,19.956,27.938,19.956,23.947,23.947C19.956,27.938,19.956,34.42,23.947,38.411L26.565,41.029C37.804,52.268,29.822,71.521,13.889,71.521L10.217,71.521C4.566,71.521,0,76.087,0,81.739C0,87.39,4.566,91.956,10.217,91.956L13.889,91.956C29.822,91.956,37.804,111.209,26.533,122.48L23.947,125.098C19.956,129.09,19.956,135.571,23.947,139.562C27.938,143.553,34.42,143.553,38.411,139.562L41.029,136.944C52.3,125.673,71.553,133.655,71.553,149.588L71.553,153.26C71.553,158.911,76.119,163.477,81.771,163.477C87.422,163.477,91.988,158.911,91.988,153.26L91.988,149.588C91.988,133.655,111.241,125.673,122.512,136.944L125.13,139.562C129.121,143.553,135.603,143.553,139.594,139.562C143.585,135.571,143.585,129.09,139.594,125.098L136.976,122.48C125.705,111.209,133.687,91.956,149.62,91.956L153.26,91.956C158.911,91.956,163.477,87.39,163.477,81.739C163.477,76.087,158.911,71.521,153.26,71.521L149.588,71.521C133.655,71.521,125.673,52.268,136.944,40.997L139.562,38.379C143.553,34.388,143.553,27.906,139.562,23.915C135.571,19.924,129.09,19.924,125.098,23.915L122.48,26.533C111.209,37.804,91.956,29.822,91.956,13.889L91.956,10.217ZM86.847,71.521C86.847,79.983,79.983,86.847,71.521,86.847C63.06,86.847,56.195,79.983,56.195,71.521C56.195,63.06,63.06,56.195,71.521,56.195C79.983,56.195,86.847,63.06,86.847,71.521ZM97.065,104.728C92.818,104.728,89.402,101.311,89.402,97.065C89.402,92.818,92.818,89.402,97.065,89.402C101.311,89.402,104.728,92.818,104.728,97.065C104.728,101.311,101.311,104.728,97.065,104.728ZM97.065,104.728"/>
</g>
  <g id="Bold-L" transform="matrix(1.0,0.0,0.0,1.0,2259.521376250562,1439.031395781812)">  <path xmlns:xlink="http://www.w3.org/1999/xlink" version="1.1" stroke-linecap="butt" fill-opacity="1" stroke-dasharray="none" stroke-width="1px" fill-rule="nonzero" stroke-miterlimit="4" stroke-linejoin="miter" stroke="none" stroke-opacity="1" fill="#000000" d="M91.956,10.217C91.956,4.566,87.39,0,81.739,0C76.087,0,71.521,4.566,71.521,10.217L71.521,13.889C71.521,29.822,52.268,37.804,40.997,26.533L38.379,23.947C34.388,19.956,27.938,19.956,23.947,23.947C19.956,27.938,19.956,34.42,23.947,38.411L26.565,41.029C37.804,52.268,29.822,71.521,13.889,71.521L10.217,71.521C4.566,71.521,0,76.087,0,81.739C0,87.39,4.566,91.956,10.217,91.956L13.889,91.956C29.822,91.956,37.804,111.209,26.533,122.48L23.947,125.098C19.956,129.09,19.956,135.571,23.947,139.562C27.938,143.553,34.42,143.553,38.411,139.562L41.029,136.944C52.3,125.673,71.553,133.655,71.553,149.588L71.553,153.26C71.553,158.911,76.119,163.477,81.771,163.477C87.422,163.477,91.988,158.911,91.988,153.26L91.988,149.588C91.988,133.655,111.241,125.673,122.512,136.944L125.13,139.562C129.121,143.553,135.603,143.553,139.594,139.562C143.585,135.571,143.585,129.09,139.594,125.098L136.976,122.48C125.705,111.209,133.687,91.956,149.62,91.956L153.26,91.956C158.911,91.956,163.477,87.39,163.477,81.739C163.477,76.087,158.911,71.521,153.26,71.521L149.588,71.521C133.655,71.521,125.673,52.268,136.944,40.997L139.562,38.379C143.553,34.388,143.553,27.906,139.562,23.915C135.571,19.924,129.09,19.924,125.098,23.915L122.48,26.533C111.209,37.804,91.956,29.822,91.956,13.889L91.956,10.217ZM86.847,71.521C86.847,79.983,79.983,86.847,71.521,86.847C63.06,86.847,56.195,79.983,56.195,71.521C56.195,63.06,63.06,56.195,71.521,56.195C79.983,56.195,86.847,63.06,86.847,71.521ZM97.065,104.728C92.818,104.728,89.402,101.311,89.402,97.065C89.402,92.818,92.818,89.402,97.065,89.402C101.311,89.402,104.728,92.818,104.728,97.065C104.728,101.311,101.311,104.728,97.065,104.728ZM97.065,104.728"/>
</g>
  <g id="Semibold-L" transform="matrix(1.0,0.0,0.0,1.0,1962.811376250562,1439.031395781812)">  <path version="1.1" xmlns:xlink="http://www.w3.org/1999/xlink" stroke-dasharray="none" fill-rule="nonzero" fill="#000000" fill-opacity="1" stroke-opacity="1" stroke-miterlimit="4" stroke-width="1px" stroke="none" stroke-linecap="butt" stroke-linejoin="miter" d="M91.956,10.217C91.956,4.566,87.39,0,81.739,0C76.087,0,71.521,4.566,71.521,10.217L71.521,13.889C71.521,29.822,52.268,37.804,40.997,26.533L38.379,23.947C34.388,19.956,27.938,19.956,23.947,23.947C19.956,27.938,19.956,34.42,23.947,38.411L26.565,41.029C37.804,52.268,29.822,71.521,13.889,71.521L10.217,71.521C4.566,71.521,0,76.087,0,81.739C0,87.39,4.566,91.956,10.217,91.956L13.889,91.956C29.822,91.956,37.804,111.209,26.533,122.48L23.947,125.098C19.956,129.09,19.956,135.571,23.947,139.562C27.938,143.553,34.42,143.553,38.411,139.562L41.029,136.944C52.3,125.673,71.553,133.655,71.553,149.588L71.553,153.26C71.553,158.911,76.119,163.477,81.771,163.477C87.422,163.477,91.988,158.911,91.988,153.26L91.988,149.588C91.988,133.655,111.241,125.673,122.512,136.944L125.13,139.562C129.121,143.553,135.603,143.553,139.594,139.562C143.585,135.571,143.585,129.09,139.594,125.098L136.976,122.48C125.705,111.209,133.687,91.956,149.62,91.956L153.26,91.956C158.911,91.956,163.477,87.39,163.477,81.739C163.477,76.087,158.911,71.521,153.26,71.521L149.588,71.521C133.655,71.521,125.673,52.268,136.944,40.997L139.562,38.379C143.553,34.388,143.553,27.906,139.562,23.915C135.571,19.924,129.09,19.924,125.098,23.915L122.48,26.533C111.209,37.804,91.956,29.822,91.956,13.889L91.956,10.217ZM86.847,71.521C86.847,79.983,79.983,86.847,71.521,86.847C63.06,86.847,56.195,79.983,56.195,71.521C56.195,63.06,63.06,56.195,71.521,56.195C79.983,56.195,86.847,63.06,86.847,71.521ZM97.065,104.728C92.818,104.728,89.402,101.311,89.402,97.065C89.402,92.818,92.818,89.402,97.065,89.402C101.311,89.402,104.728,92.818,104.728,97.065C104.728,101.311,101.311,104.728,97.065,104.728ZM97.065,104.728"/>
</g>
  <g id="Medium-L" transform="matrix(1.0,0.0,0.0,1.0,1666.101376250562,1439.031395781812)">  <path fill="#000000" fill-rule="nonzero" stroke="none" stroke-linejoin="miter" xmlns:xlink="http://www.w3.org/1999/xlink" stroke-width="1px" stroke-dasharray="none" version="1.1" stroke-miterlimit="4" fill-opacity="1" stroke-linecap="butt" stroke-opacity="1" d="M91.956,10.217C91.956,4.566,87.39,0,81.739,0C76.087,0,71.521,4.566,71.521,10.217L71.521,13.889C71.521,29.822,52.268,37.804,40.997,26.533L38.379,23.947C34.388,19.956,27.938,19.956,23.947,23.947C19.956,27.938,19.956,34.42,23.947,38.411L26.565,41.029C37.804,52.268,29.822,71.521,13.889,71.521L10.217,71.521C4.566,71.521,0,76.087,0,81.739C0,87.39,4.566,91.956,10.217,91.956L13.889,91.956C29.822,91.956,37.804,111.209,26.533,122.48L23.947,125.098C19.956,129.09,19.956,135.571,23.947,139.562C27.938,143.553,34.42,143.553,38.411,139.562L41.029,136.944C52.3,125.673,71.553,133.655,71.553,149.588L71.553,153.26C71.553,158.911,76.119,163.477,81.771,163.477C87.422,163.477,91.988,158.911,91.988,153.26L91.988,149.588C91.988,133.655,111.241,125.673,122.512,136.944L125.13,139.562C129.121,143.553,135.603,143.553,139.594,139.562C143.585,135.571,143.585,129.09,139.594,125.098L136.976,122.48C125.705,111.209,133.687,91.956,149.62,91.956L153.26,91.956C158.911,91.956,163.477,87.39,163.477,81.739C163.477,76.087,158.911,71.521,153.26,71.521L149.588,71.521C133.655,71.521,125.673,52.268,136.944,40.997L139.562,38.379C143.553,34.388,143.553,27.906,139.562,23.915C135.571,19.924,129.09,19.924,125.098,23.915L122.48,26.533C111.209,37.804,91.956,29.822,91.956,13.889L91.956,10.217ZM86.847,71.521C86.847,79.983,79.983,86.847,71.521,86.847C63.06,86.847,56.195,79.983,56.195,71.521C56.195,63.06,63.06,56.195,71.521,56.195C79.983,56.195,86.847,63.06,86.847,71.521ZM97.065,104.728C92.818,104.728,89.402,101.311,89.402,97.065C89.402,92.818,92.818,89.402,97.065,89.402C101.311,89.402,104.728,92.818,104.728,97.065C104.728,101.311,101.311,104.728,97.065,104.728ZM97.065,104.728"/>
</g>
  <g id="Regular-L" transform="matrix(1.0,0.0,0.0,1.0,1369.391376250562,1439.031395781812)">  <path fill="#000000" stroke-linecap="butt" stroke-linejoin="miter" fill-opacity="1" fill-rule="nonzero" stroke-dasharray="none" stroke-opacity="1" stroke-width="1px" stroke="none" xmlns:xlink="http://www.w3.org/1999/xlink" version="1.1" stroke-miterlimit="4" d="M91.956,10.217C91.956,4.566,87.39,0,81.739,0C76.087,0,71.521,4.566,71.521,10.217L71.521,13.889C71.521,29.822,52.268,37.804,40.997,26.533L38.379,23.947C34.388,19.956,27.938,19.956,23.947,23.947C19.956,27.938,19.956,34.42,23.947,38.411L26.565,41.029C37.804,52.268,29.822,71.521,13.889,71.521L10.217,71.521C4.566,71.521,0,76.087,0,81.739C0,87.39,4.566,91.956,10.217,91.956L13.889,91.956C29.822,91.956,37.804,111.209,26.533,122.48L23.947,125.098C19.956,129.09,19.956,135.571,23.947,139.562C27.938,143.553,34.42,143.553,38.411,139.562L41.029,136.944C52.3,125.673,71.553,133.655,71.553,149.588L71.553,153.26C71.553,158.911,76.119,163.477,81.771,163.477C87.422,163.477,91.988,158.911,91.988,153.26L91.988,149.588C91.988,133.655,111.241,125.673,122.512,136.944L125.13,139.562C129.121,143.553,135.603,143.553,139.594,139.562C143.585,135.571,143.585,129.09,139.594,125.098L136.976,122.48C125.705,111.209,133.687,91.956,149.62,91.956L153.26,91.956C158.911,91.956,163.477,87.39,163.477,81.739C163.477,76.087,158.911,71.521,153.26,71.521L149.588,71.521C133.655,71.521,125.673,52.268,136.944,40.997L139.562,38.379C143.553,34.388,143.553,27.906,139.562,23.915C135.571,19.924,129.09,19.924,125.098,23.915L122.48,26.533C111.209,37.804,91.956,29.822,91.956,13.889L91.956,10.217ZM86.847,71.521C86.847,79.983,79.983,86.847,71.521,86.847C63.06,86.847,56.195,79.983,56.195,71.521C56.195,63.06,63.06,56.195,71.521,56.195C79.983,56.195,86.847,63.06,86.847,71.521ZM97.065,104.728C92.818,104.728,89.402,101.311,89.402,97.065C89.402,92.818,92.818,89.402,97.065,89.402C101.311,89.402,104.728,92.818,104.728,97.065C104.728,101.311,101.311,104.728,97.065,104.728ZM97.065,104.728"/>
</g>
  <g id="Light-L" transform="matrix(1.0,0.0,0.0,1.0,1072.6813762505622,1439.031395781812)">  <path version="1.1" fill-rule="nonzero" stroke="none" stroke-opacity="1" stroke-linejoin="miter" stroke-width="1px" stroke-linecap="butt" stroke-dasharray="none" fill-opacity="1" xmlns:xlink="http://www.w3.org/1999/xlink" stroke-miterlimit="4" fill="#000000" d="M91.956,10.217C91.956,4.566,87.39,0,81.739,0C76.087,0,71.521,4.566,71.521,10.217L71.521,13.889C71.521,29.822,52.268,37.804,40.997,26.533L38.379,23.947C34.388,19.956,27.938,19.956,23.947,23.947C19.956,27.938,19.956,34.42,23.947,38.411L26.565,41.029C37.804,52.268,29.822,71.521,13.889,71.521L10.217,71.521C4.566,71.521,0,76.087,0,81.739C0,87.39,4.566,91.956,10.217,91.956L13.889,91.956C29.822,91.956,37.804,111.209,26.533,122.48L23.947,125.098C19.956,129.09,19.956,135.571,23.947,139.562C27.938,143.553,34.42,143.553,38.411,139.562L41.029,136.944C52.3,125.673,71.553,133.655,71.553,149.588L71.553,153.26C71.553,158.911,76.119,163.477,81.771,163.477C87.422,163.477,91.988,158.911,91.988,153.26L91.988,149.588C91.988,133.655,111.241,125.673,122.512,136.944L125.13,139.562C129.121,143.553,135.603,143.553,139.594,139.562C143.585,135.571,143.585,129.09,139.594,125.098L136.976,122.48C125.705,111.209,133.687,91.956,149.62,91.956L153.26,91.956C158.911,91.956,163.477,87.39,163.477,81.739C163.477,76.087,158.911,71.521,153.26,71.521L149.588,71.521C133.655,71.521,125.673,52.268,136.944,40.997L139.562,38.379C143.553,34.388,143.553,27.906,139.562,23.915C135.571,19.924,129.09,19.924,125.098,23.915L122.48,26.533C111.209,37.804,91.956,29.822,91.956,13.889L91.956,10.217ZM86.847,71.521C86.847,79.983,79.983,86.847,71.521,86.847C63.06,86.847,56.195,79.983,56.195,71.521C56.195,63.06,63.06,56.195,71.521,56.195C79.983,56.195,86.847,63.06,86.847,71.521ZM97.065,104.728C92.818,104.728,89.402,101.311,89.402,97.065C89.402,92.818,92.818,89.402,97.065,89.402C101.311,89.402,104.728,92.818,104.728,97.065C104.728,101.311,101.311,104.728,97.065,104.728ZM97.065,104.728"/>
</g>
  <g id="Thin-L" transform="matrix(1.0,0.0,0.0,1.0,775.9713762505621,1439.031395781812)">  <path stroke-width="1px" stroke-opacity="1" stroke="none" fill-rule="nonzero" stroke-dasharray="none" stroke-miterlimit="4" xmlns:xlink="http://www.w3.org/1999/xlink" stroke-linecap="butt" fill-opacity="1" version="1.1" stroke-linejoin="miter" fill="#000000" d="M91.956,10.217C91.956,4.566,87.39,0,81.739,0C76.087,0,71.521,4.566,71.521,10.217L71.521,13.889C71.521,29.822,52.268,37.804,40.997,26.533L38.379,23.947C34.388,19.956,27.938,19.956,23.947,23.947C19.956,27.938,19.956,34.42,23.947,38.411L26.565,41.029C37.804,52.268,29.822,71.521,13.889,71.521L10.217,71.521C4.566,71.521,0,76.087,0,81.739C0,87.39,4.566,91.956,10.217,91.956L13.889,91.956C29.822,91.956,37.804,111.209,26.533,122.48L23.947,125.098C19.956,129.09,19.956,135.571,23.947,139.562C27.938,143.553,34.42,143.553,38.411,139.562L41.029,136.944C52.3,125.673,71.553,133.655,71.553,149.588L71.553,153.26C71.553,158.911,76.119,163.477,81.771,163.477C87.422,163.477,91.988,158.911,91.988,153.26L91.988,149.588C91.988,133.655,111.241,125.673,122.512,136.944L125.13,139.562C129.121,143.553,135.603,143.553,139.594,139.562C143.585,135.571,143.585,129.09,139.594,125.098L136.976,122.48C125.705,111.209,133.687,91.956,149.62,91.956L153.26,91.956C158.911,91.956,163.477,87.39,163.477,81.739C163.477,76.087,158.911,71.521,153.26,71.521L149.588,71.521C133.655,71.521,125.673,52.268,136.944,40.997L139.562,38.379C143.553,34.388,143.553,27.906,139.562,23.915C135.571,19.924,129.09,19.924,125.098,23.915L122.48,26.533C111.209,37.804,91.956,29.822,91.956,13.889L91.956,10.217ZM86.847,71.521C86.847,79.983,79.983,86.847,71.521,86.847C63.06,86.847,56.195,79.983,56.195,71.521C56.195,63.06,63.06,56.195,71.521,56.195C79.983,56.195,86.847,63.06,86.847,71.521ZM97.065,104.728C92.818,104.728,89.402,101.311,89.402,97.065C89.402,92.818,92.818,89.402,97.065,89.402C101.311,89.402,104.728,92.818,104.728,97.065C104.728,101.311,101.311,104.728,97.065,104.728ZM97.065,104.728"/>
</g>
  <g id="Ultralight-L" transform="matrix(1.0,0.0,0.0,1.0,479.2613762505621,1439.031395781812)">  <path version="1.1" fill-rule="nonzero" fill="#000000" xmlns:xlink="http://www.w3.org/1999/xlink" stroke-width="1px" stroke-linejoin="miter" fill-opacity="1" stroke-miterlimit="4" stroke-opacity="1" stroke-dasharray="none" stroke-linecap="butt" stroke="none" d="M91.956,10.217C91.956,4.566,87.39,0,81.739,0C76.087,0,71.521,4.566,71.521,10.217L71.521,13.889C71.521,29.822,52.268,37.804,40.997,26.533L38.379,23.947C34.388,19.956,27.938,19.956,23.947,23.947C19.956,27.938,19.956,34.42,23.947,38.411L26.565,41.029C37.804,52.268,29.822,71.521,13.889,71.521L10.217,71.521C4.566,71.521,0,76.087,0,81.739C0,87.39,4.566,91.956,10.217,91.956L13.889,91.956C29.822,91.956,37.804,111.209,26.533,122.48L23.947,125.098C19.956,129.09,19.956,135.571,23.947,139.562C27.938,143.553,34.42,143.553,38.411,139.562L41.029,136.944C52.3,125.673,71.553,133.655,71.553,149.588L71.553,153.26C71.553,158.911,76.119,163.477,81.771,163.477C87.422,163.477,91.988,158.911,91.988,153.26L91.988,149.588C91.988,133.655,111.241,125.673,122.512,136.944L125.13,139.562C129.121,143.553,135.603,143.553,139.594,139.562C143.585,135.571,143.585,129.09,139.594,125.098L136.976,122.48C125.705,111.209,133.687,91.956,149.62,91.956L153.26,91.956C158.911,91.956,163.477,87.39,163.477,81.739C163.477,76.087,158.911,71.521,153.26,71.521L149.588,71.521C133.655,71.521,125.673,52.268,136.944,40.997L139.562,38.379C143.553,34.388,143.553,27.906,139.562,23.915C135.571,19.924,129.09,19.924,125.098,23.915L122.48,26.533C111.209,37.804,91.956,29.822,91.956,13.889L91.956,10.217ZM86.847,71.521C86.847,79.983,79.983,86.847,71.521,86.847C63.06,86.847,56.195,79.983,56.195,71.521C56.195,63.06,63.06,56.195,71.521,56.195C79.983,56.195,86.847,63.06,86.847,71.521ZM97.065,104.728C92.818,104.728,89.402,101.311,89.402,97.065C89.402,92.818,92.818,89.402,97.065,89.402C101.311,89.402,104.728,92.818,104.728,97.065C104.728,101.311,101.311,104.728,97.065,104.728ZM97.065,104.728"/>
</g>
  <g id="Black-M" transform="matrix(1.0,0.0,0.0,1.0,2871.3167257756295,1027.4067453068794)">  <path stroke-opacity="1" stroke-dasharray="none" stroke-linecap="butt" fill="#000000" stroke-miterlimit="4" fill-opacity="1" stroke="none" xmlns:xlink="http://www.w3.org/1999/xlink" stroke-linejoin="miter" stroke-width="1px" version="1.1" fill-rule="nonzero" d="M71.284,7.92C71.284,3.539,67.744,0,63.363,0C58.982,0,55.443,3.539,55.443,7.92L55.443,10.767C55.443,23.118,40.518,29.306,31.781,20.568L29.751,18.563C26.657,15.47,21.657,15.47,18.563,18.563C15.47,21.657,15.47,26.682,18.563,29.776L20.593,31.805C29.306,40.518,23.118,55.443,10.767,55.443L7.92,55.443C3.539,55.443,0,58.982,0,63.363C0,67.744,3.539,71.284,7.92,71.284L10.767,71.284C23.118,71.284,29.306,86.209,20.568,94.946L18.563,96.976C15.47,100.069,15.47,105.094,18.563,108.188C21.657,111.282,26.682,111.282,29.776,108.188L31.805,106.158C40.543,97.421,55.468,103.609,55.468,115.96L55.468,118.806C55.468,123.187,59.007,126.727,63.388,126.727C67.769,126.727,71.308,123.187,71.308,118.806L71.308,115.96C71.308,103.609,86.233,97.421,94.971,106.158L97,108.188C100.094,111.282,105.119,111.282,108.213,108.188C111.306,105.094,111.306,100.069,108.213,96.976L106.183,94.946C97.446,86.209,103.634,71.284,115.984,71.284L118.806,71.284C123.187,71.284,126.727,67.744,126.727,63.363C126.727,58.982,123.187,55.443,118.806,55.443L115.96,55.443C103.609,55.443,97.421,40.518,106.158,31.781L108.188,29.751C111.282,26.657,111.282,21.633,108.188,18.539C105.094,15.445,100.069,15.445,96.976,18.539L94.946,20.568C86.209,29.306,71.284,23.118,71.284,10.767L71.284,7.92ZM67.323,55.443C67.323,62.002,62.002,67.323,55.443,67.323C48.884,67.323,43.562,62.002,43.562,55.443C43.562,48.884,48.884,43.562,55.443,43.562C62.002,43.562,67.323,48.884,67.323,55.443ZM75.244,81.184C71.952,81.184,69.304,78.536,69.304,75.244C69.304,71.952,71.952,69.304,75.244,69.304C78.536,69.304,81.184,71.952,81.184,75.244C81.184,78.536,78.536,81.184,75.244,81.184ZM75.244,81.184"/>
</g>
  <g id="Heavy-M" transform="matrix(1.0,0.0,0.0,1.0,2574.6067257756295,1027.4067453068794)">  <path stroke-width="1px" xmlns:xlink="http://www.w3.org/1999/xlink" version="1.1" stroke-miterlimit="4" stroke-linejoin="miter" fill-opacity="1" stroke-dasharray="none" stroke="none" stroke-opacity="1" stroke-linecap="butt" fill-rule="nonzero" fill="#000000" d="M71.284,7.92C71.284,3.539,67.744,0,63.363,0C58.982,0,55.443,3.539,55.443,7.92L55.443,10.767C55.443,23.118,40.518,29.306,31.781,20.568L29.751,18.563C26.657,15.47,21.657,15.47,18.563,18.563C15.47,21.657,15.47,26.682,18.563,29.776L20.593,31.805C29.306,40.518,23.118,55.443,10.767,55.443L7.92,55.443C3.539,55.443,0,58.982,0,63.363C0,67.744,3.539,71.284,7.92,71.284L10.767,71.284C23.118,71.284,29.306,86.209,20.568,94.946L18.563,96.976C15.47,100.069,15.47,105.094,18.563,108.188C21.657,111.282,26.682,111.282,29.776,108.188L31.805,106.158C40.543,97.421,55.468,103.609,55.468,115.96L55.468,118.806C55.468,123.187,59.007,126.727,63.388,126.727C67.769,126.727,71.308,123.187,71.308,118.806L71.308,115.96C71.308,103.609,86.233,97.421,94.971,106.158L97,108.188C100.094,111.282,105.119,111.282,108.213,108.188C111.306,105.094,111.306,100.069,108.213,96.976L106.183,94.946C97.446,86.209,103.634,71.284,115.984,71.284L118.806,71.284C123.187,71.284,126.727,67.744,126.727,63.363C126.727,58.982,123.187,55.443,118.806,55.443L115.96,55.443C103.609,55.443,97.421,40.518,106.158,31.781L108.188,29.751C111.282,26.657,111.282,21.633,108.188,18.539C105.094,15.445,100.069,15.445,96.976,18.539L94.946,20.568C86.209,29.306,71.284,23.118,71.284,10.767L71.284,7.92ZM67.323,55.443C67.323,62.002,62.002,67.323,55.443,67.323C48.884,67.323,43.562,62.002,43.562,55.443C43.562,48.884,48.884,43.562,55.443,43.562C62.002,43.562,67.323,48.884,67.323,55.443ZM75.244,81.184C71.952,81.184,69.304,78.536,69.304,75.244C69.304,71.952,71.952,69.304,75.244,69.304C78.536,69.304,81.184,71.952,81.184,75.244C81.184,78.536,78.536,81.184,75.244,81.184ZM75.244,81.184"/>
</g>
  <g id="Bold-M" transform="matrix(1.0,0.0,0.0,1.0,2277.8967257756294,1027.4067453068794)">  <path xmlns:xlink="http://www.w3.org/1999/xlink" version="1.1" stroke-linecap="butt" fill-opacity="1" stroke-dasharray="none" stroke-width="1px" fill-rule="nonzero" stroke-miterlimit="4" stroke-linejoin="miter" stroke="none" stroke-opacity="1" fill="#000000" d="M71.284,7.92C71.284,3.539,67.744,0,63.363,0C58.982,0,55.443,3.539,55.443,7.92L55.443,10.767C55.443,23.118,40.518,29.306,31.781,20.568L29.751,18.563C26.657,15.47,21.657,15.47,18.563,18.563C15.47,21.657,15.47,26.682,18.563,29.776L20.593,31.805C29.306,40.518,23.118,55.443,10.767,55.443L7.92,55.443C3.539,55.443,0,58.982,0,63.363C0,67.744,3.539,71.284,7.92,71.284L10.767,71.284C23.118,71.284,29.306,86.209,20.568,94.946L18.563,96.976C15.47,100.069,15.47,105.094,18.563,108.188C21.657,111.282,26.682,111.282,29.776,108.188L31.805,106.158C40.543,97.421,55.468,103.609,55.468,115.96L55.468,118.806C55.468,123.187,59.007,126.727,63.388,126.727C67.769,126.727,71.308,123.187,71.308,118.806L71.308,115.96C71.308,103.609,86.233,97.421,94.971,106.158L97,108.188C100.094,111.282,105.119,111.282,108.213,108.188C111.306,105.094,111.306,100.069,108.213,96.976L106.183,94.946C97.446,86.209,103.634,71.284,115.984,71.284L118.806,71.284C123.187,71.284,126.727,67.744,126.727,63.363C126.727,58.982,123.187,55.443,118.806,55.443L115.96,55.443C103.609,55.443,97.421,40.518,106.158,31.781L108.188,29.751C111.282,26.657,111.282,21.633,108.188,18.539C105.094,15.445,100.069,15.445,96.976,18.539L94.946,20.568C86.209,29.306,71.284,23.118,71.284,10.767L71.284,7.92ZM67.323,55.443C67.323,62.002,62.002,67.323,55.443,67.323C48.884,67.323,43.562,62.002,43.562,55.443C43.562,48.884,48.884,43.562,55.443,43.562C62.002,43.562,67.323,48.884,67.323,55.443ZM75.244,81.184C71.952,81.184,69.304,78.536,69.304,75.244C69.304,71.952,71.952,69.304,75.244,69.304C78.536,69.304,81.184,71.952,81.184,75.244C81.184,78.536,78.536,81.184,75.244,81.184ZM75.244,81.184"/>
</g>
  <g id="Semibold-M" transform="matrix(1.0,0.0,0.0,1.0,1981.1867257756294,1027.4067453068794)">  <path version="1.1" xmlns:xlink="http://www.w3.org/1999/xlink" stroke-dasharray="none" fill-rule="nonzero" fill="#000000" fill-opacity="1" stroke-opacity="1" stroke-miterlimit="4" stroke-width="1px" stroke="none" stroke-linecap="butt" stroke-linejoin="miter" d="M71.284,7.92C71.284,3.539,67.744,0,63.363,0C58.982,0,55.443,3.539,55.443,7.92L55.443,10.767C55.443,23.118,40.518,29.306,31.781,20.568L29.751,18.563C26.657,15.47,21.657,15.47,18.563,18.563C15.47,21.657,15.47,26.682,18.563,29.776L20.593,31.805C29.306,40.518,23.118,55.443,10.767,55.443L7.92,55.443C3.539,55.443,0,58.982,0,63.363C0,67.744,3.539,71.284,7.92,71.284L10.767,71.284C23.118,71.284,29.306,86.209,20.568,94.946L18.563,96.976C15.47,100.069,15.47,105.094,18.563,108.188C21.657,111.282,26.682,111.282,29.776,108.188L31.805,106.158C40.543,97.421,55.468,103.609,55.468,115.96L55.468,118.806C55.468,123.187,59.007,126.727,63.388,126.727C67.769,126.727,71.308,123.187,71.308,118.806L71.308,115.96C71.308,103.609,86.233,97.421,94.971,106.158L97,108.188C100.094,111.282,105.119,111.282,108.213,108.188C111.306,105.094,111.306,100.069,108.213,96.976L106.183,94.946C97.446,86.209,103.634,71.284,115.984,71.284L118.806,71.284C123.187,71.284,126.727,67.744,126.727,63.363C126.727,58.982,123.187,55.443,118.806,55.443L115.96,55.443C103.609,55.443,97.421,40.518,106.158,31.781L108.188,29.751C111.282,26.657,111.282,21.633,108.188,18.539C105.094,15.445,100.069,15.445,96.976,18.539L94.946,20.568C86.209,29.306,71.284,23.118,71.284,10.767L71.284,7.92ZM67.323,55.443C67.323,62.002,62.002,67.323,55.443,67.323C48.884,67.323,43.562,62.002,43.562,55.443C43.562,48.884,48.884,43.562,55.443,43.562C62.002,43.562,67.323,48.884,67.323,55.443ZM75.244,81.184C71.952,81.184,69.304,78.536,69.304,75.244C69.304,71.952,71.952,69.304,75.244,69.304C78.536,69.304,81.184,71.952,81.184,75.244C81.184,78.536,78.536,81.184,75.244,81.184ZM75.244,81.184"/>
</g>
  <g id="Medium-M" transform="matrix(1.0,0.0,0.0,1.0,1684.4767257756293,1027.4067453068794)">  <path fill="#000000" fill-rule="nonzero" stroke="none" stroke-linejoin="miter" xmlns:xlink="http://www.w3.org/1999/xlink" stroke-width="1px" stroke-dasharray="none" version="1.1" stroke-miterlimit="4" fill-opacity="1" stroke-linecap="butt" stroke-opacity="1" d="M71.284,7.92C71.284,3.539,67.744,0,63.363,0C58.982,0,55.443,3.539,55.443,7.92L55.443,10.767C55.443,23.118,40.518,29.306,31.781,20.568L29.751,18.563C26.657,15.47,21.657,15.47,18.563,18.563C15.47,21.657,15.47,26.682,18.563,29.776L20.593,31.805C29.306,40.518,23.118,55.443,10.767,55.443L7.92,55.443C3.539,55.443,0,58.982,0,63.363C0,67.744,3.539,71.284,7.92,71.284L10.767,71.284C23.118,71.284,29.306,86.209,20.568,94.946L18.563,96.976C15.47,100.069,15.47,105.094,18.563,108.188C21.657,111.282,26.682,111.282,29.776,108.188L31.805,106.158C40.543,97.421,55.468,103.609,55.468,115.96L55.468,118.806C55.468,123.187,59.007,126.727,63.388,126.727C67.769,126.727,71.308,123.187,71.308,118.806L71.308,115.96C71.308,103.609,86.233,97.421,94.971,106.158L97,108.188C100.094,111.282,105.119,111.282,108.213,108.188C111.306,105.094,111.306,100.069,108.213,96.976L106.183,94.946C97.446,86.209,103.634,71.284,115.984,71.284L118.806,71.284C123.187,71.284,126.727,67.744,126.727,63.363C126.727,58.982,123.187,55.443,118.806,55.443L115.96,55.443C103.609,55.443,97.421,40.518,106.158,31.781L108.188,29.751C111.282,26.657,111.282,21.633,108.188,18.539C105.094,15.445,100.069,15.445,96.976,18.539L94.946,20.568C86.209,29.306,71.284,23.118,71.284,10.767L71.284,7.92ZM67.323,55.443C67.323,62.002,62.002,67.323,55.443,67.323C48.884,67.323,43.562,62.002,43.562,55.443C43.562,48.884,48.884,43.562,55.443,43.562C62.002,43.562,67.323,48.884,67.323,55.443ZM75.244,81.184C71.952,81.184,69.304,78.536,69.304,75.244C69.304,71.952,71.952,69.304,75.244,69.304C78.536,69.304,81.184,71.952,81.184,75.244C81.184,78.536,78.536,81.184,75.244,81.184ZM75.244,81.184"/>
</g>
  <g id="Regular-M" transform="matrix(1.0,0.0,0.0,1.0,1387.7667257756293,1027.4067453068794)">  <path fill="#000000" stroke-linecap="butt" stroke-linejoin="miter" fill-opacity="1" fill-rule="nonzero" stroke-dasharray="none" stroke-opacity="1" stroke-width="1px" stroke="none" xmlns:xlink="http://www.w3.org/1999/xlink" version="1.1" stroke-miterlimit="4" d="M71.284,7.92C71.284,3.539,67.744,0,63.363,0C58.982,0,55.443,3.539,55.443,7.92L55.443,10.767C55.443,23.118,40.518,29.306,31.781,20.568L29.751,18.563C26.657,15.47,21.657,15.47,18.563,18.563C15.47,21.657,15.47,26.682,18.563,29.776L20.593,31.805C29.306,40.518,23.118,55.443,10.767,55.443L7.92,55.443C3.539,55.443,0,58.982,0,63.363C0,67.744,3.539,71.284,7.92,71.284L10.767,71.284C23.118,71.284,29.306,86.209,20.568,94.946L18.563,96.976C15.47,100.069,15.47,105.094,18.563,108.188C21.657,111.282,26.682,111.282,29.776,108.188L31.805,106.158C40.543,97.421,55.468,103.609,55.468,115.96L55.468,118.806C55.468,123.187,59.007,126.727,63.388,126.727C67.769,126.727,71.308,123.187,71.308,118.806L71.308,115.96C71.308,103.609,86.233,97.421,94.971,106.158L97,108.188C100.094,111.282,105.119,111.282,108.213,108.188C111.306,105.094,111.306,100.069,108.213,96.976L106.183,94.946C97.446,86.209,103.634,71.284,115.984,71.284L118.806,71.284C123.187,71.284,126.727,67.744,126.727,63.363C126.727,58.982,123.187,55.443,118.806,55.443L115.96,55.443C103.609,55.443,97.421,40.518,106.158,31.781L108.188,29.751C111.282,26.657,111.282,21.633,108.188,18.539C105.094,15.445,100.069,15.445,96.976,18.539L94.946,20.568C86.209,29.306,71.284,23.118,71.284,10.767L71.284,7.92ZM67.323,55.443C67.323,62.002,62.002,67.323,55.443,67.323C48.884,67.323,43.562,62.002,43.562,55.443C43.562,48.884,48.884,43.562,55.443,43.562C62.002,43.562,67.323,48.884,67.323,55.443ZM75.244,81.184C71.952,81.184,69.304,78.536,69.304,75.244C69.304,71.952,71.952,69.304,75.244,69.304C78.536,69.304,81.184,71.952,81.184,75.244C81.184,78.536,78.536,81.184,75.244,81.184ZM75.244,81.184"/>
</g>
  <g id="Light-M" transform="matrix(1.0,0.0,0.0,1.0,1091.0567257756295,1027.4067453068794)">  <path version="1.1" fill-rule="nonzero" stroke="none" stroke-opacity="1" stroke-linejoin="miter" stroke-width="1px" stroke-linecap="butt" stroke-dasharray="none" fill-opacity="1" xmlns:xlink="http://www.w3.org/1999/xlink" stroke-miterlimit="4" fill="#000000" d="M71.284,7.92C71.284,3.539,67.744,0,63.363,0C58.982,0,55.443,3.539,55.443,7.92L55.443,10.767C55.443,23.118,40.518,29.306,31.781,20.568L29.751,18.563C26.657,15.47,21.657,15.47,18.563,18.563C15.47,21.657,15.47,26.682,18.563,29.776L20.593,31.805C29.306,40.518,23.118,55.443,10.767,55.443L7.92,55.443C3.539,55.443,0,58.982,0,63.363C0,67.744,3.539,71.284,7.92,71.284L10.767,71.284C23.118,71.284,29.306,86.209,20.568,94.946L18.563,96.976C15.47,100.069,15.47,105.094,18.563,108.188C21.657,111.282,26.682,111.282,29.776,108.188L31.805,106.158C40.543,97.421,55.468,103.609,55.468,115.96L55.468,118.806C55.468,123.187,59.007,126.727,63.388,126.727C67.769,126.727,71.308,123.187,71.308,118.806L71.308,115.96C71.308,103.609,86.233,97.421,94.971,106.158L97,108.188C100.094,111.282,105.119,111.282,108.213,108.188C111.306,105.094,111.306,100.069,108.213,96.976L106.183,94.946C97.446,86.209,103.634,71.284,115.984,71.284L118.806,71.284C123.187,71.284,126.727,67.744,126.727,63.363C126.727,58.982,123.187,55.443,118.806,55.443L115.96,55.443C103.609,55.443,97.421,40.518,106.158,31.781L108.188,29.751C111.282,26.657,111.282,21.633,108.188,18.539C105.094,15.445,100.069,15.445,96.976,18.539L94.946,20.568C86.209,29.306,71.284,23.118,71.284,10.767L71.284,7.92ZM67.323,55.443C67.323,62.002,62.002,67.323,55.443,67.323C48.884,67.323,43.562,62.002,43.562,55.443C43.562,48.884,48.884,43.562,55.443,43.562C62.002,43.562,67.323,48.884,67.323,55.443ZM75.244,81.184C71.952,81.184,69.304,78.536,69.304,75.244C69.304,71.952,71.952,69.304,75.244,69.304C78.536,69.304,81.184,71.952,81.184,75.244C81.184,78.536,78.536,81.184,75.244,81.184ZM75.244,81.184"/>
</g>
  <g id="Thin-M" transform="matrix(1.0,0.0,0.0,1.0,794.3467257756296,1027.4067453068794)">  <path stroke-width="1px" stroke-opacity="1" stroke="none" fill-rule="nonzero" stroke-dasharray="none" stroke-miterlimit="4" xmlns:xlink="http://www.w3.org/1999/xlink" stroke-linecap="butt" fill-opacity="1" version="1.1" stroke-linejoin="miter" fill="#000000" d="M71.284,7.92C71.284,3.539,67.744,0,63.363,0C58.982,0,55.443,3.539,55.443,7.92L55.443,10.767C55.443,23.118,40.518,29.306,31.781,20.568L29.751,18.563C26.657,15.47,21.657,15.47,18.563,18.563C15.47,21.657,15.47,26.682,18.563,29.776L20.593,31.805C29.306,40.518,23.118,55.443,10.767,55.443L7.92,55.443C3.539,55.443,0,58.982,0,63.363C0,67.744,3.539,71.284,7.92,71.284L10.767,71.284C23.118,71.284,29.306,86.209,20.568,94.946L18.563,96.976C15.47,100.069,15.47,105.094,18.563,108.188C21.657,111.282,26.682,111.282,29.776,108.188L31.805,106.158C40.543,97.421,55.468,103.609,55.468,115.96L55.468,118.806C55.468,123.187,59.007,126.727,63.388,126.727C67.769,126.727,71.308,123.187,71.308,118.806L71.308,115.96C71.308,103.609,86.233,97.421,94.971,106.158L97,108.188C100.094,111.282,105.119,111.282,108.213,108.188C111.306,105.094,111.306,100.069,108.213,96.976L106.183,94.946C97.446,86.209,103.634,71.284,115.984,71.284L118.806,71.284C123.187,71.284,126.727,67.744,126.727,63.363C126.727,58.982,123.187,55.443,118.806,55.443L115.96,55.443C103.609,55.443,97.421,40.518,106.158,31.781L108.188,29.751C111.282,26.657,111.282,21.633,108.188,18.539C105.094,15.445,100.069,15.445,96.976,18.539L94.946,20.568C86.209,29.306,71.284,23.118,71.284,10.767L71.284,7.92ZM67.323,55.443C67.323,62.002,62.002,67.323,55.443,67.323C48.884,67.323,43.562,62.002,43.562,55.443C43.562,48.884,48.884,43.562,55.443,43.562C62.002,43.562,67.323,48.884,67.323,55.443ZM75.244,81.184C71.952,81.184,69.304,78.536,69.304,75.244C69.304,71.952,71.952,69.304,75.244,69.304C78.536,69.304,81.184,71.952,81.184,75.244C81.184,78.536,78.536,81.184,75.244,81.184ZM75.244,81.184"/>
</g>
  <g id="Ultralight-M" transform="matrix(1.0,0.0,0.0,1.0,497.6367257756295,1027.4067453068794)">  <path version="1.1" fill-rule="nonzero" fill="#000000" xmlns:xlink="http://www.w3.org/1999/xlink" stroke-width="1px" stroke-linejoin="miter" fill-opacity="1" stroke-miterlimit="4" stroke-opacity="1" stroke-dasharray="none" stroke-linecap="butt" stroke="none" d="M71.284,7.92C71.284,3.539,67.744,0,63.363,0C58.982,0,55.443,3.539,55.443,7.92L55.443,10.767C55.443,23.118,40.518,29.306,31.781,20.568L29.751,18.563C26.657,15.47,21.657,15.47,18.563,18.563C15.47,21.657,15.47,26.682,18.563,29.776L20.593,31.805C29.306,40.518,23.118,55.443,10.767,55.443L7.92,55.443C3.539,55.443,0,58.982,0,63.363C0,67.744,3.539,71.284,7.92,71.284L10.767,71.284C23.118,71.284,29.306,86.209,20.568,94.946L18.563,96.976C15.47,100.069,15.47,105.094,18.563,108.188C21.657,111.282,26.682,111.282,29.776,108.188L31.805,106.158C40.543,97.421,55.468,103.609,55.468,115.96L55.468,118.806C55.468,123.187,59.007,126.727,63.388,126.727C67.769,126.727,71.308,123.187,71.308,118.806L71.308,115.96C71.308,103.609,86.233,97.421,94.971,106.158L97,108.188C100.094,111.282,105.119,111.282,108.213,108.188C111.306,105.094,111.306,100.069,108.213,96.976L106.183,94.946C97.446,86.209,103.634,71.284,115.984,71.284L118.806,71.284C123.187,71.284,126.727,67.744,126.727,63.363C126.727,58.982,123.187,55.443,118.806,55.443L115.96,55.443C103.609,55.443,97.421,40.518,106.158,31.781L108.188,29.751C111.282,26.657,111.282,21.633,108.188,18.539C105.094,15.445,100.069,15.445,96.976,18.539L94.946,20.568C86.209,29.306,71.284,23.118,71.284,10.767L71.284,7.92ZM67.323,55.443C67.323,62.002,62.002,67.323,55.443,67.323C48.884,67.323,43.562,62.002,43.562,55.443C43.562,48.884,48.884,43.562,55.443,43.562C62.002,43.562,67.323,48.884,67.323,55.443ZM75.244,81.184C71.952,81.184,69.304,78.536,69.304,75.244C69.304,71.952,71.952,69.304,75.244,69.304C78.536,69.304,81.184,71.952,81.184,75.244C81.184,78.536,78.536,81.184,75.244,81.184ZM75.244,81.184"/>
</g>
  <g id="Black-S" transform="matrix(1.0,0.0,0.0,1.0,2885.066556282318,611.1565758135679)">  <path stroke-opacity="1" stroke-dasharray="none" stroke-linecap="butt" fill="#000000" stroke-miterlimit="4" fill-opacity="1" stroke="none" xmlns:xlink="http://www.w3.org/1999/xlink" stroke-linejoin="miter" stroke-width="1px" version="1.1" fill-rule="nonzero" d="M55.815,6.202C55.815,2.771,53.044,0,49.613,0C46.183,0,43.412,2.771,43.412,6.202L43.412,8.43C43.412,18.101,31.725,22.946,24.884,16.105L23.295,14.535C20.873,12.113,16.958,12.113,14.535,14.535C12.113,16.958,12.113,20.892,14.535,23.314L16.124,24.904C22.946,31.725,18.101,43.412,8.43,43.412L6.202,43.412C2.771,43.412,0,46.183,0,49.613C0,53.044,2.771,55.815,6.202,55.815L8.43,55.815C18.101,55.815,22.946,67.501,16.105,74.343L14.535,75.932C12.113,78.354,12.113,82.289,14.535,84.711C16.958,87.134,20.892,87.134,23.314,84.711L24.904,83.122C31.745,76.281,43.431,81.126,43.431,90.796L43.431,93.025C43.431,96.456,46.203,99.227,49.633,99.227C53.063,99.227,55.835,96.456,55.835,93.025L55.835,90.796C55.835,81.126,67.521,76.281,74.362,83.122L75.951,84.711C78.374,87.134,82.308,87.134,84.73,84.711C87.153,82.289,87.153,78.354,84.73,75.932L83.141,74.343C76.3,67.501,81.145,55.815,90.816,55.815L93.025,55.815C96.456,55.815,99.227,53.044,99.227,49.613C99.227,46.183,96.456,43.412,93.025,43.412L90.796,43.412C81.126,43.412,76.281,31.725,83.122,24.884L84.711,23.295C87.134,20.873,87.134,16.938,84.711,14.516C82.289,12.093,78.354,12.093,75.932,14.516L74.343,16.105C67.501,22.946,55.815,18.101,55.815,8.43L55.815,6.202ZM52.714,43.412C52.714,48.548,48.548,52.714,43.412,52.714C38.276,52.714,34.109,48.548,34.109,43.412C34.109,38.276,38.276,34.109,43.412,34.109C48.548,34.109,52.714,38.276,52.714,43.412ZM58.916,63.567C56.338,63.567,54.265,61.494,54.265,58.916C54.265,56.338,56.338,54.265,58.916,54.265C61.494,54.265,63.567,56.338,63.567,58.916C63.567,61.494,61.494,63.567,58.916,63.567ZM58.916,63.567"/>
</g>
  <g id="Heavy-S" transform="matrix(1.0,0.0,0.0,1.0,2588.356556282318,611.1565758135679)">  <path stroke-width="1px" xmlns:xlink="http://www.w3.org/1999/xlink" version="1.1" stroke-miterlimit="4" stroke-linejoin="miter" fill-opacity="1" stroke-dasharray="none" stroke="none" stroke-opacity="1" stroke-linecap="butt" fill-rule="nonzero" fill="#000000" d="M55.815,6.202C55.815,2.771,53.044,0,49.613,0C46.183,0,43.412,2.771,43.412,6.202L43.412,8.43C43.412,18.101,31.725,22.946,24.884,16.105L23.295,14.535C20.873,12.113,16.958,12.113,14.535,14.535C12.113,16.958,12.113,20.892,14.535,23.314L16.124,24.904C22.946,31.725,18.101,43.412,8.43,43.412L6.202,43.412C2.771,43.412,0,46.183,0,49.613C0,53.044,2.771,55.815,6.202,55.815L8.43,55.815C18.101,55.815,22.946,67.501,16.105,74.343L14.535,75.932C12.113,78.354,12.113,82.289,14.535,84.711C16.958,87.134,20.892,87.134,23.314,84.711L24.904,83.122C31.745,76.281,43.431,81.126,43.431,90.796L43.431,93.025C43.431,96.456,46.203,99.227,49.633,99.227C53.063,99.227,55.835,96.456,55.835,93.025L55.835,90.796C55.835,81.126,67.521,76.281,74.362,83.122L75.951,84.711C78.374,87.134,82.308,87.134,84.73,84.711C87.153,82.289,87.153,78.354,84.73,75.932L83.141,74.343C76.3,67.501,81.145,55.815,90.816,55.815L93.025,55.815C96.456,55.815,99.227,53.044,99.227,49.613C99.227,46.183,96.456,43.412,93.025,43.412L90.796,43.412C81.126,43.412,76.281,31.725,83.122,24.884L84.711,23.295C87.134,20.873,87.134,16.938,84.711,14.516C82.289,12.093,78.354,12.093,75.932,14.516L74.343,16.105C67.501,22.946,55.815,18.101,55.815,8.43L55.815,6.202ZM52.714,43.412C52.714,48.548,48.548,52.714,43.412,52.714C38.276,52.714,34.109,48.548,34.109,43.412C34.109,38.276,38.276,34.109,43.412,34.109C48.548,34.109,52.714,38.276,52.714,43.412ZM58.916,63.567C56.338,63.567,54.265,61.494,54.265,58.916C54.265,56.338,56.338,54.265,58.916,54.265C61.494,54.265,63.567,56.338,63.567,58.916C63.567,61.494,61.494,63.567,58.916,63.567ZM58.916,63.567"/>
</g>
  <g id="Bold-S" transform="matrix(1.0,0.0,0.0,1.0,2291.6465562823178,611.1565758135679)">  <path xmlns:xlink="http://www.w3.org/1999/xlink" version="1.1" stroke-linecap="butt" fill-opacity="1" stroke-dasharray="none" stroke-width="1px" fill-rule="nonzero" stroke-miterlimit="4" stroke-linejoin="miter" stroke="none" stroke-opacity="1" fill="#000000" d="M55.815,6.202C55.815,2.771,53.044,0,49.613,0C46.183,0,43.412,2.771,43.412,6.202L43.412,8.43C43.412,18.101,31.725,22.946,24.884,16.105L23.295,14.535C20.873,12.113,16.958,12.113,14.535,14.535C12.113,16.958,12.113,20.892,14.535,23.314L16.124,24.904C22.946,31.725,18.101,43.412,8.43,43.412L6.202,43.412C2.771,43.412,0,46.183,0,49.613C0,53.044,2.771,55.815,6.202,55.815L8.43,55.815C18.101,55.815,22.946,67.501,16.105,74.343L14.535,75.932C12.113,78.354,12.113,82.289,14.535,84.711C16.958,87.134,20.892,87.134,23.314,84.711L24.904,83.122C31.745,76.281,43.431,81.126,43.431,90.796L43.431,93.025C43.431,96.456,46.203,99.227,49.633,99.227C53.063,99.227,55.835,96.456,55.835,93.025L55.835,90.796C55.835,81.126,67.521,76.281,74.362,83.122L75.951,84.711C78.374,87.134,82.308,87.134,84.73,84.711C87.153,82.289,87.153,78.354,84.73,75.932L83.141,74.343C76.3,67.501,81.145,55.815,90.816,55.815L93.025,55.815C96.456,55.815,99.227,53.044,99.227,49.613C99.227,46.183,96.456,43.412,93.025,43.412L90.796,43.412C81.126,43.412,76.281,31.725,83.122,24.884L84.711,23.295C87.134,20.873,87.134,16.938,84.711,14.516C82.289,12.093,78.354,12.093,75.932,14.516L74.343,16.105C67.501,22.946,55.815,18.101,55.815,8.43L55.815,6.202ZM52.714,43.412C52.714,48.548,48.548,52.714,43.412,52.714C38.276,52.714,34.109,48.548,34.109,43.412C34.109,38.276,38.276,34.109,43.412,34.109C48.548,34.109,52.714,38.276,52.714,43.412ZM58.916,63.567C56.338,63.567,54.265,61.494,54.265,58.916C54.265,56.338,56.338,54.265,58.916,54.265C61.494,54.265,63.567,56.338,63.567,58.916C63.567,61.494,61.494,63.567,58.916,63.567ZM58.916,63.567"/>
</g>
  <g id="Semibold-S" transform="matrix(1.0,0.0,0.0,1.0,1994.936556282318,611.1565758135679)">  <path version="1.1" xmlns:xlink="http://www.w3.org/1999/xlink" stroke-dasharray="none" fill-rule="nonzero" fill="#000000" fill-opacity="1" stroke-opacity="1" stroke-miterlimit="4" stroke-width="1px" stroke="none" stroke-linecap="butt" stroke-linejoin="miter" d="M55.815,6.202C55.815,2.771,53.044,0,49.613,0C46.183,0,43.412,2.771,43.412,6.202L43.412,8.43C43.412,18.101,31.725,22.946,24.884,16.105L23.295,14.535C20.873,12.113,16.958,12.113,14.535,14.535C12.113,16.958,12.113,20.892,14.535,23.314L16.124,24.904C22.946,31.725,18.101,43.412,8.43,43.412L6.202,43.412C2.771,43.412,0,46.183,0,49.613C0,53.044,2.771,55.815,6.202,55.815L8.43,55.815C18.101,55.815,22.946,67.501,16.105,74.343L14.535,75.932C12.113,78.354,12.113,82.289,14.535,84.711C16.958,87.134,20.892,87.134,23.314,84.711L24.904,83.122C31.745,76.281,43.431,81.126,43.431,90.796L43.431,93.025C43.431,96.456,46.203,99.227,49.633,99.227C53.063,99.227,55.835,96.456,55.835,93.025L55.835,90.796C55.835,81.126,67.521,76.281,74.362,83.122L75.951,84.711C78.374,87.134,82.308,87.134,84.73,84.711C87.153,82.289,87.153,78.354,84.73,75.932L83.141,74.343C76.3,67.501,81.145,55.815,90.816,55.815L93.025,55.815C96.456,55.815,99.227,53.044,99.227,49.613C99.227,46.183,96.456,43.412,93.025,43.412L90.796,43.412C81.126,43.412,76.281,31.725,83.122,24.884L84.711,23.295C87.134,20.873,87.134,16.938,84.711,14.516C82.289,12.093,78.354,12.093,75.932,14.516L74.343,16.105C67.501,22.946,55.815,18.101,55.815,8.43L55.815,6.202ZM52.714,43.412C52.714,48.548,48.548,52.714,43.412,52.714C38.276,52.714,34.109,48.548,34.109,43.412C34.109,38.276,38.276,34.109,43.412,34.109C48.548,34.109,52.714,38.276,52.714,43.412ZM58.916,63.567C56.338,63.567,54.265,61.494,54.265,58.916C54.265,56.338,56.338,54.265,58.916,54.265C61.494,54.265,63.567,56.338,63.567,58.916C63.567,61.494,61.494,63.567,58.916,63.567ZM58.916,63.567"/>
</g>
  <g id="Medium-S" transform="matrix(1.0,0.0,0.0,1.0,1698.226556282318,611.1565758135679)">  <path fill="#000000" fill-rule="nonzero" stroke="none" stroke-linejoin="miter" xmlns:xlink="http://www.w3.org/1999/xlink" stroke-width="1px" stroke-dasharray="none" version="1.1" stroke-miterlimit="4" fill-opacity="1" stroke-linecap="butt" stroke-opacity="1" d="M55.815,6.202C55.815,2.771,53.044,0,49.613,0C46.183,0,43.412,2.771,43.412,6.202L43.412,8.43C43.412,18.101,31.725,22.946,24.884,16.105L23.295,14.535C20.873,12.113,16.958,12.113,14.535,14.535C12.113,16.958,12.113,20.892,14.535,23.314L16.124,24.904C22.946,31.725,18.101,43.412,8.43,43.412L6.202,43.412C2.771,43.412,0,46.183,0,49.613C0,53.044,2.771,55.815,6.202,55.815L8.43,55.815C18.101,55.815,22.946,67.501,16.105,74.343L14.535,75.932C12.113,78.354,12.113,82.289,14.535,84.711C16.958,87.134,20.892,87.134,23.314,84.711L24.904,83.122C31.745,76.281,43.431,81.126,43.431,90.796L43.431,93.025C43.431,96.456,46.203,99.227,49.633,99.227C53.063,99.227,55.835,96.456,55.835,93.025L55.835,90.796C55.835,81.126,67.521,76.281,74.362,83.122L75.951,84.711C78.374,87.134,82.308,87.134,84.73,84.711C87.153,82.289,87.153,78.354,84.73,75.932L83.141,74.343C76.3,67.501,81.145,55.815,90.816,55.815L93.025,55.815C96.456,55.815,99.227,53.044,99.227,49.613C99.227,46.183,96.456,43.412,93.025,43.412L90.796,43.412C81.126,43.412,76.281,31.725,83.122,24.884L84.711,23.295C87.134,20.873,87.134,16.938,84.711,14.516C82.289,12.093,78.354,12.093,75.932,14.516L74.343,16.105C67.501,22.946,55.815,18.101,55.815,8.43L55.815,6.202ZM52.714,43.412C52.714,48.548,48.548,52.714,43.412,52.714C38.276,52.714,34.109,48.548,34.109,43.412C34.109,38.276,38.276,34.109,43.412,34.109C48.548,34.109,52.714,38.276,52.714,43.412ZM58.916,63.567C56.338,63.567,54.265,61.494,54.265,58.916C54.265,56.338,56.338,54.265,58.916,54.265C61.494,54.265,63.567,56.338,63.567,58.916C63.567,61.494,61.494,63.567,58.916,63.567ZM58.916,63.567"/>
</g>
  <g id="Regular-S" transform="matrix(1.0,0.0,0.0,1.0,1401.5165562823179,611.1565758135679)">  <path fill="#000000" stroke-linecap="butt" stroke-linejoin="miter" fill-opacity="1" fill-rule="nonzero" stroke-dasharray="none" stroke-opacity="1" stroke-width="1px" stroke="none" xmlns:xlink="http://www.w3.org/1999/xlink" version="1.1" stroke-miterlimit="4" d="M55.815,6.202C55.815,2.771,53.044,0,49.613,0C46.183,0,43.412,2.771,43.412,6.202L43.412,8.43C43.412,18.101,31.725,22.946,24.884,16.105L23.295,14.535C20.873,12.113,16.958,12.113,14.535,14.535C12.113,16.958,12.113,20.892,14.535,23.314L16.124,24.904C22.946,31.725,18.101,43.412,8.43,43.412L6.202,43.412C2.771,43.412,0,46.183,0,49.613C0,53.044,2.771,55.815,6.202,55.815L8.43,55.815C18.101,55.815,22.946,67.501,16.105,74.343L14.535,75.932C12.113,78.354,12.113,82.289,14.535,84.711C16.958,87.134,20.892,87.134,23.314,84.711L24.904,83.122C31.745,76.281,43.431,81.126,43.431,90.796L43.431,93.025C43.431,96.456,46.203,99.227,49.633,99.227C53.063,99.227,55.835,96.456,55.835,93.025L55.835,90.796C55.835,81.126,67.521,76.281,74.362,83.122L75.951,84.711C78.374,87.134,82.308,87.134,84.73,84.711C87.153,82.289,87.153,78.354,84.73,75.932L83.141,74.343C76.3,67.501,81.145,55.815,90.816,55.815L93.025,55.815C96.456,55.815,99.227,53.044,99.227,49.613C99.227,46.183,96.456,43.412,93.025,43.412L90.796,43.412C81.126,43.412,76.281,31.725,83.122,24.884L84.711,23.295C87.134,20.873,87.134,16.938,84.711,14.516C82.289,12.093,78.354,12.093,75.932,14.516L74.343,16.105C67.501,22.946,55.815,18.101,55.815,8.43L55.815,6.202ZM52.714,43.412C52.714,48.548,48.548,52.714,43.412,52.714C38.276,52.714,34.109,48.548,34.109,43.412C34.109,38.276,38.276,34.109,43.412,34.109C48.548,34.109,52.714,38.276,52.714,43.412ZM58.916,63.567C56.338,63.567,54.265,61.494,54.265,58.916C54.265,56.338,56.338,54.265,58.916,54.265C61.494,54.265,63.567,56.338,63.567,58.916C63.567,61.494,61.494,63.567,58.916,63.567ZM58.916,63.567"/>
</g>
  <g id="Light-S" transform="matrix(1.0,0.0,0.0,1.0,1104.806556282318,611.1565758135679)">  <path version="1.1" fill-rule="nonzero" stroke="none" stroke-opacity="1" stroke-linejoin="miter" stroke-width="1px" stroke-linecap="butt" stroke-dasharray="none" fill-opacity="1" xmlns:xlink="http://www.w3.org/1999/xlink" stroke-miterlimit="4" fill="#000000" d="M55.815,6.202C55.815,2.771,53.044,0,49.613,0C46.183,0,43.412,2.771,43.412,6.202L43.412,8.43C43.412,18.101,31.725,22.946,24.884,16.105L23.295,14.535C20.873,12.113,16.958,12.113,14.535,14.535C12.113,16.958,12.113,20.892,14.535,23.314L16.124,24.904C22.946,31.725,18.101,43.412,8.43,43.412L6.202,43.412C2.771,43.412,0,46.183,0,49.613C0,53.044,2.771,55.815,6.202,55.815L8.43,55.815C18.101,55.815,22.946,67.501,16.105,74.343L14.535,75.932C12.113,78.354,12.113,82.289,14.535,84.711C16.958,87.134,20.892,87.134,23.314,84.711L24.904,83.122C31.745,76.281,43.431,81.126,43.431,90.796L43.431,93.025C43.431,96.456,46.203,99.227,49.633,99.227C53.063,99.227,55.835,96.456,55.835,93.025L55.835,90.796C55.835,81.126,67.521,76.281,74.362,83.122L75.951,84.711C78.374,87.134,82.308,87.134,84.73,84.711C87.153,82.289,87.153,78.354,84.73,75.932L83.141,74.343C76.3,67.501,81.145,55.815,90.816,55.815L93.025,55.815C96.456,55.815,99.227,53.044,99.227,49.613C99.227,46.183,96.456,43.412,93.025,43.412L90.796,43.412C81.126,43.412,76.281,31.725,83.122,24.884L84.711,23.295C87.134,20.873,87.134,16.938,84.711,14.516C82.289,12.093,78.354,12.093,75.932,14.516L74.343,16.105C67.501,22.946,55.815,18.101,55.815,8.43L55.815,6.202ZM52.714,43.412C52.714,48.548,48.548,52.714,43.412,52.714C38.276,52.714,34.109,48.548,34.109,43.412C34.109,38.276,38.276,34.109,43.412,34.109C48.548,34.109,52.714,38.276,52.714,43.412ZM58.916,63.567C56.338,63.567,54.265,61.494,54.265,58.916C54.265,56.338,56.338,54.265,58.916,54.265C61.494,54.265,63.567,56.338,63.567,58.916C63.567,61.494,61.494,63.567,58.916,63.567ZM58.916,63.567"/>
</g>
  <g id="Thin-S" transform="matrix(1.0,0.0,0.0,1.0,808.0965562823179,611.1565758135679)">  <path stroke-width="1px" stroke-opacity="1" stroke="none" fill-rule="nonzero" stroke-dasharray="none" stroke-miterlimit="4" xmlns:xlink="http://www.w3.org/1999/xlink" stroke-linecap="butt" fill-opacity="1" version="1.1" stroke-linejoin="miter" fill="#000000" d="M55.815,6.202C55.815,2.771,53.044,0,49.613,0C46.183,0,43.412,2.771,43.412,6.202L43.412,8.43C43.412,18.101,31.725,22.946,24.884,16.105L23.295,14.535C20.873,12.113,16.958,12.113,14.535,14.535C12.113,16.958,12.113,20.892,14.535,23.314L16.124,24.904C22.946,31.725,18.101,43.412,8.43,43.412L6.202,43.412C2.771,43.412,0,46.183,0,49.613C0,53.044,2.771,55.815,6.202,55.815L8.43,55.815C18.101,55.815,22.946,67.501,16.105,74.343L14.535,75.932C12.113,78.354,12.113,82.289,14.535,84.711C16.958,87.134,20.892,87.134,23.314,84.711L24.904,83.122C31.745,76.281,43.431,81.126,43.431,90.796L43.431,93.025C43.431,96.456,46.203,99.227,49.633,99.227C53.063,99.227,55.835,96.456,55.835,93.025L55.835,90.796C55.835,81.126,67.521,76.281,74.362,83.122L75.951,84.711C78.374,87.134,82.308,87.134,84.73,84.711C87.153,82.289,87.153,78.354,84.73,75.932L83.141,74.343C76.3,67.501,81.145,55.815,90.816,55.815L93.025,55.815C96.456,55.815,99.227,53.044,99.227,49.613C99.227,46.183,96.456,43.412,93.025,43.412L90.796,43.412C81.126,43.412,76.281,31.725,83.122,24.884L84.711,23.295C87.134,20.873,87.134,16.938,84.711,14.516C82.289,12.093,78.354,12.093,75.932,14.516L74.343,16.105C67.501,22.946,55.815,18.101,55.815,8.43L55.815,6.202ZM52.714,43.412C52.714,48.548,48.548,52.714,43.412,52.714C38.276,52.714,34.109,48.548,34.109,43.412C34.109,38.276,38.276,34.109,43.412,34.109C48.548,34.109,52.714,38.276,52.714,43.412ZM58.916,63.567C56.338,63.567,54.265,61.494,54.265,58.916C54.265,56.338,56.338,54.265,58.916,54.265C61.494,54.265,63.567,56.338,63.567,58.916C63.567,61.494,61.494,63.567,58.916,63.567ZM58.916,63.567"/>
</g>
  <g id="Ultralight-S" transform="matrix(1.0,0.0,0.0,1.0,511.3865562823179,611.1565758135679)">  <path version="1.1" fill-rule="nonzero" fill="#000000" xmlns:xlink="http://www.w3.org/1999/xlink" stroke-width="1px" stroke-linejoin="miter" fill-opacity="1" stroke-miterlimit="4" stroke-opacity="1" stroke-dasharray="none" stroke-linecap="butt" stroke="none" d="M55.815,6.202C55.815,2.771,53.044,0,49.613,0C46.183,0,43.412,2.771,43.412,6.202L43.412,8.43C43.412,18.101,31.725,22.946,24.884,16.105L23.295,14.535C20.873,12.113,16.958,12.113,14.535,14.535C12.113,16.958,12.113,20.892,14.535,23.314L16.124,24.904C22.946,31.725,18.101,43.412,8.43,43.412L6.202,43.412C2.771,43.412,0,46.183,0,49.613C0,53.044,2.771,55.815,6.202,55.815L8.43,55.815C18.101,55.815,22.946,67.501,16.105,74.343L14.535,75.932C12.113,78.354,12.113,82.289,14.535,84.711C16.958,87.134,20.892,87.134,23.314,84.711L24.904,83.122C31.745,76.281,43.431,81.126,43.431,90.796L43.431,93.025C43.431,96.456,46.203,99.227,49.633,99.227C53.063,99.227,55.835,96.456,55.835,93.025L55.835,90.796C55.835,81.126,67.521,76.281,74.362,83.122L75.951,84.711C78.374,87.134,82.308,87.134,84.73,84.711C87.153,82.289,87.153,78.354,84.73,75.932L83.141,74.343C76.3,67.501,81.145,55.815,90.816,55.815L93.025,55.815C96.456,55.815,99.227,53.044,99.227,49.613C99.227,46.183,96.456,43.412,93.025,43.412L90.796,43.412C81.126,43.412,76.281,31.725,83.122,24.884L84.711,23.295C87.134,20.873,87.134,16.938,84.711,14.516C82.289,12.093,78.354,12.093,75.932,14.516L74.343,16.105C67.501,22.946,55.815,18.101,55.815,8.43L55.815,6.202ZM52.714,43.412C52.714,48.548,48.548,52.714,43.412,52.714C38.276,52.714,34.109,48.548,34.109,43.412C34.109,38.276,38.276,34.109,43.412,34.109C48.548,34.109,52.714,38.276,52.714,43.412ZM58.916,63.567C56.338,63.567,54.265,61.494,54.265,58.916C54.265,56.338,56.338,54.265,58.916,54.265C61.494,54.265,63.567,56.338,63.567,58.916C63.567,61.494,61.494,63.567,58.916,63.567ZM58.916,63.567"/>
</g>
 </g>
</svg>
