<?xml version="1.0" encoding="UTF-8"?>
<!-- Generator: CustomSymbols v2.7.2.48 by @serious_bret https://bretlester.com/app_content/CustomSymbols/ -->
<!-- Guides: Left/Right 0.11/0.11 Cap/Base 0.222/0.222 -->
<!-- Settings: RefScale 1.0 Min/Max Stroke Scales 0.5/2.21 -->
<!DOCTYPE svg
PUBLIC "-//W3C//DTD SVG 1.1//EN"
       "http://www.w3.org/Graphics/SVG/1.1/DTD/svg11.dtd">
<svg version="1.1" xmlns="http://www.w3.org/2000/svg" xmlns:xlink="http://www.w3.org/1999/xlink" width="3300" height="2200">
<![CDATA[<?xml version="1.0" encoding="UTF-8"?>
<svg width="96px" height="96px" viewBox="0 0 96 96" version="1.1" xmlns="http://www.w3.org/2000/svg" xmlns:xlink="http://www.w3.org/1999/xlink">
    <title>icon/medical/person-walking</title>
    <g id="icon/medical/person-walking" stroke="none" stroke-width="1" fill="none" fill-rule="evenodd">
        <path d="M66.0165167,9.00043947 C66.0165167,13.9694321 61.9850607,18.0008789 57.0160567,18.0008789 C52.0470527,18.0008789 48.0155967,13.9694321 48.0155967,9.00043947 C48.0155967,4.03144685 52.0470527,0 57.0160567,0 C61.9850607,0 66.0165167,4.03144685 66.0165167,9.00043947 Z M41.7340256,37.3705747 C41.546516,37.4455784 41.3777574,37.5205821 41.1902478,37.5955857 L39.6901711,38.2518678 C36.615014,39.6206846 34.2523932,42.2270619 33.1835886,45.4147175 L32.6960636,46.8772889 C31.64601,50.0274427 28.2520865,51.7150251 25.1019255,50.6649739 C21.9517645,49.6149226 20.2641782,46.2210069 21.3142319,43.0708531 L21.8017568,41.6082817 C23.9393661,35.2142194 28.6646076,30.0014649 34.8149219,27.2638312 L36.3149986,26.6075492 C40.215198,24.882465 44.4341636,23.982421 48.7093821,23.982421 C57.0723096,23.982421 64.6101948,29.0076664 67.8166087,36.7142927 L70.7042563,43.6333805 L74.7169614,45.6397285 C77.6796128,47.1210508 78.8796742,50.7212266 77.3983485,53.6838713 C75.9170228,56.6465159 72.3168387,57.8465745 69.3541873,56.3652522 L64.3289305,53.8713804 C62.3975817,52.8963328 60.8787541,51.2837541 60.053712,49.2774061 L58.2536199,44.9646955 L54.634685,57.2465452 L63.9164094,67.3720397 C64.9289611,68.4783437 65.6414976,69.8096587 66.0165167,71.2722301 L70.3292372,88.5418233 C71.1355284,91.7482299 69.1854287,95.0108892 65.9602638,95.8171786 C62.735099,96.6234679 59.4911832,94.6733727 58.684892,91.4482152 L54.5596811,74.9286586 L41.3027536,60.4717027 C38.5276117,57.4528053 37.496309,53.2338493 38.5463627,49.2774061 L41.7152746,37.3705747 L41.7340256,37.3705747 Z M30.8959716,74.628644 L35.5837112,62.9280727 C35.9774814,63.4906001 36.4275044,64.0156258 36.8962783,64.5406514 L44.5279184,72.8660579 L41.8090294,79.6538894 C41.3590064,80.7789443 40.6839719,81.8102446 39.8214278,82.6727868 L28.2520865,94.2421017 C25.9082167,96.5859661 22.1017721,96.5859661 19.7579023,94.2421017 C17.4140326,91.8982372 17.4140326,88.0918014 19.7579023,85.7479369 L30.8959716,74.628644 Z" id="Shape" fill="#FB4C6C" fill-rule="nonzero"></path>
    </g>
</svg>]]>
 <g id="Notes">
  <rect height="2200" id="artboard" style="fill:white;opacity:1" width="3300" x="0" y="0"/>
  <line id="" style="fill:none;stroke:black;opacity:1;stroke-width:0.5;" x1="263" x2="3036" y1="292" y2="292"/>
  <text id="reftext1" style="stroke:none;fill:black;font-family:-apple-system,&quot;SF Pro Display&quot;,&quot;SF Pro Text&quot;,Helvetica,sans-serif;font-weight:bold;" transform="matrix(1 0 0 1 263 322)">Weight/Scale Variations</text>
  <text id="reftext2" style="stroke:none;fill:black;font-family:-apple-system,&quot;SF Pro Display&quot;,&quot;SF Pro Text&quot;,Helvetica,sans-serif;text-anchor:middle;" transform="matrix(1 0 0 1 559.711 322)">Ultralight</text>
  <text style="stroke:none;fill:black;font-family:-apple-system,&quot;SF Pro Display&quot;,&quot;SF Pro Text&quot;,Helvetica,sans-serif;text-anchor:middle;" transform="matrix(1 0 0 1 856.422 322)">Thin</text>
  <text style="stroke:none;fill:black;font-family:-apple-system,&quot;SF Pro Display&quot;,&quot;SF Pro Text&quot;,Helvetica,sans-serif;text-anchor:middle;" transform="matrix(1 0 0 1 1153.13 322)">Light</text>
  <text style="stroke:none;fill:black;font-family:-apple-system,&quot;SF Pro Display&quot;,&quot;SF Pro Text&quot;,Helvetica,sans-serif;text-anchor:middle;" transform="matrix(1 0 0 1 1449.84 322)">Regular</text>
  <text style="stroke:none;fill:black;font-family:-apple-system,&quot;SF Pro Display&quot;,&quot;SF Pro Text&quot;,Helvetica,sans-serif;text-anchor:middle;" transform="matrix(1 0 0 1 1746.56 322)">Medium</text>
  <text style="stroke:none;fill:black;font-family:-apple-system,&quot;SF Pro Display&quot;,&quot;SF Pro Text&quot;,Helvetica,sans-serif;text-anchor:middle;" transform="matrix(1 0 0 1 2043.27 322)">Semibold</text>
  <text style="stroke:none;fill:black;font-family:-apple-system,&quot;SF Pro Display&quot;,&quot;SF Pro Text&quot;,Helvetica,sans-serif;text-anchor:middle;" transform="matrix(1 0 0 1 2339.98 322)">Bold</text>
  <text style="stroke:none;fill:black;font-family:-apple-system,&quot;SF Pro Display&quot;,&quot;SF Pro Text&quot;,Helvetica,sans-serif;text-anchor:middle;" transform="matrix(1 0 0 1 2636.69 322)">Heavy</text>
  <text style="stroke:none;fill:black;font-family:-apple-system,&quot;SF Pro Display&quot;,&quot;SF Pro Text&quot;,Helvetica,sans-serif;text-anchor:middle;" transform="matrix(1 0 0 1 2933.4 322)">Black</text>
  <line id="" style="fill:none;stroke:black;opacity:1;stroke-width:0.5;" x1="263" x2="3036" y1="1903" y2="1903"/>
  <g id="" transform="matrix(1 0 0 1 263 1933)">
   <path d="M9.24805 0.830078C13.5547 0.830078 17.1387-2.74414 17.1387-7.05078C17.1387-11.3574 13.5449-14.9316 9.23828-14.9316C4.94141-14.9316 1.36719-11.3574 1.36719-7.05078C1.36719-2.74414 4.95117 0.830078 9.24805 0.830078ZM9.24805-0.654297C5.70312-0.654297 2.87109-3.49609 2.87109-7.05078C2.87109-10.6055 5.69336-13.4473 9.23828-13.4473C12.793-13.4473 15.6348-10.6055 15.6445-7.05078C15.6543-3.49609 12.8027-0.654297 9.24805-0.654297ZM6.39648-6.31836L8.50586-6.31836L8.50586-4.19922C8.50586-3.75977 8.79883-3.45703 9.22852-3.45703C9.67773-3.45703 9.9707-3.75977 9.9707-4.19922L9.9707-6.31836L12.0996-6.31836C12.5391-6.31836 12.8418-6.61133 12.8418-7.04102C12.8418-7.48047 12.5391-7.7832 12.0996-7.7832L9.9707-7.7832L9.9707-9.89258C9.9707-10.3418 9.67773-10.6445 9.22852-10.6445C8.79883-10.6445 8.50586-10.3418 8.50586-9.89258L8.50586-7.7832L6.39648-7.7832C5.94727-7.7832 5.64453-7.48047 5.64453-7.04102C5.64453-6.61133 5.94727-6.31836 6.39648-6.31836Z"/>
  </g>
  <g id="" transform="matrix(1 0 0 1 281.506 1933)">
   <path d="M11.709 2.91016C17.1582 2.91016 21.6699-1.61133 21.6699-7.05078C21.6699-12.5 17.1484-17.0117 11.6992-17.0117C6.25977-17.0117 1.74805-12.5 1.74805-7.05078C1.74805-1.61133 6.26953 2.91016 11.709 2.91016ZM11.709 1.25C7.09961 1.25 3.41797-2.44141 3.41797-7.05078C3.41797-11.6602 7.08984-15.3516 11.6992-15.3516C16.3086-15.3516 20-11.6602 20.0098-7.05078C20.0195-2.44141 16.3184 1.25 11.709 1.25ZM7.98828-6.23047L10.8789-6.23047L10.8789-3.32031C10.8789-2.83203 11.2109-2.5 11.6895-2.5C12.1777-2.5 12.5195-2.83203 12.5195-3.32031L12.5195-6.23047L15.4297-6.23047C15.918-6.23047 16.25-6.5625 16.25-7.04102C16.25-7.5293 15.918-7.87109 15.4297-7.87109L12.5195-7.87109L12.5195-10.7617C12.5195-11.2695 12.1777-11.6016 11.6895-11.6016C11.2109-11.6016 10.8789-11.2598 10.8789-10.7617L10.8789-7.87109L7.98828-7.87109C7.48047-7.87109 7.14844-7.5293 7.14844-7.04102C7.14844-6.5625 7.49023-6.23047 7.98828-6.23047Z"/>
  </g>
  <g id="" transform="matrix(1 0 0 1 304.924 1933)">
   <path d="M14.9707 5.66406C21.9336 5.66406 27.6953-0.0976562 27.6953-7.05078C27.6953-14.0137 21.9238-19.7754 14.9609-19.7754C8.00781-19.7754 2.25586-14.0137 2.25586-7.05078C2.25586-0.0976562 8.01758 5.66406 14.9707 5.66406ZM14.9707 3.84766C8.93555 3.84766 4.08203-1.01562 4.08203-7.05078C4.08203-13.0957 8.92578-17.9492 14.9609-17.9492C21.0059-17.9492 25.8594-13.0957 25.8691-7.05078C25.8789-1.01562 21.0156 3.84766 14.9707 3.84766ZM10.0586-6.14258L14.0625-6.14258L14.0625-2.12891C14.0625-1.5918 14.4336-1.2207 14.9512-1.2207C15.4883-1.2207 15.8594-1.5918 15.8594-2.12891L15.8594-6.14258L19.8828-6.14258C20.4102-6.14258 20.791-6.51367 20.791-7.03125C20.791-7.56836 20.4199-7.94922 19.8828-7.94922L15.8594-7.94922L15.8594-11.9531C15.8594-12.5098 15.4883-12.8809 14.9512-12.8809C14.4336-12.8809 14.0625-12.5 14.0625-11.9531L14.0625-7.94922L10.0586-7.94922C9.50195-7.94922 9.13086-7.56836 9.13086-7.03125C9.13086-6.51367 9.51172-6.14258 10.0586-6.14258Z"/>
  </g>
  <text style="stroke:none;fill:black;font-family:-apple-system,&quot;SF Pro Display&quot;,&quot;SF Pro Text&quot;,Helvetica,sans-serif;font-weight:bold;" transform="matrix(1 0 0 1 263 1953)">Design Variations</text>
  <text style="stroke:none;fill:black;font-family:-apple-system,&quot;SF Pro Display&quot;,&quot;SF Pro Text&quot;,Helvetica,sans-serif;" transform="matrix(1 0 0 1 263 1971)">Symbols are supported in up to nine weights and three scales.</text>
  <text style="stroke:none;fill:black;font-family:-apple-system,&quot;SF Pro Display&quot;,&quot;SF Pro Text&quot;,Helvetica,sans-serif;" transform="matrix(1 0 0 1 263 1989)">For optimal layout with text and other symbols, vertically align</text>
  <text style="stroke:none;fill:black;font-family:-apple-system,&quot;SF Pro Display&quot;,&quot;SF Pro Text&quot;,Helvetica,sans-serif;" transform="matrix(1 0 0 1 263 2007)">symbols with the adjacent text.</text>
  <line id="" style="fill:none;stroke:#00AEEF;stroke-width:0.5;opacity:1.0;" x1="776" x2="776" y1="1919" y2="1933"/>
  <g id="" transform="matrix(1 0 0 1 776 1933)">
   <path d="M3.31055 0.126953C3.82812 0.126953 4.08203-0.0683594 4.26758-0.605469L5.52734-4.0625L11.2891-4.0625L12.5488-0.605469C12.7344-0.0683594 12.9883 0.126953 13.4961 0.126953C14.0137 0.126953 14.3457-0.185547 14.3457-0.673828C14.3457-0.839844 14.3164-0.986328 14.2383-1.20117L9.6582-13.3887C9.43359-13.9941 9.0332-14.2871 8.4082-14.2871C7.80273-14.2871 7.39258-13.9941 7.17773-13.3984L2.59766-1.19141C2.51953-0.976562 2.49023-0.830078 2.49023-0.664062C2.49023-0.175781 2.80273 0.126953 3.31055 0.126953ZM6.00586-5.53711L8.37891-12.1094L8.42773-12.1094L10.8008-5.53711Z"/>
  </g>
  <line id="" style="fill:none;stroke:#00AEEF;stroke-width:0.5;opacity:1.0;" x1="792.836" x2="792.836" y1="1919" y2="1933"/>
  <text style="stroke:none;fill:black;font-family:-apple-system,&quot;SF Pro Display&quot;,&quot;SF Pro Text&quot;,Helvetica,sans-serif;font-weight:bold;" transform="matrix(1 0 0 1 776 1953)">Margins</text>
  <text style="stroke:none;fill:black;font-family:-apple-system,&quot;SF Pro Display&quot;,&quot;SF Pro Text&quot;,Helvetica,sans-serif;" transform="matrix(1 0 0 1 776 1971)">Leading and trailing margins on the left and right side of each symbol</text>
  <text style="stroke:none;fill:black;font-family:-apple-system,&quot;SF Pro Display&quot;,&quot;SF Pro Text&quot;,Helvetica,sans-serif;" transform="matrix(1 0 0 1 776 1989)">can be adjusted by modifying the x-location of the margin guidelines.</text>
  <text style="stroke:none;fill:black;font-family:-apple-system,&quot;SF Pro Display&quot;,&quot;SF Pro Text&quot;,Helvetica,sans-serif;" transform="matrix(1 0 0 1 776 2007)">Modifications are automatically applied proportionally to all</text>
  <text style="stroke:none;fill:black;font-family:-apple-system,&quot;SF Pro Display&quot;,&quot;SF Pro Text&quot;,Helvetica,sans-serif;" transform="matrix(1 0 0 1 776 2025)">scales and weights.</text>
  <g id="" transform="matrix(1 0 0 1 1289 1933)">
   <path d="M2.8418 1.86523L4.54102 3.57422C5.40039 4.44336 6.38672 4.38477 7.31445 3.35938L17.4902-7.85156C17.7539-7.76367 18.0273-7.7832 18.3398-7.8418L19.4043-8.03711L20.0684-7.36328L20.0293-6.80664C19.9902-6.30859 20.1172-5.92773 20.6055-5.44922L21.3672-4.70703C21.8457-4.22852 22.4609-4.19922 22.9297-4.66797L25.8398-7.58789C26.3086-8.05664 26.2891-8.65234 25.8105-9.13086L25.0391-9.89258C24.5605-10.3711 24.1895-10.5273 23.7109-10.4883L23.1348-10.4395L22.4902-11.0742L22.7344-12.1973C22.8613-12.7637 22.7051-13.2031 22.1191-13.7891L19.9219-15.9766C16.582-19.2969 12.1484-19.2188 9.25781-16.3281C8.83789-15.918 8.80859-15.3418 9.04297-14.9512C9.27734-14.5898 9.73633-14.3555 10.3809-14.5215C11.8457-14.8633 13.3691-14.9219 14.7949-13.9844L14.209-12.5293C14.0137-12.0508 13.9844-11.6504 14.1113-11.2891L3.04688-0.898438C2.06055 0.0195312 1.98242 0.996094 2.8418 1.86523ZM10.752-15.957C13.1836-17.7344 16.4746-17.4316 18.7012-15.2051L21.1328-12.793C21.3672-12.5586 21.4062-12.373 21.3379-12.0312L21.0156-10.5469L22.5195-9.0625L23.5059-9.12109C23.7598-9.13086 23.8379-9.11133 24.0332-8.91602L24.6094-8.33984L22.168-5.89844L21.5918-6.47461C21.3965-6.66992 21.3672-6.74805 21.377-7.01172L21.4453-7.98828L19.9512-9.47266L18.4277-9.21875C18.1055-9.15039 17.959-9.17969 17.7148-9.41406L15.7129-11.416C15.459-11.6504 15.4297-11.8164 15.5859-12.1875L16.4648-14.2773C14.9023-15.7324 12.8711-16.3574 10.8398-15.7617C10.6836-15.7227 10.625-15.8496 10.752-15.957ZM5.27344 2.30469L4.10156 1.14258C3.63281 0.683594 3.74023 0.341797 4.14062-0.0195312L14.9512-10.1953L16.416-8.71094L6.42578 2.27539C6.07422 2.67578 5.74219 2.77344 5.27344 2.30469Z"/>
  </g>
  <text style="stroke:none;fill:black;font-family:-apple-system,&quot;SF Pro Display&quot;,&quot;SF Pro Text&quot;,Helvetica,sans-serif;font-weight:bold;" transform="matrix(1 0 0 1 1289 1953)">Exporting</text>
  <text style="stroke:none;fill:black;font-family:-apple-system,&quot;SF Pro Display&quot;,&quot;SF Pro Text&quot;,Helvetica,sans-serif;" transform="matrix(1 0 0 1 1289 1971)">Symbols should be outlined when exporting to ensure the</text>
  <text style="stroke:none;fill:black;font-family:-apple-system,&quot;SF Pro Display&quot;,&quot;SF Pro Text&quot;,Helvetica,sans-serif;" transform="matrix(1 0 0 1 1289 1989)">design is preserved when submitting to Xcode.</text>
  <text id="template-version" style="stroke:none;fill:black;font-family:-apple-system,&quot;SF Pro Display&quot;,&quot;SF Pro Text&quot;,Helvetica,sans-serif;text-anchor:end;" transform="matrix(1 0 0 1 3036 1933)">Template v.2.0</text>
  <text style="stroke:none;fill:black;font-family:-apple-system,&quot;SF Pro Display&quot;,&quot;SF Pro Text&quot;,Helvetica,sans-serif;text-anchor:end;" transform="matrix(1 0 0 1 3036 1951)">Requires Xcode 12 or greater</text>
  <text style="stroke:none;fill:black;font-family:-apple-system,&quot;SF Pro Display&quot;,&quot;SF Pro Text&quot;,Helvetica,sans-serif;" transform="matrix(1 0 0 1 263 726)">Small</text>
  <text style="stroke:none;fill:black;font-family:-apple-system,&quot;SF Pro Display&quot;,&quot;SF Pro Text&quot;,Helvetica,sans-serif;" transform="matrix(1 0 0 1 263 1156)">Medium</text>
  <text style="stroke:none;fill:black;font-family:-apple-system,&quot;SF Pro Display&quot;,&quot;SF Pro Text&quot;,Helvetica,sans-serif;" transform="matrix(1 0 0 1 263 1586)">Large</text>
 </g>
 <g id="Guides">
  <g id="H-reference" style="fill:#27AAE1;stroke:none;" transform="matrix(1 0 0 1 339 696)">
   <path d="M0.976562 0L3.66211 0L12.9883-24.4629L45.752-24.4629L55.127 0L57.7637 0L30.6152-70.459L28.125-70.459ZM29.3457-67.1387L29.4434-67.1387L44.873-26.709L13.8672-26.709Z"/>
  </g>
  <line id="Baseline-S" style="fill:none;stroke:#27AAE1;opacity:1;stroke-width:0.5;" x1="263" x2="3036" y1="696" y2="696"/>
  <line id="Capline-S" style="fill:none;stroke:#27AAE1;opacity:1;stroke-width:0.5;" x1="263" x2="3036" y1="625.541" y2="625.541"/>
  <g id="H-reference" style="fill:#27AAE1;stroke:none;" transform="matrix(1 0 0 1 339 1126)">
   <path d="M0.976562 0L3.66211 0L12.9883-24.4629L45.752-24.4629L55.127 0L57.7637 0L30.6152-70.459L28.125-70.459ZM29.3457-67.1387L29.4434-67.1387L44.873-26.709L13.8672-26.709Z"/>
  </g>
  <line id="Baseline-M" style="fill:none;stroke:#27AAE1;opacity:1;stroke-width:0.5;" x1="263" x2="3036" y1="1126" y2="1126"/>
  <line id="Capline-M" style="fill:none;stroke:#27AAE1;opacity:1;stroke-width:0.5;" x1="263" x2="3036" y1="1055.54" y2="1055.54"/>
  <g id="H-reference" style="fill:#27AAE1;stroke:none;" transform="matrix(1 0 0 1 339 1556)">
   <path d="M0.976562 0L3.66211 0L12.9883-24.4629L45.752-24.4629L55.127 0L57.7637 0L30.6152-70.459L28.125-70.459ZM29.3457-67.1387L29.4434-67.1387L44.873-26.709L13.8672-26.709Z"/>
  </g>
  <line id="Baseline-L" style="fill:none;stroke:#27AAE1;opacity:1;stroke-width:0.5;" x1="263" x2="3036" y1="1556" y2="1556"/>
  <line id="Capline-L" style="fill:none;stroke:#27AAE1;opacity:1;stroke-width:0.5;" x1="263" x2="3036" y1="1485.54" y2="1485.54"/>
  <line id="left-margin" x1="1401.7066461049908" x2="1401.7066461049908" y1="1030.79" y2="1150.12" style="fill:none;stroke:#00AEEF;stroke-width:0.5;opacity:1.0;"/>
  <line id="right-margin" x1="1500.553353895009" x2="1500.553353895009" y1="1030.79" y2="1150.12" style="fill:none;stroke:#00AEEF;stroke-width:0.5;opacity:1.0;"/>
 </g>
 <g id="Symbols">
  <g id="Black-L" transform="matrix(1.0,0.0,0.0,1.0,2852.941376250562,1439.031395781812)">  <path stroke-linecap="butt" stroke-opacity="1" stroke-dasharray="none" fill-rule="nonzero" fill-opacity="1" xmlns:xlink="http://www.w3.org/1999/xlink" stroke="none" version="1.1" stroke-linejoin="miter" stroke-width="1px" fill="#000000" stroke-miterlimit="4" d="M112.419,15.327C112.419,23.788,105.554,30.653,97.092,30.653C88.63,30.653,81.765,23.788,81.765,15.327C81.765,6.865,88.63,0,97.092,0C105.554,0,112.419,6.865,112.419,15.327ZM71.068,63.638C70.749,63.766,70.462,63.893,70.142,64.021L67.588,65.139C62.351,67.47,58.328,71.908,56.508,77.336L55.678,79.827C53.89,85.191,48.11,88.065,42.746,86.277C37.381,84.489,34.508,78.709,36.296,73.345L37.126,70.854C40.766,59.966,48.813,51.089,59.286,46.427L61.84,45.31C68.482,42.372,75.666,40.839,82.947,40.839C97.188,40.839,110.024,49.397,115.484,62.52L120.401,74.303L127.235,77.719C132.28,80.242,134.323,86.373,131.801,91.418C129.278,96.463,123.147,98.506,118.102,95.984L109.545,91.737C106.256,90.077,103.67,87.33,102.265,83.914L99.199,76.57L93.037,97.484L108.842,114.727C110.567,116.611,111.78,118.878,112.419,121.369L119.763,150.777C121.136,156.237,117.815,161.793,112.323,163.166C106.831,164.539,101.307,161.218,99.934,155.726L92.909,127.595L70.334,102.977C65.608,97.836,63.852,90.651,65.64,83.914L71.036,63.638L71.068,63.638ZM52.612,127.084L60.595,107.159C61.266,108.117,62.032,109.011,62.83,109.905L75.826,124.083L71.196,135.642C70.43,137.557,69.28,139.314,67.811,140.783L48.11,160.484C44.119,164.475,37.637,164.475,33.645,160.484C29.654,156.492,29.654,150.01,33.645,146.019L52.612,127.084ZM52.612,127.084"/>
</g>
  <g id="Heavy-L" transform="matrix(1.0,0.0,0.0,1.0,2556.231376250562,1439.031395781812)">  <path stroke-linecap="butt" stroke-width="1px" fill-opacity="1" stroke-opacity="1" stroke-miterlimit="4" stroke="none" fill-rule="nonzero" stroke-linejoin="miter" version="1.1" fill="#000000" xmlns:xlink="http://www.w3.org/1999/xlink" stroke-dasharray="none" d="M112.419,15.327C112.419,23.788,105.554,30.653,97.092,30.653C88.63,30.653,81.765,23.788,81.765,15.327C81.765,6.865,88.63,0,97.092,0C105.554,0,112.419,6.865,112.419,15.327ZM71.068,63.638C70.749,63.766,70.462,63.893,70.142,64.021L67.588,65.139C62.351,67.47,58.328,71.908,56.508,77.336L55.678,79.827C53.89,85.191,48.11,88.065,42.746,86.277C37.381,84.489,34.508,78.709,36.296,73.345L37.126,70.854C40.766,59.966,48.813,51.089,59.286,46.427L61.84,45.31C68.482,42.372,75.666,40.839,82.947,40.839C97.188,40.839,110.024,49.397,115.484,62.52L120.401,74.303L127.235,77.719C132.28,80.242,134.323,86.373,131.801,91.418C129.278,96.463,123.147,98.506,118.102,95.984L109.545,91.737C106.256,90.077,103.67,87.33,102.265,83.914L99.199,76.57L93.037,97.484L108.842,114.727C110.567,116.611,111.78,118.878,112.419,121.369L119.763,150.777C121.136,156.237,117.815,161.793,112.323,163.166C106.831,164.539,101.307,161.218,99.934,155.726L92.909,127.595L70.334,102.977C65.608,97.836,63.852,90.651,65.64,83.914L71.036,63.638L71.068,63.638ZM52.612,127.084L60.595,107.159C61.266,108.117,62.032,109.011,62.83,109.905L75.826,124.083L71.196,135.642C70.43,137.557,69.28,139.314,67.811,140.783L48.11,160.484C44.119,164.475,37.637,164.475,33.645,160.484C29.654,156.492,29.654,150.01,33.645,146.019L52.612,127.084ZM52.612,127.084"/>
</g>
  <g id="Bold-L" transform="matrix(1.0,0.0,0.0,1.0,2259.521376250562,1439.031395781812)">  <path fill-rule="nonzero" xmlns:xlink="http://www.w3.org/1999/xlink" stroke-dasharray="none" stroke-width="1px" stroke-miterlimit="4" fill="#000000" version="1.1" stroke-linecap="butt" stroke-linejoin="miter" stroke-opacity="1" stroke="none" fill-opacity="1" d="M112.419,15.327C112.419,23.788,105.554,30.653,97.092,30.653C88.63,30.653,81.765,23.788,81.765,15.327C81.765,6.865,88.63,0,97.092,0C105.554,0,112.419,6.865,112.419,15.327ZM71.068,63.638C70.749,63.766,70.462,63.893,70.142,64.021L67.588,65.139C62.351,67.47,58.328,71.908,56.508,77.336L55.678,79.827C53.89,85.191,48.11,88.065,42.746,86.277C37.381,84.489,34.508,78.709,36.296,73.345L37.126,70.854C40.766,59.966,48.813,51.089,59.286,46.427L61.84,45.31C68.482,42.372,75.666,40.839,82.947,40.839C97.188,40.839,110.024,49.397,115.484,62.52L120.401,74.303L127.235,77.719C132.28,80.242,134.323,86.373,131.801,91.418C129.278,96.463,123.147,98.506,118.102,95.984L109.545,91.737C106.256,90.077,103.67,87.33,102.265,83.914L99.199,76.57L93.037,97.484L108.842,114.727C110.567,116.611,111.78,118.878,112.419,121.369L119.763,150.777C121.136,156.237,117.815,161.793,112.323,163.166C106.831,164.539,101.307,161.218,99.934,155.726L92.909,127.595L70.334,102.977C65.608,97.836,63.852,90.651,65.64,83.914L71.036,63.638L71.068,63.638ZM52.612,127.084L60.595,107.159C61.266,108.117,62.032,109.011,62.83,109.905L75.826,124.083L71.196,135.642C70.43,137.557,69.28,139.314,67.811,140.783L48.11,160.484C44.119,164.475,37.637,164.475,33.645,160.484C29.654,156.492,29.654,150.01,33.645,146.019L52.612,127.084ZM52.612,127.084"/>
</g>
  <g id="Semibold-L" transform="matrix(1.0,0.0,0.0,1.0,1962.811376250562,1439.031395781812)">  <path stroke-opacity="1" fill-opacity="1" stroke="none" xmlns:xlink="http://www.w3.org/1999/xlink" stroke-width="1px" stroke-miterlimit="4" fill-rule="nonzero" stroke-dasharray="none" stroke-linejoin="miter" fill="#000000" version="1.1" stroke-linecap="butt" d="M112.419,15.327C112.419,23.788,105.554,30.653,97.092,30.653C88.63,30.653,81.765,23.788,81.765,15.327C81.765,6.865,88.63,0,97.092,0C105.554,0,112.419,6.865,112.419,15.327ZM71.068,63.638C70.749,63.766,70.462,63.893,70.142,64.021L67.588,65.139C62.351,67.47,58.328,71.908,56.508,77.336L55.678,79.827C53.89,85.191,48.11,88.065,42.746,86.277C37.381,84.489,34.508,78.709,36.296,73.345L37.126,70.854C40.766,59.966,48.813,51.089,59.286,46.427L61.84,45.31C68.482,42.372,75.666,40.839,82.947,40.839C97.188,40.839,110.024,49.397,115.484,62.52L120.401,74.303L127.235,77.719C132.28,80.242,134.323,86.373,131.801,91.418C129.278,96.463,123.147,98.506,118.102,95.984L109.545,91.737C106.256,90.077,103.67,87.33,102.265,83.914L99.199,76.57L93.037,97.484L108.842,114.727C110.567,116.611,111.78,118.878,112.419,121.369L119.763,150.777C121.136,156.237,117.815,161.793,112.323,163.166C106.831,164.539,101.307,161.218,99.934,155.726L92.909,127.595L70.334,102.977C65.608,97.836,63.852,90.651,65.64,83.914L71.036,63.638L71.068,63.638ZM52.612,127.084L60.595,107.159C61.266,108.117,62.032,109.011,62.83,109.905L75.826,124.083L71.196,135.642C70.43,137.557,69.28,139.314,67.811,140.783L48.11,160.484C44.119,164.475,37.637,164.475,33.645,160.484C29.654,156.492,29.654,150.01,33.645,146.019L52.612,127.084ZM52.612,127.084"/>
</g>
  <g id="Medium-L" transform="matrix(1.0,0.0,0.0,1.0,1666.101376250562,1439.031395781812)">  <path stroke-width="1px" fill="#000000" stroke-linejoin="miter" stroke="none" fill-rule="nonzero" stroke-dasharray="none" stroke-opacity="1" version="1.1" xmlns:xlink="http://www.w3.org/1999/xlink" stroke-linecap="butt" stroke-miterlimit="4" fill-opacity="1" d="M112.419,15.327C112.419,23.788,105.554,30.653,97.092,30.653C88.63,30.653,81.765,23.788,81.765,15.327C81.765,6.865,88.63,0,97.092,0C105.554,0,112.419,6.865,112.419,15.327ZM71.068,63.638C70.749,63.766,70.462,63.893,70.142,64.021L67.588,65.139C62.351,67.47,58.328,71.908,56.508,77.336L55.678,79.827C53.89,85.191,48.11,88.065,42.746,86.277C37.381,84.489,34.508,78.709,36.296,73.345L37.126,70.854C40.766,59.966,48.813,51.089,59.286,46.427L61.84,45.31C68.482,42.372,75.666,40.839,82.947,40.839C97.188,40.839,110.024,49.397,115.484,62.52L120.401,74.303L127.235,77.719C132.28,80.242,134.323,86.373,131.801,91.418C129.278,96.463,123.147,98.506,118.102,95.984L109.545,91.737C106.256,90.077,103.67,87.33,102.265,83.914L99.199,76.57L93.037,97.484L108.842,114.727C110.567,116.611,111.78,118.878,112.419,121.369L119.763,150.777C121.136,156.237,117.815,161.793,112.323,163.166C106.831,164.539,101.307,161.218,99.934,155.726L92.909,127.595L70.334,102.977C65.608,97.836,63.852,90.651,65.64,83.914L71.036,63.638L71.068,63.638ZM52.612,127.084L60.595,107.159C61.266,108.117,62.032,109.011,62.83,109.905L75.826,124.083L71.196,135.642C70.43,137.557,69.28,139.314,67.811,140.783L48.11,160.484C44.119,164.475,37.637,164.475,33.645,160.484C29.654,156.492,29.654,150.01,33.645,146.019L52.612,127.084ZM52.612,127.084"/>
</g>
  <g id="Regular-L" transform="matrix(1.0,0.0,0.0,1.0,1369.391376250562,1439.031395781812)">  <path stroke-linecap="butt" version="1.1" stroke-linejoin="miter" stroke="none" fill-opacity="1" fill="#000000" stroke-dasharray="none" xmlns:xlink="http://www.w3.org/1999/xlink" fill-rule="nonzero" stroke-opacity="1" stroke-miterlimit="4" stroke-width="1px" d="M112.419,15.327C112.419,23.788,105.554,30.653,97.092,30.653C88.63,30.653,81.765,23.788,81.765,15.327C81.765,6.865,88.63,0,97.092,0C105.554,0,112.419,6.865,112.419,15.327ZM71.068,63.638C70.749,63.766,70.462,63.893,70.142,64.021L67.588,65.139C62.351,67.47,58.328,71.908,56.508,77.336L55.678,79.827C53.89,85.191,48.11,88.065,42.746,86.277C37.381,84.489,34.508,78.709,36.296,73.345L37.126,70.854C40.766,59.966,48.813,51.089,59.286,46.427L61.84,45.31C68.482,42.372,75.666,40.839,82.947,40.839C97.188,40.839,110.024,49.397,115.484,62.52L120.401,74.303L127.235,77.719C132.28,80.242,134.323,86.373,131.801,91.418C129.278,96.463,123.147,98.506,118.102,95.984L109.545,91.737C106.256,90.077,103.67,87.33,102.265,83.914L99.199,76.57L93.037,97.484L108.842,114.727C110.567,116.611,111.78,118.878,112.419,121.369L119.763,150.777C121.136,156.237,117.815,161.793,112.323,163.166C106.831,164.539,101.307,161.218,99.934,155.726L92.909,127.595L70.334,102.977C65.608,97.836,63.852,90.651,65.64,83.914L71.036,63.638L71.068,63.638ZM52.612,127.084L60.595,107.159C61.266,108.117,62.032,109.011,62.83,109.905L75.826,124.083L71.196,135.642C70.43,137.557,69.28,139.314,67.811,140.783L48.11,160.484C44.119,164.475,37.637,164.475,33.645,160.484C29.654,156.492,29.654,150.01,33.645,146.019L52.612,127.084ZM52.612,127.084"/>
</g>
  <g id="Light-L" transform="matrix(1.0,0.0,0.0,1.0,1072.6813762505622,1439.031395781812)">  <path stroke-linecap="butt" stroke-dasharray="none" stroke-width="1px" version="1.1" fill-rule="nonzero" stroke-linejoin="miter" stroke-miterlimit="4" fill="#000000" stroke="none" fill-opacity="1" xmlns:xlink="http://www.w3.org/1999/xlink" stroke-opacity="1" d="M112.419,15.327C112.419,23.788,105.554,30.653,97.092,30.653C88.63,30.653,81.765,23.788,81.765,15.327C81.765,6.865,88.63,0,97.092,0C105.554,0,112.419,6.865,112.419,15.327ZM71.068,63.638C70.749,63.766,70.462,63.893,70.142,64.021L67.588,65.139C62.351,67.47,58.328,71.908,56.508,77.336L55.678,79.827C53.89,85.191,48.11,88.065,42.746,86.277C37.381,84.489,34.508,78.709,36.296,73.345L37.126,70.854C40.766,59.966,48.813,51.089,59.286,46.427L61.84,45.31C68.482,42.372,75.666,40.839,82.947,40.839C97.188,40.839,110.024,49.397,115.484,62.52L120.401,74.303L127.235,77.719C132.28,80.242,134.323,86.373,131.801,91.418C129.278,96.463,123.147,98.506,118.102,95.984L109.545,91.737C106.256,90.077,103.67,87.33,102.265,83.914L99.199,76.57L93.037,97.484L108.842,114.727C110.567,116.611,111.78,118.878,112.419,121.369L119.763,150.777C121.136,156.237,117.815,161.793,112.323,163.166C106.831,164.539,101.307,161.218,99.934,155.726L92.909,127.595L70.334,102.977C65.608,97.836,63.852,90.651,65.64,83.914L71.036,63.638L71.068,63.638ZM52.612,127.084L60.595,107.159C61.266,108.117,62.032,109.011,62.83,109.905L75.826,124.083L71.196,135.642C70.43,137.557,69.28,139.314,67.811,140.783L48.11,160.484C44.119,164.475,37.637,164.475,33.645,160.484C29.654,156.492,29.654,150.01,33.645,146.019L52.612,127.084ZM52.612,127.084"/>
</g>
  <g id="Thin-L" transform="matrix(1.0,0.0,0.0,1.0,775.9713762505621,1439.031395781812)">  <path version="1.1" stroke-width="1px" stroke-opacity="1" stroke-dasharray="none" fill="#000000" stroke-linejoin="miter" stroke="none" stroke-linecap="butt" stroke-miterlimit="4" fill-rule="nonzero" fill-opacity="1" xmlns:xlink="http://www.w3.org/1999/xlink" d="M112.419,15.327C112.419,23.788,105.554,30.653,97.092,30.653C88.63,30.653,81.765,23.788,81.765,15.327C81.765,6.865,88.63,0,97.092,0C105.554,0,112.419,6.865,112.419,15.327ZM71.068,63.638C70.749,63.766,70.462,63.893,70.142,64.021L67.588,65.139C62.351,67.47,58.328,71.908,56.508,77.336L55.678,79.827C53.89,85.191,48.11,88.065,42.746,86.277C37.381,84.489,34.508,78.709,36.296,73.345L37.126,70.854C40.766,59.966,48.813,51.089,59.286,46.427L61.84,45.31C68.482,42.372,75.666,40.839,82.947,40.839C97.188,40.839,110.024,49.397,115.484,62.52L120.401,74.303L127.235,77.719C132.28,80.242,134.323,86.373,131.801,91.418C129.278,96.463,123.147,98.506,118.102,95.984L109.545,91.737C106.256,90.077,103.67,87.33,102.265,83.914L99.199,76.57L93.037,97.484L108.842,114.727C110.567,116.611,111.78,118.878,112.419,121.369L119.763,150.777C121.136,156.237,117.815,161.793,112.323,163.166C106.831,164.539,101.307,161.218,99.934,155.726L92.909,127.595L70.334,102.977C65.608,97.836,63.852,90.651,65.64,83.914L71.036,63.638L71.068,63.638ZM52.612,127.084L60.595,107.159C61.266,108.117,62.032,109.011,62.83,109.905L75.826,124.083L71.196,135.642C70.43,137.557,69.28,139.314,67.811,140.783L48.11,160.484C44.119,164.475,37.637,164.475,33.645,160.484C29.654,156.492,29.654,150.01,33.645,146.019L52.612,127.084ZM52.612,127.084"/>
</g>
  <g id="Ultralight-L" transform="matrix(1.0,0.0,0.0,1.0,479.2613762505621,1439.031395781812)">  <path stroke-opacity="1" xmlns:xlink="http://www.w3.org/1999/xlink" stroke-width="1px" stroke-dasharray="none" stroke-miterlimit="4" fill-opacity="1" fill-rule="nonzero" stroke="none" version="1.1" fill="#000000" stroke-linecap="butt" stroke-linejoin="miter" d="M112.419,15.327C112.419,23.788,105.554,30.653,97.092,30.653C88.63,30.653,81.765,23.788,81.765,15.327C81.765,6.865,88.63,0,97.092,0C105.554,0,112.419,6.865,112.419,15.327ZM71.068,63.638C70.749,63.766,70.462,63.893,70.142,64.021L67.588,65.139C62.351,67.47,58.328,71.908,56.508,77.336L55.678,79.827C53.89,85.191,48.11,88.065,42.746,86.277C37.381,84.489,34.508,78.709,36.296,73.345L37.126,70.854C40.766,59.966,48.813,51.089,59.286,46.427L61.84,45.31C68.482,42.372,75.666,40.839,82.947,40.839C97.188,40.839,110.024,49.397,115.484,62.52L120.401,74.303L127.235,77.719C132.28,80.242,134.323,86.373,131.801,91.418C129.278,96.463,123.147,98.506,118.102,95.984L109.545,91.737C106.256,90.077,103.67,87.33,102.265,83.914L99.199,76.57L93.037,97.484L108.842,114.727C110.567,116.611,111.78,118.878,112.419,121.369L119.763,150.777C121.136,156.237,117.815,161.793,112.323,163.166C106.831,164.539,101.307,161.218,99.934,155.726L92.909,127.595L70.334,102.977C65.608,97.836,63.852,90.651,65.64,83.914L71.036,63.638L71.068,63.638ZM52.612,127.084L60.595,107.159C61.266,108.117,62.032,109.011,62.83,109.905L75.826,124.083L71.196,135.642C70.43,137.557,69.28,139.314,67.811,140.783L48.11,160.484C44.119,164.475,37.637,164.475,33.645,160.484C29.654,156.492,29.654,150.01,33.645,146.019L52.612,127.084ZM52.612,127.084"/>
</g>
  <g id="Black-M" transform="matrix(1.0,0.0,0.0,1.0,2871.3167257756295,1027.4067453068794)">  <path stroke-linecap="butt" stroke-opacity="1" stroke-dasharray="none" fill-rule="nonzero" fill-opacity="1" xmlns:xlink="http://www.w3.org/1999/xlink" stroke="none" version="1.1" stroke-linejoin="miter" stroke-width="1px" fill="#000000" stroke-miterlimit="4" d="M87.146,11.881C87.146,18.441,81.825,23.762,75.265,23.762C68.706,23.762,63.384,18.441,63.384,11.881C63.384,5.322,68.706,0,75.265,0C81.825,0,87.146,5.322,87.146,11.881ZM55.092,49.332C54.844,49.431,54.621,49.53,54.374,49.629L52.394,50.495C48.334,52.302,45.215,55.743,43.805,59.951L43.161,61.881C41.775,66.04,37.295,68.267,33.136,66.881C28.978,65.495,26.75,61.015,28.136,56.856L28.78,54.926C31.602,46.485,37.839,39.604,45.958,35.99L47.938,35.124C53.087,32.847,58.656,31.658,64.3,31.658C75.339,31.658,85.29,38.292,89.523,48.465L93.334,57.599L98.631,60.248C102.542,62.203,104.127,66.955,102.171,70.866C100.216,74.777,95.463,76.361,91.552,74.406L84.919,71.114C82.369,69.827,80.364,67.698,79.275,65.05L76.899,59.356L72.122,75.569L84.374,88.936C85.711,90.396,86.651,92.154,87.146,94.084L92.839,116.881C93.904,121.114,91.329,125.421,87.072,126.485C82.815,127.55,78.532,124.975,77.468,120.718L72.023,98.911L54.522,79.827C50.859,75.842,49.498,70.272,50.884,65.05L55.067,49.332L55.092,49.332ZM40.785,98.515L46.973,83.069C47.493,83.812,48.087,84.505,48.706,85.198L58.78,96.188L55.191,105.149C54.597,106.634,53.706,107.995,52.567,109.134L37.295,124.406C34.201,127.5,29.176,127.5,26.082,124.406C22.988,121.312,22.988,116.287,26.082,113.193L40.785,98.515ZM40.785,98.515"/>
</g>
  <g id="Heavy-M" transform="matrix(1.0,0.0,0.0,1.0,2574.6067257756295,1027.4067453068794)">  <path stroke-linecap="butt" stroke-width="1px" fill-opacity="1" stroke-opacity="1" stroke-miterlimit="4" stroke="none" fill-rule="nonzero" stroke-linejoin="miter" version="1.1" fill="#000000" xmlns:xlink="http://www.w3.org/1999/xlink" stroke-dasharray="none" d="M87.146,11.881C87.146,18.441,81.825,23.762,75.265,23.762C68.706,23.762,63.384,18.441,63.384,11.881C63.384,5.322,68.706,0,75.265,0C81.825,0,87.146,5.322,87.146,11.881ZM55.092,49.332C54.844,49.431,54.621,49.53,54.374,49.629L52.394,50.495C48.334,52.302,45.215,55.743,43.805,59.951L43.161,61.881C41.775,66.04,37.295,68.267,33.136,66.881C28.978,65.495,26.75,61.015,28.136,56.856L28.78,54.926C31.602,46.485,37.839,39.604,45.958,35.99L47.938,35.124C53.087,32.847,58.656,31.658,64.3,31.658C75.339,31.658,85.29,38.292,89.523,48.465L93.334,57.599L98.631,60.248C102.542,62.203,104.127,66.955,102.171,70.866C100.216,74.777,95.463,76.361,91.552,74.406L84.919,71.114C82.369,69.827,80.364,67.698,79.275,65.05L76.899,59.356L72.122,75.569L84.374,88.936C85.711,90.396,86.651,92.154,87.146,94.084L92.839,116.881C93.904,121.114,91.329,125.421,87.072,126.485C82.815,127.55,78.532,124.975,77.468,120.718L72.023,98.911L54.522,79.827C50.859,75.842,49.498,70.272,50.884,65.05L55.067,49.332L55.092,49.332ZM40.785,98.515L46.973,83.069C47.493,83.812,48.087,84.505,48.706,85.198L58.78,96.188L55.191,105.149C54.597,106.634,53.706,107.995,52.567,109.134L37.295,124.406C34.201,127.5,29.176,127.5,26.082,124.406C22.988,121.312,22.988,116.287,26.082,113.193L40.785,98.515ZM40.785,98.515"/>
</g>
  <g id="Bold-M" transform="matrix(1.0,0.0,0.0,1.0,2277.8967257756294,1027.4067453068794)">  <path fill-rule="nonzero" xmlns:xlink="http://www.w3.org/1999/xlink" stroke-dasharray="none" stroke-width="1px" stroke-miterlimit="4" fill="#000000" version="1.1" stroke-linecap="butt" stroke-linejoin="miter" stroke-opacity="1" stroke="none" fill-opacity="1" d="M87.146,11.881C87.146,18.441,81.825,23.762,75.265,23.762C68.706,23.762,63.384,18.441,63.384,11.881C63.384,5.322,68.706,0,75.265,0C81.825,0,87.146,5.322,87.146,11.881ZM55.092,49.332C54.844,49.431,54.621,49.53,54.374,49.629L52.394,50.495C48.334,52.302,45.215,55.743,43.805,59.951L43.161,61.881C41.775,66.04,37.295,68.267,33.136,66.881C28.978,65.495,26.75,61.015,28.136,56.856L28.78,54.926C31.602,46.485,37.839,39.604,45.958,35.99L47.938,35.124C53.087,32.847,58.656,31.658,64.3,31.658C75.339,31.658,85.29,38.292,89.523,48.465L93.334,57.599L98.631,60.248C102.542,62.203,104.127,66.955,102.171,70.866C100.216,74.777,95.463,76.361,91.552,74.406L84.919,71.114C82.369,69.827,80.364,67.698,79.275,65.05L76.899,59.356L72.122,75.569L84.374,88.936C85.711,90.396,86.651,92.154,87.146,94.084L92.839,116.881C93.904,121.114,91.329,125.421,87.072,126.485C82.815,127.55,78.532,124.975,77.468,120.718L72.023,98.911L54.522,79.827C50.859,75.842,49.498,70.272,50.884,65.05L55.067,49.332L55.092,49.332ZM40.785,98.515L46.973,83.069C47.493,83.812,48.087,84.505,48.706,85.198L58.78,96.188L55.191,105.149C54.597,106.634,53.706,107.995,52.567,109.134L37.295,124.406C34.201,127.5,29.176,127.5,26.082,124.406C22.988,121.312,22.988,116.287,26.082,113.193L40.785,98.515ZM40.785,98.515"/>
</g>
  <g id="Semibold-M" transform="matrix(1.0,0.0,0.0,1.0,1981.1867257756294,1027.4067453068794)">  <path stroke-opacity="1" fill-opacity="1" stroke="none" xmlns:xlink="http://www.w3.org/1999/xlink" stroke-width="1px" stroke-miterlimit="4" fill-rule="nonzero" stroke-dasharray="none" stroke-linejoin="miter" fill="#000000" version="1.1" stroke-linecap="butt" d="M87.146,11.881C87.146,18.441,81.825,23.762,75.265,23.762C68.706,23.762,63.384,18.441,63.384,11.881C63.384,5.322,68.706,0,75.265,0C81.825,0,87.146,5.322,87.146,11.881ZM55.092,49.332C54.844,49.431,54.621,49.53,54.374,49.629L52.394,50.495C48.334,52.302,45.215,55.743,43.805,59.951L43.161,61.881C41.775,66.04,37.295,68.267,33.136,66.881C28.978,65.495,26.75,61.015,28.136,56.856L28.78,54.926C31.602,46.485,37.839,39.604,45.958,35.99L47.938,35.124C53.087,32.847,58.656,31.658,64.3,31.658C75.339,31.658,85.29,38.292,89.523,48.465L93.334,57.599L98.631,60.248C102.542,62.203,104.127,66.955,102.171,70.866C100.216,74.777,95.463,76.361,91.552,74.406L84.919,71.114C82.369,69.827,80.364,67.698,79.275,65.05L76.899,59.356L72.122,75.569L84.374,88.936C85.711,90.396,86.651,92.154,87.146,94.084L92.839,116.881C93.904,121.114,91.329,125.421,87.072,126.485C82.815,127.55,78.532,124.975,77.468,120.718L72.023,98.911L54.522,79.827C50.859,75.842,49.498,70.272,50.884,65.05L55.067,49.332L55.092,49.332ZM40.785,98.515L46.973,83.069C47.493,83.812,48.087,84.505,48.706,85.198L58.78,96.188L55.191,105.149C54.597,106.634,53.706,107.995,52.567,109.134L37.295,124.406C34.201,127.5,29.176,127.5,26.082,124.406C22.988,121.312,22.988,116.287,26.082,113.193L40.785,98.515ZM40.785,98.515"/>
</g>
  <g id="Medium-M" transform="matrix(1.0,0.0,0.0,1.0,1684.4767257756293,1027.4067453068794)">  <path stroke-width="1px" fill="#000000" stroke-linejoin="miter" stroke="none" fill-rule="nonzero" stroke-dasharray="none" stroke-opacity="1" version="1.1" xmlns:xlink="http://www.w3.org/1999/xlink" stroke-linecap="butt" stroke-miterlimit="4" fill-opacity="1" d="M87.146,11.881C87.146,18.441,81.825,23.762,75.265,23.762C68.706,23.762,63.384,18.441,63.384,11.881C63.384,5.322,68.706,0,75.265,0C81.825,0,87.146,5.322,87.146,11.881ZM55.092,49.332C54.844,49.431,54.621,49.53,54.374,49.629L52.394,50.495C48.334,52.302,45.215,55.743,43.805,59.951L43.161,61.881C41.775,66.04,37.295,68.267,33.136,66.881C28.978,65.495,26.75,61.015,28.136,56.856L28.78,54.926C31.602,46.485,37.839,39.604,45.958,35.99L47.938,35.124C53.087,32.847,58.656,31.658,64.3,31.658C75.339,31.658,85.29,38.292,89.523,48.465L93.334,57.599L98.631,60.248C102.542,62.203,104.127,66.955,102.171,70.866C100.216,74.777,95.463,76.361,91.552,74.406L84.919,71.114C82.369,69.827,80.364,67.698,79.275,65.05L76.899,59.356L72.122,75.569L84.374,88.936C85.711,90.396,86.651,92.154,87.146,94.084L92.839,116.881C93.904,121.114,91.329,125.421,87.072,126.485C82.815,127.55,78.532,124.975,77.468,120.718L72.023,98.911L54.522,79.827C50.859,75.842,49.498,70.272,50.884,65.05L55.067,49.332L55.092,49.332ZM40.785,98.515L46.973,83.069C47.493,83.812,48.087,84.505,48.706,85.198L58.78,96.188L55.191,105.149C54.597,106.634,53.706,107.995,52.567,109.134L37.295,124.406C34.201,127.5,29.176,127.5,26.082,124.406C22.988,121.312,22.988,116.287,26.082,113.193L40.785,98.515ZM40.785,98.515"/>
</g>
  <g id="Regular-M" transform="matrix(1.0,0.0,0.0,1.0,1387.7667257756293,1027.4067453068794)">  <path stroke-linecap="butt" version="1.1" stroke-linejoin="miter" stroke="none" fill-opacity="1" fill="#000000" stroke-dasharray="none" xmlns:xlink="http://www.w3.org/1999/xlink" fill-rule="nonzero" stroke-opacity="1" stroke-miterlimit="4" stroke-width="1px" d="M87.146,11.881C87.146,18.441,81.825,23.762,75.265,23.762C68.706,23.762,63.384,18.441,63.384,11.881C63.384,5.322,68.706,0,75.265,0C81.825,0,87.146,5.322,87.146,11.881ZM55.092,49.332C54.844,49.431,54.621,49.53,54.374,49.629L52.394,50.495C48.334,52.302,45.215,55.743,43.805,59.951L43.161,61.881C41.775,66.04,37.295,68.267,33.136,66.881C28.978,65.495,26.75,61.015,28.136,56.856L28.78,54.926C31.602,46.485,37.839,39.604,45.958,35.99L47.938,35.124C53.087,32.847,58.656,31.658,64.3,31.658C75.339,31.658,85.29,38.292,89.523,48.465L93.334,57.599L98.631,60.248C102.542,62.203,104.127,66.955,102.171,70.866C100.216,74.777,95.463,76.361,91.552,74.406L84.919,71.114C82.369,69.827,80.364,67.698,79.275,65.05L76.899,59.356L72.122,75.569L84.374,88.936C85.711,90.396,86.651,92.154,87.146,94.084L92.839,116.881C93.904,121.114,91.329,125.421,87.072,126.485C82.815,127.55,78.532,124.975,77.468,120.718L72.023,98.911L54.522,79.827C50.859,75.842,49.498,70.272,50.884,65.05L55.067,49.332L55.092,49.332ZM40.785,98.515L46.973,83.069C47.493,83.812,48.087,84.505,48.706,85.198L58.78,96.188L55.191,105.149C54.597,106.634,53.706,107.995,52.567,109.134L37.295,124.406C34.201,127.5,29.176,127.5,26.082,124.406C22.988,121.312,22.988,116.287,26.082,113.193L40.785,98.515ZM40.785,98.515"/>
</g>
  <g id="Light-M" transform="matrix(1.0,0.0,0.0,1.0,1091.0567257756295,1027.4067453068794)">  <path stroke-linecap="butt" stroke-dasharray="none" stroke-width="1px" version="1.1" fill-rule="nonzero" stroke-linejoin="miter" stroke-miterlimit="4" fill="#000000" stroke="none" fill-opacity="1" xmlns:xlink="http://www.w3.org/1999/xlink" stroke-opacity="1" d="M87.146,11.881C87.146,18.441,81.825,23.762,75.265,23.762C68.706,23.762,63.384,18.441,63.384,11.881C63.384,5.322,68.706,0,75.265,0C81.825,0,87.146,5.322,87.146,11.881ZM55.092,49.332C54.844,49.431,54.621,49.53,54.374,49.629L52.394,50.495C48.334,52.302,45.215,55.743,43.805,59.951L43.161,61.881C41.775,66.04,37.295,68.267,33.136,66.881C28.978,65.495,26.75,61.015,28.136,56.856L28.78,54.926C31.602,46.485,37.839,39.604,45.958,35.99L47.938,35.124C53.087,32.847,58.656,31.658,64.3,31.658C75.339,31.658,85.29,38.292,89.523,48.465L93.334,57.599L98.631,60.248C102.542,62.203,104.127,66.955,102.171,70.866C100.216,74.777,95.463,76.361,91.552,74.406L84.919,71.114C82.369,69.827,80.364,67.698,79.275,65.05L76.899,59.356L72.122,75.569L84.374,88.936C85.711,90.396,86.651,92.154,87.146,94.084L92.839,116.881C93.904,121.114,91.329,125.421,87.072,126.485C82.815,127.55,78.532,124.975,77.468,120.718L72.023,98.911L54.522,79.827C50.859,75.842,49.498,70.272,50.884,65.05L55.067,49.332L55.092,49.332ZM40.785,98.515L46.973,83.069C47.493,83.812,48.087,84.505,48.706,85.198L58.78,96.188L55.191,105.149C54.597,106.634,53.706,107.995,52.567,109.134L37.295,124.406C34.201,127.5,29.176,127.5,26.082,124.406C22.988,121.312,22.988,116.287,26.082,113.193L40.785,98.515ZM40.785,98.515"/>
</g>
  <g id="Thin-M" transform="matrix(1.0,0.0,0.0,1.0,794.3467257756296,1027.4067453068794)">  <path version="1.1" stroke-width="1px" stroke-opacity="1" stroke-dasharray="none" fill="#000000" stroke-linejoin="miter" stroke="none" stroke-linecap="butt" stroke-miterlimit="4" fill-rule="nonzero" fill-opacity="1" xmlns:xlink="http://www.w3.org/1999/xlink" d="M87.146,11.881C87.146,18.441,81.825,23.762,75.265,23.762C68.706,23.762,63.384,18.441,63.384,11.881C63.384,5.322,68.706,0,75.265,0C81.825,0,87.146,5.322,87.146,11.881ZM55.092,49.332C54.844,49.431,54.621,49.53,54.374,49.629L52.394,50.495C48.334,52.302,45.215,55.743,43.805,59.951L43.161,61.881C41.775,66.04,37.295,68.267,33.136,66.881C28.978,65.495,26.75,61.015,28.136,56.856L28.78,54.926C31.602,46.485,37.839,39.604,45.958,35.99L47.938,35.124C53.087,32.847,58.656,31.658,64.3,31.658C75.339,31.658,85.29,38.292,89.523,48.465L93.334,57.599L98.631,60.248C102.542,62.203,104.127,66.955,102.171,70.866C100.216,74.777,95.463,76.361,91.552,74.406L84.919,71.114C82.369,69.827,80.364,67.698,79.275,65.05L76.899,59.356L72.122,75.569L84.374,88.936C85.711,90.396,86.651,92.154,87.146,94.084L92.839,116.881C93.904,121.114,91.329,125.421,87.072,126.485C82.815,127.55,78.532,124.975,77.468,120.718L72.023,98.911L54.522,79.827C50.859,75.842,49.498,70.272,50.884,65.05L55.067,49.332L55.092,49.332ZM40.785,98.515L46.973,83.069C47.493,83.812,48.087,84.505,48.706,85.198L58.78,96.188L55.191,105.149C54.597,106.634,53.706,107.995,52.567,109.134L37.295,124.406C34.201,127.5,29.176,127.5,26.082,124.406C22.988,121.312,22.988,116.287,26.082,113.193L40.785,98.515ZM40.785,98.515"/>
</g>
  <g id="Ultralight-M" transform="matrix(1.0,0.0,0.0,1.0,497.6367257756295,1027.4067453068794)">  <path stroke-opacity="1" xmlns:xlink="http://www.w3.org/1999/xlink" stroke-width="1px" stroke-dasharray="none" stroke-miterlimit="4" fill-opacity="1" fill-rule="nonzero" stroke="none" version="1.1" fill="#000000" stroke-linecap="butt" stroke-linejoin="miter" d="M87.146,11.881C87.146,18.441,81.825,23.762,75.265,23.762C68.706,23.762,63.384,18.441,63.384,11.881C63.384,5.322,68.706,0,75.265,0C81.825,0,87.146,5.322,87.146,11.881ZM55.092,49.332C54.844,49.431,54.621,49.53,54.374,49.629L52.394,50.495C48.334,52.302,45.215,55.743,43.805,59.951L43.161,61.881C41.775,66.04,37.295,68.267,33.136,66.881C28.978,65.495,26.75,61.015,28.136,56.856L28.78,54.926C31.602,46.485,37.839,39.604,45.958,35.99L47.938,35.124C53.087,32.847,58.656,31.658,64.3,31.658C75.339,31.658,85.29,38.292,89.523,48.465L93.334,57.599L98.631,60.248C102.542,62.203,104.127,66.955,102.171,70.866C100.216,74.777,95.463,76.361,91.552,74.406L84.919,71.114C82.369,69.827,80.364,67.698,79.275,65.05L76.899,59.356L72.122,75.569L84.374,88.936C85.711,90.396,86.651,92.154,87.146,94.084L92.839,116.881C93.904,121.114,91.329,125.421,87.072,126.485C82.815,127.55,78.532,124.975,77.468,120.718L72.023,98.911L54.522,79.827C50.859,75.842,49.498,70.272,50.884,65.05L55.067,49.332L55.092,49.332ZM40.785,98.515L46.973,83.069C47.493,83.812,48.087,84.505,48.706,85.198L58.78,96.188L55.191,105.149C54.597,106.634,53.706,107.995,52.567,109.134L37.295,124.406C34.201,127.5,29.176,127.5,26.082,124.406C22.988,121.312,22.988,116.287,26.082,113.193L40.785,98.515ZM40.785,98.515"/>
</g>
  <g id="Black-S" transform="matrix(1.0,0.0,0.0,1.0,2885.066556282318,611.1565758135679)">  <path stroke-linecap="butt" stroke-opacity="1" stroke-dasharray="none" fill-rule="nonzero" fill-opacity="1" xmlns:xlink="http://www.w3.org/1999/xlink" stroke="none" version="1.1" stroke-linejoin="miter" stroke-width="1px" fill="#000000" stroke-miterlimit="4" d="M68.236,9.303C68.236,14.439,64.069,18.606,58.933,18.606C53.797,18.606,49.63,14.439,49.63,9.303C49.63,4.167,53.797,0,58.933,0C64.069,0,68.236,4.167,68.236,9.303ZM43.137,38.627C42.943,38.704,42.769,38.782,42.575,38.859L41.024,39.538C37.846,40.952,35.404,43.646,34.299,46.941L33.795,48.453C32.71,51.709,29.202,53.453,25.946,52.368C22.69,51.283,20.945,47.775,22.031,44.519L22.535,43.007C24.744,36.398,29.628,31.01,35.985,28.18L37.536,27.502C41.567,25.719,45.928,24.789,50.347,24.789C58.991,24.789,66.782,29.983,70.096,37.948L73.081,45.1L77.228,47.174C80.291,48.705,81.531,52.426,80,55.488C78.469,58.551,74.748,59.791,71.685,58.26L66.491,55.682C64.495,54.674,62.925,53.008,62.072,50.934L60.212,46.476L56.471,59.171L66.065,69.637C67.111,70.78,67.848,72.156,68.236,73.668L72.693,91.518C73.527,94.832,71.511,98.205,68.177,99.038C64.844,99.871,61.491,97.856,60.657,94.522L56.394,77.447L42.691,62.504C39.823,59.384,38.757,55.023,39.842,50.934L43.117,38.627L43.137,38.627ZM31.934,77.137L36.78,65.043C37.187,65.625,37.652,66.167,38.136,66.71L46.025,75.315L43.214,82.331C42.749,83.494,42.051,84.56,41.16,85.452L29.202,97.41C26.779,99.833,22.845,99.833,20.422,97.41C17.999,94.987,17.999,91.053,20.422,88.63L31.934,77.137ZM31.934,77.137"/>
</g>
  <g id="Heavy-S" transform="matrix(1.0,0.0,0.0,1.0,2588.356556282318,611.1565758135679)">  <path stroke-linecap="butt" stroke-width="1px" fill-opacity="1" stroke-opacity="1" stroke-miterlimit="4" stroke="none" fill-rule="nonzero" stroke-linejoin="miter" version="1.1" fill="#000000" xmlns:xlink="http://www.w3.org/1999/xlink" stroke-dasharray="none" d="M68.236,9.303C68.236,14.439,64.069,18.606,58.933,18.606C53.797,18.606,49.63,14.439,49.63,9.303C49.63,4.167,53.797,0,58.933,0C64.069,0,68.236,4.167,68.236,9.303ZM43.137,38.627C42.943,38.704,42.769,38.782,42.575,38.859L41.024,39.538C37.846,40.952,35.404,43.646,34.299,46.941L33.795,48.453C32.71,51.709,29.202,53.453,25.946,52.368C22.69,51.283,20.945,47.775,22.031,44.519L22.535,43.007C24.744,36.398,29.628,31.01,35.985,28.18L37.536,27.502C41.567,25.719,45.928,24.789,50.347,24.789C58.991,24.789,66.782,29.983,70.096,37.948L73.081,45.1L77.228,47.174C80.291,48.705,81.531,52.426,80,55.488C78.469,58.551,74.748,59.791,71.685,58.26L66.491,55.682C64.495,54.674,62.925,53.008,62.072,50.934L60.212,46.476L56.471,59.171L66.065,69.637C67.111,70.78,67.848,72.156,68.236,73.668L72.693,91.518C73.527,94.832,71.511,98.205,68.177,99.038C64.844,99.871,61.491,97.856,60.657,94.522L56.394,77.447L42.691,62.504C39.823,59.384,38.757,55.023,39.842,50.934L43.117,38.627L43.137,38.627ZM31.934,77.137L36.78,65.043C37.187,65.625,37.652,66.167,38.136,66.71L46.025,75.315L43.214,82.331C42.749,83.494,42.051,84.56,41.16,85.452L29.202,97.41C26.779,99.833,22.845,99.833,20.422,97.41C17.999,94.987,17.999,91.053,20.422,88.63L31.934,77.137ZM31.934,77.137"/>
</g>
  <g id="Bold-S" transform="matrix(1.0,0.0,0.0,1.0,2291.6465562823178,611.1565758135679)">  <path fill-rule="nonzero" xmlns:xlink="http://www.w3.org/1999/xlink" stroke-dasharray="none" stroke-width="1px" stroke-miterlimit="4" fill="#000000" version="1.1" stroke-linecap="butt" stroke-linejoin="miter" stroke-opacity="1" stroke="none" fill-opacity="1" d="M68.236,9.303C68.236,14.439,64.069,18.606,58.933,18.606C53.797,18.606,49.63,14.439,49.63,9.303C49.63,4.167,53.797,0,58.933,0C64.069,0,68.236,4.167,68.236,9.303ZM43.137,38.627C42.943,38.704,42.769,38.782,42.575,38.859L41.024,39.538C37.846,40.952,35.404,43.646,34.299,46.941L33.795,48.453C32.71,51.709,29.202,53.453,25.946,52.368C22.69,51.283,20.945,47.775,22.031,44.519L22.535,43.007C24.744,36.398,29.628,31.01,35.985,28.18L37.536,27.502C41.567,25.719,45.928,24.789,50.347,24.789C58.991,24.789,66.782,29.983,70.096,37.948L73.081,45.1L77.228,47.174C80.291,48.705,81.531,52.426,80,55.488C78.469,58.551,74.748,59.791,71.685,58.26L66.491,55.682C64.495,54.674,62.925,53.008,62.072,50.934L60.212,46.476L56.471,59.171L66.065,69.637C67.111,70.78,67.848,72.156,68.236,73.668L72.693,91.518C73.527,94.832,71.511,98.205,68.177,99.038C64.844,99.871,61.491,97.856,60.657,94.522L56.394,77.447L42.691,62.504C39.823,59.384,38.757,55.023,39.842,50.934L43.117,38.627L43.137,38.627ZM31.934,77.137L36.78,65.043C37.187,65.625,37.652,66.167,38.136,66.71L46.025,75.315L43.214,82.331C42.749,83.494,42.051,84.56,41.16,85.452L29.202,97.41C26.779,99.833,22.845,99.833,20.422,97.41C17.999,94.987,17.999,91.053,20.422,88.63L31.934,77.137ZM31.934,77.137"/>
</g>
  <g id="Semibold-S" transform="matrix(1.0,0.0,0.0,1.0,1994.936556282318,611.1565758135679)">  <path stroke-opacity="1" fill-opacity="1" stroke="none" xmlns:xlink="http://www.w3.org/1999/xlink" stroke-width="1px" stroke-miterlimit="4" fill-rule="nonzero" stroke-dasharray="none" stroke-linejoin="miter" fill="#000000" version="1.1" stroke-linecap="butt" d="M68.236,9.303C68.236,14.439,64.069,18.606,58.933,18.606C53.797,18.606,49.63,14.439,49.63,9.303C49.63,4.167,53.797,0,58.933,0C64.069,0,68.236,4.167,68.236,9.303ZM43.137,38.627C42.943,38.704,42.769,38.782,42.575,38.859L41.024,39.538C37.846,40.952,35.404,43.646,34.299,46.941L33.795,48.453C32.71,51.709,29.202,53.453,25.946,52.368C22.69,51.283,20.945,47.775,22.031,44.519L22.535,43.007C24.744,36.398,29.628,31.01,35.985,28.18L37.536,27.502C41.567,25.719,45.928,24.789,50.347,24.789C58.991,24.789,66.782,29.983,70.096,37.948L73.081,45.1L77.228,47.174C80.291,48.705,81.531,52.426,80,55.488C78.469,58.551,74.748,59.791,71.685,58.26L66.491,55.682C64.495,54.674,62.925,53.008,62.072,50.934L60.212,46.476L56.471,59.171L66.065,69.637C67.111,70.78,67.848,72.156,68.236,73.668L72.693,91.518C73.527,94.832,71.511,98.205,68.177,99.038C64.844,99.871,61.491,97.856,60.657,94.522L56.394,77.447L42.691,62.504C39.823,59.384,38.757,55.023,39.842,50.934L43.117,38.627L43.137,38.627ZM31.934,77.137L36.78,65.043C37.187,65.625,37.652,66.167,38.136,66.71L46.025,75.315L43.214,82.331C42.749,83.494,42.051,84.56,41.16,85.452L29.202,97.41C26.779,99.833,22.845,99.833,20.422,97.41C17.999,94.987,17.999,91.053,20.422,88.63L31.934,77.137ZM31.934,77.137"/>
</g>
  <g id="Medium-S" transform="matrix(1.0,0.0,0.0,1.0,1698.226556282318,611.1565758135679)">  <path stroke-width="1px" fill="#000000" stroke-linejoin="miter" stroke="none" fill-rule="nonzero" stroke-dasharray="none" stroke-opacity="1" version="1.1" xmlns:xlink="http://www.w3.org/1999/xlink" stroke-linecap="butt" stroke-miterlimit="4" fill-opacity="1" d="M68.236,9.303C68.236,14.439,64.069,18.606,58.933,18.606C53.797,18.606,49.63,14.439,49.63,9.303C49.63,4.167,53.797,0,58.933,0C64.069,0,68.236,4.167,68.236,9.303ZM43.137,38.627C42.943,38.704,42.769,38.782,42.575,38.859L41.024,39.538C37.846,40.952,35.404,43.646,34.299,46.941L33.795,48.453C32.71,51.709,29.202,53.453,25.946,52.368C22.69,51.283,20.945,47.775,22.031,44.519L22.535,43.007C24.744,36.398,29.628,31.01,35.985,28.18L37.536,27.502C41.567,25.719,45.928,24.789,50.347,24.789C58.991,24.789,66.782,29.983,70.096,37.948L73.081,45.1L77.228,47.174C80.291,48.705,81.531,52.426,80,55.488C78.469,58.551,74.748,59.791,71.685,58.26L66.491,55.682C64.495,54.674,62.925,53.008,62.072,50.934L60.212,46.476L56.471,59.171L66.065,69.637C67.111,70.78,67.848,72.156,68.236,73.668L72.693,91.518C73.527,94.832,71.511,98.205,68.177,99.038C64.844,99.871,61.491,97.856,60.657,94.522L56.394,77.447L42.691,62.504C39.823,59.384,38.757,55.023,39.842,50.934L43.117,38.627L43.137,38.627ZM31.934,77.137L36.78,65.043C37.187,65.625,37.652,66.167,38.136,66.71L46.025,75.315L43.214,82.331C42.749,83.494,42.051,84.56,41.16,85.452L29.202,97.41C26.779,99.833,22.845,99.833,20.422,97.41C17.999,94.987,17.999,91.053,20.422,88.63L31.934,77.137ZM31.934,77.137"/>
</g>
  <g id="Regular-S" transform="matrix(1.0,0.0,0.0,1.0,1401.5165562823179,611.1565758135679)">  <path stroke-linecap="butt" version="1.1" stroke-linejoin="miter" stroke="none" fill-opacity="1" fill="#000000" stroke-dasharray="none" xmlns:xlink="http://www.w3.org/1999/xlink" fill-rule="nonzero" stroke-opacity="1" stroke-miterlimit="4" stroke-width="1px" d="M68.236,9.303C68.236,14.439,64.069,18.606,58.933,18.606C53.797,18.606,49.63,14.439,49.63,9.303C49.63,4.167,53.797,0,58.933,0C64.069,0,68.236,4.167,68.236,9.303ZM43.137,38.627C42.943,38.704,42.769,38.782,42.575,38.859L41.024,39.538C37.846,40.952,35.404,43.646,34.299,46.941L33.795,48.453C32.71,51.709,29.202,53.453,25.946,52.368C22.69,51.283,20.945,47.775,22.031,44.519L22.535,43.007C24.744,36.398,29.628,31.01,35.985,28.18L37.536,27.502C41.567,25.719,45.928,24.789,50.347,24.789C58.991,24.789,66.782,29.983,70.096,37.948L73.081,45.1L77.228,47.174C80.291,48.705,81.531,52.426,80,55.488C78.469,58.551,74.748,59.791,71.685,58.26L66.491,55.682C64.495,54.674,62.925,53.008,62.072,50.934L60.212,46.476L56.471,59.171L66.065,69.637C67.111,70.78,67.848,72.156,68.236,73.668L72.693,91.518C73.527,94.832,71.511,98.205,68.177,99.038C64.844,99.871,61.491,97.856,60.657,94.522L56.394,77.447L42.691,62.504C39.823,59.384,38.757,55.023,39.842,50.934L43.117,38.627L43.137,38.627ZM31.934,77.137L36.78,65.043C37.187,65.625,37.652,66.167,38.136,66.71L46.025,75.315L43.214,82.331C42.749,83.494,42.051,84.56,41.16,85.452L29.202,97.41C26.779,99.833,22.845,99.833,20.422,97.41C17.999,94.987,17.999,91.053,20.422,88.63L31.934,77.137ZM31.934,77.137"/>
</g>
  <g id="Light-S" transform="matrix(1.0,0.0,0.0,1.0,1104.806556282318,611.1565758135679)">  <path stroke-linecap="butt" stroke-dasharray="none" stroke-width="1px" version="1.1" fill-rule="nonzero" stroke-linejoin="miter" stroke-miterlimit="4" fill="#000000" stroke="none" fill-opacity="1" xmlns:xlink="http://www.w3.org/1999/xlink" stroke-opacity="1" d="M68.236,9.303C68.236,14.439,64.069,18.606,58.933,18.606C53.797,18.606,49.63,14.439,49.63,9.303C49.63,4.167,53.797,0,58.933,0C64.069,0,68.236,4.167,68.236,9.303ZM43.137,38.627C42.943,38.704,42.769,38.782,42.575,38.859L41.024,39.538C37.846,40.952,35.404,43.646,34.299,46.941L33.795,48.453C32.71,51.709,29.202,53.453,25.946,52.368C22.69,51.283,20.945,47.775,22.031,44.519L22.535,43.007C24.744,36.398,29.628,31.01,35.985,28.18L37.536,27.502C41.567,25.719,45.928,24.789,50.347,24.789C58.991,24.789,66.782,29.983,70.096,37.948L73.081,45.1L77.228,47.174C80.291,48.705,81.531,52.426,80,55.488C78.469,58.551,74.748,59.791,71.685,58.26L66.491,55.682C64.495,54.674,62.925,53.008,62.072,50.934L60.212,46.476L56.471,59.171L66.065,69.637C67.111,70.78,67.848,72.156,68.236,73.668L72.693,91.518C73.527,94.832,71.511,98.205,68.177,99.038C64.844,99.871,61.491,97.856,60.657,94.522L56.394,77.447L42.691,62.504C39.823,59.384,38.757,55.023,39.842,50.934L43.117,38.627L43.137,38.627ZM31.934,77.137L36.78,65.043C37.187,65.625,37.652,66.167,38.136,66.71L46.025,75.315L43.214,82.331C42.749,83.494,42.051,84.56,41.16,85.452L29.202,97.41C26.779,99.833,22.845,99.833,20.422,97.41C17.999,94.987,17.999,91.053,20.422,88.63L31.934,77.137ZM31.934,77.137"/>
</g>
  <g id="Thin-S" transform="matrix(1.0,0.0,0.0,1.0,808.0965562823179,611.1565758135679)">  <path version="1.1" stroke-width="1px" stroke-opacity="1" stroke-dasharray="none" fill="#000000" stroke-linejoin="miter" stroke="none" stroke-linecap="butt" stroke-miterlimit="4" fill-rule="nonzero" fill-opacity="1" xmlns:xlink="http://www.w3.org/1999/xlink" d="M68.236,9.303C68.236,14.439,64.069,18.606,58.933,18.606C53.797,18.606,49.63,14.439,49.63,9.303C49.63,4.167,53.797,0,58.933,0C64.069,0,68.236,4.167,68.236,9.303ZM43.137,38.627C42.943,38.704,42.769,38.782,42.575,38.859L41.024,39.538C37.846,40.952,35.404,43.646,34.299,46.941L33.795,48.453C32.71,51.709,29.202,53.453,25.946,52.368C22.69,51.283,20.945,47.775,22.031,44.519L22.535,43.007C24.744,36.398,29.628,31.01,35.985,28.18L37.536,27.502C41.567,25.719,45.928,24.789,50.347,24.789C58.991,24.789,66.782,29.983,70.096,37.948L73.081,45.1L77.228,47.174C80.291,48.705,81.531,52.426,80,55.488C78.469,58.551,74.748,59.791,71.685,58.26L66.491,55.682C64.495,54.674,62.925,53.008,62.072,50.934L60.212,46.476L56.471,59.171L66.065,69.637C67.111,70.78,67.848,72.156,68.236,73.668L72.693,91.518C73.527,94.832,71.511,98.205,68.177,99.038C64.844,99.871,61.491,97.856,60.657,94.522L56.394,77.447L42.691,62.504C39.823,59.384,38.757,55.023,39.842,50.934L43.117,38.627L43.137,38.627ZM31.934,77.137L36.78,65.043C37.187,65.625,37.652,66.167,38.136,66.71L46.025,75.315L43.214,82.331C42.749,83.494,42.051,84.56,41.16,85.452L29.202,97.41C26.779,99.833,22.845,99.833,20.422,97.41C17.999,94.987,17.999,91.053,20.422,88.63L31.934,77.137ZM31.934,77.137"/>
</g>
  <g id="Ultralight-S" transform="matrix(1.0,0.0,0.0,1.0,511.3865562823179,611.1565758135679)">  <path stroke-opacity="1" xmlns:xlink="http://www.w3.org/1999/xlink" stroke-width="1px" stroke-dasharray="none" stroke-miterlimit="4" fill-opacity="1" fill-rule="nonzero" stroke="none" version="1.1" fill="#000000" stroke-linecap="butt" stroke-linejoin="miter" d="M68.236,9.303C68.236,14.439,64.069,18.606,58.933,18.606C53.797,18.606,49.63,14.439,49.63,9.303C49.63,4.167,53.797,0,58.933,0C64.069,0,68.236,4.167,68.236,9.303ZM43.137,38.627C42.943,38.704,42.769,38.782,42.575,38.859L41.024,39.538C37.846,40.952,35.404,43.646,34.299,46.941L33.795,48.453C32.71,51.709,29.202,53.453,25.946,52.368C22.69,51.283,20.945,47.775,22.031,44.519L22.535,43.007C24.744,36.398,29.628,31.01,35.985,28.18L37.536,27.502C41.567,25.719,45.928,24.789,50.347,24.789C58.991,24.789,66.782,29.983,70.096,37.948L73.081,45.1L77.228,47.174C80.291,48.705,81.531,52.426,80,55.488C78.469,58.551,74.748,59.791,71.685,58.26L66.491,55.682C64.495,54.674,62.925,53.008,62.072,50.934L60.212,46.476L56.471,59.171L66.065,69.637C67.111,70.78,67.848,72.156,68.236,73.668L72.693,91.518C73.527,94.832,71.511,98.205,68.177,99.038C64.844,99.871,61.491,97.856,60.657,94.522L56.394,77.447L42.691,62.504C39.823,59.384,38.757,55.023,39.842,50.934L43.117,38.627L43.137,38.627ZM31.934,77.137L36.78,65.043C37.187,65.625,37.652,66.167,38.136,66.71L46.025,75.315L43.214,82.331C42.749,83.494,42.051,84.56,41.16,85.452L29.202,97.41C26.779,99.833,22.845,99.833,20.422,97.41C17.999,94.987,17.999,91.053,20.422,88.63L31.934,77.137ZM31.934,77.137"/>
</g>
 </g>
</svg>
