<?xml version="1.0" encoding="UTF-8"?>
<!-- Generator: CustomSymbols v2.7.2.48 by @serious_bret https://bretlester.com/app_content/CustomSymbols/ -->
<!-- Guides: Left/Right 0.11/0.11 Cap/Base 0.222/0.222 -->
<!-- Settings: RefScale 1.0 Min/Max Stroke Scales 0.5/2.21 -->
<!DOCTYPE svg
PUBLIC "-//W3C//DTD SVG 1.1//EN"
       "http://www.w3.org/Graphics/SVG/1.1/DTD/svg11.dtd">
<svg version="1.1" xmlns="http://www.w3.org/2000/svg" xmlns:xlink="http://www.w3.org/1999/xlink" width="3300" height="2200">
<![CDATA[<?xml version="1.0" encoding="UTF-8"?>
<svg width="96px" height="96px" viewBox="0 0 96 96" version="1.1" xmlns="http://www.w3.org/2000/svg" xmlns:xlink="http://www.w3.org/1999/xlink">
    <title>icon/medical/dom-suppository-bullets</title>
    <g id="icon/medical/dom-suppository-bullets" stroke="none" stroke-width="1" fill="none" fill-rule="evenodd">
        <path d="M14.0000429,37.3826386 C14.0512864,33.9968738 15.044907,29.8780184 16.6497275,25.9220305 C17.6945482,23.347029 18.9621636,20.8564742 20.2267868,18.3810052 C21.1150152,16.6472293 22.162828,16.4120502 23.8850927,17.2743875 C28.7478868,19.7016488 33.1800939,22.7258968 37.0067947,26.6155159 C40.5176513,30.1855508 42.730638,34.4340684 43.787469,39.3246637 C45.5761441,47.5922965 47.403884,55.8541112 49.2133383,64.1155102 C50.884403,71.7410654 52.5496495,79.3695296 54.2298571,86.9921757 C54.7447661,89.3227721 53.6517792,91.2677063 51.3602471,91.9700437 C47.213962,93.2396535 43.0618587,94.4997049 38.9097554,95.74812 C36.4528207,96.4870288 34.5860158,95.5885356 33.6526133,93.2064068 C30.0906398,84.1155016 26.5377676,75.0216873 22.9788279,65.9307821 C20.5730516,59.7826289 18.1612494,53.6407095 15.7614991,47.4896472 C14.61432,44.5377524 13.9940604,41.4773901 14.0000429,37.3826386 Z M78.2119834,1.66770327 C80.7836194,7.84885386 82.4546841,14.2260355 82.1114114,20.9891287 C81.9214894,24.709896 80.7923467,28.1774477 79.0190482,31.4426931 C72.7320881,43.0212855 66.4513618,54.602787 60.1644016,66.1809639 C58.6076227,69.0484951 57.0358826,71.9068835 55.4670517,74.7681809 C55.3459385,74.9879656 55.2025365,75.1943159 55.0009914,75.5034306 L54.897,75.664 L54.7581472,75.0473069 C54.4820659,73.8284262 54.2284916,72.7270093 53.9859091,71.623455 C51.6914678,61.1548881 49.4032604,50.6859056 47.1088192,40.2202477 C46.8827413,39.1920923 46.6238322,38.166846 46.4222738,37.1357815 C46.3649232,36.8369765 46.3769751,36.4841455 46.4762998,36.1978079 C48.4486631,30.5865895 50.4480394,24.9872984 52.4199872,19.375997 C54.4044025,13.7285396 58.0835708,9.45595966 62.9974402,6.1573429 C66.7281409,3.65469462 70.7206598,1.69484092 74.9600358,0.235475315 C76.5799836,-0.322363407 77.5557757,0.0937610898 78.2119834,1.66770327 Z M21.5787242,27.3029754 C22.7499656,27.3150273 23.4214252,28.2285646 23.1263604,29.2899667 C22.8101838,30.4236805 22.4307968,31.5424333 22.111628,32.6761471 C20.8651243,37.108353 21.0337269,41.4532862 22.903524,45.7047129 C23.4665993,46.9801409 23.2016227,47.8969198 22.265228,48.2676209 C21.3107139,48.6445558 20.5941218,48.1350495 20.0491244,46.8446605 C18.7212909,43.6937008 18.0558572,40.4313645 18.2816857,37.0061193 C18.4773844,33.9997829 19.2421843,31.1172906 20.2478569,28.2950581 C20.4827036,27.6405129 21.003597,27.3210948 21.5817164,27.3060091 Z M57.2528177,18.7790102 C56.6352593,20.2594459 56.0783763,21.7640687 55.5485062,23.2807018 C55.3195192,23.9410236 55.6989478,24.6466025 56.3314671,24.9872984 C56.9457008,25.3189762 57.8579085,25.252649 58.1471552,24.6254908 C58.9297005,22.9279123 59.565129,21.1610144 60.1614926,19.6624592 C60.1673107,18.6674258 59.7126615,18.0583456 59.035259,17.8714158 C58.3366617,17.67846 57.5778046,17.9980443 57.2528177,18.7790102 Z M70.3807118,6.74830368 C68.8176991,7.59559683 67.2189461,8.41271855 65.7648164,9.42582981 C64.1448686,10.5535176 62.6545831,11.8741612 61.1397781,13.1435633 C60.5978561,13.5988774 60.4956224,14.2893706 60.8476223,14.8592197 C61.1185833,15.2964143 61.648869,15.5738168 62.0852325,15.9446841 C62.6001415,15.6763414 63.0128168,15.5617648 63.277544,15.2994481 C65.7677255,12.8691946 68.6672575,11.0480213 71.741335,9.47707134 C72.7320881,8.97051572 73.0574907,8.15040178 72.6356725,7.32422032 C72.2113609,6.49201289 71.3411273,6.22670391 70.3807118,6.74830368 Z" id="Shape" fill="#FB4C6C" fill-rule="nonzero"></path>
    </g>
</svg>]]>
 <g id="Notes">
  <rect height="2200" id="artboard" style="fill:white;opacity:1" width="3300" x="0" y="0"/>
  <line id="" style="fill:none;stroke:black;opacity:1;stroke-width:0.5;" x1="263" x2="3036" y1="292" y2="292"/>
  <text id="reftext1" style="stroke:none;fill:black;font-family:-apple-system,&quot;SF Pro Display&quot;,&quot;SF Pro Text&quot;,Helvetica,sans-serif;font-weight:bold;" transform="matrix(1 0 0 1 263 322)">Weight/Scale Variations</text>
  <text id="reftext2" style="stroke:none;fill:black;font-family:-apple-system,&quot;SF Pro Display&quot;,&quot;SF Pro Text&quot;,Helvetica,sans-serif;text-anchor:middle;" transform="matrix(1 0 0 1 559.711 322)">Ultralight</text>
  <text style="stroke:none;fill:black;font-family:-apple-system,&quot;SF Pro Display&quot;,&quot;SF Pro Text&quot;,Helvetica,sans-serif;text-anchor:middle;" transform="matrix(1 0 0 1 856.422 322)">Thin</text>
  <text style="stroke:none;fill:black;font-family:-apple-system,&quot;SF Pro Display&quot;,&quot;SF Pro Text&quot;,Helvetica,sans-serif;text-anchor:middle;" transform="matrix(1 0 0 1 1153.13 322)">Light</text>
  <text style="stroke:none;fill:black;font-family:-apple-system,&quot;SF Pro Display&quot;,&quot;SF Pro Text&quot;,Helvetica,sans-serif;text-anchor:middle;" transform="matrix(1 0 0 1 1449.84 322)">Regular</text>
  <text style="stroke:none;fill:black;font-family:-apple-system,&quot;SF Pro Display&quot;,&quot;SF Pro Text&quot;,Helvetica,sans-serif;text-anchor:middle;" transform="matrix(1 0 0 1 1746.56 322)">Medium</text>
  <text style="stroke:none;fill:black;font-family:-apple-system,&quot;SF Pro Display&quot;,&quot;SF Pro Text&quot;,Helvetica,sans-serif;text-anchor:middle;" transform="matrix(1 0 0 1 2043.27 322)">Semibold</text>
  <text style="stroke:none;fill:black;font-family:-apple-system,&quot;SF Pro Display&quot;,&quot;SF Pro Text&quot;,Helvetica,sans-serif;text-anchor:middle;" transform="matrix(1 0 0 1 2339.98 322)">Bold</text>
  <text style="stroke:none;fill:black;font-family:-apple-system,&quot;SF Pro Display&quot;,&quot;SF Pro Text&quot;,Helvetica,sans-serif;text-anchor:middle;" transform="matrix(1 0 0 1 2636.69 322)">Heavy</text>
  <text style="stroke:none;fill:black;font-family:-apple-system,&quot;SF Pro Display&quot;,&quot;SF Pro Text&quot;,Helvetica,sans-serif;text-anchor:middle;" transform="matrix(1 0 0 1 2933.4 322)">Black</text>
  <line id="" style="fill:none;stroke:black;opacity:1;stroke-width:0.5;" x1="263" x2="3036" y1="1903" y2="1903"/>
  <g id="" transform="matrix(1 0 0 1 263 1933)">
   <path d="M9.24805 0.830078C13.5547 0.830078 17.1387-2.74414 17.1387-7.05078C17.1387-11.3574 13.5449-14.9316 9.23828-14.9316C4.94141-14.9316 1.36719-11.3574 1.36719-7.05078C1.36719-2.74414 4.95117 0.830078 9.24805 0.830078ZM9.24805-0.654297C5.70312-0.654297 2.87109-3.49609 2.87109-7.05078C2.87109-10.6055 5.69336-13.4473 9.23828-13.4473C12.793-13.4473 15.6348-10.6055 15.6445-7.05078C15.6543-3.49609 12.8027-0.654297 9.24805-0.654297ZM6.39648-6.31836L8.50586-6.31836L8.50586-4.19922C8.50586-3.75977 8.79883-3.45703 9.22852-3.45703C9.67773-3.45703 9.9707-3.75977 9.9707-4.19922L9.9707-6.31836L12.0996-6.31836C12.5391-6.31836 12.8418-6.61133 12.8418-7.04102C12.8418-7.48047 12.5391-7.7832 12.0996-7.7832L9.9707-7.7832L9.9707-9.89258C9.9707-10.3418 9.67773-10.6445 9.22852-10.6445C8.79883-10.6445 8.50586-10.3418 8.50586-9.89258L8.50586-7.7832L6.39648-7.7832C5.94727-7.7832 5.64453-7.48047 5.64453-7.04102C5.64453-6.61133 5.94727-6.31836 6.39648-6.31836Z"/>
  </g>
  <g id="" transform="matrix(1 0 0 1 281.506 1933)">
   <path d="M11.709 2.91016C17.1582 2.91016 21.6699-1.61133 21.6699-7.05078C21.6699-12.5 17.1484-17.0117 11.6992-17.0117C6.25977-17.0117 1.74805-12.5 1.74805-7.05078C1.74805-1.61133 6.26953 2.91016 11.709 2.91016ZM11.709 1.25C7.09961 1.25 3.41797-2.44141 3.41797-7.05078C3.41797-11.6602 7.08984-15.3516 11.6992-15.3516C16.3086-15.3516 20-11.6602 20.0098-7.05078C20.0195-2.44141 16.3184 1.25 11.709 1.25ZM7.98828-6.23047L10.8789-6.23047L10.8789-3.32031C10.8789-2.83203 11.2109-2.5 11.6895-2.5C12.1777-2.5 12.5195-2.83203 12.5195-3.32031L12.5195-6.23047L15.4297-6.23047C15.918-6.23047 16.25-6.5625 16.25-7.04102C16.25-7.5293 15.918-7.87109 15.4297-7.87109L12.5195-7.87109L12.5195-10.7617C12.5195-11.2695 12.1777-11.6016 11.6895-11.6016C11.2109-11.6016 10.8789-11.2598 10.8789-10.7617L10.8789-7.87109L7.98828-7.87109C7.48047-7.87109 7.14844-7.5293 7.14844-7.04102C7.14844-6.5625 7.49023-6.23047 7.98828-6.23047Z"/>
  </g>
  <g id="" transform="matrix(1 0 0 1 304.924 1933)">
   <path d="M14.9707 5.66406C21.9336 5.66406 27.6953-0.0976562 27.6953-7.05078C27.6953-14.0137 21.9238-19.7754 14.9609-19.7754C8.00781-19.7754 2.25586-14.0137 2.25586-7.05078C2.25586-0.0976562 8.01758 5.66406 14.9707 5.66406ZM14.9707 3.84766C8.93555 3.84766 4.08203-1.01562 4.08203-7.05078C4.08203-13.0957 8.92578-17.9492 14.9609-17.9492C21.0059-17.9492 25.8594-13.0957 25.8691-7.05078C25.8789-1.01562 21.0156 3.84766 14.9707 3.84766ZM10.0586-6.14258L14.0625-6.14258L14.0625-2.12891C14.0625-1.5918 14.4336-1.2207 14.9512-1.2207C15.4883-1.2207 15.8594-1.5918 15.8594-2.12891L15.8594-6.14258L19.8828-6.14258C20.4102-6.14258 20.791-6.51367 20.791-7.03125C20.791-7.56836 20.4199-7.94922 19.8828-7.94922L15.8594-7.94922L15.8594-11.9531C15.8594-12.5098 15.4883-12.8809 14.9512-12.8809C14.4336-12.8809 14.0625-12.5 14.0625-11.9531L14.0625-7.94922L10.0586-7.94922C9.50195-7.94922 9.13086-7.56836 9.13086-7.03125C9.13086-6.51367 9.51172-6.14258 10.0586-6.14258Z"/>
  </g>
  <text style="stroke:none;fill:black;font-family:-apple-system,&quot;SF Pro Display&quot;,&quot;SF Pro Text&quot;,Helvetica,sans-serif;font-weight:bold;" transform="matrix(1 0 0 1 263 1953)">Design Variations</text>
  <text style="stroke:none;fill:black;font-family:-apple-system,&quot;SF Pro Display&quot;,&quot;SF Pro Text&quot;,Helvetica,sans-serif;" transform="matrix(1 0 0 1 263 1971)">Symbols are supported in up to nine weights and three scales.</text>
  <text style="stroke:none;fill:black;font-family:-apple-system,&quot;SF Pro Display&quot;,&quot;SF Pro Text&quot;,Helvetica,sans-serif;" transform="matrix(1 0 0 1 263 1989)">For optimal layout with text and other symbols, vertically align</text>
  <text style="stroke:none;fill:black;font-family:-apple-system,&quot;SF Pro Display&quot;,&quot;SF Pro Text&quot;,Helvetica,sans-serif;" transform="matrix(1 0 0 1 263 2007)">symbols with the adjacent text.</text>
  <line id="" style="fill:none;stroke:#00AEEF;stroke-width:0.5;opacity:1.0;" x1="776" x2="776" y1="1919" y2="1933"/>
  <g id="" transform="matrix(1 0 0 1 776 1933)">
   <path d="M3.31055 0.126953C3.82812 0.126953 4.08203-0.0683594 4.26758-0.605469L5.52734-4.0625L11.2891-4.0625L12.5488-0.605469C12.7344-0.0683594 12.9883 0.126953 13.4961 0.126953C14.0137 0.126953 14.3457-0.185547 14.3457-0.673828C14.3457-0.839844 14.3164-0.986328 14.2383-1.20117L9.6582-13.3887C9.43359-13.9941 9.0332-14.2871 8.4082-14.2871C7.80273-14.2871 7.39258-13.9941 7.17773-13.3984L2.59766-1.19141C2.51953-0.976562 2.49023-0.830078 2.49023-0.664062C2.49023-0.175781 2.80273 0.126953 3.31055 0.126953ZM6.00586-5.53711L8.37891-12.1094L8.42773-12.1094L10.8008-5.53711Z"/>
  </g>
  <line id="" style="fill:none;stroke:#00AEEF;stroke-width:0.5;opacity:1.0;" x1="792.836" x2="792.836" y1="1919" y2="1933"/>
  <text style="stroke:none;fill:black;font-family:-apple-system,&quot;SF Pro Display&quot;,&quot;SF Pro Text&quot;,Helvetica,sans-serif;font-weight:bold;" transform="matrix(1 0 0 1 776 1953)">Margins</text>
  <text style="stroke:none;fill:black;font-family:-apple-system,&quot;SF Pro Display&quot;,&quot;SF Pro Text&quot;,Helvetica,sans-serif;" transform="matrix(1 0 0 1 776 1971)">Leading and trailing margins on the left and right side of each symbol</text>
  <text style="stroke:none;fill:black;font-family:-apple-system,&quot;SF Pro Display&quot;,&quot;SF Pro Text&quot;,Helvetica,sans-serif;" transform="matrix(1 0 0 1 776 1989)">can be adjusted by modifying the x-location of the margin guidelines.</text>
  <text style="stroke:none;fill:black;font-family:-apple-system,&quot;SF Pro Display&quot;,&quot;SF Pro Text&quot;,Helvetica,sans-serif;" transform="matrix(1 0 0 1 776 2007)">Modifications are automatically applied proportionally to all</text>
  <text style="stroke:none;fill:black;font-family:-apple-system,&quot;SF Pro Display&quot;,&quot;SF Pro Text&quot;,Helvetica,sans-serif;" transform="matrix(1 0 0 1 776 2025)">scales and weights.</text>
  <g id="" transform="matrix(1 0 0 1 1289 1933)">
   <path d="M2.8418 1.86523L4.54102 3.57422C5.40039 4.44336 6.38672 4.38477 7.31445 3.35938L17.4902-7.85156C17.7539-7.76367 18.0273-7.7832 18.3398-7.8418L19.4043-8.03711L20.0684-7.36328L20.0293-6.80664C19.9902-6.30859 20.1172-5.92773 20.6055-5.44922L21.3672-4.70703C21.8457-4.22852 22.4609-4.19922 22.9297-4.66797L25.8398-7.58789C26.3086-8.05664 26.2891-8.65234 25.8105-9.13086L25.0391-9.89258C24.5605-10.3711 24.1895-10.5273 23.7109-10.4883L23.1348-10.4395L22.4902-11.0742L22.7344-12.1973C22.8613-12.7637 22.7051-13.2031 22.1191-13.7891L19.9219-15.9766C16.582-19.2969 12.1484-19.2188 9.25781-16.3281C8.83789-15.918 8.80859-15.3418 9.04297-14.9512C9.27734-14.5898 9.73633-14.3555 10.3809-14.5215C11.8457-14.8633 13.3691-14.9219 14.7949-13.9844L14.209-12.5293C14.0137-12.0508 13.9844-11.6504 14.1113-11.2891L3.04688-0.898438C2.06055 0.0195312 1.98242 0.996094 2.8418 1.86523ZM10.752-15.957C13.1836-17.7344 16.4746-17.4316 18.7012-15.2051L21.1328-12.793C21.3672-12.5586 21.4062-12.373 21.3379-12.0312L21.0156-10.5469L22.5195-9.0625L23.5059-9.12109C23.7598-9.13086 23.8379-9.11133 24.0332-8.91602L24.6094-8.33984L22.168-5.89844L21.5918-6.47461C21.3965-6.66992 21.3672-6.74805 21.377-7.01172L21.4453-7.98828L19.9512-9.47266L18.4277-9.21875C18.1055-9.15039 17.959-9.17969 17.7148-9.41406L15.7129-11.416C15.459-11.6504 15.4297-11.8164 15.5859-12.1875L16.4648-14.2773C14.9023-15.7324 12.8711-16.3574 10.8398-15.7617C10.6836-15.7227 10.625-15.8496 10.752-15.957ZM5.27344 2.30469L4.10156 1.14258C3.63281 0.683594 3.74023 0.341797 4.14062-0.0195312L14.9512-10.1953L16.416-8.71094L6.42578 2.27539C6.07422 2.67578 5.74219 2.77344 5.27344 2.30469Z"/>
  </g>
  <text style="stroke:none;fill:black;font-family:-apple-system,&quot;SF Pro Display&quot;,&quot;SF Pro Text&quot;,Helvetica,sans-serif;font-weight:bold;" transform="matrix(1 0 0 1 1289 1953)">Exporting</text>
  <text style="stroke:none;fill:black;font-family:-apple-system,&quot;SF Pro Display&quot;,&quot;SF Pro Text&quot;,Helvetica,sans-serif;" transform="matrix(1 0 0 1 1289 1971)">Symbols should be outlined when exporting to ensure the</text>
  <text style="stroke:none;fill:black;font-family:-apple-system,&quot;SF Pro Display&quot;,&quot;SF Pro Text&quot;,Helvetica,sans-serif;" transform="matrix(1 0 0 1 1289 1989)">design is preserved when submitting to Xcode.</text>
  <text id="template-version" style="stroke:none;fill:black;font-family:-apple-system,&quot;SF Pro Display&quot;,&quot;SF Pro Text&quot;,Helvetica,sans-serif;text-anchor:end;" transform="matrix(1 0 0 1 3036 1933)">Template v.2.0</text>
  <text style="stroke:none;fill:black;font-family:-apple-system,&quot;SF Pro Display&quot;,&quot;SF Pro Text&quot;,Helvetica,sans-serif;text-anchor:end;" transform="matrix(1 0 0 1 3036 1951)">Requires Xcode 12 or greater</text>
  <text style="stroke:none;fill:black;font-family:-apple-system,&quot;SF Pro Display&quot;,&quot;SF Pro Text&quot;,Helvetica,sans-serif;" transform="matrix(1 0 0 1 263 726)">Small</text>
  <text style="stroke:none;fill:black;font-family:-apple-system,&quot;SF Pro Display&quot;,&quot;SF Pro Text&quot;,Helvetica,sans-serif;" transform="matrix(1 0 0 1 263 1156)">Medium</text>
  <text style="stroke:none;fill:black;font-family:-apple-system,&quot;SF Pro Display&quot;,&quot;SF Pro Text&quot;,Helvetica,sans-serif;" transform="matrix(1 0 0 1 263 1586)">Large</text>
 </g>
 <g id="Guides">
  <g id="H-reference" style="fill:#27AAE1;stroke:none;" transform="matrix(1 0 0 1 339 696)">
   <path d="M0.976562 0L3.66211 0L12.9883-24.4629L45.752-24.4629L55.127 0L57.7637 0L30.6152-70.459L28.125-70.459ZM29.3457-67.1387L29.4434-67.1387L44.873-26.709L13.8672-26.709Z"/>
  </g>
  <line id="Baseline-S" style="fill:none;stroke:#27AAE1;opacity:1;stroke-width:0.5;" x1="263" x2="3036" y1="696" y2="696"/>
  <line id="Capline-S" style="fill:none;stroke:#27AAE1;opacity:1;stroke-width:0.5;" x1="263" x2="3036" y1="625.541" y2="625.541"/>
  <g id="H-reference" style="fill:#27AAE1;stroke:none;" transform="matrix(1 0 0 1 339 1126)">
   <path d="M0.976562 0L3.66211 0L12.9883-24.4629L45.752-24.4629L55.127 0L57.7637 0L30.6152-70.459L28.125-70.459ZM29.3457-67.1387L29.4434-67.1387L44.873-26.709L13.8672-26.709Z"/>
  </g>
  <line id="Baseline-M" style="fill:none;stroke:#27AAE1;opacity:1;stroke-width:0.5;" x1="263" x2="3036" y1="1126" y2="1126"/>
  <line id="Capline-M" style="fill:none;stroke:#27AAE1;opacity:1;stroke-width:0.5;" x1="263" x2="3036" y1="1055.54" y2="1055.54"/>
  <g id="H-reference" style="fill:#27AAE1;stroke:none;" transform="matrix(1 0 0 1 339 1556)">
   <path d="M0.976562 0L3.66211 0L12.9883-24.4629L45.752-24.4629L55.127 0L57.7637 0L30.6152-70.459L28.125-70.459ZM29.3457-67.1387L29.4434-67.1387L44.873-26.709L13.8672-26.709Z"/>
  </g>
  <line id="Baseline-L" style="fill:none;stroke:#27AAE1;opacity:1;stroke-width:0.5;" x1="263" x2="3036" y1="1556" y2="1556"/>
  <line id="Capline-L" style="fill:none;stroke:#27AAE1;opacity:1;stroke-width:0.5;" x1="263" x2="3036" y1="1485.54" y2="1485.54"/>
  <line id="left-margin" x1="1401.7066461049908" x2="1401.7066461049908" y1="1030.79" y2="1150.12" style="fill:none;stroke:#00AEEF;stroke-width:0.5;opacity:1.0;"/>
  <line id="right-margin" x1="1500.553353895009" x2="1500.553353895009" y1="1030.79" y2="1150.12" style="fill:none;stroke:#00AEEF;stroke-width:0.5;opacity:1.0;"/>
 </g>
 <g id="Symbols">
  <g id="Black-L" transform="matrix(1.0,0.0,0.0,1.0,2852.941376250562,1439.031395781812)">  <path stroke-linejoin="miter" stroke-opacity="1" stroke-linecap="butt" fill-opacity="1" fill="#000000" version="1.1" stroke-miterlimit="4" fill-rule="nonzero" stroke-width="1px" stroke-dasharray="none" xmlns:xlink="http://www.w3.org/1999/xlink" stroke="none" d="M23.841,63.658C23.928,57.893,25.62,50.879,28.353,44.142C30.132,39.757,32.29,35.516,34.444,31.301C35.957,28.348,37.741,27.948,40.674,29.416C48.954,33.55,56.502,38.7,63.018,45.323C68.997,51.403,72.765,58.637,74.565,66.966C77.611,81.044,80.724,95.113,83.805,109.182C86.65,122.167,89.486,135.157,92.347,148.138C93.224,152.107,91.363,155.419,87.461,156.615C80.4,158.777,73.33,160.922,66.259,163.048C62.075,164.307,58.896,162.777,57.307,158.72C51.241,143.239,45.191,127.754,39.13,112.273C35.034,101.803,30.927,91.344,26.84,80.87C24.887,75.843,23.83,70.631,23.841,63.658ZM133.186,2.84C137.565,13.366,140.411,24.225,139.827,35.742C139.503,42.078,137.58,47.983,134.561,53.543C123.855,73.26,113.159,92.982,102.453,112.699C99.802,117.582,97.126,122.449,94.454,127.322C94.248,127.696,94.004,128.047,93.661,128.574L93.483,128.847L93.247,127.797C92.777,125.722,92.345,123.846,91.932,121.967C88.025,104.14,84.128,86.312,80.221,68.491C79.836,66.74,79.395,64.994,79.052,63.238C78.954,62.729,78.975,62.128,79.144,61.641C82.503,52.086,85.907,42.551,89.265,32.995C92.645,23.378,98.91,16.102,107.278,10.485C113.631,6.224,120.429,2.886,127.649,0.401C130.407,-0.549,132.069,0.16,133.186,2.84ZM36.746,46.494C38.741,46.514,39.884,48.07,39.382,49.878C38.843,51.808,38.197,53.713,37.654,55.644C35.531,63.191,35.818,70.59,39.002,77.83C39.961,80.002,39.51,81.563,37.915,82.194C36.29,82.836,35.069,81.969,34.141,79.771C31.88,74.405,30.747,68.85,31.132,63.017C31.465,57.898,32.767,52.989,34.48,48.183C34.88,47.069,35.767,46.525,36.751,46.499ZM97.495,31.979C96.444,34.5,95.495,37.062,94.593,39.644C94.203,40.769,94.849,41.97,95.926,42.551C96.972,43.115,98.526,43.002,99.018,41.934C100.351,39.044,101.433,36.035,102.448,33.483C102.458,31.789,101.684,30.751,100.53,30.433C99.341,30.104,98.049,30.649,97.495,31.979ZM119.85,11.492C117.189,12.934,114.466,14.326,111.99,16.051C109.232,17.971,106.694,20.22,104.114,22.382C103.191,23.157,103.017,24.333,103.617,25.304C104.078,26.048,104.981,26.52,105.724,27.152C106.601,26.695,107.304,26.5,107.755,26.053C111.995,21.915,116.933,18.814,122.167,16.138C123.855,15.276,124.409,13.879,123.69,12.472C122.968,11.055,121.486,10.603,119.85,11.492ZM119.85,11.492"/>
</g>
  <g id="Heavy-L" transform="matrix(1.0,0.0,0.0,1.0,2556.231376250562,1439.031395781812)">  <path stroke-width="1px" stroke-dasharray="none" stroke-miterlimit="4" stroke="none" stroke-linecap="butt" fill="#000000" xmlns:xlink="http://www.w3.org/1999/xlink" fill-rule="nonzero" stroke-linejoin="miter" stroke-opacity="1" fill-opacity="1" version="1.1" d="M23.841,63.658C23.928,57.893,25.62,50.879,28.353,44.142C30.132,39.757,32.29,35.516,34.444,31.301C35.957,28.348,37.741,27.948,40.674,29.416C48.954,33.55,56.502,38.7,63.018,45.323C68.997,51.403,72.765,58.637,74.565,66.966C77.611,81.044,80.724,95.113,83.805,109.182C86.65,122.167,89.486,135.157,92.347,148.138C93.224,152.107,91.363,155.419,87.461,156.615C80.4,158.777,73.33,160.922,66.259,163.048C62.075,164.307,58.896,162.777,57.307,158.72C51.241,143.239,45.191,127.754,39.13,112.273C35.034,101.803,30.927,91.344,26.84,80.87C24.887,75.843,23.83,70.631,23.841,63.658ZM133.186,2.84C137.565,13.366,140.411,24.225,139.827,35.742C139.503,42.078,137.58,47.983,134.561,53.543C123.855,73.26,113.159,92.982,102.453,112.699C99.802,117.582,97.126,122.449,94.454,127.322C94.248,127.696,94.004,128.047,93.661,128.574L93.483,128.847L93.247,127.797C92.777,125.722,92.345,123.846,91.932,121.967C88.025,104.14,84.128,86.312,80.221,68.491C79.836,66.74,79.395,64.994,79.052,63.238C78.954,62.729,78.975,62.128,79.144,61.641C82.503,52.086,85.907,42.551,89.265,32.995C92.645,23.378,98.91,16.102,107.278,10.485C113.631,6.224,120.429,2.886,127.649,0.401C130.407,-0.549,132.069,0.16,133.186,2.84ZM36.746,46.494C38.741,46.514,39.884,48.07,39.382,49.878C38.843,51.808,38.197,53.713,37.654,55.644C35.531,63.191,35.818,70.59,39.002,77.83C39.961,80.002,39.51,81.563,37.915,82.194C36.29,82.836,35.069,81.969,34.141,79.771C31.88,74.405,30.747,68.85,31.132,63.017C31.465,57.898,32.767,52.989,34.48,48.183C34.88,47.069,35.767,46.525,36.751,46.499ZM97.495,31.979C96.444,34.5,95.495,37.062,94.593,39.644C94.203,40.769,94.849,41.97,95.926,42.551C96.972,43.115,98.526,43.002,99.018,41.934C100.351,39.044,101.433,36.035,102.448,33.483C102.458,31.789,101.684,30.751,100.53,30.433C99.341,30.104,98.049,30.649,97.495,31.979ZM119.85,11.492C117.189,12.934,114.466,14.326,111.99,16.051C109.232,17.971,106.694,20.22,104.114,22.382C103.191,23.157,103.017,24.333,103.617,25.304C104.078,26.048,104.981,26.52,105.724,27.152C106.601,26.695,107.304,26.5,107.755,26.053C111.995,21.915,116.933,18.814,122.167,16.138C123.855,15.276,124.409,13.879,123.69,12.472C122.968,11.055,121.486,10.603,119.85,11.492ZM119.85,11.492"/>
</g>
  <g id="Bold-L" transform="matrix(1.0,0.0,0.0,1.0,2259.521376250562,1439.031395781812)">  <path stroke-opacity="1" stroke="none" fill="#000000" stroke-miterlimit="4" stroke-linejoin="miter" fill-rule="nonzero" stroke-dasharray="none" version="1.1" stroke-width="1px" stroke-linecap="butt" xmlns:xlink="http://www.w3.org/1999/xlink" fill-opacity="1" d="M23.841,63.658C23.928,57.893,25.62,50.879,28.353,44.142C30.132,39.757,32.29,35.516,34.444,31.301C35.957,28.348,37.741,27.948,40.674,29.416C48.954,33.55,56.502,38.7,63.018,45.323C68.997,51.403,72.765,58.637,74.565,66.966C77.611,81.044,80.724,95.113,83.805,109.182C86.65,122.167,89.486,135.157,92.347,148.138C93.224,152.107,91.363,155.419,87.461,156.615C80.4,158.777,73.33,160.922,66.259,163.048C62.075,164.307,58.896,162.777,57.307,158.72C51.241,143.239,45.191,127.754,39.13,112.273C35.034,101.803,30.927,91.344,26.84,80.87C24.887,75.843,23.83,70.631,23.841,63.658ZM133.186,2.84C137.565,13.366,140.411,24.225,139.827,35.742C139.503,42.078,137.58,47.983,134.561,53.543C123.855,73.26,113.159,92.982,102.453,112.699C99.802,117.582,97.126,122.449,94.454,127.322C94.248,127.696,94.004,128.047,93.661,128.574L93.483,128.847L93.247,127.797C92.777,125.722,92.345,123.846,91.932,121.967C88.025,104.14,84.128,86.312,80.221,68.491C79.836,66.74,79.395,64.994,79.052,63.238C78.954,62.729,78.975,62.128,79.144,61.641C82.503,52.086,85.907,42.551,89.265,32.995C92.645,23.378,98.91,16.102,107.278,10.485C113.631,6.224,120.429,2.886,127.649,0.401C130.407,-0.549,132.069,0.16,133.186,2.84ZM36.746,46.494C38.741,46.514,39.884,48.07,39.382,49.878C38.843,51.808,38.197,53.713,37.654,55.644C35.531,63.191,35.818,70.59,39.002,77.83C39.961,80.002,39.51,81.563,37.915,82.194C36.29,82.836,35.069,81.969,34.141,79.771C31.88,74.405,30.747,68.85,31.132,63.017C31.465,57.898,32.767,52.989,34.48,48.183C34.88,47.069,35.767,46.525,36.751,46.499ZM97.495,31.979C96.444,34.5,95.495,37.062,94.593,39.644C94.203,40.769,94.849,41.97,95.926,42.551C96.972,43.115,98.526,43.002,99.018,41.934C100.351,39.044,101.433,36.035,102.448,33.483C102.458,31.789,101.684,30.751,100.53,30.433C99.341,30.104,98.049,30.649,97.495,31.979ZM119.85,11.492C117.189,12.934,114.466,14.326,111.99,16.051C109.232,17.971,106.694,20.22,104.114,22.382C103.191,23.157,103.017,24.333,103.617,25.304C104.078,26.048,104.981,26.52,105.724,27.152C106.601,26.695,107.304,26.5,107.755,26.053C111.995,21.915,116.933,18.814,122.167,16.138C123.855,15.276,124.409,13.879,123.69,12.472C122.968,11.055,121.486,10.603,119.85,11.492ZM119.85,11.492"/>
</g>
  <g id="Semibold-L" transform="matrix(1.0,0.0,0.0,1.0,1962.811376250562,1439.031395781812)">  <path stroke-width="1px" stroke-opacity="1" stroke="none" fill-rule="nonzero" stroke-dasharray="none" stroke-miterlimit="4" xmlns:xlink="http://www.w3.org/1999/xlink" stroke-linecap="butt" fill-opacity="1" version="1.1" stroke-linejoin="miter" fill="#000000" d="M23.841,63.658C23.928,57.893,25.62,50.879,28.353,44.142C30.132,39.757,32.29,35.516,34.444,31.301C35.957,28.348,37.741,27.948,40.674,29.416C48.954,33.55,56.502,38.7,63.018,45.323C68.997,51.403,72.765,58.637,74.565,66.966C77.611,81.044,80.724,95.113,83.805,109.182C86.65,122.167,89.486,135.157,92.347,148.138C93.224,152.107,91.363,155.419,87.461,156.615C80.4,158.777,73.33,160.922,66.259,163.048C62.075,164.307,58.896,162.777,57.307,158.72C51.241,143.239,45.191,127.754,39.13,112.273C35.034,101.803,30.927,91.344,26.84,80.87C24.887,75.843,23.83,70.631,23.841,63.658ZM133.186,2.84C137.565,13.366,140.411,24.225,139.827,35.742C139.503,42.078,137.58,47.983,134.561,53.543C123.855,73.26,113.159,92.982,102.453,112.699C99.802,117.582,97.126,122.449,94.454,127.322C94.248,127.696,94.004,128.047,93.661,128.574L93.483,128.847L93.247,127.797C92.777,125.722,92.345,123.846,91.932,121.967C88.025,104.14,84.128,86.312,80.221,68.491C79.836,66.74,79.395,64.994,79.052,63.238C78.954,62.729,78.975,62.128,79.144,61.641C82.503,52.086,85.907,42.551,89.265,32.995C92.645,23.378,98.91,16.102,107.278,10.485C113.631,6.224,120.429,2.886,127.649,0.401C130.407,-0.549,132.069,0.16,133.186,2.84ZM36.746,46.494C38.741,46.514,39.884,48.07,39.382,49.878C38.843,51.808,38.197,53.713,37.654,55.644C35.531,63.191,35.818,70.59,39.002,77.83C39.961,80.002,39.51,81.563,37.915,82.194C36.29,82.836,35.069,81.969,34.141,79.771C31.88,74.405,30.747,68.85,31.132,63.017C31.465,57.898,32.767,52.989,34.48,48.183C34.88,47.069,35.767,46.525,36.751,46.499ZM97.495,31.979C96.444,34.5,95.495,37.062,94.593,39.644C94.203,40.769,94.849,41.97,95.926,42.551C96.972,43.115,98.526,43.002,99.018,41.934C100.351,39.044,101.433,36.035,102.448,33.483C102.458,31.789,101.684,30.751,100.53,30.433C99.341,30.104,98.049,30.649,97.495,31.979ZM119.85,11.492C117.189,12.934,114.466,14.326,111.99,16.051C109.232,17.971,106.694,20.22,104.114,22.382C103.191,23.157,103.017,24.333,103.617,25.304C104.078,26.048,104.981,26.52,105.724,27.152C106.601,26.695,107.304,26.5,107.755,26.053C111.995,21.915,116.933,18.814,122.167,16.138C123.855,15.276,124.409,13.879,123.69,12.472C122.968,11.055,121.486,10.603,119.85,11.492ZM119.85,11.492"/>
</g>
  <g id="Medium-L" transform="matrix(1.0,0.0,0.0,1.0,1666.101376250562,1439.031395781812)">  <path xmlns:xlink="http://www.w3.org/1999/xlink" stroke-width="1px" stroke-linecap="butt" stroke="none" fill-opacity="1" version="1.1" stroke-opacity="1" stroke-dasharray="none" stroke-linejoin="miter" fill="#000000" fill-rule="nonzero" stroke-miterlimit="4" d="M23.841,63.658C23.928,57.893,25.62,50.879,28.353,44.142C30.132,39.757,32.29,35.516,34.444,31.301C35.957,28.348,37.741,27.948,40.674,29.416C48.954,33.55,56.502,38.7,63.018,45.323C68.997,51.403,72.765,58.637,74.565,66.966C77.611,81.044,80.724,95.113,83.805,109.182C86.65,122.167,89.486,135.157,92.347,148.138C93.224,152.107,91.363,155.419,87.461,156.615C80.4,158.777,73.33,160.922,66.259,163.048C62.075,164.307,58.896,162.777,57.307,158.72C51.241,143.239,45.191,127.754,39.13,112.273C35.034,101.803,30.927,91.344,26.84,80.87C24.887,75.843,23.83,70.631,23.841,63.658ZM133.186,2.84C137.565,13.366,140.411,24.225,139.827,35.742C139.503,42.078,137.58,47.983,134.561,53.543C123.855,73.26,113.159,92.982,102.453,112.699C99.802,117.582,97.126,122.449,94.454,127.322C94.248,127.696,94.004,128.047,93.661,128.574L93.483,128.847L93.247,127.797C92.777,125.722,92.345,123.846,91.932,121.967C88.025,104.14,84.128,86.312,80.221,68.491C79.836,66.74,79.395,64.994,79.052,63.238C78.954,62.729,78.975,62.128,79.144,61.641C82.503,52.086,85.907,42.551,89.265,32.995C92.645,23.378,98.91,16.102,107.278,10.485C113.631,6.224,120.429,2.886,127.649,0.401C130.407,-0.549,132.069,0.16,133.186,2.84ZM36.746,46.494C38.741,46.514,39.884,48.07,39.382,49.878C38.843,51.808,38.197,53.713,37.654,55.644C35.531,63.191,35.818,70.59,39.002,77.83C39.961,80.002,39.51,81.563,37.915,82.194C36.29,82.836,35.069,81.969,34.141,79.771C31.88,74.405,30.747,68.85,31.132,63.017C31.465,57.898,32.767,52.989,34.48,48.183C34.88,47.069,35.767,46.525,36.751,46.499ZM97.495,31.979C96.444,34.5,95.495,37.062,94.593,39.644C94.203,40.769,94.849,41.97,95.926,42.551C96.972,43.115,98.526,43.002,99.018,41.934C100.351,39.044,101.433,36.035,102.448,33.483C102.458,31.789,101.684,30.751,100.53,30.433C99.341,30.104,98.049,30.649,97.495,31.979ZM119.85,11.492C117.189,12.934,114.466,14.326,111.99,16.051C109.232,17.971,106.694,20.22,104.114,22.382C103.191,23.157,103.017,24.333,103.617,25.304C104.078,26.048,104.981,26.52,105.724,27.152C106.601,26.695,107.304,26.5,107.755,26.053C111.995,21.915,116.933,18.814,122.167,16.138C123.855,15.276,124.409,13.879,123.69,12.472C122.968,11.055,121.486,10.603,119.85,11.492ZM119.85,11.492"/>
</g>
  <g id="Regular-L" transform="matrix(1.0,0.0,0.0,1.0,1369.391376250562,1439.031395781812)">  <path stroke-dasharray="none" fill-opacity="1" stroke-width="1px" stroke-linejoin="miter" version="1.1" stroke="none" xmlns:xlink="http://www.w3.org/1999/xlink" stroke-linecap="butt" stroke-miterlimit="4" fill="#000000" fill-rule="nonzero" stroke-opacity="1" d="M23.841,63.658C23.928,57.893,25.62,50.879,28.353,44.142C30.132,39.757,32.29,35.516,34.444,31.301C35.957,28.348,37.741,27.948,40.674,29.416C48.954,33.55,56.502,38.7,63.018,45.323C68.997,51.403,72.765,58.637,74.565,66.966C77.611,81.044,80.724,95.113,83.805,109.182C86.65,122.167,89.486,135.157,92.347,148.138C93.224,152.107,91.363,155.419,87.461,156.615C80.4,158.777,73.33,160.922,66.259,163.048C62.075,164.307,58.896,162.777,57.307,158.72C51.241,143.239,45.191,127.754,39.13,112.273C35.034,101.803,30.927,91.344,26.84,80.87C24.887,75.843,23.83,70.631,23.841,63.658ZM133.186,2.84C137.565,13.366,140.411,24.225,139.827,35.742C139.503,42.078,137.58,47.983,134.561,53.543C123.855,73.26,113.159,92.982,102.453,112.699C99.802,117.582,97.126,122.449,94.454,127.322C94.248,127.696,94.004,128.047,93.661,128.574L93.483,128.847L93.247,127.797C92.777,125.722,92.345,123.846,91.932,121.967C88.025,104.14,84.128,86.312,80.221,68.491C79.836,66.74,79.395,64.994,79.052,63.238C78.954,62.729,78.975,62.128,79.144,61.641C82.503,52.086,85.907,42.551,89.265,32.995C92.645,23.378,98.91,16.102,107.278,10.485C113.631,6.224,120.429,2.886,127.649,0.401C130.407,-0.549,132.069,0.16,133.186,2.84ZM36.746,46.494C38.741,46.514,39.884,48.07,39.382,49.878C38.843,51.808,38.197,53.713,37.654,55.644C35.531,63.191,35.818,70.59,39.002,77.83C39.961,80.002,39.51,81.563,37.915,82.194C36.29,82.836,35.069,81.969,34.141,79.771C31.88,74.405,30.747,68.85,31.132,63.017C31.465,57.898,32.767,52.989,34.48,48.183C34.88,47.069,35.767,46.525,36.751,46.499ZM97.495,31.979C96.444,34.5,95.495,37.062,94.593,39.644C94.203,40.769,94.849,41.97,95.926,42.551C96.972,43.115,98.526,43.002,99.018,41.934C100.351,39.044,101.433,36.035,102.448,33.483C102.458,31.789,101.684,30.751,100.53,30.433C99.341,30.104,98.049,30.649,97.495,31.979ZM119.85,11.492C117.189,12.934,114.466,14.326,111.99,16.051C109.232,17.971,106.694,20.22,104.114,22.382C103.191,23.157,103.017,24.333,103.617,25.304C104.078,26.048,104.981,26.52,105.724,27.152C106.601,26.695,107.304,26.5,107.755,26.053C111.995,21.915,116.933,18.814,122.167,16.138C123.855,15.276,124.409,13.879,123.69,12.472C122.968,11.055,121.486,10.603,119.85,11.492ZM119.85,11.492"/>
</g>
  <g id="Light-L" transform="matrix(1.0,0.0,0.0,1.0,1072.6813762505622,1439.031395781812)">  <path stroke-width="1px" stroke-linejoin="miter" stroke-miterlimit="4" version="1.1" stroke="none" fill="#000000" fill-rule="nonzero" stroke-linecap="butt" stroke-dasharray="none" stroke-opacity="1" xmlns:xlink="http://www.w3.org/1999/xlink" fill-opacity="1" d="M23.841,63.658C23.928,57.893,25.62,50.879,28.353,44.142C30.132,39.757,32.29,35.516,34.444,31.301C35.957,28.348,37.741,27.948,40.674,29.416C48.954,33.55,56.502,38.7,63.018,45.323C68.997,51.403,72.765,58.637,74.565,66.966C77.611,81.044,80.724,95.113,83.805,109.182C86.65,122.167,89.486,135.157,92.347,148.138C93.224,152.107,91.363,155.419,87.461,156.615C80.4,158.777,73.33,160.922,66.259,163.048C62.075,164.307,58.896,162.777,57.307,158.72C51.241,143.239,45.191,127.754,39.13,112.273C35.034,101.803,30.927,91.344,26.84,80.87C24.887,75.843,23.83,70.631,23.841,63.658ZM133.186,2.84C137.565,13.366,140.411,24.225,139.827,35.742C139.503,42.078,137.58,47.983,134.561,53.543C123.855,73.26,113.159,92.982,102.453,112.699C99.802,117.582,97.126,122.449,94.454,127.322C94.248,127.696,94.004,128.047,93.661,128.574L93.483,128.847L93.247,127.797C92.777,125.722,92.345,123.846,91.932,121.967C88.025,104.14,84.128,86.312,80.221,68.491C79.836,66.74,79.395,64.994,79.052,63.238C78.954,62.729,78.975,62.128,79.144,61.641C82.503,52.086,85.907,42.551,89.265,32.995C92.645,23.378,98.91,16.102,107.278,10.485C113.631,6.224,120.429,2.886,127.649,0.401C130.407,-0.549,132.069,0.16,133.186,2.84ZM36.746,46.494C38.741,46.514,39.884,48.07,39.382,49.878C38.843,51.808,38.197,53.713,37.654,55.644C35.531,63.191,35.818,70.59,39.002,77.83C39.961,80.002,39.51,81.563,37.915,82.194C36.29,82.836,35.069,81.969,34.141,79.771C31.88,74.405,30.747,68.85,31.132,63.017C31.465,57.898,32.767,52.989,34.48,48.183C34.88,47.069,35.767,46.525,36.751,46.499ZM97.495,31.979C96.444,34.5,95.495,37.062,94.593,39.644C94.203,40.769,94.849,41.97,95.926,42.551C96.972,43.115,98.526,43.002,99.018,41.934C100.351,39.044,101.433,36.035,102.448,33.483C102.458,31.789,101.684,30.751,100.53,30.433C99.341,30.104,98.049,30.649,97.495,31.979ZM119.85,11.492C117.189,12.934,114.466,14.326,111.99,16.051C109.232,17.971,106.694,20.22,104.114,22.382C103.191,23.157,103.017,24.333,103.617,25.304C104.078,26.048,104.981,26.52,105.724,27.152C106.601,26.695,107.304,26.5,107.755,26.053C111.995,21.915,116.933,18.814,122.167,16.138C123.855,15.276,124.409,13.879,123.69,12.472C122.968,11.055,121.486,10.603,119.85,11.492ZM119.85,11.492"/>
</g>
  <g id="Thin-L" transform="matrix(1.0,0.0,0.0,1.0,775.9713762505621,1439.031395781812)">  <path stroke-opacity="1" version="1.1" xmlns:xlink="http://www.w3.org/1999/xlink" fill="#000000" stroke-dasharray="none" stroke-miterlimit="4" fill-rule="nonzero" stroke="none" fill-opacity="1" stroke-linecap="butt" stroke-width="1px" stroke-linejoin="miter" d="M23.841,63.658C23.928,57.893,25.62,50.879,28.353,44.142C30.132,39.757,32.29,35.516,34.444,31.301C35.957,28.348,37.741,27.948,40.674,29.416C48.954,33.55,56.502,38.7,63.018,45.323C68.997,51.403,72.765,58.637,74.565,66.966C77.611,81.044,80.724,95.113,83.805,109.182C86.65,122.167,89.486,135.157,92.347,148.138C93.224,152.107,91.363,155.419,87.461,156.615C80.4,158.777,73.33,160.922,66.259,163.048C62.075,164.307,58.896,162.777,57.307,158.72C51.241,143.239,45.191,127.754,39.13,112.273C35.034,101.803,30.927,91.344,26.84,80.87C24.887,75.843,23.83,70.631,23.841,63.658ZM133.186,2.84C137.565,13.366,140.411,24.225,139.827,35.742C139.503,42.078,137.58,47.983,134.561,53.543C123.855,73.26,113.159,92.982,102.453,112.699C99.802,117.582,97.126,122.449,94.454,127.322C94.248,127.696,94.004,128.047,93.661,128.574L93.483,128.847L93.247,127.797C92.777,125.722,92.345,123.846,91.932,121.967C88.025,104.14,84.128,86.312,80.221,68.491C79.836,66.74,79.395,64.994,79.052,63.238C78.954,62.729,78.975,62.128,79.144,61.641C82.503,52.086,85.907,42.551,89.265,32.995C92.645,23.378,98.91,16.102,107.278,10.485C113.631,6.224,120.429,2.886,127.649,0.401C130.407,-0.549,132.069,0.16,133.186,2.84ZM36.746,46.494C38.741,46.514,39.884,48.07,39.382,49.878C38.843,51.808,38.197,53.713,37.654,55.644C35.531,63.191,35.818,70.59,39.002,77.83C39.961,80.002,39.51,81.563,37.915,82.194C36.29,82.836,35.069,81.969,34.141,79.771C31.88,74.405,30.747,68.85,31.132,63.017C31.465,57.898,32.767,52.989,34.48,48.183C34.88,47.069,35.767,46.525,36.751,46.499ZM97.495,31.979C96.444,34.5,95.495,37.062,94.593,39.644C94.203,40.769,94.849,41.97,95.926,42.551C96.972,43.115,98.526,43.002,99.018,41.934C100.351,39.044,101.433,36.035,102.448,33.483C102.458,31.789,101.684,30.751,100.53,30.433C99.341,30.104,98.049,30.649,97.495,31.979ZM119.85,11.492C117.189,12.934,114.466,14.326,111.99,16.051C109.232,17.971,106.694,20.22,104.114,22.382C103.191,23.157,103.017,24.333,103.617,25.304C104.078,26.048,104.981,26.52,105.724,27.152C106.601,26.695,107.304,26.5,107.755,26.053C111.995,21.915,116.933,18.814,122.167,16.138C123.855,15.276,124.409,13.879,123.69,12.472C122.968,11.055,121.486,10.603,119.85,11.492ZM119.85,11.492"/>
</g>
  <g id="Ultralight-L" transform="matrix(1.0,0.0,0.0,1.0,479.2613762505621,1439.031395781812)">  <path stroke-width="1px" stroke-opacity="1" fill-opacity="1" fill="#000000" stroke-miterlimit="4" xmlns:xlink="http://www.w3.org/1999/xlink" fill-rule="nonzero" stroke="none" stroke-linejoin="miter" stroke-dasharray="none" version="1.1" stroke-linecap="butt" d="M23.841,63.658C23.928,57.893,25.62,50.879,28.353,44.142C30.132,39.757,32.29,35.516,34.444,31.301C35.957,28.348,37.741,27.948,40.674,29.416C48.954,33.55,56.502,38.7,63.018,45.323C68.997,51.403,72.765,58.637,74.565,66.966C77.611,81.044,80.724,95.113,83.805,109.182C86.65,122.167,89.486,135.157,92.347,148.138C93.224,152.107,91.363,155.419,87.461,156.615C80.4,158.777,73.33,160.922,66.259,163.048C62.075,164.307,58.896,162.777,57.307,158.72C51.241,143.239,45.191,127.754,39.13,112.273C35.034,101.803,30.927,91.344,26.84,80.87C24.887,75.843,23.83,70.631,23.841,63.658ZM133.186,2.84C137.565,13.366,140.411,24.225,139.827,35.742C139.503,42.078,137.58,47.983,134.561,53.543C123.855,73.26,113.159,92.982,102.453,112.699C99.802,117.582,97.126,122.449,94.454,127.322C94.248,127.696,94.004,128.047,93.661,128.574L93.483,128.847L93.247,127.797C92.777,125.722,92.345,123.846,91.932,121.967C88.025,104.14,84.128,86.312,80.221,68.491C79.836,66.74,79.395,64.994,79.052,63.238C78.954,62.729,78.975,62.128,79.144,61.641C82.503,52.086,85.907,42.551,89.265,32.995C92.645,23.378,98.91,16.102,107.278,10.485C113.631,6.224,120.429,2.886,127.649,0.401C130.407,-0.549,132.069,0.16,133.186,2.84ZM36.746,46.494C38.741,46.514,39.884,48.07,39.382,49.878C38.843,51.808,38.197,53.713,37.654,55.644C35.531,63.191,35.818,70.59,39.002,77.83C39.961,80.002,39.51,81.563,37.915,82.194C36.29,82.836,35.069,81.969,34.141,79.771C31.88,74.405,30.747,68.85,31.132,63.017C31.465,57.898,32.767,52.989,34.48,48.183C34.88,47.069,35.767,46.525,36.751,46.499ZM97.495,31.979C96.444,34.5,95.495,37.062,94.593,39.644C94.203,40.769,94.849,41.97,95.926,42.551C96.972,43.115,98.526,43.002,99.018,41.934C100.351,39.044,101.433,36.035,102.448,33.483C102.458,31.789,101.684,30.751,100.53,30.433C99.341,30.104,98.049,30.649,97.495,31.979ZM119.85,11.492C117.189,12.934,114.466,14.326,111.99,16.051C109.232,17.971,106.694,20.22,104.114,22.382C103.191,23.157,103.017,24.333,103.617,25.304C104.078,26.048,104.981,26.52,105.724,27.152C106.601,26.695,107.304,26.5,107.755,26.053C111.995,21.915,116.933,18.814,122.167,16.138C123.855,15.276,124.409,13.879,123.69,12.472C122.968,11.055,121.486,10.603,119.85,11.492ZM119.85,11.492"/>
</g>
  <g id="Black-M" transform="matrix(1.0,0.0,0.0,1.0,2871.3167257756295,1027.4067453068794)">  <path stroke-linejoin="miter" stroke-opacity="1" stroke-linecap="butt" fill-opacity="1" fill="#000000" version="1.1" stroke-miterlimit="4" fill-rule="nonzero" stroke-width="1px" stroke-dasharray="none" xmlns:xlink="http://www.w3.org/1999/xlink" stroke="none" d="M18.481,49.348C18.549,44.878,19.86,39.441,21.979,34.219C23.358,30.82,25.031,27.532,26.701,24.264C27.873,21.975,29.256,21.665,31.53,22.803C37.949,26.008,43.8,30,48.851,35.134C53.486,39.847,56.407,45.455,57.802,51.911C60.164,62.825,62.576,73.731,64.965,84.637C67.171,94.703,69.369,104.773,71.587,114.836C72.267,117.912,70.824,120.48,67.799,121.407C62.326,123.083,56.845,124.746,51.364,126.394C48.12,127.369,45.656,126.183,44.424,123.039C39.722,111.038,35.032,99.034,30.334,87.033C27.158,78.917,23.974,70.809,20.806,62.69C19.292,58.793,18.473,54.753,18.481,49.348ZM103.245,2.201C106.64,10.361,108.846,18.779,108.393,27.707C108.142,32.619,106.651,37.196,104.311,41.507C96.011,56.791,87.72,72.079,79.421,87.363C77.366,91.149,75.291,94.922,73.22,98.699C73.06,98.989,72.871,99.262,72.605,99.67L72.468,99.882L72.284,99.068C71.92,97.459,71.585,96.005,71.265,94.548C68.236,80.729,65.216,66.909,62.187,53.093C61.888,51.736,61.547,50.383,61.281,49.022C61.205,48.627,61.221,48.162,61.352,47.784C63.956,40.376,66.595,32.985,69.198,25.578C71.818,18.123,76.674,12.483,83.161,8.128C88.086,4.824,93.356,2.237,98.952,0.311C101.091,-0.426,102.379,0.124,103.245,2.201ZM28.485,36.042C30.032,36.058,30.918,37.264,30.528,38.665C30.111,40.161,29.61,41.638,29.189,43.135C27.543,48.986,27.766,54.721,30.234,60.333C30.978,62.017,30.628,63.227,29.392,63.717C28.132,64.214,27.186,63.542,26.466,61.838C24.713,57.679,23.835,53.372,24.133,48.851C24.391,44.882,25.401,41.077,26.729,37.351C27.039,36.487,27.726,36.066,28.489,36.046ZM75.578,24.79C74.762,26.744,74.027,28.73,73.328,30.732C73.026,31.604,73.526,32.535,74.361,32.985C75.172,33.423,76.376,33.335,76.758,32.507C77.791,30.266,78.63,27.934,79.417,25.956C79.425,24.642,78.825,23.838,77.931,23.591C77.008,23.337,76.007,23.759,75.578,24.79ZM92.907,8.908C90.844,10.027,88.734,11.105,86.814,12.443C84.676,13.931,82.708,15.675,80.709,17.35C79.993,17.951,79.858,18.863,80.323,19.615C80.681,20.192,81.381,20.559,81.957,21.048C82.636,20.694,83.181,20.543,83.531,20.196C86.818,16.988,90.645,14.584,94.703,12.51C96.011,11.842,96.441,10.759,95.884,9.668C95.324,8.57,94.175,8.22,92.907,8.908ZM92.907,8.908"/>
</g>
  <g id="Heavy-M" transform="matrix(1.0,0.0,0.0,1.0,2574.6067257756295,1027.4067453068794)">  <path stroke-width="1px" stroke-dasharray="none" stroke-miterlimit="4" stroke="none" stroke-linecap="butt" fill="#000000" xmlns:xlink="http://www.w3.org/1999/xlink" fill-rule="nonzero" stroke-linejoin="miter" stroke-opacity="1" fill-opacity="1" version="1.1" d="M18.481,49.348C18.549,44.878,19.86,39.441,21.979,34.219C23.358,30.82,25.031,27.532,26.701,24.264C27.873,21.975,29.256,21.665,31.53,22.803C37.949,26.008,43.8,30,48.851,35.134C53.486,39.847,56.407,45.455,57.802,51.911C60.164,62.825,62.576,73.731,64.965,84.637C67.171,94.703,69.369,104.773,71.587,114.836C72.267,117.912,70.824,120.48,67.799,121.407C62.326,123.083,56.845,124.746,51.364,126.394C48.12,127.369,45.656,126.183,44.424,123.039C39.722,111.038,35.032,99.034,30.334,87.033C27.158,78.917,23.974,70.809,20.806,62.69C19.292,58.793,18.473,54.753,18.481,49.348ZM103.245,2.201C106.64,10.361,108.846,18.779,108.393,27.707C108.142,32.619,106.651,37.196,104.311,41.507C96.011,56.791,87.72,72.079,79.421,87.363C77.366,91.149,75.291,94.922,73.22,98.699C73.06,98.989,72.871,99.262,72.605,99.67L72.468,99.882L72.284,99.068C71.92,97.459,71.585,96.005,71.265,94.548C68.236,80.729,65.216,66.909,62.187,53.093C61.888,51.736,61.547,50.383,61.281,49.022C61.205,48.627,61.221,48.162,61.352,47.784C63.956,40.376,66.595,32.985,69.198,25.578C71.818,18.123,76.674,12.483,83.161,8.128C88.086,4.824,93.356,2.237,98.952,0.311C101.091,-0.426,102.379,0.124,103.245,2.201ZM28.485,36.042C30.032,36.058,30.918,37.264,30.528,38.665C30.111,40.161,29.61,41.638,29.189,43.135C27.543,48.986,27.766,54.721,30.234,60.333C30.978,62.017,30.628,63.227,29.392,63.717C28.132,64.214,27.186,63.542,26.466,61.838C24.713,57.679,23.835,53.372,24.133,48.851C24.391,44.882,25.401,41.077,26.729,37.351C27.039,36.487,27.726,36.066,28.489,36.046ZM75.578,24.79C74.762,26.744,74.027,28.73,73.328,30.732C73.026,31.604,73.526,32.535,74.361,32.985C75.172,33.423,76.376,33.335,76.758,32.507C77.791,30.266,78.63,27.934,79.417,25.956C79.425,24.642,78.825,23.838,77.931,23.591C77.008,23.337,76.007,23.759,75.578,24.79ZM92.907,8.908C90.844,10.027,88.734,11.105,86.814,12.443C84.676,13.931,82.708,15.675,80.709,17.35C79.993,17.951,79.858,18.863,80.323,19.615C80.681,20.192,81.381,20.559,81.957,21.048C82.636,20.694,83.181,20.543,83.531,20.196C86.818,16.988,90.645,14.584,94.703,12.51C96.011,11.842,96.441,10.759,95.884,9.668C95.324,8.57,94.175,8.22,92.907,8.908ZM92.907,8.908"/>
</g>
  <g id="Bold-M" transform="matrix(1.0,0.0,0.0,1.0,2277.8967257756294,1027.4067453068794)">  <path stroke-opacity="1" stroke="none" fill="#000000" stroke-miterlimit="4" stroke-linejoin="miter" fill-rule="nonzero" stroke-dasharray="none" version="1.1" stroke-width="1px" stroke-linecap="butt" xmlns:xlink="http://www.w3.org/1999/xlink" fill-opacity="1" d="M18.481,49.348C18.549,44.878,19.86,39.441,21.979,34.219C23.358,30.82,25.031,27.532,26.701,24.264C27.873,21.975,29.256,21.665,31.53,22.803C37.949,26.008,43.8,30,48.851,35.134C53.486,39.847,56.407,45.455,57.802,51.911C60.164,62.825,62.576,73.731,64.965,84.637C67.171,94.703,69.369,104.773,71.587,114.836C72.267,117.912,70.824,120.48,67.799,121.407C62.326,123.083,56.845,124.746,51.364,126.394C48.12,127.369,45.656,126.183,44.424,123.039C39.722,111.038,35.032,99.034,30.334,87.033C27.158,78.917,23.974,70.809,20.806,62.69C19.292,58.793,18.473,54.753,18.481,49.348ZM103.245,2.201C106.64,10.361,108.846,18.779,108.393,27.707C108.142,32.619,106.651,37.196,104.311,41.507C96.011,56.791,87.72,72.079,79.421,87.363C77.366,91.149,75.291,94.922,73.22,98.699C73.06,98.989,72.871,99.262,72.605,99.67L72.468,99.882L72.284,99.068C71.92,97.459,71.585,96.005,71.265,94.548C68.236,80.729,65.216,66.909,62.187,53.093C61.888,51.736,61.547,50.383,61.281,49.022C61.205,48.627,61.221,48.162,61.352,47.784C63.956,40.376,66.595,32.985,69.198,25.578C71.818,18.123,76.674,12.483,83.161,8.128C88.086,4.824,93.356,2.237,98.952,0.311C101.091,-0.426,102.379,0.124,103.245,2.201ZM28.485,36.042C30.032,36.058,30.918,37.264,30.528,38.665C30.111,40.161,29.61,41.638,29.189,43.135C27.543,48.986,27.766,54.721,30.234,60.333C30.978,62.017,30.628,63.227,29.392,63.717C28.132,64.214,27.186,63.542,26.466,61.838C24.713,57.679,23.835,53.372,24.133,48.851C24.391,44.882,25.401,41.077,26.729,37.351C27.039,36.487,27.726,36.066,28.489,36.046ZM75.578,24.79C74.762,26.744,74.027,28.73,73.328,30.732C73.026,31.604,73.526,32.535,74.361,32.985C75.172,33.423,76.376,33.335,76.758,32.507C77.791,30.266,78.63,27.934,79.417,25.956C79.425,24.642,78.825,23.838,77.931,23.591C77.008,23.337,76.007,23.759,75.578,24.79ZM92.907,8.908C90.844,10.027,88.734,11.105,86.814,12.443C84.676,13.931,82.708,15.675,80.709,17.35C79.993,17.951,79.858,18.863,80.323,19.615C80.681,20.192,81.381,20.559,81.957,21.048C82.636,20.694,83.181,20.543,83.531,20.196C86.818,16.988,90.645,14.584,94.703,12.51C96.011,11.842,96.441,10.759,95.884,9.668C95.324,8.57,94.175,8.22,92.907,8.908ZM92.907,8.908"/>
</g>
  <g id="Semibold-M" transform="matrix(1.0,0.0,0.0,1.0,1981.1867257756294,1027.4067453068794)">  <path stroke-width="1px" stroke-opacity="1" stroke="none" fill-rule="nonzero" stroke-dasharray="none" stroke-miterlimit="4" xmlns:xlink="http://www.w3.org/1999/xlink" stroke-linecap="butt" fill-opacity="1" version="1.1" stroke-linejoin="miter" fill="#000000" d="M18.481,49.348C18.549,44.878,19.86,39.441,21.979,34.219C23.358,30.82,25.031,27.532,26.701,24.264C27.873,21.975,29.256,21.665,31.53,22.803C37.949,26.008,43.8,30,48.851,35.134C53.486,39.847,56.407,45.455,57.802,51.911C60.164,62.825,62.576,73.731,64.965,84.637C67.171,94.703,69.369,104.773,71.587,114.836C72.267,117.912,70.824,120.48,67.799,121.407C62.326,123.083,56.845,124.746,51.364,126.394C48.12,127.369,45.656,126.183,44.424,123.039C39.722,111.038,35.032,99.034,30.334,87.033C27.158,78.917,23.974,70.809,20.806,62.69C19.292,58.793,18.473,54.753,18.481,49.348ZM103.245,2.201C106.64,10.361,108.846,18.779,108.393,27.707C108.142,32.619,106.651,37.196,104.311,41.507C96.011,56.791,87.72,72.079,79.421,87.363C77.366,91.149,75.291,94.922,73.22,98.699C73.06,98.989,72.871,99.262,72.605,99.67L72.468,99.882L72.284,99.068C71.92,97.459,71.585,96.005,71.265,94.548C68.236,80.729,65.216,66.909,62.187,53.093C61.888,51.736,61.547,50.383,61.281,49.022C61.205,48.627,61.221,48.162,61.352,47.784C63.956,40.376,66.595,32.985,69.198,25.578C71.818,18.123,76.674,12.483,83.161,8.128C88.086,4.824,93.356,2.237,98.952,0.311C101.091,-0.426,102.379,0.124,103.245,2.201ZM28.485,36.042C30.032,36.058,30.918,37.264,30.528,38.665C30.111,40.161,29.61,41.638,29.189,43.135C27.543,48.986,27.766,54.721,30.234,60.333C30.978,62.017,30.628,63.227,29.392,63.717C28.132,64.214,27.186,63.542,26.466,61.838C24.713,57.679,23.835,53.372,24.133,48.851C24.391,44.882,25.401,41.077,26.729,37.351C27.039,36.487,27.726,36.066,28.489,36.046ZM75.578,24.79C74.762,26.744,74.027,28.73,73.328,30.732C73.026,31.604,73.526,32.535,74.361,32.985C75.172,33.423,76.376,33.335,76.758,32.507C77.791,30.266,78.63,27.934,79.417,25.956C79.425,24.642,78.825,23.838,77.931,23.591C77.008,23.337,76.007,23.759,75.578,24.79ZM92.907,8.908C90.844,10.027,88.734,11.105,86.814,12.443C84.676,13.931,82.708,15.675,80.709,17.35C79.993,17.951,79.858,18.863,80.323,19.615C80.681,20.192,81.381,20.559,81.957,21.048C82.636,20.694,83.181,20.543,83.531,20.196C86.818,16.988,90.645,14.584,94.703,12.51C96.011,11.842,96.441,10.759,95.884,9.668C95.324,8.57,94.175,8.22,92.907,8.908ZM92.907,8.908"/>
</g>
  <g id="Medium-M" transform="matrix(1.0,0.0,0.0,1.0,1684.4767257756293,1027.4067453068794)">  <path xmlns:xlink="http://www.w3.org/1999/xlink" stroke-width="1px" stroke-linecap="butt" stroke="none" fill-opacity="1" version="1.1" stroke-opacity="1" stroke-dasharray="none" stroke-linejoin="miter" fill="#000000" fill-rule="nonzero" stroke-miterlimit="4" d="M18.481,49.348C18.549,44.878,19.86,39.441,21.979,34.219C23.358,30.82,25.031,27.532,26.701,24.264C27.873,21.975,29.256,21.665,31.53,22.803C37.949,26.008,43.8,30,48.851,35.134C53.486,39.847,56.407,45.455,57.802,51.911C60.164,62.825,62.576,73.731,64.965,84.637C67.171,94.703,69.369,104.773,71.587,114.836C72.267,117.912,70.824,120.48,67.799,121.407C62.326,123.083,56.845,124.746,51.364,126.394C48.12,127.369,45.656,126.183,44.424,123.039C39.722,111.038,35.032,99.034,30.334,87.033C27.158,78.917,23.974,70.809,20.806,62.69C19.292,58.793,18.473,54.753,18.481,49.348ZM103.245,2.201C106.64,10.361,108.846,18.779,108.393,27.707C108.142,32.619,106.651,37.196,104.311,41.507C96.011,56.791,87.72,72.079,79.421,87.363C77.366,91.149,75.291,94.922,73.22,98.699C73.06,98.989,72.871,99.262,72.605,99.67L72.468,99.882L72.284,99.068C71.92,97.459,71.585,96.005,71.265,94.548C68.236,80.729,65.216,66.909,62.187,53.093C61.888,51.736,61.547,50.383,61.281,49.022C61.205,48.627,61.221,48.162,61.352,47.784C63.956,40.376,66.595,32.985,69.198,25.578C71.818,18.123,76.674,12.483,83.161,8.128C88.086,4.824,93.356,2.237,98.952,0.311C101.091,-0.426,102.379,0.124,103.245,2.201ZM28.485,36.042C30.032,36.058,30.918,37.264,30.528,38.665C30.111,40.161,29.61,41.638,29.189,43.135C27.543,48.986,27.766,54.721,30.234,60.333C30.978,62.017,30.628,63.227,29.392,63.717C28.132,64.214,27.186,63.542,26.466,61.838C24.713,57.679,23.835,53.372,24.133,48.851C24.391,44.882,25.401,41.077,26.729,37.351C27.039,36.487,27.726,36.066,28.489,36.046ZM75.578,24.79C74.762,26.744,74.027,28.73,73.328,30.732C73.026,31.604,73.526,32.535,74.361,32.985C75.172,33.423,76.376,33.335,76.758,32.507C77.791,30.266,78.63,27.934,79.417,25.956C79.425,24.642,78.825,23.838,77.931,23.591C77.008,23.337,76.007,23.759,75.578,24.79ZM92.907,8.908C90.844,10.027,88.734,11.105,86.814,12.443C84.676,13.931,82.708,15.675,80.709,17.35C79.993,17.951,79.858,18.863,80.323,19.615C80.681,20.192,81.381,20.559,81.957,21.048C82.636,20.694,83.181,20.543,83.531,20.196C86.818,16.988,90.645,14.584,94.703,12.51C96.011,11.842,96.441,10.759,95.884,9.668C95.324,8.57,94.175,8.22,92.907,8.908ZM92.907,8.908"/>
</g>
  <g id="Regular-M" transform="matrix(1.0,0.0,0.0,1.0,1387.7667257756293,1027.4067453068794)">  <path stroke-dasharray="none" fill-opacity="1" stroke-width="1px" stroke-linejoin="miter" version="1.1" stroke="none" xmlns:xlink="http://www.w3.org/1999/xlink" stroke-linecap="butt" stroke-miterlimit="4" fill="#000000" fill-rule="nonzero" stroke-opacity="1" d="M18.481,49.348C18.549,44.878,19.86,39.441,21.979,34.219C23.358,30.82,25.031,27.532,26.701,24.264C27.873,21.975,29.256,21.665,31.53,22.803C37.949,26.008,43.8,30,48.851,35.134C53.486,39.847,56.407,45.455,57.802,51.911C60.164,62.825,62.576,73.731,64.965,84.637C67.171,94.703,69.369,104.773,71.587,114.836C72.267,117.912,70.824,120.48,67.799,121.407C62.326,123.083,56.845,124.746,51.364,126.394C48.12,127.369,45.656,126.183,44.424,123.039C39.722,111.038,35.032,99.034,30.334,87.033C27.158,78.917,23.974,70.809,20.806,62.69C19.292,58.793,18.473,54.753,18.481,49.348ZM103.245,2.201C106.64,10.361,108.846,18.779,108.393,27.707C108.142,32.619,106.651,37.196,104.311,41.507C96.011,56.791,87.72,72.079,79.421,87.363C77.366,91.149,75.291,94.922,73.22,98.699C73.06,98.989,72.871,99.262,72.605,99.67L72.468,99.882L72.284,99.068C71.92,97.459,71.585,96.005,71.265,94.548C68.236,80.729,65.216,66.909,62.187,53.093C61.888,51.736,61.547,50.383,61.281,49.022C61.205,48.627,61.221,48.162,61.352,47.784C63.956,40.376,66.595,32.985,69.198,25.578C71.818,18.123,76.674,12.483,83.161,8.128C88.086,4.824,93.356,2.237,98.952,0.311C101.091,-0.426,102.379,0.124,103.245,2.201ZM28.485,36.042C30.032,36.058,30.918,37.264,30.528,38.665C30.111,40.161,29.61,41.638,29.189,43.135C27.543,48.986,27.766,54.721,30.234,60.333C30.978,62.017,30.628,63.227,29.392,63.717C28.132,64.214,27.186,63.542,26.466,61.838C24.713,57.679,23.835,53.372,24.133,48.851C24.391,44.882,25.401,41.077,26.729,37.351C27.039,36.487,27.726,36.066,28.489,36.046ZM75.578,24.79C74.762,26.744,74.027,28.73,73.328,30.732C73.026,31.604,73.526,32.535,74.361,32.985C75.172,33.423,76.376,33.335,76.758,32.507C77.791,30.266,78.63,27.934,79.417,25.956C79.425,24.642,78.825,23.838,77.931,23.591C77.008,23.337,76.007,23.759,75.578,24.79ZM92.907,8.908C90.844,10.027,88.734,11.105,86.814,12.443C84.676,13.931,82.708,15.675,80.709,17.35C79.993,17.951,79.858,18.863,80.323,19.615C80.681,20.192,81.381,20.559,81.957,21.048C82.636,20.694,83.181,20.543,83.531,20.196C86.818,16.988,90.645,14.584,94.703,12.51C96.011,11.842,96.441,10.759,95.884,9.668C95.324,8.57,94.175,8.22,92.907,8.908ZM92.907,8.908"/>
</g>
  <g id="Light-M" transform="matrix(1.0,0.0,0.0,1.0,1091.0567257756295,1027.4067453068794)">  <path stroke-width="1px" stroke-linejoin="miter" stroke-miterlimit="4" version="1.1" stroke="none" fill="#000000" fill-rule="nonzero" stroke-linecap="butt" stroke-dasharray="none" stroke-opacity="1" xmlns:xlink="http://www.w3.org/1999/xlink" fill-opacity="1" d="M18.481,49.348C18.549,44.878,19.86,39.441,21.979,34.219C23.358,30.82,25.031,27.532,26.701,24.264C27.873,21.975,29.256,21.665,31.53,22.803C37.949,26.008,43.8,30,48.851,35.134C53.486,39.847,56.407,45.455,57.802,51.911C60.164,62.825,62.576,73.731,64.965,84.637C67.171,94.703,69.369,104.773,71.587,114.836C72.267,117.912,70.824,120.48,67.799,121.407C62.326,123.083,56.845,124.746,51.364,126.394C48.12,127.369,45.656,126.183,44.424,123.039C39.722,111.038,35.032,99.034,30.334,87.033C27.158,78.917,23.974,70.809,20.806,62.69C19.292,58.793,18.473,54.753,18.481,49.348ZM103.245,2.201C106.64,10.361,108.846,18.779,108.393,27.707C108.142,32.619,106.651,37.196,104.311,41.507C96.011,56.791,87.72,72.079,79.421,87.363C77.366,91.149,75.291,94.922,73.22,98.699C73.06,98.989,72.871,99.262,72.605,99.67L72.468,99.882L72.284,99.068C71.92,97.459,71.585,96.005,71.265,94.548C68.236,80.729,65.216,66.909,62.187,53.093C61.888,51.736,61.547,50.383,61.281,49.022C61.205,48.627,61.221,48.162,61.352,47.784C63.956,40.376,66.595,32.985,69.198,25.578C71.818,18.123,76.674,12.483,83.161,8.128C88.086,4.824,93.356,2.237,98.952,0.311C101.091,-0.426,102.379,0.124,103.245,2.201ZM28.485,36.042C30.032,36.058,30.918,37.264,30.528,38.665C30.111,40.161,29.61,41.638,29.189,43.135C27.543,48.986,27.766,54.721,30.234,60.333C30.978,62.017,30.628,63.227,29.392,63.717C28.132,64.214,27.186,63.542,26.466,61.838C24.713,57.679,23.835,53.372,24.133,48.851C24.391,44.882,25.401,41.077,26.729,37.351C27.039,36.487,27.726,36.066,28.489,36.046ZM75.578,24.79C74.762,26.744,74.027,28.73,73.328,30.732C73.026,31.604,73.526,32.535,74.361,32.985C75.172,33.423,76.376,33.335,76.758,32.507C77.791,30.266,78.63,27.934,79.417,25.956C79.425,24.642,78.825,23.838,77.931,23.591C77.008,23.337,76.007,23.759,75.578,24.79ZM92.907,8.908C90.844,10.027,88.734,11.105,86.814,12.443C84.676,13.931,82.708,15.675,80.709,17.35C79.993,17.951,79.858,18.863,80.323,19.615C80.681,20.192,81.381,20.559,81.957,21.048C82.636,20.694,83.181,20.543,83.531,20.196C86.818,16.988,90.645,14.584,94.703,12.51C96.011,11.842,96.441,10.759,95.884,9.668C95.324,8.57,94.175,8.22,92.907,8.908ZM92.907,8.908"/>
</g>
  <g id="Thin-M" transform="matrix(1.0,0.0,0.0,1.0,794.3467257756296,1027.4067453068794)">  <path stroke-opacity="1" version="1.1" xmlns:xlink="http://www.w3.org/1999/xlink" fill="#000000" stroke-dasharray="none" stroke-miterlimit="4" fill-rule="nonzero" stroke="none" fill-opacity="1" stroke-linecap="butt" stroke-width="1px" stroke-linejoin="miter" d="M18.481,49.348C18.549,44.878,19.86,39.441,21.979,34.219C23.358,30.82,25.031,27.532,26.701,24.264C27.873,21.975,29.256,21.665,31.53,22.803C37.949,26.008,43.8,30,48.851,35.134C53.486,39.847,56.407,45.455,57.802,51.911C60.164,62.825,62.576,73.731,64.965,84.637C67.171,94.703,69.369,104.773,71.587,114.836C72.267,117.912,70.824,120.48,67.799,121.407C62.326,123.083,56.845,124.746,51.364,126.394C48.12,127.369,45.656,126.183,44.424,123.039C39.722,111.038,35.032,99.034,30.334,87.033C27.158,78.917,23.974,70.809,20.806,62.69C19.292,58.793,18.473,54.753,18.481,49.348ZM103.245,2.201C106.64,10.361,108.846,18.779,108.393,27.707C108.142,32.619,106.651,37.196,104.311,41.507C96.011,56.791,87.72,72.079,79.421,87.363C77.366,91.149,75.291,94.922,73.22,98.699C73.06,98.989,72.871,99.262,72.605,99.67L72.468,99.882L72.284,99.068C71.92,97.459,71.585,96.005,71.265,94.548C68.236,80.729,65.216,66.909,62.187,53.093C61.888,51.736,61.547,50.383,61.281,49.022C61.205,48.627,61.221,48.162,61.352,47.784C63.956,40.376,66.595,32.985,69.198,25.578C71.818,18.123,76.674,12.483,83.161,8.128C88.086,4.824,93.356,2.237,98.952,0.311C101.091,-0.426,102.379,0.124,103.245,2.201ZM28.485,36.042C30.032,36.058,30.918,37.264,30.528,38.665C30.111,40.161,29.61,41.638,29.189,43.135C27.543,48.986,27.766,54.721,30.234,60.333C30.978,62.017,30.628,63.227,29.392,63.717C28.132,64.214,27.186,63.542,26.466,61.838C24.713,57.679,23.835,53.372,24.133,48.851C24.391,44.882,25.401,41.077,26.729,37.351C27.039,36.487,27.726,36.066,28.489,36.046ZM75.578,24.79C74.762,26.744,74.027,28.73,73.328,30.732C73.026,31.604,73.526,32.535,74.361,32.985C75.172,33.423,76.376,33.335,76.758,32.507C77.791,30.266,78.63,27.934,79.417,25.956C79.425,24.642,78.825,23.838,77.931,23.591C77.008,23.337,76.007,23.759,75.578,24.79ZM92.907,8.908C90.844,10.027,88.734,11.105,86.814,12.443C84.676,13.931,82.708,15.675,80.709,17.35C79.993,17.951,79.858,18.863,80.323,19.615C80.681,20.192,81.381,20.559,81.957,21.048C82.636,20.694,83.181,20.543,83.531,20.196C86.818,16.988,90.645,14.584,94.703,12.51C96.011,11.842,96.441,10.759,95.884,9.668C95.324,8.57,94.175,8.22,92.907,8.908ZM92.907,8.908"/>
</g>
  <g id="Ultralight-M" transform="matrix(1.0,0.0,0.0,1.0,497.6367257756295,1027.4067453068794)">  <path stroke-width="1px" stroke-opacity="1" fill-opacity="1" fill="#000000" stroke-miterlimit="4" xmlns:xlink="http://www.w3.org/1999/xlink" fill-rule="nonzero" stroke="none" stroke-linejoin="miter" stroke-dasharray="none" version="1.1" stroke-linecap="butt" d="M18.481,49.348C18.549,44.878,19.86,39.441,21.979,34.219C23.358,30.82,25.031,27.532,26.701,24.264C27.873,21.975,29.256,21.665,31.53,22.803C37.949,26.008,43.8,30,48.851,35.134C53.486,39.847,56.407,45.455,57.802,51.911C60.164,62.825,62.576,73.731,64.965,84.637C67.171,94.703,69.369,104.773,71.587,114.836C72.267,117.912,70.824,120.48,67.799,121.407C62.326,123.083,56.845,124.746,51.364,126.394C48.12,127.369,45.656,126.183,44.424,123.039C39.722,111.038,35.032,99.034,30.334,87.033C27.158,78.917,23.974,70.809,20.806,62.69C19.292,58.793,18.473,54.753,18.481,49.348ZM103.245,2.201C106.64,10.361,108.846,18.779,108.393,27.707C108.142,32.619,106.651,37.196,104.311,41.507C96.011,56.791,87.72,72.079,79.421,87.363C77.366,91.149,75.291,94.922,73.22,98.699C73.06,98.989,72.871,99.262,72.605,99.67L72.468,99.882L72.284,99.068C71.92,97.459,71.585,96.005,71.265,94.548C68.236,80.729,65.216,66.909,62.187,53.093C61.888,51.736,61.547,50.383,61.281,49.022C61.205,48.627,61.221,48.162,61.352,47.784C63.956,40.376,66.595,32.985,69.198,25.578C71.818,18.123,76.674,12.483,83.161,8.128C88.086,4.824,93.356,2.237,98.952,0.311C101.091,-0.426,102.379,0.124,103.245,2.201ZM28.485,36.042C30.032,36.058,30.918,37.264,30.528,38.665C30.111,40.161,29.61,41.638,29.189,43.135C27.543,48.986,27.766,54.721,30.234,60.333C30.978,62.017,30.628,63.227,29.392,63.717C28.132,64.214,27.186,63.542,26.466,61.838C24.713,57.679,23.835,53.372,24.133,48.851C24.391,44.882,25.401,41.077,26.729,37.351C27.039,36.487,27.726,36.066,28.489,36.046ZM75.578,24.79C74.762,26.744,74.027,28.73,73.328,30.732C73.026,31.604,73.526,32.535,74.361,32.985C75.172,33.423,76.376,33.335,76.758,32.507C77.791,30.266,78.63,27.934,79.417,25.956C79.425,24.642,78.825,23.838,77.931,23.591C77.008,23.337,76.007,23.759,75.578,24.79ZM92.907,8.908C90.844,10.027,88.734,11.105,86.814,12.443C84.676,13.931,82.708,15.675,80.709,17.35C79.993,17.951,79.858,18.863,80.323,19.615C80.681,20.192,81.381,20.559,81.957,21.048C82.636,20.694,83.181,20.543,83.531,20.196C86.818,16.988,90.645,14.584,94.703,12.51C96.011,11.842,96.441,10.759,95.884,9.668C95.324,8.57,94.175,8.22,92.907,8.908ZM92.907,8.908"/>
</g>
  <g id="Black-S" transform="matrix(1.0,0.0,0.0,1.0,2885.066556282318,611.1565758135679)">  <path stroke-linejoin="miter" stroke-opacity="1" stroke-linecap="butt" fill-opacity="1" fill="#000000" version="1.1" stroke-miterlimit="4" fill-rule="nonzero" stroke-width="1px" stroke-dasharray="none" xmlns:xlink="http://www.w3.org/1999/xlink" stroke="none" d="M14.471,38.639C14.524,35.14,15.551,30.882,17.209,26.793C18.289,24.132,19.6,21.558,20.907,18.999C21.825,17.207,22.908,16.964,24.688,17.855C29.714,20.364,34.295,23.49,38.251,27.51C41.88,31.2,44.167,35.592,45.259,40.647C47.108,49.192,48.997,57.732,50.868,66.271C52.595,74.153,54.316,82.037,56.053,89.916C56.585,92.325,55.455,94.336,53.087,95.061C48.801,96.374,44.509,97.676,40.218,98.967C37.678,99.73,35.749,98.802,34.784,96.339C31.102,86.943,27.43,77.543,23.751,68.147C21.265,61.792,18.772,55.444,16.291,49.086C15.106,46.035,14.464,42.872,14.471,38.639ZM80.841,1.724C83.499,8.113,85.226,14.704,84.871,21.695C84.675,25.54,83.508,29.125,81.675,32.5C75.177,44.467,68.685,56.438,62.187,68.406C60.578,71.369,58.953,74.324,57.331,77.281C57.206,77.509,57.058,77.722,56.85,78.041L56.742,78.207L56.599,77.57C56.313,76.31,56.051,75.172,55.801,74.031C53.429,63.211,51.064,52.39,48.692,41.572C48.459,40.509,48.191,39.45,47.983,38.384C47.923,38.075,47.936,37.711,48.039,37.415C50.077,31.615,52.144,25.827,54.182,20.027C56.233,14.19,60.036,9.774,65.115,6.364C68.971,3.778,73.098,1.752,77.48,0.243C79.154,-0.333,80.163,0.097,80.841,1.724ZM22.304,28.221C23.515,28.233,24.209,29.177,23.904,30.275C23.577,31.446,23.185,32.603,22.855,33.775C21.566,38.356,21.741,42.847,23.673,47.241C24.255,48.559,23.982,49.507,23.014,49.89C22.027,50.28,21.286,49.753,20.723,48.419C19.351,45.162,18.663,41.79,18.896,38.25C19.098,35.143,19.889,32.163,20.928,29.246C21.171,28.57,21.71,28.239,22.307,28.224ZM59.177,19.41C58.539,20.94,57.963,22.496,57.416,24.063C57.179,24.746,57.571,25.475,58.225,25.827C58.86,26.17,59.803,26.101,60.102,25.453C60.911,23.699,61.567,21.872,62.184,20.323C62.19,19.295,61.72,18.665,61.02,18.472C60.298,18.273,59.513,18.603,59.177,19.41ZM72.746,6.975C71.131,7.851,69.478,8.695,67.975,9.743C66.301,10.908,64.761,12.273,63.195,13.585C62.635,14.056,62.529,14.77,62.893,15.359C63.173,15.811,63.721,16.097,64.172,16.481C64.704,16.203,65.131,16.085,65.405,15.814C67.978,13.302,70.975,11.419,74.153,9.796C75.177,9.272,75.513,8.424,75.077,7.57C74.639,6.71,73.739,6.436,72.746,6.975ZM72.746,6.975"/>
</g>
  <g id="Heavy-S" transform="matrix(1.0,0.0,0.0,1.0,2588.356556282318,611.1565758135679)">  <path stroke-width="1px" stroke-dasharray="none" stroke-miterlimit="4" stroke="none" stroke-linecap="butt" fill="#000000" xmlns:xlink="http://www.w3.org/1999/xlink" fill-rule="nonzero" stroke-linejoin="miter" stroke-opacity="1" fill-opacity="1" version="1.1" d="M14.471,38.639C14.524,35.14,15.551,30.882,17.209,26.793C18.289,24.132,19.6,21.558,20.907,18.999C21.825,17.207,22.908,16.964,24.688,17.855C29.714,20.364,34.295,23.49,38.251,27.51C41.88,31.2,44.167,35.592,45.259,40.647C47.108,49.192,48.997,57.732,50.868,66.271C52.595,74.153,54.316,82.037,56.053,89.916C56.585,92.325,55.455,94.336,53.087,95.061C48.801,96.374,44.509,97.676,40.218,98.967C37.678,99.73,35.749,98.802,34.784,96.339C31.102,86.943,27.43,77.543,23.751,68.147C21.265,61.792,18.772,55.444,16.291,49.086C15.106,46.035,14.464,42.872,14.471,38.639ZM80.841,1.724C83.499,8.113,85.226,14.704,84.871,21.695C84.675,25.54,83.508,29.125,81.675,32.5C75.177,44.467,68.685,56.438,62.187,68.406C60.578,71.369,58.953,74.324,57.331,77.281C57.206,77.509,57.058,77.722,56.85,78.041L56.742,78.207L56.599,77.57C56.313,76.31,56.051,75.172,55.801,74.031C53.429,63.211,51.064,52.39,48.692,41.572C48.459,40.509,48.191,39.45,47.983,38.384C47.923,38.075,47.936,37.711,48.039,37.415C50.077,31.615,52.144,25.827,54.182,20.027C56.233,14.19,60.036,9.774,65.115,6.364C68.971,3.778,73.098,1.752,77.48,0.243C79.154,-0.333,80.163,0.097,80.841,1.724ZM22.304,28.221C23.515,28.233,24.209,29.177,23.904,30.275C23.577,31.446,23.185,32.603,22.855,33.775C21.566,38.356,21.741,42.847,23.673,47.241C24.255,48.559,23.982,49.507,23.014,49.89C22.027,50.28,21.286,49.753,20.723,48.419C19.351,45.162,18.663,41.79,18.896,38.25C19.098,35.143,19.889,32.163,20.928,29.246C21.171,28.57,21.71,28.239,22.307,28.224ZM59.177,19.41C58.539,20.94,57.963,22.496,57.416,24.063C57.179,24.746,57.571,25.475,58.225,25.827C58.86,26.17,59.803,26.101,60.102,25.453C60.911,23.699,61.567,21.872,62.184,20.323C62.19,19.295,61.72,18.665,61.02,18.472C60.298,18.273,59.513,18.603,59.177,19.41ZM72.746,6.975C71.131,7.851,69.478,8.695,67.975,9.743C66.301,10.908,64.761,12.273,63.195,13.585C62.635,14.056,62.529,14.77,62.893,15.359C63.173,15.811,63.721,16.097,64.172,16.481C64.704,16.203,65.131,16.085,65.405,15.814C67.978,13.302,70.975,11.419,74.153,9.796C75.177,9.272,75.513,8.424,75.077,7.57C74.639,6.71,73.739,6.436,72.746,6.975ZM72.746,6.975"/>
</g>
  <g id="Bold-S" transform="matrix(1.0,0.0,0.0,1.0,2291.6465562823178,611.1565758135679)">  <path stroke-opacity="1" stroke="none" fill="#000000" stroke-miterlimit="4" stroke-linejoin="miter" fill-rule="nonzero" stroke-dasharray="none" version="1.1" stroke-width="1px" stroke-linecap="butt" xmlns:xlink="http://www.w3.org/1999/xlink" fill-opacity="1" d="M14.471,38.639C14.524,35.14,15.551,30.882,17.209,26.793C18.289,24.132,19.6,21.558,20.907,18.999C21.825,17.207,22.908,16.964,24.688,17.855C29.714,20.364,34.295,23.49,38.251,27.51C41.88,31.2,44.167,35.592,45.259,40.647C47.108,49.192,48.997,57.732,50.868,66.271C52.595,74.153,54.316,82.037,56.053,89.916C56.585,92.325,55.455,94.336,53.087,95.061C48.801,96.374,44.509,97.676,40.218,98.967C37.678,99.73,35.749,98.802,34.784,96.339C31.102,86.943,27.43,77.543,23.751,68.147C21.265,61.792,18.772,55.444,16.291,49.086C15.106,46.035,14.464,42.872,14.471,38.639ZM80.841,1.724C83.499,8.113,85.226,14.704,84.871,21.695C84.675,25.54,83.508,29.125,81.675,32.5C75.177,44.467,68.685,56.438,62.187,68.406C60.578,71.369,58.953,74.324,57.331,77.281C57.206,77.509,57.058,77.722,56.85,78.041L56.742,78.207L56.599,77.57C56.313,76.31,56.051,75.172,55.801,74.031C53.429,63.211,51.064,52.39,48.692,41.572C48.459,40.509,48.191,39.45,47.983,38.384C47.923,38.075,47.936,37.711,48.039,37.415C50.077,31.615,52.144,25.827,54.182,20.027C56.233,14.19,60.036,9.774,65.115,6.364C68.971,3.778,73.098,1.752,77.48,0.243C79.154,-0.333,80.163,0.097,80.841,1.724ZM22.304,28.221C23.515,28.233,24.209,29.177,23.904,30.275C23.577,31.446,23.185,32.603,22.855,33.775C21.566,38.356,21.741,42.847,23.673,47.241C24.255,48.559,23.982,49.507,23.014,49.89C22.027,50.28,21.286,49.753,20.723,48.419C19.351,45.162,18.663,41.79,18.896,38.25C19.098,35.143,19.889,32.163,20.928,29.246C21.171,28.57,21.71,28.239,22.307,28.224ZM59.177,19.41C58.539,20.94,57.963,22.496,57.416,24.063C57.179,24.746,57.571,25.475,58.225,25.827C58.86,26.17,59.803,26.101,60.102,25.453C60.911,23.699,61.567,21.872,62.184,20.323C62.19,19.295,61.72,18.665,61.02,18.472C60.298,18.273,59.513,18.603,59.177,19.41ZM72.746,6.975C71.131,7.851,69.478,8.695,67.975,9.743C66.301,10.908,64.761,12.273,63.195,13.585C62.635,14.056,62.529,14.77,62.893,15.359C63.173,15.811,63.721,16.097,64.172,16.481C64.704,16.203,65.131,16.085,65.405,15.814C67.978,13.302,70.975,11.419,74.153,9.796C75.177,9.272,75.513,8.424,75.077,7.57C74.639,6.71,73.739,6.436,72.746,6.975ZM72.746,6.975"/>
</g>
  <g id="Semibold-S" transform="matrix(1.0,0.0,0.0,1.0,1994.936556282318,611.1565758135679)">  <path stroke-width="1px" stroke-opacity="1" stroke="none" fill-rule="nonzero" stroke-dasharray="none" stroke-miterlimit="4" xmlns:xlink="http://www.w3.org/1999/xlink" stroke-linecap="butt" fill-opacity="1" version="1.1" stroke-linejoin="miter" fill="#000000" d="M14.471,38.639C14.524,35.14,15.551,30.882,17.209,26.793C18.289,24.132,19.6,21.558,20.907,18.999C21.825,17.207,22.908,16.964,24.688,17.855C29.714,20.364,34.295,23.49,38.251,27.51C41.88,31.2,44.167,35.592,45.259,40.647C47.108,49.192,48.997,57.732,50.868,66.271C52.595,74.153,54.316,82.037,56.053,89.916C56.585,92.325,55.455,94.336,53.087,95.061C48.801,96.374,44.509,97.676,40.218,98.967C37.678,99.73,35.749,98.802,34.784,96.339C31.102,86.943,27.43,77.543,23.751,68.147C21.265,61.792,18.772,55.444,16.291,49.086C15.106,46.035,14.464,42.872,14.471,38.639ZM80.841,1.724C83.499,8.113,85.226,14.704,84.871,21.695C84.675,25.54,83.508,29.125,81.675,32.5C75.177,44.467,68.685,56.438,62.187,68.406C60.578,71.369,58.953,74.324,57.331,77.281C57.206,77.509,57.058,77.722,56.85,78.041L56.742,78.207L56.599,77.57C56.313,76.31,56.051,75.172,55.801,74.031C53.429,63.211,51.064,52.39,48.692,41.572C48.459,40.509,48.191,39.45,47.983,38.384C47.923,38.075,47.936,37.711,48.039,37.415C50.077,31.615,52.144,25.827,54.182,20.027C56.233,14.19,60.036,9.774,65.115,6.364C68.971,3.778,73.098,1.752,77.48,0.243C79.154,-0.333,80.163,0.097,80.841,1.724ZM22.304,28.221C23.515,28.233,24.209,29.177,23.904,30.275C23.577,31.446,23.185,32.603,22.855,33.775C21.566,38.356,21.741,42.847,23.673,47.241C24.255,48.559,23.982,49.507,23.014,49.89C22.027,50.28,21.286,49.753,20.723,48.419C19.351,45.162,18.663,41.79,18.896,38.25C19.098,35.143,19.889,32.163,20.928,29.246C21.171,28.57,21.71,28.239,22.307,28.224ZM59.177,19.41C58.539,20.94,57.963,22.496,57.416,24.063C57.179,24.746,57.571,25.475,58.225,25.827C58.86,26.17,59.803,26.101,60.102,25.453C60.911,23.699,61.567,21.872,62.184,20.323C62.19,19.295,61.72,18.665,61.02,18.472C60.298,18.273,59.513,18.603,59.177,19.41ZM72.746,6.975C71.131,7.851,69.478,8.695,67.975,9.743C66.301,10.908,64.761,12.273,63.195,13.585C62.635,14.056,62.529,14.77,62.893,15.359C63.173,15.811,63.721,16.097,64.172,16.481C64.704,16.203,65.131,16.085,65.405,15.814C67.978,13.302,70.975,11.419,74.153,9.796C75.177,9.272,75.513,8.424,75.077,7.57C74.639,6.71,73.739,6.436,72.746,6.975ZM72.746,6.975"/>
</g>
  <g id="Medium-S" transform="matrix(1.0,0.0,0.0,1.0,1698.226556282318,611.1565758135679)">  <path xmlns:xlink="http://www.w3.org/1999/xlink" stroke-width="1px" stroke-linecap="butt" stroke="none" fill-opacity="1" version="1.1" stroke-opacity="1" stroke-dasharray="none" stroke-linejoin="miter" fill="#000000" fill-rule="nonzero" stroke-miterlimit="4" d="M14.471,38.639C14.524,35.14,15.551,30.882,17.209,26.793C18.289,24.132,19.6,21.558,20.907,18.999C21.825,17.207,22.908,16.964,24.688,17.855C29.714,20.364,34.295,23.49,38.251,27.51C41.88,31.2,44.167,35.592,45.259,40.647C47.108,49.192,48.997,57.732,50.868,66.271C52.595,74.153,54.316,82.037,56.053,89.916C56.585,92.325,55.455,94.336,53.087,95.061C48.801,96.374,44.509,97.676,40.218,98.967C37.678,99.73,35.749,98.802,34.784,96.339C31.102,86.943,27.43,77.543,23.751,68.147C21.265,61.792,18.772,55.444,16.291,49.086C15.106,46.035,14.464,42.872,14.471,38.639ZM80.841,1.724C83.499,8.113,85.226,14.704,84.871,21.695C84.675,25.54,83.508,29.125,81.675,32.5C75.177,44.467,68.685,56.438,62.187,68.406C60.578,71.369,58.953,74.324,57.331,77.281C57.206,77.509,57.058,77.722,56.85,78.041L56.742,78.207L56.599,77.57C56.313,76.31,56.051,75.172,55.801,74.031C53.429,63.211,51.064,52.39,48.692,41.572C48.459,40.509,48.191,39.45,47.983,38.384C47.923,38.075,47.936,37.711,48.039,37.415C50.077,31.615,52.144,25.827,54.182,20.027C56.233,14.19,60.036,9.774,65.115,6.364C68.971,3.778,73.098,1.752,77.48,0.243C79.154,-0.333,80.163,0.097,80.841,1.724ZM22.304,28.221C23.515,28.233,24.209,29.177,23.904,30.275C23.577,31.446,23.185,32.603,22.855,33.775C21.566,38.356,21.741,42.847,23.673,47.241C24.255,48.559,23.982,49.507,23.014,49.89C22.027,50.28,21.286,49.753,20.723,48.419C19.351,45.162,18.663,41.79,18.896,38.25C19.098,35.143,19.889,32.163,20.928,29.246C21.171,28.57,21.71,28.239,22.307,28.224ZM59.177,19.41C58.539,20.94,57.963,22.496,57.416,24.063C57.179,24.746,57.571,25.475,58.225,25.827C58.86,26.17,59.803,26.101,60.102,25.453C60.911,23.699,61.567,21.872,62.184,20.323C62.19,19.295,61.72,18.665,61.02,18.472C60.298,18.273,59.513,18.603,59.177,19.41ZM72.746,6.975C71.131,7.851,69.478,8.695,67.975,9.743C66.301,10.908,64.761,12.273,63.195,13.585C62.635,14.056,62.529,14.77,62.893,15.359C63.173,15.811,63.721,16.097,64.172,16.481C64.704,16.203,65.131,16.085,65.405,15.814C67.978,13.302,70.975,11.419,74.153,9.796C75.177,9.272,75.513,8.424,75.077,7.57C74.639,6.71,73.739,6.436,72.746,6.975ZM72.746,6.975"/>
</g>
  <g id="Regular-S" transform="matrix(1.0,0.0,0.0,1.0,1401.5165562823179,611.1565758135679)">  <path stroke-dasharray="none" fill-opacity="1" stroke-width="1px" stroke-linejoin="miter" version="1.1" stroke="none" xmlns:xlink="http://www.w3.org/1999/xlink" stroke-linecap="butt" stroke-miterlimit="4" fill="#000000" fill-rule="nonzero" stroke-opacity="1" d="M14.471,38.639C14.524,35.14,15.551,30.882,17.209,26.793C18.289,24.132,19.6,21.558,20.907,18.999C21.825,17.207,22.908,16.964,24.688,17.855C29.714,20.364,34.295,23.49,38.251,27.51C41.88,31.2,44.167,35.592,45.259,40.647C47.108,49.192,48.997,57.732,50.868,66.271C52.595,74.153,54.316,82.037,56.053,89.916C56.585,92.325,55.455,94.336,53.087,95.061C48.801,96.374,44.509,97.676,40.218,98.967C37.678,99.73,35.749,98.802,34.784,96.339C31.102,86.943,27.43,77.543,23.751,68.147C21.265,61.792,18.772,55.444,16.291,49.086C15.106,46.035,14.464,42.872,14.471,38.639ZM80.841,1.724C83.499,8.113,85.226,14.704,84.871,21.695C84.675,25.54,83.508,29.125,81.675,32.5C75.177,44.467,68.685,56.438,62.187,68.406C60.578,71.369,58.953,74.324,57.331,77.281C57.206,77.509,57.058,77.722,56.85,78.041L56.742,78.207L56.599,77.57C56.313,76.31,56.051,75.172,55.801,74.031C53.429,63.211,51.064,52.39,48.692,41.572C48.459,40.509,48.191,39.45,47.983,38.384C47.923,38.075,47.936,37.711,48.039,37.415C50.077,31.615,52.144,25.827,54.182,20.027C56.233,14.19,60.036,9.774,65.115,6.364C68.971,3.778,73.098,1.752,77.48,0.243C79.154,-0.333,80.163,0.097,80.841,1.724ZM22.304,28.221C23.515,28.233,24.209,29.177,23.904,30.275C23.577,31.446,23.185,32.603,22.855,33.775C21.566,38.356,21.741,42.847,23.673,47.241C24.255,48.559,23.982,49.507,23.014,49.89C22.027,50.28,21.286,49.753,20.723,48.419C19.351,45.162,18.663,41.79,18.896,38.25C19.098,35.143,19.889,32.163,20.928,29.246C21.171,28.57,21.71,28.239,22.307,28.224ZM59.177,19.41C58.539,20.94,57.963,22.496,57.416,24.063C57.179,24.746,57.571,25.475,58.225,25.827C58.86,26.17,59.803,26.101,60.102,25.453C60.911,23.699,61.567,21.872,62.184,20.323C62.19,19.295,61.72,18.665,61.02,18.472C60.298,18.273,59.513,18.603,59.177,19.41ZM72.746,6.975C71.131,7.851,69.478,8.695,67.975,9.743C66.301,10.908,64.761,12.273,63.195,13.585C62.635,14.056,62.529,14.77,62.893,15.359C63.173,15.811,63.721,16.097,64.172,16.481C64.704,16.203,65.131,16.085,65.405,15.814C67.978,13.302,70.975,11.419,74.153,9.796C75.177,9.272,75.513,8.424,75.077,7.57C74.639,6.71,73.739,6.436,72.746,6.975ZM72.746,6.975"/>
</g>
  <g id="Light-S" transform="matrix(1.0,0.0,0.0,1.0,1104.806556282318,611.1565758135679)">  <path stroke-width="1px" stroke-linejoin="miter" stroke-miterlimit="4" version="1.1" stroke="none" fill="#000000" fill-rule="nonzero" stroke-linecap="butt" stroke-dasharray="none" stroke-opacity="1" xmlns:xlink="http://www.w3.org/1999/xlink" fill-opacity="1" d="M14.471,38.639C14.524,35.14,15.551,30.882,17.209,26.793C18.289,24.132,19.6,21.558,20.907,18.999C21.825,17.207,22.908,16.964,24.688,17.855C29.714,20.364,34.295,23.49,38.251,27.51C41.88,31.2,44.167,35.592,45.259,40.647C47.108,49.192,48.997,57.732,50.868,66.271C52.595,74.153,54.316,82.037,56.053,89.916C56.585,92.325,55.455,94.336,53.087,95.061C48.801,96.374,44.509,97.676,40.218,98.967C37.678,99.73,35.749,98.802,34.784,96.339C31.102,86.943,27.43,77.543,23.751,68.147C21.265,61.792,18.772,55.444,16.291,49.086C15.106,46.035,14.464,42.872,14.471,38.639ZM80.841,1.724C83.499,8.113,85.226,14.704,84.871,21.695C84.675,25.54,83.508,29.125,81.675,32.5C75.177,44.467,68.685,56.438,62.187,68.406C60.578,71.369,58.953,74.324,57.331,77.281C57.206,77.509,57.058,77.722,56.85,78.041L56.742,78.207L56.599,77.57C56.313,76.31,56.051,75.172,55.801,74.031C53.429,63.211,51.064,52.39,48.692,41.572C48.459,40.509,48.191,39.45,47.983,38.384C47.923,38.075,47.936,37.711,48.039,37.415C50.077,31.615,52.144,25.827,54.182,20.027C56.233,14.19,60.036,9.774,65.115,6.364C68.971,3.778,73.098,1.752,77.48,0.243C79.154,-0.333,80.163,0.097,80.841,1.724ZM22.304,28.221C23.515,28.233,24.209,29.177,23.904,30.275C23.577,31.446,23.185,32.603,22.855,33.775C21.566,38.356,21.741,42.847,23.673,47.241C24.255,48.559,23.982,49.507,23.014,49.89C22.027,50.28,21.286,49.753,20.723,48.419C19.351,45.162,18.663,41.79,18.896,38.25C19.098,35.143,19.889,32.163,20.928,29.246C21.171,28.57,21.71,28.239,22.307,28.224ZM59.177,19.41C58.539,20.94,57.963,22.496,57.416,24.063C57.179,24.746,57.571,25.475,58.225,25.827C58.86,26.17,59.803,26.101,60.102,25.453C60.911,23.699,61.567,21.872,62.184,20.323C62.19,19.295,61.72,18.665,61.02,18.472C60.298,18.273,59.513,18.603,59.177,19.41ZM72.746,6.975C71.131,7.851,69.478,8.695,67.975,9.743C66.301,10.908,64.761,12.273,63.195,13.585C62.635,14.056,62.529,14.77,62.893,15.359C63.173,15.811,63.721,16.097,64.172,16.481C64.704,16.203,65.131,16.085,65.405,15.814C67.978,13.302,70.975,11.419,74.153,9.796C75.177,9.272,75.513,8.424,75.077,7.57C74.639,6.71,73.739,6.436,72.746,6.975ZM72.746,6.975"/>
</g>
  <g id="Thin-S" transform="matrix(1.0,0.0,0.0,1.0,808.0965562823179,611.1565758135679)">  <path stroke-opacity="1" version="1.1" xmlns:xlink="http://www.w3.org/1999/xlink" fill="#000000" stroke-dasharray="none" stroke-miterlimit="4" fill-rule="nonzero" stroke="none" fill-opacity="1" stroke-linecap="butt" stroke-width="1px" stroke-linejoin="miter" d="M14.471,38.639C14.524,35.14,15.551,30.882,17.209,26.793C18.289,24.132,19.6,21.558,20.907,18.999C21.825,17.207,22.908,16.964,24.688,17.855C29.714,20.364,34.295,23.49,38.251,27.51C41.88,31.2,44.167,35.592,45.259,40.647C47.108,49.192,48.997,57.732,50.868,66.271C52.595,74.153,54.316,82.037,56.053,89.916C56.585,92.325,55.455,94.336,53.087,95.061C48.801,96.374,44.509,97.676,40.218,98.967C37.678,99.73,35.749,98.802,34.784,96.339C31.102,86.943,27.43,77.543,23.751,68.147C21.265,61.792,18.772,55.444,16.291,49.086C15.106,46.035,14.464,42.872,14.471,38.639ZM80.841,1.724C83.499,8.113,85.226,14.704,84.871,21.695C84.675,25.54,83.508,29.125,81.675,32.5C75.177,44.467,68.685,56.438,62.187,68.406C60.578,71.369,58.953,74.324,57.331,77.281C57.206,77.509,57.058,77.722,56.85,78.041L56.742,78.207L56.599,77.57C56.313,76.31,56.051,75.172,55.801,74.031C53.429,63.211,51.064,52.39,48.692,41.572C48.459,40.509,48.191,39.45,47.983,38.384C47.923,38.075,47.936,37.711,48.039,37.415C50.077,31.615,52.144,25.827,54.182,20.027C56.233,14.19,60.036,9.774,65.115,6.364C68.971,3.778,73.098,1.752,77.48,0.243C79.154,-0.333,80.163,0.097,80.841,1.724ZM22.304,28.221C23.515,28.233,24.209,29.177,23.904,30.275C23.577,31.446,23.185,32.603,22.855,33.775C21.566,38.356,21.741,42.847,23.673,47.241C24.255,48.559,23.982,49.507,23.014,49.89C22.027,50.28,21.286,49.753,20.723,48.419C19.351,45.162,18.663,41.79,18.896,38.25C19.098,35.143,19.889,32.163,20.928,29.246C21.171,28.57,21.71,28.239,22.307,28.224ZM59.177,19.41C58.539,20.94,57.963,22.496,57.416,24.063C57.179,24.746,57.571,25.475,58.225,25.827C58.86,26.17,59.803,26.101,60.102,25.453C60.911,23.699,61.567,21.872,62.184,20.323C62.19,19.295,61.72,18.665,61.02,18.472C60.298,18.273,59.513,18.603,59.177,19.41ZM72.746,6.975C71.131,7.851,69.478,8.695,67.975,9.743C66.301,10.908,64.761,12.273,63.195,13.585C62.635,14.056,62.529,14.77,62.893,15.359C63.173,15.811,63.721,16.097,64.172,16.481C64.704,16.203,65.131,16.085,65.405,15.814C67.978,13.302,70.975,11.419,74.153,9.796C75.177,9.272,75.513,8.424,75.077,7.57C74.639,6.71,73.739,6.436,72.746,6.975ZM72.746,6.975"/>
</g>
  <g id="Ultralight-S" transform="matrix(1.0,0.0,0.0,1.0,511.3865562823179,611.1565758135679)">  <path stroke-width="1px" stroke-opacity="1" fill-opacity="1" fill="#000000" stroke-miterlimit="4" xmlns:xlink="http://www.w3.org/1999/xlink" fill-rule="nonzero" stroke="none" stroke-linejoin="miter" stroke-dasharray="none" version="1.1" stroke-linecap="butt" d="M14.471,38.639C14.524,35.14,15.551,30.882,17.209,26.793C18.289,24.132,19.6,21.558,20.907,18.999C21.825,17.207,22.908,16.964,24.688,17.855C29.714,20.364,34.295,23.49,38.251,27.51C41.88,31.2,44.167,35.592,45.259,40.647C47.108,49.192,48.997,57.732,50.868,66.271C52.595,74.153,54.316,82.037,56.053,89.916C56.585,92.325,55.455,94.336,53.087,95.061C48.801,96.374,44.509,97.676,40.218,98.967C37.678,99.73,35.749,98.802,34.784,96.339C31.102,86.943,27.43,77.543,23.751,68.147C21.265,61.792,18.772,55.444,16.291,49.086C15.106,46.035,14.464,42.872,14.471,38.639ZM80.841,1.724C83.499,8.113,85.226,14.704,84.871,21.695C84.675,25.54,83.508,29.125,81.675,32.5C75.177,44.467,68.685,56.438,62.187,68.406C60.578,71.369,58.953,74.324,57.331,77.281C57.206,77.509,57.058,77.722,56.85,78.041L56.742,78.207L56.599,77.57C56.313,76.31,56.051,75.172,55.801,74.031C53.429,63.211,51.064,52.39,48.692,41.572C48.459,40.509,48.191,39.45,47.983,38.384C47.923,38.075,47.936,37.711,48.039,37.415C50.077,31.615,52.144,25.827,54.182,20.027C56.233,14.19,60.036,9.774,65.115,6.364C68.971,3.778,73.098,1.752,77.48,0.243C79.154,-0.333,80.163,0.097,80.841,1.724ZM22.304,28.221C23.515,28.233,24.209,29.177,23.904,30.275C23.577,31.446,23.185,32.603,22.855,33.775C21.566,38.356,21.741,42.847,23.673,47.241C24.255,48.559,23.982,49.507,23.014,49.89C22.027,50.28,21.286,49.753,20.723,48.419C19.351,45.162,18.663,41.79,18.896,38.25C19.098,35.143,19.889,32.163,20.928,29.246C21.171,28.57,21.71,28.239,22.307,28.224ZM59.177,19.41C58.539,20.94,57.963,22.496,57.416,24.063C57.179,24.746,57.571,25.475,58.225,25.827C58.86,26.17,59.803,26.101,60.102,25.453C60.911,23.699,61.567,21.872,62.184,20.323C62.19,19.295,61.72,18.665,61.02,18.472C60.298,18.273,59.513,18.603,59.177,19.41ZM72.746,6.975C71.131,7.851,69.478,8.695,67.975,9.743C66.301,10.908,64.761,12.273,63.195,13.585C62.635,14.056,62.529,14.77,62.893,15.359C63.173,15.811,63.721,16.097,64.172,16.481C64.704,16.203,65.131,16.085,65.405,15.814C67.978,13.302,70.975,11.419,74.153,9.796C75.177,9.272,75.513,8.424,75.077,7.57C74.639,6.71,73.739,6.436,72.746,6.975ZM72.746,6.975"/>
</g>
 </g>
</svg>
