<?xml version="1.0" encoding="UTF-8"?>
<!-- Generator: CustomSymbols v2.7.2.48 by @serious_bret https://bretlester.com/app_content/CustomSymbols/ -->
<!-- Guides: Left/Right 0.11/0.11 Cap/Base 0.222/0.222 -->
<!-- Settings: RefScale 1.0 Min/Max Stroke Scales 0.5/2.21 -->
<!DOCTYPE svg
PUBLIC "-//W3C//DTD SVG 1.1//EN"
       "http://www.w3.org/Graphics/SVG/1.1/DTD/svg11.dtd">
<svg version="1.1" xmlns="http://www.w3.org/2000/svg" xmlns:xlink="http://www.w3.org/1999/xlink" width="3300" height="2200">
<![CDATA[<?xml version="1.0" encoding="UTF-8"?>
<svg width="96px" height="96px" viewBox="0 0 96 96" version="1.1" xmlns="http://www.w3.org/2000/svg" xmlns:xlink="http://www.w3.org/1999/xlink">
    <title>icon/login/apple@1x</title>
    <g id="icon/login/apple" stroke="none" stroke-width="1" fill="none" fill-rule="evenodd">
        <path d="M71.3311067,50.228949 C71.2946713,43.6660891 74.3188098,38.7126499 80.4399575,35.0646297 C77.0150296,30.2542501 71.8412024,27.6076472 65.0095643,27.0890561 C58.5422802,26.5883474 51.4738121,30.7907236 48.8868984,30.7907236 C46.1542432,30.7907236 39.8873539,27.2678806 34.9685745,27.2678806 C24.803097,27.4288226 14,35.2255717 14,51.0873067 C14,55.7725091 14.8744497,60.6126928 16.623349,65.6078577 C18.9552148,72.1707176 27.3717929,88.2649244 36.1527251,87.9966876 C40.7435859,87.8893929 43.9863367,84.7957287 49.9617428,84.7957287 C55.7549719,84.7957287 58.7608927,87.9966876 63.8800668,87.9966876 C72.7338697,87.8715104 80.348869,73.2436647 82.5714286,66.6629224 C70.6934872,61.1730096 71.3311067,50.5687155 71.3311067,50.228949 Z M58.5838063,20.906525 C64.1020065,15.1386435 63.5966768,9.88702297 63.4349713,8 C58.5635931,8.24922945 52.9241137,10.919545 49.7102169,14.2129341 C46.1729091,17.7377506 44.0909507,22.099266 44.5356409,27.0126465 C49.8112828,27.3686886 54.6220215,24.9832067 58.5838063,20.906525 Z" id="Shape" fill="#352E33" fill-rule="nonzero"></path>
    </g>
</svg>]]>
 <g id="Notes">
  <rect height="2200" id="artboard" style="fill:white;opacity:1" width="3300" x="0" y="0"/>
  <line id="" style="fill:none;stroke:black;opacity:1;stroke-width:0.5;" x1="263" x2="3036" y1="292" y2="292"/>
  <text id="reftext1" style="stroke:none;fill:black;font-family:-apple-system,&quot;SF Pro Display&quot;,&quot;SF Pro Text&quot;,Helvetica,sans-serif;font-weight:bold;" transform="matrix(1 0 0 1 263 322)">Weight/Scale Variations</text>
  <text id="reftext2" style="stroke:none;fill:black;font-family:-apple-system,&quot;SF Pro Display&quot;,&quot;SF Pro Text&quot;,Helvetica,sans-serif;text-anchor:middle;" transform="matrix(1 0 0 1 559.711 322)">Ultralight</text>
  <text style="stroke:none;fill:black;font-family:-apple-system,&quot;SF Pro Display&quot;,&quot;SF Pro Text&quot;,Helvetica,sans-serif;text-anchor:middle;" transform="matrix(1 0 0 1 856.422 322)">Thin</text>
  <text style="stroke:none;fill:black;font-family:-apple-system,&quot;SF Pro Display&quot;,&quot;SF Pro Text&quot;,Helvetica,sans-serif;text-anchor:middle;" transform="matrix(1 0 0 1 1153.13 322)">Light</text>
  <text style="stroke:none;fill:black;font-family:-apple-system,&quot;SF Pro Display&quot;,&quot;SF Pro Text&quot;,Helvetica,sans-serif;text-anchor:middle;" transform="matrix(1 0 0 1 1449.84 322)">Regular</text>
  <text style="stroke:none;fill:black;font-family:-apple-system,&quot;SF Pro Display&quot;,&quot;SF Pro Text&quot;,Helvetica,sans-serif;text-anchor:middle;" transform="matrix(1 0 0 1 1746.56 322)">Medium</text>
  <text style="stroke:none;fill:black;font-family:-apple-system,&quot;SF Pro Display&quot;,&quot;SF Pro Text&quot;,Helvetica,sans-serif;text-anchor:middle;" transform="matrix(1 0 0 1 2043.27 322)">Semibold</text>
  <text style="stroke:none;fill:black;font-family:-apple-system,&quot;SF Pro Display&quot;,&quot;SF Pro Text&quot;,Helvetica,sans-serif;text-anchor:middle;" transform="matrix(1 0 0 1 2339.98 322)">Bold</text>
  <text style="stroke:none;fill:black;font-family:-apple-system,&quot;SF Pro Display&quot;,&quot;SF Pro Text&quot;,Helvetica,sans-serif;text-anchor:middle;" transform="matrix(1 0 0 1 2636.69 322)">Heavy</text>
  <text style="stroke:none;fill:black;font-family:-apple-system,&quot;SF Pro Display&quot;,&quot;SF Pro Text&quot;,Helvetica,sans-serif;text-anchor:middle;" transform="matrix(1 0 0 1 2933.4 322)">Black</text>
  <line id="" style="fill:none;stroke:black;opacity:1;stroke-width:0.5;" x1="263" x2="3036" y1="1903" y2="1903"/>
  <g id="" transform="matrix(1 0 0 1 263 1933)">
   <path d="M9.24805 0.830078C13.5547 0.830078 17.1387-2.74414 17.1387-7.05078C17.1387-11.3574 13.5449-14.9316 9.23828-14.9316C4.94141-14.9316 1.36719-11.3574 1.36719-7.05078C1.36719-2.74414 4.95117 0.830078 9.24805 0.830078ZM9.24805-0.654297C5.70312-0.654297 2.87109-3.49609 2.87109-7.05078C2.87109-10.6055 5.69336-13.4473 9.23828-13.4473C12.793-13.4473 15.6348-10.6055 15.6445-7.05078C15.6543-3.49609 12.8027-0.654297 9.24805-0.654297ZM6.39648-6.31836L8.50586-6.31836L8.50586-4.19922C8.50586-3.75977 8.79883-3.45703 9.22852-3.45703C9.67773-3.45703 9.9707-3.75977 9.9707-4.19922L9.9707-6.31836L12.0996-6.31836C12.5391-6.31836 12.8418-6.61133 12.8418-7.04102C12.8418-7.48047 12.5391-7.7832 12.0996-7.7832L9.9707-7.7832L9.9707-9.89258C9.9707-10.3418 9.67773-10.6445 9.22852-10.6445C8.79883-10.6445 8.50586-10.3418 8.50586-9.89258L8.50586-7.7832L6.39648-7.7832C5.94727-7.7832 5.64453-7.48047 5.64453-7.04102C5.64453-6.61133 5.94727-6.31836 6.39648-6.31836Z"/>
  </g>
  <g id="" transform="matrix(1 0 0 1 281.506 1933)">
   <path d="M11.709 2.91016C17.1582 2.91016 21.6699-1.61133 21.6699-7.05078C21.6699-12.5 17.1484-17.0117 11.6992-17.0117C6.25977-17.0117 1.74805-12.5 1.74805-7.05078C1.74805-1.61133 6.26953 2.91016 11.709 2.91016ZM11.709 1.25C7.09961 1.25 3.41797-2.44141 3.41797-7.05078C3.41797-11.6602 7.08984-15.3516 11.6992-15.3516C16.3086-15.3516 20-11.6602 20.0098-7.05078C20.0195-2.44141 16.3184 1.25 11.709 1.25ZM7.98828-6.23047L10.8789-6.23047L10.8789-3.32031C10.8789-2.83203 11.2109-2.5 11.6895-2.5C12.1777-2.5 12.5195-2.83203 12.5195-3.32031L12.5195-6.23047L15.4297-6.23047C15.918-6.23047 16.25-6.5625 16.25-7.04102C16.25-7.5293 15.918-7.87109 15.4297-7.87109L12.5195-7.87109L12.5195-10.7617C12.5195-11.2695 12.1777-11.6016 11.6895-11.6016C11.2109-11.6016 10.8789-11.2598 10.8789-10.7617L10.8789-7.87109L7.98828-7.87109C7.48047-7.87109 7.14844-7.5293 7.14844-7.04102C7.14844-6.5625 7.49023-6.23047 7.98828-6.23047Z"/>
  </g>
  <g id="" transform="matrix(1 0 0 1 304.924 1933)">
   <path d="M14.9707 5.66406C21.9336 5.66406 27.6953-0.0976562 27.6953-7.05078C27.6953-14.0137 21.9238-19.7754 14.9609-19.7754C8.00781-19.7754 2.25586-14.0137 2.25586-7.05078C2.25586-0.0976562 8.01758 5.66406 14.9707 5.66406ZM14.9707 3.84766C8.93555 3.84766 4.08203-1.01562 4.08203-7.05078C4.08203-13.0957 8.92578-17.9492 14.9609-17.9492C21.0059-17.9492 25.8594-13.0957 25.8691-7.05078C25.8789-1.01562 21.0156 3.84766 14.9707 3.84766ZM10.0586-6.14258L14.0625-6.14258L14.0625-2.12891C14.0625-1.5918 14.4336-1.2207 14.9512-1.2207C15.4883-1.2207 15.8594-1.5918 15.8594-2.12891L15.8594-6.14258L19.8828-6.14258C20.4102-6.14258 20.791-6.51367 20.791-7.03125C20.791-7.56836 20.4199-7.94922 19.8828-7.94922L15.8594-7.94922L15.8594-11.9531C15.8594-12.5098 15.4883-12.8809 14.9512-12.8809C14.4336-12.8809 14.0625-12.5 14.0625-11.9531L14.0625-7.94922L10.0586-7.94922C9.50195-7.94922 9.13086-7.56836 9.13086-7.03125C9.13086-6.51367 9.51172-6.14258 10.0586-6.14258Z"/>
  </g>
  <text style="stroke:none;fill:black;font-family:-apple-system,&quot;SF Pro Display&quot;,&quot;SF Pro Text&quot;,Helvetica,sans-serif;font-weight:bold;" transform="matrix(1 0 0 1 263 1953)">Design Variations</text>
  <text style="stroke:none;fill:black;font-family:-apple-system,&quot;SF Pro Display&quot;,&quot;SF Pro Text&quot;,Helvetica,sans-serif;" transform="matrix(1 0 0 1 263 1971)">Symbols are supported in up to nine weights and three scales.</text>
  <text style="stroke:none;fill:black;font-family:-apple-system,&quot;SF Pro Display&quot;,&quot;SF Pro Text&quot;,Helvetica,sans-serif;" transform="matrix(1 0 0 1 263 1989)">For optimal layout with text and other symbols, vertically align</text>
  <text style="stroke:none;fill:black;font-family:-apple-system,&quot;SF Pro Display&quot;,&quot;SF Pro Text&quot;,Helvetica,sans-serif;" transform="matrix(1 0 0 1 263 2007)">symbols with the adjacent text.</text>
  <line id="" style="fill:none;stroke:#00AEEF;stroke-width:0.5;opacity:1.0;" x1="776" x2="776" y1="1919" y2="1933"/>
  <g id="" transform="matrix(1 0 0 1 776 1933)">
   <path d="M3.31055 0.126953C3.82812 0.126953 4.08203-0.0683594 4.26758-0.605469L5.52734-4.0625L11.2891-4.0625L12.5488-0.605469C12.7344-0.0683594 12.9883 0.126953 13.4961 0.126953C14.0137 0.126953 14.3457-0.185547 14.3457-0.673828C14.3457-0.839844 14.3164-0.986328 14.2383-1.20117L9.6582-13.3887C9.43359-13.9941 9.0332-14.2871 8.4082-14.2871C7.80273-14.2871 7.39258-13.9941 7.17773-13.3984L2.59766-1.19141C2.51953-0.976562 2.49023-0.830078 2.49023-0.664062C2.49023-0.175781 2.80273 0.126953 3.31055 0.126953ZM6.00586-5.53711L8.37891-12.1094L8.42773-12.1094L10.8008-5.53711Z"/>
  </g>
  <line id="" style="fill:none;stroke:#00AEEF;stroke-width:0.5;opacity:1.0;" x1="792.836" x2="792.836" y1="1919" y2="1933"/>
  <text style="stroke:none;fill:black;font-family:-apple-system,&quot;SF Pro Display&quot;,&quot;SF Pro Text&quot;,Helvetica,sans-serif;font-weight:bold;" transform="matrix(1 0 0 1 776 1953)">Margins</text>
  <text style="stroke:none;fill:black;font-family:-apple-system,&quot;SF Pro Display&quot;,&quot;SF Pro Text&quot;,Helvetica,sans-serif;" transform="matrix(1 0 0 1 776 1971)">Leading and trailing margins on the left and right side of each symbol</text>
  <text style="stroke:none;fill:black;font-family:-apple-system,&quot;SF Pro Display&quot;,&quot;SF Pro Text&quot;,Helvetica,sans-serif;" transform="matrix(1 0 0 1 776 1989)">can be adjusted by modifying the x-location of the margin guidelines.</text>
  <text style="stroke:none;fill:black;font-family:-apple-system,&quot;SF Pro Display&quot;,&quot;SF Pro Text&quot;,Helvetica,sans-serif;" transform="matrix(1 0 0 1 776 2007)">Modifications are automatically applied proportionally to all</text>
  <text style="stroke:none;fill:black;font-family:-apple-system,&quot;SF Pro Display&quot;,&quot;SF Pro Text&quot;,Helvetica,sans-serif;" transform="matrix(1 0 0 1 776 2025)">scales and weights.</text>
  <g id="" transform="matrix(1 0 0 1 1289 1933)">
   <path d="M2.8418 1.86523L4.54102 3.57422C5.40039 4.44336 6.38672 4.38477 7.31445 3.35938L17.4902-7.85156C17.7539-7.76367 18.0273-7.7832 18.3398-7.8418L19.4043-8.03711L20.0684-7.36328L20.0293-6.80664C19.9902-6.30859 20.1172-5.92773 20.6055-5.44922L21.3672-4.70703C21.8457-4.22852 22.4609-4.19922 22.9297-4.66797L25.8398-7.58789C26.3086-8.05664 26.2891-8.65234 25.8105-9.13086L25.0391-9.89258C24.5605-10.3711 24.1895-10.5273 23.7109-10.4883L23.1348-10.4395L22.4902-11.0742L22.7344-12.1973C22.8613-12.7637 22.7051-13.2031 22.1191-13.7891L19.9219-15.9766C16.582-19.2969 12.1484-19.2188 9.25781-16.3281C8.83789-15.918 8.80859-15.3418 9.04297-14.9512C9.27734-14.5898 9.73633-14.3555 10.3809-14.5215C11.8457-14.8633 13.3691-14.9219 14.7949-13.9844L14.209-12.5293C14.0137-12.0508 13.9844-11.6504 14.1113-11.2891L3.04688-0.898438C2.06055 0.0195312 1.98242 0.996094 2.8418 1.86523ZM10.752-15.957C13.1836-17.7344 16.4746-17.4316 18.7012-15.2051L21.1328-12.793C21.3672-12.5586 21.4062-12.373 21.3379-12.0312L21.0156-10.5469L22.5195-9.0625L23.5059-9.12109C23.7598-9.13086 23.8379-9.11133 24.0332-8.91602L24.6094-8.33984L22.168-5.89844L21.5918-6.47461C21.3965-6.66992 21.3672-6.74805 21.377-7.01172L21.4453-7.98828L19.9512-9.47266L18.4277-9.21875C18.1055-9.15039 17.959-9.17969 17.7148-9.41406L15.7129-11.416C15.459-11.6504 15.4297-11.8164 15.5859-12.1875L16.4648-14.2773C14.9023-15.7324 12.8711-16.3574 10.8398-15.7617C10.6836-15.7227 10.625-15.8496 10.752-15.957ZM5.27344 2.30469L4.10156 1.14258C3.63281 0.683594 3.74023 0.341797 4.14062-0.0195312L14.9512-10.1953L16.416-8.71094L6.42578 2.27539C6.07422 2.67578 5.74219 2.77344 5.27344 2.30469Z"/>
  </g>
  <text style="stroke:none;fill:black;font-family:-apple-system,&quot;SF Pro Display&quot;,&quot;SF Pro Text&quot;,Helvetica,sans-serif;font-weight:bold;" transform="matrix(1 0 0 1 1289 1953)">Exporting</text>
  <text style="stroke:none;fill:black;font-family:-apple-system,&quot;SF Pro Display&quot;,&quot;SF Pro Text&quot;,Helvetica,sans-serif;" transform="matrix(1 0 0 1 1289 1971)">Symbols should be outlined when exporting to ensure the</text>
  <text style="stroke:none;fill:black;font-family:-apple-system,&quot;SF Pro Display&quot;,&quot;SF Pro Text&quot;,Helvetica,sans-serif;" transform="matrix(1 0 0 1 1289 1989)">design is preserved when submitting to Xcode.</text>
  <text id="template-version" style="stroke:none;fill:black;font-family:-apple-system,&quot;SF Pro Display&quot;,&quot;SF Pro Text&quot;,Helvetica,sans-serif;text-anchor:end;" transform="matrix(1 0 0 1 3036 1933)">Template v.2.0</text>
  <text style="stroke:none;fill:black;font-family:-apple-system,&quot;SF Pro Display&quot;,&quot;SF Pro Text&quot;,Helvetica,sans-serif;text-anchor:end;" transform="matrix(1 0 0 1 3036 1951)">Requires Xcode 12 or greater</text>
  <text style="stroke:none;fill:black;font-family:-apple-system,&quot;SF Pro Display&quot;,&quot;SF Pro Text&quot;,Helvetica,sans-serif;" transform="matrix(1 0 0 1 263 726)">Small</text>
  <text style="stroke:none;fill:black;font-family:-apple-system,&quot;SF Pro Display&quot;,&quot;SF Pro Text&quot;,Helvetica,sans-serif;" transform="matrix(1 0 0 1 263 1156)">Medium</text>
  <text style="stroke:none;fill:black;font-family:-apple-system,&quot;SF Pro Display&quot;,&quot;SF Pro Text&quot;,Helvetica,sans-serif;" transform="matrix(1 0 0 1 263 1586)">Large</text>
 </g>
 <g id="Guides">
  <g id="H-reference" style="fill:#27AAE1;stroke:none;" transform="matrix(1 0 0 1 339 696)">
   <path d="M0.976562 0L3.66211 0L12.9883-24.4629L45.752-24.4629L55.127 0L57.7637 0L30.6152-70.459L28.125-70.459ZM29.3457-67.1387L29.4434-67.1387L44.873-26.709L13.8672-26.709Z"/>
  </g>
  <line id="Baseline-S" style="fill:none;stroke:#27AAE1;opacity:1;stroke-width:0.5;" x1="263" x2="3036" y1="696" y2="696"/>
  <line id="Capline-S" style="fill:none;stroke:#27AAE1;opacity:1;stroke-width:0.5;" x1="263" x2="3036" y1="625.541" y2="625.541"/>
  <g id="H-reference" style="fill:#27AAE1;stroke:none;" transform="matrix(1 0 0 1 339 1126)">
   <path d="M0.976562 0L3.66211 0L12.9883-24.4629L45.752-24.4629L55.127 0L57.7637 0L30.6152-70.459L28.125-70.459ZM29.3457-67.1387L29.4434-67.1387L44.873-26.709L13.8672-26.709Z"/>
  </g>
  <line id="Baseline-M" style="fill:none;stroke:#27AAE1;opacity:1;stroke-width:0.5;" x1="263" x2="3036" y1="1126" y2="1126"/>
  <line id="Capline-M" style="fill:none;stroke:#27AAE1;opacity:1;stroke-width:0.5;" x1="263" x2="3036" y1="1055.54" y2="1055.54"/>
  <g id="H-reference" style="fill:#27AAE1;stroke:none;" transform="matrix(1 0 0 1 339 1556)">
   <path d="M0.976562 0L3.66211 0L12.9883-24.4629L45.752-24.4629L55.127 0L57.7637 0L30.6152-70.459L28.125-70.459ZM29.3457-67.1387L29.4434-67.1387L44.873-26.709L13.8672-26.709Z"/>
  </g>
  <line id="Baseline-L" style="fill:none;stroke:#27AAE1;opacity:1;stroke-width:0.5;" x1="263" x2="3036" y1="1556" y2="1556"/>
  <line id="Capline-L" style="fill:none;stroke:#27AAE1;opacity:1;stroke-width:0.5;" x1="263" x2="3036" y1="1485.54" y2="1485.54"/>
  <line id="left-margin" x1="1401.7066461049908" x2="1401.7066461049908" y1="1030.79" y2="1150.12" style="fill:none;stroke:#00AEEF;stroke-width:0.5;opacity:1.0;"/>
  <line id="right-margin" x1="1500.553353895009" x2="1500.553353895009" y1="1030.79" y2="1150.12" style="fill:none;stroke:#00AEEF;stroke-width:0.5;opacity:1.0;"/>
 </g>
 <g id="Symbols">
  <g id="Black-L" transform="matrix(1.0,0.0,0.0,1.0,2852.941376250562,1439.031395781812)">  <path stroke-linecap="butt" fill-rule="nonzero" stroke-width="1px" fill-opacity="1" stroke-opacity="1" fill="#000000" stroke-linejoin="miter" version="1.1" xmlns:xlink="http://www.w3.org/1999/xlink" stroke="none" stroke-dasharray="none" stroke-miterlimit="4" d="M121.469,85.534C121.407,74.358,126.557,65.923,136.98,59.711C131.148,51.52,122.338,47.013,110.704,46.13C99.691,45.277,87.654,52.433,83.249,52.433C78.596,52.433,67.924,46.434,59.548,46.434C42.237,46.708,23.84,59.985,23.84,86.996C23.84,94.974,25.33,103.217,28.308,111.723C32.279,122.899,46.611,150.305,61.564,149.849C69.382,149.666,74.904,144.398,85.079,144.398C94.944,144.398,100.063,149.849,108.781,149.849C123.858,149.635,136.825,124.726,140.61,113.519C120.383,104.171,121.469,86.113,121.469,85.534ZM99.762,35.601C109.159,25.779,108.298,16.836,108.023,13.623C99.727,14.048,90.124,18.595,84.651,24.203C78.627,30.205,75.082,37.633,75.839,46C84.823,46.606,93.015,42.544,99.762,35.601ZM99.762,35.601"/>
</g>
  <g id="Heavy-L" transform="matrix(1.0,0.0,0.0,1.0,2556.231376250562,1439.031395781812)">  <path stroke="none" fill-opacity="1" version="1.1" stroke-miterlimit="4" stroke-width="1px" stroke-opacity="1" fill="#000000" stroke-dasharray="none" stroke-linecap="butt" fill-rule="nonzero" xmlns:xlink="http://www.w3.org/1999/xlink" stroke-linejoin="miter" d="M121.469,85.534C121.407,74.358,126.557,65.923,136.98,59.711C131.148,51.52,122.338,47.013,110.704,46.13C99.691,45.277,87.654,52.433,83.249,52.433C78.596,52.433,67.924,46.434,59.548,46.434C42.237,46.708,23.84,59.985,23.84,86.996C23.84,94.974,25.33,103.217,28.308,111.723C32.279,122.899,46.611,150.305,61.564,149.849C69.382,149.666,74.904,144.398,85.079,144.398C94.944,144.398,100.063,149.849,108.781,149.849C123.858,149.635,136.825,124.726,140.61,113.519C120.383,104.171,121.469,86.113,121.469,85.534ZM99.762,35.601C109.159,25.779,108.298,16.836,108.023,13.623C99.727,14.048,90.124,18.595,84.651,24.203C78.627,30.205,75.082,37.633,75.839,46C84.823,46.606,93.015,42.544,99.762,35.601ZM99.762,35.601"/>
</g>
  <g id="Bold-L" transform="matrix(1.0,0.0,0.0,1.0,2259.521376250562,1439.031395781812)">  <path stroke-opacity="1" stroke-miterlimit="4" fill-opacity="1" stroke-linecap="butt" stroke="none" fill-rule="nonzero" version="1.1" stroke-dasharray="none" stroke-linejoin="miter" fill="#000000" xmlns:xlink="http://www.w3.org/1999/xlink" stroke-width="1px" d="M121.469,85.534C121.407,74.358,126.557,65.923,136.98,59.711C131.148,51.52,122.338,47.013,110.704,46.13C99.691,45.277,87.654,52.433,83.249,52.433C78.596,52.433,67.924,46.434,59.548,46.434C42.237,46.708,23.84,59.985,23.84,86.996C23.84,94.974,25.33,103.217,28.308,111.723C32.279,122.899,46.611,150.305,61.564,149.849C69.382,149.666,74.904,144.398,85.079,144.398C94.944,144.398,100.063,149.849,108.781,149.849C123.858,149.635,136.825,124.726,140.61,113.519C120.383,104.171,121.469,86.113,121.469,85.534ZM99.762,35.601C109.159,25.779,108.298,16.836,108.023,13.623C99.727,14.048,90.124,18.595,84.651,24.203C78.627,30.205,75.082,37.633,75.839,46C84.823,46.606,93.015,42.544,99.762,35.601ZM99.762,35.601"/>
</g>
  <g id="Semibold-L" transform="matrix(1.0,0.0,0.0,1.0,1962.811376250562,1439.031395781812)">  <path stroke-opacity="1" fill="#000000" stroke-linejoin="miter" fill-opacity="1" xmlns:xlink="http://www.w3.org/1999/xlink" stroke-miterlimit="4" stroke-dasharray="none" stroke="none" fill-rule="nonzero" version="1.1" stroke-width="1px" stroke-linecap="butt" d="M121.469,85.534C121.407,74.358,126.557,65.923,136.98,59.711C131.148,51.52,122.338,47.013,110.704,46.13C99.691,45.277,87.654,52.433,83.249,52.433C78.596,52.433,67.924,46.434,59.548,46.434C42.237,46.708,23.84,59.985,23.84,86.996C23.84,94.974,25.33,103.217,28.308,111.723C32.279,122.899,46.611,150.305,61.564,149.849C69.382,149.666,74.904,144.398,85.079,144.398C94.944,144.398,100.063,149.849,108.781,149.849C123.858,149.635,136.825,124.726,140.61,113.519C120.383,104.171,121.469,86.113,121.469,85.534ZM99.762,35.601C109.159,25.779,108.298,16.836,108.023,13.623C99.727,14.048,90.124,18.595,84.651,24.203C78.627,30.205,75.082,37.633,75.839,46C84.823,46.606,93.015,42.544,99.762,35.601ZM99.762,35.601"/>
</g>
  <g id="Medium-L" transform="matrix(1.0,0.0,0.0,1.0,1666.101376250562,1439.031395781812)">  <path fill-rule="nonzero" fill="#000000" stroke-width="1px" xmlns:xlink="http://www.w3.org/1999/xlink" fill-opacity="1" stroke-linecap="butt" stroke-linejoin="miter" stroke-miterlimit="4" stroke-dasharray="none" stroke="none" stroke-opacity="1" version="1.1" d="M121.469,85.534C121.407,74.358,126.557,65.923,136.98,59.711C131.148,51.52,122.338,47.013,110.704,46.13C99.691,45.277,87.654,52.433,83.249,52.433C78.596,52.433,67.924,46.434,59.548,46.434C42.237,46.708,23.84,59.985,23.84,86.996C23.84,94.974,25.33,103.217,28.308,111.723C32.279,122.899,46.611,150.305,61.564,149.849C69.382,149.666,74.904,144.398,85.079,144.398C94.944,144.398,100.063,149.849,108.781,149.849C123.858,149.635,136.825,124.726,140.61,113.519C120.383,104.171,121.469,86.113,121.469,85.534ZM99.762,35.601C109.159,25.779,108.298,16.836,108.023,13.623C99.727,14.048,90.124,18.595,84.651,24.203C78.627,30.205,75.082,37.633,75.839,46C84.823,46.606,93.015,42.544,99.762,35.601ZM99.762,35.601"/>
</g>
  <g id="Regular-L" transform="matrix(1.0,0.0,0.0,1.0,1369.391376250562,1439.031395781812)">  <path stroke-linecap="butt" stroke-dasharray="none" fill="#000000" version="1.1" stroke-miterlimit="4" fill-rule="nonzero" stroke-opacity="1" stroke="none" stroke-linejoin="miter" fill-opacity="1" xmlns:xlink="http://www.w3.org/1999/xlink" stroke-width="1px" d="M121.469,85.534C121.407,74.358,126.557,65.923,136.98,59.711C131.148,51.52,122.338,47.013,110.704,46.13C99.691,45.277,87.654,52.433,83.249,52.433C78.596,52.433,67.924,46.434,59.548,46.434C42.237,46.708,23.84,59.985,23.84,86.996C23.84,94.974,25.33,103.217,28.308,111.723C32.279,122.899,46.611,150.305,61.564,149.849C69.382,149.666,74.904,144.398,85.079,144.398C94.944,144.398,100.063,149.849,108.781,149.849C123.858,149.635,136.825,124.726,140.61,113.519C120.383,104.171,121.469,86.113,121.469,85.534ZM99.762,35.601C109.159,25.779,108.298,16.836,108.023,13.623C99.727,14.048,90.124,18.595,84.651,24.203C78.627,30.205,75.082,37.633,75.839,46C84.823,46.606,93.015,42.544,99.762,35.601ZM99.762,35.601"/>
</g>
  <g id="Light-L" transform="matrix(1.0,0.0,0.0,1.0,1072.6813762505622,1439.031395781812)">  <path stroke-opacity="1" xmlns:xlink="http://www.w3.org/1999/xlink" stroke-linejoin="miter" stroke-width="1px" stroke-dasharray="none" stroke="none" stroke-miterlimit="4" fill-opacity="1" version="1.1" fill="#000000" stroke-linecap="butt" fill-rule="nonzero" d="M121.469,85.534C121.407,74.358,126.557,65.923,136.98,59.711C131.148,51.52,122.338,47.013,110.704,46.13C99.691,45.277,87.654,52.433,83.249,52.433C78.596,52.433,67.924,46.434,59.548,46.434C42.237,46.708,23.84,59.985,23.84,86.996C23.84,94.974,25.33,103.217,28.308,111.723C32.279,122.899,46.611,150.305,61.564,149.849C69.382,149.666,74.904,144.398,85.079,144.398C94.944,144.398,100.063,149.849,108.781,149.849C123.858,149.635,136.825,124.726,140.61,113.519C120.383,104.171,121.469,86.113,121.469,85.534ZM99.762,35.601C109.159,25.779,108.298,16.836,108.023,13.623C99.727,14.048,90.124,18.595,84.651,24.203C78.627,30.205,75.082,37.633,75.839,46C84.823,46.606,93.015,42.544,99.762,35.601ZM99.762,35.601"/>
</g>
  <g id="Thin-L" transform="matrix(1.0,0.0,0.0,1.0,775.9713762505621,1439.031395781812)">  <path version="1.1" fill-opacity="1" fill-rule="nonzero" stroke-opacity="1" stroke-linecap="butt" stroke-width="1px" stroke="none" fill="#000000" stroke-miterlimit="4" stroke-dasharray="none" stroke-linejoin="miter" xmlns:xlink="http://www.w3.org/1999/xlink" d="M121.469,85.534C121.407,74.358,126.557,65.923,136.98,59.711C131.148,51.52,122.338,47.013,110.704,46.13C99.691,45.277,87.654,52.433,83.249,52.433C78.596,52.433,67.924,46.434,59.548,46.434C42.237,46.708,23.84,59.985,23.84,86.996C23.84,94.974,25.33,103.217,28.308,111.723C32.279,122.899,46.611,150.305,61.564,149.849C69.382,149.666,74.904,144.398,85.079,144.398C94.944,144.398,100.063,149.849,108.781,149.849C123.858,149.635,136.825,124.726,140.61,113.519C120.383,104.171,121.469,86.113,121.469,85.534ZM99.762,35.601C109.159,25.779,108.298,16.836,108.023,13.623C99.727,14.048,90.124,18.595,84.651,24.203C78.627,30.205,75.082,37.633,75.839,46C84.823,46.606,93.015,42.544,99.762,35.601ZM99.762,35.601"/>
</g>
  <g id="Ultralight-L" transform="matrix(1.0,0.0,0.0,1.0,479.2613762505621,1439.031395781812)">  <path stroke-linecap="butt" fill="#000000" stroke-width="1px" fill-opacity="1" stroke="none" stroke-miterlimit="4" fill-rule="nonzero" stroke-dasharray="none" xmlns:xlink="http://www.w3.org/1999/xlink" version="1.1" stroke-opacity="1" stroke-linejoin="miter" d="M121.469,85.534C121.407,74.358,126.557,65.923,136.98,59.711C131.148,51.52,122.338,47.013,110.704,46.13C99.691,45.277,87.654,52.433,83.249,52.433C78.596,52.433,67.924,46.434,59.548,46.434C42.237,46.708,23.84,59.985,23.84,86.996C23.84,94.974,25.33,103.217,28.308,111.723C32.279,122.899,46.611,150.305,61.564,149.849C69.382,149.666,74.904,144.398,85.079,144.398C94.944,144.398,100.063,149.849,108.781,149.849C123.858,149.635,136.825,124.726,140.61,113.519C120.383,104.171,121.469,86.113,121.469,85.534ZM99.762,35.601C109.159,25.779,108.298,16.836,108.023,13.623C99.727,14.048,90.124,18.595,84.651,24.203C78.627,30.205,75.082,37.633,75.839,46C84.823,46.606,93.015,42.544,99.762,35.601ZM99.762,35.601"/>
</g>
  <g id="Black-M" transform="matrix(1.0,0.0,0.0,1.0,2871.3167257756295,1027.4067453068794)">  <path stroke-linecap="butt" fill-rule="nonzero" stroke-width="1px" fill-opacity="1" stroke-opacity="1" fill="#000000" stroke-linejoin="miter" version="1.1" xmlns:xlink="http://www.w3.org/1999/xlink" stroke="none" stroke-dasharray="none" stroke-miterlimit="4" d="M94.162,66.306C94.114,57.642,98.106,51.103,106.186,46.288C101.665,39.938,94.835,36.444,85.817,35.759C77.28,35.098,67.949,40.646,64.534,40.646C60.927,40.646,52.654,35.995,46.161,35.995C32.742,36.208,18.481,46.5,18.481,67.439C18.481,73.624,19.635,80.013,21.944,86.607C25.022,95.27,36.133,116.516,47.724,116.162C53.784,116.02,58.065,111.936,65.953,111.936C73.6,111.936,77.568,116.162,84.326,116.162C96.014,115.996,106.066,96.687,109,88C93.32,80.753,94.162,66.754,94.162,66.306ZM77.335,27.598C84.619,19.984,83.952,13.052,83.738,10.561C77.308,10.89,69.863,14.415,65.621,18.762C60.951,23.415,58.203,29.173,58.79,35.659C65.754,36.129,72.105,32.98,77.335,27.598ZM77.335,27.598"/>
</g>
  <g id="Heavy-M" transform="matrix(1.0,0.0,0.0,1.0,2574.6067257756295,1027.4067453068794)">  <path stroke="none" fill-opacity="1" version="1.1" stroke-miterlimit="4" stroke-width="1px" stroke-opacity="1" fill="#000000" stroke-dasharray="none" stroke-linecap="butt" fill-rule="nonzero" xmlns:xlink="http://www.w3.org/1999/xlink" stroke-linejoin="miter" d="M94.162,66.306C94.114,57.642,98.106,51.103,106.186,46.288C101.665,39.938,94.835,36.444,85.817,35.759C77.28,35.098,67.949,40.646,64.534,40.646C60.927,40.646,52.654,35.995,46.161,35.995C32.742,36.208,18.481,46.5,18.481,67.439C18.481,73.624,19.635,80.013,21.944,86.607C25.022,95.27,36.133,116.516,47.724,116.162C53.784,116.02,58.065,111.936,65.953,111.936C73.6,111.936,77.568,116.162,84.326,116.162C96.014,115.996,106.066,96.687,109,88C93.32,80.753,94.162,66.754,94.162,66.306ZM77.335,27.598C84.619,19.984,83.952,13.052,83.738,10.561C77.308,10.89,69.863,14.415,65.621,18.762C60.951,23.415,58.203,29.173,58.79,35.659C65.754,36.129,72.105,32.98,77.335,27.598ZM77.335,27.598"/>
</g>
  <g id="Bold-M" transform="matrix(1.0,0.0,0.0,1.0,2277.8967257756294,1027.4067453068794)">  <path stroke-opacity="1" stroke-miterlimit="4" fill-opacity="1" stroke-linecap="butt" stroke="none" fill-rule="nonzero" version="1.1" stroke-dasharray="none" stroke-linejoin="miter" fill="#000000" xmlns:xlink="http://www.w3.org/1999/xlink" stroke-width="1px" d="M94.162,66.306C94.114,57.642,98.106,51.103,106.186,46.288C101.665,39.938,94.835,36.444,85.817,35.759C77.28,35.098,67.949,40.646,64.534,40.646C60.927,40.646,52.654,35.995,46.161,35.995C32.742,36.208,18.481,46.5,18.481,67.439C18.481,73.624,19.635,80.013,21.944,86.607C25.022,95.27,36.133,116.516,47.724,116.162C53.784,116.02,58.065,111.936,65.953,111.936C73.6,111.936,77.568,116.162,84.326,116.162C96.014,115.996,106.066,96.687,109,88C93.32,80.753,94.162,66.754,94.162,66.306ZM77.335,27.598C84.619,19.984,83.952,13.052,83.738,10.561C77.308,10.89,69.863,14.415,65.621,18.762C60.951,23.415,58.203,29.173,58.79,35.659C65.754,36.129,72.105,32.98,77.335,27.598ZM77.335,27.598"/>
</g>
  <g id="Semibold-M" transform="matrix(1.0,0.0,0.0,1.0,1981.1867257756294,1027.4067453068794)">  <path stroke-opacity="1" fill="#000000" stroke-linejoin="miter" fill-opacity="1" xmlns:xlink="http://www.w3.org/1999/xlink" stroke-miterlimit="4" stroke-dasharray="none" stroke="none" fill-rule="nonzero" version="1.1" stroke-width="1px" stroke-linecap="butt" d="M94.162,66.306C94.114,57.642,98.106,51.103,106.186,46.288C101.665,39.938,94.835,36.444,85.817,35.759C77.28,35.098,67.949,40.646,64.534,40.646C60.927,40.646,52.654,35.995,46.161,35.995C32.742,36.208,18.481,46.5,18.481,67.439C18.481,73.624,19.635,80.013,21.944,86.607C25.022,95.27,36.133,116.516,47.724,116.162C53.784,116.02,58.065,111.936,65.953,111.936C73.6,111.936,77.568,116.162,84.326,116.162C96.014,115.996,106.066,96.687,109,88C93.32,80.753,94.162,66.754,94.162,66.306ZM77.335,27.598C84.619,19.984,83.952,13.052,83.738,10.561C77.308,10.89,69.863,14.415,65.621,18.762C60.951,23.415,58.203,29.173,58.79,35.659C65.754,36.129,72.105,32.98,77.335,27.598ZM77.335,27.598"/>
</g>
  <g id="Medium-M" transform="matrix(1.0,0.0,0.0,1.0,1684.4767257756293,1027.4067453068794)">  <path fill-rule="nonzero" fill="#000000" stroke-width="1px" xmlns:xlink="http://www.w3.org/1999/xlink" fill-opacity="1" stroke-linecap="butt" stroke-linejoin="miter" stroke-miterlimit="4" stroke-dasharray="none" stroke="none" stroke-opacity="1" version="1.1" d="M94.162,66.306C94.114,57.642,98.106,51.103,106.186,46.288C101.665,39.938,94.835,36.444,85.817,35.759C77.28,35.098,67.949,40.646,64.534,40.646C60.927,40.646,52.654,35.995,46.161,35.995C32.742,36.208,18.481,46.5,18.481,67.439C18.481,73.624,19.635,80.013,21.944,86.607C25.022,95.27,36.133,116.516,47.724,116.162C53.784,116.02,58.065,111.936,65.953,111.936C73.6,111.936,77.568,116.162,84.326,116.162C96.014,115.996,106.066,96.687,109,88C93.32,80.753,94.162,66.754,94.162,66.306ZM77.335,27.598C84.619,19.984,83.952,13.052,83.738,10.561C77.308,10.89,69.863,14.415,65.621,18.762C60.951,23.415,58.203,29.173,58.79,35.659C65.754,36.129,72.105,32.98,77.335,27.598ZM77.335,27.598"/>
</g>
  <g id="Regular-M" transform="matrix(1.0,0.0,0.0,1.0,1387.7667257756293,1027.4067453068794)">  <path stroke-linecap="butt" stroke-dasharray="none" fill="#000000" version="1.1" stroke-miterlimit="4" fill-rule="nonzero" stroke-opacity="1" stroke="none" stroke-linejoin="miter" fill-opacity="1" xmlns:xlink="http://www.w3.org/1999/xlink" stroke-width="1px" d="M94.162,66.306C94.114,57.642,98.106,51.103,106.186,46.288C101.665,39.938,94.835,36.444,85.817,35.759C77.28,35.098,67.949,40.646,64.534,40.646C60.927,40.646,52.654,35.995,46.161,35.995C32.742,36.208,18.481,46.5,18.481,67.439C18.481,73.624,19.635,80.013,21.944,86.607C25.022,95.27,36.133,116.516,47.724,116.162C53.784,116.02,58.065,111.936,65.953,111.936C73.6,111.936,77.568,116.162,84.326,116.162C96.014,115.996,106.066,96.687,109,88C93.32,80.753,94.162,66.754,94.162,66.306ZM77.335,27.598C84.619,19.984,83.952,13.052,83.738,10.561C77.308,10.89,69.863,14.415,65.621,18.762C60.951,23.415,58.203,29.173,58.79,35.659C65.754,36.129,72.105,32.98,77.335,27.598ZM77.335,27.598"/>
</g>
  <g id="Light-M" transform="matrix(1.0,0.0,0.0,1.0,1091.0567257756295,1027.4067453068794)">  <path stroke-opacity="1" xmlns:xlink="http://www.w3.org/1999/xlink" stroke-linejoin="miter" stroke-width="1px" stroke-dasharray="none" stroke="none" stroke-miterlimit="4" fill-opacity="1" version="1.1" fill="#000000" stroke-linecap="butt" fill-rule="nonzero" d="M94.162,66.306C94.114,57.642,98.106,51.103,106.186,46.288C101.665,39.938,94.835,36.444,85.817,35.759C77.28,35.098,67.949,40.646,64.534,40.646C60.927,40.646,52.654,35.995,46.161,35.995C32.742,36.208,18.481,46.5,18.481,67.439C18.481,73.624,19.635,80.013,21.944,86.607C25.022,95.27,36.133,116.516,47.724,116.162C53.784,116.02,58.065,111.936,65.953,111.936C73.6,111.936,77.568,116.162,84.326,116.162C96.014,115.996,106.066,96.687,109,88C93.32,80.753,94.162,66.754,94.162,66.306ZM77.335,27.598C84.619,19.984,83.952,13.052,83.738,10.561C77.308,10.89,69.863,14.415,65.621,18.762C60.951,23.415,58.203,29.173,58.79,35.659C65.754,36.129,72.105,32.98,77.335,27.598ZM77.335,27.598"/>
</g>
  <g id="Thin-M" transform="matrix(1.0,0.0,0.0,1.0,794.3467257756296,1027.4067453068794)">  <path version="1.1" fill-opacity="1" fill-rule="nonzero" stroke-opacity="1" stroke-linecap="butt" stroke-width="1px" stroke="none" fill="#000000" stroke-miterlimit="4" stroke-dasharray="none" stroke-linejoin="miter" xmlns:xlink="http://www.w3.org/1999/xlink" d="M94.162,66.306C94.114,57.642,98.106,51.103,106.186,46.288C101.665,39.938,94.835,36.444,85.817,35.759C77.28,35.098,67.949,40.646,64.534,40.646C60.927,40.646,52.654,35.995,46.161,35.995C32.742,36.208,18.481,46.5,18.481,67.439C18.481,73.624,19.635,80.013,21.944,86.607C25.022,95.27,36.133,116.516,47.724,116.162C53.784,116.02,58.065,111.936,65.953,111.936C73.6,111.936,77.568,116.162,84.326,116.162C96.014,115.996,106.066,96.687,109,88C93.32,80.753,94.162,66.754,94.162,66.306ZM77.335,27.598C84.619,19.984,83.952,13.052,83.738,10.561C77.308,10.89,69.863,14.415,65.621,18.762C60.951,23.415,58.203,29.173,58.79,35.659C65.754,36.129,72.105,32.98,77.335,27.598ZM77.335,27.598"/>
</g>
  <g id="Ultralight-M" transform="matrix(1.0,0.0,0.0,1.0,497.6367257756295,1027.4067453068794)">  <path stroke-linecap="butt" fill="#000000" stroke-width="1px" fill-opacity="1" stroke="none" stroke-miterlimit="4" fill-rule="nonzero" stroke-dasharray="none" xmlns:xlink="http://www.w3.org/1999/xlink" version="1.1" stroke-opacity="1" stroke-linejoin="miter" d="M94.162,66.306C94.114,57.642,98.106,51.103,106.186,46.288C101.665,39.938,94.835,36.444,85.817,35.759C77.28,35.098,67.949,40.646,64.534,40.646C60.927,40.646,52.654,35.995,46.161,35.995C32.742,36.208,18.481,46.5,18.481,67.439C18.481,73.624,19.635,80.013,21.944,86.607C25.022,95.27,36.133,116.516,47.724,116.162C53.784,116.02,58.065,111.936,65.953,111.936C73.6,111.936,77.568,116.162,84.326,116.162C96.014,115.996,106.066,96.687,109,88C93.32,80.753,94.162,66.754,94.162,66.306ZM77.335,27.598C84.619,19.984,83.952,13.052,83.738,10.561C77.308,10.89,69.863,14.415,65.621,18.762C60.951,23.415,58.203,29.173,58.79,35.659C65.754,36.129,72.105,32.98,77.335,27.598ZM77.335,27.598"/>
</g>
  <g id="Black-S" transform="matrix(1.0,0.0,0.0,1.0,2885.066556282318,611.1565758135679)">  <path stroke-linecap="butt" fill-rule="nonzero" stroke-width="1px" fill-opacity="1" stroke-opacity="1" fill="#000000" stroke-linejoin="miter" version="1.1" xmlns:xlink="http://www.w3.org/1999/xlink" stroke="none" stroke-dasharray="none" stroke-miterlimit="4" d="M73.729,51.917C73.691,45.134,76.817,40.014,83.144,36.243C79.604,31.271,74.256,28.536,67.195,28C60.51,27.482,53.204,31.826,50.53,31.826C47.706,31.826,41.228,28.184,36.144,28.184C25.637,28.351,14.471,36.41,14.471,52.805C14.471,57.647,15.374,62.65,17.182,67.813C19.592,74.597,28.292,91.232,37.368,90.955C42.113,90.844,45.465,87.646,51.641,87.646C57.629,87.646,60.736,90.955,66.027,90.955C75.179,90.825,83.05,75.706,85.347,68.904C73.07,63.229,73.729,52.269,73.729,51.917ZM60.553,21.609C66.257,15.648,65.734,10.219,65.567,8.269C60.532,8.527,54.703,11.287,51.381,14.691C47.725,18.334,45.573,22.842,46.033,27.921C51.486,28.289,56.458,25.823,60.553,21.609ZM60.553,21.609"/>
</g>
  <g id="Heavy-S" transform="matrix(1.0,0.0,0.0,1.0,2588.356556282318,611.1565758135679)">  <path stroke="none" fill-opacity="1" version="1.1" stroke-miterlimit="4" stroke-width="1px" stroke-opacity="1" fill="#000000" stroke-dasharray="none" stroke-linecap="butt" fill-rule="nonzero" xmlns:xlink="http://www.w3.org/1999/xlink" stroke-linejoin="miter" d="M73.729,51.917C73.691,45.134,76.817,40.014,83.144,36.243C79.604,31.271,74.256,28.536,67.195,28C60.51,27.482,53.204,31.826,50.53,31.826C47.706,31.826,41.228,28.184,36.144,28.184C25.637,28.351,14.471,36.41,14.471,52.805C14.471,57.647,15.374,62.65,17.182,67.813C19.592,74.597,28.292,91.232,37.368,90.955C42.113,90.844,45.465,87.646,51.641,87.646C57.629,87.646,60.736,90.955,66.027,90.955C75.179,90.825,83.05,75.706,85.347,68.904C73.07,63.229,73.729,52.269,73.729,51.917ZM60.553,21.609C66.257,15.648,65.734,10.219,65.567,8.269C60.532,8.527,54.703,11.287,51.381,14.691C47.725,18.334,45.573,22.842,46.033,27.921C51.486,28.289,56.458,25.823,60.553,21.609ZM60.553,21.609"/>
</g>
  <g id="Bold-S" transform="matrix(1.0,0.0,0.0,1.0,2291.6465562823178,611.1565758135679)">  <path stroke-opacity="1" stroke-miterlimit="4" fill-opacity="1" stroke-linecap="butt" stroke="none" fill-rule="nonzero" version="1.1" stroke-dasharray="none" stroke-linejoin="miter" fill="#000000" xmlns:xlink="http://www.w3.org/1999/xlink" stroke-width="1px" d="M73.729,51.917C73.691,45.134,76.817,40.014,83.144,36.243C79.604,31.271,74.256,28.536,67.195,28C60.51,27.482,53.204,31.826,50.53,31.826C47.706,31.826,41.228,28.184,36.144,28.184C25.637,28.351,14.471,36.41,14.471,52.805C14.471,57.647,15.374,62.65,17.182,67.813C19.592,74.597,28.292,91.232,37.368,90.955C42.113,90.844,45.465,87.646,51.641,87.646C57.629,87.646,60.736,90.955,66.027,90.955C75.179,90.825,83.05,75.706,85.347,68.904C73.07,63.229,73.729,52.269,73.729,51.917ZM60.553,21.609C66.257,15.648,65.734,10.219,65.567,8.269C60.532,8.527,54.703,11.287,51.381,14.691C47.725,18.334,45.573,22.842,46.033,27.921C51.486,28.289,56.458,25.823,60.553,21.609ZM60.553,21.609"/>
</g>
  <g id="Semibold-S" transform="matrix(1.0,0.0,0.0,1.0,1994.936556282318,611.1565758135679)">  <path stroke-opacity="1" fill="#000000" stroke-linejoin="miter" fill-opacity="1" xmlns:xlink="http://www.w3.org/1999/xlink" stroke-miterlimit="4" stroke-dasharray="none" stroke="none" fill-rule="nonzero" version="1.1" stroke-width="1px" stroke-linecap="butt" d="M73.729,51.917C73.691,45.134,76.817,40.014,83.144,36.243C79.604,31.271,74.256,28.536,67.195,28C60.51,27.482,53.204,31.826,50.53,31.826C47.706,31.826,41.228,28.184,36.144,28.184C25.637,28.351,14.471,36.41,14.471,52.805C14.471,57.647,15.374,62.65,17.182,67.813C19.592,74.597,28.292,91.232,37.368,90.955C42.113,90.844,45.465,87.646,51.641,87.646C57.629,87.646,60.736,90.955,66.027,90.955C75.179,90.825,83.05,75.706,85.347,68.904C73.07,63.229,73.729,52.269,73.729,51.917ZM60.553,21.609C66.257,15.648,65.734,10.219,65.567,8.269C60.532,8.527,54.703,11.287,51.381,14.691C47.725,18.334,45.573,22.842,46.033,27.921C51.486,28.289,56.458,25.823,60.553,21.609ZM60.553,21.609"/>
</g>
  <g id="Medium-S" transform="matrix(1.0,0.0,0.0,1.0,1698.226556282318,611.1565758135679)">  <path fill-rule="nonzero" fill="#000000" stroke-width="1px" xmlns:xlink="http://www.w3.org/1999/xlink" fill-opacity="1" stroke-linecap="butt" stroke-linejoin="miter" stroke-miterlimit="4" stroke-dasharray="none" stroke="none" stroke-opacity="1" version="1.1" d="M73.729,51.917C73.691,45.134,76.817,40.014,83.144,36.243C79.604,31.271,74.256,28.536,67.195,28C60.51,27.482,53.204,31.826,50.53,31.826C47.706,31.826,41.228,28.184,36.144,28.184C25.637,28.351,14.471,36.41,14.471,52.805C14.471,57.647,15.374,62.65,17.182,67.813C19.592,74.597,28.292,91.232,37.368,90.955C42.113,90.844,45.465,87.646,51.641,87.646C57.629,87.646,60.736,90.955,66.027,90.955C75.179,90.825,83.05,75.706,85.347,68.904C73.07,63.229,73.729,52.269,73.729,51.917ZM60.553,21.609C66.257,15.648,65.734,10.219,65.567,8.269C60.532,8.527,54.703,11.287,51.381,14.691C47.725,18.334,45.573,22.842,46.033,27.921C51.486,28.289,56.458,25.823,60.553,21.609ZM60.553,21.609"/>
</g>
  <g id="Regular-S" transform="matrix(1.0,0.0,0.0,1.0,1401.5165562823179,611.1565758135679)">  <path stroke-linecap="butt" stroke-dasharray="none" fill="#000000" version="1.1" stroke-miterlimit="4" fill-rule="nonzero" stroke-opacity="1" stroke="none" stroke-linejoin="miter" fill-opacity="1" xmlns:xlink="http://www.w3.org/1999/xlink" stroke-width="1px" d="M73.729,51.917C73.691,45.134,76.817,40.014,83.144,36.243C79.604,31.271,74.256,28.536,67.195,28C60.51,27.482,53.204,31.826,50.53,31.826C47.706,31.826,41.228,28.184,36.144,28.184C25.637,28.351,14.471,36.41,14.471,52.805C14.471,57.647,15.374,62.65,17.182,67.813C19.592,74.597,28.292,91.232,37.368,90.955C42.113,90.844,45.465,87.646,51.641,87.646C57.629,87.646,60.736,90.955,66.027,90.955C75.179,90.825,83.05,75.706,85.347,68.904C73.07,63.229,73.729,52.269,73.729,51.917ZM60.553,21.609C66.257,15.648,65.734,10.219,65.567,8.269C60.532,8.527,54.703,11.287,51.381,14.691C47.725,18.334,45.573,22.842,46.033,27.921C51.486,28.289,56.458,25.823,60.553,21.609ZM60.553,21.609"/>
</g>
  <g id="Light-S" transform="matrix(1.0,0.0,0.0,1.0,1104.806556282318,611.1565758135679)">  <path stroke-opacity="1" xmlns:xlink="http://www.w3.org/1999/xlink" stroke-linejoin="miter" stroke-width="1px" stroke-dasharray="none" stroke="none" stroke-miterlimit="4" fill-opacity="1" version="1.1" fill="#000000" stroke-linecap="butt" fill-rule="nonzero" d="M73.729,51.917C73.691,45.134,76.817,40.014,83.144,36.243C79.604,31.271,74.256,28.536,67.195,28C60.51,27.482,53.204,31.826,50.53,31.826C47.706,31.826,41.228,28.184,36.144,28.184C25.637,28.351,14.471,36.41,14.471,52.805C14.471,57.647,15.374,62.65,17.182,67.813C19.592,74.597,28.292,91.232,37.368,90.955C42.113,90.844,45.465,87.646,51.641,87.646C57.629,87.646,60.736,90.955,66.027,90.955C75.179,90.825,83.05,75.706,85.347,68.904C73.07,63.229,73.729,52.269,73.729,51.917ZM60.553,21.609C66.257,15.648,65.734,10.219,65.567,8.269C60.532,8.527,54.703,11.287,51.381,14.691C47.725,18.334,45.573,22.842,46.033,27.921C51.486,28.289,56.458,25.823,60.553,21.609ZM60.553,21.609"/>
</g>
  <g id="Thin-S" transform="matrix(1.0,0.0,0.0,1.0,808.0965562823179,611.1565758135679)">  <path version="1.1" fill-opacity="1" fill-rule="nonzero" stroke-opacity="1" stroke-linecap="butt" stroke-width="1px" stroke="none" fill="#000000" stroke-miterlimit="4" stroke-dasharray="none" stroke-linejoin="miter" xmlns:xlink="http://www.w3.org/1999/xlink" d="M73.729,51.917C73.691,45.134,76.817,40.014,83.144,36.243C79.604,31.271,74.256,28.536,67.195,28C60.51,27.482,53.204,31.826,50.53,31.826C47.706,31.826,41.228,28.184,36.144,28.184C25.637,28.351,14.471,36.41,14.471,52.805C14.471,57.647,15.374,62.65,17.182,67.813C19.592,74.597,28.292,91.232,37.368,90.955C42.113,90.844,45.465,87.646,51.641,87.646C57.629,87.646,60.736,90.955,66.027,90.955C75.179,90.825,83.05,75.706,85.347,68.904C73.07,63.229,73.729,52.269,73.729,51.917ZM60.553,21.609C66.257,15.648,65.734,10.219,65.567,8.269C60.532,8.527,54.703,11.287,51.381,14.691C47.725,18.334,45.573,22.842,46.033,27.921C51.486,28.289,56.458,25.823,60.553,21.609ZM60.553,21.609"/>
</g>
  <g id="Ultralight-S" transform="matrix(1.0,0.0,0.0,1.0,511.3865562823179,611.1565758135679)">  <path stroke-linecap="butt" fill="#000000" stroke-width="1px" fill-opacity="1" stroke="none" stroke-miterlimit="4" fill-rule="nonzero" stroke-dasharray="none" xmlns:xlink="http://www.w3.org/1999/xlink" version="1.1" stroke-opacity="1" stroke-linejoin="miter" d="M73.729,51.917C73.691,45.134,76.817,40.014,83.144,36.243C79.604,31.271,74.256,28.536,67.195,28C60.51,27.482,53.204,31.826,50.53,31.826C47.706,31.826,41.228,28.184,36.144,28.184C25.637,28.351,14.471,36.41,14.471,52.805C14.471,57.647,15.374,62.65,17.182,67.813C19.592,74.597,28.292,91.232,37.368,90.955C42.113,90.844,45.465,87.646,51.641,87.646C57.629,87.646,60.736,90.955,66.027,90.955C75.179,90.825,83.05,75.706,85.347,68.904C73.07,63.229,73.729,52.269,73.729,51.917ZM60.553,21.609C66.257,15.648,65.734,10.219,65.567,8.269C60.532,8.527,54.703,11.287,51.381,14.691C47.725,18.334,45.573,22.842,46.033,27.921C51.486,28.289,56.458,25.823,60.553,21.609ZM60.553,21.609"/>
</g>
 </g>
</svg>
