<?xml version="1.0" encoding="UTF-8"?>
<!-- Generator: CustomSymbols v2.7.2.48 by @serious_bret https://bretlester.com/app_content/CustomSymbols/ -->
<!-- Guides: Left/Right 0.11/0.11 Cap/Base 0.222/0.222 -->
<!-- Settings: RefScale 1.0 Min/Max Stroke Scales 0.5/2.21 -->
<!DOCTYPE svg
PUBLIC "-//W3C//DTD SVG 1.1//EN"
       "http://www.w3.org/Graphics/SVG/1.1/DTD/svg11.dtd">
<svg version="1.1" xmlns="http://www.w3.org/2000/svg" xmlns:xlink="http://www.w3.org/1999/xlink" width="3300" height="2200">
<![CDATA[<?xml version="1.0" encoding="UTF-8"?>
<svg width="96px" height="96px" viewBox="0 0 96 96" version="1.1" xmlns="http://www.w3.org/2000/svg" xmlns:xlink="http://www.w3.org/1999/xlink">
    <title>icon/medical/radiation</title>
    <g id="icon/medical/radiation" stroke="none" stroke-width="1" fill="none" fill-rule="evenodd">
        <path d="M40.4396754,30.4824919 C35.9279492,33.0875869 32.8886692,37.9768595 32.8886692,43.5645995 L5.70504685,43.5645995 C2.3637266,43.5645995 -0.373513148,40.8462395 0.0417921939,37.542677 C1.68413605,24.3095493 8.68769431,12.7376417 18.7871651,5.05449912 C21.4488948,3.0346066 25.1677654,4.05399161 26.8478643,6.94224914 L40.4396754,30.4824919 Z M47.9906817,58.6665997 C50.7467989,58.6665997 53.314141,57.9303772 55.5416879,56.6467071 L69.1334991,80.2058274 C70.7947204,83.0940849 69.8319671,86.8318299 66.7549321,88.1155 C60.9784123,90.5506975 54.6355671,91.891 47.9906817,91.891 C41.3457962,91.891 34.9840734,90.5506975 29.2264312,88.1155 C26.1493962,86.8129524 25.1866429,83.0940849 26.8478643,80.2058274 L40.4396754,56.6467071 C42.6672223,57.9303772 45.2345644,58.6665997 47.9906817,58.6665997 Z M90.2763165,43.5645995 L63.0926941,43.5645995 C63.0926941,37.9768595 60.0534141,33.0875869 55.5416879,30.4824919 L69.1334991,6.94224914 C70.7947204,4.05399161 74.5324685,3.0346066 77.1941982,5.05449912 C87.3125465,12.7376417 94.2972273,24.3095493 95.9584486,37.542677 C96.373754,40.8462395 93.6176367,43.5645995 90.295194,43.5645995 L90.2763165,43.5645995 Z M47.9906817,52.6257996 C42.98814,52.6257996 38.9294742,48.5671371 38.9294742,43.5645995 C38.9294742,38.562062 42.98814,34.5033994 47.9906817,34.5033994 C52.9932233,34.5033994 57.0518891,38.562062 57.0518891,43.5645995 C57.0518891,48.5671371 52.9932233,52.6257996 47.9906817,52.6257996 Z" id="Shape" fill="#FB4C6C" fill-rule="nonzero"></path>
    </g>
</svg>]]>
 <g id="Notes">
  <rect height="2200" id="artboard" style="fill:white;opacity:1" width="3300" x="0" y="0"/>
  <line id="" style="fill:none;stroke:black;opacity:1;stroke-width:0.5;" x1="263" x2="3036" y1="292" y2="292"/>
  <text id="reftext1" style="stroke:none;fill:black;font-family:-apple-system,&quot;SF Pro Display&quot;,&quot;SF Pro Text&quot;,Helvetica,sans-serif;font-weight:bold;" transform="matrix(1 0 0 1 263 322)">Weight/Scale Variations</text>
  <text id="reftext2" style="stroke:none;fill:black;font-family:-apple-system,&quot;SF Pro Display&quot;,&quot;SF Pro Text&quot;,Helvetica,sans-serif;text-anchor:middle;" transform="matrix(1 0 0 1 559.711 322)">Ultralight</text>
  <text style="stroke:none;fill:black;font-family:-apple-system,&quot;SF Pro Display&quot;,&quot;SF Pro Text&quot;,Helvetica,sans-serif;text-anchor:middle;" transform="matrix(1 0 0 1 856.422 322)">Thin</text>
  <text style="stroke:none;fill:black;font-family:-apple-system,&quot;SF Pro Display&quot;,&quot;SF Pro Text&quot;,Helvetica,sans-serif;text-anchor:middle;" transform="matrix(1 0 0 1 1153.13 322)">Light</text>
  <text style="stroke:none;fill:black;font-family:-apple-system,&quot;SF Pro Display&quot;,&quot;SF Pro Text&quot;,Helvetica,sans-serif;text-anchor:middle;" transform="matrix(1 0 0 1 1449.84 322)">Regular</text>
  <text style="stroke:none;fill:black;font-family:-apple-system,&quot;SF Pro Display&quot;,&quot;SF Pro Text&quot;,Helvetica,sans-serif;text-anchor:middle;" transform="matrix(1 0 0 1 1746.56 322)">Medium</text>
  <text style="stroke:none;fill:black;font-family:-apple-system,&quot;SF Pro Display&quot;,&quot;SF Pro Text&quot;,Helvetica,sans-serif;text-anchor:middle;" transform="matrix(1 0 0 1 2043.27 322)">Semibold</text>
  <text style="stroke:none;fill:black;font-family:-apple-system,&quot;SF Pro Display&quot;,&quot;SF Pro Text&quot;,Helvetica,sans-serif;text-anchor:middle;" transform="matrix(1 0 0 1 2339.98 322)">Bold</text>
  <text style="stroke:none;fill:black;font-family:-apple-system,&quot;SF Pro Display&quot;,&quot;SF Pro Text&quot;,Helvetica,sans-serif;text-anchor:middle;" transform="matrix(1 0 0 1 2636.69 322)">Heavy</text>
  <text style="stroke:none;fill:black;font-family:-apple-system,&quot;SF Pro Display&quot;,&quot;SF Pro Text&quot;,Helvetica,sans-serif;text-anchor:middle;" transform="matrix(1 0 0 1 2933.4 322)">Black</text>
  <line id="" style="fill:none;stroke:black;opacity:1;stroke-width:0.5;" x1="263" x2="3036" y1="1903" y2="1903"/>
  <g id="" transform="matrix(1 0 0 1 263 1933)">
   <path d="M9.24805 0.830078C13.5547 0.830078 17.1387-2.74414 17.1387-7.05078C17.1387-11.3574 13.5449-14.9316 9.23828-14.9316C4.94141-14.9316 1.36719-11.3574 1.36719-7.05078C1.36719-2.74414 4.95117 0.830078 9.24805 0.830078ZM9.24805-0.654297C5.70312-0.654297 2.87109-3.49609 2.87109-7.05078C2.87109-10.6055 5.69336-13.4473 9.23828-13.4473C12.793-13.4473 15.6348-10.6055 15.6445-7.05078C15.6543-3.49609 12.8027-0.654297 9.24805-0.654297ZM6.39648-6.31836L8.50586-6.31836L8.50586-4.19922C8.50586-3.75977 8.79883-3.45703 9.22852-3.45703C9.67773-3.45703 9.9707-3.75977 9.9707-4.19922L9.9707-6.31836L12.0996-6.31836C12.5391-6.31836 12.8418-6.61133 12.8418-7.04102C12.8418-7.48047 12.5391-7.7832 12.0996-7.7832L9.9707-7.7832L9.9707-9.89258C9.9707-10.3418 9.67773-10.6445 9.22852-10.6445C8.79883-10.6445 8.50586-10.3418 8.50586-9.89258L8.50586-7.7832L6.39648-7.7832C5.94727-7.7832 5.64453-7.48047 5.64453-7.04102C5.64453-6.61133 5.94727-6.31836 6.39648-6.31836Z"/>
  </g>
  <g id="" transform="matrix(1 0 0 1 281.506 1933)">
   <path d="M11.709 2.91016C17.1582 2.91016 21.6699-1.61133 21.6699-7.05078C21.6699-12.5 17.1484-17.0117 11.6992-17.0117C6.25977-17.0117 1.74805-12.5 1.74805-7.05078C1.74805-1.61133 6.26953 2.91016 11.709 2.91016ZM11.709 1.25C7.09961 1.25 3.41797-2.44141 3.41797-7.05078C3.41797-11.6602 7.08984-15.3516 11.6992-15.3516C16.3086-15.3516 20-11.6602 20.0098-7.05078C20.0195-2.44141 16.3184 1.25 11.709 1.25ZM7.98828-6.23047L10.8789-6.23047L10.8789-3.32031C10.8789-2.83203 11.2109-2.5 11.6895-2.5C12.1777-2.5 12.5195-2.83203 12.5195-3.32031L12.5195-6.23047L15.4297-6.23047C15.918-6.23047 16.25-6.5625 16.25-7.04102C16.25-7.5293 15.918-7.87109 15.4297-7.87109L12.5195-7.87109L12.5195-10.7617C12.5195-11.2695 12.1777-11.6016 11.6895-11.6016C11.2109-11.6016 10.8789-11.2598 10.8789-10.7617L10.8789-7.87109L7.98828-7.87109C7.48047-7.87109 7.14844-7.5293 7.14844-7.04102C7.14844-6.5625 7.49023-6.23047 7.98828-6.23047Z"/>
  </g>
  <g id="" transform="matrix(1 0 0 1 304.924 1933)">
   <path d="M14.9707 5.66406C21.9336 5.66406 27.6953-0.0976562 27.6953-7.05078C27.6953-14.0137 21.9238-19.7754 14.9609-19.7754C8.00781-19.7754 2.25586-14.0137 2.25586-7.05078C2.25586-0.0976562 8.01758 5.66406 14.9707 5.66406ZM14.9707 3.84766C8.93555 3.84766 4.08203-1.01562 4.08203-7.05078C4.08203-13.0957 8.92578-17.9492 14.9609-17.9492C21.0059-17.9492 25.8594-13.0957 25.8691-7.05078C25.8789-1.01562 21.0156 3.84766 14.9707 3.84766ZM10.0586-6.14258L14.0625-6.14258L14.0625-2.12891C14.0625-1.5918 14.4336-1.2207 14.9512-1.2207C15.4883-1.2207 15.8594-1.5918 15.8594-2.12891L15.8594-6.14258L19.8828-6.14258C20.4102-6.14258 20.791-6.51367 20.791-7.03125C20.791-7.56836 20.4199-7.94922 19.8828-7.94922L15.8594-7.94922L15.8594-11.9531C15.8594-12.5098 15.4883-12.8809 14.9512-12.8809C14.4336-12.8809 14.0625-12.5 14.0625-11.9531L14.0625-7.94922L10.0586-7.94922C9.50195-7.94922 9.13086-7.56836 9.13086-7.03125C9.13086-6.51367 9.51172-6.14258 10.0586-6.14258Z"/>
  </g>
  <text style="stroke:none;fill:black;font-family:-apple-system,&quot;SF Pro Display&quot;,&quot;SF Pro Text&quot;,Helvetica,sans-serif;font-weight:bold;" transform="matrix(1 0 0 1 263 1953)">Design Variations</text>
  <text style="stroke:none;fill:black;font-family:-apple-system,&quot;SF Pro Display&quot;,&quot;SF Pro Text&quot;,Helvetica,sans-serif;" transform="matrix(1 0 0 1 263 1971)">Symbols are supported in up to nine weights and three scales.</text>
  <text style="stroke:none;fill:black;font-family:-apple-system,&quot;SF Pro Display&quot;,&quot;SF Pro Text&quot;,Helvetica,sans-serif;" transform="matrix(1 0 0 1 263 1989)">For optimal layout with text and other symbols, vertically align</text>
  <text style="stroke:none;fill:black;font-family:-apple-system,&quot;SF Pro Display&quot;,&quot;SF Pro Text&quot;,Helvetica,sans-serif;" transform="matrix(1 0 0 1 263 2007)">symbols with the adjacent text.</text>
  <line id="" style="fill:none;stroke:#00AEEF;stroke-width:0.5;opacity:1.0;" x1="776" x2="776" y1="1919" y2="1933"/>
  <g id="" transform="matrix(1 0 0 1 776 1933)">
   <path d="M3.31055 0.126953C3.82812 0.126953 4.08203-0.0683594 4.26758-0.605469L5.52734-4.0625L11.2891-4.0625L12.5488-0.605469C12.7344-0.0683594 12.9883 0.126953 13.4961 0.126953C14.0137 0.126953 14.3457-0.185547 14.3457-0.673828C14.3457-0.839844 14.3164-0.986328 14.2383-1.20117L9.6582-13.3887C9.43359-13.9941 9.0332-14.2871 8.4082-14.2871C7.80273-14.2871 7.39258-13.9941 7.17773-13.3984L2.59766-1.19141C2.51953-0.976562 2.49023-0.830078 2.49023-0.664062C2.49023-0.175781 2.80273 0.126953 3.31055 0.126953ZM6.00586-5.53711L8.37891-12.1094L8.42773-12.1094L10.8008-5.53711Z"/>
  </g>
  <line id="" style="fill:none;stroke:#00AEEF;stroke-width:0.5;opacity:1.0;" x1="792.836" x2="792.836" y1="1919" y2="1933"/>
  <text style="stroke:none;fill:black;font-family:-apple-system,&quot;SF Pro Display&quot;,&quot;SF Pro Text&quot;,Helvetica,sans-serif;font-weight:bold;" transform="matrix(1 0 0 1 776 1953)">Margins</text>
  <text style="stroke:none;fill:black;font-family:-apple-system,&quot;SF Pro Display&quot;,&quot;SF Pro Text&quot;,Helvetica,sans-serif;" transform="matrix(1 0 0 1 776 1971)">Leading and trailing margins on the left and right side of each symbol</text>
  <text style="stroke:none;fill:black;font-family:-apple-system,&quot;SF Pro Display&quot;,&quot;SF Pro Text&quot;,Helvetica,sans-serif;" transform="matrix(1 0 0 1 776 1989)">can be adjusted by modifying the x-location of the margin guidelines.</text>
  <text style="stroke:none;fill:black;font-family:-apple-system,&quot;SF Pro Display&quot;,&quot;SF Pro Text&quot;,Helvetica,sans-serif;" transform="matrix(1 0 0 1 776 2007)">Modifications are automatically applied proportionally to all</text>
  <text style="stroke:none;fill:black;font-family:-apple-system,&quot;SF Pro Display&quot;,&quot;SF Pro Text&quot;,Helvetica,sans-serif;" transform="matrix(1 0 0 1 776 2025)">scales and weights.</text>
  <g id="" transform="matrix(1 0 0 1 1289 1933)">
   <path d="M2.8418 1.86523L4.54102 3.57422C5.40039 4.44336 6.38672 4.38477 7.31445 3.35938L17.4902-7.85156C17.7539-7.76367 18.0273-7.7832 18.3398-7.8418L19.4043-8.03711L20.0684-7.36328L20.0293-6.80664C19.9902-6.30859 20.1172-5.92773 20.6055-5.44922L21.3672-4.70703C21.8457-4.22852 22.4609-4.19922 22.9297-4.66797L25.8398-7.58789C26.3086-8.05664 26.2891-8.65234 25.8105-9.13086L25.0391-9.89258C24.5605-10.3711 24.1895-10.5273 23.7109-10.4883L23.1348-10.4395L22.4902-11.0742L22.7344-12.1973C22.8613-12.7637 22.7051-13.2031 22.1191-13.7891L19.9219-15.9766C16.582-19.2969 12.1484-19.2188 9.25781-16.3281C8.83789-15.918 8.80859-15.3418 9.04297-14.9512C9.27734-14.5898 9.73633-14.3555 10.3809-14.5215C11.8457-14.8633 13.3691-14.9219 14.7949-13.9844L14.209-12.5293C14.0137-12.0508 13.9844-11.6504 14.1113-11.2891L3.04688-0.898438C2.06055 0.0195312 1.98242 0.996094 2.8418 1.86523ZM10.752-15.957C13.1836-17.7344 16.4746-17.4316 18.7012-15.2051L21.1328-12.793C21.3672-12.5586 21.4062-12.373 21.3379-12.0312L21.0156-10.5469L22.5195-9.0625L23.5059-9.12109C23.7598-9.13086 23.8379-9.11133 24.0332-8.91602L24.6094-8.33984L22.168-5.89844L21.5918-6.47461C21.3965-6.66992 21.3672-6.74805 21.377-7.01172L21.4453-7.98828L19.9512-9.47266L18.4277-9.21875C18.1055-9.15039 17.959-9.17969 17.7148-9.41406L15.7129-11.416C15.459-11.6504 15.4297-11.8164 15.5859-12.1875L16.4648-14.2773C14.9023-15.7324 12.8711-16.3574 10.8398-15.7617C10.6836-15.7227 10.625-15.8496 10.752-15.957ZM5.27344 2.30469L4.10156 1.14258C3.63281 0.683594 3.74023 0.341797 4.14062-0.0195312L14.9512-10.1953L16.416-8.71094L6.42578 2.27539C6.07422 2.67578 5.74219 2.77344 5.27344 2.30469Z"/>
  </g>
  <text style="stroke:none;fill:black;font-family:-apple-system,&quot;SF Pro Display&quot;,&quot;SF Pro Text&quot;,Helvetica,sans-serif;font-weight:bold;" transform="matrix(1 0 0 1 1289 1953)">Exporting</text>
  <text style="stroke:none;fill:black;font-family:-apple-system,&quot;SF Pro Display&quot;,&quot;SF Pro Text&quot;,Helvetica,sans-serif;" transform="matrix(1 0 0 1 1289 1971)">Symbols should be outlined when exporting to ensure the</text>
  <text style="stroke:none;fill:black;font-family:-apple-system,&quot;SF Pro Display&quot;,&quot;SF Pro Text&quot;,Helvetica,sans-serif;" transform="matrix(1 0 0 1 1289 1989)">design is preserved when submitting to Xcode.</text>
  <text id="template-version" style="stroke:none;fill:black;font-family:-apple-system,&quot;SF Pro Display&quot;,&quot;SF Pro Text&quot;,Helvetica,sans-serif;text-anchor:end;" transform="matrix(1 0 0 1 3036 1933)">Template v.2.0</text>
  <text style="stroke:none;fill:black;font-family:-apple-system,&quot;SF Pro Display&quot;,&quot;SF Pro Text&quot;,Helvetica,sans-serif;text-anchor:end;" transform="matrix(1 0 0 1 3036 1951)">Requires Xcode 12 or greater</text>
  <text style="stroke:none;fill:black;font-family:-apple-system,&quot;SF Pro Display&quot;,&quot;SF Pro Text&quot;,Helvetica,sans-serif;" transform="matrix(1 0 0 1 263 726)">Small</text>
  <text style="stroke:none;fill:black;font-family:-apple-system,&quot;SF Pro Display&quot;,&quot;SF Pro Text&quot;,Helvetica,sans-serif;" transform="matrix(1 0 0 1 263 1156)">Medium</text>
  <text style="stroke:none;fill:black;font-family:-apple-system,&quot;SF Pro Display&quot;,&quot;SF Pro Text&quot;,Helvetica,sans-serif;" transform="matrix(1 0 0 1 263 1586)">Large</text>
 </g>
 <g id="Guides">
  <g id="H-reference" style="fill:#27AAE1;stroke:none;" transform="matrix(1 0 0 1 339 696)">
   <path d="M0.976562 0L3.66211 0L12.9883-24.4629L45.752-24.4629L55.127 0L57.7637 0L30.6152-70.459L28.125-70.459ZM29.3457-67.1387L29.4434-67.1387L44.873-26.709L13.8672-26.709Z"/>
  </g>
  <line id="Baseline-S" style="fill:none;stroke:#27AAE1;opacity:1;stroke-width:0.5;" x1="263" x2="3036" y1="696" y2="696"/>
  <line id="Capline-S" style="fill:none;stroke:#27AAE1;opacity:1;stroke-width:0.5;" x1="263" x2="3036" y1="625.541" y2="625.541"/>
  <g id="H-reference" style="fill:#27AAE1;stroke:none;" transform="matrix(1 0 0 1 339 1126)">
   <path d="M0.976562 0L3.66211 0L12.9883-24.4629L45.752-24.4629L55.127 0L57.7637 0L30.6152-70.459L28.125-70.459ZM29.3457-67.1387L29.4434-67.1387L44.873-26.709L13.8672-26.709Z"/>
  </g>
  <line id="Baseline-M" style="fill:none;stroke:#27AAE1;opacity:1;stroke-width:0.5;" x1="263" x2="3036" y1="1126" y2="1126"/>
  <line id="Capline-M" style="fill:none;stroke:#27AAE1;opacity:1;stroke-width:0.5;" x1="263" x2="3036" y1="1055.54" y2="1055.54"/>
  <g id="H-reference" style="fill:#27AAE1;stroke:none;" transform="matrix(1 0 0 1 339 1556)">
   <path d="M0.976562 0L3.66211 0L12.9883-24.4629L45.752-24.4629L55.127 0L57.7637 0L30.6152-70.459L28.125-70.459ZM29.3457-67.1387L29.4434-67.1387L44.873-26.709L13.8672-26.709Z"/>
  </g>
  <line id="Baseline-L" style="fill:none;stroke:#27AAE1;opacity:1;stroke-width:0.5;" x1="263" x2="3036" y1="1556" y2="1556"/>
  <line id="Capline-L" style="fill:none;stroke:#27AAE1;opacity:1;stroke-width:0.5;" x1="263" x2="3036" y1="1485.54" y2="1485.54"/>
  <line id="left-margin" x1="1401.7066461049908" x2="1401.7066461049908" y1="1030.79" y2="1150.12" style="fill:none;stroke:#00AEEF;stroke-width:0.5;opacity:1.0;"/>
  <line id="right-margin" x1="1500.553353895009" x2="1500.553353895009" y1="1030.79" y2="1150.12" style="fill:none;stroke:#00AEEF;stroke-width:0.5;opacity:1.0;"/>
 </g>
 <g id="Symbols">
  <g id="Black-L" transform="matrix(1.0,0.0,0.0,1.0,2852.941376250562,1439.031395781812)">  <path stroke-dasharray="none" stroke-width="1px" stroke-miterlimit="4" stroke-linejoin="miter" stroke-opacity="1" fill="#000000" stroke-linecap="butt" xmlns:xlink="http://www.w3.org/1999/xlink" fill-rule="nonzero" fill-opacity="1" version="1.1" stroke="none" d="M68.864,51.908C61.181,56.344,56.006,64.67,56.006,74.186L9.715,74.186C4.025,74.186,-0.636,69.557,0.071,63.931C2.868,41.396,14.794,21.691,31.992,8.607C36.525,5.168,42.858,6.903,45.719,11.822L68.864,51.908ZM81.723,99.903C86.416,99.903,90.788,98.649,94.581,96.463L117.727,136.582C120.555,141.5,118.916,147.865,113.676,150.051C103.839,154.198,93.038,156.48,81.723,156.48C70.407,156.48,59.574,154.198,49.769,150.051C44.529,147.833,42.89,141.5,45.719,136.582L68.864,96.463C72.657,98.649,77.029,99.903,81.723,99.903ZM153.73,74.186L107.44,74.186C107.44,64.67,102.264,56.344,94.581,51.908L117.727,11.822C120.555,6.903,126.92,5.168,131.453,8.607C148.683,21.691,160.578,41.396,163.406,63.931C164.114,69.557,159.42,74.186,153.763,74.186L153.73,74.186ZM81.723,89.616C73.204,89.616,66.293,82.704,66.293,74.186C66.293,65.667,73.204,58.755,81.723,58.755C90.242,58.755,97.153,65.667,97.153,74.186C97.153,82.704,90.242,89.616,81.723,89.616ZM81.723,89.616"/>
</g>
  <g id="Heavy-L" transform="matrix(1.0,0.0,0.0,1.0,2556.231376250562,1439.031395781812)">  <path stroke-linecap="butt" stroke-dasharray="none" stroke-linejoin="miter" stroke="none" stroke-miterlimit="4" version="1.1" xmlns:xlink="http://www.w3.org/1999/xlink" stroke-opacity="1" fill-rule="nonzero" fill="#000000" stroke-width="1px" fill-opacity="1" d="M68.864,51.908C61.181,56.344,56.006,64.67,56.006,74.186L9.715,74.186C4.025,74.186,-0.636,69.557,0.071,63.931C2.868,41.396,14.794,21.691,31.992,8.607C36.525,5.168,42.858,6.903,45.719,11.822L68.864,51.908ZM81.723,99.903C86.416,99.903,90.788,98.649,94.581,96.463L117.727,136.582C120.555,141.5,118.916,147.865,113.676,150.051C103.839,154.198,93.038,156.48,81.723,156.48C70.407,156.48,59.574,154.198,49.769,150.051C44.529,147.833,42.89,141.5,45.719,136.582L68.864,96.463C72.657,98.649,77.029,99.903,81.723,99.903ZM153.73,74.186L107.44,74.186C107.44,64.67,102.264,56.344,94.581,51.908L117.727,11.822C120.555,6.903,126.92,5.168,131.453,8.607C148.683,21.691,160.578,41.396,163.406,63.931C164.114,69.557,159.42,74.186,153.763,74.186L153.73,74.186ZM81.723,89.616C73.204,89.616,66.293,82.704,66.293,74.186C66.293,65.667,73.204,58.755,81.723,58.755C90.242,58.755,97.153,65.667,97.153,74.186C97.153,82.704,90.242,89.616,81.723,89.616ZM81.723,89.616"/>
</g>
  <g id="Bold-L" transform="matrix(1.0,0.0,0.0,1.0,2259.521376250562,1439.031395781812)">  <path fill-rule="nonzero" fill="#000000" xmlns:xlink="http://www.w3.org/1999/xlink" stroke="none" stroke-linejoin="miter" stroke-opacity="1" stroke-linecap="butt" fill-opacity="1" stroke-miterlimit="4" version="1.1" stroke-width="1px" stroke-dasharray="none" d="M68.864,51.908C61.181,56.344,56.006,64.67,56.006,74.186L9.715,74.186C4.025,74.186,-0.636,69.557,0.071,63.931C2.868,41.396,14.794,21.691,31.992,8.607C36.525,5.168,42.858,6.903,45.719,11.822L68.864,51.908ZM81.723,99.903C86.416,99.903,90.788,98.649,94.581,96.463L117.727,136.582C120.555,141.5,118.916,147.865,113.676,150.051C103.839,154.198,93.038,156.48,81.723,156.48C70.407,156.48,59.574,154.198,49.769,150.051C44.529,147.833,42.89,141.5,45.719,136.582L68.864,96.463C72.657,98.649,77.029,99.903,81.723,99.903ZM153.73,74.186L107.44,74.186C107.44,64.67,102.264,56.344,94.581,51.908L117.727,11.822C120.555,6.903,126.92,5.168,131.453,8.607C148.683,21.691,160.578,41.396,163.406,63.931C164.114,69.557,159.42,74.186,153.763,74.186L153.73,74.186ZM81.723,89.616C73.204,89.616,66.293,82.704,66.293,74.186C66.293,65.667,73.204,58.755,81.723,58.755C90.242,58.755,97.153,65.667,97.153,74.186C97.153,82.704,90.242,89.616,81.723,89.616ZM81.723,89.616"/>
</g>
  <g id="Semibold-L" transform="matrix(1.0,0.0,0.0,1.0,1962.811376250562,1439.031395781812)">  <path fill-rule="nonzero" version="1.1" stroke-linejoin="miter" fill="#000000" stroke-width="1px" stroke="none" stroke-opacity="1" stroke-dasharray="none" stroke-miterlimit="4" fill-opacity="1" xmlns:xlink="http://www.w3.org/1999/xlink" stroke-linecap="butt" d="M68.864,51.908C61.181,56.344,56.006,64.67,56.006,74.186L9.715,74.186C4.025,74.186,-0.636,69.557,0.071,63.931C2.868,41.396,14.794,21.691,31.992,8.607C36.525,5.168,42.858,6.903,45.719,11.822L68.864,51.908ZM81.723,99.903C86.416,99.903,90.788,98.649,94.581,96.463L117.727,136.582C120.555,141.5,118.916,147.865,113.676,150.051C103.839,154.198,93.038,156.48,81.723,156.48C70.407,156.48,59.574,154.198,49.769,150.051C44.529,147.833,42.89,141.5,45.719,136.582L68.864,96.463C72.657,98.649,77.029,99.903,81.723,99.903ZM153.73,74.186L107.44,74.186C107.44,64.67,102.264,56.344,94.581,51.908L117.727,11.822C120.555,6.903,126.92,5.168,131.453,8.607C148.683,21.691,160.578,41.396,163.406,63.931C164.114,69.557,159.42,74.186,153.763,74.186L153.73,74.186ZM81.723,89.616C73.204,89.616,66.293,82.704,66.293,74.186C66.293,65.667,73.204,58.755,81.723,58.755C90.242,58.755,97.153,65.667,97.153,74.186C97.153,82.704,90.242,89.616,81.723,89.616ZM81.723,89.616"/>
</g>
  <g id="Medium-L" transform="matrix(1.0,0.0,0.0,1.0,1666.101376250562,1439.031395781812)">  <path fill="#000000" xmlns:xlink="http://www.w3.org/1999/xlink" stroke="none" version="1.1" stroke-linecap="butt" stroke-dasharray="none" stroke-width="1px" fill-opacity="1" fill-rule="nonzero" stroke-opacity="1" stroke-miterlimit="4" stroke-linejoin="miter" d="M68.864,51.908C61.181,56.344,56.006,64.67,56.006,74.186L9.715,74.186C4.025,74.186,-0.636,69.557,0.071,63.931C2.868,41.396,14.794,21.691,31.992,8.607C36.525,5.168,42.858,6.903,45.719,11.822L68.864,51.908ZM81.723,99.903C86.416,99.903,90.788,98.649,94.581,96.463L117.727,136.582C120.555,141.5,118.916,147.865,113.676,150.051C103.839,154.198,93.038,156.48,81.723,156.48C70.407,156.48,59.574,154.198,49.769,150.051C44.529,147.833,42.89,141.5,45.719,136.582L68.864,96.463C72.657,98.649,77.029,99.903,81.723,99.903ZM153.73,74.186L107.44,74.186C107.44,64.67,102.264,56.344,94.581,51.908L117.727,11.822C120.555,6.903,126.92,5.168,131.453,8.607C148.683,21.691,160.578,41.396,163.406,63.931C164.114,69.557,159.42,74.186,153.763,74.186L153.73,74.186ZM81.723,89.616C73.204,89.616,66.293,82.704,66.293,74.186C66.293,65.667,73.204,58.755,81.723,58.755C90.242,58.755,97.153,65.667,97.153,74.186C97.153,82.704,90.242,89.616,81.723,89.616ZM81.723,89.616"/>
</g>
  <g id="Regular-L" transform="matrix(1.0,0.0,0.0,1.0,1369.391376250562,1439.031395781812)">  <path stroke-opacity="1" fill-opacity="1" fill-rule="nonzero" stroke-linecap="butt" stroke="none" xmlns:xlink="http://www.w3.org/1999/xlink" stroke-width="1px" version="1.1" stroke-miterlimit="4" stroke-dasharray="none" fill="#000000" stroke-linejoin="miter" d="M68.864,51.908C61.181,56.344,56.006,64.67,56.006,74.186L9.715,74.186C4.025,74.186,-0.636,69.557,0.071,63.931C2.868,41.396,14.794,21.691,31.992,8.607C36.525,5.168,42.858,6.903,45.719,11.822L68.864,51.908ZM81.723,99.903C86.416,99.903,90.788,98.649,94.581,96.463L117.727,136.582C120.555,141.5,118.916,147.865,113.676,150.051C103.839,154.198,93.038,156.48,81.723,156.48C70.407,156.48,59.574,154.198,49.769,150.051C44.529,147.833,42.89,141.5,45.719,136.582L68.864,96.463C72.657,98.649,77.029,99.903,81.723,99.903ZM153.73,74.186L107.44,74.186C107.44,64.67,102.264,56.344,94.581,51.908L117.727,11.822C120.555,6.903,126.92,5.168,131.453,8.607C148.683,21.691,160.578,41.396,163.406,63.931C164.114,69.557,159.42,74.186,153.763,74.186L153.73,74.186ZM81.723,89.616C73.204,89.616,66.293,82.704,66.293,74.186C66.293,65.667,73.204,58.755,81.723,58.755C90.242,58.755,97.153,65.667,97.153,74.186C97.153,82.704,90.242,89.616,81.723,89.616ZM81.723,89.616"/>
</g>
  <g id="Light-L" transform="matrix(1.0,0.0,0.0,1.0,1072.6813762505622,1439.031395781812)">  <path stroke-linejoin="miter" stroke-linecap="butt" stroke="none" stroke-opacity="1" stroke-miterlimit="4" fill-rule="nonzero" stroke-dasharray="none" xmlns:xlink="http://www.w3.org/1999/xlink" fill="#000000" fill-opacity="1" version="1.1" stroke-width="1px" d="M68.864,51.908C61.181,56.344,56.006,64.67,56.006,74.186L9.715,74.186C4.025,74.186,-0.636,69.557,0.071,63.931C2.868,41.396,14.794,21.691,31.992,8.607C36.525,5.168,42.858,6.903,45.719,11.822L68.864,51.908ZM81.723,99.903C86.416,99.903,90.788,98.649,94.581,96.463L117.727,136.582C120.555,141.5,118.916,147.865,113.676,150.051C103.839,154.198,93.038,156.48,81.723,156.48C70.407,156.48,59.574,154.198,49.769,150.051C44.529,147.833,42.89,141.5,45.719,136.582L68.864,96.463C72.657,98.649,77.029,99.903,81.723,99.903ZM153.73,74.186L107.44,74.186C107.44,64.67,102.264,56.344,94.581,51.908L117.727,11.822C120.555,6.903,126.92,5.168,131.453,8.607C148.683,21.691,160.578,41.396,163.406,63.931C164.114,69.557,159.42,74.186,153.763,74.186L153.73,74.186ZM81.723,89.616C73.204,89.616,66.293,82.704,66.293,74.186C66.293,65.667,73.204,58.755,81.723,58.755C90.242,58.755,97.153,65.667,97.153,74.186C97.153,82.704,90.242,89.616,81.723,89.616ZM81.723,89.616"/>
</g>
  <g id="Thin-L" transform="matrix(1.0,0.0,0.0,1.0,775.9713762505621,1439.031395781812)">  <path stroke-miterlimit="4" version="1.1" stroke-opacity="1" fill-opacity="1" xmlns:xlink="http://www.w3.org/1999/xlink" stroke-linecap="butt" fill-rule="nonzero" fill="#000000" stroke-linejoin="miter" stroke-width="1px" stroke-dasharray="none" stroke="none" d="M68.864,51.908C61.181,56.344,56.006,64.67,56.006,74.186L9.715,74.186C4.025,74.186,-0.636,69.557,0.071,63.931C2.868,41.396,14.794,21.691,31.992,8.607C36.525,5.168,42.858,6.903,45.719,11.822L68.864,51.908ZM81.723,99.903C86.416,99.903,90.788,98.649,94.581,96.463L117.727,136.582C120.555,141.5,118.916,147.865,113.676,150.051C103.839,154.198,93.038,156.48,81.723,156.48C70.407,156.48,59.574,154.198,49.769,150.051C44.529,147.833,42.89,141.5,45.719,136.582L68.864,96.463C72.657,98.649,77.029,99.903,81.723,99.903ZM153.73,74.186L107.44,74.186C107.44,64.67,102.264,56.344,94.581,51.908L117.727,11.822C120.555,6.903,126.92,5.168,131.453,8.607C148.683,21.691,160.578,41.396,163.406,63.931C164.114,69.557,159.42,74.186,153.763,74.186L153.73,74.186ZM81.723,89.616C73.204,89.616,66.293,82.704,66.293,74.186C66.293,65.667,73.204,58.755,81.723,58.755C90.242,58.755,97.153,65.667,97.153,74.186C97.153,82.704,90.242,89.616,81.723,89.616ZM81.723,89.616"/>
</g>
  <g id="Ultralight-L" transform="matrix(1.0,0.0,0.0,1.0,479.2613762505621,1439.031395781812)">  <path fill="#000000" stroke-opacity="1" stroke-width="1px" fill-rule="nonzero" xmlns:xlink="http://www.w3.org/1999/xlink" stroke-dasharray="none" fill-opacity="1" version="1.1" stroke="none" stroke-linejoin="miter" stroke-linecap="butt" stroke-miterlimit="4" d="M68.864,51.908C61.181,56.344,56.006,64.67,56.006,74.186L9.715,74.186C4.025,74.186,-0.636,69.557,0.071,63.931C2.868,41.396,14.794,21.691,31.992,8.607C36.525,5.168,42.858,6.903,45.719,11.822L68.864,51.908ZM81.723,99.903C86.416,99.903,90.788,98.649,94.581,96.463L117.727,136.582C120.555,141.5,118.916,147.865,113.676,150.051C103.839,154.198,93.038,156.48,81.723,156.48C70.407,156.48,59.574,154.198,49.769,150.051C44.529,147.833,42.89,141.5,45.719,136.582L68.864,96.463C72.657,98.649,77.029,99.903,81.723,99.903ZM153.73,74.186L107.44,74.186C107.44,64.67,102.264,56.344,94.581,51.908L117.727,11.822C120.555,6.903,126.92,5.168,131.453,8.607C148.683,21.691,160.578,41.396,163.406,63.931C164.114,69.557,159.42,74.186,153.763,74.186L153.73,74.186ZM81.723,89.616C73.204,89.616,66.293,82.704,66.293,74.186C66.293,65.667,73.204,58.755,81.723,58.755C90.242,58.755,97.153,65.667,97.153,74.186C97.153,82.704,90.242,89.616,81.723,89.616ZM81.723,89.616"/>
</g>
  <g id="Black-M" transform="matrix(1.0,0.0,0.0,1.0,2871.3167257756295,1027.4067453068794)">  <path stroke-dasharray="none" stroke-width="1px" stroke-miterlimit="4" stroke-linejoin="miter" stroke-opacity="1" fill="#000000" stroke-linecap="butt" xmlns:xlink="http://www.w3.org/1999/xlink" fill-rule="nonzero" fill-opacity="1" version="1.1" stroke="none" d="M53.383,40.239C47.427,43.678,43.415,50.132,43.415,57.508L7.531,57.508C3.12,57.508,-0.493,53.92,0.055,49.559C2.223,32.09,11.468,16.815,24.8,6.672C28.314,4.006,33.223,5.352,35.441,9.164L53.383,40.239ZM63.351,77.444C66.989,77.444,70.378,76.472,73.319,74.778L91.261,105.877C93.454,109.69,92.183,114.624,88.121,116.318C80.496,119.533,72.123,121.302,63.351,121.302C54.579,121.302,46.181,119.533,38.581,116.318C34.519,114.599,33.248,109.69,35.441,105.877L53.383,74.778C56.324,76.472,59.713,77.444,63.351,77.444ZM119.171,57.508L83.287,57.508C83.287,50.132,79.275,43.678,73.319,40.239L91.261,9.164C93.454,5.352,98.388,4.006,101.902,6.672C115.259,16.815,124.479,32.09,126.672,49.559C127.22,53.92,123.582,57.508,119.196,57.508L119.171,57.508ZM63.351,69.47C56.747,69.47,51.39,64.112,51.39,57.508C51.39,50.905,56.747,45.547,63.351,45.547C69.955,45.547,75.312,50.905,75.312,57.508C75.312,64.112,69.955,69.47,63.351,69.47ZM63.351,69.47"/>
</g>
  <g id="Heavy-M" transform="matrix(1.0,0.0,0.0,1.0,2574.6067257756295,1027.4067453068794)">  <path stroke-linecap="butt" stroke-dasharray="none" stroke-linejoin="miter" stroke="none" stroke-miterlimit="4" version="1.1" xmlns:xlink="http://www.w3.org/1999/xlink" stroke-opacity="1" fill-rule="nonzero" fill="#000000" stroke-width="1px" fill-opacity="1" d="M53.383,40.239C47.427,43.678,43.415,50.132,43.415,57.508L7.531,57.508C3.12,57.508,-0.493,53.92,0.055,49.559C2.223,32.09,11.468,16.815,24.8,6.672C28.314,4.006,33.223,5.352,35.441,9.164L53.383,40.239ZM63.351,77.444C66.989,77.444,70.378,76.472,73.319,74.778L91.261,105.877C93.454,109.69,92.183,114.624,88.121,116.318C80.496,119.533,72.123,121.302,63.351,121.302C54.579,121.302,46.181,119.533,38.581,116.318C34.519,114.599,33.248,109.69,35.441,105.877L53.383,74.778C56.324,76.472,59.713,77.444,63.351,77.444ZM119.171,57.508L83.287,57.508C83.287,50.132,79.275,43.678,73.319,40.239L91.261,9.164C93.454,5.352,98.388,4.006,101.902,6.672C115.259,16.815,124.479,32.09,126.672,49.559C127.22,53.92,123.582,57.508,119.196,57.508L119.171,57.508ZM63.351,69.47C56.747,69.47,51.39,64.112,51.39,57.508C51.39,50.905,56.747,45.547,63.351,45.547C69.955,45.547,75.312,50.905,75.312,57.508C75.312,64.112,69.955,69.47,63.351,69.47ZM63.351,69.47"/>
</g>
  <g id="Bold-M" transform="matrix(1.0,0.0,0.0,1.0,2277.8967257756294,1027.4067453068794)">  <path fill-rule="nonzero" fill="#000000" xmlns:xlink="http://www.w3.org/1999/xlink" stroke="none" stroke-linejoin="miter" stroke-opacity="1" stroke-linecap="butt" fill-opacity="1" stroke-miterlimit="4" version="1.1" stroke-width="1px" stroke-dasharray="none" d="M53.383,40.239C47.427,43.678,43.415,50.132,43.415,57.508L7.531,57.508C3.12,57.508,-0.493,53.92,0.055,49.559C2.223,32.09,11.468,16.815,24.8,6.672C28.314,4.006,33.223,5.352,35.441,9.164L53.383,40.239ZM63.351,77.444C66.989,77.444,70.378,76.472,73.319,74.778L91.261,105.877C93.454,109.69,92.183,114.624,88.121,116.318C80.496,119.533,72.123,121.302,63.351,121.302C54.579,121.302,46.181,119.533,38.581,116.318C34.519,114.599,33.248,109.69,35.441,105.877L53.383,74.778C56.324,76.472,59.713,77.444,63.351,77.444ZM119.171,57.508L83.287,57.508C83.287,50.132,79.275,43.678,73.319,40.239L91.261,9.164C93.454,5.352,98.388,4.006,101.902,6.672C115.259,16.815,124.479,32.09,126.672,49.559C127.22,53.92,123.582,57.508,119.196,57.508L119.171,57.508ZM63.351,69.47C56.747,69.47,51.39,64.112,51.39,57.508C51.39,50.905,56.747,45.547,63.351,45.547C69.955,45.547,75.312,50.905,75.312,57.508C75.312,64.112,69.955,69.47,63.351,69.47ZM63.351,69.47"/>
</g>
  <g id="Semibold-M" transform="matrix(1.0,0.0,0.0,1.0,1981.1867257756294,1027.4067453068794)">  <path fill-rule="nonzero" version="1.1" stroke-linejoin="miter" fill="#000000" stroke-width="1px" stroke="none" stroke-opacity="1" stroke-dasharray="none" stroke-miterlimit="4" fill-opacity="1" xmlns:xlink="http://www.w3.org/1999/xlink" stroke-linecap="butt" d="M53.383,40.239C47.427,43.678,43.415,50.132,43.415,57.508L7.531,57.508C3.12,57.508,-0.493,53.92,0.055,49.559C2.223,32.09,11.468,16.815,24.8,6.672C28.314,4.006,33.223,5.352,35.441,9.164L53.383,40.239ZM63.351,77.444C66.989,77.444,70.378,76.472,73.319,74.778L91.261,105.877C93.454,109.69,92.183,114.624,88.121,116.318C80.496,119.533,72.123,121.302,63.351,121.302C54.579,121.302,46.181,119.533,38.581,116.318C34.519,114.599,33.248,109.69,35.441,105.877L53.383,74.778C56.324,76.472,59.713,77.444,63.351,77.444ZM119.171,57.508L83.287,57.508C83.287,50.132,79.275,43.678,73.319,40.239L91.261,9.164C93.454,5.352,98.388,4.006,101.902,6.672C115.259,16.815,124.479,32.09,126.672,49.559C127.22,53.92,123.582,57.508,119.196,57.508L119.171,57.508ZM63.351,69.47C56.747,69.47,51.39,64.112,51.39,57.508C51.39,50.905,56.747,45.547,63.351,45.547C69.955,45.547,75.312,50.905,75.312,57.508C75.312,64.112,69.955,69.47,63.351,69.47ZM63.351,69.47"/>
</g>
  <g id="Medium-M" transform="matrix(1.0,0.0,0.0,1.0,1684.4767257756293,1027.4067453068794)">  <path fill="#000000" xmlns:xlink="http://www.w3.org/1999/xlink" stroke="none" version="1.1" stroke-linecap="butt" stroke-dasharray="none" stroke-width="1px" fill-opacity="1" fill-rule="nonzero" stroke-opacity="1" stroke-miterlimit="4" stroke-linejoin="miter" d="M53.383,40.239C47.427,43.678,43.415,50.132,43.415,57.508L7.531,57.508C3.12,57.508,-0.493,53.92,0.055,49.559C2.223,32.09,11.468,16.815,24.8,6.672C28.314,4.006,33.223,5.352,35.441,9.164L53.383,40.239ZM63.351,77.444C66.989,77.444,70.378,76.472,73.319,74.778L91.261,105.877C93.454,109.69,92.183,114.624,88.121,116.318C80.496,119.533,72.123,121.302,63.351,121.302C54.579,121.302,46.181,119.533,38.581,116.318C34.519,114.599,33.248,109.69,35.441,105.877L53.383,74.778C56.324,76.472,59.713,77.444,63.351,77.444ZM119.171,57.508L83.287,57.508C83.287,50.132,79.275,43.678,73.319,40.239L91.261,9.164C93.454,5.352,98.388,4.006,101.902,6.672C115.259,16.815,124.479,32.09,126.672,49.559C127.22,53.92,123.582,57.508,119.196,57.508L119.171,57.508ZM63.351,69.47C56.747,69.47,51.39,64.112,51.39,57.508C51.39,50.905,56.747,45.547,63.351,45.547C69.955,45.547,75.312,50.905,75.312,57.508C75.312,64.112,69.955,69.47,63.351,69.47ZM63.351,69.47"/>
</g>
  <g id="Regular-M" transform="matrix(1.0,0.0,0.0,1.0,1387.7667257756293,1027.4067453068794)">  <path stroke-opacity="1" fill-opacity="1" fill-rule="nonzero" stroke-linecap="butt" stroke="none" xmlns:xlink="http://www.w3.org/1999/xlink" stroke-width="1px" version="1.1" stroke-miterlimit="4" stroke-dasharray="none" fill="#000000" stroke-linejoin="miter" d="M53.383,40.239C47.427,43.678,43.415,50.132,43.415,57.508L7.531,57.508C3.12,57.508,-0.493,53.92,0.055,49.559C2.223,32.09,11.468,16.815,24.8,6.672C28.314,4.006,33.223,5.352,35.441,9.164L53.383,40.239ZM63.351,77.444C66.989,77.444,70.378,76.472,73.319,74.778L91.261,105.877C93.454,109.69,92.183,114.624,88.121,116.318C80.496,119.533,72.123,121.302,63.351,121.302C54.579,121.302,46.181,119.533,38.581,116.318C34.519,114.599,33.248,109.69,35.441,105.877L53.383,74.778C56.324,76.472,59.713,77.444,63.351,77.444ZM119.171,57.508L83.287,57.508C83.287,50.132,79.275,43.678,73.319,40.239L91.261,9.164C93.454,5.352,98.388,4.006,101.902,6.672C115.259,16.815,124.479,32.09,126.672,49.559C127.22,53.92,123.582,57.508,119.196,57.508L119.171,57.508ZM63.351,69.47C56.747,69.47,51.39,64.112,51.39,57.508C51.39,50.905,56.747,45.547,63.351,45.547C69.955,45.547,75.312,50.905,75.312,57.508C75.312,64.112,69.955,69.47,63.351,69.47ZM63.351,69.47"/>
</g>
  <g id="Light-M" transform="matrix(1.0,0.0,0.0,1.0,1091.0567257756295,1027.4067453068794)">  <path stroke-linejoin="miter" stroke-linecap="butt" stroke="none" stroke-opacity="1" stroke-miterlimit="4" fill-rule="nonzero" stroke-dasharray="none" xmlns:xlink="http://www.w3.org/1999/xlink" fill="#000000" fill-opacity="1" version="1.1" stroke-width="1px" d="M53.383,40.239C47.427,43.678,43.415,50.132,43.415,57.508L7.531,57.508C3.12,57.508,-0.493,53.92,0.055,49.559C2.223,32.09,11.468,16.815,24.8,6.672C28.314,4.006,33.223,5.352,35.441,9.164L53.383,40.239ZM63.351,77.444C66.989,77.444,70.378,76.472,73.319,74.778L91.261,105.877C93.454,109.69,92.183,114.624,88.121,116.318C80.496,119.533,72.123,121.302,63.351,121.302C54.579,121.302,46.181,119.533,38.581,116.318C34.519,114.599,33.248,109.69,35.441,105.877L53.383,74.778C56.324,76.472,59.713,77.444,63.351,77.444ZM119.171,57.508L83.287,57.508C83.287,50.132,79.275,43.678,73.319,40.239L91.261,9.164C93.454,5.352,98.388,4.006,101.902,6.672C115.259,16.815,124.479,32.09,126.672,49.559C127.22,53.92,123.582,57.508,119.196,57.508L119.171,57.508ZM63.351,69.47C56.747,69.47,51.39,64.112,51.39,57.508C51.39,50.905,56.747,45.547,63.351,45.547C69.955,45.547,75.312,50.905,75.312,57.508C75.312,64.112,69.955,69.47,63.351,69.47ZM63.351,69.47"/>
</g>
  <g id="Thin-M" transform="matrix(1.0,0.0,0.0,1.0,794.3467257756296,1027.4067453068794)">  <path stroke-miterlimit="4" version="1.1" stroke-opacity="1" fill-opacity="1" xmlns:xlink="http://www.w3.org/1999/xlink" stroke-linecap="butt" fill-rule="nonzero" fill="#000000" stroke-linejoin="miter" stroke-width="1px" stroke-dasharray="none" stroke="none" d="M53.383,40.239C47.427,43.678,43.415,50.132,43.415,57.508L7.531,57.508C3.12,57.508,-0.493,53.92,0.055,49.559C2.223,32.09,11.468,16.815,24.8,6.672C28.314,4.006,33.223,5.352,35.441,9.164L53.383,40.239ZM63.351,77.444C66.989,77.444,70.378,76.472,73.319,74.778L91.261,105.877C93.454,109.69,92.183,114.624,88.121,116.318C80.496,119.533,72.123,121.302,63.351,121.302C54.579,121.302,46.181,119.533,38.581,116.318C34.519,114.599,33.248,109.69,35.441,105.877L53.383,74.778C56.324,76.472,59.713,77.444,63.351,77.444ZM119.171,57.508L83.287,57.508C83.287,50.132,79.275,43.678,73.319,40.239L91.261,9.164C93.454,5.352,98.388,4.006,101.902,6.672C115.259,16.815,124.479,32.09,126.672,49.559C127.22,53.92,123.582,57.508,119.196,57.508L119.171,57.508ZM63.351,69.47C56.747,69.47,51.39,64.112,51.39,57.508C51.39,50.905,56.747,45.547,63.351,45.547C69.955,45.547,75.312,50.905,75.312,57.508C75.312,64.112,69.955,69.47,63.351,69.47ZM63.351,69.47"/>
</g>
  <g id="Ultralight-M" transform="matrix(1.0,0.0,0.0,1.0,497.6367257756295,1027.4067453068794)">  <path fill="#000000" stroke-opacity="1" stroke-width="1px" fill-rule="nonzero" xmlns:xlink="http://www.w3.org/1999/xlink" stroke-dasharray="none" fill-opacity="1" version="1.1" stroke="none" stroke-linejoin="miter" stroke-linecap="butt" stroke-miterlimit="4" d="M53.383,40.239C47.427,43.678,43.415,50.132,43.415,57.508L7.531,57.508C3.12,57.508,-0.493,53.92,0.055,49.559C2.223,32.09,11.468,16.815,24.8,6.672C28.314,4.006,33.223,5.352,35.441,9.164L53.383,40.239ZM63.351,77.444C66.989,77.444,70.378,76.472,73.319,74.778L91.261,105.877C93.454,109.69,92.183,114.624,88.121,116.318C80.496,119.533,72.123,121.302,63.351,121.302C54.579,121.302,46.181,119.533,38.581,116.318C34.519,114.599,33.248,109.69,35.441,105.877L53.383,74.778C56.324,76.472,59.713,77.444,63.351,77.444ZM119.171,57.508L83.287,57.508C83.287,50.132,79.275,43.678,73.319,40.239L91.261,9.164C93.454,5.352,98.388,4.006,101.902,6.672C115.259,16.815,124.479,32.09,126.672,49.559C127.22,53.92,123.582,57.508,119.196,57.508L119.171,57.508ZM63.351,69.47C56.747,69.47,51.39,64.112,51.39,57.508C51.39,50.905,56.747,45.547,63.351,45.547C69.955,45.547,75.312,50.905,75.312,57.508C75.312,64.112,69.955,69.47,63.351,69.47ZM63.351,69.47"/>
</g>
  <g id="Black-S" transform="matrix(1.0,0.0,0.0,1.0,2885.066556282318,611.1565758135679)">  <path stroke-dasharray="none" stroke-width="1px" stroke-miterlimit="4" stroke-linejoin="miter" stroke-opacity="1" fill="#000000" stroke-linecap="butt" xmlns:xlink="http://www.w3.org/1999/xlink" fill-rule="nonzero" fill-opacity="1" version="1.1" stroke="none" d="M41.799,31.507C37.136,34.2,33.994,39.253,33.994,45.029L5.897,45.029C2.443,45.029,-0.386,42.219,0.043,38.805C1.741,25.127,8.98,13.166,19.419,5.224C22.17,3.137,26.014,4.19,27.75,7.176L41.799,31.507ZM49.604,60.639C52.453,60.639,55.106,59.878,57.409,58.551L71.457,82.902C73.174,85.887,72.179,89.751,68.999,91.077C63.028,93.594,56.472,94.98,49.604,94.98C42.736,94.98,36.16,93.594,30.209,91.077C27.028,89.731,26.033,85.887,27.75,82.902L41.799,58.551C44.101,59.878,46.755,60.639,49.604,60.639ZM93.311,45.029L65.213,45.029C65.213,39.253,62.072,34.2,57.409,31.507L71.457,7.176C73.174,4.19,77.038,3.137,79.789,5.224C90.247,13.166,97.467,25.127,99.184,38.805C99.613,42.219,96.764,45.029,93.33,45.029L93.311,45.029ZM49.604,54.395C44.433,54.395,40.238,50.2,40.238,45.029C40.238,39.858,44.433,35.663,49.604,35.663C54.775,35.663,58.97,39.858,58.97,45.029C58.97,50.2,54.775,54.395,49.604,54.395ZM49.604,54.395"/>
</g>
  <g id="Heavy-S" transform="matrix(1.0,0.0,0.0,1.0,2588.356556282318,611.1565758135679)">  <path stroke-linecap="butt" stroke-dasharray="none" stroke-linejoin="miter" stroke="none" stroke-miterlimit="4" version="1.1" xmlns:xlink="http://www.w3.org/1999/xlink" stroke-opacity="1" fill-rule="nonzero" fill="#000000" stroke-width="1px" fill-opacity="1" d="M41.799,31.507C37.136,34.2,33.994,39.253,33.994,45.029L5.897,45.029C2.443,45.029,-0.386,42.219,0.043,38.805C1.741,25.127,8.98,13.166,19.419,5.224C22.17,3.137,26.014,4.19,27.75,7.176L41.799,31.507ZM49.604,60.639C52.453,60.639,55.106,59.878,57.409,58.551L71.457,82.902C73.174,85.887,72.179,89.751,68.999,91.077C63.028,93.594,56.472,94.98,49.604,94.98C42.736,94.98,36.16,93.594,30.209,91.077C27.028,89.731,26.033,85.887,27.75,82.902L41.799,58.551C44.101,59.878,46.755,60.639,49.604,60.639ZM93.311,45.029L65.213,45.029C65.213,39.253,62.072,34.2,57.409,31.507L71.457,7.176C73.174,4.19,77.038,3.137,79.789,5.224C90.247,13.166,97.467,25.127,99.184,38.805C99.613,42.219,96.764,45.029,93.33,45.029L93.311,45.029ZM49.604,54.395C44.433,54.395,40.238,50.2,40.238,45.029C40.238,39.858,44.433,35.663,49.604,35.663C54.775,35.663,58.97,39.858,58.97,45.029C58.97,50.2,54.775,54.395,49.604,54.395ZM49.604,54.395"/>
</g>
  <g id="Bold-S" transform="matrix(1.0,0.0,0.0,1.0,2291.6465562823178,611.1565758135679)">  <path fill-rule="nonzero" fill="#000000" xmlns:xlink="http://www.w3.org/1999/xlink" stroke="none" stroke-linejoin="miter" stroke-opacity="1" stroke-linecap="butt" fill-opacity="1" stroke-miterlimit="4" version="1.1" stroke-width="1px" stroke-dasharray="none" d="M41.799,31.507C37.136,34.2,33.994,39.253,33.994,45.029L5.897,45.029C2.443,45.029,-0.386,42.219,0.043,38.805C1.741,25.127,8.98,13.166,19.419,5.224C22.17,3.137,26.014,4.19,27.75,7.176L41.799,31.507ZM49.604,60.639C52.453,60.639,55.106,59.878,57.409,58.551L71.457,82.902C73.174,85.887,72.179,89.751,68.999,91.077C63.028,93.594,56.472,94.98,49.604,94.98C42.736,94.98,36.16,93.594,30.209,91.077C27.028,89.731,26.033,85.887,27.75,82.902L41.799,58.551C44.101,59.878,46.755,60.639,49.604,60.639ZM93.311,45.029L65.213,45.029C65.213,39.253,62.072,34.2,57.409,31.507L71.457,7.176C73.174,4.19,77.038,3.137,79.789,5.224C90.247,13.166,97.467,25.127,99.184,38.805C99.613,42.219,96.764,45.029,93.33,45.029L93.311,45.029ZM49.604,54.395C44.433,54.395,40.238,50.2,40.238,45.029C40.238,39.858,44.433,35.663,49.604,35.663C54.775,35.663,58.97,39.858,58.97,45.029C58.97,50.2,54.775,54.395,49.604,54.395ZM49.604,54.395"/>
</g>
  <g id="Semibold-S" transform="matrix(1.0,0.0,0.0,1.0,1994.936556282318,611.1565758135679)">  <path fill-rule="nonzero" version="1.1" stroke-linejoin="miter" fill="#000000" stroke-width="1px" stroke="none" stroke-opacity="1" stroke-dasharray="none" stroke-miterlimit="4" fill-opacity="1" xmlns:xlink="http://www.w3.org/1999/xlink" stroke-linecap="butt" d="M41.799,31.507C37.136,34.2,33.994,39.253,33.994,45.029L5.897,45.029C2.443,45.029,-0.386,42.219,0.043,38.805C1.741,25.127,8.98,13.166,19.419,5.224C22.17,3.137,26.014,4.19,27.75,7.176L41.799,31.507ZM49.604,60.639C52.453,60.639,55.106,59.878,57.409,58.551L71.457,82.902C73.174,85.887,72.179,89.751,68.999,91.077C63.028,93.594,56.472,94.98,49.604,94.98C42.736,94.98,36.16,93.594,30.209,91.077C27.028,89.731,26.033,85.887,27.75,82.902L41.799,58.551C44.101,59.878,46.755,60.639,49.604,60.639ZM93.311,45.029L65.213,45.029C65.213,39.253,62.072,34.2,57.409,31.507L71.457,7.176C73.174,4.19,77.038,3.137,79.789,5.224C90.247,13.166,97.467,25.127,99.184,38.805C99.613,42.219,96.764,45.029,93.33,45.029L93.311,45.029ZM49.604,54.395C44.433,54.395,40.238,50.2,40.238,45.029C40.238,39.858,44.433,35.663,49.604,35.663C54.775,35.663,58.97,39.858,58.97,45.029C58.97,50.2,54.775,54.395,49.604,54.395ZM49.604,54.395"/>
</g>
  <g id="Medium-S" transform="matrix(1.0,0.0,0.0,1.0,1698.226556282318,611.1565758135679)">  <path fill="#000000" xmlns:xlink="http://www.w3.org/1999/xlink" stroke="none" version="1.1" stroke-linecap="butt" stroke-dasharray="none" stroke-width="1px" fill-opacity="1" fill-rule="nonzero" stroke-opacity="1" stroke-miterlimit="4" stroke-linejoin="miter" d="M41.799,31.507C37.136,34.2,33.994,39.253,33.994,45.029L5.897,45.029C2.443,45.029,-0.386,42.219,0.043,38.805C1.741,25.127,8.98,13.166,19.419,5.224C22.17,3.137,26.014,4.19,27.75,7.176L41.799,31.507ZM49.604,60.639C52.453,60.639,55.106,59.878,57.409,58.551L71.457,82.902C73.174,85.887,72.179,89.751,68.999,91.077C63.028,93.594,56.472,94.98,49.604,94.98C42.736,94.98,36.16,93.594,30.209,91.077C27.028,89.731,26.033,85.887,27.75,82.902L41.799,58.551C44.101,59.878,46.755,60.639,49.604,60.639ZM93.311,45.029L65.213,45.029C65.213,39.253,62.072,34.2,57.409,31.507L71.457,7.176C73.174,4.19,77.038,3.137,79.789,5.224C90.247,13.166,97.467,25.127,99.184,38.805C99.613,42.219,96.764,45.029,93.33,45.029L93.311,45.029ZM49.604,54.395C44.433,54.395,40.238,50.2,40.238,45.029C40.238,39.858,44.433,35.663,49.604,35.663C54.775,35.663,58.97,39.858,58.97,45.029C58.97,50.2,54.775,54.395,49.604,54.395ZM49.604,54.395"/>
</g>
  <g id="Regular-S" transform="matrix(1.0,0.0,0.0,1.0,1401.5165562823179,611.1565758135679)">  <path stroke-opacity="1" fill-opacity="1" fill-rule="nonzero" stroke-linecap="butt" stroke="none" xmlns:xlink="http://www.w3.org/1999/xlink" stroke-width="1px" version="1.1" stroke-miterlimit="4" stroke-dasharray="none" fill="#000000" stroke-linejoin="miter" d="M41.799,31.507C37.136,34.2,33.994,39.253,33.994,45.029L5.897,45.029C2.443,45.029,-0.386,42.219,0.043,38.805C1.741,25.127,8.98,13.166,19.419,5.224C22.17,3.137,26.014,4.19,27.75,7.176L41.799,31.507ZM49.604,60.639C52.453,60.639,55.106,59.878,57.409,58.551L71.457,82.902C73.174,85.887,72.179,89.751,68.999,91.077C63.028,93.594,56.472,94.98,49.604,94.98C42.736,94.98,36.16,93.594,30.209,91.077C27.028,89.731,26.033,85.887,27.75,82.902L41.799,58.551C44.101,59.878,46.755,60.639,49.604,60.639ZM93.311,45.029L65.213,45.029C65.213,39.253,62.072,34.2,57.409,31.507L71.457,7.176C73.174,4.19,77.038,3.137,79.789,5.224C90.247,13.166,97.467,25.127,99.184,38.805C99.613,42.219,96.764,45.029,93.33,45.029L93.311,45.029ZM49.604,54.395C44.433,54.395,40.238,50.2,40.238,45.029C40.238,39.858,44.433,35.663,49.604,35.663C54.775,35.663,58.97,39.858,58.97,45.029C58.97,50.2,54.775,54.395,49.604,54.395ZM49.604,54.395"/>
</g>
  <g id="Light-S" transform="matrix(1.0,0.0,0.0,1.0,1104.806556282318,611.1565758135679)">  <path stroke-linejoin="miter" stroke-linecap="butt" stroke="none" stroke-opacity="1" stroke-miterlimit="4" fill-rule="nonzero" stroke-dasharray="none" xmlns:xlink="http://www.w3.org/1999/xlink" fill="#000000" fill-opacity="1" version="1.1" stroke-width="1px" d="M41.799,31.507C37.136,34.2,33.994,39.253,33.994,45.029L5.897,45.029C2.443,45.029,-0.386,42.219,0.043,38.805C1.741,25.127,8.98,13.166,19.419,5.224C22.17,3.137,26.014,4.19,27.75,7.176L41.799,31.507ZM49.604,60.639C52.453,60.639,55.106,59.878,57.409,58.551L71.457,82.902C73.174,85.887,72.179,89.751,68.999,91.077C63.028,93.594,56.472,94.98,49.604,94.98C42.736,94.98,36.16,93.594,30.209,91.077C27.028,89.731,26.033,85.887,27.75,82.902L41.799,58.551C44.101,59.878,46.755,60.639,49.604,60.639ZM93.311,45.029L65.213,45.029C65.213,39.253,62.072,34.2,57.409,31.507L71.457,7.176C73.174,4.19,77.038,3.137,79.789,5.224C90.247,13.166,97.467,25.127,99.184,38.805C99.613,42.219,96.764,45.029,93.33,45.029L93.311,45.029ZM49.604,54.395C44.433,54.395,40.238,50.2,40.238,45.029C40.238,39.858,44.433,35.663,49.604,35.663C54.775,35.663,58.97,39.858,58.97,45.029C58.97,50.2,54.775,54.395,49.604,54.395ZM49.604,54.395"/>
</g>
  <g id="Thin-S" transform="matrix(1.0,0.0,0.0,1.0,808.0965562823179,611.1565758135679)">  <path stroke-miterlimit="4" version="1.1" stroke-opacity="1" fill-opacity="1" xmlns:xlink="http://www.w3.org/1999/xlink" stroke-linecap="butt" fill-rule="nonzero" fill="#000000" stroke-linejoin="miter" stroke-width="1px" stroke-dasharray="none" stroke="none" d="M41.799,31.507C37.136,34.2,33.994,39.253,33.994,45.029L5.897,45.029C2.443,45.029,-0.386,42.219,0.043,38.805C1.741,25.127,8.98,13.166,19.419,5.224C22.17,3.137,26.014,4.19,27.75,7.176L41.799,31.507ZM49.604,60.639C52.453,60.639,55.106,59.878,57.409,58.551L71.457,82.902C73.174,85.887,72.179,89.751,68.999,91.077C63.028,93.594,56.472,94.98,49.604,94.98C42.736,94.98,36.16,93.594,30.209,91.077C27.028,89.731,26.033,85.887,27.75,82.902L41.799,58.551C44.101,59.878,46.755,60.639,49.604,60.639ZM93.311,45.029L65.213,45.029C65.213,39.253,62.072,34.2,57.409,31.507L71.457,7.176C73.174,4.19,77.038,3.137,79.789,5.224C90.247,13.166,97.467,25.127,99.184,38.805C99.613,42.219,96.764,45.029,93.33,45.029L93.311,45.029ZM49.604,54.395C44.433,54.395,40.238,50.2,40.238,45.029C40.238,39.858,44.433,35.663,49.604,35.663C54.775,35.663,58.97,39.858,58.97,45.029C58.97,50.2,54.775,54.395,49.604,54.395ZM49.604,54.395"/>
</g>
  <g id="Ultralight-S" transform="matrix(1.0,0.0,0.0,1.0,511.3865562823179,611.1565758135679)">  <path fill="#000000" stroke-opacity="1" stroke-width="1px" fill-rule="nonzero" xmlns:xlink="http://www.w3.org/1999/xlink" stroke-dasharray="none" fill-opacity="1" version="1.1" stroke="none" stroke-linejoin="miter" stroke-linecap="butt" stroke-miterlimit="4" d="M41.799,31.507C37.136,34.2,33.994,39.253,33.994,45.029L5.897,45.029C2.443,45.029,-0.386,42.219,0.043,38.805C1.741,25.127,8.98,13.166,19.419,5.224C22.17,3.137,26.014,4.19,27.75,7.176L41.799,31.507ZM49.604,60.639C52.453,60.639,55.106,59.878,57.409,58.551L71.457,82.902C73.174,85.887,72.179,89.751,68.999,91.077C63.028,93.594,56.472,94.98,49.604,94.98C42.736,94.98,36.16,93.594,30.209,91.077C27.028,89.731,26.033,85.887,27.75,82.902L41.799,58.551C44.101,59.878,46.755,60.639,49.604,60.639ZM93.311,45.029L65.213,45.029C65.213,39.253,62.072,34.2,57.409,31.507L71.457,7.176C73.174,4.19,77.038,3.137,79.789,5.224C90.247,13.166,97.467,25.127,99.184,38.805C99.613,42.219,96.764,45.029,93.33,45.029L93.311,45.029ZM49.604,54.395C44.433,54.395,40.238,50.2,40.238,45.029C40.238,39.858,44.433,35.663,49.604,35.663C54.775,35.663,58.97,39.858,58.97,45.029C58.97,50.2,54.775,54.395,49.604,54.395ZM49.604,54.395"/>
</g>
 </g>
</svg>
