<?xml version="1.0" encoding="UTF-8"?>
<!-- Generator: CustomSymbols v2.7.2.48 by @serious_bret https://bretlester.com/app_content/CustomSymbols/ -->
<!-- Guides: Left/Right 0.11/0.11 Cap/Base 0.222/0.222 -->
<!-- Settings: RefScale 1.0 Min/Max Stroke Scales 0.5/2.21 -->
<!DOCTYPE svg
PUBLIC "-//W3C//DTD SVG 1.1//EN"
       "http://www.w3.org/Graphics/SVG/1.1/DTD/svg11.dtd">
<svg version="1.1" xmlns="http://www.w3.org/2000/svg" xmlns:xlink="http://www.w3.org/1999/xlink" width="3300" height="2200">
<![CDATA[<?xml version="1.0" encoding="UTF-8"?>
<svg width="96px" height="96px" viewBox="0 0 96 96" version="1.1" xmlns="http://www.w3.org/2000/svg" xmlns:xlink="http://www.w3.org/1999/xlink">
    <title>icon/medical/thermometer</title>
    <g id="icon/medical/thermometer" stroke="none" stroke-width="1" fill="none" fill-rule="evenodd">
        <path d="M18.0075732,71.6367542 L18.0075732,54.98838 C18.0075732,52.1949028 19.1137125,49.5326628 21.0822656,47.5641051 L26.2005034,42.4458549 L36.8869342,53.1323113 C38.0493179,54.2946978 39.9616265,54.2946978 41.1240102,53.1323113 C42.2863939,51.9699248 42.2863939,50.0576116 41.1240102,48.8952251 L30.4375795,38.2087687 L38.1993028,30.4470267 L48.8857336,41.1334831 C50.0481173,42.2958695 51.9604259,42.2958695 53.1228096,41.1334831 C54.2851933,39.9710966 54.2851933,38.0587833 53.1228096,36.8963968 L42.4363789,26.2099404 L50.1981022,18.4481984 L60.884533,29.1346548 C62.0469167,30.2970413 63.9592253,30.2970413 65.121609,29.1346548 C66.2839927,27.9722683 66.2839927,26.0599551 65.121609,24.8975686 L54.4351783,14.2111122 L62.9655747,5.68069524 C66.6027108,2.04355043 71.5147193,0 76.6517053,0 C87.338136,0 95.9997693,8.66165414 95.9997693,19.3481105 C95.9997693,24.4851089 93.9562238,29.3971292 90.3378359,33.034274 L48.4357786,74.9176838 C46.4672256,76.8862416 43.8049919,77.9923836 41.0115215,77.9923836 L24.3631873,77.9923836 L7.69610499,94.6782541 C5.93378133,96.440582 3.08406647,96.440582 1.34049093,94.6782541 C-0.403084605,92.9159262 -0.42183273,90.0662045 1.34049093,88.3226247 L18.0263213,71.6367542 L18.0075732,71.6367542 Z" id="Shape" fill="#FB4C6C" fill-rule="nonzero"></path>
    </g>
</svg>]]>
 <g id="Notes">
  <rect height="2200" id="artboard" style="fill:white;opacity:1" width="3300" x="0" y="0"/>
  <line id="" style="fill:none;stroke:black;opacity:1;stroke-width:0.5;" x1="263" x2="3036" y1="292" y2="292"/>
  <text id="reftext1" style="stroke:none;fill:black;font-family:-apple-system,&quot;SF Pro Display&quot;,&quot;SF Pro Text&quot;,Helvetica,sans-serif;font-weight:bold;" transform="matrix(1 0 0 1 263 322)">Weight/Scale Variations</text>
  <text id="reftext2" style="stroke:none;fill:black;font-family:-apple-system,&quot;SF Pro Display&quot;,&quot;SF Pro Text&quot;,Helvetica,sans-serif;text-anchor:middle;" transform="matrix(1 0 0 1 559.711 322)">Ultralight</text>
  <text style="stroke:none;fill:black;font-family:-apple-system,&quot;SF Pro Display&quot;,&quot;SF Pro Text&quot;,Helvetica,sans-serif;text-anchor:middle;" transform="matrix(1 0 0 1 856.422 322)">Thin</text>
  <text style="stroke:none;fill:black;font-family:-apple-system,&quot;SF Pro Display&quot;,&quot;SF Pro Text&quot;,Helvetica,sans-serif;text-anchor:middle;" transform="matrix(1 0 0 1 1153.13 322)">Light</text>
  <text style="stroke:none;fill:black;font-family:-apple-system,&quot;SF Pro Display&quot;,&quot;SF Pro Text&quot;,Helvetica,sans-serif;text-anchor:middle;" transform="matrix(1 0 0 1 1449.84 322)">Regular</text>
  <text style="stroke:none;fill:black;font-family:-apple-system,&quot;SF Pro Display&quot;,&quot;SF Pro Text&quot;,Helvetica,sans-serif;text-anchor:middle;" transform="matrix(1 0 0 1 1746.56 322)">Medium</text>
  <text style="stroke:none;fill:black;font-family:-apple-system,&quot;SF Pro Display&quot;,&quot;SF Pro Text&quot;,Helvetica,sans-serif;text-anchor:middle;" transform="matrix(1 0 0 1 2043.27 322)">Semibold</text>
  <text style="stroke:none;fill:black;font-family:-apple-system,&quot;SF Pro Display&quot;,&quot;SF Pro Text&quot;,Helvetica,sans-serif;text-anchor:middle;" transform="matrix(1 0 0 1 2339.98 322)">Bold</text>
  <text style="stroke:none;fill:black;font-family:-apple-system,&quot;SF Pro Display&quot;,&quot;SF Pro Text&quot;,Helvetica,sans-serif;text-anchor:middle;" transform="matrix(1 0 0 1 2636.69 322)">Heavy</text>
  <text style="stroke:none;fill:black;font-family:-apple-system,&quot;SF Pro Display&quot;,&quot;SF Pro Text&quot;,Helvetica,sans-serif;text-anchor:middle;" transform="matrix(1 0 0 1 2933.4 322)">Black</text>
  <line id="" style="fill:none;stroke:black;opacity:1;stroke-width:0.5;" x1="263" x2="3036" y1="1903" y2="1903"/>
  <g id="" transform="matrix(1 0 0 1 263 1933)">
   <path d="M9.24805 0.830078C13.5547 0.830078 17.1387-2.74414 17.1387-7.05078C17.1387-11.3574 13.5449-14.9316 9.23828-14.9316C4.94141-14.9316 1.36719-11.3574 1.36719-7.05078C1.36719-2.74414 4.95117 0.830078 9.24805 0.830078ZM9.24805-0.654297C5.70312-0.654297 2.87109-3.49609 2.87109-7.05078C2.87109-10.6055 5.69336-13.4473 9.23828-13.4473C12.793-13.4473 15.6348-10.6055 15.6445-7.05078C15.6543-3.49609 12.8027-0.654297 9.24805-0.654297ZM6.39648-6.31836L8.50586-6.31836L8.50586-4.19922C8.50586-3.75977 8.79883-3.45703 9.22852-3.45703C9.67773-3.45703 9.9707-3.75977 9.9707-4.19922L9.9707-6.31836L12.0996-6.31836C12.5391-6.31836 12.8418-6.61133 12.8418-7.04102C12.8418-7.48047 12.5391-7.7832 12.0996-7.7832L9.9707-7.7832L9.9707-9.89258C9.9707-10.3418 9.67773-10.6445 9.22852-10.6445C8.79883-10.6445 8.50586-10.3418 8.50586-9.89258L8.50586-7.7832L6.39648-7.7832C5.94727-7.7832 5.64453-7.48047 5.64453-7.04102C5.64453-6.61133 5.94727-6.31836 6.39648-6.31836Z"/>
  </g>
  <g id="" transform="matrix(1 0 0 1 281.506 1933)">
   <path d="M11.709 2.91016C17.1582 2.91016 21.6699-1.61133 21.6699-7.05078C21.6699-12.5 17.1484-17.0117 11.6992-17.0117C6.25977-17.0117 1.74805-12.5 1.74805-7.05078C1.74805-1.61133 6.26953 2.91016 11.709 2.91016ZM11.709 1.25C7.09961 1.25 3.41797-2.44141 3.41797-7.05078C3.41797-11.6602 7.08984-15.3516 11.6992-15.3516C16.3086-15.3516 20-11.6602 20.0098-7.05078C20.0195-2.44141 16.3184 1.25 11.709 1.25ZM7.98828-6.23047L10.8789-6.23047L10.8789-3.32031C10.8789-2.83203 11.2109-2.5 11.6895-2.5C12.1777-2.5 12.5195-2.83203 12.5195-3.32031L12.5195-6.23047L15.4297-6.23047C15.918-6.23047 16.25-6.5625 16.25-7.04102C16.25-7.5293 15.918-7.87109 15.4297-7.87109L12.5195-7.87109L12.5195-10.7617C12.5195-11.2695 12.1777-11.6016 11.6895-11.6016C11.2109-11.6016 10.8789-11.2598 10.8789-10.7617L10.8789-7.87109L7.98828-7.87109C7.48047-7.87109 7.14844-7.5293 7.14844-7.04102C7.14844-6.5625 7.49023-6.23047 7.98828-6.23047Z"/>
  </g>
  <g id="" transform="matrix(1 0 0 1 304.924 1933)">
   <path d="M14.9707 5.66406C21.9336 5.66406 27.6953-0.0976562 27.6953-7.05078C27.6953-14.0137 21.9238-19.7754 14.9609-19.7754C8.00781-19.7754 2.25586-14.0137 2.25586-7.05078C2.25586-0.0976562 8.01758 5.66406 14.9707 5.66406ZM14.9707 3.84766C8.93555 3.84766 4.08203-1.01562 4.08203-7.05078C4.08203-13.0957 8.92578-17.9492 14.9609-17.9492C21.0059-17.9492 25.8594-13.0957 25.8691-7.05078C25.8789-1.01562 21.0156 3.84766 14.9707 3.84766ZM10.0586-6.14258L14.0625-6.14258L14.0625-2.12891C14.0625-1.5918 14.4336-1.2207 14.9512-1.2207C15.4883-1.2207 15.8594-1.5918 15.8594-2.12891L15.8594-6.14258L19.8828-6.14258C20.4102-6.14258 20.791-6.51367 20.791-7.03125C20.791-7.56836 20.4199-7.94922 19.8828-7.94922L15.8594-7.94922L15.8594-11.9531C15.8594-12.5098 15.4883-12.8809 14.9512-12.8809C14.4336-12.8809 14.0625-12.5 14.0625-11.9531L14.0625-7.94922L10.0586-7.94922C9.50195-7.94922 9.13086-7.56836 9.13086-7.03125C9.13086-6.51367 9.51172-6.14258 10.0586-6.14258Z"/>
  </g>
  <text style="stroke:none;fill:black;font-family:-apple-system,&quot;SF Pro Display&quot;,&quot;SF Pro Text&quot;,Helvetica,sans-serif;font-weight:bold;" transform="matrix(1 0 0 1 263 1953)">Design Variations</text>
  <text style="stroke:none;fill:black;font-family:-apple-system,&quot;SF Pro Display&quot;,&quot;SF Pro Text&quot;,Helvetica,sans-serif;" transform="matrix(1 0 0 1 263 1971)">Symbols are supported in up to nine weights and three scales.</text>
  <text style="stroke:none;fill:black;font-family:-apple-system,&quot;SF Pro Display&quot;,&quot;SF Pro Text&quot;,Helvetica,sans-serif;" transform="matrix(1 0 0 1 263 1989)">For optimal layout with text and other symbols, vertically align</text>
  <text style="stroke:none;fill:black;font-family:-apple-system,&quot;SF Pro Display&quot;,&quot;SF Pro Text&quot;,Helvetica,sans-serif;" transform="matrix(1 0 0 1 263 2007)">symbols with the adjacent text.</text>
  <line id="" style="fill:none;stroke:#00AEEF;stroke-width:0.5;opacity:1.0;" x1="776" x2="776" y1="1919" y2="1933"/>
  <g id="" transform="matrix(1 0 0 1 776 1933)">
   <path d="M3.31055 0.126953C3.82812 0.126953 4.08203-0.0683594 4.26758-0.605469L5.52734-4.0625L11.2891-4.0625L12.5488-0.605469C12.7344-0.0683594 12.9883 0.126953 13.4961 0.126953C14.0137 0.126953 14.3457-0.185547 14.3457-0.673828C14.3457-0.839844 14.3164-0.986328 14.2383-1.20117L9.6582-13.3887C9.43359-13.9941 9.0332-14.2871 8.4082-14.2871C7.80273-14.2871 7.39258-13.9941 7.17773-13.3984L2.59766-1.19141C2.51953-0.976562 2.49023-0.830078 2.49023-0.664062C2.49023-0.175781 2.80273 0.126953 3.31055 0.126953ZM6.00586-5.53711L8.37891-12.1094L8.42773-12.1094L10.8008-5.53711Z"/>
  </g>
  <line id="" style="fill:none;stroke:#00AEEF;stroke-width:0.5;opacity:1.0;" x1="792.836" x2="792.836" y1="1919" y2="1933"/>
  <text style="stroke:none;fill:black;font-family:-apple-system,&quot;SF Pro Display&quot;,&quot;SF Pro Text&quot;,Helvetica,sans-serif;font-weight:bold;" transform="matrix(1 0 0 1 776 1953)">Margins</text>
  <text style="stroke:none;fill:black;font-family:-apple-system,&quot;SF Pro Display&quot;,&quot;SF Pro Text&quot;,Helvetica,sans-serif;" transform="matrix(1 0 0 1 776 1971)">Leading and trailing margins on the left and right side of each symbol</text>
  <text style="stroke:none;fill:black;font-family:-apple-system,&quot;SF Pro Display&quot;,&quot;SF Pro Text&quot;,Helvetica,sans-serif;" transform="matrix(1 0 0 1 776 1989)">can be adjusted by modifying the x-location of the margin guidelines.</text>
  <text style="stroke:none;fill:black;font-family:-apple-system,&quot;SF Pro Display&quot;,&quot;SF Pro Text&quot;,Helvetica,sans-serif;" transform="matrix(1 0 0 1 776 2007)">Modifications are automatically applied proportionally to all</text>
  <text style="stroke:none;fill:black;font-family:-apple-system,&quot;SF Pro Display&quot;,&quot;SF Pro Text&quot;,Helvetica,sans-serif;" transform="matrix(1 0 0 1 776 2025)">scales and weights.</text>
  <g id="" transform="matrix(1 0 0 1 1289 1933)">
   <path d="M2.8418 1.86523L4.54102 3.57422C5.40039 4.44336 6.38672 4.38477 7.31445 3.35938L17.4902-7.85156C17.7539-7.76367 18.0273-7.7832 18.3398-7.8418L19.4043-8.03711L20.0684-7.36328L20.0293-6.80664C19.9902-6.30859 20.1172-5.92773 20.6055-5.44922L21.3672-4.70703C21.8457-4.22852 22.4609-4.19922 22.9297-4.66797L25.8398-7.58789C26.3086-8.05664 26.2891-8.65234 25.8105-9.13086L25.0391-9.89258C24.5605-10.3711 24.1895-10.5273 23.7109-10.4883L23.1348-10.4395L22.4902-11.0742L22.7344-12.1973C22.8613-12.7637 22.7051-13.2031 22.1191-13.7891L19.9219-15.9766C16.582-19.2969 12.1484-19.2188 9.25781-16.3281C8.83789-15.918 8.80859-15.3418 9.04297-14.9512C9.27734-14.5898 9.73633-14.3555 10.3809-14.5215C11.8457-14.8633 13.3691-14.9219 14.7949-13.9844L14.209-12.5293C14.0137-12.0508 13.9844-11.6504 14.1113-11.2891L3.04688-0.898438C2.06055 0.0195312 1.98242 0.996094 2.8418 1.86523ZM10.752-15.957C13.1836-17.7344 16.4746-17.4316 18.7012-15.2051L21.1328-12.793C21.3672-12.5586 21.4062-12.373 21.3379-12.0312L21.0156-10.5469L22.5195-9.0625L23.5059-9.12109C23.7598-9.13086 23.8379-9.11133 24.0332-8.91602L24.6094-8.33984L22.168-5.89844L21.5918-6.47461C21.3965-6.66992 21.3672-6.74805 21.377-7.01172L21.4453-7.98828L19.9512-9.47266L18.4277-9.21875C18.1055-9.15039 17.959-9.17969 17.7148-9.41406L15.7129-11.416C15.459-11.6504 15.4297-11.8164 15.5859-12.1875L16.4648-14.2773C14.9023-15.7324 12.8711-16.3574 10.8398-15.7617C10.6836-15.7227 10.625-15.8496 10.752-15.957ZM5.27344 2.30469L4.10156 1.14258C3.63281 0.683594 3.74023 0.341797 4.14062-0.0195312L14.9512-10.1953L16.416-8.71094L6.42578 2.27539C6.07422 2.67578 5.74219 2.77344 5.27344 2.30469Z"/>
  </g>
  <text style="stroke:none;fill:black;font-family:-apple-system,&quot;SF Pro Display&quot;,&quot;SF Pro Text&quot;,Helvetica,sans-serif;font-weight:bold;" transform="matrix(1 0 0 1 1289 1953)">Exporting</text>
  <text style="stroke:none;fill:black;font-family:-apple-system,&quot;SF Pro Display&quot;,&quot;SF Pro Text&quot;,Helvetica,sans-serif;" transform="matrix(1 0 0 1 1289 1971)">Symbols should be outlined when exporting to ensure the</text>
  <text style="stroke:none;fill:black;font-family:-apple-system,&quot;SF Pro Display&quot;,&quot;SF Pro Text&quot;,Helvetica,sans-serif;" transform="matrix(1 0 0 1 1289 1989)">design is preserved when submitting to Xcode.</text>
  <text id="template-version" style="stroke:none;fill:black;font-family:-apple-system,&quot;SF Pro Display&quot;,&quot;SF Pro Text&quot;,Helvetica,sans-serif;text-anchor:end;" transform="matrix(1 0 0 1 3036 1933)">Template v.2.0</text>
  <text style="stroke:none;fill:black;font-family:-apple-system,&quot;SF Pro Display&quot;,&quot;SF Pro Text&quot;,Helvetica,sans-serif;text-anchor:end;" transform="matrix(1 0 0 1 3036 1951)">Requires Xcode 12 or greater</text>
  <text style="stroke:none;fill:black;font-family:-apple-system,&quot;SF Pro Display&quot;,&quot;SF Pro Text&quot;,Helvetica,sans-serif;" transform="matrix(1 0 0 1 263 726)">Small</text>
  <text style="stroke:none;fill:black;font-family:-apple-system,&quot;SF Pro Display&quot;,&quot;SF Pro Text&quot;,Helvetica,sans-serif;" transform="matrix(1 0 0 1 263 1156)">Medium</text>
  <text style="stroke:none;fill:black;font-family:-apple-system,&quot;SF Pro Display&quot;,&quot;SF Pro Text&quot;,Helvetica,sans-serif;" transform="matrix(1 0 0 1 263 1586)">Large</text>
 </g>
 <g id="Guides">
  <g id="H-reference" style="fill:#27AAE1;stroke:none;" transform="matrix(1 0 0 1 339 696)">
   <path d="M0.976562 0L3.66211 0L12.9883-24.4629L45.752-24.4629L55.127 0L57.7637 0L30.6152-70.459L28.125-70.459ZM29.3457-67.1387L29.4434-67.1387L44.873-26.709L13.8672-26.709Z"/>
  </g>
  <line id="Baseline-S" style="fill:none;stroke:#27AAE1;opacity:1;stroke-width:0.5;" x1="263" x2="3036" y1="696" y2="696"/>
  <line id="Capline-S" style="fill:none;stroke:#27AAE1;opacity:1;stroke-width:0.5;" x1="263" x2="3036" y1="625.541" y2="625.541"/>
  <g id="H-reference" style="fill:#27AAE1;stroke:none;" transform="matrix(1 0 0 1 339 1126)">
   <path d="M0.976562 0L3.66211 0L12.9883-24.4629L45.752-24.4629L55.127 0L57.7637 0L30.6152-70.459L28.125-70.459ZM29.3457-67.1387L29.4434-67.1387L44.873-26.709L13.8672-26.709Z"/>
  </g>
  <line id="Baseline-M" style="fill:none;stroke:#27AAE1;opacity:1;stroke-width:0.5;" x1="263" x2="3036" y1="1126" y2="1126"/>
  <line id="Capline-M" style="fill:none;stroke:#27AAE1;opacity:1;stroke-width:0.5;" x1="263" x2="3036" y1="1055.54" y2="1055.54"/>
  <g id="H-reference" style="fill:#27AAE1;stroke:none;" transform="matrix(1 0 0 1 339 1556)">
   <path d="M0.976562 0L3.66211 0L12.9883-24.4629L45.752-24.4629L55.127 0L57.7637 0L30.6152-70.459L28.125-70.459ZM29.3457-67.1387L29.4434-67.1387L44.873-26.709L13.8672-26.709Z"/>
  </g>
  <line id="Baseline-L" style="fill:none;stroke:#27AAE1;opacity:1;stroke-width:0.5;" x1="263" x2="3036" y1="1556" y2="1556"/>
  <line id="Capline-L" style="fill:none;stroke:#27AAE1;opacity:1;stroke-width:0.5;" x1="263" x2="3036" y1="1485.54" y2="1485.54"/>
  <line id="left-margin" x1="1401.7066461049908" x2="1401.7066461049908" y1="1030.79" y2="1150.12" style="fill:none;stroke:#00AEEF;stroke-width:0.5;opacity:1.0;"/>
  <line id="right-margin" x1="1500.553353895009" x2="1500.553353895009" y1="1030.79" y2="1150.12" style="fill:none;stroke:#00AEEF;stroke-width:0.5;opacity:1.0;"/>
 </g>
 <g id="Symbols">
  <g id="Black-L" transform="matrix(1.0,0.0,0.0,1.0,2852.941376250562,1439.031395781812)">  <path stroke="none" stroke-dasharray="none" stroke-opacity="1" fill-opacity="1" stroke-linejoin="miter" stroke-linecap="butt" xmlns:xlink="http://www.w3.org/1999/xlink" fill-rule="nonzero" stroke-width="1px" stroke-miterlimit="4" fill="#000000" version="1.1" d="M30.665,121.989L30.665,93.639C30.665,88.882,32.549,84.349,35.901,80.996L44.617,72.281L62.814,90.478C64.794,92.458,68.05,92.458,70.03,90.478C72.009,88.499,72.009,85.243,70.03,83.263L51.832,65.065L65.049,51.848L83.247,70.046C85.226,72.025,88.483,72.025,90.462,70.046C92.442,68.066,92.442,64.81,90.462,62.83L72.264,44.633L85.482,31.415L103.68,49.613C105.659,51.592,108.915,51.592,110.895,49.613C112.874,47.634,112.874,44.377,110.895,42.398L92.697,24.2L107.223,9.674C113.417,3.48,121.782,0,130.529,0C148.727,0,163.477,14.75,163.477,32.948C163.477,41.695,159.997,50.06,153.835,56.254L82.481,127.576C79.128,130.929,74.595,132.812,69.838,132.812L41.488,132.812L13.106,161.226C10.105,164.228,5.252,164.228,2.283,161.226C-0.686,158.225,-0.718,153.373,2.283,150.404L30.697,121.989L30.665,121.989ZM30.665,121.989"/>
</g>
  <g id="Heavy-L" transform="matrix(1.0,0.0,0.0,1.0,2556.231376250562,1439.031395781812)">  <path stroke-width="1px" stroke-opacity="1" stroke-miterlimit="4" version="1.1" stroke-dasharray="none" xmlns:xlink="http://www.w3.org/1999/xlink" fill-rule="nonzero" stroke-linecap="butt" stroke-linejoin="miter" fill-opacity="1" fill="#000000" stroke="none" d="M30.665,121.989L30.665,93.639C30.665,88.882,32.549,84.349,35.901,80.996L44.617,72.281L62.814,90.478C64.794,92.458,68.05,92.458,70.03,90.478C72.009,88.499,72.009,85.243,70.03,83.263L51.832,65.065L65.049,51.848L83.247,70.046C85.226,72.025,88.483,72.025,90.462,70.046C92.442,68.066,92.442,64.81,90.462,62.83L72.264,44.633L85.482,31.415L103.68,49.613C105.659,51.592,108.915,51.592,110.895,49.613C112.874,47.634,112.874,44.377,110.895,42.398L92.697,24.2L107.223,9.674C113.417,3.48,121.782,0,130.529,0C148.727,0,163.477,14.75,163.477,32.948C163.477,41.695,159.997,50.06,153.835,56.254L82.481,127.576C79.128,130.929,74.595,132.812,69.838,132.812L41.488,132.812L13.106,161.226C10.105,164.228,5.252,164.228,2.283,161.226C-0.686,158.225,-0.718,153.373,2.283,150.404L30.697,121.989L30.665,121.989ZM30.665,121.989"/>
</g>
  <g id="Bold-L" transform="matrix(1.0,0.0,0.0,1.0,2259.521376250562,1439.031395781812)">  <path stroke-dasharray="none" fill-opacity="1" fill-rule="nonzero" stroke-width="1px" fill="#000000" stroke-miterlimit="4" version="1.1" stroke-opacity="1" stroke="none" xmlns:xlink="http://www.w3.org/1999/xlink" stroke-linejoin="miter" stroke-linecap="butt" d="M30.665,121.989L30.665,93.639C30.665,88.882,32.549,84.349,35.901,80.996L44.617,72.281L62.814,90.478C64.794,92.458,68.05,92.458,70.03,90.478C72.009,88.499,72.009,85.243,70.03,83.263L51.832,65.065L65.049,51.848L83.247,70.046C85.226,72.025,88.483,72.025,90.462,70.046C92.442,68.066,92.442,64.81,90.462,62.83L72.264,44.633L85.482,31.415L103.68,49.613C105.659,51.592,108.915,51.592,110.895,49.613C112.874,47.634,112.874,44.377,110.895,42.398L92.697,24.2L107.223,9.674C113.417,3.48,121.782,0,130.529,0C148.727,0,163.477,14.75,163.477,32.948C163.477,41.695,159.997,50.06,153.835,56.254L82.481,127.576C79.128,130.929,74.595,132.812,69.838,132.812L41.488,132.812L13.106,161.226C10.105,164.228,5.252,164.228,2.283,161.226C-0.686,158.225,-0.718,153.373,2.283,150.404L30.697,121.989L30.665,121.989ZM30.665,121.989"/>
</g>
  <g id="Semibold-L" transform="matrix(1.0,0.0,0.0,1.0,1962.811376250562,1439.031395781812)">  <path xmlns:xlink="http://www.w3.org/1999/xlink" stroke="none" fill="#000000" fill-rule="nonzero" stroke-linejoin="miter" stroke-miterlimit="4" stroke-linecap="butt" fill-opacity="1" stroke-dasharray="none" version="1.1" stroke-width="1px" stroke-opacity="1" d="M30.665,121.989L30.665,93.639C30.665,88.882,32.549,84.349,35.901,80.996L44.617,72.281L62.814,90.478C64.794,92.458,68.05,92.458,70.03,90.478C72.009,88.499,72.009,85.243,70.03,83.263L51.832,65.065L65.049,51.848L83.247,70.046C85.226,72.025,88.483,72.025,90.462,70.046C92.442,68.066,92.442,64.81,90.462,62.83L72.264,44.633L85.482,31.415L103.68,49.613C105.659,51.592,108.915,51.592,110.895,49.613C112.874,47.634,112.874,44.377,110.895,42.398L92.697,24.2L107.223,9.674C113.417,3.48,121.782,0,130.529,0C148.727,0,163.477,14.75,163.477,32.948C163.477,41.695,159.997,50.06,153.835,56.254L82.481,127.576C79.128,130.929,74.595,132.812,69.838,132.812L41.488,132.812L13.106,161.226C10.105,164.228,5.252,164.228,2.283,161.226C-0.686,158.225,-0.718,153.373,2.283,150.404L30.697,121.989L30.665,121.989ZM30.665,121.989"/>
</g>
  <g id="Medium-L" transform="matrix(1.0,0.0,0.0,1.0,1666.101376250562,1439.031395781812)">  <path stroke-dasharray="none" fill="#000000" stroke-miterlimit="4" stroke-width="1px" version="1.1" fill-rule="nonzero" fill-opacity="1" stroke-opacity="1" stroke-linejoin="miter" xmlns:xlink="http://www.w3.org/1999/xlink" stroke-linecap="butt" stroke="none" d="M30.665,121.989L30.665,93.639C30.665,88.882,32.549,84.349,35.901,80.996L44.617,72.281L62.814,90.478C64.794,92.458,68.05,92.458,70.03,90.478C72.009,88.499,72.009,85.243,70.03,83.263L51.832,65.065L65.049,51.848L83.247,70.046C85.226,72.025,88.483,72.025,90.462,70.046C92.442,68.066,92.442,64.81,90.462,62.83L72.264,44.633L85.482,31.415L103.68,49.613C105.659,51.592,108.915,51.592,110.895,49.613C112.874,47.634,112.874,44.377,110.895,42.398L92.697,24.2L107.223,9.674C113.417,3.48,121.782,0,130.529,0C148.727,0,163.477,14.75,163.477,32.948C163.477,41.695,159.997,50.06,153.835,56.254L82.481,127.576C79.128,130.929,74.595,132.812,69.838,132.812L41.488,132.812L13.106,161.226C10.105,164.228,5.252,164.228,2.283,161.226C-0.686,158.225,-0.718,153.373,2.283,150.404L30.697,121.989L30.665,121.989ZM30.665,121.989"/>
</g>
  <g id="Regular-L" transform="matrix(1.0,0.0,0.0,1.0,1369.391376250562,1439.031395781812)">  <path stroke-opacity="1" fill-rule="nonzero" stroke="none" stroke-linecap="butt" version="1.1" stroke-miterlimit="4" xmlns:xlink="http://www.w3.org/1999/xlink" stroke-linejoin="miter" fill-opacity="1" fill="#000000" stroke-width="1px" stroke-dasharray="none" d="M30.665,121.989L30.665,93.639C30.665,88.882,32.549,84.349,35.901,80.996L44.617,72.281L62.814,90.478C64.794,92.458,68.05,92.458,70.03,90.478C72.009,88.499,72.009,85.243,70.03,83.263L51.832,65.065L65.049,51.848L83.247,70.046C85.226,72.025,88.483,72.025,90.462,70.046C92.442,68.066,92.442,64.81,90.462,62.83L72.264,44.633L85.482,31.415L103.68,49.613C105.659,51.592,108.915,51.592,110.895,49.613C112.874,47.634,112.874,44.377,110.895,42.398L92.697,24.2L107.223,9.674C113.417,3.48,121.782,0,130.529,0C148.727,0,163.477,14.75,163.477,32.948C163.477,41.695,159.997,50.06,153.835,56.254L82.481,127.576C79.128,130.929,74.595,132.812,69.838,132.812L41.488,132.812L13.106,161.226C10.105,164.228,5.252,164.228,2.283,161.226C-0.686,158.225,-0.718,153.373,2.283,150.404L30.697,121.989L30.665,121.989ZM30.665,121.989"/>
</g>
  <g id="Light-L" transform="matrix(1.0,0.0,0.0,1.0,1072.6813762505622,1439.031395781812)">  <path xmlns:xlink="http://www.w3.org/1999/xlink" stroke="none" stroke-linejoin="miter" stroke-dasharray="none" fill-opacity="1" stroke-linecap="butt" stroke-miterlimit="4" stroke-opacity="1" version="1.1" fill="#000000" stroke-width="1px" fill-rule="nonzero" d="M30.665,121.989L30.665,93.639C30.665,88.882,32.549,84.349,35.901,80.996L44.617,72.281L62.814,90.478C64.794,92.458,68.05,92.458,70.03,90.478C72.009,88.499,72.009,85.243,70.03,83.263L51.832,65.065L65.049,51.848L83.247,70.046C85.226,72.025,88.483,72.025,90.462,70.046C92.442,68.066,92.442,64.81,90.462,62.83L72.264,44.633L85.482,31.415L103.68,49.613C105.659,51.592,108.915,51.592,110.895,49.613C112.874,47.634,112.874,44.377,110.895,42.398L92.697,24.2L107.223,9.674C113.417,3.48,121.782,0,130.529,0C148.727,0,163.477,14.75,163.477,32.948C163.477,41.695,159.997,50.06,153.835,56.254L82.481,127.576C79.128,130.929,74.595,132.812,69.838,132.812L41.488,132.812L13.106,161.226C10.105,164.228,5.252,164.228,2.283,161.226C-0.686,158.225,-0.718,153.373,2.283,150.404L30.697,121.989L30.665,121.989ZM30.665,121.989"/>
</g>
  <g id="Thin-L" transform="matrix(1.0,0.0,0.0,1.0,775.9713762505621,1439.031395781812)">  <path stroke-dasharray="none" stroke-linecap="butt" fill="#000000" fill-opacity="1" fill-rule="nonzero" stroke="none" stroke-width="1px" xmlns:xlink="http://www.w3.org/1999/xlink" stroke-linejoin="miter" version="1.1" stroke-opacity="1" stroke-miterlimit="4" d="M30.665,121.989L30.665,93.639C30.665,88.882,32.549,84.349,35.901,80.996L44.617,72.281L62.814,90.478C64.794,92.458,68.05,92.458,70.03,90.478C72.009,88.499,72.009,85.243,70.03,83.263L51.832,65.065L65.049,51.848L83.247,70.046C85.226,72.025,88.483,72.025,90.462,70.046C92.442,68.066,92.442,64.81,90.462,62.83L72.264,44.633L85.482,31.415L103.68,49.613C105.659,51.592,108.915,51.592,110.895,49.613C112.874,47.634,112.874,44.377,110.895,42.398L92.697,24.2L107.223,9.674C113.417,3.48,121.782,0,130.529,0C148.727,0,163.477,14.75,163.477,32.948C163.477,41.695,159.997,50.06,153.835,56.254L82.481,127.576C79.128,130.929,74.595,132.812,69.838,132.812L41.488,132.812L13.106,161.226C10.105,164.228,5.252,164.228,2.283,161.226C-0.686,158.225,-0.718,153.373,2.283,150.404L30.697,121.989L30.665,121.989ZM30.665,121.989"/>
</g>
  <g id="Ultralight-L" transform="matrix(1.0,0.0,0.0,1.0,479.2613762505621,1439.031395781812)">  <path stroke-opacity="1" stroke-width="1px" stroke-miterlimit="4" xmlns:xlink="http://www.w3.org/1999/xlink" fill-rule="nonzero" fill="#000000" stroke="none" stroke-linecap="butt" stroke-dasharray="none" stroke-linejoin="miter" version="1.1" fill-opacity="1" d="M30.665,121.989L30.665,93.639C30.665,88.882,32.549,84.349,35.901,80.996L44.617,72.281L62.814,90.478C64.794,92.458,68.05,92.458,70.03,90.478C72.009,88.499,72.009,85.243,70.03,83.263L51.832,65.065L65.049,51.848L83.247,70.046C85.226,72.025,88.483,72.025,90.462,70.046C92.442,68.066,92.442,64.81,90.462,62.83L72.264,44.633L85.482,31.415L103.68,49.613C105.659,51.592,108.915,51.592,110.895,49.613C112.874,47.634,112.874,44.377,110.895,42.398L92.697,24.2L107.223,9.674C113.417,3.48,121.782,0,130.529,0C148.727,0,163.477,14.75,163.477,32.948C163.477,41.695,159.997,50.06,153.835,56.254L82.481,127.576C79.128,130.929,74.595,132.812,69.838,132.812L41.488,132.812L13.106,161.226C10.105,164.228,5.252,164.228,2.283,161.226C-0.686,158.225,-0.718,153.373,2.283,150.404L30.697,121.989L30.665,121.989ZM30.665,121.989"/>
</g>
  <g id="Black-M" transform="matrix(1.0,0.0,0.0,1.0,2871.3167257756295,1027.4067453068794)">  <path stroke="none" stroke-dasharray="none" stroke-opacity="1" fill-opacity="1" stroke-linejoin="miter" stroke-linecap="butt" xmlns:xlink="http://www.w3.org/1999/xlink" fill-rule="nonzero" stroke-width="1px" stroke-miterlimit="4" fill="#000000" version="1.1" d="M23.771,94.565L23.771,72.588C23.771,68.901,25.231,65.386,27.83,62.788L34.586,56.031L48.693,70.138C50.228,71.673,52.752,71.673,54.287,70.138C55.821,68.604,55.821,66.079,54.287,64.545L40.18,50.438L50.426,40.192L64.533,54.299C66.067,55.833,68.591,55.833,70.126,54.299C71.66,52.765,71.66,50.24,70.126,48.706L56.019,34.599L66.265,24.353L80.372,38.46C81.906,39.994,84.431,39.994,85.965,38.46C87.499,36.925,87.499,34.401,85.965,32.866L71.858,18.76L83.119,7.499C87.92,2.698,94.404,0,101.185,0C115.292,0,126.726,11.434,126.726,25.541C126.726,32.322,124.029,38.806,119.252,43.607L63.939,98.896C61.34,101.495,57.826,102.955,54.138,102.955L32.161,102.955L10.159,124.982C7.833,127.308,4.071,127.308,1.77,124.982C-0.532,122.655,-0.557,118.894,1.77,116.592L23.796,94.565L23.771,94.565ZM23.771,94.565"/>
</g>
  <g id="Heavy-M" transform="matrix(1.0,0.0,0.0,1.0,2574.6067257756295,1027.4067453068794)">  <path stroke-width="1px" stroke-opacity="1" stroke-miterlimit="4" version="1.1" stroke-dasharray="none" xmlns:xlink="http://www.w3.org/1999/xlink" fill-rule="nonzero" stroke-linecap="butt" stroke-linejoin="miter" fill-opacity="1" fill="#000000" stroke="none" d="M23.771,94.565L23.771,72.588C23.771,68.901,25.231,65.386,27.83,62.788L34.586,56.031L48.693,70.138C50.228,71.673,52.752,71.673,54.287,70.138C55.821,68.604,55.821,66.079,54.287,64.545L40.18,50.438L50.426,40.192L64.533,54.299C66.067,55.833,68.591,55.833,70.126,54.299C71.66,52.765,71.66,50.24,70.126,48.706L56.019,34.599L66.265,24.353L80.372,38.46C81.906,39.994,84.431,39.994,85.965,38.46C87.499,36.925,87.499,34.401,85.965,32.866L71.858,18.76L83.119,7.499C87.92,2.698,94.404,0,101.185,0C115.292,0,126.726,11.434,126.726,25.541C126.726,32.322,124.029,38.806,119.252,43.607L63.939,98.896C61.34,101.495,57.826,102.955,54.138,102.955L32.161,102.955L10.159,124.982C7.833,127.308,4.071,127.308,1.77,124.982C-0.532,122.655,-0.557,118.894,1.77,116.592L23.796,94.565L23.771,94.565ZM23.771,94.565"/>
</g>
  <g id="Bold-M" transform="matrix(1.0,0.0,0.0,1.0,2277.8967257756294,1027.4067453068794)">  <path stroke-dasharray="none" fill-opacity="1" fill-rule="nonzero" stroke-width="1px" fill="#000000" stroke-miterlimit="4" version="1.1" stroke-opacity="1" stroke="none" xmlns:xlink="http://www.w3.org/1999/xlink" stroke-linejoin="miter" stroke-linecap="butt" d="M23.771,94.565L23.771,72.588C23.771,68.901,25.231,65.386,27.83,62.788L34.586,56.031L48.693,70.138C50.228,71.673,52.752,71.673,54.287,70.138C55.821,68.604,55.821,66.079,54.287,64.545L40.18,50.438L50.426,40.192L64.533,54.299C66.067,55.833,68.591,55.833,70.126,54.299C71.66,52.765,71.66,50.24,70.126,48.706L56.019,34.599L66.265,24.353L80.372,38.46C81.906,39.994,84.431,39.994,85.965,38.46C87.499,36.925,87.499,34.401,85.965,32.866L71.858,18.76L83.119,7.499C87.92,2.698,94.404,0,101.185,0C115.292,0,126.726,11.434,126.726,25.541C126.726,32.322,124.029,38.806,119.252,43.607L63.939,98.896C61.34,101.495,57.826,102.955,54.138,102.955L32.161,102.955L10.159,124.982C7.833,127.308,4.071,127.308,1.77,124.982C-0.532,122.655,-0.557,118.894,1.77,116.592L23.796,94.565L23.771,94.565ZM23.771,94.565"/>
</g>
  <g id="Semibold-M" transform="matrix(1.0,0.0,0.0,1.0,1981.1867257756294,1027.4067453068794)">  <path xmlns:xlink="http://www.w3.org/1999/xlink" stroke="none" fill="#000000" fill-rule="nonzero" stroke-linejoin="miter" stroke-miterlimit="4" stroke-linecap="butt" fill-opacity="1" stroke-dasharray="none" version="1.1" stroke-width="1px" stroke-opacity="1" d="M23.771,94.565L23.771,72.588C23.771,68.901,25.231,65.386,27.83,62.788L34.586,56.031L48.693,70.138C50.228,71.673,52.752,71.673,54.287,70.138C55.821,68.604,55.821,66.079,54.287,64.545L40.18,50.438L50.426,40.192L64.533,54.299C66.067,55.833,68.591,55.833,70.126,54.299C71.66,52.765,71.66,50.24,70.126,48.706L56.019,34.599L66.265,24.353L80.372,38.46C81.906,39.994,84.431,39.994,85.965,38.46C87.499,36.925,87.499,34.401,85.965,32.866L71.858,18.76L83.119,7.499C87.92,2.698,94.404,0,101.185,0C115.292,0,126.726,11.434,126.726,25.541C126.726,32.322,124.029,38.806,119.252,43.607L63.939,98.896C61.34,101.495,57.826,102.955,54.138,102.955L32.161,102.955L10.159,124.982C7.833,127.308,4.071,127.308,1.77,124.982C-0.532,122.655,-0.557,118.894,1.77,116.592L23.796,94.565L23.771,94.565ZM23.771,94.565"/>
</g>
  <g id="Medium-M" transform="matrix(1.0,0.0,0.0,1.0,1684.4767257756293,1027.4067453068794)">  <path stroke-dasharray="none" fill="#000000" stroke-miterlimit="4" stroke-width="1px" version="1.1" fill-rule="nonzero" fill-opacity="1" stroke-opacity="1" stroke-linejoin="miter" xmlns:xlink="http://www.w3.org/1999/xlink" stroke-linecap="butt" stroke="none" d="M23.771,94.565L23.771,72.588C23.771,68.901,25.231,65.386,27.83,62.788L34.586,56.031L48.693,70.138C50.228,71.673,52.752,71.673,54.287,70.138C55.821,68.604,55.821,66.079,54.287,64.545L40.18,50.438L50.426,40.192L64.533,54.299C66.067,55.833,68.591,55.833,70.126,54.299C71.66,52.765,71.66,50.24,70.126,48.706L56.019,34.599L66.265,24.353L80.372,38.46C81.906,39.994,84.431,39.994,85.965,38.46C87.499,36.925,87.499,34.401,85.965,32.866L71.858,18.76L83.119,7.499C87.92,2.698,94.404,0,101.185,0C115.292,0,126.726,11.434,126.726,25.541C126.726,32.322,124.029,38.806,119.252,43.607L63.939,98.896C61.34,101.495,57.826,102.955,54.138,102.955L32.161,102.955L10.159,124.982C7.833,127.308,4.071,127.308,1.77,124.982C-0.532,122.655,-0.557,118.894,1.77,116.592L23.796,94.565L23.771,94.565ZM23.771,94.565"/>
</g>
  <g id="Regular-M" transform="matrix(1.0,0.0,0.0,1.0,1387.7667257756293,1027.4067453068794)">  <path stroke-opacity="1" fill-rule="nonzero" stroke="none" stroke-linecap="butt" version="1.1" stroke-miterlimit="4" xmlns:xlink="http://www.w3.org/1999/xlink" stroke-linejoin="miter" fill-opacity="1" fill="#000000" stroke-width="1px" stroke-dasharray="none" d="M23.771,94.565L23.771,72.588C23.771,68.901,25.231,65.386,27.83,62.788L34.586,56.031L48.693,70.138C50.228,71.673,52.752,71.673,54.287,70.138C55.821,68.604,55.821,66.079,54.287,64.545L40.18,50.438L50.426,40.192L64.533,54.299C66.067,55.833,68.591,55.833,70.126,54.299C71.66,52.765,71.66,50.24,70.126,48.706L56.019,34.599L66.265,24.353L80.372,38.46C81.906,39.994,84.431,39.994,85.965,38.46C87.499,36.925,87.499,34.401,85.965,32.866L71.858,18.76L83.119,7.499C87.92,2.698,94.404,0,101.185,0C115.292,0,126.726,11.434,126.726,25.541C126.726,32.322,124.029,38.806,119.252,43.607L63.939,98.896C61.34,101.495,57.826,102.955,54.138,102.955L32.161,102.955L10.159,124.982C7.833,127.308,4.071,127.308,1.77,124.982C-0.532,122.655,-0.557,118.894,1.77,116.592L23.796,94.565L23.771,94.565ZM23.771,94.565"/>
</g>
  <g id="Light-M" transform="matrix(1.0,0.0,0.0,1.0,1091.0567257756295,1027.4067453068794)">  <path xmlns:xlink="http://www.w3.org/1999/xlink" stroke="none" stroke-linejoin="miter" stroke-dasharray="none" fill-opacity="1" stroke-linecap="butt" stroke-miterlimit="4" stroke-opacity="1" version="1.1" fill="#000000" stroke-width="1px" fill-rule="nonzero" d="M23.771,94.565L23.771,72.588C23.771,68.901,25.231,65.386,27.83,62.788L34.586,56.031L48.693,70.138C50.228,71.673,52.752,71.673,54.287,70.138C55.821,68.604,55.821,66.079,54.287,64.545L40.18,50.438L50.426,40.192L64.533,54.299C66.067,55.833,68.591,55.833,70.126,54.299C71.66,52.765,71.66,50.24,70.126,48.706L56.019,34.599L66.265,24.353L80.372,38.46C81.906,39.994,84.431,39.994,85.965,38.46C87.499,36.925,87.499,34.401,85.965,32.866L71.858,18.76L83.119,7.499C87.92,2.698,94.404,0,101.185,0C115.292,0,126.726,11.434,126.726,25.541C126.726,32.322,124.029,38.806,119.252,43.607L63.939,98.896C61.34,101.495,57.826,102.955,54.138,102.955L32.161,102.955L10.159,124.982C7.833,127.308,4.071,127.308,1.77,124.982C-0.532,122.655,-0.557,118.894,1.77,116.592L23.796,94.565L23.771,94.565ZM23.771,94.565"/>
</g>
  <g id="Thin-M" transform="matrix(1.0,0.0,0.0,1.0,794.3467257756296,1027.4067453068794)">  <path stroke-dasharray="none" stroke-linecap="butt" fill="#000000" fill-opacity="1" fill-rule="nonzero" stroke="none" stroke-width="1px" xmlns:xlink="http://www.w3.org/1999/xlink" stroke-linejoin="miter" version="1.1" stroke-opacity="1" stroke-miterlimit="4" d="M23.771,94.565L23.771,72.588C23.771,68.901,25.231,65.386,27.83,62.788L34.586,56.031L48.693,70.138C50.228,71.673,52.752,71.673,54.287,70.138C55.821,68.604,55.821,66.079,54.287,64.545L40.18,50.438L50.426,40.192L64.533,54.299C66.067,55.833,68.591,55.833,70.126,54.299C71.66,52.765,71.66,50.24,70.126,48.706L56.019,34.599L66.265,24.353L80.372,38.46C81.906,39.994,84.431,39.994,85.965,38.46C87.499,36.925,87.499,34.401,85.965,32.866L71.858,18.76L83.119,7.499C87.92,2.698,94.404,0,101.185,0C115.292,0,126.726,11.434,126.726,25.541C126.726,32.322,124.029,38.806,119.252,43.607L63.939,98.896C61.34,101.495,57.826,102.955,54.138,102.955L32.161,102.955L10.159,124.982C7.833,127.308,4.071,127.308,1.77,124.982C-0.532,122.655,-0.557,118.894,1.77,116.592L23.796,94.565L23.771,94.565ZM23.771,94.565"/>
</g>
  <g id="Ultralight-M" transform="matrix(1.0,0.0,0.0,1.0,497.6367257756295,1027.4067453068794)">  <path stroke-opacity="1" stroke-width="1px" stroke-miterlimit="4" xmlns:xlink="http://www.w3.org/1999/xlink" fill-rule="nonzero" fill="#000000" stroke="none" stroke-linecap="butt" stroke-dasharray="none" stroke-linejoin="miter" version="1.1" fill-opacity="1" d="M23.771,94.565L23.771,72.588C23.771,68.901,25.231,65.386,27.83,62.788L34.586,56.031L48.693,70.138C50.228,71.673,52.752,71.673,54.287,70.138C55.821,68.604,55.821,66.079,54.287,64.545L40.18,50.438L50.426,40.192L64.533,54.299C66.067,55.833,68.591,55.833,70.126,54.299C71.66,52.765,71.66,50.24,70.126,48.706L56.019,34.599L66.265,24.353L80.372,38.46C81.906,39.994,84.431,39.994,85.965,38.46C87.499,36.925,87.499,34.401,85.965,32.866L71.858,18.76L83.119,7.499C87.92,2.698,94.404,0,101.185,0C115.292,0,126.726,11.434,126.726,25.541C126.726,32.322,124.029,38.806,119.252,43.607L63.939,98.896C61.34,101.495,57.826,102.955,54.138,102.955L32.161,102.955L10.159,124.982C7.833,127.308,4.071,127.308,1.77,124.982C-0.532,122.655,-0.557,118.894,1.77,116.592L23.796,94.565L23.771,94.565ZM23.771,94.565"/>
</g>
  <g id="Black-S" transform="matrix(1.0,0.0,0.0,1.0,2885.066556282318,611.1565758135679)">  <path stroke="none" stroke-dasharray="none" stroke-opacity="1" fill-opacity="1" stroke-linejoin="miter" stroke-linecap="butt" xmlns:xlink="http://www.w3.org/1999/xlink" fill-rule="nonzero" stroke-width="1px" stroke-miterlimit="4" fill="#000000" version="1.1" d="M18.613,74.045L18.613,56.837C18.613,53.949,19.756,51.198,21.791,49.163L27.081,43.873L38.127,54.918C39.328,56.12,41.305,56.12,42.506,54.918C43.708,53.717,43.708,51.74,42.506,50.539L31.461,39.493L39.483,31.47L50.529,42.516C51.73,43.718,53.707,43.718,54.908,42.516C56.11,41.315,56.11,39.338,54.908,38.137L43.863,27.091L51.885,19.068L62.931,30.114C64.133,31.315,66.109,31.315,67.311,30.114C68.512,28.913,68.512,26.936,67.311,25.734L56.265,14.689L65.082,5.872C68.841,2.112,73.919,0,79.228,0C90.274,0,99.227,8.953,99.227,19.998C99.227,25.308,97.114,30.385,93.374,34.145L50.064,77.436C48.029,79.471,45.277,80.614,42.39,80.614L25.182,80.614L7.955,97.861C6.133,99.682,3.188,99.682,1.386,97.861C-0.417,96.039,-0.436,93.094,1.386,91.291L18.632,74.045L18.613,74.045ZM18.613,74.045"/>
</g>
  <g id="Heavy-S" transform="matrix(1.0,0.0,0.0,1.0,2588.356556282318,611.1565758135679)">  <path stroke-width="1px" stroke-opacity="1" stroke-miterlimit="4" version="1.1" stroke-dasharray="none" xmlns:xlink="http://www.w3.org/1999/xlink" fill-rule="nonzero" stroke-linecap="butt" stroke-linejoin="miter" fill-opacity="1" fill="#000000" stroke="none" d="M18.613,74.045L18.613,56.837C18.613,53.949,19.756,51.198,21.791,49.163L27.081,43.873L38.127,54.918C39.328,56.12,41.305,56.12,42.506,54.918C43.708,53.717,43.708,51.74,42.506,50.539L31.461,39.493L39.483,31.47L50.529,42.516C51.73,43.718,53.707,43.718,54.908,42.516C56.11,41.315,56.11,39.338,54.908,38.137L43.863,27.091L51.885,19.068L62.931,30.114C64.133,31.315,66.109,31.315,67.311,30.114C68.512,28.913,68.512,26.936,67.311,25.734L56.265,14.689L65.082,5.872C68.841,2.112,73.919,0,79.228,0C90.274,0,99.227,8.953,99.227,19.998C99.227,25.308,97.114,30.385,93.374,34.145L50.064,77.436C48.029,79.471,45.277,80.614,42.39,80.614L25.182,80.614L7.955,97.861C6.133,99.682,3.188,99.682,1.386,97.861C-0.417,96.039,-0.436,93.094,1.386,91.291L18.632,74.045L18.613,74.045ZM18.613,74.045"/>
</g>
  <g id="Bold-S" transform="matrix(1.0,0.0,0.0,1.0,2291.6465562823178,611.1565758135679)">  <path stroke-dasharray="none" fill-opacity="1" fill-rule="nonzero" stroke-width="1px" fill="#000000" stroke-miterlimit="4" version="1.1" stroke-opacity="1" stroke="none" xmlns:xlink="http://www.w3.org/1999/xlink" stroke-linejoin="miter" stroke-linecap="butt" d="M18.613,74.045L18.613,56.837C18.613,53.949,19.756,51.198,21.791,49.163L27.081,43.873L38.127,54.918C39.328,56.12,41.305,56.12,42.506,54.918C43.708,53.717,43.708,51.74,42.506,50.539L31.461,39.493L39.483,31.47L50.529,42.516C51.73,43.718,53.707,43.718,54.908,42.516C56.11,41.315,56.11,39.338,54.908,38.137L43.863,27.091L51.885,19.068L62.931,30.114C64.133,31.315,66.109,31.315,67.311,30.114C68.512,28.913,68.512,26.936,67.311,25.734L56.265,14.689L65.082,5.872C68.841,2.112,73.919,0,79.228,0C90.274,0,99.227,8.953,99.227,19.998C99.227,25.308,97.114,30.385,93.374,34.145L50.064,77.436C48.029,79.471,45.277,80.614,42.39,80.614L25.182,80.614L7.955,97.861C6.133,99.682,3.188,99.682,1.386,97.861C-0.417,96.039,-0.436,93.094,1.386,91.291L18.632,74.045L18.613,74.045ZM18.613,74.045"/>
</g>
  <g id="Semibold-S" transform="matrix(1.0,0.0,0.0,1.0,1994.936556282318,611.1565758135679)">  <path xmlns:xlink="http://www.w3.org/1999/xlink" stroke="none" fill="#000000" fill-rule="nonzero" stroke-linejoin="miter" stroke-miterlimit="4" stroke-linecap="butt" fill-opacity="1" stroke-dasharray="none" version="1.1" stroke-width="1px" stroke-opacity="1" d="M18.613,74.045L18.613,56.837C18.613,53.949,19.756,51.198,21.791,49.163L27.081,43.873L38.127,54.918C39.328,56.12,41.305,56.12,42.506,54.918C43.708,53.717,43.708,51.74,42.506,50.539L31.461,39.493L39.483,31.47L50.529,42.516C51.73,43.718,53.707,43.718,54.908,42.516C56.11,41.315,56.11,39.338,54.908,38.137L43.863,27.091L51.885,19.068L62.931,30.114C64.133,31.315,66.109,31.315,67.311,30.114C68.512,28.913,68.512,26.936,67.311,25.734L56.265,14.689L65.082,5.872C68.841,2.112,73.919,0,79.228,0C90.274,0,99.227,8.953,99.227,19.998C99.227,25.308,97.114,30.385,93.374,34.145L50.064,77.436C48.029,79.471,45.277,80.614,42.39,80.614L25.182,80.614L7.955,97.861C6.133,99.682,3.188,99.682,1.386,97.861C-0.417,96.039,-0.436,93.094,1.386,91.291L18.632,74.045L18.613,74.045ZM18.613,74.045"/>
</g>
  <g id="Medium-S" transform="matrix(1.0,0.0,0.0,1.0,1698.226556282318,611.1565758135679)">  <path stroke-dasharray="none" fill="#000000" stroke-miterlimit="4" stroke-width="1px" version="1.1" fill-rule="nonzero" fill-opacity="1" stroke-opacity="1" stroke-linejoin="miter" xmlns:xlink="http://www.w3.org/1999/xlink" stroke-linecap="butt" stroke="none" d="M18.613,74.045L18.613,56.837C18.613,53.949,19.756,51.198,21.791,49.163L27.081,43.873L38.127,54.918C39.328,56.12,41.305,56.12,42.506,54.918C43.708,53.717,43.708,51.74,42.506,50.539L31.461,39.493L39.483,31.47L50.529,42.516C51.73,43.718,53.707,43.718,54.908,42.516C56.11,41.315,56.11,39.338,54.908,38.137L43.863,27.091L51.885,19.068L62.931,30.114C64.133,31.315,66.109,31.315,67.311,30.114C68.512,28.913,68.512,26.936,67.311,25.734L56.265,14.689L65.082,5.872C68.841,2.112,73.919,0,79.228,0C90.274,0,99.227,8.953,99.227,19.998C99.227,25.308,97.114,30.385,93.374,34.145L50.064,77.436C48.029,79.471,45.277,80.614,42.39,80.614L25.182,80.614L7.955,97.861C6.133,99.682,3.188,99.682,1.386,97.861C-0.417,96.039,-0.436,93.094,1.386,91.291L18.632,74.045L18.613,74.045ZM18.613,74.045"/>
</g>
  <g id="Regular-S" transform="matrix(1.0,0.0,0.0,1.0,1401.5165562823179,611.1565758135679)">  <path stroke-opacity="1" fill-rule="nonzero" stroke="none" stroke-linecap="butt" version="1.1" stroke-miterlimit="4" xmlns:xlink="http://www.w3.org/1999/xlink" stroke-linejoin="miter" fill-opacity="1" fill="#000000" stroke-width="1px" stroke-dasharray="none" d="M18.613,74.045L18.613,56.837C18.613,53.949,19.756,51.198,21.791,49.163L27.081,43.873L38.127,54.918C39.328,56.12,41.305,56.12,42.506,54.918C43.708,53.717,43.708,51.74,42.506,50.539L31.461,39.493L39.483,31.47L50.529,42.516C51.73,43.718,53.707,43.718,54.908,42.516C56.11,41.315,56.11,39.338,54.908,38.137L43.863,27.091L51.885,19.068L62.931,30.114C64.133,31.315,66.109,31.315,67.311,30.114C68.512,28.913,68.512,26.936,67.311,25.734L56.265,14.689L65.082,5.872C68.841,2.112,73.919,0,79.228,0C90.274,0,99.227,8.953,99.227,19.998C99.227,25.308,97.114,30.385,93.374,34.145L50.064,77.436C48.029,79.471,45.277,80.614,42.39,80.614L25.182,80.614L7.955,97.861C6.133,99.682,3.188,99.682,1.386,97.861C-0.417,96.039,-0.436,93.094,1.386,91.291L18.632,74.045L18.613,74.045ZM18.613,74.045"/>
</g>
  <g id="Light-S" transform="matrix(1.0,0.0,0.0,1.0,1104.806556282318,611.1565758135679)">  <path xmlns:xlink="http://www.w3.org/1999/xlink" stroke="none" stroke-linejoin="miter" stroke-dasharray="none" fill-opacity="1" stroke-linecap="butt" stroke-miterlimit="4" stroke-opacity="1" version="1.1" fill="#000000" stroke-width="1px" fill-rule="nonzero" d="M18.613,74.045L18.613,56.837C18.613,53.949,19.756,51.198,21.791,49.163L27.081,43.873L38.127,54.918C39.328,56.12,41.305,56.12,42.506,54.918C43.708,53.717,43.708,51.74,42.506,50.539L31.461,39.493L39.483,31.47L50.529,42.516C51.73,43.718,53.707,43.718,54.908,42.516C56.11,41.315,56.11,39.338,54.908,38.137L43.863,27.091L51.885,19.068L62.931,30.114C64.133,31.315,66.109,31.315,67.311,30.114C68.512,28.913,68.512,26.936,67.311,25.734L56.265,14.689L65.082,5.872C68.841,2.112,73.919,0,79.228,0C90.274,0,99.227,8.953,99.227,19.998C99.227,25.308,97.114,30.385,93.374,34.145L50.064,77.436C48.029,79.471,45.277,80.614,42.39,80.614L25.182,80.614L7.955,97.861C6.133,99.682,3.188,99.682,1.386,97.861C-0.417,96.039,-0.436,93.094,1.386,91.291L18.632,74.045L18.613,74.045ZM18.613,74.045"/>
</g>
  <g id="Thin-S" transform="matrix(1.0,0.0,0.0,1.0,808.0965562823179,611.1565758135679)">  <path stroke-dasharray="none" stroke-linecap="butt" fill="#000000" fill-opacity="1" fill-rule="nonzero" stroke="none" stroke-width="1px" xmlns:xlink="http://www.w3.org/1999/xlink" stroke-linejoin="miter" version="1.1" stroke-opacity="1" stroke-miterlimit="4" d="M18.613,74.045L18.613,56.837C18.613,53.949,19.756,51.198,21.791,49.163L27.081,43.873L38.127,54.918C39.328,56.12,41.305,56.12,42.506,54.918C43.708,53.717,43.708,51.74,42.506,50.539L31.461,39.493L39.483,31.47L50.529,42.516C51.73,43.718,53.707,43.718,54.908,42.516C56.11,41.315,56.11,39.338,54.908,38.137L43.863,27.091L51.885,19.068L62.931,30.114C64.133,31.315,66.109,31.315,67.311,30.114C68.512,28.913,68.512,26.936,67.311,25.734L56.265,14.689L65.082,5.872C68.841,2.112,73.919,0,79.228,0C90.274,0,99.227,8.953,99.227,19.998C99.227,25.308,97.114,30.385,93.374,34.145L50.064,77.436C48.029,79.471,45.277,80.614,42.39,80.614L25.182,80.614L7.955,97.861C6.133,99.682,3.188,99.682,1.386,97.861C-0.417,96.039,-0.436,93.094,1.386,91.291L18.632,74.045L18.613,74.045ZM18.613,74.045"/>
</g>
  <g id="Ultralight-S" transform="matrix(1.0,0.0,0.0,1.0,511.3865562823179,611.1565758135679)">  <path stroke-opacity="1" stroke-width="1px" stroke-miterlimit="4" xmlns:xlink="http://www.w3.org/1999/xlink" fill-rule="nonzero" fill="#000000" stroke="none" stroke-linecap="butt" stroke-dasharray="none" stroke-linejoin="miter" version="1.1" fill-opacity="1" d="M18.613,74.045L18.613,56.837C18.613,53.949,19.756,51.198,21.791,49.163L27.081,43.873L38.127,54.918C39.328,56.12,41.305,56.12,42.506,54.918C43.708,53.717,43.708,51.74,42.506,50.539L31.461,39.493L39.483,31.47L50.529,42.516C51.73,43.718,53.707,43.718,54.908,42.516C56.11,41.315,56.11,39.338,54.908,38.137L43.863,27.091L51.885,19.068L62.931,30.114C64.133,31.315,66.109,31.315,67.311,30.114C68.512,28.913,68.512,26.936,67.311,25.734L56.265,14.689L65.082,5.872C68.841,2.112,73.919,0,79.228,0C90.274,0,99.227,8.953,99.227,19.998C99.227,25.308,97.114,30.385,93.374,34.145L50.064,77.436C48.029,79.471,45.277,80.614,42.39,80.614L25.182,80.614L7.955,97.861C6.133,99.682,3.188,99.682,1.386,97.861C-0.417,96.039,-0.436,93.094,1.386,91.291L18.632,74.045L18.613,74.045ZM18.613,74.045"/>
</g>
 </g>
</svg>
