<?xml version="1.0" encoding="UTF-8"?>
<!-- Generator: CustomSymbols v2.7.2.48 by @serious_bret https://bretlester.com/app_content/CustomSymbols/ -->
<!-- Guides: Left/Right 0.11/0.11 Cap/Base 0.222/0.222 -->
<!-- Settings: RefScale 1.0 Min/Max Stroke Scales 0.5/2.21 -->
<!DOCTYPE svg
PUBLIC "-//W3C//DTD SVG 1.1//EN"
       "http://www.w3.org/Graphics/SVG/1.1/DTD/svg11.dtd">
<svg version="1.1" xmlns="http://www.w3.org/2000/svg" xmlns:xlink="http://www.w3.org/1999/xlink" width="3300" height="2200">
<![CDATA[<?xml version="1.0" encoding="UTF-8"?>
<svg width="96px" height="96px" viewBox="0 0 96 96" version="1.1" xmlns="http://www.w3.org/2000/svg" xmlns:xlink="http://www.w3.org/1999/xlink">
    <title>icon/medical/capsule</title>
    <g id="icon/medical/capsule" stroke="none" stroke-width="1" fill="none" fill-rule="evenodd">
        <path d="M96,28.4592969 C95.8948342,36.124051 93.0248706,42.8798564 87.4167251,48.4688214 C74.5138887,61.3258845 61.6145433,74.1864386 48.6929433,87.0212471 C42.2168706,93.4515241 34.3736706,96.3655706 25.2834306,95.3745853 C16.3433869,94.4019274 9.37164875,89.9915847 4.46591784,82.4760675 C0.807270564,76.8727025 -0.556278527,70.6667172 0.202470564,64.0413849 C0.965016019,57.4055799 3.87241966,51.7716693 8.6053942,47.0584892 C21.4933069,34.2310989 34.3701797,21.3928868 47.2655978,8.57322016 C53.7377433,2.13905949 61.5695978,-0.78999802 70.663416,0.182616288 C79.5700342,1.13651053 86.5191251,5.52446769 91.4622524,12.9648864 C94.5237797,17.5735134 95.9323615,22.7096187 96,28.4627879 L96,28.4592969 Z M63.5380342,59.934316 C63.5677069,59.9081341 63.6920706,59.8182429 63.7972342,59.7135153 C69.6754887,53.8592402 75.6069797,48.0534018 81.4215251,42.1393447 C88.6337433,34.7996827 89.3362887,24.1274127 83.0142524,16.1483012 C78.4167251,10.3500555 72.2413069,7.98591629 64.8637069,8.89115582 C60.281016,9.45603052 56.498616,11.6182199 53.2717069,14.846493 C47.6487251,20.4726363 42.0065433,26.0763504 36.3647978,31.6835991 C36.146616,31.900909 35.8573069,32.0505822 35.6622524,32.1849827 C45.0379615,41.5183971 54.2709797,50.7056292 63.5380342,59.9303887 L63.5380342,59.934316 Z M8.74437602,66.5552846 C8.75938693,66.8171037 8.72556875,67.3224146 8.8194742,67.8050344 C9.08617966,69.2114394 10.7201869,69.9222782 11.9635178,69.2040212 C12.8951106,68.6651102 13.075416,67.7788525 13.1091906,66.8096855 C13.2481724,63.1289454 14.4764924,59.8404975 17.0458451,57.1921974 C21.3430669,52.7670182 25.7530015,48.4500577 30.1064706,44.0807333 C30.4110524,43.7739686 30.7186887,43.4523675 30.9442887,43.0858208 C31.5604342,42.0904718 31.2597797,40.8786858 30.2792706,40.2315563 C29.3101069,39.5918449 28.2510524,39.7864638 27.1915615,40.8376675 C22.9920851,45.0084457 18.785016,49.175733 14.6079687,53.3692022 C11.0357215,56.9526329 9.04110329,61.254757 8.74437602,66.5552846 Z" id="Shape" fill="#FB4C6C" fill-rule="nonzero"></path>
    </g>
</svg>]]>
 <g id="Notes">
  <rect height="2200" id="artboard" style="fill:white;opacity:1" width="3300" x="0" y="0"/>
  <line id="" style="fill:none;stroke:black;opacity:1;stroke-width:0.5;" x1="263" x2="3036" y1="292" y2="292"/>
  <text id="reftext1" style="stroke:none;fill:black;font-family:-apple-system,&quot;SF Pro Display&quot;,&quot;SF Pro Text&quot;,Helvetica,sans-serif;font-weight:bold;" transform="matrix(1 0 0 1 263 322)">Weight/Scale Variations</text>
  <text id="reftext2" style="stroke:none;fill:black;font-family:-apple-system,&quot;SF Pro Display&quot;,&quot;SF Pro Text&quot;,Helvetica,sans-serif;text-anchor:middle;" transform="matrix(1 0 0 1 559.711 322)">Ultralight</text>
  <text style="stroke:none;fill:black;font-family:-apple-system,&quot;SF Pro Display&quot;,&quot;SF Pro Text&quot;,Helvetica,sans-serif;text-anchor:middle;" transform="matrix(1 0 0 1 856.422 322)">Thin</text>
  <text style="stroke:none;fill:black;font-family:-apple-system,&quot;SF Pro Display&quot;,&quot;SF Pro Text&quot;,Helvetica,sans-serif;text-anchor:middle;" transform="matrix(1 0 0 1 1153.13 322)">Light</text>
  <text style="stroke:none;fill:black;font-family:-apple-system,&quot;SF Pro Display&quot;,&quot;SF Pro Text&quot;,Helvetica,sans-serif;text-anchor:middle;" transform="matrix(1 0 0 1 1449.84 322)">Regular</text>
  <text style="stroke:none;fill:black;font-family:-apple-system,&quot;SF Pro Display&quot;,&quot;SF Pro Text&quot;,Helvetica,sans-serif;text-anchor:middle;" transform="matrix(1 0 0 1 1746.56 322)">Medium</text>
  <text style="stroke:none;fill:black;font-family:-apple-system,&quot;SF Pro Display&quot;,&quot;SF Pro Text&quot;,Helvetica,sans-serif;text-anchor:middle;" transform="matrix(1 0 0 1 2043.27 322)">Semibold</text>
  <text style="stroke:none;fill:black;font-family:-apple-system,&quot;SF Pro Display&quot;,&quot;SF Pro Text&quot;,Helvetica,sans-serif;text-anchor:middle;" transform="matrix(1 0 0 1 2339.98 322)">Bold</text>
  <text style="stroke:none;fill:black;font-family:-apple-system,&quot;SF Pro Display&quot;,&quot;SF Pro Text&quot;,Helvetica,sans-serif;text-anchor:middle;" transform="matrix(1 0 0 1 2636.69 322)">Heavy</text>
  <text style="stroke:none;fill:black;font-family:-apple-system,&quot;SF Pro Display&quot;,&quot;SF Pro Text&quot;,Helvetica,sans-serif;text-anchor:middle;" transform="matrix(1 0 0 1 2933.4 322)">Black</text>
  <line id="" style="fill:none;stroke:black;opacity:1;stroke-width:0.5;" x1="263" x2="3036" y1="1903" y2="1903"/>
  <g id="" transform="matrix(1 0 0 1 263 1933)">
   <path d="M9.24805 0.830078C13.5547 0.830078 17.1387-2.74414 17.1387-7.05078C17.1387-11.3574 13.5449-14.9316 9.23828-14.9316C4.94141-14.9316 1.36719-11.3574 1.36719-7.05078C1.36719-2.74414 4.95117 0.830078 9.24805 0.830078ZM9.24805-0.654297C5.70312-0.654297 2.87109-3.49609 2.87109-7.05078C2.87109-10.6055 5.69336-13.4473 9.23828-13.4473C12.793-13.4473 15.6348-10.6055 15.6445-7.05078C15.6543-3.49609 12.8027-0.654297 9.24805-0.654297ZM6.39648-6.31836L8.50586-6.31836L8.50586-4.19922C8.50586-3.75977 8.79883-3.45703 9.22852-3.45703C9.67773-3.45703 9.9707-3.75977 9.9707-4.19922L9.9707-6.31836L12.0996-6.31836C12.5391-6.31836 12.8418-6.61133 12.8418-7.04102C12.8418-7.48047 12.5391-7.7832 12.0996-7.7832L9.9707-7.7832L9.9707-9.89258C9.9707-10.3418 9.67773-10.6445 9.22852-10.6445C8.79883-10.6445 8.50586-10.3418 8.50586-9.89258L8.50586-7.7832L6.39648-7.7832C5.94727-7.7832 5.64453-7.48047 5.64453-7.04102C5.64453-6.61133 5.94727-6.31836 6.39648-6.31836Z"/>
  </g>
  <g id="" transform="matrix(1 0 0 1 281.506 1933)">
   <path d="M11.709 2.91016C17.1582 2.91016 21.6699-1.61133 21.6699-7.05078C21.6699-12.5 17.1484-17.0117 11.6992-17.0117C6.25977-17.0117 1.74805-12.5 1.74805-7.05078C1.74805-1.61133 6.26953 2.91016 11.709 2.91016ZM11.709 1.25C7.09961 1.25 3.41797-2.44141 3.41797-7.05078C3.41797-11.6602 7.08984-15.3516 11.6992-15.3516C16.3086-15.3516 20-11.6602 20.0098-7.05078C20.0195-2.44141 16.3184 1.25 11.709 1.25ZM7.98828-6.23047L10.8789-6.23047L10.8789-3.32031C10.8789-2.83203 11.2109-2.5 11.6895-2.5C12.1777-2.5 12.5195-2.83203 12.5195-3.32031L12.5195-6.23047L15.4297-6.23047C15.918-6.23047 16.25-6.5625 16.25-7.04102C16.25-7.5293 15.918-7.87109 15.4297-7.87109L12.5195-7.87109L12.5195-10.7617C12.5195-11.2695 12.1777-11.6016 11.6895-11.6016C11.2109-11.6016 10.8789-11.2598 10.8789-10.7617L10.8789-7.87109L7.98828-7.87109C7.48047-7.87109 7.14844-7.5293 7.14844-7.04102C7.14844-6.5625 7.49023-6.23047 7.98828-6.23047Z"/>
  </g>
  <g id="" transform="matrix(1 0 0 1 304.924 1933)">
   <path d="M14.9707 5.66406C21.9336 5.66406 27.6953-0.0976562 27.6953-7.05078C27.6953-14.0137 21.9238-19.7754 14.9609-19.7754C8.00781-19.7754 2.25586-14.0137 2.25586-7.05078C2.25586-0.0976562 8.01758 5.66406 14.9707 5.66406ZM14.9707 3.84766C8.93555 3.84766 4.08203-1.01562 4.08203-7.05078C4.08203-13.0957 8.92578-17.9492 14.9609-17.9492C21.0059-17.9492 25.8594-13.0957 25.8691-7.05078C25.8789-1.01562 21.0156 3.84766 14.9707 3.84766ZM10.0586-6.14258L14.0625-6.14258L14.0625-2.12891C14.0625-1.5918 14.4336-1.2207 14.9512-1.2207C15.4883-1.2207 15.8594-1.5918 15.8594-2.12891L15.8594-6.14258L19.8828-6.14258C20.4102-6.14258 20.791-6.51367 20.791-7.03125C20.791-7.56836 20.4199-7.94922 19.8828-7.94922L15.8594-7.94922L15.8594-11.9531C15.8594-12.5098 15.4883-12.8809 14.9512-12.8809C14.4336-12.8809 14.0625-12.5 14.0625-11.9531L14.0625-7.94922L10.0586-7.94922C9.50195-7.94922 9.13086-7.56836 9.13086-7.03125C9.13086-6.51367 9.51172-6.14258 10.0586-6.14258Z"/>
  </g>
  <text style="stroke:none;fill:black;font-family:-apple-system,&quot;SF Pro Display&quot;,&quot;SF Pro Text&quot;,Helvetica,sans-serif;font-weight:bold;" transform="matrix(1 0 0 1 263 1953)">Design Variations</text>
  <text style="stroke:none;fill:black;font-family:-apple-system,&quot;SF Pro Display&quot;,&quot;SF Pro Text&quot;,Helvetica,sans-serif;" transform="matrix(1 0 0 1 263 1971)">Symbols are supported in up to nine weights and three scales.</text>
  <text style="stroke:none;fill:black;font-family:-apple-system,&quot;SF Pro Display&quot;,&quot;SF Pro Text&quot;,Helvetica,sans-serif;" transform="matrix(1 0 0 1 263 1989)">For optimal layout with text and other symbols, vertically align</text>
  <text style="stroke:none;fill:black;font-family:-apple-system,&quot;SF Pro Display&quot;,&quot;SF Pro Text&quot;,Helvetica,sans-serif;" transform="matrix(1 0 0 1 263 2007)">symbols with the adjacent text.</text>
  <line id="" style="fill:none;stroke:#00AEEF;stroke-width:0.5;opacity:1.0;" x1="776" x2="776" y1="1919" y2="1933"/>
  <g id="" transform="matrix(1 0 0 1 776 1933)">
   <path d="M3.31055 0.126953C3.82812 0.126953 4.08203-0.0683594 4.26758-0.605469L5.52734-4.0625L11.2891-4.0625L12.5488-0.605469C12.7344-0.0683594 12.9883 0.126953 13.4961 0.126953C14.0137 0.126953 14.3457-0.185547 14.3457-0.673828C14.3457-0.839844 14.3164-0.986328 14.2383-1.20117L9.6582-13.3887C9.43359-13.9941 9.0332-14.2871 8.4082-14.2871C7.80273-14.2871 7.39258-13.9941 7.17773-13.3984L2.59766-1.19141C2.51953-0.976562 2.49023-0.830078 2.49023-0.664062C2.49023-0.175781 2.80273 0.126953 3.31055 0.126953ZM6.00586-5.53711L8.37891-12.1094L8.42773-12.1094L10.8008-5.53711Z"/>
  </g>
  <line id="" style="fill:none;stroke:#00AEEF;stroke-width:0.5;opacity:1.0;" x1="792.836" x2="792.836" y1="1919" y2="1933"/>
  <text style="stroke:none;fill:black;font-family:-apple-system,&quot;SF Pro Display&quot;,&quot;SF Pro Text&quot;,Helvetica,sans-serif;font-weight:bold;" transform="matrix(1 0 0 1 776 1953)">Margins</text>
  <text style="stroke:none;fill:black;font-family:-apple-system,&quot;SF Pro Display&quot;,&quot;SF Pro Text&quot;,Helvetica,sans-serif;" transform="matrix(1 0 0 1 776 1971)">Leading and trailing margins on the left and right side of each symbol</text>
  <text style="stroke:none;fill:black;font-family:-apple-system,&quot;SF Pro Display&quot;,&quot;SF Pro Text&quot;,Helvetica,sans-serif;" transform="matrix(1 0 0 1 776 1989)">can be adjusted by modifying the x-location of the margin guidelines.</text>
  <text style="stroke:none;fill:black;font-family:-apple-system,&quot;SF Pro Display&quot;,&quot;SF Pro Text&quot;,Helvetica,sans-serif;" transform="matrix(1 0 0 1 776 2007)">Modifications are automatically applied proportionally to all</text>
  <text style="stroke:none;fill:black;font-family:-apple-system,&quot;SF Pro Display&quot;,&quot;SF Pro Text&quot;,Helvetica,sans-serif;" transform="matrix(1 0 0 1 776 2025)">scales and weights.</text>
  <g id="" transform="matrix(1 0 0 1 1289 1933)">
   <path d="M2.8418 1.86523L4.54102 3.57422C5.40039 4.44336 6.38672 4.38477 7.31445 3.35938L17.4902-7.85156C17.7539-7.76367 18.0273-7.7832 18.3398-7.8418L19.4043-8.03711L20.0684-7.36328L20.0293-6.80664C19.9902-6.30859 20.1172-5.92773 20.6055-5.44922L21.3672-4.70703C21.8457-4.22852 22.4609-4.19922 22.9297-4.66797L25.8398-7.58789C26.3086-8.05664 26.2891-8.65234 25.8105-9.13086L25.0391-9.89258C24.5605-10.3711 24.1895-10.5273 23.7109-10.4883L23.1348-10.4395L22.4902-11.0742L22.7344-12.1973C22.8613-12.7637 22.7051-13.2031 22.1191-13.7891L19.9219-15.9766C16.582-19.2969 12.1484-19.2188 9.25781-16.3281C8.83789-15.918 8.80859-15.3418 9.04297-14.9512C9.27734-14.5898 9.73633-14.3555 10.3809-14.5215C11.8457-14.8633 13.3691-14.9219 14.7949-13.9844L14.209-12.5293C14.0137-12.0508 13.9844-11.6504 14.1113-11.2891L3.04688-0.898438C2.06055 0.0195312 1.98242 0.996094 2.8418 1.86523ZM10.752-15.957C13.1836-17.7344 16.4746-17.4316 18.7012-15.2051L21.1328-12.793C21.3672-12.5586 21.4062-12.373 21.3379-12.0312L21.0156-10.5469L22.5195-9.0625L23.5059-9.12109C23.7598-9.13086 23.8379-9.11133 24.0332-8.91602L24.6094-8.33984L22.168-5.89844L21.5918-6.47461C21.3965-6.66992 21.3672-6.74805 21.377-7.01172L21.4453-7.98828L19.9512-9.47266L18.4277-9.21875C18.1055-9.15039 17.959-9.17969 17.7148-9.41406L15.7129-11.416C15.459-11.6504 15.4297-11.8164 15.5859-12.1875L16.4648-14.2773C14.9023-15.7324 12.8711-16.3574 10.8398-15.7617C10.6836-15.7227 10.625-15.8496 10.752-15.957ZM5.27344 2.30469L4.10156 1.14258C3.63281 0.683594 3.74023 0.341797 4.14062-0.0195312L14.9512-10.1953L16.416-8.71094L6.42578 2.27539C6.07422 2.67578 5.74219 2.77344 5.27344 2.30469Z"/>
  </g>
  <text style="stroke:none;fill:black;font-family:-apple-system,&quot;SF Pro Display&quot;,&quot;SF Pro Text&quot;,Helvetica,sans-serif;font-weight:bold;" transform="matrix(1 0 0 1 1289 1953)">Exporting</text>
  <text style="stroke:none;fill:black;font-family:-apple-system,&quot;SF Pro Display&quot;,&quot;SF Pro Text&quot;,Helvetica,sans-serif;" transform="matrix(1 0 0 1 1289 1971)">Symbols should be outlined when exporting to ensure the</text>
  <text style="stroke:none;fill:black;font-family:-apple-system,&quot;SF Pro Display&quot;,&quot;SF Pro Text&quot;,Helvetica,sans-serif;" transform="matrix(1 0 0 1 1289 1989)">design is preserved when submitting to Xcode.</text>
  <text id="template-version" style="stroke:none;fill:black;font-family:-apple-system,&quot;SF Pro Display&quot;,&quot;SF Pro Text&quot;,Helvetica,sans-serif;text-anchor:end;" transform="matrix(1 0 0 1 3036 1933)">Template v.2.0</text>
  <text style="stroke:none;fill:black;font-family:-apple-system,&quot;SF Pro Display&quot;,&quot;SF Pro Text&quot;,Helvetica,sans-serif;text-anchor:end;" transform="matrix(1 0 0 1 3036 1951)">Requires Xcode 12 or greater</text>
  <text style="stroke:none;fill:black;font-family:-apple-system,&quot;SF Pro Display&quot;,&quot;SF Pro Text&quot;,Helvetica,sans-serif;" transform="matrix(1 0 0 1 263 726)">Small</text>
  <text style="stroke:none;fill:black;font-family:-apple-system,&quot;SF Pro Display&quot;,&quot;SF Pro Text&quot;,Helvetica,sans-serif;" transform="matrix(1 0 0 1 263 1156)">Medium</text>
  <text style="stroke:none;fill:black;font-family:-apple-system,&quot;SF Pro Display&quot;,&quot;SF Pro Text&quot;,Helvetica,sans-serif;" transform="matrix(1 0 0 1 263 1586)">Large</text>
 </g>
 <g id="Guides">
  <g id="H-reference" style="fill:#27AAE1;stroke:none;" transform="matrix(1 0 0 1 339 696)">
   <path d="M0.976562 0L3.66211 0L12.9883-24.4629L45.752-24.4629L55.127 0L57.7637 0L30.6152-70.459L28.125-70.459ZM29.3457-67.1387L29.4434-67.1387L44.873-26.709L13.8672-26.709Z"/>
  </g>
  <line id="Baseline-S" style="fill:none;stroke:#27AAE1;opacity:1;stroke-width:0.5;" x1="263" x2="3036" y1="696" y2="696"/>
  <line id="Capline-S" style="fill:none;stroke:#27AAE1;opacity:1;stroke-width:0.5;" x1="263" x2="3036" y1="625.541" y2="625.541"/>
  <g id="H-reference" style="fill:#27AAE1;stroke:none;" transform="matrix(1 0 0 1 339 1126)">
   <path d="M0.976562 0L3.66211 0L12.9883-24.4629L45.752-24.4629L55.127 0L57.7637 0L30.6152-70.459L28.125-70.459ZM29.3457-67.1387L29.4434-67.1387L44.873-26.709L13.8672-26.709Z"/>
  </g>
  <line id="Baseline-M" style="fill:none;stroke:#27AAE1;opacity:1;stroke-width:0.5;" x1="263" x2="3036" y1="1126" y2="1126"/>
  <line id="Capline-M" style="fill:none;stroke:#27AAE1;opacity:1;stroke-width:0.5;" x1="263" x2="3036" y1="1055.54" y2="1055.54"/>
  <g id="H-reference" style="fill:#27AAE1;stroke:none;" transform="matrix(1 0 0 1 339 1556)">
   <path d="M0.976562 0L3.66211 0L12.9883-24.4629L45.752-24.4629L55.127 0L57.7637 0L30.6152-70.459L28.125-70.459ZM29.3457-67.1387L29.4434-67.1387L44.873-26.709L13.8672-26.709Z"/>
  </g>
  <line id="Baseline-L" style="fill:none;stroke:#27AAE1;opacity:1;stroke-width:0.5;" x1="263" x2="3036" y1="1556" y2="1556"/>
  <line id="Capline-L" style="fill:none;stroke:#27AAE1;opacity:1;stroke-width:0.5;" x1="263" x2="3036" y1="1485.54" y2="1485.54"/>
  <line id="left-margin" x1="1401.7066461049908" x2="1401.7066461049908" y1="1030.79" y2="1150.12" style="fill:none;stroke:#00AEEF;stroke-width:0.5;opacity:1.0;"/>
  <line id="right-margin" x1="1500.553353895009" x2="1500.553353895009" y1="1030.79" y2="1150.12" style="fill:none;stroke:#00AEEF;stroke-width:0.5;opacity:1.0;"/>
 </g>
 <g id="Symbols">
  <g id="Black-L" transform="matrix(1.0,0.0,0.0,1.0,2852.941376250562,1439.031395781812)">  <path stroke-dasharray="none" stroke="none" version="1.1" stroke-linecap="butt" stroke-width="1px" stroke-miterlimit="4" fill-rule="nonzero" fill-opacity="1" stroke-opacity="1" stroke-linejoin="miter" fill="#000000" xmlns:xlink="http://www.w3.org/1999/xlink" d="M163.477,48.463C163.298,61.515,158.411,73.02,148.861,82.537C126.889,104.431,104.923,126.331,82.919,148.187C71.891,159.137,58.535,164.1,43.055,162.412C27.831,160.756,15.959,153.246,7.605,140.448C1.375,130.906,-0.947,120.338,0.345,109.055C1.643,97.755,6.594,88.161,14.654,80.135C36.601,58.292,58.529,36.43,80.488,14.599C91.509,3.643,104.846,-1.345,120.332,0.311C135.499,1.935,147.332,9.408,155.75,22.078C160.963,29.926,163.362,38.672,163.477,48.469L163.477,48.463ZM108.198,102.061C108.249,102.017,108.46,101.864,108.64,101.685C118.65,91.716,128.75,81.83,138.652,71.759C150.933,59.26,152.13,41.086,141.364,27.499C133.535,17.625,123.019,13.599,110.456,15.141C102.652,16.103,96.211,19.785,90.716,25.282C81.14,34.863,71.532,44.405,61.925,53.954C61.554,54.324,61.061,54.579,60.729,54.807C76.695,70.701,92.417,86.346,108.198,102.055L108.198,102.061ZM14.891,113.336C14.916,113.782,14.859,114.643,15.019,115.464C15.473,117.859,18.255,119.07,20.373,117.847C21.959,116.929,22.266,115.42,22.323,113.769C22.56,107.502,24.652,101.902,29.027,97.392C36.345,89.856,43.854,82.505,51.268,75.065C51.787,74.542,52.31,73.995,52.695,73.37C53.744,71.675,53.232,69.612,51.562,68.51C49.912,67.42,48.108,67.752,46.304,69.542C39.153,76.644,31.989,83.741,24.876,90.882C18.793,96.984,15.396,104.31,14.891,113.336ZM14.891,113.336"/>
</g>
  <g id="Heavy-L" transform="matrix(1.0,0.0,0.0,1.0,2556.231376250562,1439.031395781812)">  <path stroke-linecap="butt" stroke-width="1px" fill="#000000" stroke-linejoin="miter" stroke-dasharray="none" version="1.1" stroke-opacity="1" fill-opacity="1" xmlns:xlink="http://www.w3.org/1999/xlink" fill-rule="nonzero" stroke="none" stroke-miterlimit="4" d="M163.477,48.463C163.298,61.515,158.411,73.02,148.861,82.537C126.889,104.431,104.923,126.331,82.919,148.187C71.891,159.137,58.535,164.1,43.055,162.412C27.831,160.756,15.959,153.246,7.605,140.448C1.375,130.906,-0.947,120.338,0.345,109.055C1.643,97.755,6.594,88.161,14.654,80.135C36.601,58.292,58.529,36.43,80.488,14.599C91.509,3.643,104.846,-1.345,120.332,0.311C135.499,1.935,147.332,9.408,155.75,22.078C160.963,29.926,163.362,38.672,163.477,48.469L163.477,48.463ZM108.198,102.061C108.249,102.017,108.46,101.864,108.64,101.685C118.65,91.716,128.75,81.83,138.652,71.759C150.933,59.26,152.13,41.086,141.364,27.499C133.535,17.625,123.019,13.599,110.456,15.141C102.652,16.103,96.211,19.785,90.716,25.282C81.14,34.863,71.532,44.405,61.925,53.954C61.554,54.324,61.061,54.579,60.729,54.807C76.695,70.701,92.417,86.346,108.198,102.055L108.198,102.061ZM14.891,113.336C14.916,113.782,14.859,114.643,15.019,115.464C15.473,117.859,18.255,119.07,20.373,117.847C21.959,116.929,22.266,115.42,22.323,113.769C22.56,107.502,24.652,101.902,29.027,97.392C36.345,89.856,43.854,82.505,51.268,75.065C51.787,74.542,52.31,73.995,52.695,73.37C53.744,71.675,53.232,69.612,51.562,68.51C49.912,67.42,48.108,67.752,46.304,69.542C39.153,76.644,31.989,83.741,24.876,90.882C18.793,96.984,15.396,104.31,14.891,113.336ZM14.891,113.336"/>
</g>
  <g id="Bold-L" transform="matrix(1.0,0.0,0.0,1.0,2259.521376250562,1439.031395781812)">  <path fill-opacity="1" stroke-width="1px" stroke-linejoin="miter" stroke="none" xmlns:xlink="http://www.w3.org/1999/xlink" stroke-dasharray="none" stroke-miterlimit="4" fill="#000000" stroke-linecap="butt" stroke-opacity="1" version="1.1" fill-rule="nonzero" d="M163.477,48.463C163.298,61.515,158.411,73.02,148.861,82.537C126.889,104.431,104.923,126.331,82.919,148.187C71.891,159.137,58.535,164.1,43.055,162.412C27.831,160.756,15.959,153.246,7.605,140.448C1.375,130.906,-0.947,120.338,0.345,109.055C1.643,97.755,6.594,88.161,14.654,80.135C36.601,58.292,58.529,36.43,80.488,14.599C91.509,3.643,104.846,-1.345,120.332,0.311C135.499,1.935,147.332,9.408,155.75,22.078C160.963,29.926,163.362,38.672,163.477,48.469L163.477,48.463ZM108.198,102.061C108.249,102.017,108.46,101.864,108.64,101.685C118.65,91.716,128.75,81.83,138.652,71.759C150.933,59.26,152.13,41.086,141.364,27.499C133.535,17.625,123.019,13.599,110.456,15.141C102.652,16.103,96.211,19.785,90.716,25.282C81.14,34.863,71.532,44.405,61.925,53.954C61.554,54.324,61.061,54.579,60.729,54.807C76.695,70.701,92.417,86.346,108.198,102.055L108.198,102.061ZM14.891,113.336C14.916,113.782,14.859,114.643,15.019,115.464C15.473,117.859,18.255,119.07,20.373,117.847C21.959,116.929,22.266,115.42,22.323,113.769C22.56,107.502,24.652,101.902,29.027,97.392C36.345,89.856,43.854,82.505,51.268,75.065C51.787,74.542,52.31,73.995,52.695,73.37C53.744,71.675,53.232,69.612,51.562,68.51C49.912,67.42,48.108,67.752,46.304,69.542C39.153,76.644,31.989,83.741,24.876,90.882C18.793,96.984,15.396,104.31,14.891,113.336ZM14.891,113.336"/>
</g>
  <g id="Semibold-L" transform="matrix(1.0,0.0,0.0,1.0,1962.811376250562,1439.031395781812)">  <path xmlns:xlink="http://www.w3.org/1999/xlink" stroke="none" fill="#000000" stroke-linecap="butt" version="1.1" stroke-width="1px" stroke-dasharray="none" fill-rule="nonzero" stroke-opacity="1" fill-opacity="1" stroke-miterlimit="4" stroke-linejoin="miter" d="M163.477,48.463C163.298,61.515,158.411,73.02,148.861,82.537C126.889,104.431,104.923,126.331,82.919,148.187C71.891,159.137,58.535,164.1,43.055,162.412C27.831,160.756,15.959,153.246,7.605,140.448C1.375,130.906,-0.947,120.338,0.345,109.055C1.643,97.755,6.594,88.161,14.654,80.135C36.601,58.292,58.529,36.43,80.488,14.599C91.509,3.643,104.846,-1.345,120.332,0.311C135.499,1.935,147.332,9.408,155.75,22.078C160.963,29.926,163.362,38.672,163.477,48.469L163.477,48.463ZM108.198,102.061C108.249,102.017,108.46,101.864,108.64,101.685C118.65,91.716,128.75,81.83,138.652,71.759C150.933,59.26,152.13,41.086,141.364,27.499C133.535,17.625,123.019,13.599,110.456,15.141C102.652,16.103,96.211,19.785,90.716,25.282C81.14,34.863,71.532,44.405,61.925,53.954C61.554,54.324,61.061,54.579,60.729,54.807C76.695,70.701,92.417,86.346,108.198,102.055L108.198,102.061ZM14.891,113.336C14.916,113.782,14.859,114.643,15.019,115.464C15.473,117.859,18.255,119.07,20.373,117.847C21.959,116.929,22.266,115.42,22.323,113.769C22.56,107.502,24.652,101.902,29.027,97.392C36.345,89.856,43.854,82.505,51.268,75.065C51.787,74.542,52.31,73.995,52.695,73.37C53.744,71.675,53.232,69.612,51.562,68.51C49.912,67.42,48.108,67.752,46.304,69.542C39.153,76.644,31.989,83.741,24.876,90.882C18.793,96.984,15.396,104.31,14.891,113.336ZM14.891,113.336"/>
</g>
  <g id="Medium-L" transform="matrix(1.0,0.0,0.0,1.0,1666.101376250562,1439.031395781812)">  <path xmlns:xlink="http://www.w3.org/1999/xlink" stroke-width="1px" stroke-linecap="butt" stroke="none" fill-opacity="1" version="1.1" stroke-opacity="1" stroke-dasharray="none" stroke-linejoin="miter" fill="#000000" fill-rule="nonzero" stroke-miterlimit="4" d="M163.477,48.463C163.298,61.515,158.411,73.02,148.861,82.537C126.889,104.431,104.923,126.331,82.919,148.187C71.891,159.137,58.535,164.1,43.055,162.412C27.831,160.756,15.959,153.246,7.605,140.448C1.375,130.906,-0.947,120.338,0.345,109.055C1.643,97.755,6.594,88.161,14.654,80.135C36.601,58.292,58.529,36.43,80.488,14.599C91.509,3.643,104.846,-1.345,120.332,0.311C135.499,1.935,147.332,9.408,155.75,22.078C160.963,29.926,163.362,38.672,163.477,48.469L163.477,48.463ZM108.198,102.061C108.249,102.017,108.46,101.864,108.64,101.685C118.65,91.716,128.75,81.83,138.652,71.759C150.933,59.26,152.13,41.086,141.364,27.499C133.535,17.625,123.019,13.599,110.456,15.141C102.652,16.103,96.211,19.785,90.716,25.282C81.14,34.863,71.532,44.405,61.925,53.954C61.554,54.324,61.061,54.579,60.729,54.807C76.695,70.701,92.417,86.346,108.198,102.055L108.198,102.061ZM14.891,113.336C14.916,113.782,14.859,114.643,15.019,115.464C15.473,117.859,18.255,119.07,20.373,117.847C21.959,116.929,22.266,115.42,22.323,113.769C22.56,107.502,24.652,101.902,29.027,97.392C36.345,89.856,43.854,82.505,51.268,75.065C51.787,74.542,52.31,73.995,52.695,73.37C53.744,71.675,53.232,69.612,51.562,68.51C49.912,67.42,48.108,67.752,46.304,69.542C39.153,76.644,31.989,83.741,24.876,90.882C18.793,96.984,15.396,104.31,14.891,113.336ZM14.891,113.336"/>
</g>
  <g id="Regular-L" transform="matrix(1.0,0.0,0.0,1.0,1369.391376250562,1439.031395781812)">  <path stroke="none" fill="#000000" stroke-width="1px" stroke-miterlimit="4" stroke-linecap="butt" fill-rule="nonzero" stroke-linejoin="miter" stroke-opacity="1" xmlns:xlink="http://www.w3.org/1999/xlink" stroke-dasharray="none" version="1.1" fill-opacity="1" d="M163.477,48.463C163.298,61.515,158.411,73.02,148.861,82.537C126.889,104.431,104.923,126.331,82.919,148.187C71.891,159.137,58.535,164.1,43.055,162.412C27.831,160.756,15.959,153.246,7.605,140.448C1.375,130.906,-0.947,120.338,0.345,109.055C1.643,97.755,6.594,88.161,14.654,80.135C36.601,58.292,58.529,36.43,80.488,14.599C91.509,3.643,104.846,-1.345,120.332,0.311C135.499,1.935,147.332,9.408,155.75,22.078C160.963,29.926,163.362,38.672,163.477,48.469L163.477,48.463ZM108.198,102.061C108.249,102.017,108.46,101.864,108.64,101.685C118.65,91.716,128.75,81.83,138.652,71.759C150.933,59.26,152.13,41.086,141.364,27.499C133.535,17.625,123.019,13.599,110.456,15.141C102.652,16.103,96.211,19.785,90.716,25.282C81.14,34.863,71.532,44.405,61.925,53.954C61.554,54.324,61.061,54.579,60.729,54.807C76.695,70.701,92.417,86.346,108.198,102.055L108.198,102.061ZM14.891,113.336C14.916,113.782,14.859,114.643,15.019,115.464C15.473,117.859,18.255,119.07,20.373,117.847C21.959,116.929,22.266,115.42,22.323,113.769C22.56,107.502,24.652,101.902,29.027,97.392C36.345,89.856,43.854,82.505,51.268,75.065C51.787,74.542,52.31,73.995,52.695,73.37C53.744,71.675,53.232,69.612,51.562,68.51C49.912,67.42,48.108,67.752,46.304,69.542C39.153,76.644,31.989,83.741,24.876,90.882C18.793,96.984,15.396,104.31,14.891,113.336ZM14.891,113.336"/>
</g>
  <g id="Light-L" transform="matrix(1.0,0.0,0.0,1.0,1072.6813762505622,1439.031395781812)">  <path stroke-miterlimit="4" stroke-linecap="butt" fill-rule="nonzero" fill-opacity="1" version="1.1" fill="#000000" xmlns:xlink="http://www.w3.org/1999/xlink" stroke-width="1px" stroke-dasharray="none" stroke="none" stroke-linejoin="miter" stroke-opacity="1" d="M163.477,48.463C163.298,61.515,158.411,73.02,148.861,82.537C126.889,104.431,104.923,126.331,82.919,148.187C71.891,159.137,58.535,164.1,43.055,162.412C27.831,160.756,15.959,153.246,7.605,140.448C1.375,130.906,-0.947,120.338,0.345,109.055C1.643,97.755,6.594,88.161,14.654,80.135C36.601,58.292,58.529,36.43,80.488,14.599C91.509,3.643,104.846,-1.345,120.332,0.311C135.499,1.935,147.332,9.408,155.75,22.078C160.963,29.926,163.362,38.672,163.477,48.469L163.477,48.463ZM108.198,102.061C108.249,102.017,108.46,101.864,108.64,101.685C118.65,91.716,128.75,81.83,138.652,71.759C150.933,59.26,152.13,41.086,141.364,27.499C133.535,17.625,123.019,13.599,110.456,15.141C102.652,16.103,96.211,19.785,90.716,25.282C81.14,34.863,71.532,44.405,61.925,53.954C61.554,54.324,61.061,54.579,60.729,54.807C76.695,70.701,92.417,86.346,108.198,102.055L108.198,102.061ZM14.891,113.336C14.916,113.782,14.859,114.643,15.019,115.464C15.473,117.859,18.255,119.07,20.373,117.847C21.959,116.929,22.266,115.42,22.323,113.769C22.56,107.502,24.652,101.902,29.027,97.392C36.345,89.856,43.854,82.505,51.268,75.065C51.787,74.542,52.31,73.995,52.695,73.37C53.744,71.675,53.232,69.612,51.562,68.51C49.912,67.42,48.108,67.752,46.304,69.542C39.153,76.644,31.989,83.741,24.876,90.882C18.793,96.984,15.396,104.31,14.891,113.336ZM14.891,113.336"/>
</g>
  <g id="Thin-L" transform="matrix(1.0,0.0,0.0,1.0,775.9713762505621,1439.031395781812)">  <path fill="#000000" stroke-opacity="1" stroke-miterlimit="4" stroke-linejoin="miter" stroke-linecap="butt" stroke-width="1px" fill-opacity="1" stroke="none" stroke-dasharray="none" fill-rule="nonzero" xmlns:xlink="http://www.w3.org/1999/xlink" version="1.1" d="M163.477,48.463C163.298,61.515,158.411,73.02,148.861,82.537C126.889,104.431,104.923,126.331,82.919,148.187C71.891,159.137,58.535,164.1,43.055,162.412C27.831,160.756,15.959,153.246,7.605,140.448C1.375,130.906,-0.947,120.338,0.345,109.055C1.643,97.755,6.594,88.161,14.654,80.135C36.601,58.292,58.529,36.43,80.488,14.599C91.509,3.643,104.846,-1.345,120.332,0.311C135.499,1.935,147.332,9.408,155.75,22.078C160.963,29.926,163.362,38.672,163.477,48.469L163.477,48.463ZM108.198,102.061C108.249,102.017,108.46,101.864,108.64,101.685C118.65,91.716,128.75,81.83,138.652,71.759C150.933,59.26,152.13,41.086,141.364,27.499C133.535,17.625,123.019,13.599,110.456,15.141C102.652,16.103,96.211,19.785,90.716,25.282C81.14,34.863,71.532,44.405,61.925,53.954C61.554,54.324,61.061,54.579,60.729,54.807C76.695,70.701,92.417,86.346,108.198,102.055L108.198,102.061ZM14.891,113.336C14.916,113.782,14.859,114.643,15.019,115.464C15.473,117.859,18.255,119.07,20.373,117.847C21.959,116.929,22.266,115.42,22.323,113.769C22.56,107.502,24.652,101.902,29.027,97.392C36.345,89.856,43.854,82.505,51.268,75.065C51.787,74.542,52.31,73.995,52.695,73.37C53.744,71.675,53.232,69.612,51.562,68.51C49.912,67.42,48.108,67.752,46.304,69.542C39.153,76.644,31.989,83.741,24.876,90.882C18.793,96.984,15.396,104.31,14.891,113.336ZM14.891,113.336"/>
</g>
  <g id="Ultralight-L" transform="matrix(1.0,0.0,0.0,1.0,479.2613762505621,1439.031395781812)">  <path xmlns:xlink="http://www.w3.org/1999/xlink" fill-opacity="1" stroke-dasharray="none" fill-rule="nonzero" stroke-opacity="1" stroke-linecap="butt" stroke-linejoin="miter" stroke-width="1px" stroke-miterlimit="4" stroke="none" version="1.1" fill="#000000" d="M163.477,48.463C163.298,61.515,158.411,73.02,148.861,82.537C126.889,104.431,104.923,126.331,82.919,148.187C71.891,159.137,58.535,164.1,43.055,162.412C27.831,160.756,15.959,153.246,7.605,140.448C1.375,130.906,-0.947,120.338,0.345,109.055C1.643,97.755,6.594,88.161,14.654,80.135C36.601,58.292,58.529,36.43,80.488,14.599C91.509,3.643,104.846,-1.345,120.332,0.311C135.499,1.935,147.332,9.408,155.75,22.078C160.963,29.926,163.362,38.672,163.477,48.469L163.477,48.463ZM108.198,102.061C108.249,102.017,108.46,101.864,108.64,101.685C118.65,91.716,128.75,81.83,138.652,71.759C150.933,59.26,152.13,41.086,141.364,27.499C133.535,17.625,123.019,13.599,110.456,15.141C102.652,16.103,96.211,19.785,90.716,25.282C81.14,34.863,71.532,44.405,61.925,53.954C61.554,54.324,61.061,54.579,60.729,54.807C76.695,70.701,92.417,86.346,108.198,102.055L108.198,102.061ZM14.891,113.336C14.916,113.782,14.859,114.643,15.019,115.464C15.473,117.859,18.255,119.07,20.373,117.847C21.959,116.929,22.266,115.42,22.323,113.769C22.56,107.502,24.652,101.902,29.027,97.392C36.345,89.856,43.854,82.505,51.268,75.065C51.787,74.542,52.31,73.995,52.695,73.37C53.744,71.675,53.232,69.612,51.562,68.51C49.912,67.42,48.108,67.752,46.304,69.542C39.153,76.644,31.989,83.741,24.876,90.882C18.793,96.984,15.396,104.31,14.891,113.336ZM14.891,113.336"/>
</g>
  <g id="Black-M" transform="matrix(1.0,0.0,0.0,1.0,2871.3167257756295,1027.4067453068794)">  <path stroke-dasharray="none" stroke="none" version="1.1" stroke-linecap="butt" stroke-width="1px" stroke-miterlimit="4" fill-rule="nonzero" fill-opacity="1" stroke-opacity="1" stroke-linejoin="miter" fill="#000000" xmlns:xlink="http://www.w3.org/1999/xlink" d="M126.727,37.568C126.588,47.686,122.799,56.604,115.396,63.982C98.363,80.954,81.335,97.931,64.278,114.874C55.729,123.362,45.376,127.209,33.376,125.901C21.574,124.617,12.371,118.795,5.895,108.874C1.066,101.477,-0.734,93.285,0.267,84.539C1.274,75.779,5.112,68.342,11.36,62.12C28.373,45.187,45.371,28.24,62.394,11.317C70.937,2.824,81.276,-1.043,93.281,0.241C105.038,1.5,114.211,7.293,120.736,17.115C124.778,23.198,126.637,29.978,126.727,37.573L126.727,37.568ZM83.875,79.117C83.914,79.083,84.078,78.964,84.217,78.826C91.976,71.098,99.806,63.434,107.482,55.627C117.003,45.938,117.93,31.85,109.584,21.317C103.515,13.663,95.363,10.542,85.625,11.737C79.575,12.483,74.582,15.337,70.322,19.598C62.9,27.025,55.452,34.423,48.004,41.825C47.716,42.111,47.334,42.309,47.077,42.486C59.453,54.807,71.641,66.935,83.875,79.112L83.875,79.117ZM11.543,87.858C11.563,88.203,11.518,88.87,11.642,89.507C11.994,91.364,14.151,92.302,15.793,91.354C17.022,90.643,17.26,89.473,17.305,88.193C17.488,83.335,19.11,78.994,22.502,75.498C28.174,69.656,33.996,63.957,39.743,58.19C40.145,57.785,40.551,57.36,40.849,56.876C41.662,55.562,41.265,53.963,39.971,53.108C38.691,52.264,37.293,52.521,35.895,53.909C30.351,59.414,24.798,64.915,19.284,70.451C14.568,75.181,11.935,80.86,11.543,87.858ZM11.543,87.858"/>
</g>
  <g id="Heavy-M" transform="matrix(1.0,0.0,0.0,1.0,2574.6067257756295,1027.4067453068794)">  <path stroke-linecap="butt" stroke-width="1px" fill="#000000" stroke-linejoin="miter" stroke-dasharray="none" version="1.1" stroke-opacity="1" fill-opacity="1" xmlns:xlink="http://www.w3.org/1999/xlink" fill-rule="nonzero" stroke="none" stroke-miterlimit="4" d="M126.727,37.568C126.588,47.686,122.799,56.604,115.396,63.982C98.363,80.954,81.335,97.931,64.278,114.874C55.729,123.362,45.376,127.209,33.376,125.901C21.574,124.617,12.371,118.795,5.895,108.874C1.066,101.477,-0.734,93.285,0.267,84.539C1.274,75.779,5.112,68.342,11.36,62.12C28.373,45.187,45.371,28.24,62.394,11.317C70.937,2.824,81.276,-1.043,93.281,0.241C105.038,1.5,114.211,7.293,120.736,17.115C124.778,23.198,126.637,29.978,126.727,37.573L126.727,37.568ZM83.875,79.117C83.914,79.083,84.078,78.964,84.217,78.826C91.976,71.098,99.806,63.434,107.482,55.627C117.003,45.938,117.93,31.85,109.584,21.317C103.515,13.663,95.363,10.542,85.625,11.737C79.575,12.483,74.582,15.337,70.322,19.598C62.9,27.025,55.452,34.423,48.004,41.825C47.716,42.111,47.334,42.309,47.077,42.486C59.453,54.807,71.641,66.935,83.875,79.112L83.875,79.117ZM11.543,87.858C11.563,88.203,11.518,88.87,11.642,89.507C11.994,91.364,14.151,92.302,15.793,91.354C17.022,90.643,17.26,89.473,17.305,88.193C17.488,83.335,19.11,78.994,22.502,75.498C28.174,69.656,33.996,63.957,39.743,58.19C40.145,57.785,40.551,57.36,40.849,56.876C41.662,55.562,41.265,53.963,39.971,53.108C38.691,52.264,37.293,52.521,35.895,53.909C30.351,59.414,24.798,64.915,19.284,70.451C14.568,75.181,11.935,80.86,11.543,87.858ZM11.543,87.858"/>
</g>
  <g id="Bold-M" transform="matrix(1.0,0.0,0.0,1.0,2277.8967257756294,1027.4067453068794)">  <path fill-opacity="1" stroke-width="1px" stroke-linejoin="miter" stroke="none" xmlns:xlink="http://www.w3.org/1999/xlink" stroke-dasharray="none" stroke-miterlimit="4" fill="#000000" stroke-linecap="butt" stroke-opacity="1" version="1.1" fill-rule="nonzero" d="M126.727,37.568C126.588,47.686,122.799,56.604,115.396,63.982C98.363,80.954,81.335,97.931,64.278,114.874C55.729,123.362,45.376,127.209,33.376,125.901C21.574,124.617,12.371,118.795,5.895,108.874C1.066,101.477,-0.734,93.285,0.267,84.539C1.274,75.779,5.112,68.342,11.36,62.12C28.373,45.187,45.371,28.24,62.394,11.317C70.937,2.824,81.276,-1.043,93.281,0.241C105.038,1.5,114.211,7.293,120.736,17.115C124.778,23.198,126.637,29.978,126.727,37.573L126.727,37.568ZM83.875,79.117C83.914,79.083,84.078,78.964,84.217,78.826C91.976,71.098,99.806,63.434,107.482,55.627C117.003,45.938,117.93,31.85,109.584,21.317C103.515,13.663,95.363,10.542,85.625,11.737C79.575,12.483,74.582,15.337,70.322,19.598C62.9,27.025,55.452,34.423,48.004,41.825C47.716,42.111,47.334,42.309,47.077,42.486C59.453,54.807,71.641,66.935,83.875,79.112L83.875,79.117ZM11.543,87.858C11.563,88.203,11.518,88.87,11.642,89.507C11.994,91.364,14.151,92.302,15.793,91.354C17.022,90.643,17.26,89.473,17.305,88.193C17.488,83.335,19.11,78.994,22.502,75.498C28.174,69.656,33.996,63.957,39.743,58.19C40.145,57.785,40.551,57.36,40.849,56.876C41.662,55.562,41.265,53.963,39.971,53.108C38.691,52.264,37.293,52.521,35.895,53.909C30.351,59.414,24.798,64.915,19.284,70.451C14.568,75.181,11.935,80.86,11.543,87.858ZM11.543,87.858"/>
</g>
  <g id="Semibold-M" transform="matrix(1.0,0.0,0.0,1.0,1981.1867257756294,1027.4067453068794)">  <path xmlns:xlink="http://www.w3.org/1999/xlink" stroke="none" fill="#000000" stroke-linecap="butt" version="1.1" stroke-width="1px" stroke-dasharray="none" fill-rule="nonzero" stroke-opacity="1" fill-opacity="1" stroke-miterlimit="4" stroke-linejoin="miter" d="M126.727,37.568C126.588,47.686,122.799,56.604,115.396,63.982C98.363,80.954,81.335,97.931,64.278,114.874C55.729,123.362,45.376,127.209,33.376,125.901C21.574,124.617,12.371,118.795,5.895,108.874C1.066,101.477,-0.734,93.285,0.267,84.539C1.274,75.779,5.112,68.342,11.36,62.12C28.373,45.187,45.371,28.24,62.394,11.317C70.937,2.824,81.276,-1.043,93.281,0.241C105.038,1.5,114.211,7.293,120.736,17.115C124.778,23.198,126.637,29.978,126.727,37.573L126.727,37.568ZM83.875,79.117C83.914,79.083,84.078,78.964,84.217,78.826C91.976,71.098,99.806,63.434,107.482,55.627C117.003,45.938,117.93,31.85,109.584,21.317C103.515,13.663,95.363,10.542,85.625,11.737C79.575,12.483,74.582,15.337,70.322,19.598C62.9,27.025,55.452,34.423,48.004,41.825C47.716,42.111,47.334,42.309,47.077,42.486C59.453,54.807,71.641,66.935,83.875,79.112L83.875,79.117ZM11.543,87.858C11.563,88.203,11.518,88.87,11.642,89.507C11.994,91.364,14.151,92.302,15.793,91.354C17.022,90.643,17.26,89.473,17.305,88.193C17.488,83.335,19.11,78.994,22.502,75.498C28.174,69.656,33.996,63.957,39.743,58.19C40.145,57.785,40.551,57.36,40.849,56.876C41.662,55.562,41.265,53.963,39.971,53.108C38.691,52.264,37.293,52.521,35.895,53.909C30.351,59.414,24.798,64.915,19.284,70.451C14.568,75.181,11.935,80.86,11.543,87.858ZM11.543,87.858"/>
</g>
  <g id="Medium-M" transform="matrix(1.0,0.0,0.0,1.0,1684.4767257756293,1027.4067453068794)">  <path xmlns:xlink="http://www.w3.org/1999/xlink" stroke-width="1px" stroke-linecap="butt" stroke="none" fill-opacity="1" version="1.1" stroke-opacity="1" stroke-dasharray="none" stroke-linejoin="miter" fill="#000000" fill-rule="nonzero" stroke-miterlimit="4" d="M126.727,37.568C126.588,47.686,122.799,56.604,115.396,63.982C98.363,80.954,81.335,97.931,64.278,114.874C55.729,123.362,45.376,127.209,33.376,125.901C21.574,124.617,12.371,118.795,5.895,108.874C1.066,101.477,-0.734,93.285,0.267,84.539C1.274,75.779,5.112,68.342,11.36,62.12C28.373,45.187,45.371,28.24,62.394,11.317C70.937,2.824,81.276,-1.043,93.281,0.241C105.038,1.5,114.211,7.293,120.736,17.115C124.778,23.198,126.637,29.978,126.727,37.573L126.727,37.568ZM83.875,79.117C83.914,79.083,84.078,78.964,84.217,78.826C91.976,71.098,99.806,63.434,107.482,55.627C117.003,45.938,117.93,31.85,109.584,21.317C103.515,13.663,95.363,10.542,85.625,11.737C79.575,12.483,74.582,15.337,70.322,19.598C62.9,27.025,55.452,34.423,48.004,41.825C47.716,42.111,47.334,42.309,47.077,42.486C59.453,54.807,71.641,66.935,83.875,79.112L83.875,79.117ZM11.543,87.858C11.563,88.203,11.518,88.87,11.642,89.507C11.994,91.364,14.151,92.302,15.793,91.354C17.022,90.643,17.26,89.473,17.305,88.193C17.488,83.335,19.11,78.994,22.502,75.498C28.174,69.656,33.996,63.957,39.743,58.19C40.145,57.785,40.551,57.36,40.849,56.876C41.662,55.562,41.265,53.963,39.971,53.108C38.691,52.264,37.293,52.521,35.895,53.909C30.351,59.414,24.798,64.915,19.284,70.451C14.568,75.181,11.935,80.86,11.543,87.858ZM11.543,87.858"/>
</g>
  <g id="Regular-M" transform="matrix(1.0,0.0,0.0,1.0,1387.7667257756293,1027.4067453068794)">  <path stroke="none" fill="#000000" stroke-width="1px" stroke-miterlimit="4" stroke-linecap="butt" fill-rule="nonzero" stroke-linejoin="miter" stroke-opacity="1" xmlns:xlink="http://www.w3.org/1999/xlink" stroke-dasharray="none" version="1.1" fill-opacity="1" d="M126.727,37.568C126.588,47.686,122.799,56.604,115.396,63.982C98.363,80.954,81.335,97.931,64.278,114.874C55.729,123.362,45.376,127.209,33.376,125.901C21.574,124.617,12.371,118.795,5.895,108.874C1.066,101.477,-0.734,93.285,0.267,84.539C1.274,75.779,5.112,68.342,11.36,62.12C28.373,45.187,45.371,28.24,62.394,11.317C70.937,2.824,81.276,-1.043,93.281,0.241C105.038,1.5,114.211,7.293,120.736,17.115C124.778,23.198,126.637,29.978,126.727,37.573L126.727,37.568ZM83.875,79.117C83.914,79.083,84.078,78.964,84.217,78.826C91.976,71.098,99.806,63.434,107.482,55.627C117.003,45.938,117.93,31.85,109.584,21.317C103.515,13.663,95.363,10.542,85.625,11.737C79.575,12.483,74.582,15.337,70.322,19.598C62.9,27.025,55.452,34.423,48.004,41.825C47.716,42.111,47.334,42.309,47.077,42.486C59.453,54.807,71.641,66.935,83.875,79.112L83.875,79.117ZM11.543,87.858C11.563,88.203,11.518,88.87,11.642,89.507C11.994,91.364,14.151,92.302,15.793,91.354C17.022,90.643,17.26,89.473,17.305,88.193C17.488,83.335,19.11,78.994,22.502,75.498C28.174,69.656,33.996,63.957,39.743,58.19C40.145,57.785,40.551,57.36,40.849,56.876C41.662,55.562,41.265,53.963,39.971,53.108C38.691,52.264,37.293,52.521,35.895,53.909C30.351,59.414,24.798,64.915,19.284,70.451C14.568,75.181,11.935,80.86,11.543,87.858ZM11.543,87.858"/>
</g>
  <g id="Light-M" transform="matrix(1.0,0.0,0.0,1.0,1091.0567257756295,1027.4067453068794)">  <path stroke-miterlimit="4" stroke-linecap="butt" fill-rule="nonzero" fill-opacity="1" version="1.1" fill="#000000" xmlns:xlink="http://www.w3.org/1999/xlink" stroke-width="1px" stroke-dasharray="none" stroke="none" stroke-linejoin="miter" stroke-opacity="1" d="M126.727,37.568C126.588,47.686,122.799,56.604,115.396,63.982C98.363,80.954,81.335,97.931,64.278,114.874C55.729,123.362,45.376,127.209,33.376,125.901C21.574,124.617,12.371,118.795,5.895,108.874C1.066,101.477,-0.734,93.285,0.267,84.539C1.274,75.779,5.112,68.342,11.36,62.12C28.373,45.187,45.371,28.24,62.394,11.317C70.937,2.824,81.276,-1.043,93.281,0.241C105.038,1.5,114.211,7.293,120.736,17.115C124.778,23.198,126.637,29.978,126.727,37.573L126.727,37.568ZM83.875,79.117C83.914,79.083,84.078,78.964,84.217,78.826C91.976,71.098,99.806,63.434,107.482,55.627C117.003,45.938,117.93,31.85,109.584,21.317C103.515,13.663,95.363,10.542,85.625,11.737C79.575,12.483,74.582,15.337,70.322,19.598C62.9,27.025,55.452,34.423,48.004,41.825C47.716,42.111,47.334,42.309,47.077,42.486C59.453,54.807,71.641,66.935,83.875,79.112L83.875,79.117ZM11.543,87.858C11.563,88.203,11.518,88.87,11.642,89.507C11.994,91.364,14.151,92.302,15.793,91.354C17.022,90.643,17.26,89.473,17.305,88.193C17.488,83.335,19.11,78.994,22.502,75.498C28.174,69.656,33.996,63.957,39.743,58.19C40.145,57.785,40.551,57.36,40.849,56.876C41.662,55.562,41.265,53.963,39.971,53.108C38.691,52.264,37.293,52.521,35.895,53.909C30.351,59.414,24.798,64.915,19.284,70.451C14.568,75.181,11.935,80.86,11.543,87.858ZM11.543,87.858"/>
</g>
  <g id="Thin-M" transform="matrix(1.0,0.0,0.0,1.0,794.3467257756296,1027.4067453068794)">  <path fill="#000000" stroke-opacity="1" stroke-miterlimit="4" stroke-linejoin="miter" stroke-linecap="butt" stroke-width="1px" fill-opacity="1" stroke="none" stroke-dasharray="none" fill-rule="nonzero" xmlns:xlink="http://www.w3.org/1999/xlink" version="1.1" d="M126.727,37.568C126.588,47.686,122.799,56.604,115.396,63.982C98.363,80.954,81.335,97.931,64.278,114.874C55.729,123.362,45.376,127.209,33.376,125.901C21.574,124.617,12.371,118.795,5.895,108.874C1.066,101.477,-0.734,93.285,0.267,84.539C1.274,75.779,5.112,68.342,11.36,62.12C28.373,45.187,45.371,28.24,62.394,11.317C70.937,2.824,81.276,-1.043,93.281,0.241C105.038,1.5,114.211,7.293,120.736,17.115C124.778,23.198,126.637,29.978,126.727,37.573L126.727,37.568ZM83.875,79.117C83.914,79.083,84.078,78.964,84.217,78.826C91.976,71.098,99.806,63.434,107.482,55.627C117.003,45.938,117.93,31.85,109.584,21.317C103.515,13.663,95.363,10.542,85.625,11.737C79.575,12.483,74.582,15.337,70.322,19.598C62.9,27.025,55.452,34.423,48.004,41.825C47.716,42.111,47.334,42.309,47.077,42.486C59.453,54.807,71.641,66.935,83.875,79.112L83.875,79.117ZM11.543,87.858C11.563,88.203,11.518,88.87,11.642,89.507C11.994,91.364,14.151,92.302,15.793,91.354C17.022,90.643,17.26,89.473,17.305,88.193C17.488,83.335,19.11,78.994,22.502,75.498C28.174,69.656,33.996,63.957,39.743,58.19C40.145,57.785,40.551,57.36,40.849,56.876C41.662,55.562,41.265,53.963,39.971,53.108C38.691,52.264,37.293,52.521,35.895,53.909C30.351,59.414,24.798,64.915,19.284,70.451C14.568,75.181,11.935,80.86,11.543,87.858ZM11.543,87.858"/>
</g>
  <g id="Ultralight-M" transform="matrix(1.0,0.0,0.0,1.0,497.6367257756295,1027.4067453068794)">  <path xmlns:xlink="http://www.w3.org/1999/xlink" fill-opacity="1" stroke-dasharray="none" fill-rule="nonzero" stroke-opacity="1" stroke-linecap="butt" stroke-linejoin="miter" stroke-width="1px" stroke-miterlimit="4" stroke="none" version="1.1" fill="#000000" d="M126.727,37.568C126.588,47.686,122.799,56.604,115.396,63.982C98.363,80.954,81.335,97.931,64.278,114.874C55.729,123.362,45.376,127.209,33.376,125.901C21.574,124.617,12.371,118.795,5.895,108.874C1.066,101.477,-0.734,93.285,0.267,84.539C1.274,75.779,5.112,68.342,11.36,62.12C28.373,45.187,45.371,28.24,62.394,11.317C70.937,2.824,81.276,-1.043,93.281,0.241C105.038,1.5,114.211,7.293,120.736,17.115C124.778,23.198,126.637,29.978,126.727,37.573L126.727,37.568ZM83.875,79.117C83.914,79.083,84.078,78.964,84.217,78.826C91.976,71.098,99.806,63.434,107.482,55.627C117.003,45.938,117.93,31.85,109.584,21.317C103.515,13.663,95.363,10.542,85.625,11.737C79.575,12.483,74.582,15.337,70.322,19.598C62.9,27.025,55.452,34.423,48.004,41.825C47.716,42.111,47.334,42.309,47.077,42.486C59.453,54.807,71.641,66.935,83.875,79.112L83.875,79.117ZM11.543,87.858C11.563,88.203,11.518,88.87,11.642,89.507C11.994,91.364,14.151,92.302,15.793,91.354C17.022,90.643,17.26,89.473,17.305,88.193C17.488,83.335,19.11,78.994,22.502,75.498C28.174,69.656,33.996,63.957,39.743,58.19C40.145,57.785,40.551,57.36,40.849,56.876C41.662,55.562,41.265,53.963,39.971,53.108C38.691,52.264,37.293,52.521,35.895,53.909C30.351,59.414,24.798,64.915,19.284,70.451C14.568,75.181,11.935,80.86,11.543,87.858ZM11.543,87.858"/>
</g>
  <g id="Black-S" transform="matrix(1.0,0.0,0.0,1.0,2885.066556282318,611.1565758135679)">  <path stroke-dasharray="none" stroke="none" version="1.1" stroke-linecap="butt" stroke-width="1px" stroke-miterlimit="4" fill-rule="nonzero" fill-opacity="1" stroke-opacity="1" stroke-linejoin="miter" fill="#000000" xmlns:xlink="http://www.w3.org/1999/xlink" d="M99.227,29.416C99.118,37.338,96.152,44.321,90.355,50.098C77.019,63.387,63.686,76.68,50.33,89.946C43.636,96.593,35.529,99.605,26.133,98.58C16.893,97.575,9.687,93.017,4.616,85.248C0.834,79.457,-0.575,73.042,0.209,66.194C0.997,59.335,4.003,53.512,8.895,48.64C22.216,35.382,35.525,22.112,48.854,8.861C55.544,2.211,63.639,-0.817,73.039,0.189C82.245,1.175,89.427,5.71,94.537,13.401C97.701,18.164,99.157,23.473,99.227,29.42L99.227,29.416ZM65.674,61.949C65.704,61.922,65.833,61.829,65.942,61.721C72.018,55.67,78.148,49.669,84.158,43.556C91.613,35.969,92.339,24.938,85.805,16.691C81.053,10.698,74.67,8.254,67.044,9.19C62.307,9.774,58.398,12.009,55.062,15.346C49.25,21.161,43.419,26.953,37.587,32.749C37.362,32.973,37.063,33.128,36.861,33.267C46.552,42.914,56.095,52.41,65.674,61.945L65.674,61.949ZM9.038,68.792C9.054,69.063,9.019,69.585,9.116,70.084C9.392,71.538,11.081,72.273,12.366,71.53C13.329,70.973,13.515,70.057,13.55,69.055C13.693,65.251,14.963,61.852,17.619,59.115C22.06,54.541,26.619,50.079,31.118,45.562C31.433,45.245,31.751,44.913,31.984,44.534C32.621,43.505,32.311,42.253,31.297,41.584C30.295,40.923,29.201,41.124,28.106,42.21C23.765,46.521,19.416,50.829,15.099,55.163C11.407,58.867,9.345,63.314,9.038,68.792ZM9.038,68.792"/>
</g>
  <g id="Heavy-S" transform="matrix(1.0,0.0,0.0,1.0,2588.356556282318,611.1565758135679)">  <path stroke-linecap="butt" stroke-width="1px" fill="#000000" stroke-linejoin="miter" stroke-dasharray="none" version="1.1" stroke-opacity="1" fill-opacity="1" xmlns:xlink="http://www.w3.org/1999/xlink" fill-rule="nonzero" stroke="none" stroke-miterlimit="4" d="M99.227,29.416C99.118,37.338,96.152,44.321,90.355,50.098C77.019,63.387,63.686,76.68,50.33,89.946C43.636,96.593,35.529,99.605,26.133,98.58C16.893,97.575,9.687,93.017,4.616,85.248C0.834,79.457,-0.575,73.042,0.209,66.194C0.997,59.335,4.003,53.512,8.895,48.64C22.216,35.382,35.525,22.112,48.854,8.861C55.544,2.211,63.639,-0.817,73.039,0.189C82.245,1.175,89.427,5.71,94.537,13.401C97.701,18.164,99.157,23.473,99.227,29.42L99.227,29.416ZM65.674,61.949C65.704,61.922,65.833,61.829,65.942,61.721C72.018,55.67,78.148,49.669,84.158,43.556C91.613,35.969,92.339,24.938,85.805,16.691C81.053,10.698,74.67,8.254,67.044,9.19C62.307,9.774,58.398,12.009,55.062,15.346C49.25,21.161,43.419,26.953,37.587,32.749C37.362,32.973,37.063,33.128,36.861,33.267C46.552,42.914,56.095,52.41,65.674,61.945L65.674,61.949ZM9.038,68.792C9.054,69.063,9.019,69.585,9.116,70.084C9.392,71.538,11.081,72.273,12.366,71.53C13.329,70.973,13.515,70.057,13.55,69.055C13.693,65.251,14.963,61.852,17.619,59.115C22.06,54.541,26.619,50.079,31.118,45.562C31.433,45.245,31.751,44.913,31.984,44.534C32.621,43.505,32.311,42.253,31.297,41.584C30.295,40.923,29.201,41.124,28.106,42.21C23.765,46.521,19.416,50.829,15.099,55.163C11.407,58.867,9.345,63.314,9.038,68.792ZM9.038,68.792"/>
</g>
  <g id="Bold-S" transform="matrix(1.0,0.0,0.0,1.0,2291.6465562823178,611.1565758135679)">  <path fill-opacity="1" stroke-width="1px" stroke-linejoin="miter" stroke="none" xmlns:xlink="http://www.w3.org/1999/xlink" stroke-dasharray="none" stroke-miterlimit="4" fill="#000000" stroke-linecap="butt" stroke-opacity="1" version="1.1" fill-rule="nonzero" d="M99.227,29.416C99.118,37.338,96.152,44.321,90.355,50.098C77.019,63.387,63.686,76.68,50.33,89.946C43.636,96.593,35.529,99.605,26.133,98.58C16.893,97.575,9.687,93.017,4.616,85.248C0.834,79.457,-0.575,73.042,0.209,66.194C0.997,59.335,4.003,53.512,8.895,48.64C22.216,35.382,35.525,22.112,48.854,8.861C55.544,2.211,63.639,-0.817,73.039,0.189C82.245,1.175,89.427,5.71,94.537,13.401C97.701,18.164,99.157,23.473,99.227,29.42L99.227,29.416ZM65.674,61.949C65.704,61.922,65.833,61.829,65.942,61.721C72.018,55.67,78.148,49.669,84.158,43.556C91.613,35.969,92.339,24.938,85.805,16.691C81.053,10.698,74.67,8.254,67.044,9.19C62.307,9.774,58.398,12.009,55.062,15.346C49.25,21.161,43.419,26.953,37.587,32.749C37.362,32.973,37.063,33.128,36.861,33.267C46.552,42.914,56.095,52.41,65.674,61.945L65.674,61.949ZM9.038,68.792C9.054,69.063,9.019,69.585,9.116,70.084C9.392,71.538,11.081,72.273,12.366,71.53C13.329,70.973,13.515,70.057,13.55,69.055C13.693,65.251,14.963,61.852,17.619,59.115C22.06,54.541,26.619,50.079,31.118,45.562C31.433,45.245,31.751,44.913,31.984,44.534C32.621,43.505,32.311,42.253,31.297,41.584C30.295,40.923,29.201,41.124,28.106,42.21C23.765,46.521,19.416,50.829,15.099,55.163C11.407,58.867,9.345,63.314,9.038,68.792ZM9.038,68.792"/>
</g>
  <g id="Semibold-S" transform="matrix(1.0,0.0,0.0,1.0,1994.936556282318,611.1565758135679)">  <path xmlns:xlink="http://www.w3.org/1999/xlink" stroke="none" fill="#000000" stroke-linecap="butt" version="1.1" stroke-width="1px" stroke-dasharray="none" fill-rule="nonzero" stroke-opacity="1" fill-opacity="1" stroke-miterlimit="4" stroke-linejoin="miter" d="M99.227,29.416C99.118,37.338,96.152,44.321,90.355,50.098C77.019,63.387,63.686,76.68,50.33,89.946C43.636,96.593,35.529,99.605,26.133,98.58C16.893,97.575,9.687,93.017,4.616,85.248C0.834,79.457,-0.575,73.042,0.209,66.194C0.997,59.335,4.003,53.512,8.895,48.64C22.216,35.382,35.525,22.112,48.854,8.861C55.544,2.211,63.639,-0.817,73.039,0.189C82.245,1.175,89.427,5.71,94.537,13.401C97.701,18.164,99.157,23.473,99.227,29.42L99.227,29.416ZM65.674,61.949C65.704,61.922,65.833,61.829,65.942,61.721C72.018,55.67,78.148,49.669,84.158,43.556C91.613,35.969,92.339,24.938,85.805,16.691C81.053,10.698,74.67,8.254,67.044,9.19C62.307,9.774,58.398,12.009,55.062,15.346C49.25,21.161,43.419,26.953,37.587,32.749C37.362,32.973,37.063,33.128,36.861,33.267C46.552,42.914,56.095,52.41,65.674,61.945L65.674,61.949ZM9.038,68.792C9.054,69.063,9.019,69.585,9.116,70.084C9.392,71.538,11.081,72.273,12.366,71.53C13.329,70.973,13.515,70.057,13.55,69.055C13.693,65.251,14.963,61.852,17.619,59.115C22.06,54.541,26.619,50.079,31.118,45.562C31.433,45.245,31.751,44.913,31.984,44.534C32.621,43.505,32.311,42.253,31.297,41.584C30.295,40.923,29.201,41.124,28.106,42.21C23.765,46.521,19.416,50.829,15.099,55.163C11.407,58.867,9.345,63.314,9.038,68.792ZM9.038,68.792"/>
</g>
  <g id="Medium-S" transform="matrix(1.0,0.0,0.0,1.0,1698.226556282318,611.1565758135679)">  <path xmlns:xlink="http://www.w3.org/1999/xlink" stroke-width="1px" stroke-linecap="butt" stroke="none" fill-opacity="1" version="1.1" stroke-opacity="1" stroke-dasharray="none" stroke-linejoin="miter" fill="#000000" fill-rule="nonzero" stroke-miterlimit="4" d="M99.227,29.416C99.118,37.338,96.152,44.321,90.355,50.098C77.019,63.387,63.686,76.68,50.33,89.946C43.636,96.593,35.529,99.605,26.133,98.58C16.893,97.575,9.687,93.017,4.616,85.248C0.834,79.457,-0.575,73.042,0.209,66.194C0.997,59.335,4.003,53.512,8.895,48.64C22.216,35.382,35.525,22.112,48.854,8.861C55.544,2.211,63.639,-0.817,73.039,0.189C82.245,1.175,89.427,5.71,94.537,13.401C97.701,18.164,99.157,23.473,99.227,29.42L99.227,29.416ZM65.674,61.949C65.704,61.922,65.833,61.829,65.942,61.721C72.018,55.67,78.148,49.669,84.158,43.556C91.613,35.969,92.339,24.938,85.805,16.691C81.053,10.698,74.67,8.254,67.044,9.19C62.307,9.774,58.398,12.009,55.062,15.346C49.25,21.161,43.419,26.953,37.587,32.749C37.362,32.973,37.063,33.128,36.861,33.267C46.552,42.914,56.095,52.41,65.674,61.945L65.674,61.949ZM9.038,68.792C9.054,69.063,9.019,69.585,9.116,70.084C9.392,71.538,11.081,72.273,12.366,71.53C13.329,70.973,13.515,70.057,13.55,69.055C13.693,65.251,14.963,61.852,17.619,59.115C22.06,54.541,26.619,50.079,31.118,45.562C31.433,45.245,31.751,44.913,31.984,44.534C32.621,43.505,32.311,42.253,31.297,41.584C30.295,40.923,29.201,41.124,28.106,42.21C23.765,46.521,19.416,50.829,15.099,55.163C11.407,58.867,9.345,63.314,9.038,68.792ZM9.038,68.792"/>
</g>
  <g id="Regular-S" transform="matrix(1.0,0.0,0.0,1.0,1401.5165562823179,611.1565758135679)">  <path stroke="none" fill="#000000" stroke-width="1px" stroke-miterlimit="4" stroke-linecap="butt" fill-rule="nonzero" stroke-linejoin="miter" stroke-opacity="1" xmlns:xlink="http://www.w3.org/1999/xlink" stroke-dasharray="none" version="1.1" fill-opacity="1" d="M99.227,29.416C99.118,37.338,96.152,44.321,90.355,50.098C77.019,63.387,63.686,76.68,50.33,89.946C43.636,96.593,35.529,99.605,26.133,98.58C16.893,97.575,9.687,93.017,4.616,85.248C0.834,79.457,-0.575,73.042,0.209,66.194C0.997,59.335,4.003,53.512,8.895,48.64C22.216,35.382,35.525,22.112,48.854,8.861C55.544,2.211,63.639,-0.817,73.039,0.189C82.245,1.175,89.427,5.71,94.537,13.401C97.701,18.164,99.157,23.473,99.227,29.42L99.227,29.416ZM65.674,61.949C65.704,61.922,65.833,61.829,65.942,61.721C72.018,55.67,78.148,49.669,84.158,43.556C91.613,35.969,92.339,24.938,85.805,16.691C81.053,10.698,74.67,8.254,67.044,9.19C62.307,9.774,58.398,12.009,55.062,15.346C49.25,21.161,43.419,26.953,37.587,32.749C37.362,32.973,37.063,33.128,36.861,33.267C46.552,42.914,56.095,52.41,65.674,61.945L65.674,61.949ZM9.038,68.792C9.054,69.063,9.019,69.585,9.116,70.084C9.392,71.538,11.081,72.273,12.366,71.53C13.329,70.973,13.515,70.057,13.55,69.055C13.693,65.251,14.963,61.852,17.619,59.115C22.06,54.541,26.619,50.079,31.118,45.562C31.433,45.245,31.751,44.913,31.984,44.534C32.621,43.505,32.311,42.253,31.297,41.584C30.295,40.923,29.201,41.124,28.106,42.21C23.765,46.521,19.416,50.829,15.099,55.163C11.407,58.867,9.345,63.314,9.038,68.792ZM9.038,68.792"/>
</g>
  <g id="Light-S" transform="matrix(1.0,0.0,0.0,1.0,1104.806556282318,611.1565758135679)">  <path stroke-miterlimit="4" stroke-linecap="butt" fill-rule="nonzero" fill-opacity="1" version="1.1" fill="#000000" xmlns:xlink="http://www.w3.org/1999/xlink" stroke-width="1px" stroke-dasharray="none" stroke="none" stroke-linejoin="miter" stroke-opacity="1" d="M99.227,29.416C99.118,37.338,96.152,44.321,90.355,50.098C77.019,63.387,63.686,76.68,50.33,89.946C43.636,96.593,35.529,99.605,26.133,98.58C16.893,97.575,9.687,93.017,4.616,85.248C0.834,79.457,-0.575,73.042,0.209,66.194C0.997,59.335,4.003,53.512,8.895,48.64C22.216,35.382,35.525,22.112,48.854,8.861C55.544,2.211,63.639,-0.817,73.039,0.189C82.245,1.175,89.427,5.71,94.537,13.401C97.701,18.164,99.157,23.473,99.227,29.42L99.227,29.416ZM65.674,61.949C65.704,61.922,65.833,61.829,65.942,61.721C72.018,55.67,78.148,49.669,84.158,43.556C91.613,35.969,92.339,24.938,85.805,16.691C81.053,10.698,74.67,8.254,67.044,9.19C62.307,9.774,58.398,12.009,55.062,15.346C49.25,21.161,43.419,26.953,37.587,32.749C37.362,32.973,37.063,33.128,36.861,33.267C46.552,42.914,56.095,52.41,65.674,61.945L65.674,61.949ZM9.038,68.792C9.054,69.063,9.019,69.585,9.116,70.084C9.392,71.538,11.081,72.273,12.366,71.53C13.329,70.973,13.515,70.057,13.55,69.055C13.693,65.251,14.963,61.852,17.619,59.115C22.06,54.541,26.619,50.079,31.118,45.562C31.433,45.245,31.751,44.913,31.984,44.534C32.621,43.505,32.311,42.253,31.297,41.584C30.295,40.923,29.201,41.124,28.106,42.21C23.765,46.521,19.416,50.829,15.099,55.163C11.407,58.867,9.345,63.314,9.038,68.792ZM9.038,68.792"/>
</g>
  <g id="Thin-S" transform="matrix(1.0,0.0,0.0,1.0,808.0965562823179,611.1565758135679)">  <path fill="#000000" stroke-opacity="1" stroke-miterlimit="4" stroke-linejoin="miter" stroke-linecap="butt" stroke-width="1px" fill-opacity="1" stroke="none" stroke-dasharray="none" fill-rule="nonzero" xmlns:xlink="http://www.w3.org/1999/xlink" version="1.1" d="M99.227,29.416C99.118,37.338,96.152,44.321,90.355,50.098C77.019,63.387,63.686,76.68,50.33,89.946C43.636,96.593,35.529,99.605,26.133,98.58C16.893,97.575,9.687,93.017,4.616,85.248C0.834,79.457,-0.575,73.042,0.209,66.194C0.997,59.335,4.003,53.512,8.895,48.64C22.216,35.382,35.525,22.112,48.854,8.861C55.544,2.211,63.639,-0.817,73.039,0.189C82.245,1.175,89.427,5.71,94.537,13.401C97.701,18.164,99.157,23.473,99.227,29.42L99.227,29.416ZM65.674,61.949C65.704,61.922,65.833,61.829,65.942,61.721C72.018,55.67,78.148,49.669,84.158,43.556C91.613,35.969,92.339,24.938,85.805,16.691C81.053,10.698,74.67,8.254,67.044,9.19C62.307,9.774,58.398,12.009,55.062,15.346C49.25,21.161,43.419,26.953,37.587,32.749C37.362,32.973,37.063,33.128,36.861,33.267C46.552,42.914,56.095,52.41,65.674,61.945L65.674,61.949ZM9.038,68.792C9.054,69.063,9.019,69.585,9.116,70.084C9.392,71.538,11.081,72.273,12.366,71.53C13.329,70.973,13.515,70.057,13.55,69.055C13.693,65.251,14.963,61.852,17.619,59.115C22.06,54.541,26.619,50.079,31.118,45.562C31.433,45.245,31.751,44.913,31.984,44.534C32.621,43.505,32.311,42.253,31.297,41.584C30.295,40.923,29.201,41.124,28.106,42.21C23.765,46.521,19.416,50.829,15.099,55.163C11.407,58.867,9.345,63.314,9.038,68.792ZM9.038,68.792"/>
</g>
  <g id="Ultralight-S" transform="matrix(1.0,0.0,0.0,1.0,511.3865562823179,611.1565758135679)">  <path xmlns:xlink="http://www.w3.org/1999/xlink" fill-opacity="1" stroke-dasharray="none" fill-rule="nonzero" stroke-opacity="1" stroke-linecap="butt" stroke-linejoin="miter" stroke-width="1px" stroke-miterlimit="4" stroke="none" version="1.1" fill="#000000" d="M99.227,29.416C99.118,37.338,96.152,44.321,90.355,50.098C77.019,63.387,63.686,76.68,50.33,89.946C43.636,96.593,35.529,99.605,26.133,98.58C16.893,97.575,9.687,93.017,4.616,85.248C0.834,79.457,-0.575,73.042,0.209,66.194C0.997,59.335,4.003,53.512,8.895,48.64C22.216,35.382,35.525,22.112,48.854,8.861C55.544,2.211,63.639,-0.817,73.039,0.189C82.245,1.175,89.427,5.71,94.537,13.401C97.701,18.164,99.157,23.473,99.227,29.42L99.227,29.416ZM65.674,61.949C65.704,61.922,65.833,61.829,65.942,61.721C72.018,55.67,78.148,49.669,84.158,43.556C91.613,35.969,92.339,24.938,85.805,16.691C81.053,10.698,74.67,8.254,67.044,9.19C62.307,9.774,58.398,12.009,55.062,15.346C49.25,21.161,43.419,26.953,37.587,32.749C37.362,32.973,37.063,33.128,36.861,33.267C46.552,42.914,56.095,52.41,65.674,61.945L65.674,61.949ZM9.038,68.792C9.054,69.063,9.019,69.585,9.116,70.084C9.392,71.538,11.081,72.273,12.366,71.53C13.329,70.973,13.515,70.057,13.55,69.055C13.693,65.251,14.963,61.852,17.619,59.115C22.06,54.541,26.619,50.079,31.118,45.562C31.433,45.245,31.751,44.913,31.984,44.534C32.621,43.505,32.311,42.253,31.297,41.584C30.295,40.923,29.201,41.124,28.106,42.21C23.765,46.521,19.416,50.829,15.099,55.163C11.407,58.867,9.345,63.314,9.038,68.792ZM9.038,68.792"/>
</g>
 </g>
</svg>
