<?xml version="1.0" encoding="UTF-8"?>
<!-- Generator: CustomSymbols v2.7.2.48 by @serious_bret https://bretlester.com/app_content/CustomSymbols/ -->
<!-- Guides: Left/Right 0.11/0.11 Cap/Base 0.222/0.222 -->
<!-- Settings: RefScale 1.0 Min/Max Stroke Scales 0.5/2.21 -->
<!DOCTYPE svg
PUBLIC "-//W3C//DTD SVG 1.1//EN"
       "http://www.w3.org/Graphics/SVG/1.1/DTD/svg11.dtd">
<svg version="1.1" xmlns="http://www.w3.org/2000/svg" xmlns:xlink="http://www.w3.org/1999/xlink" width="3300" height="2200">
<![CDATA[<?xml version="1.0" encoding="UTF-8"?>
<svg width="96px" height="96px" viewBox="0 0 96 96" version="1.1" xmlns="http://www.w3.org/2000/svg" xmlns:xlink="http://www.w3.org/1999/xlink">
    <title>icon/login/faceid@1x</title>
    <g id="icon/login/faceid" stroke="none" stroke-width="1" fill="none" fill-rule="evenodd">
        <path d="M11.2686415,33.9856997 C13.4341164,33.9856997 14.578141,32.7599591 14.578141,30.6353422 L14.578141,20.9928498 C14.578141,16.7436159 16.825332,14.578141 20.9111338,14.578141 L30.7987743,14.578141 C32.9642492,14.578141 34.1491318,13.3932584 34.1491318,11.2686415 C34.1491318,9.14402451 32.9642492,8 30.7987743,8 L20.8294178,8 C12.2900919,8 8,12.2083759 8,20.6251277 L8,30.6353422 C8,32.7599591 9.18488253,33.9856997 11.2686415,33.9856997 Z M84.6905005,33.9856997 C86.8559755,33.9856997 88,32.7599591 88,30.6353422 L88,20.6251277 C88,12.2083759 83.7099081,8 75.1705822,8 L65.1603677,8 C63.0357508,8 61.8508682,9.14402451 61.8508682,11.2686415 C61.8508682,13.3932584 63.0357508,14.578141 65.1603677,14.578141 L75.0480082,14.578141 C79.092952,14.578141 81.421859,16.7436159 81.421859,20.9928498 L81.421859,30.6353422 C81.421859,32.7599591 82.6067416,33.9856997 84.6905005,33.9856997 Z M44.7313585,54.8641471 L45.0582227,54.8641471 C49.1848825,54.8641471 51.4320735,52.6169561 51.4320735,48.4902962 L51.4320735,35.6200204 C51.4320735,34.0265577 50.3697651,33.0051073 48.8171604,33.0051073 C47.1828396,33.0051073 46.1205312,34.0265577 46.1205312,35.6200204 L46.1205312,48.8580184 C46.1205312,49.2665986 45.875383,49.4708887 45.5076609,49.4708887 L44.0776302,49.4708887 C42.6067416,49.4708887 41.4627171,50.6149132 41.4627171,52.0858018 C41.4627171,53.8426966 42.6475996,54.8641471 44.7313585,54.8641471 Z M32.433095,45.2216547 C34.3534219,45.2216547 35.7425945,43.8733401 35.7425945,41.9121553 L35.7425945,36.3554648 C35.7425945,34.3942799 34.3534219,33.0459653 32.433095,33.0459653 C30.5127681,33.0459653 29.1644535,34.3942799 29.1644535,36.3554648 L29.1644535,41.9121553 C29.1644535,43.8733401 30.5127681,45.2216547 32.433095,45.2216547 Z M63.4443309,45.2216547 C65.3237998,45.2216547 66.6721144,43.8733401 66.6721144,41.9121553 L66.6721144,36.3554648 C66.6721144,34.3942799 65.3237998,33.0459653 63.4443309,33.0459653 C61.4831461,33.0459653 60.1348315,34.3942799 60.1348315,36.3554648 L60.1348315,41.9121553 C60.1348315,43.8733401 61.4831461,45.2216547 63.4443309,45.2216547 Z M47.7548519,68.5924413 C52.6986721,68.5924413 57.6833504,66.4678243 61.237998,62.9131767 C61.7282942,62.4637385 61.9734423,61.7691522 61.9734423,60.9519918 C61.9734423,59.3993871 60.8294178,58.2962206 59.3176711,58.2962206 C58.5413687,58.2962206 57.9693565,58.5822268 57.1930541,59.3993871 C54.9458631,61.7282942 51.3912155,63.3217569 47.7548519,63.3217569 C44.3227783,63.3217569 40.7272727,61.8100102 38.3575077,59.3993871 C37.7037794,58.7865169 37.1726251,58.2962206 36.1920327,58.2962206 C34.680286,58.2962206 33.5362615,59.3993871 33.5362615,60.9519918 C33.5362615,61.6465781 33.7814096,62.3003064 34.3125638,62.8723187 C37.6220633,66.6312564 42.8110317,68.5924413 47.7548519,68.5924413 Z M20.8294178,87.959142 L30.7987743,87.959142 C32.9642492,87.959142 34.1491318,86.7742594 34.1491318,84.6905005 C34.1491318,82.5658836 32.9642492,81.381001 30.7987743,81.381001 L20.9111338,81.381001 C16.825332,81.381001 14.578141,79.215526 14.578141,74.9662921 L14.578141,65.3237998 C14.578141,63.1583248 13.3932584,61.9734423 11.2686415,61.9734423 C9.14402451,61.9734423 8,63.1583248 8,65.3237998 L8,75.2931563 C8,83.7507661 12.2900919,87.959142 20.8294178,87.959142 Z M65.1603677,87.959142 L75.1705822,87.959142 C83.7099081,87.959142 88,83.7099081 88,75.2931563 L88,65.3237998 C88,63.1583248 86.8151175,61.9734423 84.6905005,61.9734423 C82.5658836,61.9734423 81.421859,63.1583248 81.421859,65.3237998 L81.421859,74.9662921 C81.421859,79.215526 79.092952,81.381001 75.0480082,81.381001 L65.1603677,81.381001 C63.0357508,81.381001 61.8508682,82.5658836 61.8508682,84.6905005 C61.8508682,86.7742594 63.0357508,87.959142 65.1603677,87.959142 Z" id="Shape" fill="#352E33" fill-rule="nonzero"></path>
    </g>
</svg>]]>
 <g id="Notes">
  <rect height="2200" id="artboard" style="fill:white;opacity:1" width="3300" x="0" y="0"/>
  <line id="" style="fill:none;stroke:black;opacity:1;stroke-width:0.5;" x1="263" x2="3036" y1="292" y2="292"/>
  <text id="reftext1" style="stroke:none;fill:black;font-family:-apple-system,&quot;SF Pro Display&quot;,&quot;SF Pro Text&quot;,Helvetica,sans-serif;font-weight:bold;" transform="matrix(1 0 0 1 263 322)">Weight/Scale Variations</text>
  <text id="reftext2" style="stroke:none;fill:black;font-family:-apple-system,&quot;SF Pro Display&quot;,&quot;SF Pro Text&quot;,Helvetica,sans-serif;text-anchor:middle;" transform="matrix(1 0 0 1 559.711 322)">Ultralight</text>
  <text style="stroke:none;fill:black;font-family:-apple-system,&quot;SF Pro Display&quot;,&quot;SF Pro Text&quot;,Helvetica,sans-serif;text-anchor:middle;" transform="matrix(1 0 0 1 856.422 322)">Thin</text>
  <text style="stroke:none;fill:black;font-family:-apple-system,&quot;SF Pro Display&quot;,&quot;SF Pro Text&quot;,Helvetica,sans-serif;text-anchor:middle;" transform="matrix(1 0 0 1 1153.13 322)">Light</text>
  <text style="stroke:none;fill:black;font-family:-apple-system,&quot;SF Pro Display&quot;,&quot;SF Pro Text&quot;,Helvetica,sans-serif;text-anchor:middle;" transform="matrix(1 0 0 1 1449.84 322)">Regular</text>
  <text style="stroke:none;fill:black;font-family:-apple-system,&quot;SF Pro Display&quot;,&quot;SF Pro Text&quot;,Helvetica,sans-serif;text-anchor:middle;" transform="matrix(1 0 0 1 1746.56 322)">Medium</text>
  <text style="stroke:none;fill:black;font-family:-apple-system,&quot;SF Pro Display&quot;,&quot;SF Pro Text&quot;,Helvetica,sans-serif;text-anchor:middle;" transform="matrix(1 0 0 1 2043.27 322)">Semibold</text>
  <text style="stroke:none;fill:black;font-family:-apple-system,&quot;SF Pro Display&quot;,&quot;SF Pro Text&quot;,Helvetica,sans-serif;text-anchor:middle;" transform="matrix(1 0 0 1 2339.98 322)">Bold</text>
  <text style="stroke:none;fill:black;font-family:-apple-system,&quot;SF Pro Display&quot;,&quot;SF Pro Text&quot;,Helvetica,sans-serif;text-anchor:middle;" transform="matrix(1 0 0 1 2636.69 322)">Heavy</text>
  <text style="stroke:none;fill:black;font-family:-apple-system,&quot;SF Pro Display&quot;,&quot;SF Pro Text&quot;,Helvetica,sans-serif;text-anchor:middle;" transform="matrix(1 0 0 1 2933.4 322)">Black</text>
  <line id="" style="fill:none;stroke:black;opacity:1;stroke-width:0.5;" x1="263" x2="3036" y1="1903" y2="1903"/>
  <g id="" transform="matrix(1 0 0 1 263 1933)">
   <path d="M9.24805 0.830078C13.5547 0.830078 17.1387-2.74414 17.1387-7.05078C17.1387-11.3574 13.5449-14.9316 9.23828-14.9316C4.94141-14.9316 1.36719-11.3574 1.36719-7.05078C1.36719-2.74414 4.95117 0.830078 9.24805 0.830078ZM9.24805-0.654297C5.70312-0.654297 2.87109-3.49609 2.87109-7.05078C2.87109-10.6055 5.69336-13.4473 9.23828-13.4473C12.793-13.4473 15.6348-10.6055 15.6445-7.05078C15.6543-3.49609 12.8027-0.654297 9.24805-0.654297ZM6.39648-6.31836L8.50586-6.31836L8.50586-4.19922C8.50586-3.75977 8.79883-3.45703 9.22852-3.45703C9.67773-3.45703 9.9707-3.75977 9.9707-4.19922L9.9707-6.31836L12.0996-6.31836C12.5391-6.31836 12.8418-6.61133 12.8418-7.04102C12.8418-7.48047 12.5391-7.7832 12.0996-7.7832L9.9707-7.7832L9.9707-9.89258C9.9707-10.3418 9.67773-10.6445 9.22852-10.6445C8.79883-10.6445 8.50586-10.3418 8.50586-9.89258L8.50586-7.7832L6.39648-7.7832C5.94727-7.7832 5.64453-7.48047 5.64453-7.04102C5.64453-6.61133 5.94727-6.31836 6.39648-6.31836Z"/>
  </g>
  <g id="" transform="matrix(1 0 0 1 281.506 1933)">
   <path d="M11.709 2.91016C17.1582 2.91016 21.6699-1.61133 21.6699-7.05078C21.6699-12.5 17.1484-17.0117 11.6992-17.0117C6.25977-17.0117 1.74805-12.5 1.74805-7.05078C1.74805-1.61133 6.26953 2.91016 11.709 2.91016ZM11.709 1.25C7.09961 1.25 3.41797-2.44141 3.41797-7.05078C3.41797-11.6602 7.08984-15.3516 11.6992-15.3516C16.3086-15.3516 20-11.6602 20.0098-7.05078C20.0195-2.44141 16.3184 1.25 11.709 1.25ZM7.98828-6.23047L10.8789-6.23047L10.8789-3.32031C10.8789-2.83203 11.2109-2.5 11.6895-2.5C12.1777-2.5 12.5195-2.83203 12.5195-3.32031L12.5195-6.23047L15.4297-6.23047C15.918-6.23047 16.25-6.5625 16.25-7.04102C16.25-7.5293 15.918-7.87109 15.4297-7.87109L12.5195-7.87109L12.5195-10.7617C12.5195-11.2695 12.1777-11.6016 11.6895-11.6016C11.2109-11.6016 10.8789-11.2598 10.8789-10.7617L10.8789-7.87109L7.98828-7.87109C7.48047-7.87109 7.14844-7.5293 7.14844-7.04102C7.14844-6.5625 7.49023-6.23047 7.98828-6.23047Z"/>
  </g>
  <g id="" transform="matrix(1 0 0 1 304.924 1933)">
   <path d="M14.9707 5.66406C21.9336 5.66406 27.6953-0.0976562 27.6953-7.05078C27.6953-14.0137 21.9238-19.7754 14.9609-19.7754C8.00781-19.7754 2.25586-14.0137 2.25586-7.05078C2.25586-0.0976562 8.01758 5.66406 14.9707 5.66406ZM14.9707 3.84766C8.93555 3.84766 4.08203-1.01562 4.08203-7.05078C4.08203-13.0957 8.92578-17.9492 14.9609-17.9492C21.0059-17.9492 25.8594-13.0957 25.8691-7.05078C25.8789-1.01562 21.0156 3.84766 14.9707 3.84766ZM10.0586-6.14258L14.0625-6.14258L14.0625-2.12891C14.0625-1.5918 14.4336-1.2207 14.9512-1.2207C15.4883-1.2207 15.8594-1.5918 15.8594-2.12891L15.8594-6.14258L19.8828-6.14258C20.4102-6.14258 20.791-6.51367 20.791-7.03125C20.791-7.56836 20.4199-7.94922 19.8828-7.94922L15.8594-7.94922L15.8594-11.9531C15.8594-12.5098 15.4883-12.8809 14.9512-12.8809C14.4336-12.8809 14.0625-12.5 14.0625-11.9531L14.0625-7.94922L10.0586-7.94922C9.50195-7.94922 9.13086-7.56836 9.13086-7.03125C9.13086-6.51367 9.51172-6.14258 10.0586-6.14258Z"/>
  </g>
  <text style="stroke:none;fill:black;font-family:-apple-system,&quot;SF Pro Display&quot;,&quot;SF Pro Text&quot;,Helvetica,sans-serif;font-weight:bold;" transform="matrix(1 0 0 1 263 1953)">Design Variations</text>
  <text style="stroke:none;fill:black;font-family:-apple-system,&quot;SF Pro Display&quot;,&quot;SF Pro Text&quot;,Helvetica,sans-serif;" transform="matrix(1 0 0 1 263 1971)">Symbols are supported in up to nine weights and three scales.</text>
  <text style="stroke:none;fill:black;font-family:-apple-system,&quot;SF Pro Display&quot;,&quot;SF Pro Text&quot;,Helvetica,sans-serif;" transform="matrix(1 0 0 1 263 1989)">For optimal layout with text and other symbols, vertically align</text>
  <text style="stroke:none;fill:black;font-family:-apple-system,&quot;SF Pro Display&quot;,&quot;SF Pro Text&quot;,Helvetica,sans-serif;" transform="matrix(1 0 0 1 263 2007)">symbols with the adjacent text.</text>
  <line id="" style="fill:none;stroke:#00AEEF;stroke-width:0.5;opacity:1.0;" x1="776" x2="776" y1="1919" y2="1933"/>
  <g id="" transform="matrix(1 0 0 1 776 1933)">
   <path d="M3.31055 0.126953C3.82812 0.126953 4.08203-0.0683594 4.26758-0.605469L5.52734-4.0625L11.2891-4.0625L12.5488-0.605469C12.7344-0.0683594 12.9883 0.126953 13.4961 0.126953C14.0137 0.126953 14.3457-0.185547 14.3457-0.673828C14.3457-0.839844 14.3164-0.986328 14.2383-1.20117L9.6582-13.3887C9.43359-13.9941 9.0332-14.2871 8.4082-14.2871C7.80273-14.2871 7.39258-13.9941 7.17773-13.3984L2.59766-1.19141C2.51953-0.976562 2.49023-0.830078 2.49023-0.664062C2.49023-0.175781 2.80273 0.126953 3.31055 0.126953ZM6.00586-5.53711L8.37891-12.1094L8.42773-12.1094L10.8008-5.53711Z"/>
  </g>
  <line id="" style="fill:none;stroke:#00AEEF;stroke-width:0.5;opacity:1.0;" x1="792.836" x2="792.836" y1="1919" y2="1933"/>
  <text style="stroke:none;fill:black;font-family:-apple-system,&quot;SF Pro Display&quot;,&quot;SF Pro Text&quot;,Helvetica,sans-serif;font-weight:bold;" transform="matrix(1 0 0 1 776 1953)">Margins</text>
  <text style="stroke:none;fill:black;font-family:-apple-system,&quot;SF Pro Display&quot;,&quot;SF Pro Text&quot;,Helvetica,sans-serif;" transform="matrix(1 0 0 1 776 1971)">Leading and trailing margins on the left and right side of each symbol</text>
  <text style="stroke:none;fill:black;font-family:-apple-system,&quot;SF Pro Display&quot;,&quot;SF Pro Text&quot;,Helvetica,sans-serif;" transform="matrix(1 0 0 1 776 1989)">can be adjusted by modifying the x-location of the margin guidelines.</text>
  <text style="stroke:none;fill:black;font-family:-apple-system,&quot;SF Pro Display&quot;,&quot;SF Pro Text&quot;,Helvetica,sans-serif;" transform="matrix(1 0 0 1 776 2007)">Modifications are automatically applied proportionally to all</text>
  <text style="stroke:none;fill:black;font-family:-apple-system,&quot;SF Pro Display&quot;,&quot;SF Pro Text&quot;,Helvetica,sans-serif;" transform="matrix(1 0 0 1 776 2025)">scales and weights.</text>
  <g id="" transform="matrix(1 0 0 1 1289 1933)">
   <path d="M2.8418 1.86523L4.54102 3.57422C5.40039 4.44336 6.38672 4.38477 7.31445 3.35938L17.4902-7.85156C17.7539-7.76367 18.0273-7.7832 18.3398-7.8418L19.4043-8.03711L20.0684-7.36328L20.0293-6.80664C19.9902-6.30859 20.1172-5.92773 20.6055-5.44922L21.3672-4.70703C21.8457-4.22852 22.4609-4.19922 22.9297-4.66797L25.8398-7.58789C26.3086-8.05664 26.2891-8.65234 25.8105-9.13086L25.0391-9.89258C24.5605-10.3711 24.1895-10.5273 23.7109-10.4883L23.1348-10.4395L22.4902-11.0742L22.7344-12.1973C22.8613-12.7637 22.7051-13.2031 22.1191-13.7891L19.9219-15.9766C16.582-19.2969 12.1484-19.2188 9.25781-16.3281C8.83789-15.918 8.80859-15.3418 9.04297-14.9512C9.27734-14.5898 9.73633-14.3555 10.3809-14.5215C11.8457-14.8633 13.3691-14.9219 14.7949-13.9844L14.209-12.5293C14.0137-12.0508 13.9844-11.6504 14.1113-11.2891L3.04688-0.898438C2.06055 0.0195312 1.98242 0.996094 2.8418 1.86523ZM10.752-15.957C13.1836-17.7344 16.4746-17.4316 18.7012-15.2051L21.1328-12.793C21.3672-12.5586 21.4062-12.373 21.3379-12.0312L21.0156-10.5469L22.5195-9.0625L23.5059-9.12109C23.7598-9.13086 23.8379-9.11133 24.0332-8.91602L24.6094-8.33984L22.168-5.89844L21.5918-6.47461C21.3965-6.66992 21.3672-6.74805 21.377-7.01172L21.4453-7.98828L19.9512-9.47266L18.4277-9.21875C18.1055-9.15039 17.959-9.17969 17.7148-9.41406L15.7129-11.416C15.459-11.6504 15.4297-11.8164 15.5859-12.1875L16.4648-14.2773C14.9023-15.7324 12.8711-16.3574 10.8398-15.7617C10.6836-15.7227 10.625-15.8496 10.752-15.957ZM5.27344 2.30469L4.10156 1.14258C3.63281 0.683594 3.74023 0.341797 4.14062-0.0195312L14.9512-10.1953L16.416-8.71094L6.42578 2.27539C6.07422 2.67578 5.74219 2.77344 5.27344 2.30469Z"/>
  </g>
  <text style="stroke:none;fill:black;font-family:-apple-system,&quot;SF Pro Display&quot;,&quot;SF Pro Text&quot;,Helvetica,sans-serif;font-weight:bold;" transform="matrix(1 0 0 1 1289 1953)">Exporting</text>
  <text style="stroke:none;fill:black;font-family:-apple-system,&quot;SF Pro Display&quot;,&quot;SF Pro Text&quot;,Helvetica,sans-serif;" transform="matrix(1 0 0 1 1289 1971)">Symbols should be outlined when exporting to ensure the</text>
  <text style="stroke:none;fill:black;font-family:-apple-system,&quot;SF Pro Display&quot;,&quot;SF Pro Text&quot;,Helvetica,sans-serif;" transform="matrix(1 0 0 1 1289 1989)">design is preserved when submitting to Xcode.</text>
  <text id="template-version" style="stroke:none;fill:black;font-family:-apple-system,&quot;SF Pro Display&quot;,&quot;SF Pro Text&quot;,Helvetica,sans-serif;text-anchor:end;" transform="matrix(1 0 0 1 3036 1933)">Template v.2.0</text>
  <text style="stroke:none;fill:black;font-family:-apple-system,&quot;SF Pro Display&quot;,&quot;SF Pro Text&quot;,Helvetica,sans-serif;text-anchor:end;" transform="matrix(1 0 0 1 3036 1951)">Requires Xcode 12 or greater</text>
  <text style="stroke:none;fill:black;font-family:-apple-system,&quot;SF Pro Display&quot;,&quot;SF Pro Text&quot;,Helvetica,sans-serif;" transform="matrix(1 0 0 1 263 726)">Small</text>
  <text style="stroke:none;fill:black;font-family:-apple-system,&quot;SF Pro Display&quot;,&quot;SF Pro Text&quot;,Helvetica,sans-serif;" transform="matrix(1 0 0 1 263 1156)">Medium</text>
  <text style="stroke:none;fill:black;font-family:-apple-system,&quot;SF Pro Display&quot;,&quot;SF Pro Text&quot;,Helvetica,sans-serif;" transform="matrix(1 0 0 1 263 1586)">Large</text>
 </g>
 <g id="Guides">
  <g id="H-reference" style="fill:#27AAE1;stroke:none;" transform="matrix(1 0 0 1 339 696)">
   <path d="M0.976562 0L3.66211 0L12.9883-24.4629L45.752-24.4629L55.127 0L57.7637 0L30.6152-70.459L28.125-70.459ZM29.3457-67.1387L29.4434-67.1387L44.873-26.709L13.8672-26.709Z"/>
  </g>
  <line id="Baseline-S" style="fill:none;stroke:#27AAE1;opacity:1;stroke-width:0.5;" x1="263" x2="3036" y1="696" y2="696"/>
  <line id="Capline-S" style="fill:none;stroke:#27AAE1;opacity:1;stroke-width:0.5;" x1="263" x2="3036" y1="625.541" y2="625.541"/>
  <g id="H-reference" style="fill:#27AAE1;stroke:none;" transform="matrix(1 0 0 1 339 1126)">
   <path d="M0.976562 0L3.66211 0L12.9883-24.4629L45.752-24.4629L55.127 0L57.7637 0L30.6152-70.459L28.125-70.459ZM29.3457-67.1387L29.4434-67.1387L44.873-26.709L13.8672-26.709Z"/>
  </g>
  <line id="Baseline-M" style="fill:none;stroke:#27AAE1;opacity:1;stroke-width:0.5;" x1="263" x2="3036" y1="1126" y2="1126"/>
  <line id="Capline-M" style="fill:none;stroke:#27AAE1;opacity:1;stroke-width:0.5;" x1="263" x2="3036" y1="1055.54" y2="1055.54"/>
  <g id="H-reference" style="fill:#27AAE1;stroke:none;" transform="matrix(1 0 0 1 339 1556)">
   <path d="M0.976562 0L3.66211 0L12.9883-24.4629L45.752-24.4629L55.127 0L57.7637 0L30.6152-70.459L28.125-70.459ZM29.3457-67.1387L29.4434-67.1387L44.873-26.709L13.8672-26.709Z"/>
  </g>
  <line id="Baseline-L" style="fill:none;stroke:#27AAE1;opacity:1;stroke-width:0.5;" x1="263" x2="3036" y1="1556" y2="1556"/>
  <line id="Capline-L" style="fill:none;stroke:#27AAE1;opacity:1;stroke-width:0.5;" x1="263" x2="3036" y1="1485.54" y2="1485.54"/>
  <line id="left-margin" x1="1401.7066461049908" x2="1401.7066461049908" y1="1030.79" y2="1150.12" style="fill:none;stroke:#00AEEF;stroke-width:0.5;opacity:1.0;"/>
  <line id="right-margin" x1="1500.553353895009" x2="1500.553353895009" y1="1030.79" y2="1150.12" style="fill:none;stroke:#00AEEF;stroke-width:0.5;opacity:1.0;"/>
 </g>
 <g id="Symbols">
  <g id="Black-L" transform="matrix(1.0,0.0,0.0,1.0,2852.941376250562,1439.031395781812)">  <path stroke-linecap="butt" fill="#000000" stroke-opacity="1" stroke-width="1px" stroke-miterlimit="4" xmlns:xlink="http://www.w3.org/1999/xlink" fill-opacity="1" fill-rule="nonzero" stroke="none" stroke-dasharray="none" stroke-linejoin="miter" version="1.1" d="M19.189,57.874C22.877,57.874,24.825,55.787,24.825,52.169L24.825,35.748C24.825,28.513,28.652,24.825,35.609,24.825L52.447,24.825C56.134,24.825,58.152,22.807,58.152,19.189C58.152,15.571,56.134,13.623,52.447,13.623L35.47,13.623C20.929,13.623,13.623,20.789,13.623,35.122L13.623,52.169C13.623,55.787,15.641,57.874,19.189,57.874ZM144.218,57.874C147.906,57.874,149.854,55.787,149.854,52.169L149.854,35.122C149.854,20.789,142.549,13.623,128.007,13.623L110.961,13.623C107.343,13.623,105.325,15.571,105.325,19.189C105.325,22.807,107.343,24.825,110.961,24.825L127.798,24.825C134.686,24.825,138.652,28.513,138.652,35.748L138.652,52.169C138.652,55.787,140.67,57.874,144.218,57.874ZM76.172,93.427L76.729,93.427C83.756,93.427,87.583,89.601,87.583,82.574L87.583,60.657C87.583,57.943,85.774,56.204,83.13,56.204C80.347,56.204,78.538,57.943,78.538,60.657L78.538,83.2C78.538,83.895,78.121,84.243,77.494,84.243L75.059,84.243C72.555,84.243,70.606,86.192,70.606,88.696C70.606,91.688,72.624,93.427,76.172,93.427ZM55.23,77.007C58.5,77.007,60.866,74.711,60.866,71.372L60.866,61.909C60.866,58.57,58.5,56.274,55.23,56.274C51.96,56.274,49.664,58.57,49.664,61.909L49.664,71.372C49.664,74.711,51.96,77.007,55.23,77.007ZM108.039,77.007C111.239,77.007,113.535,74.711,113.535,71.372L113.535,61.909C113.535,58.57,111.239,56.274,108.039,56.274C104.699,56.274,102.403,58.57,102.403,61.909L102.403,71.372C102.403,74.711,104.699,77.007,108.039,77.007ZM81.321,116.805C89.74,116.805,98.228,113.187,104.281,107.134C105.116,106.369,105.534,105.186,105.534,103.794C105.534,101.151,103.586,99.272,101.011,99.272C99.689,99.272,98.715,99.759,97.393,101.151C93.567,105.116,87.513,107.83,81.321,107.83C75.477,107.83,69.354,105.256,65.319,101.151C64.205,100.107,63.301,99.272,61.631,99.272C59.057,99.272,57.108,101.151,57.108,103.794C57.108,104.977,57.526,106.09,58.43,107.065C64.066,113.466,72.902,116.805,81.321,116.805ZM35.47,149.785L52.447,149.785C56.134,149.785,58.152,147.767,58.152,144.218C58.152,140.6,56.134,138.583,52.447,138.583L35.609,138.583C28.652,138.583,24.825,134.895,24.825,127.659L24.825,111.239C24.825,107.552,22.807,105.534,19.189,105.534C15.571,105.534,13.623,107.552,13.623,111.239L13.623,128.216C13.623,142.618,20.929,149.785,35.47,149.785ZM110.961,149.785L128.007,149.785C142.549,149.785,149.854,142.549,149.854,128.216L149.854,111.239C149.854,107.552,147.836,105.534,144.218,105.534C140.6,105.534,138.652,107.552,138.652,111.239L138.652,127.659C138.652,134.895,134.686,138.583,127.798,138.583L110.961,138.583C107.343,138.583,105.325,140.6,105.325,144.218C105.325,147.767,107.343,149.785,110.961,149.785ZM110.961,149.785"/>
</g>
  <g id="Heavy-L" transform="matrix(1.0,0.0,0.0,1.0,2556.231376250562,1439.031395781812)">  <path stroke-dasharray="none" fill-rule="nonzero" stroke-linecap="butt" xmlns:xlink="http://www.w3.org/1999/xlink" fill="#000000" fill-opacity="1" stroke-linejoin="miter" stroke-width="1px" version="1.1" stroke-miterlimit="4" stroke="none" stroke-opacity="1" d="M19.189,57.874C22.877,57.874,24.825,55.787,24.825,52.169L24.825,35.748C24.825,28.513,28.652,24.825,35.609,24.825L52.447,24.825C56.134,24.825,58.152,22.807,58.152,19.189C58.152,15.571,56.134,13.623,52.447,13.623L35.47,13.623C20.929,13.623,13.623,20.789,13.623,35.122L13.623,52.169C13.623,55.787,15.641,57.874,19.189,57.874ZM144.218,57.874C147.906,57.874,149.854,55.787,149.854,52.169L149.854,35.122C149.854,20.789,142.549,13.623,128.007,13.623L110.961,13.623C107.343,13.623,105.325,15.571,105.325,19.189C105.325,22.807,107.343,24.825,110.961,24.825L127.798,24.825C134.686,24.825,138.652,28.513,138.652,35.748L138.652,52.169C138.652,55.787,140.67,57.874,144.218,57.874ZM76.172,93.427L76.729,93.427C83.756,93.427,87.583,89.601,87.583,82.574L87.583,60.657C87.583,57.943,85.774,56.204,83.13,56.204C80.347,56.204,78.538,57.943,78.538,60.657L78.538,83.2C78.538,83.895,78.121,84.243,77.494,84.243L75.059,84.243C72.555,84.243,70.606,86.192,70.606,88.696C70.606,91.688,72.624,93.427,76.172,93.427ZM55.23,77.007C58.5,77.007,60.866,74.711,60.866,71.372L60.866,61.909C60.866,58.57,58.5,56.274,55.23,56.274C51.96,56.274,49.664,58.57,49.664,61.909L49.664,71.372C49.664,74.711,51.96,77.007,55.23,77.007ZM108.039,77.007C111.239,77.007,113.535,74.711,113.535,71.372L113.535,61.909C113.535,58.57,111.239,56.274,108.039,56.274C104.699,56.274,102.403,58.57,102.403,61.909L102.403,71.372C102.403,74.711,104.699,77.007,108.039,77.007ZM81.321,116.805C89.74,116.805,98.228,113.187,104.281,107.134C105.116,106.369,105.534,105.186,105.534,103.794C105.534,101.151,103.586,99.272,101.011,99.272C99.689,99.272,98.715,99.759,97.393,101.151C93.567,105.116,87.513,107.83,81.321,107.83C75.477,107.83,69.354,105.256,65.319,101.151C64.205,100.107,63.301,99.272,61.631,99.272C59.057,99.272,57.108,101.151,57.108,103.794C57.108,104.977,57.526,106.09,58.43,107.065C64.066,113.466,72.902,116.805,81.321,116.805ZM35.47,149.785L52.447,149.785C56.134,149.785,58.152,147.767,58.152,144.218C58.152,140.6,56.134,138.583,52.447,138.583L35.609,138.583C28.652,138.583,24.825,134.895,24.825,127.659L24.825,111.239C24.825,107.552,22.807,105.534,19.189,105.534C15.571,105.534,13.623,107.552,13.623,111.239L13.623,128.216C13.623,142.618,20.929,149.785,35.47,149.785ZM110.961,149.785L128.007,149.785C142.549,149.785,149.854,142.549,149.854,128.216L149.854,111.239C149.854,107.552,147.836,105.534,144.218,105.534C140.6,105.534,138.652,107.552,138.652,111.239L138.652,127.659C138.652,134.895,134.686,138.583,127.798,138.583L110.961,138.583C107.343,138.583,105.325,140.6,105.325,144.218C105.325,147.767,107.343,149.785,110.961,149.785ZM110.961,149.785"/>
</g>
  <g id="Bold-L" transform="matrix(1.0,0.0,0.0,1.0,2259.521376250562,1439.031395781812)">  <path stroke-width="1px" xmlns:xlink="http://www.w3.org/1999/xlink" version="1.1" fill="#000000" stroke-dasharray="none" stroke-linejoin="miter" stroke-miterlimit="4" fill-rule="nonzero" stroke-opacity="1" stroke="none" stroke-linecap="butt" fill-opacity="1" d="M19.189,57.874C22.877,57.874,24.825,55.787,24.825,52.169L24.825,35.748C24.825,28.513,28.652,24.825,35.609,24.825L52.447,24.825C56.134,24.825,58.152,22.807,58.152,19.189C58.152,15.571,56.134,13.623,52.447,13.623L35.47,13.623C20.929,13.623,13.623,20.789,13.623,35.122L13.623,52.169C13.623,55.787,15.641,57.874,19.189,57.874ZM144.218,57.874C147.906,57.874,149.854,55.787,149.854,52.169L149.854,35.122C149.854,20.789,142.549,13.623,128.007,13.623L110.961,13.623C107.343,13.623,105.325,15.571,105.325,19.189C105.325,22.807,107.343,24.825,110.961,24.825L127.798,24.825C134.686,24.825,138.652,28.513,138.652,35.748L138.652,52.169C138.652,55.787,140.67,57.874,144.218,57.874ZM76.172,93.427L76.729,93.427C83.756,93.427,87.583,89.601,87.583,82.574L87.583,60.657C87.583,57.943,85.774,56.204,83.13,56.204C80.347,56.204,78.538,57.943,78.538,60.657L78.538,83.2C78.538,83.895,78.121,84.243,77.494,84.243L75.059,84.243C72.555,84.243,70.606,86.192,70.606,88.696C70.606,91.688,72.624,93.427,76.172,93.427ZM55.23,77.007C58.5,77.007,60.866,74.711,60.866,71.372L60.866,61.909C60.866,58.57,58.5,56.274,55.23,56.274C51.96,56.274,49.664,58.57,49.664,61.909L49.664,71.372C49.664,74.711,51.96,77.007,55.23,77.007ZM108.039,77.007C111.239,77.007,113.535,74.711,113.535,71.372L113.535,61.909C113.535,58.57,111.239,56.274,108.039,56.274C104.699,56.274,102.403,58.57,102.403,61.909L102.403,71.372C102.403,74.711,104.699,77.007,108.039,77.007ZM81.321,116.805C89.74,116.805,98.228,113.187,104.281,107.134C105.116,106.369,105.534,105.186,105.534,103.794C105.534,101.151,103.586,99.272,101.011,99.272C99.689,99.272,98.715,99.759,97.393,101.151C93.567,105.116,87.513,107.83,81.321,107.83C75.477,107.83,69.354,105.256,65.319,101.151C64.205,100.107,63.301,99.272,61.631,99.272C59.057,99.272,57.108,101.151,57.108,103.794C57.108,104.977,57.526,106.09,58.43,107.065C64.066,113.466,72.902,116.805,81.321,116.805ZM35.47,149.785L52.447,149.785C56.134,149.785,58.152,147.767,58.152,144.218C58.152,140.6,56.134,138.583,52.447,138.583L35.609,138.583C28.652,138.583,24.825,134.895,24.825,127.659L24.825,111.239C24.825,107.552,22.807,105.534,19.189,105.534C15.571,105.534,13.623,107.552,13.623,111.239L13.623,128.216C13.623,142.618,20.929,149.785,35.47,149.785ZM110.961,149.785L128.007,149.785C142.549,149.785,149.854,142.549,149.854,128.216L149.854,111.239C149.854,107.552,147.836,105.534,144.218,105.534C140.6,105.534,138.652,107.552,138.652,111.239L138.652,127.659C138.652,134.895,134.686,138.583,127.798,138.583L110.961,138.583C107.343,138.583,105.325,140.6,105.325,144.218C105.325,147.767,107.343,149.785,110.961,149.785ZM110.961,149.785"/>
</g>
  <g id="Semibold-L" transform="matrix(1.0,0.0,0.0,1.0,1962.811376250562,1439.031395781812)">  <path version="1.1" fill-opacity="1" fill-rule="nonzero" stroke-opacity="1" stroke-linecap="butt" stroke-width="1px" stroke="none" fill="#000000" stroke-miterlimit="4" stroke-dasharray="none" stroke-linejoin="miter" xmlns:xlink="http://www.w3.org/1999/xlink" d="M19.189,57.874C22.877,57.874,24.825,55.787,24.825,52.169L24.825,35.748C24.825,28.513,28.652,24.825,35.609,24.825L52.447,24.825C56.134,24.825,58.152,22.807,58.152,19.189C58.152,15.571,56.134,13.623,52.447,13.623L35.47,13.623C20.929,13.623,13.623,20.789,13.623,35.122L13.623,52.169C13.623,55.787,15.641,57.874,19.189,57.874ZM144.218,57.874C147.906,57.874,149.854,55.787,149.854,52.169L149.854,35.122C149.854,20.789,142.549,13.623,128.007,13.623L110.961,13.623C107.343,13.623,105.325,15.571,105.325,19.189C105.325,22.807,107.343,24.825,110.961,24.825L127.798,24.825C134.686,24.825,138.652,28.513,138.652,35.748L138.652,52.169C138.652,55.787,140.67,57.874,144.218,57.874ZM76.172,93.427L76.729,93.427C83.756,93.427,87.583,89.601,87.583,82.574L87.583,60.657C87.583,57.943,85.774,56.204,83.13,56.204C80.347,56.204,78.538,57.943,78.538,60.657L78.538,83.2C78.538,83.895,78.121,84.243,77.494,84.243L75.059,84.243C72.555,84.243,70.606,86.192,70.606,88.696C70.606,91.688,72.624,93.427,76.172,93.427ZM55.23,77.007C58.5,77.007,60.866,74.711,60.866,71.372L60.866,61.909C60.866,58.57,58.5,56.274,55.23,56.274C51.96,56.274,49.664,58.57,49.664,61.909L49.664,71.372C49.664,74.711,51.96,77.007,55.23,77.007ZM108.039,77.007C111.239,77.007,113.535,74.711,113.535,71.372L113.535,61.909C113.535,58.57,111.239,56.274,108.039,56.274C104.699,56.274,102.403,58.57,102.403,61.909L102.403,71.372C102.403,74.711,104.699,77.007,108.039,77.007ZM81.321,116.805C89.74,116.805,98.228,113.187,104.281,107.134C105.116,106.369,105.534,105.186,105.534,103.794C105.534,101.151,103.586,99.272,101.011,99.272C99.689,99.272,98.715,99.759,97.393,101.151C93.567,105.116,87.513,107.83,81.321,107.83C75.477,107.83,69.354,105.256,65.319,101.151C64.205,100.107,63.301,99.272,61.631,99.272C59.057,99.272,57.108,101.151,57.108,103.794C57.108,104.977,57.526,106.09,58.43,107.065C64.066,113.466,72.902,116.805,81.321,116.805ZM35.47,149.785L52.447,149.785C56.134,149.785,58.152,147.767,58.152,144.218C58.152,140.6,56.134,138.583,52.447,138.583L35.609,138.583C28.652,138.583,24.825,134.895,24.825,127.659L24.825,111.239C24.825,107.552,22.807,105.534,19.189,105.534C15.571,105.534,13.623,107.552,13.623,111.239L13.623,128.216C13.623,142.618,20.929,149.785,35.47,149.785ZM110.961,149.785L128.007,149.785C142.549,149.785,149.854,142.549,149.854,128.216L149.854,111.239C149.854,107.552,147.836,105.534,144.218,105.534C140.6,105.534,138.652,107.552,138.652,111.239L138.652,127.659C138.652,134.895,134.686,138.583,127.798,138.583L110.961,138.583C107.343,138.583,105.325,140.6,105.325,144.218C105.325,147.767,107.343,149.785,110.961,149.785ZM110.961,149.785"/>
</g>
  <g id="Medium-L" transform="matrix(1.0,0.0,0.0,1.0,1666.101376250562,1439.031395781812)">  <path stroke-dasharray="none" stroke-width="1px" stroke-miterlimit="4" stroke-linejoin="miter" stroke-opacity="1" fill="#000000" stroke-linecap="butt" xmlns:xlink="http://www.w3.org/1999/xlink" fill-rule="nonzero" fill-opacity="1" version="1.1" stroke="none" d="M19.189,57.874C22.877,57.874,24.825,55.787,24.825,52.169L24.825,35.748C24.825,28.513,28.652,24.825,35.609,24.825L52.447,24.825C56.134,24.825,58.152,22.807,58.152,19.189C58.152,15.571,56.134,13.623,52.447,13.623L35.47,13.623C20.929,13.623,13.623,20.789,13.623,35.122L13.623,52.169C13.623,55.787,15.641,57.874,19.189,57.874ZM144.218,57.874C147.906,57.874,149.854,55.787,149.854,52.169L149.854,35.122C149.854,20.789,142.549,13.623,128.007,13.623L110.961,13.623C107.343,13.623,105.325,15.571,105.325,19.189C105.325,22.807,107.343,24.825,110.961,24.825L127.798,24.825C134.686,24.825,138.652,28.513,138.652,35.748L138.652,52.169C138.652,55.787,140.67,57.874,144.218,57.874ZM76.172,93.427L76.729,93.427C83.756,93.427,87.583,89.601,87.583,82.574L87.583,60.657C87.583,57.943,85.774,56.204,83.13,56.204C80.347,56.204,78.538,57.943,78.538,60.657L78.538,83.2C78.538,83.895,78.121,84.243,77.494,84.243L75.059,84.243C72.555,84.243,70.606,86.192,70.606,88.696C70.606,91.688,72.624,93.427,76.172,93.427ZM55.23,77.007C58.5,77.007,60.866,74.711,60.866,71.372L60.866,61.909C60.866,58.57,58.5,56.274,55.23,56.274C51.96,56.274,49.664,58.57,49.664,61.909L49.664,71.372C49.664,74.711,51.96,77.007,55.23,77.007ZM108.039,77.007C111.239,77.007,113.535,74.711,113.535,71.372L113.535,61.909C113.535,58.57,111.239,56.274,108.039,56.274C104.699,56.274,102.403,58.57,102.403,61.909L102.403,71.372C102.403,74.711,104.699,77.007,108.039,77.007ZM81.321,116.805C89.74,116.805,98.228,113.187,104.281,107.134C105.116,106.369,105.534,105.186,105.534,103.794C105.534,101.151,103.586,99.272,101.011,99.272C99.689,99.272,98.715,99.759,97.393,101.151C93.567,105.116,87.513,107.83,81.321,107.83C75.477,107.83,69.354,105.256,65.319,101.151C64.205,100.107,63.301,99.272,61.631,99.272C59.057,99.272,57.108,101.151,57.108,103.794C57.108,104.977,57.526,106.09,58.43,107.065C64.066,113.466,72.902,116.805,81.321,116.805ZM35.47,149.785L52.447,149.785C56.134,149.785,58.152,147.767,58.152,144.218C58.152,140.6,56.134,138.583,52.447,138.583L35.609,138.583C28.652,138.583,24.825,134.895,24.825,127.659L24.825,111.239C24.825,107.552,22.807,105.534,19.189,105.534C15.571,105.534,13.623,107.552,13.623,111.239L13.623,128.216C13.623,142.618,20.929,149.785,35.47,149.785ZM110.961,149.785L128.007,149.785C142.549,149.785,149.854,142.549,149.854,128.216L149.854,111.239C149.854,107.552,147.836,105.534,144.218,105.534C140.6,105.534,138.652,107.552,138.652,111.239L138.652,127.659C138.652,134.895,134.686,138.583,127.798,138.583L110.961,138.583C107.343,138.583,105.325,140.6,105.325,144.218C105.325,147.767,107.343,149.785,110.961,149.785ZM110.961,149.785"/>
</g>
  <g id="Regular-L" transform="matrix(1.0,0.0,0.0,1.0,1369.391376250562,1439.031395781812)">  <path stroke-linejoin="miter" stroke-linecap="butt" fill-opacity="1" stroke-opacity="1" fill-rule="nonzero" stroke-dasharray="none" version="1.1" xmlns:xlink="http://www.w3.org/1999/xlink" fill="#000000" stroke-width="1px" stroke="none" stroke-miterlimit="4" d="M19.189,57.874C22.877,57.874,24.825,55.787,24.825,52.169L24.825,35.748C24.825,28.513,28.652,24.825,35.609,24.825L52.447,24.825C56.134,24.825,58.152,22.807,58.152,19.189C58.152,15.571,56.134,13.623,52.447,13.623L35.47,13.623C20.929,13.623,13.623,20.789,13.623,35.122L13.623,52.169C13.623,55.787,15.641,57.874,19.189,57.874ZM144.218,57.874C147.906,57.874,149.854,55.787,149.854,52.169L149.854,35.122C149.854,20.789,142.549,13.623,128.007,13.623L110.961,13.623C107.343,13.623,105.325,15.571,105.325,19.189C105.325,22.807,107.343,24.825,110.961,24.825L127.798,24.825C134.686,24.825,138.652,28.513,138.652,35.748L138.652,52.169C138.652,55.787,140.67,57.874,144.218,57.874ZM76.172,93.427L76.729,93.427C83.756,93.427,87.583,89.601,87.583,82.574L87.583,60.657C87.583,57.943,85.774,56.204,83.13,56.204C80.347,56.204,78.538,57.943,78.538,60.657L78.538,83.2C78.538,83.895,78.121,84.243,77.494,84.243L75.059,84.243C72.555,84.243,70.606,86.192,70.606,88.696C70.606,91.688,72.624,93.427,76.172,93.427ZM55.23,77.007C58.5,77.007,60.866,74.711,60.866,71.372L60.866,61.909C60.866,58.57,58.5,56.274,55.23,56.274C51.96,56.274,49.664,58.57,49.664,61.909L49.664,71.372C49.664,74.711,51.96,77.007,55.23,77.007ZM108.039,77.007C111.239,77.007,113.535,74.711,113.535,71.372L113.535,61.909C113.535,58.57,111.239,56.274,108.039,56.274C104.699,56.274,102.403,58.57,102.403,61.909L102.403,71.372C102.403,74.711,104.699,77.007,108.039,77.007ZM81.321,116.805C89.74,116.805,98.228,113.187,104.281,107.134C105.116,106.369,105.534,105.186,105.534,103.794C105.534,101.151,103.586,99.272,101.011,99.272C99.689,99.272,98.715,99.759,97.393,101.151C93.567,105.116,87.513,107.83,81.321,107.83C75.477,107.83,69.354,105.256,65.319,101.151C64.205,100.107,63.301,99.272,61.631,99.272C59.057,99.272,57.108,101.151,57.108,103.794C57.108,104.977,57.526,106.09,58.43,107.065C64.066,113.466,72.902,116.805,81.321,116.805ZM35.47,149.785L52.447,149.785C56.134,149.785,58.152,147.767,58.152,144.218C58.152,140.6,56.134,138.583,52.447,138.583L35.609,138.583C28.652,138.583,24.825,134.895,24.825,127.659L24.825,111.239C24.825,107.552,22.807,105.534,19.189,105.534C15.571,105.534,13.623,107.552,13.623,111.239L13.623,128.216C13.623,142.618,20.929,149.785,35.47,149.785ZM110.961,149.785L128.007,149.785C142.549,149.785,149.854,142.549,149.854,128.216L149.854,111.239C149.854,107.552,147.836,105.534,144.218,105.534C140.6,105.534,138.652,107.552,138.652,111.239L138.652,127.659C138.652,134.895,134.686,138.583,127.798,138.583L110.961,138.583C107.343,138.583,105.325,140.6,105.325,144.218C105.325,147.767,107.343,149.785,110.961,149.785ZM110.961,149.785"/>
</g>
  <g id="Light-L" transform="matrix(1.0,0.0,0.0,1.0,1072.6813762505622,1439.031395781812)">  <path stroke-linecap="butt" stroke-opacity="1" stroke-miterlimit="4" stroke="none" stroke-linejoin="miter" fill-rule="nonzero" stroke-width="1px" fill-opacity="1" stroke-dasharray="none" xmlns:xlink="http://www.w3.org/1999/xlink" fill="#000000" version="1.1" d="M19.189,57.874C22.877,57.874,24.825,55.787,24.825,52.169L24.825,35.748C24.825,28.513,28.652,24.825,35.609,24.825L52.447,24.825C56.134,24.825,58.152,22.807,58.152,19.189C58.152,15.571,56.134,13.623,52.447,13.623L35.47,13.623C20.929,13.623,13.623,20.789,13.623,35.122L13.623,52.169C13.623,55.787,15.641,57.874,19.189,57.874ZM144.218,57.874C147.906,57.874,149.854,55.787,149.854,52.169L149.854,35.122C149.854,20.789,142.549,13.623,128.007,13.623L110.961,13.623C107.343,13.623,105.325,15.571,105.325,19.189C105.325,22.807,107.343,24.825,110.961,24.825L127.798,24.825C134.686,24.825,138.652,28.513,138.652,35.748L138.652,52.169C138.652,55.787,140.67,57.874,144.218,57.874ZM76.172,93.427L76.729,93.427C83.756,93.427,87.583,89.601,87.583,82.574L87.583,60.657C87.583,57.943,85.774,56.204,83.13,56.204C80.347,56.204,78.538,57.943,78.538,60.657L78.538,83.2C78.538,83.895,78.121,84.243,77.494,84.243L75.059,84.243C72.555,84.243,70.606,86.192,70.606,88.696C70.606,91.688,72.624,93.427,76.172,93.427ZM55.23,77.007C58.5,77.007,60.866,74.711,60.866,71.372L60.866,61.909C60.866,58.57,58.5,56.274,55.23,56.274C51.96,56.274,49.664,58.57,49.664,61.909L49.664,71.372C49.664,74.711,51.96,77.007,55.23,77.007ZM108.039,77.007C111.239,77.007,113.535,74.711,113.535,71.372L113.535,61.909C113.535,58.57,111.239,56.274,108.039,56.274C104.699,56.274,102.403,58.57,102.403,61.909L102.403,71.372C102.403,74.711,104.699,77.007,108.039,77.007ZM81.321,116.805C89.74,116.805,98.228,113.187,104.281,107.134C105.116,106.369,105.534,105.186,105.534,103.794C105.534,101.151,103.586,99.272,101.011,99.272C99.689,99.272,98.715,99.759,97.393,101.151C93.567,105.116,87.513,107.83,81.321,107.83C75.477,107.83,69.354,105.256,65.319,101.151C64.205,100.107,63.301,99.272,61.631,99.272C59.057,99.272,57.108,101.151,57.108,103.794C57.108,104.977,57.526,106.09,58.43,107.065C64.066,113.466,72.902,116.805,81.321,116.805ZM35.47,149.785L52.447,149.785C56.134,149.785,58.152,147.767,58.152,144.218C58.152,140.6,56.134,138.583,52.447,138.583L35.609,138.583C28.652,138.583,24.825,134.895,24.825,127.659L24.825,111.239C24.825,107.552,22.807,105.534,19.189,105.534C15.571,105.534,13.623,107.552,13.623,111.239L13.623,128.216C13.623,142.618,20.929,149.785,35.47,149.785ZM110.961,149.785L128.007,149.785C142.549,149.785,149.854,142.549,149.854,128.216L149.854,111.239C149.854,107.552,147.836,105.534,144.218,105.534C140.6,105.534,138.652,107.552,138.652,111.239L138.652,127.659C138.652,134.895,134.686,138.583,127.798,138.583L110.961,138.583C107.343,138.583,105.325,140.6,105.325,144.218C105.325,147.767,107.343,149.785,110.961,149.785ZM110.961,149.785"/>
</g>
  <g id="Thin-L" transform="matrix(1.0,0.0,0.0,1.0,775.9713762505621,1439.031395781812)">  <path fill-rule="nonzero" stroke-miterlimit="4" fill="#000000" stroke-opacity="1" version="1.1" stroke-width="1px" stroke-dasharray="none" stroke="none" xmlns:xlink="http://www.w3.org/1999/xlink" stroke-linejoin="miter" stroke-linecap="butt" fill-opacity="1" d="M19.189,57.874C22.877,57.874,24.825,55.787,24.825,52.169L24.825,35.748C24.825,28.513,28.652,24.825,35.609,24.825L52.447,24.825C56.134,24.825,58.152,22.807,58.152,19.189C58.152,15.571,56.134,13.623,52.447,13.623L35.47,13.623C20.929,13.623,13.623,20.789,13.623,35.122L13.623,52.169C13.623,55.787,15.641,57.874,19.189,57.874ZM144.218,57.874C147.906,57.874,149.854,55.787,149.854,52.169L149.854,35.122C149.854,20.789,142.549,13.623,128.007,13.623L110.961,13.623C107.343,13.623,105.325,15.571,105.325,19.189C105.325,22.807,107.343,24.825,110.961,24.825L127.798,24.825C134.686,24.825,138.652,28.513,138.652,35.748L138.652,52.169C138.652,55.787,140.67,57.874,144.218,57.874ZM76.172,93.427L76.729,93.427C83.756,93.427,87.583,89.601,87.583,82.574L87.583,60.657C87.583,57.943,85.774,56.204,83.13,56.204C80.347,56.204,78.538,57.943,78.538,60.657L78.538,83.2C78.538,83.895,78.121,84.243,77.494,84.243L75.059,84.243C72.555,84.243,70.606,86.192,70.606,88.696C70.606,91.688,72.624,93.427,76.172,93.427ZM55.23,77.007C58.5,77.007,60.866,74.711,60.866,71.372L60.866,61.909C60.866,58.57,58.5,56.274,55.23,56.274C51.96,56.274,49.664,58.57,49.664,61.909L49.664,71.372C49.664,74.711,51.96,77.007,55.23,77.007ZM108.039,77.007C111.239,77.007,113.535,74.711,113.535,71.372L113.535,61.909C113.535,58.57,111.239,56.274,108.039,56.274C104.699,56.274,102.403,58.57,102.403,61.909L102.403,71.372C102.403,74.711,104.699,77.007,108.039,77.007ZM81.321,116.805C89.74,116.805,98.228,113.187,104.281,107.134C105.116,106.369,105.534,105.186,105.534,103.794C105.534,101.151,103.586,99.272,101.011,99.272C99.689,99.272,98.715,99.759,97.393,101.151C93.567,105.116,87.513,107.83,81.321,107.83C75.477,107.83,69.354,105.256,65.319,101.151C64.205,100.107,63.301,99.272,61.631,99.272C59.057,99.272,57.108,101.151,57.108,103.794C57.108,104.977,57.526,106.09,58.43,107.065C64.066,113.466,72.902,116.805,81.321,116.805ZM35.47,149.785L52.447,149.785C56.134,149.785,58.152,147.767,58.152,144.218C58.152,140.6,56.134,138.583,52.447,138.583L35.609,138.583C28.652,138.583,24.825,134.895,24.825,127.659L24.825,111.239C24.825,107.552,22.807,105.534,19.189,105.534C15.571,105.534,13.623,107.552,13.623,111.239L13.623,128.216C13.623,142.618,20.929,149.785,35.47,149.785ZM110.961,149.785L128.007,149.785C142.549,149.785,149.854,142.549,149.854,128.216L149.854,111.239C149.854,107.552,147.836,105.534,144.218,105.534C140.6,105.534,138.652,107.552,138.652,111.239L138.652,127.659C138.652,134.895,134.686,138.583,127.798,138.583L110.961,138.583C107.343,138.583,105.325,140.6,105.325,144.218C105.325,147.767,107.343,149.785,110.961,149.785ZM110.961,149.785"/>
</g>
  <g id="Ultralight-L" transform="matrix(1.0,0.0,0.0,1.0,479.2613762505621,1439.031395781812)">  <path version="1.1" stroke-miterlimit="4" stroke-dasharray="none" stroke="none" stroke-width="1px" stroke-opacity="1" xmlns:xlink="http://www.w3.org/1999/xlink" fill-rule="nonzero" fill="#000000" fill-opacity="1" stroke-linejoin="miter" stroke-linecap="butt" d="M19.189,57.874C22.877,57.874,24.825,55.787,24.825,52.169L24.825,35.748C24.825,28.513,28.652,24.825,35.609,24.825L52.447,24.825C56.134,24.825,58.152,22.807,58.152,19.189C58.152,15.571,56.134,13.623,52.447,13.623L35.47,13.623C20.929,13.623,13.623,20.789,13.623,35.122L13.623,52.169C13.623,55.787,15.641,57.874,19.189,57.874ZM144.218,57.874C147.906,57.874,149.854,55.787,149.854,52.169L149.854,35.122C149.854,20.789,142.549,13.623,128.007,13.623L110.961,13.623C107.343,13.623,105.325,15.571,105.325,19.189C105.325,22.807,107.343,24.825,110.961,24.825L127.798,24.825C134.686,24.825,138.652,28.513,138.652,35.748L138.652,52.169C138.652,55.787,140.67,57.874,144.218,57.874ZM76.172,93.427L76.729,93.427C83.756,93.427,87.583,89.601,87.583,82.574L87.583,60.657C87.583,57.943,85.774,56.204,83.13,56.204C80.347,56.204,78.538,57.943,78.538,60.657L78.538,83.2C78.538,83.895,78.121,84.243,77.494,84.243L75.059,84.243C72.555,84.243,70.606,86.192,70.606,88.696C70.606,91.688,72.624,93.427,76.172,93.427ZM55.23,77.007C58.5,77.007,60.866,74.711,60.866,71.372L60.866,61.909C60.866,58.57,58.5,56.274,55.23,56.274C51.96,56.274,49.664,58.57,49.664,61.909L49.664,71.372C49.664,74.711,51.96,77.007,55.23,77.007ZM108.039,77.007C111.239,77.007,113.535,74.711,113.535,71.372L113.535,61.909C113.535,58.57,111.239,56.274,108.039,56.274C104.699,56.274,102.403,58.57,102.403,61.909L102.403,71.372C102.403,74.711,104.699,77.007,108.039,77.007ZM81.321,116.805C89.74,116.805,98.228,113.187,104.281,107.134C105.116,106.369,105.534,105.186,105.534,103.794C105.534,101.151,103.586,99.272,101.011,99.272C99.689,99.272,98.715,99.759,97.393,101.151C93.567,105.116,87.513,107.83,81.321,107.83C75.477,107.83,69.354,105.256,65.319,101.151C64.205,100.107,63.301,99.272,61.631,99.272C59.057,99.272,57.108,101.151,57.108,103.794C57.108,104.977,57.526,106.09,58.43,107.065C64.066,113.466,72.902,116.805,81.321,116.805ZM35.47,149.785L52.447,149.785C56.134,149.785,58.152,147.767,58.152,144.218C58.152,140.6,56.134,138.583,52.447,138.583L35.609,138.583C28.652,138.583,24.825,134.895,24.825,127.659L24.825,111.239C24.825,107.552,22.807,105.534,19.189,105.534C15.571,105.534,13.623,107.552,13.623,111.239L13.623,128.216C13.623,142.618,20.929,149.785,35.47,149.785ZM110.961,149.785L128.007,149.785C142.549,149.785,149.854,142.549,149.854,128.216L149.854,111.239C149.854,107.552,147.836,105.534,144.218,105.534C140.6,105.534,138.652,107.552,138.652,111.239L138.652,127.659C138.652,134.895,134.686,138.583,127.798,138.583L110.961,138.583C107.343,138.583,105.325,140.6,105.325,144.218C105.325,147.767,107.343,149.785,110.961,149.785ZM110.961,149.785"/>
</g>
  <g id="Black-M" transform="matrix(1.0,0.0,0.0,1.0,2871.3167257756295,1027.4067453068794)">  <path stroke-linecap="butt" fill="#000000" stroke-opacity="1" stroke-width="1px" stroke-miterlimit="4" xmlns:xlink="http://www.w3.org/1999/xlink" fill-opacity="1" fill-rule="nonzero" stroke="none" stroke-dasharray="none" stroke-linejoin="miter" version="1.1" d="M14.875,44.863C17.734,44.863,19.244,43.245,19.244,40.441L19.244,27.712C19.244,22.103,22.211,19.244,27.604,19.244L40.656,19.244C43.515,19.244,45.079,17.68,45.079,14.875C45.079,12.071,43.515,10.561,40.656,10.561L27.496,10.561C16.224,10.561,10.561,16.116,10.561,27.227L10.561,40.441C10.561,43.245,12.125,44.863,14.875,44.863ZM111.797,44.863C114.656,44.863,116.166,43.245,116.166,40.441L116.166,27.227C116.166,16.116,110.503,10.561,99.23,10.561L86.016,10.561C83.211,10.561,81.647,12.071,81.647,14.875C81.647,17.68,83.211,19.244,86.016,19.244L99.068,19.244C104.408,19.244,107.482,22.103,107.482,27.712L107.482,40.441C107.482,43.245,109.047,44.863,111.797,44.863ZM59.048,72.424L59.48,72.424C64.927,72.424,67.894,69.458,67.894,64.01L67.894,47.021C67.894,44.917,66.492,43.569,64.442,43.569C62.285,43.569,60.882,44.917,60.882,47.021L60.882,64.496C60.882,65.035,60.559,65.305,60.073,65.305L58.185,65.305C56.244,65.305,54.734,66.815,54.734,68.757C54.734,71.076,56.298,72.424,59.048,72.424ZM42.814,59.696C45.349,59.696,47.183,57.916,47.183,55.327L47.183,47.992C47.183,45.403,45.349,43.623,42.814,43.623C40.279,43.623,38.499,45.403,38.499,47.992L38.499,55.327C38.499,57.916,40.279,59.696,42.814,59.696ZM83.751,59.696C86.232,59.696,88.012,57.916,88.012,55.327L88.012,47.992C88.012,45.403,86.232,43.623,83.751,43.623C81.162,43.623,79.382,45.403,79.382,47.992L79.382,55.327C79.382,57.916,81.162,59.696,83.751,59.696ZM63.04,90.547C69.566,90.547,76.146,87.742,80.838,83.05C81.486,82.456,81.809,81.539,81.809,80.461C81.809,78.411,80.299,76.955,78.303,76.955C77.279,76.955,76.524,77.333,75.499,78.411C72.532,81.486,67.84,83.589,63.04,83.589C58.509,83.589,53.763,81.593,50.635,78.411C49.772,77.602,49.07,76.955,47.776,76.955C45.78,76.955,44.27,78.411,44.27,80.461C44.27,81.378,44.594,82.241,45.295,82.996C49.664,87.958,56.513,90.547,63.04,90.547ZM27.496,116.112L40.656,116.112C43.515,116.112,45.079,114.548,45.079,111.797C45.079,108.993,43.515,107.428,40.656,107.428L27.604,107.428C22.211,107.428,19.244,104.57,19.244,98.961L19.244,86.232C19.244,83.373,17.68,81.809,14.875,81.809C12.071,81.809,10.561,83.373,10.561,86.232L10.561,99.392C10.561,110.557,16.224,116.112,27.496,116.112ZM86.016,116.112L99.23,116.112C110.503,116.112,116.166,110.503,116.166,99.392L116.166,86.232C116.166,83.373,114.602,81.809,111.797,81.809C108.993,81.809,107.482,83.373,107.482,86.232L107.482,98.961C107.482,104.57,104.408,107.428,99.068,107.428L86.016,107.428C83.211,107.428,81.647,108.993,81.647,111.797C81.647,114.548,83.211,116.112,86.016,116.112ZM86.016,116.112"/>
</g>
  <g id="Heavy-M" transform="matrix(1.0,0.0,0.0,1.0,2574.6067257756295,1027.4067453068794)">  <path stroke-dasharray="none" fill-rule="nonzero" stroke-linecap="butt" xmlns:xlink="http://www.w3.org/1999/xlink" fill="#000000" fill-opacity="1" stroke-linejoin="miter" stroke-width="1px" version="1.1" stroke-miterlimit="4" stroke="none" stroke-opacity="1" d="M14.875,44.863C17.734,44.863,19.244,43.245,19.244,40.441L19.244,27.712C19.244,22.103,22.211,19.244,27.604,19.244L40.656,19.244C43.515,19.244,45.079,17.68,45.079,14.875C45.079,12.071,43.515,10.561,40.656,10.561L27.496,10.561C16.224,10.561,10.561,16.116,10.561,27.227L10.561,40.441C10.561,43.245,12.125,44.863,14.875,44.863ZM111.797,44.863C114.656,44.863,116.166,43.245,116.166,40.441L116.166,27.227C116.166,16.116,110.503,10.561,99.23,10.561L86.016,10.561C83.211,10.561,81.647,12.071,81.647,14.875C81.647,17.68,83.211,19.244,86.016,19.244L99.068,19.244C104.408,19.244,107.482,22.103,107.482,27.712L107.482,40.441C107.482,43.245,109.047,44.863,111.797,44.863ZM59.048,72.424L59.48,72.424C64.927,72.424,67.894,69.458,67.894,64.01L67.894,47.021C67.894,44.917,66.492,43.569,64.442,43.569C62.285,43.569,60.882,44.917,60.882,47.021L60.882,64.496C60.882,65.035,60.559,65.305,60.073,65.305L58.185,65.305C56.244,65.305,54.734,66.815,54.734,68.757C54.734,71.076,56.298,72.424,59.048,72.424ZM42.814,59.696C45.349,59.696,47.183,57.916,47.183,55.327L47.183,47.992C47.183,45.403,45.349,43.623,42.814,43.623C40.279,43.623,38.499,45.403,38.499,47.992L38.499,55.327C38.499,57.916,40.279,59.696,42.814,59.696ZM83.751,59.696C86.232,59.696,88.012,57.916,88.012,55.327L88.012,47.992C88.012,45.403,86.232,43.623,83.751,43.623C81.162,43.623,79.382,45.403,79.382,47.992L79.382,55.327C79.382,57.916,81.162,59.696,83.751,59.696ZM63.04,90.547C69.566,90.547,76.146,87.742,80.838,83.05C81.486,82.456,81.809,81.539,81.809,80.461C81.809,78.411,80.299,76.955,78.303,76.955C77.279,76.955,76.524,77.333,75.499,78.411C72.532,81.486,67.84,83.589,63.04,83.589C58.509,83.589,53.763,81.593,50.635,78.411C49.772,77.602,49.07,76.955,47.776,76.955C45.78,76.955,44.27,78.411,44.27,80.461C44.27,81.378,44.594,82.241,45.295,82.996C49.664,87.958,56.513,90.547,63.04,90.547ZM27.496,116.112L40.656,116.112C43.515,116.112,45.079,114.548,45.079,111.797C45.079,108.993,43.515,107.428,40.656,107.428L27.604,107.428C22.211,107.428,19.244,104.57,19.244,98.961L19.244,86.232C19.244,83.373,17.68,81.809,14.875,81.809C12.071,81.809,10.561,83.373,10.561,86.232L10.561,99.392C10.561,110.557,16.224,116.112,27.496,116.112ZM86.016,116.112L99.23,116.112C110.503,116.112,116.166,110.503,116.166,99.392L116.166,86.232C116.166,83.373,114.602,81.809,111.797,81.809C108.993,81.809,107.482,83.373,107.482,86.232L107.482,98.961C107.482,104.57,104.408,107.428,99.068,107.428L86.016,107.428C83.211,107.428,81.647,108.993,81.647,111.797C81.647,114.548,83.211,116.112,86.016,116.112ZM86.016,116.112"/>
</g>
  <g id="Bold-M" transform="matrix(1.0,0.0,0.0,1.0,2277.8967257756294,1027.4067453068794)">  <path stroke-width="1px" xmlns:xlink="http://www.w3.org/1999/xlink" version="1.1" fill="#000000" stroke-dasharray="none" stroke-linejoin="miter" stroke-miterlimit="4" fill-rule="nonzero" stroke-opacity="1" stroke="none" stroke-linecap="butt" fill-opacity="1" d="M14.875,44.863C17.734,44.863,19.244,43.245,19.244,40.441L19.244,27.712C19.244,22.103,22.211,19.244,27.604,19.244L40.656,19.244C43.515,19.244,45.079,17.68,45.079,14.875C45.079,12.071,43.515,10.561,40.656,10.561L27.496,10.561C16.224,10.561,10.561,16.116,10.561,27.227L10.561,40.441C10.561,43.245,12.125,44.863,14.875,44.863ZM111.797,44.863C114.656,44.863,116.166,43.245,116.166,40.441L116.166,27.227C116.166,16.116,110.503,10.561,99.23,10.561L86.016,10.561C83.211,10.561,81.647,12.071,81.647,14.875C81.647,17.68,83.211,19.244,86.016,19.244L99.068,19.244C104.408,19.244,107.482,22.103,107.482,27.712L107.482,40.441C107.482,43.245,109.047,44.863,111.797,44.863ZM59.048,72.424L59.48,72.424C64.927,72.424,67.894,69.458,67.894,64.01L67.894,47.021C67.894,44.917,66.492,43.569,64.442,43.569C62.285,43.569,60.882,44.917,60.882,47.021L60.882,64.496C60.882,65.035,60.559,65.305,60.073,65.305L58.185,65.305C56.244,65.305,54.734,66.815,54.734,68.757C54.734,71.076,56.298,72.424,59.048,72.424ZM42.814,59.696C45.349,59.696,47.183,57.916,47.183,55.327L47.183,47.992C47.183,45.403,45.349,43.623,42.814,43.623C40.279,43.623,38.499,45.403,38.499,47.992L38.499,55.327C38.499,57.916,40.279,59.696,42.814,59.696ZM83.751,59.696C86.232,59.696,88.012,57.916,88.012,55.327L88.012,47.992C88.012,45.403,86.232,43.623,83.751,43.623C81.162,43.623,79.382,45.403,79.382,47.992L79.382,55.327C79.382,57.916,81.162,59.696,83.751,59.696ZM63.04,90.547C69.566,90.547,76.146,87.742,80.838,83.05C81.486,82.456,81.809,81.539,81.809,80.461C81.809,78.411,80.299,76.955,78.303,76.955C77.279,76.955,76.524,77.333,75.499,78.411C72.532,81.486,67.84,83.589,63.04,83.589C58.509,83.589,53.763,81.593,50.635,78.411C49.772,77.602,49.07,76.955,47.776,76.955C45.78,76.955,44.27,78.411,44.27,80.461C44.27,81.378,44.594,82.241,45.295,82.996C49.664,87.958,56.513,90.547,63.04,90.547ZM27.496,116.112L40.656,116.112C43.515,116.112,45.079,114.548,45.079,111.797C45.079,108.993,43.515,107.428,40.656,107.428L27.604,107.428C22.211,107.428,19.244,104.57,19.244,98.961L19.244,86.232C19.244,83.373,17.68,81.809,14.875,81.809C12.071,81.809,10.561,83.373,10.561,86.232L10.561,99.392C10.561,110.557,16.224,116.112,27.496,116.112ZM86.016,116.112L99.23,116.112C110.503,116.112,116.166,110.503,116.166,99.392L116.166,86.232C116.166,83.373,114.602,81.809,111.797,81.809C108.993,81.809,107.482,83.373,107.482,86.232L107.482,98.961C107.482,104.57,104.408,107.428,99.068,107.428L86.016,107.428C83.211,107.428,81.647,108.993,81.647,111.797C81.647,114.548,83.211,116.112,86.016,116.112ZM86.016,116.112"/>
</g>
  <g id="Semibold-M" transform="matrix(1.0,0.0,0.0,1.0,1981.1867257756294,1027.4067453068794)">  <path version="1.1" fill-opacity="1" fill-rule="nonzero" stroke-opacity="1" stroke-linecap="butt" stroke-width="1px" stroke="none" fill="#000000" stroke-miterlimit="4" stroke-dasharray="none" stroke-linejoin="miter" xmlns:xlink="http://www.w3.org/1999/xlink" d="M14.875,44.863C17.734,44.863,19.244,43.245,19.244,40.441L19.244,27.712C19.244,22.103,22.211,19.244,27.604,19.244L40.656,19.244C43.515,19.244,45.079,17.68,45.079,14.875C45.079,12.071,43.515,10.561,40.656,10.561L27.496,10.561C16.224,10.561,10.561,16.116,10.561,27.227L10.561,40.441C10.561,43.245,12.125,44.863,14.875,44.863ZM111.797,44.863C114.656,44.863,116.166,43.245,116.166,40.441L116.166,27.227C116.166,16.116,110.503,10.561,99.23,10.561L86.016,10.561C83.211,10.561,81.647,12.071,81.647,14.875C81.647,17.68,83.211,19.244,86.016,19.244L99.068,19.244C104.408,19.244,107.482,22.103,107.482,27.712L107.482,40.441C107.482,43.245,109.047,44.863,111.797,44.863ZM59.048,72.424L59.48,72.424C64.927,72.424,67.894,69.458,67.894,64.01L67.894,47.021C67.894,44.917,66.492,43.569,64.442,43.569C62.285,43.569,60.882,44.917,60.882,47.021L60.882,64.496C60.882,65.035,60.559,65.305,60.073,65.305L58.185,65.305C56.244,65.305,54.734,66.815,54.734,68.757C54.734,71.076,56.298,72.424,59.048,72.424ZM42.814,59.696C45.349,59.696,47.183,57.916,47.183,55.327L47.183,47.992C47.183,45.403,45.349,43.623,42.814,43.623C40.279,43.623,38.499,45.403,38.499,47.992L38.499,55.327C38.499,57.916,40.279,59.696,42.814,59.696ZM83.751,59.696C86.232,59.696,88.012,57.916,88.012,55.327L88.012,47.992C88.012,45.403,86.232,43.623,83.751,43.623C81.162,43.623,79.382,45.403,79.382,47.992L79.382,55.327C79.382,57.916,81.162,59.696,83.751,59.696ZM63.04,90.547C69.566,90.547,76.146,87.742,80.838,83.05C81.486,82.456,81.809,81.539,81.809,80.461C81.809,78.411,80.299,76.955,78.303,76.955C77.279,76.955,76.524,77.333,75.499,78.411C72.532,81.486,67.84,83.589,63.04,83.589C58.509,83.589,53.763,81.593,50.635,78.411C49.772,77.602,49.07,76.955,47.776,76.955C45.78,76.955,44.27,78.411,44.27,80.461C44.27,81.378,44.594,82.241,45.295,82.996C49.664,87.958,56.513,90.547,63.04,90.547ZM27.496,116.112L40.656,116.112C43.515,116.112,45.079,114.548,45.079,111.797C45.079,108.993,43.515,107.428,40.656,107.428L27.604,107.428C22.211,107.428,19.244,104.57,19.244,98.961L19.244,86.232C19.244,83.373,17.68,81.809,14.875,81.809C12.071,81.809,10.561,83.373,10.561,86.232L10.561,99.392C10.561,110.557,16.224,116.112,27.496,116.112ZM86.016,116.112L99.23,116.112C110.503,116.112,116.166,110.503,116.166,99.392L116.166,86.232C116.166,83.373,114.602,81.809,111.797,81.809C108.993,81.809,107.482,83.373,107.482,86.232L107.482,98.961C107.482,104.57,104.408,107.428,99.068,107.428L86.016,107.428C83.211,107.428,81.647,108.993,81.647,111.797C81.647,114.548,83.211,116.112,86.016,116.112ZM86.016,116.112"/>
</g>
  <g id="Medium-M" transform="matrix(1.0,0.0,0.0,1.0,1684.4767257756293,1027.4067453068794)">  <path stroke-dasharray="none" stroke-width="1px" stroke-miterlimit="4" stroke-linejoin="miter" stroke-opacity="1" fill="#000000" stroke-linecap="butt" xmlns:xlink="http://www.w3.org/1999/xlink" fill-rule="nonzero" fill-opacity="1" version="1.1" stroke="none" d="M14.875,44.863C17.734,44.863,19.244,43.245,19.244,40.441L19.244,27.712C19.244,22.103,22.211,19.244,27.604,19.244L40.656,19.244C43.515,19.244,45.079,17.68,45.079,14.875C45.079,12.071,43.515,10.561,40.656,10.561L27.496,10.561C16.224,10.561,10.561,16.116,10.561,27.227L10.561,40.441C10.561,43.245,12.125,44.863,14.875,44.863ZM111.797,44.863C114.656,44.863,116.166,43.245,116.166,40.441L116.166,27.227C116.166,16.116,110.503,10.561,99.23,10.561L86.016,10.561C83.211,10.561,81.647,12.071,81.647,14.875C81.647,17.68,83.211,19.244,86.016,19.244L99.068,19.244C104.408,19.244,107.482,22.103,107.482,27.712L107.482,40.441C107.482,43.245,109.047,44.863,111.797,44.863ZM59.048,72.424L59.48,72.424C64.927,72.424,67.894,69.458,67.894,64.01L67.894,47.021C67.894,44.917,66.492,43.569,64.442,43.569C62.285,43.569,60.882,44.917,60.882,47.021L60.882,64.496C60.882,65.035,60.559,65.305,60.073,65.305L58.185,65.305C56.244,65.305,54.734,66.815,54.734,68.757C54.734,71.076,56.298,72.424,59.048,72.424ZM42.814,59.696C45.349,59.696,47.183,57.916,47.183,55.327L47.183,47.992C47.183,45.403,45.349,43.623,42.814,43.623C40.279,43.623,38.499,45.403,38.499,47.992L38.499,55.327C38.499,57.916,40.279,59.696,42.814,59.696ZM83.751,59.696C86.232,59.696,88.012,57.916,88.012,55.327L88.012,47.992C88.012,45.403,86.232,43.623,83.751,43.623C81.162,43.623,79.382,45.403,79.382,47.992L79.382,55.327C79.382,57.916,81.162,59.696,83.751,59.696ZM63.04,90.547C69.566,90.547,76.146,87.742,80.838,83.05C81.486,82.456,81.809,81.539,81.809,80.461C81.809,78.411,80.299,76.955,78.303,76.955C77.279,76.955,76.524,77.333,75.499,78.411C72.532,81.486,67.84,83.589,63.04,83.589C58.509,83.589,53.763,81.593,50.635,78.411C49.772,77.602,49.07,76.955,47.776,76.955C45.78,76.955,44.27,78.411,44.27,80.461C44.27,81.378,44.594,82.241,45.295,82.996C49.664,87.958,56.513,90.547,63.04,90.547ZM27.496,116.112L40.656,116.112C43.515,116.112,45.079,114.548,45.079,111.797C45.079,108.993,43.515,107.428,40.656,107.428L27.604,107.428C22.211,107.428,19.244,104.57,19.244,98.961L19.244,86.232C19.244,83.373,17.68,81.809,14.875,81.809C12.071,81.809,10.561,83.373,10.561,86.232L10.561,99.392C10.561,110.557,16.224,116.112,27.496,116.112ZM86.016,116.112L99.23,116.112C110.503,116.112,116.166,110.503,116.166,99.392L116.166,86.232C116.166,83.373,114.602,81.809,111.797,81.809C108.993,81.809,107.482,83.373,107.482,86.232L107.482,98.961C107.482,104.57,104.408,107.428,99.068,107.428L86.016,107.428C83.211,107.428,81.647,108.993,81.647,111.797C81.647,114.548,83.211,116.112,86.016,116.112ZM86.016,116.112"/>
</g>
  <g id="Regular-M" transform="matrix(1.0,0.0,0.0,1.0,1387.7667257756293,1027.4067453068794)">  <path stroke-linejoin="miter" stroke-linecap="butt" fill-opacity="1" stroke-opacity="1" fill-rule="nonzero" stroke-dasharray="none" version="1.1" xmlns:xlink="http://www.w3.org/1999/xlink" fill="#000000" stroke-width="1px" stroke="none" stroke-miterlimit="4" d="M14.875,44.863C17.734,44.863,19.244,43.245,19.244,40.441L19.244,27.712C19.244,22.103,22.211,19.244,27.604,19.244L40.656,19.244C43.515,19.244,45.079,17.68,45.079,14.875C45.079,12.071,43.515,10.561,40.656,10.561L27.496,10.561C16.224,10.561,10.561,16.116,10.561,27.227L10.561,40.441C10.561,43.245,12.125,44.863,14.875,44.863ZM111.797,44.863C114.656,44.863,116.166,43.245,116.166,40.441L116.166,27.227C116.166,16.116,110.503,10.561,99.23,10.561L86.016,10.561C83.211,10.561,81.647,12.071,81.647,14.875C81.647,17.68,83.211,19.244,86.016,19.244L99.068,19.244C104.408,19.244,107.482,22.103,107.482,27.712L107.482,40.441C107.482,43.245,109.047,44.863,111.797,44.863ZM59.048,72.424L59.48,72.424C64.927,72.424,67.894,69.458,67.894,64.01L67.894,47.021C67.894,44.917,66.492,43.569,64.442,43.569C62.285,43.569,60.882,44.917,60.882,47.021L60.882,64.496C60.882,65.035,60.559,65.305,60.073,65.305L58.185,65.305C56.244,65.305,54.734,66.815,54.734,68.757C54.734,71.076,56.298,72.424,59.048,72.424ZM42.814,59.696C45.349,59.696,47.183,57.916,47.183,55.327L47.183,47.992C47.183,45.403,45.349,43.623,42.814,43.623C40.279,43.623,38.499,45.403,38.499,47.992L38.499,55.327C38.499,57.916,40.279,59.696,42.814,59.696ZM83.751,59.696C86.232,59.696,88.012,57.916,88.012,55.327L88.012,47.992C88.012,45.403,86.232,43.623,83.751,43.623C81.162,43.623,79.382,45.403,79.382,47.992L79.382,55.327C79.382,57.916,81.162,59.696,83.751,59.696ZM63.04,90.547C69.566,90.547,76.146,87.742,80.838,83.05C81.486,82.456,81.809,81.539,81.809,80.461C81.809,78.411,80.299,76.955,78.303,76.955C77.279,76.955,76.524,77.333,75.499,78.411C72.532,81.486,67.84,83.589,63.04,83.589C58.509,83.589,53.763,81.593,50.635,78.411C49.772,77.602,49.07,76.955,47.776,76.955C45.78,76.955,44.27,78.411,44.27,80.461C44.27,81.378,44.594,82.241,45.295,82.996C49.664,87.958,56.513,90.547,63.04,90.547ZM27.496,116.112L40.656,116.112C43.515,116.112,45.079,114.548,45.079,111.797C45.079,108.993,43.515,107.428,40.656,107.428L27.604,107.428C22.211,107.428,19.244,104.57,19.244,98.961L19.244,86.232C19.244,83.373,17.68,81.809,14.875,81.809C12.071,81.809,10.561,83.373,10.561,86.232L10.561,99.392C10.561,110.557,16.224,116.112,27.496,116.112ZM86.016,116.112L99.23,116.112C110.503,116.112,116.166,110.503,116.166,99.392L116.166,86.232C116.166,83.373,114.602,81.809,111.797,81.809C108.993,81.809,107.482,83.373,107.482,86.232L107.482,98.961C107.482,104.57,104.408,107.428,99.068,107.428L86.016,107.428C83.211,107.428,81.647,108.993,81.647,111.797C81.647,114.548,83.211,116.112,86.016,116.112ZM86.016,116.112"/>
</g>
  <g id="Light-M" transform="matrix(1.0,0.0,0.0,1.0,1091.0567257756295,1027.4067453068794)">  <path stroke-linecap="butt" stroke-opacity="1" stroke-miterlimit="4" stroke="none" stroke-linejoin="miter" fill-rule="nonzero" stroke-width="1px" fill-opacity="1" stroke-dasharray="none" xmlns:xlink="http://www.w3.org/1999/xlink" fill="#000000" version="1.1" d="M14.875,44.863C17.734,44.863,19.244,43.245,19.244,40.441L19.244,27.712C19.244,22.103,22.211,19.244,27.604,19.244L40.656,19.244C43.515,19.244,45.079,17.68,45.079,14.875C45.079,12.071,43.515,10.561,40.656,10.561L27.496,10.561C16.224,10.561,10.561,16.116,10.561,27.227L10.561,40.441C10.561,43.245,12.125,44.863,14.875,44.863ZM111.797,44.863C114.656,44.863,116.166,43.245,116.166,40.441L116.166,27.227C116.166,16.116,110.503,10.561,99.23,10.561L86.016,10.561C83.211,10.561,81.647,12.071,81.647,14.875C81.647,17.68,83.211,19.244,86.016,19.244L99.068,19.244C104.408,19.244,107.482,22.103,107.482,27.712L107.482,40.441C107.482,43.245,109.047,44.863,111.797,44.863ZM59.048,72.424L59.48,72.424C64.927,72.424,67.894,69.458,67.894,64.01L67.894,47.021C67.894,44.917,66.492,43.569,64.442,43.569C62.285,43.569,60.882,44.917,60.882,47.021L60.882,64.496C60.882,65.035,60.559,65.305,60.073,65.305L58.185,65.305C56.244,65.305,54.734,66.815,54.734,68.757C54.734,71.076,56.298,72.424,59.048,72.424ZM42.814,59.696C45.349,59.696,47.183,57.916,47.183,55.327L47.183,47.992C47.183,45.403,45.349,43.623,42.814,43.623C40.279,43.623,38.499,45.403,38.499,47.992L38.499,55.327C38.499,57.916,40.279,59.696,42.814,59.696ZM83.751,59.696C86.232,59.696,88.012,57.916,88.012,55.327L88.012,47.992C88.012,45.403,86.232,43.623,83.751,43.623C81.162,43.623,79.382,45.403,79.382,47.992L79.382,55.327C79.382,57.916,81.162,59.696,83.751,59.696ZM63.04,90.547C69.566,90.547,76.146,87.742,80.838,83.05C81.486,82.456,81.809,81.539,81.809,80.461C81.809,78.411,80.299,76.955,78.303,76.955C77.279,76.955,76.524,77.333,75.499,78.411C72.532,81.486,67.84,83.589,63.04,83.589C58.509,83.589,53.763,81.593,50.635,78.411C49.772,77.602,49.07,76.955,47.776,76.955C45.78,76.955,44.27,78.411,44.27,80.461C44.27,81.378,44.594,82.241,45.295,82.996C49.664,87.958,56.513,90.547,63.04,90.547ZM27.496,116.112L40.656,116.112C43.515,116.112,45.079,114.548,45.079,111.797C45.079,108.993,43.515,107.428,40.656,107.428L27.604,107.428C22.211,107.428,19.244,104.57,19.244,98.961L19.244,86.232C19.244,83.373,17.68,81.809,14.875,81.809C12.071,81.809,10.561,83.373,10.561,86.232L10.561,99.392C10.561,110.557,16.224,116.112,27.496,116.112ZM86.016,116.112L99.23,116.112C110.503,116.112,116.166,110.503,116.166,99.392L116.166,86.232C116.166,83.373,114.602,81.809,111.797,81.809C108.993,81.809,107.482,83.373,107.482,86.232L107.482,98.961C107.482,104.57,104.408,107.428,99.068,107.428L86.016,107.428C83.211,107.428,81.647,108.993,81.647,111.797C81.647,114.548,83.211,116.112,86.016,116.112ZM86.016,116.112"/>
</g>
  <g id="Thin-M" transform="matrix(1.0,0.0,0.0,1.0,794.3467257756296,1027.4067453068794)">  <path fill-rule="nonzero" stroke-miterlimit="4" fill="#000000" stroke-opacity="1" version="1.1" stroke-width="1px" stroke-dasharray="none" stroke="none" xmlns:xlink="http://www.w3.org/1999/xlink" stroke-linejoin="miter" stroke-linecap="butt" fill-opacity="1" d="M14.875,44.863C17.734,44.863,19.244,43.245,19.244,40.441L19.244,27.712C19.244,22.103,22.211,19.244,27.604,19.244L40.656,19.244C43.515,19.244,45.079,17.68,45.079,14.875C45.079,12.071,43.515,10.561,40.656,10.561L27.496,10.561C16.224,10.561,10.561,16.116,10.561,27.227L10.561,40.441C10.561,43.245,12.125,44.863,14.875,44.863ZM111.797,44.863C114.656,44.863,116.166,43.245,116.166,40.441L116.166,27.227C116.166,16.116,110.503,10.561,99.23,10.561L86.016,10.561C83.211,10.561,81.647,12.071,81.647,14.875C81.647,17.68,83.211,19.244,86.016,19.244L99.068,19.244C104.408,19.244,107.482,22.103,107.482,27.712L107.482,40.441C107.482,43.245,109.047,44.863,111.797,44.863ZM59.048,72.424L59.48,72.424C64.927,72.424,67.894,69.458,67.894,64.01L67.894,47.021C67.894,44.917,66.492,43.569,64.442,43.569C62.285,43.569,60.882,44.917,60.882,47.021L60.882,64.496C60.882,65.035,60.559,65.305,60.073,65.305L58.185,65.305C56.244,65.305,54.734,66.815,54.734,68.757C54.734,71.076,56.298,72.424,59.048,72.424ZM42.814,59.696C45.349,59.696,47.183,57.916,47.183,55.327L47.183,47.992C47.183,45.403,45.349,43.623,42.814,43.623C40.279,43.623,38.499,45.403,38.499,47.992L38.499,55.327C38.499,57.916,40.279,59.696,42.814,59.696ZM83.751,59.696C86.232,59.696,88.012,57.916,88.012,55.327L88.012,47.992C88.012,45.403,86.232,43.623,83.751,43.623C81.162,43.623,79.382,45.403,79.382,47.992L79.382,55.327C79.382,57.916,81.162,59.696,83.751,59.696ZM63.04,90.547C69.566,90.547,76.146,87.742,80.838,83.05C81.486,82.456,81.809,81.539,81.809,80.461C81.809,78.411,80.299,76.955,78.303,76.955C77.279,76.955,76.524,77.333,75.499,78.411C72.532,81.486,67.84,83.589,63.04,83.589C58.509,83.589,53.763,81.593,50.635,78.411C49.772,77.602,49.07,76.955,47.776,76.955C45.78,76.955,44.27,78.411,44.27,80.461C44.27,81.378,44.594,82.241,45.295,82.996C49.664,87.958,56.513,90.547,63.04,90.547ZM27.496,116.112L40.656,116.112C43.515,116.112,45.079,114.548,45.079,111.797C45.079,108.993,43.515,107.428,40.656,107.428L27.604,107.428C22.211,107.428,19.244,104.57,19.244,98.961L19.244,86.232C19.244,83.373,17.68,81.809,14.875,81.809C12.071,81.809,10.561,83.373,10.561,86.232L10.561,99.392C10.561,110.557,16.224,116.112,27.496,116.112ZM86.016,116.112L99.23,116.112C110.503,116.112,116.166,110.503,116.166,99.392L116.166,86.232C116.166,83.373,114.602,81.809,111.797,81.809C108.993,81.809,107.482,83.373,107.482,86.232L107.482,98.961C107.482,104.57,104.408,107.428,99.068,107.428L86.016,107.428C83.211,107.428,81.647,108.993,81.647,111.797C81.647,114.548,83.211,116.112,86.016,116.112ZM86.016,116.112"/>
</g>
  <g id="Ultralight-M" transform="matrix(1.0,0.0,0.0,1.0,497.6367257756295,1027.4067453068794)">  <path version="1.1" stroke-miterlimit="4" stroke-dasharray="none" stroke="none" stroke-width="1px" stroke-opacity="1" xmlns:xlink="http://www.w3.org/1999/xlink" fill-rule="nonzero" fill="#000000" fill-opacity="1" stroke-linejoin="miter" stroke-linecap="butt" d="M14.875,44.863C17.734,44.863,19.244,43.245,19.244,40.441L19.244,27.712C19.244,22.103,22.211,19.244,27.604,19.244L40.656,19.244C43.515,19.244,45.079,17.68,45.079,14.875C45.079,12.071,43.515,10.561,40.656,10.561L27.496,10.561C16.224,10.561,10.561,16.116,10.561,27.227L10.561,40.441C10.561,43.245,12.125,44.863,14.875,44.863ZM111.797,44.863C114.656,44.863,116.166,43.245,116.166,40.441L116.166,27.227C116.166,16.116,110.503,10.561,99.23,10.561L86.016,10.561C83.211,10.561,81.647,12.071,81.647,14.875C81.647,17.68,83.211,19.244,86.016,19.244L99.068,19.244C104.408,19.244,107.482,22.103,107.482,27.712L107.482,40.441C107.482,43.245,109.047,44.863,111.797,44.863ZM59.048,72.424L59.48,72.424C64.927,72.424,67.894,69.458,67.894,64.01L67.894,47.021C67.894,44.917,66.492,43.569,64.442,43.569C62.285,43.569,60.882,44.917,60.882,47.021L60.882,64.496C60.882,65.035,60.559,65.305,60.073,65.305L58.185,65.305C56.244,65.305,54.734,66.815,54.734,68.757C54.734,71.076,56.298,72.424,59.048,72.424ZM42.814,59.696C45.349,59.696,47.183,57.916,47.183,55.327L47.183,47.992C47.183,45.403,45.349,43.623,42.814,43.623C40.279,43.623,38.499,45.403,38.499,47.992L38.499,55.327C38.499,57.916,40.279,59.696,42.814,59.696ZM83.751,59.696C86.232,59.696,88.012,57.916,88.012,55.327L88.012,47.992C88.012,45.403,86.232,43.623,83.751,43.623C81.162,43.623,79.382,45.403,79.382,47.992L79.382,55.327C79.382,57.916,81.162,59.696,83.751,59.696ZM63.04,90.547C69.566,90.547,76.146,87.742,80.838,83.05C81.486,82.456,81.809,81.539,81.809,80.461C81.809,78.411,80.299,76.955,78.303,76.955C77.279,76.955,76.524,77.333,75.499,78.411C72.532,81.486,67.84,83.589,63.04,83.589C58.509,83.589,53.763,81.593,50.635,78.411C49.772,77.602,49.07,76.955,47.776,76.955C45.78,76.955,44.27,78.411,44.27,80.461C44.27,81.378,44.594,82.241,45.295,82.996C49.664,87.958,56.513,90.547,63.04,90.547ZM27.496,116.112L40.656,116.112C43.515,116.112,45.079,114.548,45.079,111.797C45.079,108.993,43.515,107.428,40.656,107.428L27.604,107.428C22.211,107.428,19.244,104.57,19.244,98.961L19.244,86.232C19.244,83.373,17.68,81.809,14.875,81.809C12.071,81.809,10.561,83.373,10.561,86.232L10.561,99.392C10.561,110.557,16.224,116.112,27.496,116.112ZM86.016,116.112L99.23,116.112C110.503,116.112,116.166,110.503,116.166,99.392L116.166,86.232C116.166,83.373,114.602,81.809,111.797,81.809C108.993,81.809,107.482,83.373,107.482,86.232L107.482,98.961C107.482,104.57,104.408,107.428,99.068,107.428L86.016,107.428C83.211,107.428,81.647,108.993,81.647,111.797C81.647,114.548,83.211,116.112,86.016,116.112ZM86.016,116.112"/>
</g>
  <g id="Black-S" transform="matrix(1.0,0.0,0.0,1.0,2885.066556282318,611.1565758135679)">  <path stroke-linecap="butt" fill="#000000" stroke-opacity="1" stroke-width="1px" stroke-miterlimit="4" xmlns:xlink="http://www.w3.org/1999/xlink" fill-opacity="1" fill-rule="nonzero" stroke="none" stroke-dasharray="none" stroke-linejoin="miter" version="1.1" d="M11.647,35.128C13.886,35.128,15.068,33.861,15.068,31.665L15.068,21.698C15.068,17.306,17.391,15.068,21.614,15.068L31.834,15.068C34.072,15.068,35.297,13.843,35.297,11.647C35.297,9.451,34.072,8.269,31.834,8.269L21.53,8.269C12.703,8.269,8.269,12.619,8.269,21.318L8.269,31.665C8.269,33.861,9.494,35.128,11.647,35.128ZM87.537,35.128C89.775,35.128,90.958,33.861,90.958,31.665L90.958,21.318C90.958,12.619,86.524,8.269,77.697,8.269L67.351,8.269C65.155,8.269,63.93,9.451,63.93,11.647C63.93,13.843,65.155,15.068,67.351,15.068L77.571,15.068C81.752,15.068,84.159,17.306,84.159,21.698L84.159,31.665C84.159,33.861,85.383,35.128,87.537,35.128ZM46.235,56.708L46.573,56.708C50.838,56.708,53.161,54.386,53.161,50.12L53.161,36.817C53.161,35.17,52.063,34.115,50.458,34.115C48.769,34.115,47.671,35.17,47.671,36.817L47.671,50.5C47.671,50.923,47.417,51.134,47.037,51.134L45.559,51.134C44.039,51.134,42.856,52.316,42.856,53.837C42.856,55.653,44.081,56.708,46.235,56.708ZM33.523,46.742C35.508,46.742,36.944,45.348,36.944,43.321L36.944,37.577C36.944,35.55,35.508,34.157,33.523,34.157C31.538,34.157,30.145,35.55,30.145,37.577L30.145,43.321C30.145,45.348,31.538,46.742,33.523,46.742ZM65.577,46.742C67.52,46.742,68.913,45.348,68.913,43.321L68.913,37.577C68.913,35.55,67.52,34.157,65.577,34.157C63.55,34.157,62.156,35.55,62.156,37.577L62.156,43.321C62.156,45.348,63.55,46.742,65.577,46.742ZM49.36,70.898C54.47,70.898,59.622,68.702,63.296,65.028C63.803,64.563,64.057,63.845,64.057,63.001C64.057,61.396,62.874,60.256,61.312,60.256C60.509,60.256,59.918,60.551,59.116,61.396C56.793,63.803,53.119,65.45,49.36,65.45C45.813,65.45,42.096,63.888,39.647,61.396C38.971,60.763,38.422,60.256,37.409,60.256C35.846,60.256,34.664,61.396,34.664,63.001C34.664,63.719,34.917,64.394,35.466,64.986C38.887,68.871,44.25,70.898,49.36,70.898ZM21.53,90.916L31.834,90.916C34.072,90.916,35.297,89.691,35.297,87.537C35.297,85.341,34.072,84.116,31.834,84.116L21.614,84.116C17.391,84.116,15.068,81.878,15.068,77.486L15.068,67.52C15.068,65.281,13.843,64.057,11.647,64.057C9.451,64.057,8.269,65.281,8.269,67.52L8.269,77.824C8.269,86.566,12.703,90.916,21.53,90.916ZM67.351,90.916L77.697,90.916C86.524,90.916,90.958,86.524,90.958,77.824L90.958,67.52C90.958,65.281,89.733,64.057,87.537,64.057C85.341,64.057,84.159,65.281,84.159,67.52L84.159,77.486C84.159,81.878,81.752,84.116,77.571,84.116L67.351,84.116C65.155,84.116,63.93,85.341,63.93,87.537C63.93,89.691,65.155,90.916,67.351,90.916ZM67.351,90.916"/>
</g>
  <g id="Heavy-S" transform="matrix(1.0,0.0,0.0,1.0,2588.356556282318,611.1565758135679)">  <path stroke-dasharray="none" fill-rule="nonzero" stroke-linecap="butt" xmlns:xlink="http://www.w3.org/1999/xlink" fill="#000000" fill-opacity="1" stroke-linejoin="miter" stroke-width="1px" version="1.1" stroke-miterlimit="4" stroke="none" stroke-opacity="1" d="M11.647,35.128C13.886,35.128,15.068,33.861,15.068,31.665L15.068,21.698C15.068,17.306,17.391,15.068,21.614,15.068L31.834,15.068C34.072,15.068,35.297,13.843,35.297,11.647C35.297,9.451,34.072,8.269,31.834,8.269L21.53,8.269C12.703,8.269,8.269,12.619,8.269,21.318L8.269,31.665C8.269,33.861,9.494,35.128,11.647,35.128ZM87.537,35.128C89.775,35.128,90.958,33.861,90.958,31.665L90.958,21.318C90.958,12.619,86.524,8.269,77.697,8.269L67.351,8.269C65.155,8.269,63.93,9.451,63.93,11.647C63.93,13.843,65.155,15.068,67.351,15.068L77.571,15.068C81.752,15.068,84.159,17.306,84.159,21.698L84.159,31.665C84.159,33.861,85.383,35.128,87.537,35.128ZM46.235,56.708L46.573,56.708C50.838,56.708,53.161,54.386,53.161,50.12L53.161,36.817C53.161,35.17,52.063,34.115,50.458,34.115C48.769,34.115,47.671,35.17,47.671,36.817L47.671,50.5C47.671,50.923,47.417,51.134,47.037,51.134L45.559,51.134C44.039,51.134,42.856,52.316,42.856,53.837C42.856,55.653,44.081,56.708,46.235,56.708ZM33.523,46.742C35.508,46.742,36.944,45.348,36.944,43.321L36.944,37.577C36.944,35.55,35.508,34.157,33.523,34.157C31.538,34.157,30.145,35.55,30.145,37.577L30.145,43.321C30.145,45.348,31.538,46.742,33.523,46.742ZM65.577,46.742C67.52,46.742,68.913,45.348,68.913,43.321L68.913,37.577C68.913,35.55,67.52,34.157,65.577,34.157C63.55,34.157,62.156,35.55,62.156,37.577L62.156,43.321C62.156,45.348,63.55,46.742,65.577,46.742ZM49.36,70.898C54.47,70.898,59.622,68.702,63.296,65.028C63.803,64.563,64.057,63.845,64.057,63.001C64.057,61.396,62.874,60.256,61.312,60.256C60.509,60.256,59.918,60.551,59.116,61.396C56.793,63.803,53.119,65.45,49.36,65.45C45.813,65.45,42.096,63.888,39.647,61.396C38.971,60.763,38.422,60.256,37.409,60.256C35.846,60.256,34.664,61.396,34.664,63.001C34.664,63.719,34.917,64.394,35.466,64.986C38.887,68.871,44.25,70.898,49.36,70.898ZM21.53,90.916L31.834,90.916C34.072,90.916,35.297,89.691,35.297,87.537C35.297,85.341,34.072,84.116,31.834,84.116L21.614,84.116C17.391,84.116,15.068,81.878,15.068,77.486L15.068,67.52C15.068,65.281,13.843,64.057,11.647,64.057C9.451,64.057,8.269,65.281,8.269,67.52L8.269,77.824C8.269,86.566,12.703,90.916,21.53,90.916ZM67.351,90.916L77.697,90.916C86.524,90.916,90.958,86.524,90.958,77.824L90.958,67.52C90.958,65.281,89.733,64.057,87.537,64.057C85.341,64.057,84.159,65.281,84.159,67.52L84.159,77.486C84.159,81.878,81.752,84.116,77.571,84.116L67.351,84.116C65.155,84.116,63.93,85.341,63.93,87.537C63.93,89.691,65.155,90.916,67.351,90.916ZM67.351,90.916"/>
</g>
  <g id="Bold-S" transform="matrix(1.0,0.0,0.0,1.0,2291.6465562823178,611.1565758135679)">  <path stroke-width="1px" xmlns:xlink="http://www.w3.org/1999/xlink" version="1.1" fill="#000000" stroke-dasharray="none" stroke-linejoin="miter" stroke-miterlimit="4" fill-rule="nonzero" stroke-opacity="1" stroke="none" stroke-linecap="butt" fill-opacity="1" d="M11.647,35.128C13.886,35.128,15.068,33.861,15.068,31.665L15.068,21.698C15.068,17.306,17.391,15.068,21.614,15.068L31.834,15.068C34.072,15.068,35.297,13.843,35.297,11.647C35.297,9.451,34.072,8.269,31.834,8.269L21.53,8.269C12.703,8.269,8.269,12.619,8.269,21.318L8.269,31.665C8.269,33.861,9.494,35.128,11.647,35.128ZM87.537,35.128C89.775,35.128,90.958,33.861,90.958,31.665L90.958,21.318C90.958,12.619,86.524,8.269,77.697,8.269L67.351,8.269C65.155,8.269,63.93,9.451,63.93,11.647C63.93,13.843,65.155,15.068,67.351,15.068L77.571,15.068C81.752,15.068,84.159,17.306,84.159,21.698L84.159,31.665C84.159,33.861,85.383,35.128,87.537,35.128ZM46.235,56.708L46.573,56.708C50.838,56.708,53.161,54.386,53.161,50.12L53.161,36.817C53.161,35.17,52.063,34.115,50.458,34.115C48.769,34.115,47.671,35.17,47.671,36.817L47.671,50.5C47.671,50.923,47.417,51.134,47.037,51.134L45.559,51.134C44.039,51.134,42.856,52.316,42.856,53.837C42.856,55.653,44.081,56.708,46.235,56.708ZM33.523,46.742C35.508,46.742,36.944,45.348,36.944,43.321L36.944,37.577C36.944,35.55,35.508,34.157,33.523,34.157C31.538,34.157,30.145,35.55,30.145,37.577L30.145,43.321C30.145,45.348,31.538,46.742,33.523,46.742ZM65.577,46.742C67.52,46.742,68.913,45.348,68.913,43.321L68.913,37.577C68.913,35.55,67.52,34.157,65.577,34.157C63.55,34.157,62.156,35.55,62.156,37.577L62.156,43.321C62.156,45.348,63.55,46.742,65.577,46.742ZM49.36,70.898C54.47,70.898,59.622,68.702,63.296,65.028C63.803,64.563,64.057,63.845,64.057,63.001C64.057,61.396,62.874,60.256,61.312,60.256C60.509,60.256,59.918,60.551,59.116,61.396C56.793,63.803,53.119,65.45,49.36,65.45C45.813,65.45,42.096,63.888,39.647,61.396C38.971,60.763,38.422,60.256,37.409,60.256C35.846,60.256,34.664,61.396,34.664,63.001C34.664,63.719,34.917,64.394,35.466,64.986C38.887,68.871,44.25,70.898,49.36,70.898ZM21.53,90.916L31.834,90.916C34.072,90.916,35.297,89.691,35.297,87.537C35.297,85.341,34.072,84.116,31.834,84.116L21.614,84.116C17.391,84.116,15.068,81.878,15.068,77.486L15.068,67.52C15.068,65.281,13.843,64.057,11.647,64.057C9.451,64.057,8.269,65.281,8.269,67.52L8.269,77.824C8.269,86.566,12.703,90.916,21.53,90.916ZM67.351,90.916L77.697,90.916C86.524,90.916,90.958,86.524,90.958,77.824L90.958,67.52C90.958,65.281,89.733,64.057,87.537,64.057C85.341,64.057,84.159,65.281,84.159,67.52L84.159,77.486C84.159,81.878,81.752,84.116,77.571,84.116L67.351,84.116C65.155,84.116,63.93,85.341,63.93,87.537C63.93,89.691,65.155,90.916,67.351,90.916ZM67.351,90.916"/>
</g>
  <g id="Semibold-S" transform="matrix(1.0,0.0,0.0,1.0,1994.936556282318,611.1565758135679)">  <path version="1.1" fill-opacity="1" fill-rule="nonzero" stroke-opacity="1" stroke-linecap="butt" stroke-width="1px" stroke="none" fill="#000000" stroke-miterlimit="4" stroke-dasharray="none" stroke-linejoin="miter" xmlns:xlink="http://www.w3.org/1999/xlink" d="M11.647,35.128C13.886,35.128,15.068,33.861,15.068,31.665L15.068,21.698C15.068,17.306,17.391,15.068,21.614,15.068L31.834,15.068C34.072,15.068,35.297,13.843,35.297,11.647C35.297,9.451,34.072,8.269,31.834,8.269L21.53,8.269C12.703,8.269,8.269,12.619,8.269,21.318L8.269,31.665C8.269,33.861,9.494,35.128,11.647,35.128ZM87.537,35.128C89.775,35.128,90.958,33.861,90.958,31.665L90.958,21.318C90.958,12.619,86.524,8.269,77.697,8.269L67.351,8.269C65.155,8.269,63.93,9.451,63.93,11.647C63.93,13.843,65.155,15.068,67.351,15.068L77.571,15.068C81.752,15.068,84.159,17.306,84.159,21.698L84.159,31.665C84.159,33.861,85.383,35.128,87.537,35.128ZM46.235,56.708L46.573,56.708C50.838,56.708,53.161,54.386,53.161,50.12L53.161,36.817C53.161,35.17,52.063,34.115,50.458,34.115C48.769,34.115,47.671,35.17,47.671,36.817L47.671,50.5C47.671,50.923,47.417,51.134,47.037,51.134L45.559,51.134C44.039,51.134,42.856,52.316,42.856,53.837C42.856,55.653,44.081,56.708,46.235,56.708ZM33.523,46.742C35.508,46.742,36.944,45.348,36.944,43.321L36.944,37.577C36.944,35.55,35.508,34.157,33.523,34.157C31.538,34.157,30.145,35.55,30.145,37.577L30.145,43.321C30.145,45.348,31.538,46.742,33.523,46.742ZM65.577,46.742C67.52,46.742,68.913,45.348,68.913,43.321L68.913,37.577C68.913,35.55,67.52,34.157,65.577,34.157C63.55,34.157,62.156,35.55,62.156,37.577L62.156,43.321C62.156,45.348,63.55,46.742,65.577,46.742ZM49.36,70.898C54.47,70.898,59.622,68.702,63.296,65.028C63.803,64.563,64.057,63.845,64.057,63.001C64.057,61.396,62.874,60.256,61.312,60.256C60.509,60.256,59.918,60.551,59.116,61.396C56.793,63.803,53.119,65.45,49.36,65.45C45.813,65.45,42.096,63.888,39.647,61.396C38.971,60.763,38.422,60.256,37.409,60.256C35.846,60.256,34.664,61.396,34.664,63.001C34.664,63.719,34.917,64.394,35.466,64.986C38.887,68.871,44.25,70.898,49.36,70.898ZM21.53,90.916L31.834,90.916C34.072,90.916,35.297,89.691,35.297,87.537C35.297,85.341,34.072,84.116,31.834,84.116L21.614,84.116C17.391,84.116,15.068,81.878,15.068,77.486L15.068,67.52C15.068,65.281,13.843,64.057,11.647,64.057C9.451,64.057,8.269,65.281,8.269,67.52L8.269,77.824C8.269,86.566,12.703,90.916,21.53,90.916ZM67.351,90.916L77.697,90.916C86.524,90.916,90.958,86.524,90.958,77.824L90.958,67.52C90.958,65.281,89.733,64.057,87.537,64.057C85.341,64.057,84.159,65.281,84.159,67.52L84.159,77.486C84.159,81.878,81.752,84.116,77.571,84.116L67.351,84.116C65.155,84.116,63.93,85.341,63.93,87.537C63.93,89.691,65.155,90.916,67.351,90.916ZM67.351,90.916"/>
</g>
  <g id="Medium-S" transform="matrix(1.0,0.0,0.0,1.0,1698.226556282318,611.1565758135679)">  <path stroke-dasharray="none" stroke-width="1px" stroke-miterlimit="4" stroke-linejoin="miter" stroke-opacity="1" fill="#000000" stroke-linecap="butt" xmlns:xlink="http://www.w3.org/1999/xlink" fill-rule="nonzero" fill-opacity="1" version="1.1" stroke="none" d="M11.647,35.128C13.886,35.128,15.068,33.861,15.068,31.665L15.068,21.698C15.068,17.306,17.391,15.068,21.614,15.068L31.834,15.068C34.072,15.068,35.297,13.843,35.297,11.647C35.297,9.451,34.072,8.269,31.834,8.269L21.53,8.269C12.703,8.269,8.269,12.619,8.269,21.318L8.269,31.665C8.269,33.861,9.494,35.128,11.647,35.128ZM87.537,35.128C89.775,35.128,90.958,33.861,90.958,31.665L90.958,21.318C90.958,12.619,86.524,8.269,77.697,8.269L67.351,8.269C65.155,8.269,63.93,9.451,63.93,11.647C63.93,13.843,65.155,15.068,67.351,15.068L77.571,15.068C81.752,15.068,84.159,17.306,84.159,21.698L84.159,31.665C84.159,33.861,85.383,35.128,87.537,35.128ZM46.235,56.708L46.573,56.708C50.838,56.708,53.161,54.386,53.161,50.12L53.161,36.817C53.161,35.17,52.063,34.115,50.458,34.115C48.769,34.115,47.671,35.17,47.671,36.817L47.671,50.5C47.671,50.923,47.417,51.134,47.037,51.134L45.559,51.134C44.039,51.134,42.856,52.316,42.856,53.837C42.856,55.653,44.081,56.708,46.235,56.708ZM33.523,46.742C35.508,46.742,36.944,45.348,36.944,43.321L36.944,37.577C36.944,35.55,35.508,34.157,33.523,34.157C31.538,34.157,30.145,35.55,30.145,37.577L30.145,43.321C30.145,45.348,31.538,46.742,33.523,46.742ZM65.577,46.742C67.52,46.742,68.913,45.348,68.913,43.321L68.913,37.577C68.913,35.55,67.52,34.157,65.577,34.157C63.55,34.157,62.156,35.55,62.156,37.577L62.156,43.321C62.156,45.348,63.55,46.742,65.577,46.742ZM49.36,70.898C54.47,70.898,59.622,68.702,63.296,65.028C63.803,64.563,64.057,63.845,64.057,63.001C64.057,61.396,62.874,60.256,61.312,60.256C60.509,60.256,59.918,60.551,59.116,61.396C56.793,63.803,53.119,65.45,49.36,65.45C45.813,65.45,42.096,63.888,39.647,61.396C38.971,60.763,38.422,60.256,37.409,60.256C35.846,60.256,34.664,61.396,34.664,63.001C34.664,63.719,34.917,64.394,35.466,64.986C38.887,68.871,44.25,70.898,49.36,70.898ZM21.53,90.916L31.834,90.916C34.072,90.916,35.297,89.691,35.297,87.537C35.297,85.341,34.072,84.116,31.834,84.116L21.614,84.116C17.391,84.116,15.068,81.878,15.068,77.486L15.068,67.52C15.068,65.281,13.843,64.057,11.647,64.057C9.451,64.057,8.269,65.281,8.269,67.52L8.269,77.824C8.269,86.566,12.703,90.916,21.53,90.916ZM67.351,90.916L77.697,90.916C86.524,90.916,90.958,86.524,90.958,77.824L90.958,67.52C90.958,65.281,89.733,64.057,87.537,64.057C85.341,64.057,84.159,65.281,84.159,67.52L84.159,77.486C84.159,81.878,81.752,84.116,77.571,84.116L67.351,84.116C65.155,84.116,63.93,85.341,63.93,87.537C63.93,89.691,65.155,90.916,67.351,90.916ZM67.351,90.916"/>
</g>
  <g id="Regular-S" transform="matrix(1.0,0.0,0.0,1.0,1401.5165562823179,611.1565758135679)">  <path stroke-linejoin="miter" stroke-linecap="butt" fill-opacity="1" stroke-opacity="1" fill-rule="nonzero" stroke-dasharray="none" version="1.1" xmlns:xlink="http://www.w3.org/1999/xlink" fill="#000000" stroke-width="1px" stroke="none" stroke-miterlimit="4" d="M11.647,35.128C13.886,35.128,15.068,33.861,15.068,31.665L15.068,21.698C15.068,17.306,17.391,15.068,21.614,15.068L31.834,15.068C34.072,15.068,35.297,13.843,35.297,11.647C35.297,9.451,34.072,8.269,31.834,8.269L21.53,8.269C12.703,8.269,8.269,12.619,8.269,21.318L8.269,31.665C8.269,33.861,9.494,35.128,11.647,35.128ZM87.537,35.128C89.775,35.128,90.958,33.861,90.958,31.665L90.958,21.318C90.958,12.619,86.524,8.269,77.697,8.269L67.351,8.269C65.155,8.269,63.93,9.451,63.93,11.647C63.93,13.843,65.155,15.068,67.351,15.068L77.571,15.068C81.752,15.068,84.159,17.306,84.159,21.698L84.159,31.665C84.159,33.861,85.383,35.128,87.537,35.128ZM46.235,56.708L46.573,56.708C50.838,56.708,53.161,54.386,53.161,50.12L53.161,36.817C53.161,35.17,52.063,34.115,50.458,34.115C48.769,34.115,47.671,35.17,47.671,36.817L47.671,50.5C47.671,50.923,47.417,51.134,47.037,51.134L45.559,51.134C44.039,51.134,42.856,52.316,42.856,53.837C42.856,55.653,44.081,56.708,46.235,56.708ZM33.523,46.742C35.508,46.742,36.944,45.348,36.944,43.321L36.944,37.577C36.944,35.55,35.508,34.157,33.523,34.157C31.538,34.157,30.145,35.55,30.145,37.577L30.145,43.321C30.145,45.348,31.538,46.742,33.523,46.742ZM65.577,46.742C67.52,46.742,68.913,45.348,68.913,43.321L68.913,37.577C68.913,35.55,67.52,34.157,65.577,34.157C63.55,34.157,62.156,35.55,62.156,37.577L62.156,43.321C62.156,45.348,63.55,46.742,65.577,46.742ZM49.36,70.898C54.47,70.898,59.622,68.702,63.296,65.028C63.803,64.563,64.057,63.845,64.057,63.001C64.057,61.396,62.874,60.256,61.312,60.256C60.509,60.256,59.918,60.551,59.116,61.396C56.793,63.803,53.119,65.45,49.36,65.45C45.813,65.45,42.096,63.888,39.647,61.396C38.971,60.763,38.422,60.256,37.409,60.256C35.846,60.256,34.664,61.396,34.664,63.001C34.664,63.719,34.917,64.394,35.466,64.986C38.887,68.871,44.25,70.898,49.36,70.898ZM21.53,90.916L31.834,90.916C34.072,90.916,35.297,89.691,35.297,87.537C35.297,85.341,34.072,84.116,31.834,84.116L21.614,84.116C17.391,84.116,15.068,81.878,15.068,77.486L15.068,67.52C15.068,65.281,13.843,64.057,11.647,64.057C9.451,64.057,8.269,65.281,8.269,67.52L8.269,77.824C8.269,86.566,12.703,90.916,21.53,90.916ZM67.351,90.916L77.697,90.916C86.524,90.916,90.958,86.524,90.958,77.824L90.958,67.52C90.958,65.281,89.733,64.057,87.537,64.057C85.341,64.057,84.159,65.281,84.159,67.52L84.159,77.486C84.159,81.878,81.752,84.116,77.571,84.116L67.351,84.116C65.155,84.116,63.93,85.341,63.93,87.537C63.93,89.691,65.155,90.916,67.351,90.916ZM67.351,90.916"/>
</g>
  <g id="Light-S" transform="matrix(1.0,0.0,0.0,1.0,1104.806556282318,611.1565758135679)">  <path stroke-linecap="butt" stroke-opacity="1" stroke-miterlimit="4" stroke="none" stroke-linejoin="miter" fill-rule="nonzero" stroke-width="1px" fill-opacity="1" stroke-dasharray="none" xmlns:xlink="http://www.w3.org/1999/xlink" fill="#000000" version="1.1" d="M11.647,35.128C13.886,35.128,15.068,33.861,15.068,31.665L15.068,21.698C15.068,17.306,17.391,15.068,21.614,15.068L31.834,15.068C34.072,15.068,35.297,13.843,35.297,11.647C35.297,9.451,34.072,8.269,31.834,8.269L21.53,8.269C12.703,8.269,8.269,12.619,8.269,21.318L8.269,31.665C8.269,33.861,9.494,35.128,11.647,35.128ZM87.537,35.128C89.775,35.128,90.958,33.861,90.958,31.665L90.958,21.318C90.958,12.619,86.524,8.269,77.697,8.269L67.351,8.269C65.155,8.269,63.93,9.451,63.93,11.647C63.93,13.843,65.155,15.068,67.351,15.068L77.571,15.068C81.752,15.068,84.159,17.306,84.159,21.698L84.159,31.665C84.159,33.861,85.383,35.128,87.537,35.128ZM46.235,56.708L46.573,56.708C50.838,56.708,53.161,54.386,53.161,50.12L53.161,36.817C53.161,35.17,52.063,34.115,50.458,34.115C48.769,34.115,47.671,35.17,47.671,36.817L47.671,50.5C47.671,50.923,47.417,51.134,47.037,51.134L45.559,51.134C44.039,51.134,42.856,52.316,42.856,53.837C42.856,55.653,44.081,56.708,46.235,56.708ZM33.523,46.742C35.508,46.742,36.944,45.348,36.944,43.321L36.944,37.577C36.944,35.55,35.508,34.157,33.523,34.157C31.538,34.157,30.145,35.55,30.145,37.577L30.145,43.321C30.145,45.348,31.538,46.742,33.523,46.742ZM65.577,46.742C67.52,46.742,68.913,45.348,68.913,43.321L68.913,37.577C68.913,35.55,67.52,34.157,65.577,34.157C63.55,34.157,62.156,35.55,62.156,37.577L62.156,43.321C62.156,45.348,63.55,46.742,65.577,46.742ZM49.36,70.898C54.47,70.898,59.622,68.702,63.296,65.028C63.803,64.563,64.057,63.845,64.057,63.001C64.057,61.396,62.874,60.256,61.312,60.256C60.509,60.256,59.918,60.551,59.116,61.396C56.793,63.803,53.119,65.45,49.36,65.45C45.813,65.45,42.096,63.888,39.647,61.396C38.971,60.763,38.422,60.256,37.409,60.256C35.846,60.256,34.664,61.396,34.664,63.001C34.664,63.719,34.917,64.394,35.466,64.986C38.887,68.871,44.25,70.898,49.36,70.898ZM21.53,90.916L31.834,90.916C34.072,90.916,35.297,89.691,35.297,87.537C35.297,85.341,34.072,84.116,31.834,84.116L21.614,84.116C17.391,84.116,15.068,81.878,15.068,77.486L15.068,67.52C15.068,65.281,13.843,64.057,11.647,64.057C9.451,64.057,8.269,65.281,8.269,67.52L8.269,77.824C8.269,86.566,12.703,90.916,21.53,90.916ZM67.351,90.916L77.697,90.916C86.524,90.916,90.958,86.524,90.958,77.824L90.958,67.52C90.958,65.281,89.733,64.057,87.537,64.057C85.341,64.057,84.159,65.281,84.159,67.52L84.159,77.486C84.159,81.878,81.752,84.116,77.571,84.116L67.351,84.116C65.155,84.116,63.93,85.341,63.93,87.537C63.93,89.691,65.155,90.916,67.351,90.916ZM67.351,90.916"/>
</g>
  <g id="Thin-S" transform="matrix(1.0,0.0,0.0,1.0,808.0965562823179,611.1565758135679)">  <path fill-rule="nonzero" stroke-miterlimit="4" fill="#000000" stroke-opacity="1" version="1.1" stroke-width="1px" stroke-dasharray="none" stroke="none" xmlns:xlink="http://www.w3.org/1999/xlink" stroke-linejoin="miter" stroke-linecap="butt" fill-opacity="1" d="M11.647,35.128C13.886,35.128,15.068,33.861,15.068,31.665L15.068,21.698C15.068,17.306,17.391,15.068,21.614,15.068L31.834,15.068C34.072,15.068,35.297,13.843,35.297,11.647C35.297,9.451,34.072,8.269,31.834,8.269L21.53,8.269C12.703,8.269,8.269,12.619,8.269,21.318L8.269,31.665C8.269,33.861,9.494,35.128,11.647,35.128ZM87.537,35.128C89.775,35.128,90.958,33.861,90.958,31.665L90.958,21.318C90.958,12.619,86.524,8.269,77.697,8.269L67.351,8.269C65.155,8.269,63.93,9.451,63.93,11.647C63.93,13.843,65.155,15.068,67.351,15.068L77.571,15.068C81.752,15.068,84.159,17.306,84.159,21.698L84.159,31.665C84.159,33.861,85.383,35.128,87.537,35.128ZM46.235,56.708L46.573,56.708C50.838,56.708,53.161,54.386,53.161,50.12L53.161,36.817C53.161,35.17,52.063,34.115,50.458,34.115C48.769,34.115,47.671,35.17,47.671,36.817L47.671,50.5C47.671,50.923,47.417,51.134,47.037,51.134L45.559,51.134C44.039,51.134,42.856,52.316,42.856,53.837C42.856,55.653,44.081,56.708,46.235,56.708ZM33.523,46.742C35.508,46.742,36.944,45.348,36.944,43.321L36.944,37.577C36.944,35.55,35.508,34.157,33.523,34.157C31.538,34.157,30.145,35.55,30.145,37.577L30.145,43.321C30.145,45.348,31.538,46.742,33.523,46.742ZM65.577,46.742C67.52,46.742,68.913,45.348,68.913,43.321L68.913,37.577C68.913,35.55,67.52,34.157,65.577,34.157C63.55,34.157,62.156,35.55,62.156,37.577L62.156,43.321C62.156,45.348,63.55,46.742,65.577,46.742ZM49.36,70.898C54.47,70.898,59.622,68.702,63.296,65.028C63.803,64.563,64.057,63.845,64.057,63.001C64.057,61.396,62.874,60.256,61.312,60.256C60.509,60.256,59.918,60.551,59.116,61.396C56.793,63.803,53.119,65.45,49.36,65.45C45.813,65.45,42.096,63.888,39.647,61.396C38.971,60.763,38.422,60.256,37.409,60.256C35.846,60.256,34.664,61.396,34.664,63.001C34.664,63.719,34.917,64.394,35.466,64.986C38.887,68.871,44.25,70.898,49.36,70.898ZM21.53,90.916L31.834,90.916C34.072,90.916,35.297,89.691,35.297,87.537C35.297,85.341,34.072,84.116,31.834,84.116L21.614,84.116C17.391,84.116,15.068,81.878,15.068,77.486L15.068,67.52C15.068,65.281,13.843,64.057,11.647,64.057C9.451,64.057,8.269,65.281,8.269,67.52L8.269,77.824C8.269,86.566,12.703,90.916,21.53,90.916ZM67.351,90.916L77.697,90.916C86.524,90.916,90.958,86.524,90.958,77.824L90.958,67.52C90.958,65.281,89.733,64.057,87.537,64.057C85.341,64.057,84.159,65.281,84.159,67.52L84.159,77.486C84.159,81.878,81.752,84.116,77.571,84.116L67.351,84.116C65.155,84.116,63.93,85.341,63.93,87.537C63.93,89.691,65.155,90.916,67.351,90.916ZM67.351,90.916"/>
</g>
  <g id="Ultralight-S" transform="matrix(1.0,0.0,0.0,1.0,511.3865562823179,611.1565758135679)">  <path version="1.1" stroke-miterlimit="4" stroke-dasharray="none" stroke="none" stroke-width="1px" stroke-opacity="1" xmlns:xlink="http://www.w3.org/1999/xlink" fill-rule="nonzero" fill="#000000" fill-opacity="1" stroke-linejoin="miter" stroke-linecap="butt" d="M11.647,35.128C13.886,35.128,15.068,33.861,15.068,31.665L15.068,21.698C15.068,17.306,17.391,15.068,21.614,15.068L31.834,15.068C34.072,15.068,35.297,13.843,35.297,11.647C35.297,9.451,34.072,8.269,31.834,8.269L21.53,8.269C12.703,8.269,8.269,12.619,8.269,21.318L8.269,31.665C8.269,33.861,9.494,35.128,11.647,35.128ZM87.537,35.128C89.775,35.128,90.958,33.861,90.958,31.665L90.958,21.318C90.958,12.619,86.524,8.269,77.697,8.269L67.351,8.269C65.155,8.269,63.93,9.451,63.93,11.647C63.93,13.843,65.155,15.068,67.351,15.068L77.571,15.068C81.752,15.068,84.159,17.306,84.159,21.698L84.159,31.665C84.159,33.861,85.383,35.128,87.537,35.128ZM46.235,56.708L46.573,56.708C50.838,56.708,53.161,54.386,53.161,50.12L53.161,36.817C53.161,35.17,52.063,34.115,50.458,34.115C48.769,34.115,47.671,35.17,47.671,36.817L47.671,50.5C47.671,50.923,47.417,51.134,47.037,51.134L45.559,51.134C44.039,51.134,42.856,52.316,42.856,53.837C42.856,55.653,44.081,56.708,46.235,56.708ZM33.523,46.742C35.508,46.742,36.944,45.348,36.944,43.321L36.944,37.577C36.944,35.55,35.508,34.157,33.523,34.157C31.538,34.157,30.145,35.55,30.145,37.577L30.145,43.321C30.145,45.348,31.538,46.742,33.523,46.742ZM65.577,46.742C67.52,46.742,68.913,45.348,68.913,43.321L68.913,37.577C68.913,35.55,67.52,34.157,65.577,34.157C63.55,34.157,62.156,35.55,62.156,37.577L62.156,43.321C62.156,45.348,63.55,46.742,65.577,46.742ZM49.36,70.898C54.47,70.898,59.622,68.702,63.296,65.028C63.803,64.563,64.057,63.845,64.057,63.001C64.057,61.396,62.874,60.256,61.312,60.256C60.509,60.256,59.918,60.551,59.116,61.396C56.793,63.803,53.119,65.45,49.36,65.45C45.813,65.45,42.096,63.888,39.647,61.396C38.971,60.763,38.422,60.256,37.409,60.256C35.846,60.256,34.664,61.396,34.664,63.001C34.664,63.719,34.917,64.394,35.466,64.986C38.887,68.871,44.25,70.898,49.36,70.898ZM21.53,90.916L31.834,90.916C34.072,90.916,35.297,89.691,35.297,87.537C35.297,85.341,34.072,84.116,31.834,84.116L21.614,84.116C17.391,84.116,15.068,81.878,15.068,77.486L15.068,67.52C15.068,65.281,13.843,64.057,11.647,64.057C9.451,64.057,8.269,65.281,8.269,67.52L8.269,77.824C8.269,86.566,12.703,90.916,21.53,90.916ZM67.351,90.916L77.697,90.916C86.524,90.916,90.958,86.524,90.958,77.824L90.958,67.52C90.958,65.281,89.733,64.057,87.537,64.057C85.341,64.057,84.159,65.281,84.159,67.52L84.159,77.486C84.159,81.878,81.752,84.116,77.571,84.116L67.351,84.116C65.155,84.116,63.93,85.341,63.93,87.537C63.93,89.691,65.155,90.916,67.351,90.916ZM67.351,90.916"/>
</g>
 </g>
</svg>
