<?xml version="1.0" encoding="UTF-8"?>
<!-- Generator: CustomSymbols v2.7.2.48 by @serious_bret https://bretlester.com/app_content/CustomSymbols/ -->
<!-- Guides: Left/Right 0.11/0.11 Cap/Base 0.222/0.222 -->
<!-- Settings: RefScale 1.0 Min/Max Stroke Scales 0.5/2.21 -->
<!DOCTYPE svg
PUBLIC "-//W3C//DTD SVG 1.1//EN"
       "http://www.w3.org/Graphics/SVG/1.1/DTD/svg11.dtd">
<svg version="1.1" xmlns="http://www.w3.org/2000/svg" xmlns:xlink="http://www.w3.org/1999/xlink" width="3300" height="2200">
<![CDATA[<?xml version="1.0" encoding="UTF-8"?>
<svg width="96px" height="96px" viewBox="0 0 96 96" version="1.1" xmlns="http://www.w3.org/2000/svg" xmlns:xlink="http://www.w3.org/1999/xlink">
    <title>icon/medical/prescription</title>
    <g id="icon/medical/prescription" stroke="none" stroke-width="1" fill="none" fill-rule="evenodd">
        <path d="M11.9991385,0 C8.68086503,0 6,2.6808573 6,5.99912122 L6,35.9947273 L6,53.992091 C6,57.3103549 8.68086503,59.9912122 11.9991385,59.9912122 C15.317412,59.9912122 17.9982771,57.3103549 17.9982771,53.992091 L17.9982771,41.9938486 L27.5031622,41.9938486 L51.4997163,65.9903334 L31.7588011,85.749939 C29.4153876,88.0933457 29.4153876,91.8990382 31.7588011,94.242445 C34.1022146,96.5858517 37.9079181,96.5858517 40.2513316,94.242445 L59.9922468,74.4828394 L79.7519094,94.2236977 C82.0953229,96.5671044 85.9010264,96.5671044 88.2444399,94.2236977 C90.5878534,91.880291 90.5878534,88.0745984 88.2444399,85.7311917 L68.4847773,65.9903334 L88.2256926,46.2307279 C90.5691061,43.8873212 90.5691061,40.0816287 88.2256926,37.7382219 C85.8822791,35.3948152 82.0765756,35.3948152 79.7331621,37.7382219 L59.9922468,57.4978275 L43.9070566,41.4126837 C53.1307321,39.2005077 59.9922468,30.8954743 59.9922468,20.9969243 C59.9922468,9.39237416 50.5998456,0 38.995262,0 L11.9991385,0 Z M38.995262,29.9956061 L17.9982771,29.9956061 L17.9982771,11.9982424 L38.995262,11.9982424 C43.9632986,11.9982424 47.9939698,16.028902 47.9939698,20.9969243 C47.9939698,25.9649465 43.9632986,29.9956061 38.995262,29.9956061 Z" id="Shape" fill="#FB4C6C" fill-rule="nonzero"></path>
    </g>
</svg>]]>
 <g id="Notes">
  <rect height="2200" id="artboard" style="fill:white;opacity:1" width="3300" x="0" y="0"/>
  <line id="" style="fill:none;stroke:black;opacity:1;stroke-width:0.5;" x1="263" x2="3036" y1="292" y2="292"/>
  <text id="reftext1" style="stroke:none;fill:black;font-family:-apple-system,&quot;SF Pro Display&quot;,&quot;SF Pro Text&quot;,Helvetica,sans-serif;font-weight:bold;" transform="matrix(1 0 0 1 263 322)">Weight/Scale Variations</text>
  <text id="reftext2" style="stroke:none;fill:black;font-family:-apple-system,&quot;SF Pro Display&quot;,&quot;SF Pro Text&quot;,Helvetica,sans-serif;text-anchor:middle;" transform="matrix(1 0 0 1 559.711 322)">Ultralight</text>
  <text style="stroke:none;fill:black;font-family:-apple-system,&quot;SF Pro Display&quot;,&quot;SF Pro Text&quot;,Helvetica,sans-serif;text-anchor:middle;" transform="matrix(1 0 0 1 856.422 322)">Thin</text>
  <text style="stroke:none;fill:black;font-family:-apple-system,&quot;SF Pro Display&quot;,&quot;SF Pro Text&quot;,Helvetica,sans-serif;text-anchor:middle;" transform="matrix(1 0 0 1 1153.13 322)">Light</text>
  <text style="stroke:none;fill:black;font-family:-apple-system,&quot;SF Pro Display&quot;,&quot;SF Pro Text&quot;,Helvetica,sans-serif;text-anchor:middle;" transform="matrix(1 0 0 1 1449.84 322)">Regular</text>
  <text style="stroke:none;fill:black;font-family:-apple-system,&quot;SF Pro Display&quot;,&quot;SF Pro Text&quot;,Helvetica,sans-serif;text-anchor:middle;" transform="matrix(1 0 0 1 1746.56 322)">Medium</text>
  <text style="stroke:none;fill:black;font-family:-apple-system,&quot;SF Pro Display&quot;,&quot;SF Pro Text&quot;,Helvetica,sans-serif;text-anchor:middle;" transform="matrix(1 0 0 1 2043.27 322)">Semibold</text>
  <text style="stroke:none;fill:black;font-family:-apple-system,&quot;SF Pro Display&quot;,&quot;SF Pro Text&quot;,Helvetica,sans-serif;text-anchor:middle;" transform="matrix(1 0 0 1 2339.98 322)">Bold</text>
  <text style="stroke:none;fill:black;font-family:-apple-system,&quot;SF Pro Display&quot;,&quot;SF Pro Text&quot;,Helvetica,sans-serif;text-anchor:middle;" transform="matrix(1 0 0 1 2636.69 322)">Heavy</text>
  <text style="stroke:none;fill:black;font-family:-apple-system,&quot;SF Pro Display&quot;,&quot;SF Pro Text&quot;,Helvetica,sans-serif;text-anchor:middle;" transform="matrix(1 0 0 1 2933.4 322)">Black</text>
  <line id="" style="fill:none;stroke:black;opacity:1;stroke-width:0.5;" x1="263" x2="3036" y1="1903" y2="1903"/>
  <g id="" transform="matrix(1 0 0 1 263 1933)">
   <path d="M9.24805 0.830078C13.5547 0.830078 17.1387-2.74414 17.1387-7.05078C17.1387-11.3574 13.5449-14.9316 9.23828-14.9316C4.94141-14.9316 1.36719-11.3574 1.36719-7.05078C1.36719-2.74414 4.95117 0.830078 9.24805 0.830078ZM9.24805-0.654297C5.70312-0.654297 2.87109-3.49609 2.87109-7.05078C2.87109-10.6055 5.69336-13.4473 9.23828-13.4473C12.793-13.4473 15.6348-10.6055 15.6445-7.05078C15.6543-3.49609 12.8027-0.654297 9.24805-0.654297ZM6.39648-6.31836L8.50586-6.31836L8.50586-4.19922C8.50586-3.75977 8.79883-3.45703 9.22852-3.45703C9.67773-3.45703 9.9707-3.75977 9.9707-4.19922L9.9707-6.31836L12.0996-6.31836C12.5391-6.31836 12.8418-6.61133 12.8418-7.04102C12.8418-7.48047 12.5391-7.7832 12.0996-7.7832L9.9707-7.7832L9.9707-9.89258C9.9707-10.3418 9.67773-10.6445 9.22852-10.6445C8.79883-10.6445 8.50586-10.3418 8.50586-9.89258L8.50586-7.7832L6.39648-7.7832C5.94727-7.7832 5.64453-7.48047 5.64453-7.04102C5.64453-6.61133 5.94727-6.31836 6.39648-6.31836Z"/>
  </g>
  <g id="" transform="matrix(1 0 0 1 281.506 1933)">
   <path d="M11.709 2.91016C17.1582 2.91016 21.6699-1.61133 21.6699-7.05078C21.6699-12.5 17.1484-17.0117 11.6992-17.0117C6.25977-17.0117 1.74805-12.5 1.74805-7.05078C1.74805-1.61133 6.26953 2.91016 11.709 2.91016ZM11.709 1.25C7.09961 1.25 3.41797-2.44141 3.41797-7.05078C3.41797-11.6602 7.08984-15.3516 11.6992-15.3516C16.3086-15.3516 20-11.6602 20.0098-7.05078C20.0195-2.44141 16.3184 1.25 11.709 1.25ZM7.98828-6.23047L10.8789-6.23047L10.8789-3.32031C10.8789-2.83203 11.2109-2.5 11.6895-2.5C12.1777-2.5 12.5195-2.83203 12.5195-3.32031L12.5195-6.23047L15.4297-6.23047C15.918-6.23047 16.25-6.5625 16.25-7.04102C16.25-7.5293 15.918-7.87109 15.4297-7.87109L12.5195-7.87109L12.5195-10.7617C12.5195-11.2695 12.1777-11.6016 11.6895-11.6016C11.2109-11.6016 10.8789-11.2598 10.8789-10.7617L10.8789-7.87109L7.98828-7.87109C7.48047-7.87109 7.14844-7.5293 7.14844-7.04102C7.14844-6.5625 7.49023-6.23047 7.98828-6.23047Z"/>
  </g>
  <g id="" transform="matrix(1 0 0 1 304.924 1933)">
   <path d="M14.9707 5.66406C21.9336 5.66406 27.6953-0.0976562 27.6953-7.05078C27.6953-14.0137 21.9238-19.7754 14.9609-19.7754C8.00781-19.7754 2.25586-14.0137 2.25586-7.05078C2.25586-0.0976562 8.01758 5.66406 14.9707 5.66406ZM14.9707 3.84766C8.93555 3.84766 4.08203-1.01562 4.08203-7.05078C4.08203-13.0957 8.92578-17.9492 14.9609-17.9492C21.0059-17.9492 25.8594-13.0957 25.8691-7.05078C25.8789-1.01562 21.0156 3.84766 14.9707 3.84766ZM10.0586-6.14258L14.0625-6.14258L14.0625-2.12891C14.0625-1.5918 14.4336-1.2207 14.9512-1.2207C15.4883-1.2207 15.8594-1.5918 15.8594-2.12891L15.8594-6.14258L19.8828-6.14258C20.4102-6.14258 20.791-6.51367 20.791-7.03125C20.791-7.56836 20.4199-7.94922 19.8828-7.94922L15.8594-7.94922L15.8594-11.9531C15.8594-12.5098 15.4883-12.8809 14.9512-12.8809C14.4336-12.8809 14.0625-12.5 14.0625-11.9531L14.0625-7.94922L10.0586-7.94922C9.50195-7.94922 9.13086-7.56836 9.13086-7.03125C9.13086-6.51367 9.51172-6.14258 10.0586-6.14258Z"/>
  </g>
  <text style="stroke:none;fill:black;font-family:-apple-system,&quot;SF Pro Display&quot;,&quot;SF Pro Text&quot;,Helvetica,sans-serif;font-weight:bold;" transform="matrix(1 0 0 1 263 1953)">Design Variations</text>
  <text style="stroke:none;fill:black;font-family:-apple-system,&quot;SF Pro Display&quot;,&quot;SF Pro Text&quot;,Helvetica,sans-serif;" transform="matrix(1 0 0 1 263 1971)">Symbols are supported in up to nine weights and three scales.</text>
  <text style="stroke:none;fill:black;font-family:-apple-system,&quot;SF Pro Display&quot;,&quot;SF Pro Text&quot;,Helvetica,sans-serif;" transform="matrix(1 0 0 1 263 1989)">For optimal layout with text and other symbols, vertically align</text>
  <text style="stroke:none;fill:black;font-family:-apple-system,&quot;SF Pro Display&quot;,&quot;SF Pro Text&quot;,Helvetica,sans-serif;" transform="matrix(1 0 0 1 263 2007)">symbols with the adjacent text.</text>
  <line id="" style="fill:none;stroke:#00AEEF;stroke-width:0.5;opacity:1.0;" x1="776" x2="776" y1="1919" y2="1933"/>
  <g id="" transform="matrix(1 0 0 1 776 1933)">
   <path d="M3.31055 0.126953C3.82812 0.126953 4.08203-0.0683594 4.26758-0.605469L5.52734-4.0625L11.2891-4.0625L12.5488-0.605469C12.7344-0.0683594 12.9883 0.126953 13.4961 0.126953C14.0137 0.126953 14.3457-0.185547 14.3457-0.673828C14.3457-0.839844 14.3164-0.986328 14.2383-1.20117L9.6582-13.3887C9.43359-13.9941 9.0332-14.2871 8.4082-14.2871C7.80273-14.2871 7.39258-13.9941 7.17773-13.3984L2.59766-1.19141C2.51953-0.976562 2.49023-0.830078 2.49023-0.664062C2.49023-0.175781 2.80273 0.126953 3.31055 0.126953ZM6.00586-5.53711L8.37891-12.1094L8.42773-12.1094L10.8008-5.53711Z"/>
  </g>
  <line id="" style="fill:none;stroke:#00AEEF;stroke-width:0.5;opacity:1.0;" x1="792.836" x2="792.836" y1="1919" y2="1933"/>
  <text style="stroke:none;fill:black;font-family:-apple-system,&quot;SF Pro Display&quot;,&quot;SF Pro Text&quot;,Helvetica,sans-serif;font-weight:bold;" transform="matrix(1 0 0 1 776 1953)">Margins</text>
  <text style="stroke:none;fill:black;font-family:-apple-system,&quot;SF Pro Display&quot;,&quot;SF Pro Text&quot;,Helvetica,sans-serif;" transform="matrix(1 0 0 1 776 1971)">Leading and trailing margins on the left and right side of each symbol</text>
  <text style="stroke:none;fill:black;font-family:-apple-system,&quot;SF Pro Display&quot;,&quot;SF Pro Text&quot;,Helvetica,sans-serif;" transform="matrix(1 0 0 1 776 1989)">can be adjusted by modifying the x-location of the margin guidelines.</text>
  <text style="stroke:none;fill:black;font-family:-apple-system,&quot;SF Pro Display&quot;,&quot;SF Pro Text&quot;,Helvetica,sans-serif;" transform="matrix(1 0 0 1 776 2007)">Modifications are automatically applied proportionally to all</text>
  <text style="stroke:none;fill:black;font-family:-apple-system,&quot;SF Pro Display&quot;,&quot;SF Pro Text&quot;,Helvetica,sans-serif;" transform="matrix(1 0 0 1 776 2025)">scales and weights.</text>
  <g id="" transform="matrix(1 0 0 1 1289 1933)">
   <path d="M2.8418 1.86523L4.54102 3.57422C5.40039 4.44336 6.38672 4.38477 7.31445 3.35938L17.4902-7.85156C17.7539-7.76367 18.0273-7.7832 18.3398-7.8418L19.4043-8.03711L20.0684-7.36328L20.0293-6.80664C19.9902-6.30859 20.1172-5.92773 20.6055-5.44922L21.3672-4.70703C21.8457-4.22852 22.4609-4.19922 22.9297-4.66797L25.8398-7.58789C26.3086-8.05664 26.2891-8.65234 25.8105-9.13086L25.0391-9.89258C24.5605-10.3711 24.1895-10.5273 23.7109-10.4883L23.1348-10.4395L22.4902-11.0742L22.7344-12.1973C22.8613-12.7637 22.7051-13.2031 22.1191-13.7891L19.9219-15.9766C16.582-19.2969 12.1484-19.2188 9.25781-16.3281C8.83789-15.918 8.80859-15.3418 9.04297-14.9512C9.27734-14.5898 9.73633-14.3555 10.3809-14.5215C11.8457-14.8633 13.3691-14.9219 14.7949-13.9844L14.209-12.5293C14.0137-12.0508 13.9844-11.6504 14.1113-11.2891L3.04688-0.898438C2.06055 0.0195312 1.98242 0.996094 2.8418 1.86523ZM10.752-15.957C13.1836-17.7344 16.4746-17.4316 18.7012-15.2051L21.1328-12.793C21.3672-12.5586 21.4062-12.373 21.3379-12.0312L21.0156-10.5469L22.5195-9.0625L23.5059-9.12109C23.7598-9.13086 23.8379-9.11133 24.0332-8.91602L24.6094-8.33984L22.168-5.89844L21.5918-6.47461C21.3965-6.66992 21.3672-6.74805 21.377-7.01172L21.4453-7.98828L19.9512-9.47266L18.4277-9.21875C18.1055-9.15039 17.959-9.17969 17.7148-9.41406L15.7129-11.416C15.459-11.6504 15.4297-11.8164 15.5859-12.1875L16.4648-14.2773C14.9023-15.7324 12.8711-16.3574 10.8398-15.7617C10.6836-15.7227 10.625-15.8496 10.752-15.957ZM5.27344 2.30469L4.10156 1.14258C3.63281 0.683594 3.74023 0.341797 4.14062-0.0195312L14.9512-10.1953L16.416-8.71094L6.42578 2.27539C6.07422 2.67578 5.74219 2.77344 5.27344 2.30469Z"/>
  </g>
  <text style="stroke:none;fill:black;font-family:-apple-system,&quot;SF Pro Display&quot;,&quot;SF Pro Text&quot;,Helvetica,sans-serif;font-weight:bold;" transform="matrix(1 0 0 1 1289 1953)">Exporting</text>
  <text style="stroke:none;fill:black;font-family:-apple-system,&quot;SF Pro Display&quot;,&quot;SF Pro Text&quot;,Helvetica,sans-serif;" transform="matrix(1 0 0 1 1289 1971)">Symbols should be outlined when exporting to ensure the</text>
  <text style="stroke:none;fill:black;font-family:-apple-system,&quot;SF Pro Display&quot;,&quot;SF Pro Text&quot;,Helvetica,sans-serif;" transform="matrix(1 0 0 1 1289 1989)">design is preserved when submitting to Xcode.</text>
  <text id="template-version" style="stroke:none;fill:black;font-family:-apple-system,&quot;SF Pro Display&quot;,&quot;SF Pro Text&quot;,Helvetica,sans-serif;text-anchor:end;" transform="matrix(1 0 0 1 3036 1933)">Template v.2.0</text>
  <text style="stroke:none;fill:black;font-family:-apple-system,&quot;SF Pro Display&quot;,&quot;SF Pro Text&quot;,Helvetica,sans-serif;text-anchor:end;" transform="matrix(1 0 0 1 3036 1951)">Requires Xcode 12 or greater</text>
  <text style="stroke:none;fill:black;font-family:-apple-system,&quot;SF Pro Display&quot;,&quot;SF Pro Text&quot;,Helvetica,sans-serif;" transform="matrix(1 0 0 1 263 726)">Small</text>
  <text style="stroke:none;fill:black;font-family:-apple-system,&quot;SF Pro Display&quot;,&quot;SF Pro Text&quot;,Helvetica,sans-serif;" transform="matrix(1 0 0 1 263 1156)">Medium</text>
  <text style="stroke:none;fill:black;font-family:-apple-system,&quot;SF Pro Display&quot;,&quot;SF Pro Text&quot;,Helvetica,sans-serif;" transform="matrix(1 0 0 1 263 1586)">Large</text>
 </g>
 <g id="Guides">
  <g id="H-reference" style="fill:#27AAE1;stroke:none;" transform="matrix(1 0 0 1 339 696)">
   <path d="M0.976562 0L3.66211 0L12.9883-24.4629L45.752-24.4629L55.127 0L57.7637 0L30.6152-70.459L28.125-70.459ZM29.3457-67.1387L29.4434-67.1387L44.873-26.709L13.8672-26.709Z"/>
  </g>
  <line id="Baseline-S" style="fill:none;stroke:#27AAE1;opacity:1;stroke-width:0.5;" x1="263" x2="3036" y1="696" y2="696"/>
  <line id="Capline-S" style="fill:none;stroke:#27AAE1;opacity:1;stroke-width:0.5;" x1="263" x2="3036" y1="625.541" y2="625.541"/>
  <g id="H-reference" style="fill:#27AAE1;stroke:none;" transform="matrix(1 0 0 1 339 1126)">
   <path d="M0.976562 0L3.66211 0L12.9883-24.4629L45.752-24.4629L55.127 0L57.7637 0L30.6152-70.459L28.125-70.459ZM29.3457-67.1387L29.4434-67.1387L44.873-26.709L13.8672-26.709Z"/>
  </g>
  <line id="Baseline-M" style="fill:none;stroke:#27AAE1;opacity:1;stroke-width:0.5;" x1="263" x2="3036" y1="1126" y2="1126"/>
  <line id="Capline-M" style="fill:none;stroke:#27AAE1;opacity:1;stroke-width:0.5;" x1="263" x2="3036" y1="1055.54" y2="1055.54"/>
  <g id="H-reference" style="fill:#27AAE1;stroke:none;" transform="matrix(1 0 0 1 339 1556)">
   <path d="M0.976562 0L3.66211 0L12.9883-24.4629L45.752-24.4629L55.127 0L57.7637 0L30.6152-70.459L28.125-70.459ZM29.3457-67.1387L29.4434-67.1387L44.873-26.709L13.8672-26.709Z"/>
  </g>
  <line id="Baseline-L" style="fill:none;stroke:#27AAE1;opacity:1;stroke-width:0.5;" x1="263" x2="3036" y1="1556" y2="1556"/>
  <line id="Capline-L" style="fill:none;stroke:#27AAE1;opacity:1;stroke-width:0.5;" x1="263" x2="3036" y1="1485.54" y2="1485.54"/>
  <line id="left-margin" x1="1401.7066461049908" x2="1401.7066461049908" y1="1030.79" y2="1150.12" style="fill:none;stroke:#00AEEF;stroke-width:0.5;opacity:1.0;"/>
  <line id="right-margin" x1="1500.553353895009" x2="1500.553353895009" y1="1030.79" y2="1150.12" style="fill:none;stroke:#00AEEF;stroke-width:0.5;opacity:1.0;"/>
 </g>
 <g id="Symbols">
  <g id="Black-L" transform="matrix(1.0,0.0,0.0,1.0,2852.941376250562,1439.031395781812)">  <path stroke="none" stroke-miterlimit="4" xmlns:xlink="http://www.w3.org/1999/xlink" version="1.1" stroke-linejoin="miter" stroke-linecap="butt" fill-opacity="1" fill="#000000" stroke-dasharray="none" stroke-width="1px" stroke-opacity="1" fill-rule="nonzero" d="M20.433,0C14.783,0,10.217,4.565,10.217,10.216L10.217,61.295L10.217,91.942C10.217,97.593,14.783,102.158,20.433,102.158C26.084,102.158,30.649,97.593,30.649,91.942L30.649,71.511L46.835,71.511L87.698,112.374L54.082,146.023C50.091,150.013,50.091,156.494,54.082,160.484C58.072,164.475,64.553,164.475,68.544,160.484L102.16,126.836L135.809,160.452C139.799,164.443,146.28,164.443,150.27,160.452C154.261,156.462,154.261,149.981,150.27,145.991L116.622,112.374L150.238,78.726C154.229,74.735,154.229,68.255,150.238,64.264C146.248,60.273,139.767,60.273,135.777,64.264L102.16,97.912L74.769,70.521C90.476,66.754,102.16,52.612,102.16,35.755C102.16,15.994,86.166,0,66.405,0L20.433,0ZM66.405,51.079L30.649,51.079L30.649,20.432L66.405,20.432C74.865,20.432,81.728,27.295,81.728,35.755C81.728,44.215,74.865,51.079,66.405,51.079ZM66.405,51.079"/>
</g>
  <g id="Heavy-L" transform="matrix(1.0,0.0,0.0,1.0,2556.231376250562,1439.031395781812)">  <path stroke-linejoin="miter" stroke="none" fill="#000000" stroke-width="1px" xmlns:xlink="http://www.w3.org/1999/xlink" stroke-miterlimit="4" stroke-dasharray="none" stroke-opacity="1" stroke-linecap="butt" fill-rule="nonzero" version="1.1" fill-opacity="1" d="M20.433,0C14.783,0,10.217,4.565,10.217,10.216L10.217,61.295L10.217,91.942C10.217,97.593,14.783,102.158,20.433,102.158C26.084,102.158,30.649,97.593,30.649,91.942L30.649,71.511L46.835,71.511L87.698,112.374L54.082,146.023C50.091,150.013,50.091,156.494,54.082,160.484C58.072,164.475,64.553,164.475,68.544,160.484L102.16,126.836L135.809,160.452C139.799,164.443,146.28,164.443,150.27,160.452C154.261,156.462,154.261,149.981,150.27,145.991L116.622,112.374L150.238,78.726C154.229,74.735,154.229,68.255,150.238,64.264C146.248,60.273,139.767,60.273,135.777,64.264L102.16,97.912L74.769,70.521C90.476,66.754,102.16,52.612,102.16,35.755C102.16,15.994,86.166,0,66.405,0L20.433,0ZM66.405,51.079L30.649,51.079L30.649,20.432L66.405,20.432C74.865,20.432,81.728,27.295,81.728,35.755C81.728,44.215,74.865,51.079,66.405,51.079ZM66.405,51.079"/>
</g>
  <g id="Bold-L" transform="matrix(1.0,0.0,0.0,1.0,2259.521376250562,1439.031395781812)">  <path stroke-linecap="butt" stroke-dasharray="none" stroke-width="1px" stroke-opacity="1" fill-rule="nonzero" fill-opacity="1" xmlns:xlink="http://www.w3.org/1999/xlink" fill="#000000" stroke="none" version="1.1" stroke-linejoin="miter" stroke-miterlimit="4" d="M20.433,0C14.783,0,10.217,4.565,10.217,10.216L10.217,61.295L10.217,91.942C10.217,97.593,14.783,102.158,20.433,102.158C26.084,102.158,30.649,97.593,30.649,91.942L30.649,71.511L46.835,71.511L87.698,112.374L54.082,146.023C50.091,150.013,50.091,156.494,54.082,160.484C58.072,164.475,64.553,164.475,68.544,160.484L102.16,126.836L135.809,160.452C139.799,164.443,146.28,164.443,150.27,160.452C154.261,156.462,154.261,149.981,150.27,145.991L116.622,112.374L150.238,78.726C154.229,74.735,154.229,68.255,150.238,64.264C146.248,60.273,139.767,60.273,135.777,64.264L102.16,97.912L74.769,70.521C90.476,66.754,102.16,52.612,102.16,35.755C102.16,15.994,86.166,0,66.405,0L20.433,0ZM66.405,51.079L30.649,51.079L30.649,20.432L66.405,20.432C74.865,20.432,81.728,27.295,81.728,35.755C81.728,44.215,74.865,51.079,66.405,51.079ZM66.405,51.079"/>
</g>
  <g id="Semibold-L" transform="matrix(1.0,0.0,0.0,1.0,1962.811376250562,1439.031395781812)">  <path fill-opacity="1" stroke="none" stroke-opacity="1" stroke-linecap="butt" fill-rule="nonzero" version="1.1" xmlns:xlink="http://www.w3.org/1999/xlink" stroke-linejoin="miter" fill="#000000" stroke-miterlimit="4" stroke-width="1px" stroke-dasharray="none" d="M20.433,0C14.783,0,10.217,4.565,10.217,10.216L10.217,61.295L10.217,91.942C10.217,97.593,14.783,102.158,20.433,102.158C26.084,102.158,30.649,97.593,30.649,91.942L30.649,71.511L46.835,71.511L87.698,112.374L54.082,146.023C50.091,150.013,50.091,156.494,54.082,160.484C58.072,164.475,64.553,164.475,68.544,160.484L102.16,126.836L135.809,160.452C139.799,164.443,146.28,164.443,150.27,160.452C154.261,156.462,154.261,149.981,150.27,145.991L116.622,112.374L150.238,78.726C154.229,74.735,154.229,68.255,150.238,64.264C146.248,60.273,139.767,60.273,135.777,64.264L102.16,97.912L74.769,70.521C90.476,66.754,102.16,52.612,102.16,35.755C102.16,15.994,86.166,0,66.405,0L20.433,0ZM66.405,51.079L30.649,51.079L30.649,20.432L66.405,20.432C74.865,20.432,81.728,27.295,81.728,35.755C81.728,44.215,74.865,51.079,66.405,51.079ZM66.405,51.079"/>
</g>
  <g id="Medium-L" transform="matrix(1.0,0.0,0.0,1.0,1666.101376250562,1439.031395781812)">  <path stroke-miterlimit="4" stroke="none" stroke-linejoin="miter" fill-opacity="1" version="1.1" fill-rule="nonzero" fill="#000000" stroke-opacity="1" stroke-dasharray="none" stroke-linecap="butt" stroke-width="1px" xmlns:xlink="http://www.w3.org/1999/xlink" d="M20.433,0C14.783,0,10.217,4.565,10.217,10.216L10.217,61.295L10.217,91.942C10.217,97.593,14.783,102.158,20.433,102.158C26.084,102.158,30.649,97.593,30.649,91.942L30.649,71.511L46.835,71.511L87.698,112.374L54.082,146.023C50.091,150.013,50.091,156.494,54.082,160.484C58.072,164.475,64.553,164.475,68.544,160.484L102.16,126.836L135.809,160.452C139.799,164.443,146.28,164.443,150.27,160.452C154.261,156.462,154.261,149.981,150.27,145.991L116.622,112.374L150.238,78.726C154.229,74.735,154.229,68.255,150.238,64.264C146.248,60.273,139.767,60.273,135.777,64.264L102.16,97.912L74.769,70.521C90.476,66.754,102.16,52.612,102.16,35.755C102.16,15.994,86.166,0,66.405,0L20.433,0ZM66.405,51.079L30.649,51.079L30.649,20.432L66.405,20.432C74.865,20.432,81.728,27.295,81.728,35.755C81.728,44.215,74.865,51.079,66.405,51.079ZM66.405,51.079"/>
</g>
  <g id="Regular-L" transform="matrix(1.0,0.0,0.0,1.0,1369.391376250562,1439.031395781812)">  <path stroke-linejoin="miter" fill-opacity="1" fill-rule="nonzero" fill="#000000" stroke-width="1px" stroke-opacity="1" stroke-miterlimit="4" version="1.1" xmlns:xlink="http://www.w3.org/1999/xlink" stroke-dasharray="none" stroke="none" stroke-linecap="butt" d="M20.433,0C14.783,0,10.217,4.565,10.217,10.216L10.217,61.295L10.217,91.942C10.217,97.593,14.783,102.158,20.433,102.158C26.084,102.158,30.649,97.593,30.649,91.942L30.649,71.511L46.835,71.511L87.698,112.374L54.082,146.023C50.091,150.013,50.091,156.494,54.082,160.484C58.072,164.475,64.553,164.475,68.544,160.484L102.16,126.836L135.809,160.452C139.799,164.443,146.28,164.443,150.27,160.452C154.261,156.462,154.261,149.981,150.27,145.991L116.622,112.374L150.238,78.726C154.229,74.735,154.229,68.255,150.238,64.264C146.248,60.273,139.767,60.273,135.777,64.264L102.16,97.912L74.769,70.521C90.476,66.754,102.16,52.612,102.16,35.755C102.16,15.994,86.166,0,66.405,0L20.433,0ZM66.405,51.079L30.649,51.079L30.649,20.432L66.405,20.432C74.865,20.432,81.728,27.295,81.728,35.755C81.728,44.215,74.865,51.079,66.405,51.079ZM66.405,51.079"/>
</g>
  <g id="Light-L" transform="matrix(1.0,0.0,0.0,1.0,1072.6813762505622,1439.031395781812)">  <path stroke-dasharray="none" stroke-width="1px" version="1.1" xmlns:xlink="http://www.w3.org/1999/xlink" stroke="none" fill="#000000" stroke-opacity="1" fill-opacity="1" stroke-linejoin="miter" stroke-miterlimit="4" stroke-linecap="butt" fill-rule="nonzero" d="M20.433,0C14.783,0,10.217,4.565,10.217,10.216L10.217,61.295L10.217,91.942C10.217,97.593,14.783,102.158,20.433,102.158C26.084,102.158,30.649,97.593,30.649,91.942L30.649,71.511L46.835,71.511L87.698,112.374L54.082,146.023C50.091,150.013,50.091,156.494,54.082,160.484C58.072,164.475,64.553,164.475,68.544,160.484L102.16,126.836L135.809,160.452C139.799,164.443,146.28,164.443,150.27,160.452C154.261,156.462,154.261,149.981,150.27,145.991L116.622,112.374L150.238,78.726C154.229,74.735,154.229,68.255,150.238,64.264C146.248,60.273,139.767,60.273,135.777,64.264L102.16,97.912L74.769,70.521C90.476,66.754,102.16,52.612,102.16,35.755C102.16,15.994,86.166,0,66.405,0L20.433,0ZM66.405,51.079L30.649,51.079L30.649,20.432L66.405,20.432C74.865,20.432,81.728,27.295,81.728,35.755C81.728,44.215,74.865,51.079,66.405,51.079ZM66.405,51.079"/>
</g>
  <g id="Thin-L" transform="matrix(1.0,0.0,0.0,1.0,775.9713762505621,1439.031395781812)">  <path fill-rule="nonzero" fill-opacity="1" version="1.1" fill="#000000" stroke-linejoin="miter" xmlns:xlink="http://www.w3.org/1999/xlink" stroke-miterlimit="4" stroke-width="1px" stroke="none" stroke-dasharray="none" stroke-opacity="1" stroke-linecap="butt" d="M20.433,0C14.783,0,10.217,4.565,10.217,10.216L10.217,61.295L10.217,91.942C10.217,97.593,14.783,102.158,20.433,102.158C26.084,102.158,30.649,97.593,30.649,91.942L30.649,71.511L46.835,71.511L87.698,112.374L54.082,146.023C50.091,150.013,50.091,156.494,54.082,160.484C58.072,164.475,64.553,164.475,68.544,160.484L102.16,126.836L135.809,160.452C139.799,164.443,146.28,164.443,150.27,160.452C154.261,156.462,154.261,149.981,150.27,145.991L116.622,112.374L150.238,78.726C154.229,74.735,154.229,68.255,150.238,64.264C146.248,60.273,139.767,60.273,135.777,64.264L102.16,97.912L74.769,70.521C90.476,66.754,102.16,52.612,102.16,35.755C102.16,15.994,86.166,0,66.405,0L20.433,0ZM66.405,51.079L30.649,51.079L30.649,20.432L66.405,20.432C74.865,20.432,81.728,27.295,81.728,35.755C81.728,44.215,74.865,51.079,66.405,51.079ZM66.405,51.079"/>
</g>
  <g id="Ultralight-L" transform="matrix(1.0,0.0,0.0,1.0,479.2613762505621,1439.031395781812)">  <path stroke-linejoin="miter" stroke-linecap="butt" fill-opacity="1" stroke-opacity="1" fill-rule="nonzero" stroke-dasharray="none" version="1.1" xmlns:xlink="http://www.w3.org/1999/xlink" fill="#000000" stroke-width="1px" stroke="none" stroke-miterlimit="4" d="M20.433,0C14.783,0,10.217,4.565,10.217,10.216L10.217,61.295L10.217,91.942C10.217,97.593,14.783,102.158,20.433,102.158C26.084,102.158,30.649,97.593,30.649,91.942L30.649,71.511L46.835,71.511L87.698,112.374L54.082,146.023C50.091,150.013,50.091,156.494,54.082,160.484C58.072,164.475,64.553,164.475,68.544,160.484L102.16,126.836L135.809,160.452C139.799,164.443,146.28,164.443,150.27,160.452C154.261,156.462,154.261,149.981,150.27,145.991L116.622,112.374L150.238,78.726C154.229,74.735,154.229,68.255,150.238,64.264C146.248,60.273,139.767,60.273,135.777,64.264L102.16,97.912L74.769,70.521C90.476,66.754,102.16,52.612,102.16,35.755C102.16,15.994,86.166,0,66.405,0L20.433,0ZM66.405,51.079L30.649,51.079L30.649,20.432L66.405,20.432C74.865,20.432,81.728,27.295,81.728,35.755C81.728,44.215,74.865,51.079,66.405,51.079ZM66.405,51.079"/>
</g>
  <g id="Black-M" transform="matrix(1.0,0.0,0.0,1.0,2871.3167257756295,1027.4067453068794)">  <path stroke="none" stroke-miterlimit="4" xmlns:xlink="http://www.w3.org/1999/xlink" version="1.1" stroke-linejoin="miter" stroke-linecap="butt" fill-opacity="1" fill="#000000" stroke-dasharray="none" stroke-width="1px" stroke-opacity="1" fill-rule="nonzero" d="M15.84,0C11.459,0,7.92,3.539,7.92,7.919L7.92,47.515L7.92,71.273C7.92,75.654,11.459,79.192,15.84,79.192C20.22,79.192,23.759,75.654,23.759,71.273L23.759,55.435L36.306,55.435L67.983,87.112L41.924,113.196C38.83,116.289,38.83,121.313,41.924,124.406C45.017,127.5,50.041,127.5,53.135,124.406L79.194,98.322L105.278,124.382C108.371,127.475,113.395,127.475,116.489,124.382C119.582,121.288,119.582,116.264,116.489,113.171L90.405,87.112L116.464,61.028C119.557,57.934,119.557,52.91,116.464,49.817C113.37,46.724,108.347,46.724,105.253,49.817L79.194,75.901L57.96,54.668C70.136,51.747,79.194,40.784,79.194,27.717C79.194,12.399,66.795,0,51.476,0L15.84,0ZM51.476,39.596L23.759,39.596L23.759,15.838L51.476,15.838C58.035,15.838,63.355,21.159,63.355,27.717C63.355,34.276,58.035,39.596,51.476,39.596ZM51.476,39.596"/>
</g>
  <g id="Heavy-M" transform="matrix(1.0,0.0,0.0,1.0,2574.6067257756295,1027.4067453068794)">  <path stroke-linejoin="miter" stroke="none" fill="#000000" stroke-width="1px" xmlns:xlink="http://www.w3.org/1999/xlink" stroke-miterlimit="4" stroke-dasharray="none" stroke-opacity="1" stroke-linecap="butt" fill-rule="nonzero" version="1.1" fill-opacity="1" d="M15.84,0C11.459,0,7.92,3.539,7.92,7.919L7.92,47.515L7.92,71.273C7.92,75.654,11.459,79.192,15.84,79.192C20.22,79.192,23.759,75.654,23.759,71.273L23.759,55.435L36.306,55.435L67.983,87.112L41.924,113.196C38.83,116.289,38.83,121.313,41.924,124.406C45.017,127.5,50.041,127.5,53.135,124.406L79.194,98.322L105.278,124.382C108.371,127.475,113.395,127.475,116.489,124.382C119.582,121.288,119.582,116.264,116.489,113.171L90.405,87.112L116.464,61.028C119.557,57.934,119.557,52.91,116.464,49.817C113.37,46.724,108.347,46.724,105.253,49.817L79.194,75.901L57.96,54.668C70.136,51.747,79.194,40.784,79.194,27.717C79.194,12.399,66.795,0,51.476,0L15.84,0ZM51.476,39.596L23.759,39.596L23.759,15.838L51.476,15.838C58.035,15.838,63.355,21.159,63.355,27.717C63.355,34.276,58.035,39.596,51.476,39.596ZM51.476,39.596"/>
</g>
  <g id="Bold-M" transform="matrix(1.0,0.0,0.0,1.0,2277.8967257756294,1027.4067453068794)">  <path stroke-linecap="butt" stroke-dasharray="none" stroke-width="1px" stroke-opacity="1" fill-rule="nonzero" fill-opacity="1" xmlns:xlink="http://www.w3.org/1999/xlink" fill="#000000" stroke="none" version="1.1" stroke-linejoin="miter" stroke-miterlimit="4" d="M15.84,0C11.459,0,7.92,3.539,7.92,7.919L7.92,47.515L7.92,71.273C7.92,75.654,11.459,79.192,15.84,79.192C20.22,79.192,23.759,75.654,23.759,71.273L23.759,55.435L36.306,55.435L67.983,87.112L41.924,113.196C38.83,116.289,38.83,121.313,41.924,124.406C45.017,127.5,50.041,127.5,53.135,124.406L79.194,98.322L105.278,124.382C108.371,127.475,113.395,127.475,116.489,124.382C119.582,121.288,119.582,116.264,116.489,113.171L90.405,87.112L116.464,61.028C119.557,57.934,119.557,52.91,116.464,49.817C113.37,46.724,108.347,46.724,105.253,49.817L79.194,75.901L57.96,54.668C70.136,51.747,79.194,40.784,79.194,27.717C79.194,12.399,66.795,0,51.476,0L15.84,0ZM51.476,39.596L23.759,39.596L23.759,15.838L51.476,15.838C58.035,15.838,63.355,21.159,63.355,27.717C63.355,34.276,58.035,39.596,51.476,39.596ZM51.476,39.596"/>
</g>
  <g id="Semibold-M" transform="matrix(1.0,0.0,0.0,1.0,1981.1867257756294,1027.4067453068794)">  <path fill-opacity="1" stroke="none" stroke-opacity="1" stroke-linecap="butt" fill-rule="nonzero" version="1.1" xmlns:xlink="http://www.w3.org/1999/xlink" stroke-linejoin="miter" fill="#000000" stroke-miterlimit="4" stroke-width="1px" stroke-dasharray="none" d="M15.84,0C11.459,0,7.92,3.539,7.92,7.919L7.92,47.515L7.92,71.273C7.92,75.654,11.459,79.192,15.84,79.192C20.22,79.192,23.759,75.654,23.759,71.273L23.759,55.435L36.306,55.435L67.983,87.112L41.924,113.196C38.83,116.289,38.83,121.313,41.924,124.406C45.017,127.5,50.041,127.5,53.135,124.406L79.194,98.322L105.278,124.382C108.371,127.475,113.395,127.475,116.489,124.382C119.582,121.288,119.582,116.264,116.489,113.171L90.405,87.112L116.464,61.028C119.557,57.934,119.557,52.91,116.464,49.817C113.37,46.724,108.347,46.724,105.253,49.817L79.194,75.901L57.96,54.668C70.136,51.747,79.194,40.784,79.194,27.717C79.194,12.399,66.795,0,51.476,0L15.84,0ZM51.476,39.596L23.759,39.596L23.759,15.838L51.476,15.838C58.035,15.838,63.355,21.159,63.355,27.717C63.355,34.276,58.035,39.596,51.476,39.596ZM51.476,39.596"/>
</g>
  <g id="Medium-M" transform="matrix(1.0,0.0,0.0,1.0,1684.4767257756293,1027.4067453068794)">  <path stroke-miterlimit="4" stroke="none" stroke-linejoin="miter" fill-opacity="1" version="1.1" fill-rule="nonzero" fill="#000000" stroke-opacity="1" stroke-dasharray="none" stroke-linecap="butt" stroke-width="1px" xmlns:xlink="http://www.w3.org/1999/xlink" d="M15.84,0C11.459,0,7.92,3.539,7.92,7.919L7.92,47.515L7.92,71.273C7.92,75.654,11.459,79.192,15.84,79.192C20.22,79.192,23.759,75.654,23.759,71.273L23.759,55.435L36.306,55.435L67.983,87.112L41.924,113.196C38.83,116.289,38.83,121.313,41.924,124.406C45.017,127.5,50.041,127.5,53.135,124.406L79.194,98.322L105.278,124.382C108.371,127.475,113.395,127.475,116.489,124.382C119.582,121.288,119.582,116.264,116.489,113.171L90.405,87.112L116.464,61.028C119.557,57.934,119.557,52.91,116.464,49.817C113.37,46.724,108.347,46.724,105.253,49.817L79.194,75.901L57.96,54.668C70.136,51.747,79.194,40.784,79.194,27.717C79.194,12.399,66.795,0,51.476,0L15.84,0ZM51.476,39.596L23.759,39.596L23.759,15.838L51.476,15.838C58.035,15.838,63.355,21.159,63.355,27.717C63.355,34.276,58.035,39.596,51.476,39.596ZM51.476,39.596"/>
</g>
  <g id="Regular-M" transform="matrix(1.0,0.0,0.0,1.0,1387.7667257756293,1027.4067453068794)">  <path stroke-linejoin="miter" fill-opacity="1" fill-rule="nonzero" fill="#000000" stroke-width="1px" stroke-opacity="1" stroke-miterlimit="4" version="1.1" xmlns:xlink="http://www.w3.org/1999/xlink" stroke-dasharray="none" stroke="none" stroke-linecap="butt" d="M15.84,0C11.459,0,7.92,3.539,7.92,7.919L7.92,47.515L7.92,71.273C7.92,75.654,11.459,79.192,15.84,79.192C20.22,79.192,23.759,75.654,23.759,71.273L23.759,55.435L36.306,55.435L67.983,87.112L41.924,113.196C38.83,116.289,38.83,121.313,41.924,124.406C45.017,127.5,50.041,127.5,53.135,124.406L79.194,98.322L105.278,124.382C108.371,127.475,113.395,127.475,116.489,124.382C119.582,121.288,119.582,116.264,116.489,113.171L90.405,87.112L116.464,61.028C119.557,57.934,119.557,52.91,116.464,49.817C113.37,46.724,108.347,46.724,105.253,49.817L79.194,75.901L57.96,54.668C70.136,51.747,79.194,40.784,79.194,27.717C79.194,12.399,66.795,0,51.476,0L15.84,0ZM51.476,39.596L23.759,39.596L23.759,15.838L51.476,15.838C58.035,15.838,63.355,21.159,63.355,27.717C63.355,34.276,58.035,39.596,51.476,39.596ZM51.476,39.596"/>
</g>
  <g id="Light-M" transform="matrix(1.0,0.0,0.0,1.0,1091.0567257756295,1027.4067453068794)">  <path stroke-dasharray="none" stroke-width="1px" version="1.1" xmlns:xlink="http://www.w3.org/1999/xlink" stroke="none" fill="#000000" stroke-opacity="1" fill-opacity="1" stroke-linejoin="miter" stroke-miterlimit="4" stroke-linecap="butt" fill-rule="nonzero" d="M15.84,0C11.459,0,7.92,3.539,7.92,7.919L7.92,47.515L7.92,71.273C7.92,75.654,11.459,79.192,15.84,79.192C20.22,79.192,23.759,75.654,23.759,71.273L23.759,55.435L36.306,55.435L67.983,87.112L41.924,113.196C38.83,116.289,38.83,121.313,41.924,124.406C45.017,127.5,50.041,127.5,53.135,124.406L79.194,98.322L105.278,124.382C108.371,127.475,113.395,127.475,116.489,124.382C119.582,121.288,119.582,116.264,116.489,113.171L90.405,87.112L116.464,61.028C119.557,57.934,119.557,52.91,116.464,49.817C113.37,46.724,108.347,46.724,105.253,49.817L79.194,75.901L57.96,54.668C70.136,51.747,79.194,40.784,79.194,27.717C79.194,12.399,66.795,0,51.476,0L15.84,0ZM51.476,39.596L23.759,39.596L23.759,15.838L51.476,15.838C58.035,15.838,63.355,21.159,63.355,27.717C63.355,34.276,58.035,39.596,51.476,39.596ZM51.476,39.596"/>
</g>
  <g id="Thin-M" transform="matrix(1.0,0.0,0.0,1.0,794.3467257756296,1027.4067453068794)">  <path fill-rule="nonzero" fill-opacity="1" version="1.1" fill="#000000" stroke-linejoin="miter" xmlns:xlink="http://www.w3.org/1999/xlink" stroke-miterlimit="4" stroke-width="1px" stroke="none" stroke-dasharray="none" stroke-opacity="1" stroke-linecap="butt" d="M15.84,0C11.459,0,7.92,3.539,7.92,7.919L7.92,47.515L7.92,71.273C7.92,75.654,11.459,79.192,15.84,79.192C20.22,79.192,23.759,75.654,23.759,71.273L23.759,55.435L36.306,55.435L67.983,87.112L41.924,113.196C38.83,116.289,38.83,121.313,41.924,124.406C45.017,127.5,50.041,127.5,53.135,124.406L79.194,98.322L105.278,124.382C108.371,127.475,113.395,127.475,116.489,124.382C119.582,121.288,119.582,116.264,116.489,113.171L90.405,87.112L116.464,61.028C119.557,57.934,119.557,52.91,116.464,49.817C113.37,46.724,108.347,46.724,105.253,49.817L79.194,75.901L57.96,54.668C70.136,51.747,79.194,40.784,79.194,27.717C79.194,12.399,66.795,0,51.476,0L15.84,0ZM51.476,39.596L23.759,39.596L23.759,15.838L51.476,15.838C58.035,15.838,63.355,21.159,63.355,27.717C63.355,34.276,58.035,39.596,51.476,39.596ZM51.476,39.596"/>
</g>
  <g id="Ultralight-M" transform="matrix(1.0,0.0,0.0,1.0,497.6367257756295,1027.4067453068794)">  <path stroke-linejoin="miter" stroke-linecap="butt" fill-opacity="1" stroke-opacity="1" fill-rule="nonzero" stroke-dasharray="none" version="1.1" xmlns:xlink="http://www.w3.org/1999/xlink" fill="#000000" stroke-width="1px" stroke="none" stroke-miterlimit="4" d="M15.84,0C11.459,0,7.92,3.539,7.92,7.919L7.92,47.515L7.92,71.273C7.92,75.654,11.459,79.192,15.84,79.192C20.22,79.192,23.759,75.654,23.759,71.273L23.759,55.435L36.306,55.435L67.983,87.112L41.924,113.196C38.83,116.289,38.83,121.313,41.924,124.406C45.017,127.5,50.041,127.5,53.135,124.406L79.194,98.322L105.278,124.382C108.371,127.475,113.395,127.475,116.489,124.382C119.582,121.288,119.582,116.264,116.489,113.171L90.405,87.112L116.464,61.028C119.557,57.934,119.557,52.91,116.464,49.817C113.37,46.724,108.347,46.724,105.253,49.817L79.194,75.901L57.96,54.668C70.136,51.747,79.194,40.784,79.194,27.717C79.194,12.399,66.795,0,51.476,0L15.84,0ZM51.476,39.596L23.759,39.596L23.759,15.838L51.476,15.838C58.035,15.838,63.355,21.159,63.355,27.717C63.355,34.276,58.035,39.596,51.476,39.596ZM51.476,39.596"/>
</g>
  <g id="Black-S" transform="matrix(1.0,0.0,0.0,1.0,2885.066556282318,611.1565758135679)">  <path stroke="none" stroke-miterlimit="4" xmlns:xlink="http://www.w3.org/1999/xlink" version="1.1" stroke-linejoin="miter" stroke-linecap="butt" fill-opacity="1" fill="#000000" stroke-dasharray="none" stroke-width="1px" stroke-opacity="1" fill-rule="nonzero" d="M12.402,0C8.973,0,6.202,2.771,6.202,6.201L6.202,37.205L6.202,55.807C6.202,59.237,8.973,62.008,12.402,62.008C15.832,62.008,18.603,59.237,18.603,55.807L18.603,43.405L28.428,43.405L53.231,68.208L32.826,88.632C30.404,91.054,30.404,94.988,32.826,97.41C35.249,99.832,39.182,99.832,41.604,97.41L62.009,76.986L82.433,97.391C84.855,99.813,88.788,99.813,91.211,97.391C93.633,94.969,93.633,91.035,91.211,88.613L70.787,68.208L91.191,47.785C93.613,45.363,93.613,41.429,91.191,39.007C88.769,36.585,84.835,36.585,82.413,39.007L62.009,59.431L45.383,42.805C54.917,40.518,62.009,31.934,62.009,21.703C62.009,9.708,52.301,0,40.306,0L12.402,0ZM40.306,31.004L18.603,31.004L18.603,12.402L40.306,12.402C45.441,12.402,49.607,16.568,49.607,21.703C49.607,26.838,45.441,31.004,40.306,31.004ZM40.306,31.004"/>
</g>
  <g id="Heavy-S" transform="matrix(1.0,0.0,0.0,1.0,2588.356556282318,611.1565758135679)">  <path stroke-linejoin="miter" stroke="none" fill="#000000" stroke-width="1px" xmlns:xlink="http://www.w3.org/1999/xlink" stroke-miterlimit="4" stroke-dasharray="none" stroke-opacity="1" stroke-linecap="butt" fill-rule="nonzero" version="1.1" fill-opacity="1" d="M12.402,0C8.973,0,6.202,2.771,6.202,6.201L6.202,37.205L6.202,55.807C6.202,59.237,8.973,62.008,12.402,62.008C15.832,62.008,18.603,59.237,18.603,55.807L18.603,43.405L28.428,43.405L53.231,68.208L32.826,88.632C30.404,91.054,30.404,94.988,32.826,97.41C35.249,99.832,39.182,99.832,41.604,97.41L62.009,76.986L82.433,97.391C84.855,99.813,88.788,99.813,91.211,97.391C93.633,94.969,93.633,91.035,91.211,88.613L70.787,68.208L91.191,47.785C93.613,45.363,93.613,41.429,91.191,39.007C88.769,36.585,84.835,36.585,82.413,39.007L62.009,59.431L45.383,42.805C54.917,40.518,62.009,31.934,62.009,21.703C62.009,9.708,52.301,0,40.306,0L12.402,0ZM40.306,31.004L18.603,31.004L18.603,12.402L40.306,12.402C45.441,12.402,49.607,16.568,49.607,21.703C49.607,26.838,45.441,31.004,40.306,31.004ZM40.306,31.004"/>
</g>
  <g id="Bold-S" transform="matrix(1.0,0.0,0.0,1.0,2291.6465562823178,611.1565758135679)">  <path stroke-linecap="butt" stroke-dasharray="none" stroke-width="1px" stroke-opacity="1" fill-rule="nonzero" fill-opacity="1" xmlns:xlink="http://www.w3.org/1999/xlink" fill="#000000" stroke="none" version="1.1" stroke-linejoin="miter" stroke-miterlimit="4" d="M12.402,0C8.973,0,6.202,2.771,6.202,6.201L6.202,37.205L6.202,55.807C6.202,59.237,8.973,62.008,12.402,62.008C15.832,62.008,18.603,59.237,18.603,55.807L18.603,43.405L28.428,43.405L53.231,68.208L32.826,88.632C30.404,91.054,30.404,94.988,32.826,97.41C35.249,99.832,39.182,99.832,41.604,97.41L62.009,76.986L82.433,97.391C84.855,99.813,88.788,99.813,91.211,97.391C93.633,94.969,93.633,91.035,91.211,88.613L70.787,68.208L91.191,47.785C93.613,45.363,93.613,41.429,91.191,39.007C88.769,36.585,84.835,36.585,82.413,39.007L62.009,59.431L45.383,42.805C54.917,40.518,62.009,31.934,62.009,21.703C62.009,9.708,52.301,0,40.306,0L12.402,0ZM40.306,31.004L18.603,31.004L18.603,12.402L40.306,12.402C45.441,12.402,49.607,16.568,49.607,21.703C49.607,26.838,45.441,31.004,40.306,31.004ZM40.306,31.004"/>
</g>
  <g id="Semibold-S" transform="matrix(1.0,0.0,0.0,1.0,1994.936556282318,611.1565758135679)">  <path fill-opacity="1" stroke="none" stroke-opacity="1" stroke-linecap="butt" fill-rule="nonzero" version="1.1" xmlns:xlink="http://www.w3.org/1999/xlink" stroke-linejoin="miter" fill="#000000" stroke-miterlimit="4" stroke-width="1px" stroke-dasharray="none" d="M12.402,0C8.973,0,6.202,2.771,6.202,6.201L6.202,37.205L6.202,55.807C6.202,59.237,8.973,62.008,12.402,62.008C15.832,62.008,18.603,59.237,18.603,55.807L18.603,43.405L28.428,43.405L53.231,68.208L32.826,88.632C30.404,91.054,30.404,94.988,32.826,97.41C35.249,99.832,39.182,99.832,41.604,97.41L62.009,76.986L82.433,97.391C84.855,99.813,88.788,99.813,91.211,97.391C93.633,94.969,93.633,91.035,91.211,88.613L70.787,68.208L91.191,47.785C93.613,45.363,93.613,41.429,91.191,39.007C88.769,36.585,84.835,36.585,82.413,39.007L62.009,59.431L45.383,42.805C54.917,40.518,62.009,31.934,62.009,21.703C62.009,9.708,52.301,0,40.306,0L12.402,0ZM40.306,31.004L18.603,31.004L18.603,12.402L40.306,12.402C45.441,12.402,49.607,16.568,49.607,21.703C49.607,26.838,45.441,31.004,40.306,31.004ZM40.306,31.004"/>
</g>
  <g id="Medium-S" transform="matrix(1.0,0.0,0.0,1.0,1698.226556282318,611.1565758135679)">  <path stroke-miterlimit="4" stroke="none" stroke-linejoin="miter" fill-opacity="1" version="1.1" fill-rule="nonzero" fill="#000000" stroke-opacity="1" stroke-dasharray="none" stroke-linecap="butt" stroke-width="1px" xmlns:xlink="http://www.w3.org/1999/xlink" d="M12.402,0C8.973,0,6.202,2.771,6.202,6.201L6.202,37.205L6.202,55.807C6.202,59.237,8.973,62.008,12.402,62.008C15.832,62.008,18.603,59.237,18.603,55.807L18.603,43.405L28.428,43.405L53.231,68.208L32.826,88.632C30.404,91.054,30.404,94.988,32.826,97.41C35.249,99.832,39.182,99.832,41.604,97.41L62.009,76.986L82.433,97.391C84.855,99.813,88.788,99.813,91.211,97.391C93.633,94.969,93.633,91.035,91.211,88.613L70.787,68.208L91.191,47.785C93.613,45.363,93.613,41.429,91.191,39.007C88.769,36.585,84.835,36.585,82.413,39.007L62.009,59.431L45.383,42.805C54.917,40.518,62.009,31.934,62.009,21.703C62.009,9.708,52.301,0,40.306,0L12.402,0ZM40.306,31.004L18.603,31.004L18.603,12.402L40.306,12.402C45.441,12.402,49.607,16.568,49.607,21.703C49.607,26.838,45.441,31.004,40.306,31.004ZM40.306,31.004"/>
</g>
  <g id="Regular-S" transform="matrix(1.0,0.0,0.0,1.0,1401.5165562823179,611.1565758135679)">  <path stroke-linejoin="miter" fill-opacity="1" fill-rule="nonzero" fill="#000000" stroke-width="1px" stroke-opacity="1" stroke-miterlimit="4" version="1.1" xmlns:xlink="http://www.w3.org/1999/xlink" stroke-dasharray="none" stroke="none" stroke-linecap="butt" d="M12.402,0C8.973,0,6.202,2.771,6.202,6.201L6.202,37.205L6.202,55.807C6.202,59.237,8.973,62.008,12.402,62.008C15.832,62.008,18.603,59.237,18.603,55.807L18.603,43.405L28.428,43.405L53.231,68.208L32.826,88.632C30.404,91.054,30.404,94.988,32.826,97.41C35.249,99.832,39.182,99.832,41.604,97.41L62.009,76.986L82.433,97.391C84.855,99.813,88.788,99.813,91.211,97.391C93.633,94.969,93.633,91.035,91.211,88.613L70.787,68.208L91.191,47.785C93.613,45.363,93.613,41.429,91.191,39.007C88.769,36.585,84.835,36.585,82.413,39.007L62.009,59.431L45.383,42.805C54.917,40.518,62.009,31.934,62.009,21.703C62.009,9.708,52.301,0,40.306,0L12.402,0ZM40.306,31.004L18.603,31.004L18.603,12.402L40.306,12.402C45.441,12.402,49.607,16.568,49.607,21.703C49.607,26.838,45.441,31.004,40.306,31.004ZM40.306,31.004"/>
</g>
  <g id="Light-S" transform="matrix(1.0,0.0,0.0,1.0,1104.806556282318,611.1565758135679)">  <path stroke-dasharray="none" stroke-width="1px" version="1.1" xmlns:xlink="http://www.w3.org/1999/xlink" stroke="none" fill="#000000" stroke-opacity="1" fill-opacity="1" stroke-linejoin="miter" stroke-miterlimit="4" stroke-linecap="butt" fill-rule="nonzero" d="M12.402,0C8.973,0,6.202,2.771,6.202,6.201L6.202,37.205L6.202,55.807C6.202,59.237,8.973,62.008,12.402,62.008C15.832,62.008,18.603,59.237,18.603,55.807L18.603,43.405L28.428,43.405L53.231,68.208L32.826,88.632C30.404,91.054,30.404,94.988,32.826,97.41C35.249,99.832,39.182,99.832,41.604,97.41L62.009,76.986L82.433,97.391C84.855,99.813,88.788,99.813,91.211,97.391C93.633,94.969,93.633,91.035,91.211,88.613L70.787,68.208L91.191,47.785C93.613,45.363,93.613,41.429,91.191,39.007C88.769,36.585,84.835,36.585,82.413,39.007L62.009,59.431L45.383,42.805C54.917,40.518,62.009,31.934,62.009,21.703C62.009,9.708,52.301,0,40.306,0L12.402,0ZM40.306,31.004L18.603,31.004L18.603,12.402L40.306,12.402C45.441,12.402,49.607,16.568,49.607,21.703C49.607,26.838,45.441,31.004,40.306,31.004ZM40.306,31.004"/>
</g>
  <g id="Thin-S" transform="matrix(1.0,0.0,0.0,1.0,808.0965562823179,611.1565758135679)">  <path fill-rule="nonzero" fill-opacity="1" version="1.1" fill="#000000" stroke-linejoin="miter" xmlns:xlink="http://www.w3.org/1999/xlink" stroke-miterlimit="4" stroke-width="1px" stroke="none" stroke-dasharray="none" stroke-opacity="1" stroke-linecap="butt" d="M12.402,0C8.973,0,6.202,2.771,6.202,6.201L6.202,37.205L6.202,55.807C6.202,59.237,8.973,62.008,12.402,62.008C15.832,62.008,18.603,59.237,18.603,55.807L18.603,43.405L28.428,43.405L53.231,68.208L32.826,88.632C30.404,91.054,30.404,94.988,32.826,97.41C35.249,99.832,39.182,99.832,41.604,97.41L62.009,76.986L82.433,97.391C84.855,99.813,88.788,99.813,91.211,97.391C93.633,94.969,93.633,91.035,91.211,88.613L70.787,68.208L91.191,47.785C93.613,45.363,93.613,41.429,91.191,39.007C88.769,36.585,84.835,36.585,82.413,39.007L62.009,59.431L45.383,42.805C54.917,40.518,62.009,31.934,62.009,21.703C62.009,9.708,52.301,0,40.306,0L12.402,0ZM40.306,31.004L18.603,31.004L18.603,12.402L40.306,12.402C45.441,12.402,49.607,16.568,49.607,21.703C49.607,26.838,45.441,31.004,40.306,31.004ZM40.306,31.004"/>
</g>
  <g id="Ultralight-S" transform="matrix(1.0,0.0,0.0,1.0,511.3865562823179,611.1565758135679)">  <path stroke-linejoin="miter" stroke-linecap="butt" fill-opacity="1" stroke-opacity="1" fill-rule="nonzero" stroke-dasharray="none" version="1.1" xmlns:xlink="http://www.w3.org/1999/xlink" fill="#000000" stroke-width="1px" stroke="none" stroke-miterlimit="4" d="M12.402,0C8.973,0,6.202,2.771,6.202,6.201L6.202,37.205L6.202,55.807C6.202,59.237,8.973,62.008,12.402,62.008C15.832,62.008,18.603,59.237,18.603,55.807L18.603,43.405L28.428,43.405L53.231,68.208L32.826,88.632C30.404,91.054,30.404,94.988,32.826,97.41C35.249,99.832,39.182,99.832,41.604,97.41L62.009,76.986L82.433,97.391C84.855,99.813,88.788,99.813,91.211,97.391C93.633,94.969,93.633,91.035,91.211,88.613L70.787,68.208L91.191,47.785C93.613,45.363,93.613,41.429,91.191,39.007C88.769,36.585,84.835,36.585,82.413,39.007L62.009,59.431L45.383,42.805C54.917,40.518,62.009,31.934,62.009,21.703C62.009,9.708,52.301,0,40.306,0L12.402,0ZM40.306,31.004L18.603,31.004L18.603,12.402L40.306,12.402C45.441,12.402,49.607,16.568,49.607,21.703C49.607,26.838,45.441,31.004,40.306,31.004ZM40.306,31.004"/>
</g>
 </g>
</svg>
